<?xml version="1.0" encoding="UTF-8"?> <svg xmlns="http://www.w3.org/2000/svg" width="538.032" height="41.687" viewBox="0 0 538.032 41.687"><defs><style> .cls-1 { fill: #141416; fill-rule: evenodd; } </style></defs><path id="hatchapuri-heading" class="cls-1" d="M81.822,209.342l9.947-16.006H82.08l-5.457,9.711-5.672-9.711h-9.41l9.8,15.34-10.42,16.07h9.6l6.059-9.818,6.123,9.818h9.818Zm42.776,15.4-10.377-31.539H102.9L92.651,224.746h9.325l1.59-5.887h10.2l1.547,5.887H124.6ZM105.326,211.9q1.955-7.391,2.525-9.9t0.762-3.609q0.215,1.18.892,3.91t1.149,4.447l1.354,5.156h-6.682Zm49.285-18.562h-8.55v13.277a20.548,20.548,0,0,1-6.768,1.461,3.861,3.861,0,0,1-2.943-.988,4.746,4.746,0,0,1-.924-3.287V193.336h-8.551v13.277a7.818,7.818,0,0,0,2.5,6.2,10.2,10.2,0,0,0,6.972,2.2,30,30,0,0,0,9.711-1.89v11.623h8.55v-31.41Zm35.321,31.41-10.377-31.539H168.233l-10.248,31.539h9.324l1.59-5.887H179.1l1.547,5.887h9.281ZM170.66,211.9q1.954-7.391,2.525-9.9t0.762-3.609q0.214,1.18.892,3.91t1.149,4.447l1.354,5.156H170.66Zm48.405-18.562H193.326v31.41h8.53V200.275h8.658v24.471h8.551v-31.41Zm16.7,30.948a10.136,10.136,0,0,0,4.114-2.836,23.425,23.425,0,0,0,3.5-6.069l9.539-22.043h-9.152l-3.2,8.744a67.726,67.726,0,0,0-2.169,6.832h-0.3q-0.151-.6-0.408-1.418t-0.559-1.644q-0.3-.826-0.612-1.6t-0.527-1.332l-3.867-9.582h-9.152l10.248,22.472a4.338,4.338,0,0,1-1.493,2.16,3.944,3.944,0,0,1-2.245.612,14.09,14.09,0,0,1-5.114-.8v6.746a21.941,21.941,0,0,0,5.5.645A17.026,17.026,0,0,0,235.769,224.284Zm39.842-28.349q-2.986-2.6-8.937-2.6H255.8v31.41h8.486v-10.42h2.385q5.715,0,8.819-2.868t3.105-8.132A9.275,9.275,0,0,0,275.611,195.935Zm-11.322,4.254h2.192q3.522,0,3.523,3.18a3.9,3.9,0,0,1-1.128,2.965,4.226,4.226,0,0,1-3.04,1.074h-1.547v-7.219ZM283.6,224.746h10.463L306.7,202.66h0.172q-0.387,5.952-.386,8.937v13.149H314v-31.41H303.52l-12.526,22.086h-0.172q0.343-6.446.344-8.594V193.336H283.6v31.41Zm48.619,0h12.224q5.544,0,8.755-2.46a8.023,8.023,0,0,0,3.212-6.735,7.785,7.785,0,0,0-1.31-4.684,7.31,7.31,0,0,0-4.233-2.578v-0.215a6.041,6.041,0,0,0,3.567-2.406,7.487,7.487,0,0,0,1.353-4.512,6.448,6.448,0,0,0-3.1-5.919q-3.105-1.9-9.507-1.9H332.223v31.41Zm8.486-24.986h2.385q4,0,4,2.642a2.623,2.623,0,0,1-1,2.235,4.623,4.623,0,0,1-2.825.751h-2.557V199.76Zm2.815,11.837a4.9,4.9,0,0,1,3.083.838,2.884,2.884,0,0,1,1.063,2.407q0,3.351-3.975,3.351h-2.986v-6.6h2.815Zm55.515-18.261H373.3v31.41h8.529V200.275h8.658v24.471h8.551v-31.41Zm32.291,3.609q-3.867-4.1-11.365-4.1-7.476,0-11.4,4.135t-3.921,11.978q0,7.927,3.942,12.074t11.333,4.147q7.5,0,11.387-4.125T435.2,209Q435.2,201.05,431.33,196.945ZM419.965,199.8a5.387,5.387,0,0,1,4.716,2.245q1.579,2.245,1.579,6.95,0,4.683-1.558,6.9a5.447,5.447,0,0,1-4.78,2.213q-6.338,0-6.338-9.109,0-9.195,6.381-9.195h0Zm52.529,17.982h-4.3V193.336H447.25a65.331,65.331,0,0,1-2.363,13.417,48.22,48.22,0,0,1-4.641,11.032h-2.6v16.736h8.271v-9.775h18.305v9.775h8.271V217.785Zm-23.267,0a52.046,52.046,0,0,0,4.834-17.51h5.586v17.51h-10.42Zm56.009,6.961L494.86,193.207H483.537l-10.248,31.539h9.324l1.59-5.887h10.205l1.547,5.887h9.281ZM485.965,211.9q1.954-7.391,2.524-9.9t0.763-3.609q0.214,1.18.892,3.91t1.149,4.447l1.354,5.156h-6.682Zm42.475-15.963q-2.987-2.6-8.938-2.6H508.631v31.41h8.486v-10.42H519.5q5.715,0,8.819-2.868t3.105-8.132A9.277,9.277,0,0,0,528.44,195.935Zm-11.323,4.254h2.192q3.524,0,3.523,3.18a3.9,3.9,0,0,1-1.128,2.965,4.226,4.226,0,0,1-3.04,1.074h-1.547v-7.219Zm44.838-3.244q-3.867-4.1-11.365-4.1-7.476,0-11.4,4.135t-3.921,11.978q0,7.927,3.942,12.074t11.333,4.147q7.5,0,11.387-4.125T565.822,209Q565.822,201.05,561.955,196.945ZM550.59,199.8a5.387,5.387,0,0,1,4.716,2.245q1.58,2.245,1.579,6.95,0,4.683-1.558,6.9a5.447,5.447,0,0,1-4.78,2.213q-6.338,0-6.338-9.109,0-9.195,6.381-9.195h0Zm38.049,8.529,9.689-15H589l-8.98,15.211V193.336h-8.53v31.41h8.53v-15.92l9.324,15.92h9.6Z" transform="translate(-60.906 -192.844)"></path></svg> 