<?xml version="1.0" encoding="UTF-8"?> <svg xmlns="http://www.w3.org/2000/svg" width="308.968" height="44.656" viewBox="0 0 308.968 44.656"><defs><style> .cls-1 { fill: #141416; fill-rule: evenodd; } </style></defs><path id="gift-kutab-text" class="cls-1" d="M683.157,303.262h-1.7v5.5h-6.452v-5.5h-1.687v12.8h1.687v-5.915h6.452v5.915h1.7v-12.8Zm10.31,11.136-0.993-.773a3.664,3.664,0,0,1-1.046.931,2.825,2.825,0,0,1-1.459.352,2.583,2.583,0,0,1-2-.866,3.374,3.374,0,0,1-.822-2.272h6.442v-0.677a5.289,5.289,0,0,0-1.028-3.5,3.564,3.564,0,0,0-2.883-1.221,3.8,3.8,0,0,0-2.105.628,4.217,4.217,0,0,0-1.511,1.74,5.7,5.7,0,0,0-.541,2.527v0.3a4.713,4.713,0,0,0,1.213,3.4,4.152,4.152,0,0,0,3.146,1.27,3.993,3.993,0,0,0,3.586-1.837h0Zm-2.171-6.007a3.093,3.093,0,0,1,.668,1.92v0.123H687.2a3.479,3.479,0,0,1,.826-2.008,2.166,2.166,0,0,1,1.652-.716A2.041,2.041,0,0,1,691.3,308.391Zm16.664,2.869a5.754,5.754,0,0,0-1-3.594,3.241,3.241,0,0,0-2.712-1.292,3.349,3.349,0,0,0-2.759,1.23l-0.079-1.055h-1.486v13.166h1.626v-4.579a3.485,3.485,0,0,0,2.725,1.1,3.181,3.181,0,0,0,2.689-1.327,5.7,5.7,0,0,0,.993-3.5v-0.15Zm-2.315,2.721a2.2,2.2,0,0,1-1.859.927,2.4,2.4,0,0,1-2.233-1.3v-4.544a2.391,2.391,0,0,1,2.215-1.31,2.209,2.209,0,0,1,1.881.932,4.2,4.2,0,0,1,.685,2.54A4.6,4.6,0,0,1,705.645,313.981Zm12,2.078v-0.14a5.346,5.346,0,0,1-.334-2.083v-4.377a2.965,2.965,0,0,0-.967-2.264,3.762,3.762,0,0,0-2.575-.821,4.627,4.627,0,0,0-1.9.386,3.448,3.448,0,0,0-1.371,1.051,2.24,2.24,0,0,0-.5,1.375h1.635a1.3,1.3,0,0,1,.588-1.063,2.372,2.372,0,0,1,1.459-.44,2.049,2.049,0,0,1,1.5.506,1.824,1.824,0,0,1,.51,1.357v0.748h-1.582a5.324,5.324,0,0,0-3.177.821,2.689,2.689,0,0,0-1.13,2.307,2.578,2.578,0,0,0,.9,2.018,3.359,3.359,0,0,0,2.307.8,3.627,3.627,0,0,0,2.707-1.178,3.409,3.409,0,0,0,.229,1h1.705Zm-5.713-1.67a1.479,1.479,0,0,1-.51-1.195q0-1.749,2.989-1.749h1.274V313.4a2.387,2.387,0,0,1-.993,1.028,2.854,2.854,0,0,1-1.45.4A1.962,1.962,0,0,1,711.934,314.389Zm9.877-.369a4.106,4.106,0,0,1-.677-2.531v-0.308a4.18,4.18,0,0,1,.682-2.579,2.274,2.274,0,0,1,1.92-.892,2.171,2.171,0,0,1,1.551.593,2.24,2.24,0,0,1,.7,1.516h1.538a3.421,3.421,0,0,0-1.129-2.487,3.814,3.814,0,0,0-2.659-.958,4.158,4.158,0,0,0-2.254.6,3.886,3.886,0,0,0-1.464,1.679,5.725,5.725,0,0,0-.51,2.47v0.272a5.17,5.17,0,0,0,1.147,3.547,3.92,3.92,0,0,0,3.09,1.3,3.993,3.993,0,0,0,1.832-.44,3.7,3.7,0,0,0,1.385-1.177,2.952,2.952,0,0,0,.562-1.556h-1.538a1.854,1.854,0,0,1-.721,1.318,2.338,2.338,0,0,1-1.52.528A2.287,2.287,0,0,1,721.811,314.02Zm15.51-7.471h-7.637v9.51h1.634v-8.165H735.7v8.165h1.626v-9.51Zm10.772,4.711a5.754,5.754,0,0,0-1-3.594,3.241,3.241,0,0,0-2.711-1.292,3.35,3.35,0,0,0-2.76,1.23l-0.079-1.055h-1.486v13.166h1.626v-4.579a3.487,3.487,0,0,0,2.725,1.1,3.181,3.181,0,0,0,2.689-1.327,5.689,5.689,0,0,0,.994-3.5v-0.15Zm-2.316,2.721a2.2,2.2,0,0,1-1.859.927,2.4,2.4,0,0,1-2.233-1.3v-4.544a2.392,2.392,0,0,1,2.215-1.31,2.209,2.209,0,0,1,1.881.932,4.2,4.2,0,0,1,.686,2.54A4.59,4.59,0,0,1,745.777,313.981Zm4.132-2.65a5.145,5.145,0,0,0,1.2,3.559,4,4,0,0,0,3.133,1.345,4.21,4.21,0,0,0,2.272-.615,4.04,4.04,0,0,0,1.521-1.719,5.668,5.668,0,0,0,.531-2.491V311.3a5.173,5.173,0,0,0-1.2-3.577,4.011,4.011,0,0,0-3.142-1.344,4.165,4.165,0,0,0-2.237.606,4.091,4.091,0,0,0-1.529,1.723,5.605,5.605,0,0,0-.55,2.513v0.115Zm2.373-2.663a2.335,2.335,0,0,1,1.943-.958,2.359,2.359,0,0,1,1.973.971,4.059,4.059,0,0,1,.742,2.535,4.455,4.455,0,0,1-.729,2.721,2.487,2.487,0,0,1-3.933.013,4.072,4.072,0,0,1-.734-2.54A4.414,4.414,0,0,1,752.282,308.668Zm10.4,5.352a4.1,4.1,0,0,1-.677-2.531v-0.308a4.187,4.187,0,0,1,.681-2.579,2.274,2.274,0,0,1,1.92-.892,2.172,2.172,0,0,1,1.552.593,2.24,2.24,0,0,1,.7,1.516H768.4a3.418,3.418,0,0,0-1.129-2.487,3.812,3.812,0,0,0-2.659-.958,4.16,4.16,0,0,0-2.254.6,3.877,3.877,0,0,0-1.463,1.679,5.725,5.725,0,0,0-.51,2.47v0.272a5.165,5.165,0,0,0,1.147,3.547,3.916,3.916,0,0,0,3.089,1.3,3.994,3.994,0,0,0,1.833-.44,3.7,3.7,0,0,0,1.384-1.177,2.943,2.943,0,0,0,.562-1.556h-1.538a1.856,1.856,0,0,1-.72,1.318,2.343,2.343,0,0,1-1.521.528A2.285,2.285,0,0,1,762.683,314.02Zm14.9-7.471H769.64v1.319h3.129v8.191H774.4v-8.191h3.19v-1.319Zm9.821,4.711a5.754,5.754,0,0,0-1-3.594,3.241,3.241,0,0,0-2.711-1.292,3.35,3.35,0,0,0-2.76,1.23l-0.079-1.055h-1.486v13.166H781v-4.579a3.487,3.487,0,0,0,2.725,1.1,3.181,3.181,0,0,0,2.689-1.327,5.689,5.689,0,0,0,.994-3.5v-0.15Zm-2.316,2.721a2.2,2.2,0,0,1-1.859.927,2.4,2.4,0,0,1-2.233-1.3v-4.544a2.392,2.392,0,0,1,2.215-1.31,2.209,2.209,0,0,1,1.881.932,4.2,4.2,0,0,1,.686,2.54A4.59,4.59,0,0,1,785.09,313.981Zm12,2.078v-0.14a5.346,5.346,0,0,1-.334-2.083v-4.377a2.965,2.965,0,0,0-.967-2.264,3.762,3.762,0,0,0-2.575-.821,4.627,4.627,0,0,0-1.9.386,3.448,3.448,0,0,0-1.371,1.051,2.24,2.24,0,0,0-.5,1.375h1.635a1.293,1.293,0,0,1,.589-1.063,2.37,2.37,0,0,1,1.459-.44,2.049,2.049,0,0,1,1.5.506,1.828,1.828,0,0,1,.509,1.357v0.748H793.55a5.324,5.324,0,0,0-3.177.821,2.688,2.688,0,0,0-1.129,2.307,2.577,2.577,0,0,0,.9,2.018,3.36,3.36,0,0,0,2.308.8,3.63,3.63,0,0,0,2.707-1.178,3.384,3.384,0,0,0,.228,1h1.705Zm-5.713-1.67a1.478,1.478,0,0,1-.509-1.195q0-1.749,2.988-1.749h1.274V313.4a2.387,2.387,0,0,1-.993,1.028,2.854,2.854,0,0,1-1.45.4A1.962,1.962,0,0,1,791.379,314.389Zm15.777-7.84H805.53v4.122h-4.368v-4.122h-1.635v9.51h1.635V312h4.368v4.06h1.626v-9.51Zm5.982,0a4.037,4.037,0,0,0-2.61.805,2.573,2.573,0,0,0-.976,2.1,2.777,2.777,0,0,0,.488,1.63,2.841,2.841,0,0,0,1.4,1.033l-2.391,3.946h1.758l2.241-3.7H815.5v3.7h1.634v-9.51h-4Zm-1.415,1.763a2.192,2.192,0,0,1,1.442-.444H815.5v3.155h-2.584a1.843,1.843,0,0,1-1.257-.435A1.535,1.535,0,0,1,811.723,308.312Zm15.665,6.086-0.993-.773a3.677,3.677,0,0,1-1.046.931,2.828,2.828,0,0,1-1.459.352,2.585,2.585,0,0,1-2-.866,3.379,3.379,0,0,1-.821-2.272h6.442v-0.677a5.294,5.294,0,0,0-1.028-3.5,3.564,3.564,0,0,0-2.883-1.221A3.8,3.8,0,0,0,821.5,307a4.212,4.212,0,0,0-1.512,1.74,5.715,5.715,0,0,0-.54,2.527v0.3a4.716,4.716,0,0,0,1.212,3.4,4.156,4.156,0,0,0,3.147,1.27,3.993,3.993,0,0,0,3.586-1.837h0Zm-2.171-6.007a3.1,3.1,0,0,1,.668,1.92v0.123h-4.764a3.486,3.486,0,0,1,.826-2.008,2.17,2.17,0,0,1,1.653-.716A2.044,2.044,0,0,1,825.217,308.391Zm11.416-1.842h-7.946v1.319h3.129v8.191h1.626v-8.191h3.191v-1.319Zm3.486,7.471a4.106,4.106,0,0,1-.677-2.531v-0.308a4.187,4.187,0,0,1,.681-2.579,2.276,2.276,0,0,1,1.921-.892,2.171,2.171,0,0,1,1.551.593,2.24,2.24,0,0,1,.7,1.516h1.538a3.421,3.421,0,0,0-1.129-2.487,3.816,3.816,0,0,0-2.659-.958,4.158,4.158,0,0,0-2.254.6,3.886,3.886,0,0,0-1.464,1.679,5.725,5.725,0,0,0-.51,2.47v0.272a5.17,5.17,0,0,0,1.147,3.547,3.92,3.92,0,0,0,3.09,1.3,3.993,3.993,0,0,0,1.832-.44,3.691,3.691,0,0,0,1.384-1.177,2.945,2.945,0,0,0,.563-1.556h-1.538a1.854,1.854,0,0,1-.721,1.318,2.338,2.338,0,0,1-1.52.528A2.287,2.287,0,0,1,840.119,314.02Zm11.061-7.471a4.042,4.042,0,0,0-2.611.805,2.572,2.572,0,0,0-.975,2.1,2.77,2.77,0,0,0,.488,1.63,2.837,2.837,0,0,0,1.4,1.033l-2.391,3.946h1.758l2.241-3.7h2.452v3.7h1.635v-9.51h-4Zm-1.415,1.763a2.189,2.189,0,0,1,1.441-.444h2.338v3.155H850.96a1.847,1.847,0,0,1-1.257-.435A1.536,1.536,0,0,1,849.765,308.312Zm20.25-1.763h-1.626v4.122h-4.368v-4.122h-1.635v9.51h1.635V312h4.368v4.06h1.626v-9.51Zm10.215,9.51v-0.14a5.346,5.346,0,0,1-.334-2.083v-4.377a2.965,2.965,0,0,0-.967-2.264,3.762,3.762,0,0,0-2.575-.821,4.627,4.627,0,0,0-1.9.386,3.448,3.448,0,0,0-1.371,1.051,2.24,2.24,0,0,0-.5,1.375h1.635a1.3,1.3,0,0,1,.588-1.063,2.372,2.372,0,0,1,1.459-.44,2.046,2.046,0,0,1,1.5.506,1.824,1.824,0,0,1,.51,1.357v0.748h-1.582a5.324,5.324,0,0,0-3.177.821,2.689,2.689,0,0,0-1.13,2.307,2.578,2.578,0,0,0,.9,2.018,3.36,3.36,0,0,0,2.308.8,3.63,3.63,0,0,0,2.707-1.178,3.384,3.384,0,0,0,.228,1h1.705Zm-5.713-1.67a1.479,1.479,0,0,1-.51-1.195q0-1.749,2.989-1.749h1.274V313.4a2.387,2.387,0,0,1-.993,1.028,2.854,2.854,0,0,1-1.45.4A1.962,1.962,0,0,1,874.517,314.389Zm14.265-.369a4.106,4.106,0,0,1-.677-2.531v-0.308a4.187,4.187,0,0,1,.681-2.579,2.276,2.276,0,0,1,1.921-.892,2.171,2.171,0,0,1,1.551.593,2.24,2.24,0,0,1,.7,1.516H894.5a3.422,3.422,0,0,0-1.13-2.487,3.811,3.811,0,0,0-2.658-.958,4.161,4.161,0,0,0-2.255.6,3.883,3.883,0,0,0-1.463,1.679,5.725,5.725,0,0,0-.51,2.47v0.272a5.165,5.165,0,0,0,1.147,3.547,3.918,3.918,0,0,0,3.089,1.3,3.994,3.994,0,0,0,1.833-.44,3.7,3.7,0,0,0,1.384-1.177,2.953,2.953,0,0,0,.563-1.556h-1.538a1.854,1.854,0,0,1-.721,1.318,2.341,2.341,0,0,1-1.521.528A2.285,2.285,0,0,1,888.782,314.02Zm15.34,2.039v-0.14a5.365,5.365,0,0,1-.334-2.083v-4.377a2.962,2.962,0,0,0-.967-2.264,3.762,3.762,0,0,0-2.575-.821,4.63,4.63,0,0,0-1.9.386,3.448,3.448,0,0,0-1.371,1.051,2.24,2.24,0,0,0-.5,1.375H898.1a1.293,1.293,0,0,1,.589-1.063,2.37,2.37,0,0,1,1.459-.44,2.049,2.049,0,0,1,1.5.506,1.828,1.828,0,0,1,.509,1.357v0.748H900.58a5.324,5.324,0,0,0-3.177.821,2.688,2.688,0,0,0-1.129,2.307,2.574,2.574,0,0,0,.9,2.018,3.356,3.356,0,0,0,2.307.8,3.63,3.63,0,0,0,2.707-1.178,3.384,3.384,0,0,0,.228,1h1.7Zm-5.713-1.67a1.478,1.478,0,0,1-.509-1.195q0-1.749,2.988-1.749h1.274V313.4a2.387,2.387,0,0,1-.993,1.028,2.854,2.854,0,0,1-1.45.4A1.962,1.962,0,0,1,898.409,314.389Zm10.266-7.84h-2.109v9.51h1.626v-7.066l3.137,7.066h1.125l3.077-6.917v6.917h1.626v-9.51h-2.031l-3.234,7.357Zm10.78,4.782a5.145,5.145,0,0,0,1.2,3.559,4,4,0,0,0,3.133,1.345,4.213,4.213,0,0,0,2.272-.615,4.04,4.04,0,0,0,1.521-1.719,5.668,5.668,0,0,0,.531-2.491V311.3a5.178,5.178,0,0,0-1.2-3.577,4.014,4.014,0,0,0-3.143-1.344,4.161,4.161,0,0,0-2.236.606A4.093,4.093,0,0,0,920,308.7a5.618,5.618,0,0,0-.549,2.513v0.115Zm2.373-2.663a2.334,2.334,0,0,1,1.942-.958,2.361,2.361,0,0,1,1.974.971,4.059,4.059,0,0,1,.742,2.535,4.455,4.455,0,0,1-.729,2.721,2.487,2.487,0,0,1-3.933.013,4.066,4.066,0,0,1-.734-2.54A4.414,4.414,0,0,1,921.828,308.668Zm12.884,7.391a4.589,4.589,0,0,0,2.72-.694,2.319,2.319,0,0,0,.963-2,2.048,2.048,0,0,0-.523-1.406,2.577,2.577,0,0,0-1.385-.791,2.452,2.452,0,0,0,1.169-.813,1.947,1.947,0,0,0,.4-1.191,2.18,2.18,0,0,0-1.015-1.947,5.332,5.332,0,0,0-2.914-.664h-3.709v9.51h4.3Zm-0.044-4.175q2.091,0,2.092,1.424a1.252,1.252,0,0,1-.506,1.064,2.535,2.535,0,0,1-1.524.378h-2.69v-2.866h2.628Zm-2.628-4.016h2.224q2.162,0.043,2.162,1.38t-2.285,1.336h-2.1v-2.716Zm10.343-1.319h-1.626v9.51h4.025a3.77,3.77,0,0,0,2.6-.861,2.912,2.912,0,0,0,.966-2.285,2.832,2.832,0,0,0-.94-2.242,3.812,3.812,0,0,0-2.558-.843h-2.469v-3.279Zm9.36,0h-1.635v9.51h1.635v-9.51Zm-6.882,4.606a1.867,1.867,0,0,1,1.367.523,1.79,1.79,0,0,1,.488,1.3,1.682,1.682,0,0,1-.5,1.288,1.991,1.991,0,0,1-1.415.47h-2.417v-3.577h2.478Zm14.112,4.9a4.594,4.594,0,0,0,2.721-.694,2.321,2.321,0,0,0,.962-2,2.043,2.043,0,0,0-.523-1.406,2.578,2.578,0,0,0-1.384-.791,2.462,2.462,0,0,0,1.169-.813,1.953,1.953,0,0,0,.395-1.191,2.178,2.178,0,0,0-1.015-1.947,5.331,5.331,0,0,0-2.913-.664h-3.709v9.51h4.3Zm-0.044-4.175q2.092,0,2.092,1.424a1.251,1.251,0,0,1-.5,1.064,2.536,2.536,0,0,1-1.525.378H956.3v-2.866h2.627Zm-2.627-4.016h2.223q2.163,0.043,2.162,1.38t-2.285,1.336h-2.1v-2.716Zm8.138,3.463a5.145,5.145,0,0,0,1.2,3.559,4,4,0,0,0,3.133,1.345,4.213,4.213,0,0,0,2.272-.615,4.032,4.032,0,0,0,1.52-1.719,5.654,5.654,0,0,0,.532-2.491V311.3a5.174,5.174,0,0,0-1.2-3.577,4.01,4.01,0,0,0-3.142-1.344,4.167,4.167,0,0,0-2.237.606,4.1,4.1,0,0,0-1.529,1.723,5.618,5.618,0,0,0-.549,2.513v0.115Zm2.373-2.663a2.333,2.333,0,0,1,1.942-.958,2.358,2.358,0,0,1,1.973.971,4.053,4.053,0,0,1,.743,2.535,4.455,4.455,0,0,1-.729,2.721,2.487,2.487,0,0,1-3.933.013,4.066,4.066,0,0,1-.734-2.54A4.414,4.414,0,0,1,966.813,308.668Zm12,1.854h-1.767v1.38h1.626a2.561,2.561,0,0,1,1.49.346,1.316,1.316,0,0,1,.479,1.144,1.331,1.331,0,0,1-.571,1.113,2.441,2.441,0,0,1-1.5.429,2.39,2.39,0,0,1-1.543-.5,1.483,1.483,0,0,1-.619-1.191h-1.617a2.579,2.579,0,0,0,1.067,2.175,5.059,5.059,0,0,0,5.41.04,2.459,2.459,0,0,0,1.011-2.072,2.178,2.178,0,0,0-1.661-2.213,2.644,2.644,0,0,0,1.1-.854,1.968,1.968,0,0,0,.387-1.179,2.429,2.429,0,0,0-.932-2.045,4.85,4.85,0,0,0-5.194.074,2.449,2.449,0,0,0-1.037,2.031h1.617a1.311,1.311,0,0,1,.576-1.055,2.268,2.268,0,0,1,1.437-.448,2.241,2.241,0,0,1,1.4.391,1.265,1.265,0,0,1,.51,1.059q0,1.327-1.661,1.371h0ZM694.594,340a3.537,3.537,0,0,1-1,2.219,3.245,3.245,0,0,1-2.157.637A2.812,2.812,0,0,1,689,341.624a5.648,5.648,0,0,1-.87-3.317v-1.24a5.492,5.492,0,0,1,.918-3.4,3.02,3.02,0,0,1,2.536-1.2,2.886,2.886,0,0,1,2.052.688,3.681,3.681,0,0,1,.954,2.222h1.7a4.767,4.767,0,0,0-1.432-3.151,4.627,4.627,0,0,0-3.27-1.139,5.024,5.024,0,0,0-2.707.726,4.76,4.76,0,0,0-1.806,2.078,7.29,7.29,0,0,0-.637,3.138v1.23a6.542,6.542,0,0,0,1.366,4.351,4.51,4.51,0,0,0,3.635,1.626,4.914,4.914,0,0,0,3.353-1.1,4.71,4.71,0,0,0,1.5-3.133h-1.7Zm4.938-5.45h-1.776l3.393,9.405-0.36.966a2.422,2.422,0,0,1-.761,1.222,2.16,2.16,0,0,1-1.287.334l-0.44-.035v1.318l0.607,0.115,0.307,0.026q1.933,0,2.822-2.373l3.823-10.978h-1.74l-2.215,7.128Zm10.235,0h-2.11v9.51h1.626v-7.066l3.138,7.066h1.125l3.076-6.917v6.917h1.626v-9.51h-2.03l-3.234,7.357Zm13.41,0h-2.11v9.51h1.626v-7.066l3.138,7.066h1.125l3.076-6.917v6.917h1.626v-9.51h-2.03l-3.234,7.357Zm12.918,6.944v-6.944h-1.626v9.51H736.1l4.385-6.934v6.934h1.626v-9.51H740.48Zm16.783-2.233a5.754,5.754,0,0,0-1-3.594,3.241,3.241,0,0,0-2.711-1.292,3.35,3.35,0,0,0-2.76,1.23l-0.079-1.055h-1.486v13.166h1.626v-4.579a3.488,3.488,0,0,0,2.725,1.1,3.184,3.184,0,0,0,2.69-1.327,5.7,5.7,0,0,0,.993-3.5v-0.15Zm-2.316,2.721a2.2,2.2,0,0,1-1.859.927,2.4,2.4,0,0,1-2.233-1.3v-4.544a2.392,2.392,0,0,1,2.215-1.31,2.209,2.209,0,0,1,1.881.932,4.2,4.2,0,0,1,.686,2.54A4.59,4.59,0,0,1,750.562,341.981Zm5.073-7.432h-1.776l3.393,9.405-0.361.966a2.415,2.415,0,0,1-.76,1.222,2.16,2.16,0,0,1-1.287.334l-0.44-.035v1.318l0.607,0.115,0.307,0.026q1.933,0,2.821-2.373l3.824-10.978h-1.741l-2.214,7.128Zm15.218,7.849-0.993-.773a3.664,3.664,0,0,1-1.046.931,2.825,2.825,0,0,1-1.459.352,2.583,2.583,0,0,1-2-.866,3.374,3.374,0,0,1-.822-2.272h6.442v-0.677a5.289,5.289,0,0,0-1.028-3.5,3.563,3.563,0,0,0-2.883-1.221,3.8,3.8,0,0,0-2.105.628,4.217,4.217,0,0,0-1.511,1.74,5.7,5.7,0,0,0-.541,2.527v0.3a4.713,4.713,0,0,0,1.213,3.4,4.154,4.154,0,0,0,3.146,1.27,3.993,3.993,0,0,0,3.586-1.837h0Zm-2.171-6.007a3.093,3.093,0,0,1,.668,1.92v0.123h-4.763a3.479,3.479,0,0,1,.826-2.008,2.166,2.166,0,0,1,1.652-.716A2.041,2.041,0,0,1,768.682,336.391Zm11.416-1.842h-7.945v1.319h3.129v8.191h1.626v-8.191h3.19v-1.319Zm3.487,7.471a4.1,4.1,0,0,1-.677-2.531v-0.308a4.187,4.187,0,0,1,.681-2.579,2.274,2.274,0,0,1,1.92-.892,2.172,2.172,0,0,1,1.552.593,2.244,2.244,0,0,1,.7,1.516H789.3a3.421,3.421,0,0,0-1.129-2.487,3.812,3.812,0,0,0-2.659-.958,4.16,4.16,0,0,0-2.254.6,3.877,3.877,0,0,0-1.463,1.679,5.725,5.725,0,0,0-.51,2.47v0.272a5.165,5.165,0,0,0,1.147,3.547,3.916,3.916,0,0,0,3.089,1.3,4,4,0,0,0,1.833-.44,3.7,3.7,0,0,0,1.384-1.177,2.943,2.943,0,0,0,.562-1.556h-1.538a1.856,1.856,0,0,1-.72,1.318,2.343,2.343,0,0,1-1.521.528A2.285,2.285,0,0,1,783.585,342.02Zm11.06-7.471a4.037,4.037,0,0,0-2.61.805,2.573,2.573,0,0,0-.976,2.1,2.777,2.777,0,0,0,.488,1.63,2.841,2.841,0,0,0,1.4,1.033l-2.391,3.946h1.758l2.241-3.7h2.453v3.7h1.634v-9.51h-4Zm-1.415,1.763a2.192,2.192,0,0,1,1.442-.444h2.338v3.155h-2.584a1.843,1.843,0,0,1-1.257-.435A1.535,1.535,0,0,1,793.23,336.312Zm14.362,5.708a4.1,4.1,0,0,1-.677-2.531v-0.308a4.187,4.187,0,0,1,.681-2.579,2.274,2.274,0,0,1,1.92-.892,2.172,2.172,0,0,1,1.552.593,2.24,2.24,0,0,1,.7,1.516H813.3a3.418,3.418,0,0,0-1.129-2.487,3.812,3.812,0,0,0-2.659-.958,4.16,4.16,0,0,0-2.254.6,3.877,3.877,0,0,0-1.463,1.679,5.725,5.725,0,0,0-.51,2.47v0.272a5.165,5.165,0,0,0,1.147,3.547,3.916,3.916,0,0,0,3.089,1.3,3.994,3.994,0,0,0,1.833-.44,3.7,3.7,0,0,0,1.384-1.177,2.943,2.943,0,0,0,.562-1.556h-1.538a1.856,1.856,0,0,1-.72,1.318,2.343,2.343,0,0,1-1.521.528A2.285,2.285,0,0,1,807.592,342.02Zm11.179,0.712-0.009,4.122h1.626v-2.795h6.636v2.795h1.626v-4.122h-1.222v-8.183H821.3l-0.15,3.8a6.593,6.593,0,0,1-1.081,3.692l-0.562.694h-0.739Zm4.008-4.412,0.1-2.268H825.8v6.68h-4.369a7.868,7.868,0,0,0,1.345-4.412h0Zm16.009,0.94a5.754,5.754,0,0,0-1-3.594,3.241,3.241,0,0,0-2.711-1.292,3.35,3.35,0,0,0-2.76,1.23l-0.079-1.055h-1.486v13.166h1.626v-4.579a3.487,3.487,0,0,0,2.725,1.1,3.181,3.181,0,0,0,2.689-1.327,5.7,5.7,0,0,0,.994-3.5v-0.15Zm-2.316,2.721a2.2,2.2,0,0,1-1.859.927,2.4,2.4,0,0,1-2.233-1.3v-4.544a2.391,2.391,0,0,1,2.215-1.31,2.209,2.209,0,0,1,1.881.932,4.2,4.2,0,0,1,.686,2.54A4.59,4.59,0,0,1,836.472,341.981Zm5.072-7.432h-1.775l3.393,9.405-0.361.966a2.415,2.415,0,0,1-.76,1.222,2.163,2.163,0,0,1-1.288.334l-0.439-.035v1.318l0.606,0.115,0.308,0.026q1.934,0,2.821-2.373l3.824-10.978h-1.741l-2.215,7.128Zm14.129,0h-6.02v9.51h1.635v-8.165h4.385v-1.345Zm3.4,6.944v-6.944h-1.626v9.51h1.626l4.386-6.934v6.934h1.626v-9.51h-1.626Zm10.937-6.944H867.9v9.51h1.626v-7.066l3.137,7.066h1.125l3.077-6.917v6.917h1.625v-9.51h-2.03l-3.234,7.357Zm12.914,6.944v-6.944h-1.626v9.51h1.626l4.386-6.934v6.934h1.626v-9.51h-1.626Zm20.655,2.566v-0.14a5.346,5.346,0,0,1-.334-2.083v-4.377a2.969,2.969,0,0,0-.967-2.264,3.764,3.764,0,0,0-2.575-.821,4.624,4.624,0,0,0-1.9.386,3.448,3.448,0,0,0-1.371,1.051,2.241,2.241,0,0,0-.506,1.375h1.635a1.293,1.293,0,0,1,.589-1.063,2.37,2.37,0,0,1,1.459-.44,2.049,2.049,0,0,1,1.5.506,1.824,1.824,0,0,1,.51,1.357v0.748h-1.582a5.325,5.325,0,0,0-3.178.821,2.688,2.688,0,0,0-1.129,2.307,2.574,2.574,0,0,0,.9,2.018,3.356,3.356,0,0,0,2.307.8,3.629,3.629,0,0,0,2.707-1.178,3.416,3.416,0,0,0,.228,1h1.706Zm-5.713-1.67a1.479,1.479,0,0,1-.51-1.195q0-1.749,2.988-1.749h1.275V341.4a2.4,2.4,0,0,1-.994,1.028,2.854,2.854,0,0,1-1.45.4A1.957,1.957,0,0,1,897.862,342.389Zm14.264,1.67h2.066l-4.078-4.939,3.761-4.571h-1.968l-3.2,4.026h-1.063v-4.026h-1.635v9.51h1.635v-4.052h1.186Zm3.831,0h7.154v2.821h1.459l0.158-4.148h-1.134v-8.183h-1.626v8.183h-4.377v-8.183h-1.634v9.51Zm12.415-2.566v-6.944h-1.626v9.51h1.626l4.385-6.934v6.934h1.626v-9.51h-1.626Zm12-6.944a4.037,4.037,0,0,0-2.61.805,2.57,2.57,0,0,0-.976,2.1,2.777,2.777,0,0,0,.488,1.63,2.837,2.837,0,0,0,1.4,1.033l-2.391,3.946h1.758l2.241-3.7h2.452v3.7h1.635v-9.51h-4Zm-1.415,1.763a2.192,2.192,0,0,1,1.442-.444h2.337v3.155h-2.584a1.842,1.842,0,0,1-1.256-.435A1.535,1.535,0,0,1,938.956,336.312Zm10.341-1.763h-2.109v9.51h1.626v-7.066l3.137,7.066h1.125l3.076-6.917v6.917h1.626v-9.51h-2.03l-3.234,7.357Zm12.916,6.944v-6.944h-1.626v9.51h1.626l4.386-6.934v6.934h1.626v-9.51H966.6Z" transform="translate(-673.313 -303.25)"></path></svg> 