<svg width="90" height="90" viewBox="0 0 90 90" fill="none" xmlns="http://www.w3.org/2000/svg">
<circle cx="45" cy="45" r="45" fill="#CA6E55"/>
<circle cx="45" cy="45" r="40" fill="white"/>
<circle cx="45" cy="45" r="42.5" stroke="white"/>
<path d="M36.8874 59.168C36.2154 59.168 35.8794 58.72 35.8794 57.824C35.9168 57.376 35.9914 57.0773 36.1034 56.928C36.2528 56.7787 36.4768 56.704 36.7754 56.704C38.8661 56.704 40.3408 56.6293 41.1994 56.48C42.0954 56.2933 42.7488 55.8453 43.1594 55.136C43.6074 54.4267 43.8314 53.232 43.8314 51.552V39.904C43.8688 38.1493 43.7754 36.8987 43.5514 36.152C43.3648 35.368 43.0101 34.864 42.4874 34.64C41.9648 34.416 41.1061 34.304 39.9114 34.304H37.1674C36.4954 34.304 36.1594 33.856 36.1594 32.96C36.1968 32.4 36.3088 32.064 36.4954 31.952C36.6821 31.8027 36.9061 31.728 37.1674 31.728C37.4661 31.728 37.6714 31.728 37.7834 31.728C39.3514 31.728 40.8821 31.4853 42.3754 31C43.8688 30.4773 45.4928 29.8613 47.2474 29.152C47.4714 29.0773 47.6581 29.04 47.8074 29.04C48.4048 29.04 48.7034 29.4693 48.7034 30.328V51.552C48.7034 53.1947 48.8901 54.3707 49.2634 55.08C49.6741 55.7893 50.2901 56.2373 51.1114 56.424C51.9701 56.6107 53.3328 56.704 55.1994 56.704H55.7594C56.0581 56.704 56.2634 56.7787 56.3754 56.928C56.5248 57.0773 56.6181 57.376 56.6554 57.824C56.6554 58.72 56.3194 59.168 55.6474 59.168C52.9594 59.056 49.8234 59 46.2394 59C42.6928 59 39.5754 59.056 36.8874 59.168Z" fill="#CA6E55"/>
</svg>
