<svg width="90" height="90" viewBox="0 0 90 90" fill="none" xmlns="http://www.w3.org/2000/svg">
<circle cx="45" cy="45" r="45" fill="#CA6E55"/>
<circle cx="45" cy="45" r="40" fill="white"/>
<circle cx="45" cy="45" r="42.5" stroke="white"/>
<path d="M35.7821 59C34.4754 59 33.8221 58.328 33.8221 56.984C33.8594 56.2 34.0648 55.5653 34.4381 55.08C34.8488 54.5947 35.5021 54.0533 36.3981 53.456C39.3474 51.4773 41.6248 49.8533 43.2301 48.584C44.8728 47.2773 46.3474 45.6347 47.6541 43.656C48.9608 41.6773 49.6141 39.456 49.6141 36.992C49.6141 35.2 49.1288 33.8187 48.1581 32.848C47.2248 31.84 45.8994 31.336 44.1821 31.336C42.7261 31.336 41.5128 31.7093 40.5421 32.456C39.6088 33.1653 39.1421 34.1547 39.1421 35.424C39.1421 36.0587 39.2914 36.6 39.5901 37.048C39.8888 37.4587 40.1874 37.7947 40.4861 38.056C40.8221 38.3173 40.9901 38.4667 40.9901 38.504C40.9901 38.7653 40.7288 39.0827 40.2061 39.456C39.7208 39.8293 39.1234 40.016 38.4141 40.016C37.2568 40.016 36.3234 39.6613 35.6141 38.952C34.9421 38.2053 34.6061 37.272 34.6061 36.152C34.6061 34.6587 35.1101 33.3893 36.1181 32.344C37.1261 31.2987 38.3954 30.5333 39.9261 30.048C41.4941 29.5627 43.0808 29.32 44.6861 29.32C47.4861 29.32 49.8941 30.0107 51.9101 31.392C53.9634 32.7733 54.9901 34.8827 54.9901 37.72C54.9901 39.7733 54.4301 41.64 53.3101 43.32C52.1901 45 50.8461 46.4373 49.2781 47.632C47.7474 48.7893 45.7314 50.1707 43.2301 51.776C41.2514 53.008 39.7768 53.9973 38.8061 54.744V55.024H53.8141C54.7474 55.024 55.4194 55.136 55.8301 55.36C56.2781 55.5467 56.5021 56.088 56.5021 56.984C56.5021 58.328 55.8488 59 54.5421 59H35.7821Z" fill="#CA6E55"/>
</svg>
