<svg width="90" height="90" viewBox="0 0 90 90" fill="none" xmlns="http://www.w3.org/2000/svg">
<circle cx="45" cy="45" r="45" fill="#CA6E55"/>
<circle cx="45" cy="45" r="40" fill="white"/>
<circle cx="45" cy="45" r="42.5" stroke="white"/>
<path d="M43.9555 60.12C41.2301 60.12 38.9155 59.5973 37.0115 58.552C35.1448 57.4693 34.2115 55.9013 34.2115 53.848C34.2115 52.7653 34.5475 51.832 35.2195 51.048C35.8915 50.264 36.8248 49.872 38.0195 49.872C38.7288 49.872 39.3261 50.0587 39.8115 50.432C40.3341 50.8053 40.5955 51.1227 40.5955 51.384C40.5955 51.4213 40.4275 51.5707 40.0915 51.832C39.7555 52.056 39.4381 52.3733 39.1395 52.784C38.8781 53.1947 38.7475 53.7173 38.7475 54.352C38.7475 55.5093 39.2328 56.424 40.2035 57.096C41.2115 57.7307 42.5181 58.048 44.1235 58.048C48.1181 58.048 50.1155 55.8267 50.1155 51.384C50.1155 49.5547 49.6301 48.0987 48.6595 47.016C47.6888 45.896 46.2328 45.28 44.2915 45.168H42.2195C41.9581 45.168 41.7528 45.056 41.6035 44.832C41.4541 44.608 41.3795 44.3467 41.3795 44.048C41.3795 43.712 41.4541 43.432 41.6035 43.208C41.7528 42.9467 41.9581 42.7973 42.2195 42.76H44.2915C45.7475 42.6107 46.9048 41.9573 47.7635 40.8C48.6595 39.6427 49.1075 38.2427 49.1075 36.6C49.1075 34.808 48.6035 33.4453 47.5955 32.512C46.5875 31.5413 45.4115 31.056 44.0675 31.056C42.7981 31.056 41.6968 31.4293 40.7635 32.176C39.8675 32.8853 39.4195 33.8747 39.4195 35.144C39.4195 35.9653 39.5688 36.5253 39.8675 36.824C40.2035 37.0853 40.5208 37.2533 40.8195 37.328C41.1181 37.3653 41.2675 37.4027 41.2675 37.44C41.2675 37.7013 41.0061 38.0187 40.4835 38.392C39.9981 38.7653 39.4008 38.952 38.6915 38.952C37.4968 38.952 36.5635 38.5787 35.8915 37.832C35.2195 37.0853 34.8835 36.1333 34.8835 34.976C34.8835 33.1467 35.7421 31.728 37.4595 30.72C39.1768 29.712 41.3981 29.208 44.1235 29.208C47.0355 29.208 49.4435 29.8427 51.3475 31.112C53.2515 32.3813 54.2035 34.2107 54.2035 36.6C54.2035 38.168 53.6435 39.624 52.5235 40.968C51.4408 42.312 49.8728 43.264 47.8195 43.824V44.048C49.9101 44.272 51.7208 44.944 53.2515 46.064C54.7821 47.1467 55.5475 48.8827 55.5475 51.272C55.5475 54.296 54.4461 56.536 52.2435 57.992C50.0408 59.4107 47.2781 60.12 43.9555 60.12Z" fill="#CA6E55"/>
</svg>
