<?xml version="1.0" encoding="utf-8"?>
<!-- Generator: Adobe Illustrator 23.0.1, SVG Export Plug-In . SVG Version: 6.00 Build 0)  -->
<svg version="1.1" id="Layer_1" xmlns="http://www.w3.org/2000/svg" xmlns:xlink="http://www.w3.org/1999/xlink" x="0px" y="0px"
	 viewBox="0 0 960 720" style="enable-background:new 0 0 960 720;" xml:space="preserve">
<g>
	<path style="fill:#FFF2D4;stroke:#FFFFFF;stroke-width:2;" d="M257.344,404.253h41.191v72.363h-41.191v86.001H163.55v-86.001H6.855
		l-5.566-57.334L163.55,158.218v-0.835h93.794V404.253z M90.63,404.253h72.92V279.565l-5.845,9.463L90.63,404.253z"/>
	<path style="fill:#FFF2D4;stroke:#FFFFFF;stroke-width:2;" d="M621.108,397.017c0,54.738-12.294,96.951-36.878,126.636
		c-24.588,29.689-59.238,44.531-103.952,44.531c-45.088,0-79.974-14.934-104.648-44.81c-24.68-29.871-37.017-71.989-37.017-126.357
		v-74.033c0-54.733,12.289-96.946,36.877-126.636c24.584-29.685,59.326-44.531,104.231-44.531c44.9,0,79.69,14.938,104.37,44.81
		c24.675,29.876,37.017,72.085,37.017,126.636V397.017z M527.314,311.016c0-29.128-3.806-50.885-11.411-65.266
		c-7.61-14.377-19.67-21.57-36.182-21.57c-16.143,0-27.88,6.68-35.208,20.039c-7.332,13.359-11.271,33.586-11.828,60.674v103.535
		c0,30.246,3.801,52.372,11.411,66.38c7.605,14.012,19.665,21.013,36.182,21.013c15.955,0,27.736-6.818,35.347-20.456
		c7.605-13.638,11.502-35.021,11.689-64.153V311.016z"/>
	<path style="fill:#FFF2D4;stroke:#FFFFFF;stroke-width:2;" d="M917.52,404.253h41.191v72.363H917.52v86.001h-93.795v-86.001
		H667.031l-5.566-57.334l162.26-261.064v-0.835h93.795V404.253z M750.805,404.253h72.92V279.565l-5.844,9.463L750.805,404.253z"/>
</g>
</svg>
