<svg width="90" height="90" viewBox="0 0 90 90" fill="none" xmlns="http://www.w3.org/2000/svg">
<circle cx="45" cy="45" r="45" fill="#CA6E55"/>
<circle cx="45" cy="45" r="40" fill="white"/>
<circle cx="45" cy="45" r="42.5" stroke="white"/>
<path d="M49.5894 59.672C48.9547 59.672 48.3947 59.5787 47.9094 59.392C47.424 59.2053 47.1627 58.944 47.1254 58.608V50.04H33.7414C33.144 50.04 32.696 49.8533 32.3974 49.48C32.0987 49.1067 31.9494 48.64 31.9494 48.08C31.9494 47.5947 32.08 47.184 32.3414 46.848L48.0774 29.656C48.4507 29.2827 49.0294 29.096 49.8134 29.096C50.4107 29.096 50.9147 29.264 51.3254 29.6C51.736 29.8987 51.96 30.384 51.9974 31.056V47.296H55.3574C55.88 47.296 56.2534 47.3707 56.4774 47.52C56.7014 47.632 56.832 48.0053 56.8694 48.64C56.8694 49.0507 56.776 49.3867 56.5894 49.648C56.44 49.9093 56.1787 50.04 55.8054 50.04H51.9974V58.608C51.9974 58.944 51.7547 59.2053 51.2694 59.392C50.784 59.5787 50.224 59.672 49.5894 59.672ZM35.1974 47.296H47.1254V34.024L35.1974 47.296Z" fill="#CA6E55"/>
</svg>
