<?xml version="1.0" encoding="UTF-8"?> <svg xmlns="http://www.w3.org/2000/svg" width="660.031" height="118.469" viewBox="0 0 660.031 118.469"><defs><style> .cls-1 { fill: #fff; fill-rule: evenodd; } </style></defs><path id="b-cacke-h1-2v2" class="cls-1" d="M24.85,229.652c0,35.4,26.849,53.4,53.7,53.4,22.349,0,45.6-11.85,49.648-41.7H101.8C98.947,252.751,89.947,258,78.548,258,62.5,258,52.3,244.652,52.3,229.5c0-17.4,10.35-28.8,26.249-28.8,11.249,0,19.2,4.2,22.949,15h26.4c-4.05-28.049-27.749-39.749-49.348-39.749C51.7,175.954,24.85,193.5,24.85,229.652ZM209.136,282h31.049v-4.05c-10.2-15.6-19.949-31.349-30-46.948,5.85-6.45,9.45-15.3,12.9-27.9,1.65-6.45,6.149-7.949,12.749-7.5v-18.45c-24.6-5.1-34.8,5.25-37.948,18-3,12.6-4.65,18.9-9.45,21.3-3.75,1.95-10.95,1.65-15.3,1.65V177H145.689V282h27.449V241.952a120.763,120.763,0,0,0,13.049-.45Zm108.419-54.148V282H345V176.554h-8.55L281.706,228.3V177H254.258V282.3h8.1Zm90.179-27.3h21.3v58.8h-30.9c3.3-2.7,4.5-8.85,4.8-13.05Zm-46.648,58.2V294.3h20.849V282h62.7v12.3h22.2V258.751h-10.5V177H383.885l-7.949,68.4c-1.2,9.75-2.85,13.2-10.95,13.35h-3.9ZM549.513,282h31.049v-4.05c-10.2-15.6-19.949-31.349-30-46.948,5.85-6.45,9.45-15.3,12.9-27.9,1.65-6.45,6.15-7.949,12.75-7.5v-18.45c-24.6-5.1-34.8,5.25-37.949,18-3,12.6-4.649,18.9-9.449,21.3-3.75,1.95-10.95,1.65-15.3,1.65V177H486.066V282h27.448V241.952a120.773,120.773,0,0,0,13.05-.45Zm70.11-29.249c-5.1,11.1-11.249,10.95-21.149,7.35l-3.6,19.349c29.1,10.8,41.548,1.8,52.047-22.2l37.949-77.4V177h-29.1l-17.7,40.349h-0.9L617.224,177H587.075v3.45l36.148,64.8Z" transform="translate(-24.844 -175.844)"></path></svg> 