<?xml version="1.0" encoding="UTF-8"?> <svg xmlns="http://www.w3.org/2000/svg" width="518.188" height="48.156" viewBox="0 0 518.188 48.156"><defs><style> .cls-1 { fill: #c66a17; fill-rule: evenodd; } </style></defs><path id="b-cacke-subheading-v2" class="cls-1" d="M70.787,351.371c0.224-7.56-5.32-12.1-12.88-12.1H42v39.648H58.187c8.792,0,13.1-3.864,14.112-10.248a10.058,10.058,0,0,0-5.6-10.864A8,8,0,0,0,70.787,351.371Zm-18.7,3.416v-7.056h5.824a3.533,3.533,0,1,1,0,7.056H52.083Zm0,15.344v-8.12h5.824c5.936,0,6.048,8.12,0,8.12H52.083ZM95.37,386.875v-7.952h19.376v7.952h10.08V369.907H120.01V339.275H94.138l-0.952,13.272c-0.616,9.016-.224,17.36-8.064,17.36v16.968H95.37Zm14.56-16.968h-9.24a32.144,32.144,0,0,0,1.68-9.072l0.84-12.04h6.72v21.112Zm28.627-21.224h17.472v-9.408H128.421v39.648h27.608v-9.464H138.557v-5.936h16.072v-8.68H138.557v-6.16Zm32.088,15.288h11.424v14.952h10.08V339.275h-10.08v15.008H170.645V339.275h-10.08v39.648h10.08V363.971Zm57,1.344c0-7.56-3.528-12.544-14.28-12.544h-5.936v-13.5h-10.08v39.648h16.3C222.439,378.923,227.647,373.1,227.647,365.315Zm-20.216,4.816v-9.408h5.936c2.744,0,4.424,1.568,4.424,4.48,0,2.52-1.008,4.928-4.424,4.928h-5.936Zm34.719,8.792h10.024V367.331h5.88c9.576,0,14.448-7,14.448-14.056,0-7-4.816-14-14.5-14H242.15v39.648Zm10.024-20.5v-9.8H258c6.048-.056,6.048,9.856,0,9.8h-5.824Zm23.475,7.448c0,9.072,8.232,13.608,16.464,13.608s16.408-4.536,16.408-13.608V352.323c0-9.072-8.232-13.608-16.464-13.608s-16.408,4.48-16.408,13.608v13.552Zm10.024-13.552c0-2.912,3.136-4.48,6.272-4.48,3.248,0,6.552,1.4,6.552,4.48v13.552c0,2.856-3.192,4.312-6.384,4.312s-6.44-1.4-6.44-4.312V352.323Zm44.273,26.6h10.08v-14.56l0.336-.448,9.128,15.008h12.488l-14.112-20.16,14.168-19.488h-12.1l-9.912,14.84v-14.84h-10.08v14.84l-9.912-14.84h-12.1l14.168,19.488-14.112,20.16h12.488l9.128-15.008,0.336,0.448v14.56Zm44.083,7.952v-7.952h18.312v7.952h10.192V369.907h-3.472l-10.7-30.632H377.781l-10.36,30.632h-3.584v16.968h10.192Zm11.2-27.664,2.744,10.7h-9.632l2.968-10.584,1.736-8.848h0.224Zm30.9-10.528H433.6v-9.408H405.994v39.648H433.6v-9.464H416.13v-5.936H432.2v-8.68H416.13v-6.16Zm32.088,15.288h11.424v14.952h10.08V339.275h-10.08v15.008H448.218V339.275h-10.08v39.648h10.08V363.971Zm48.714,14.952h10.08V339.275h-9.184l-10.136,16.856-3.3,7.112-0.224-.056s0.784-5.936.84-5.936V339.275h-10.08v39.648h9.464l9.52-15.624,3.752-7.728,0.28,0.056s-0.952,7.448-1.008,7.448v15.848Zm47.18,0V339.275H528.32c-9.184,0-14.784,4.7-15.008,13.048,0,7.616,3.584,10.7,8.064,12.264l-12.1,14.336h12.488l10.64-13.328h1.624v13.328h10.08ZM534.032,348.8v8.9h-5.88c-3.248,0-4.76-2.016-4.76-4.592,0-2.744,1.736-4.312,4.76-4.312h5.88Zm15.3,17.808h10.3l0.56-27.552H548.776ZM549,373.939a5.521,5.521,0,0,0,5.544,5.544,5.581,5.581,0,0,0,5.656-5.544,5.64,5.64,0,0,0-5.656-5.656A5.581,5.581,0,0,0,549,373.939Z" transform="translate(-42 -338.719)"></path></svg> 