<?xml version="1.0" encoding="UTF-8"?> <svg xmlns="http://www.w3.org/2000/svg" width="552.406" height="118.344" viewBox="0 0 552.406 118.344"><defs><style> .cls-1 { fill: #fff; fill-rule: evenodd; } </style></defs><path id="b-cacke-h1-1v2" class="cls-1" d="M75.856,64.147h21.3v58.8h-30.9c3.3-2.7,4.5-8.849,4.8-13.049Zm-46.648,58.2v35.549H50.057v-12.3h62.7v12.3h22.2V122.344h-10.5V40.6H52.007L44.057,109c-1.2,9.749-2.85,13.2-10.949,13.349h-3.9Zm189.642,10.2L225,145.593h28.349v-3.749l-47.7-102.3h-12.6L144.9,141.844v3.749h28.648l6-13.049h39.3Zm-19.65-48.3L210.15,109.6H188.4Zm93.42,61.2V118.3h18.9c24.9,0,37.648-19.2,37.648-38.4,0.45-19.8-12.449-39.448-37.648-39.448-15.6-.15-30.749,0-46.348,0v105H292.62Zm-0.45-51V64.3h19.35c7.5,0,11.4,7.35,11.4,14.849,0,7.65-4.2,15.3-11.4,15.3H292.17Zm135.327-3v54.147h27.449V40.148H446.4L391.649,91.9V40.6H364.2v105.3h8.1Zm102.839-5.7L488.638,40.3h-9.75v105.3h27.449V97.145l22.349,23.4h3.15l22.349-23.4v48.448h27.449V40.3h-9.749Z" transform="translate(-29.219 -39.563)"></path></svg> 