<?xml version="1.0" encoding="UTF-8"?> <svg xmlns="http://www.w3.org/2000/svg" width="350.124" height="108.344" viewBox="0 0 350.124 108.344"><defs><style> .cls-1 { fill: #dc276a; fill-rule: evenodd; } </style></defs><path id="heading" class="cls-1" d="M771.469,100.715h7.2l7-32.5a37.829,37.829,0,0,0,7.65,1,4.111,4.111,0,0,0,2.475-.675,3.9,3.9,0,0,0,1.325-1.6,19.561,19.561,0,0,0,.8-2.325,11.018,11.018,0,0,1,.4-1.4,16.318,16.318,0,0,1-4.75.6q-1.45,0-5.3-.35a31.235,31.235,0,0,0-3.4-.25,25.579,25.579,0,0,0-10.3,1.775,12.56,12.56,0,0,0-5.775,4.6,11.379,11.379,0,0,0-1.775,6.175q0,2.9,1.45,4.1a6.794,6.794,0,0,0,4.4,1.2,2.717,2.717,0,0,0-.35-0.675,8.168,8.168,0,0,1-.35-3.175q0-5.1,1.675-7.45a5.807,5.807,0,0,1,4.825-2.45Zm23.8,12.5a9.061,9.061,0,0,0,5.55-1.825q2.45-1.827,3.45-6.675l0.75-3.6a12.255,12.255,0,0,0,5.2-2.825,14.144,14.144,0,0,0,3.65-6.525h-2.1a12.862,12.862,0,0,1-2.45,4.75,8.836,8.836,0,0,1-3.85,2.4l4.95-23.2h-7.2l-0.55,2.6v-0.3a2.16,2.16,0,0,0-1-1.85,5.36,5.36,0,0,0-3.05-.7,9.694,9.694,0,0,0-6.975,2.825,17.905,17.905,0,0,0-4.4,6.9,22.85,22.85,0,0,0-1.475,7.775q0,4.151,1.9,6.1a6.357,6.357,0,0,0,4.75,1.951,7.931,7.931,0,0,0,6-2.751l-0.6,2.651a19.925,19.925,0,0,0-5.85,2.875,5.439,5.439,0,0,0-2.3,4.575,4.3,4.3,0,0,0,1.6,3.6,6.306,6.306,0,0,0,4,1.25h0Zm0.4-17.05a2.456,2.456,0,0,1-1.775-.7q-0.726-.7-0.725-3.2a22.152,22.152,0,0,1,.9-5.775,18.406,18.406,0,0,1,2.5-5.6q1.6-2.325,3.6-2.325a1.867,1.867,0,0,1,1.55.625,1.978,1.978,0,0,1,.5,1.225l-2.55,11.85a5.41,5.41,0,0,1-1.65,2.85,3.621,3.621,0,0,1-2.35,1.05h0Zm-1.55,13.15a1.6,1.6,0,0,1-1.25-.5,1.672,1.672,0,0,1-.45-1.15q0-2.451,4.9-4.25l-0.3,1.45a9.128,9.128,0,0,1-1.25,3.3,2.163,2.163,0,0,1-1.65,1.15h0Zm24.7-8.3q7.3,0,8.65-7.4a12.09,12.09,0,0,1-2.9,1.9,7.1,7.1,0,0,1-3,.75q-3.1,0-3.1-4.15,0-.4.1-1.5a13.717,13.717,0,0,0,5.65-1.625,11.8,11.8,0,0,0,4.25-3.775,8.955,8.955,0,0,0,1.6-5.15q0-4.8-5.5-4.8a10.547,10.547,0,0,0-7.75,3.025,17.649,17.649,0,0,0-4.4,7.175,24.753,24.753,0,0,0-1.35,7.6q0,4.1,2.05,6.025a8,8,0,0,0,5.7,1.925h0Zm0.1-12.8a26.557,26.557,0,0,1,2.575-7.125q1.725-3.175,3.475-3.175,1.25,0,1.25,2.05a8.073,8.073,0,0,1-1.025,3.925,9.075,9.075,0,0,1-2.7,3.075,6.322,6.322,0,0,1-3.575,1.25h0Zm52.4,12.8a8.123,8.123,0,0,0,5.025-1.876q2.424-1.875,4.275-7.375h-2.1a12.608,12.608,0,0,1-1.8,3.325,2.97,2.97,0,0,1-2.4,1.075,1.9,1.9,0,0,1-1.55-.55,2.384,2.384,0,0,1-.45-1.55,11.486,11.486,0,0,1,.325-2.325q0.324-1.474.725-3.025,0.649-2.55,1-4.325a16.821,16.821,0,0,0,.35-3.225,5.546,5.546,0,0,0-1.5-4.25,5.7,5.7,0,0,0-4.05-1.4q-4.2,0-6.95,4.25-0.75-4.3-5.15-4.3a7.914,7.914,0,0,0-6.1,2.85l0.55-2.6h-7.2l-5.3,25h7.2l3.4-16.05a9.5,9.5,0,0,1,1.625-3.375,3.036,3.036,0,0,1,2.425-1.275q1.5,0,1.5,2.2a5.134,5.134,0,0,1-.15,1.25l-3.65,17.251h7.2l3.4-16.05a9.809,9.809,0,0,1,1.6-3.325,2.888,2.888,0,0,1,2.3-1.275q1.8,0,1.8,2.55a14.325,14.325,0,0,1-.35,2.75q-0.351,1.7-.75,3.45-0.1.35-.375,1.6t-0.525,2.575a12.921,12.921,0,0,0-.25,2.375,5.885,5.885,0,0,0,1.425,4.025,5.651,5.651,0,0,0,4.475,1.626h0Zm14.5-.1a9.548,9.548,0,0,0,5.65-1.851,13.5,13.5,0,0,0,4.25-5.25,22.644,22.644,0,0,0,2.05-7.95,19.542,19.542,0,0,0,5.075-1.525,11.962,11.962,0,0,0,3.775-2.625l-0.45-1.35a18.98,18.98,0,0,1-3.9,2.125,10.28,10.28,0,0,1-3.8.875,2,2,0,0,1-.55-0.05v-0.05q0-8-6.4-8a10.715,10.715,0,0,0-7.8,3.025,17.852,17.852,0,0,0-4.5,7.175,23.849,23.849,0,0,0-1.4,7.55q0,4.1,2.15,6a8.516,8.516,0,0,0,5.85,1.9h0Zm2-4.5a2.227,2.227,0,0,1-2-.825,6.409,6.409,0,0,1-.55-3.225,21.966,21.966,0,0,1,.95-5.9,21.2,21.2,0,0,1,2.5-5.75q1.549-2.4,3.2-2.4a1.534,1.534,0,0,1,1.4.625,5.16,5.16,0,0,1,.5,2.275,2.619,2.619,0,0,0-1.55,2.7q0,1.8,1.35,2.1a24.2,24.2,0,0,1-1.3,5.275,12.31,12.31,0,0,1-2.1,3.75,3.309,3.309,0,0,1-2.4,1.375h0Zm8.1,16.8,7.55-1.8,2.6-12.2q1.05,1.8,4.25,1.8a9.661,9.661,0,0,0,7.25-2.826,15.924,15.924,0,0,0,3.9-6.85,28.946,28.946,0,0,0,1.15-7.975q0-4.2-1.65-6.05a5.667,5.667,0,0,0-4.45-1.85,8.692,8.692,0,0,0-5.85,2.15l0.8-3.75h-7.2Zm12.85-16.55a1.773,1.773,0,0,1-1.9-1.15l2.95-14a5.888,5.888,0,0,1,1.625-1.8,3.173,3.173,0,0,1,1.825-.65q2.5,0,2.5,4.15a25.939,25.939,0,0,1-.725,5.825,15.309,15.309,0,0,1-2.3,5.375,4.7,4.7,0,0,1-3.975,2.25h0Zm44.649,4.35a5.473,5.473,0,0,0,3.675-1.3,5.708,5.708,0,0,0,1.825-3.85,3.2,3.2,0,0,1-1.65.3,1.9,1.9,0,0,1-1.55-.55,2.384,2.384,0,0,1-.45-1.55,11.486,11.486,0,0,1,.325-2.325q0.324-1.474.725-3.025,0.649-2.55,1-4.325a16.821,16.821,0,0,0,.35-3.225,5.546,5.546,0,0,0-1.5-4.25,5.7,5.7,0,0,0-4.05-1.4q-4.2,0-6.95,4.25-0.75-4.3-5.15-4.3a7.914,7.914,0,0,0-6.1,2.85l0.55-2.6h-7.2l-5.3,25h7.2l3.4-16.05a9.5,9.5,0,0,1,1.625-3.375,3.036,3.036,0,0,1,2.425-1.275q1.5,0,1.5,2.2a5.134,5.134,0,0,1-.15,1.25l-3.65,17.251h7.2l3.4-16.05a9.809,9.809,0,0,1,1.6-3.325,2.888,2.888,0,0,1,2.3-1.275q1.8,0,1.8,2.55a14.325,14.325,0,0,1-.35,2.75q-0.351,1.7-.75,3.45-0.1.35-.375,1.6t-0.525,2.575a12.921,12.921,0,0,0-.25,2.375,6.563,6.563,0,0,0,1.2,4.05,4.5,4.5,0,0,0,3.85,1.6h0Zm7.549,6a15.742,15.742,0,0,0,4.725-4.95,10.553,10.553,0,0,0,1.775-5.3,4.079,4.079,0,0,0-.9-2.75,3.116,3.116,0,0,0-2.5-1.05,3.773,3.773,0,0,0-2.8,1.175,3.893,3.893,0,0,0-1.15,2.825,4.315,4.315,0,0,0,2.35,3.65,1.247,1.247,0,0,1,.65,1,1.942,1.942,0,0,1-.3,1.1,10.311,10.311,0,0,1-1,1.2,10.311,10.311,0,0,0-1,1.2,1.848,1.848,0,0,0-.3,1.05,0.964,0.964,0,0,0,.45.85h0Zm-233.02,52.333a8.125,8.125,0,0,0,5.025-1.875q2.424-1.875,4.275-7.375h-2.1a12.618,12.618,0,0,1-1.8,3.325,2.971,2.971,0,0,1-2.4,1.075,1.9,1.9,0,0,1-1.55-.55,2.386,2.386,0,0,1-.45-1.55,11.475,11.475,0,0,1,.325-2.325q0.324-1.475.725-3.025,0.649-2.55,1-4.325a16.824,16.824,0,0,0,.35-3.225,5.545,5.545,0,0,0-1.5-4.25,5.7,5.7,0,0,0-4.05-1.4q-4.2,0-6.95,4.25-0.75-4.3-5.15-4.3a7.914,7.914,0,0,0-6.1,2.85l0.55-2.6h-7.2l-5.3,25h7.2l3.4-16.05a9.5,9.5,0,0,1,1.625-3.375,3.036,3.036,0,0,1,2.425-1.275q1.5,0,1.5,2.2a5.137,5.137,0,0,1-.15,1.25L708,159.048h7.2L718.6,143a9.8,9.8,0,0,1,1.6-3.325,2.888,2.888,0,0,1,2.3-1.275q1.8,0,1.8,2.55a14.327,14.327,0,0,1-.35,2.75q-0.351,1.7-.75,3.45-0.1.35-.375,1.6t-0.525,2.575a12.916,12.916,0,0,0-.25,2.375,5.885,5.885,0,0,0,1.425,4.025,5.652,5.652,0,0,0,4.475,1.625h0Zm13.2,0a7.052,7.052,0,0,0,4.225-1.275,13.967,13.967,0,0,0,3.225-3.325,5.257,5.257,0,0,0,1.525,3.425,4.785,4.785,0,0,0,3.375,1.175,9.438,9.438,0,0,0,5.475-1.925q2.724-1.925,4.575-7.325h-2.1a9.8,9.8,0,0,1-1.625,3.4,3.02,3.02,0,0,1-2.425,1.3,1.857,1.857,0,0,1-2.05-2.15,6.158,6.158,0,0,1,.2-1.6l3.6-17h-7.2l-0.55,2.65v-0.35a2.159,2.159,0,0,0-1-1.85,5.355,5.355,0,0,0-3.05-.7,9.694,9.694,0,0,0-6.975,2.825,17.9,17.9,0,0,0-4.4,6.9A22.846,22.846,0,0,0,734.5,151.3q0,4.15,1.9,6.1a6.358,6.358,0,0,0,4.75,1.95h0Zm3.25-4.85a2.457,2.457,0,0,1-1.775-.7q-0.726-.7-0.725-3.2a22.145,22.145,0,0,1,.9-5.775,18.4,18.4,0,0,1,2.5-5.6q1.6-2.325,3.6-2.325a1.865,1.865,0,0,1,1.55.625,2.032,2.032,0,0,1,.5,1.275l-2.4,11.3a6.171,6.171,0,0,1-1.675,3.225A3.612,3.612,0,0,1,744.4,154.5h0Zm21,4.85a4.92,4.92,0,0,0,3.675-1.4,9.474,9.474,0,0,0,2.15-4q0.775-2.6,1.725-7.5a35.654,35.654,0,0,1,1.375-5.375,8.132,8.132,0,0,1,1.725-2.975l1.2,20.95h5.9l9.05-18.15-0.85,4q-0.851,3.9-1.225,5.8a16.231,16.231,0,0,0-.375,2.65,6.461,6.461,0,0,0,1.375,4.5,4.684,4.684,0,0,0,3.625,1.5,5.605,5.605,0,0,0,3.725-1.325,5.3,5.3,0,0,0,1.775-3.825,4.03,4.03,0,0,1-1.6.3q-2.1,0-2.1-1.85a6.959,6.959,0,0,1,.25-1.6l3.65-17h-8.1l-9.45,19.2-0.95-19.2H779.7a7.394,7.394,0,0,0-5.825,2.525q-2.225,2.524-3.325,8.875-0.8,4.45-1.475,6.8a8.97,8.97,0,0,1-1.575,3.375,2.925,2.925,0,0,1-2.3,1.025,1.7,1.7,0,0,1-1.95-1.9,1.584,1.584,0,0,0,1.4-.525,2.536,2.536,0,0,0,.6-1.825,2.455,2.455,0,0,0-.75-1.8,2.89,2.89,0,0,0-4.15.275,4.31,4.31,0,0,0-.8,2.725,5.731,5.731,0,0,0,1.575,4.075,5.585,5.585,0,0,0,4.275,1.675h0Zm63.95,0a8.125,8.125,0,0,0,5.025-1.875q2.424-1.875,4.275-7.375h-2.1a12.618,12.618,0,0,1-1.8,3.325,2.971,2.971,0,0,1-2.4,1.075,1.9,1.9,0,0,1-1.55-.55,2.386,2.386,0,0,1-.45-1.55,11.475,11.475,0,0,1,.325-2.325q0.324-1.475.725-3.025,0.649-2.55,1-4.325a16.824,16.824,0,0,0,.35-3.225,5.545,5.545,0,0,0-1.5-4.25,5.7,5.7,0,0,0-4.05-1.4,7.622,7.622,0,0,0-5.85,2.8l0.55-2.6h-7.2l-5.3,25h7.2L820,143a9.8,9.8,0,0,1,1.6-3.325,2.888,2.888,0,0,1,2.3-1.275q1.8,0,1.8,2.55a14.327,14.327,0,0,1-.35,2.75q-0.351,1.7-.75,3.45-0.1.35-.375,1.6t-0.525,2.575a12.916,12.916,0,0,0-.25,2.375,5.885,5.885,0,0,0,1.425,4.025,5.652,5.652,0,0,0,4.475,1.625h0Zm2.649,12.2,7.55-1.8,2.6-12.2q1.05,1.8,4.25,1.8a9.661,9.661,0,0,0,7.25-2.825,15.908,15.908,0,0,0,3.9-6.85,28.912,28.912,0,0,0,1.15-7.975q0-4.2-1.65-6.05a5.665,5.665,0,0,0-4.45-1.85,8.7,8.7,0,0,0-5.85,2.15l0.8-3.75h-7.2ZM844.844,155a1.774,1.774,0,0,1-1.9-1.15l2.95-14a5.9,5.9,0,0,1,1.625-1.8,3.174,3.174,0,0,1,1.825-.65q2.5,0,2.5,4.15a25.882,25.882,0,0,1-.725,5.825,15.3,15.3,0,0,1-2.3,5.375,4.7,4.7,0,0,1-3.975,2.25h0Zm21.1,4.35a7.052,7.052,0,0,0,4.225-1.275,13.967,13.967,0,0,0,3.225-3.325,5.257,5.257,0,0,0,1.525,3.425,4.785,4.785,0,0,0,3.375,1.175,9.438,9.438,0,0,0,5.475-1.925q2.724-1.925,4.575-7.325h-2.1a9.8,9.8,0,0,1-1.625,3.4,3.02,3.02,0,0,1-2.425,1.3,1.857,1.857,0,0,1-2.05-2.15,6.158,6.158,0,0,1,.2-1.6l3.6-17h-7.2l-0.55,2.65v-0.35a2.159,2.159,0,0,0-1-1.85,5.355,5.355,0,0,0-3.05-.7,9.694,9.694,0,0,0-6.975,2.825,17.9,17.9,0,0,0-4.4,6.9,22.846,22.846,0,0,0-1.475,7.775q0,4.15,1.9,6.1a6.358,6.358,0,0,0,4.75,1.95h0Zm3.25-4.85a2.457,2.457,0,0,1-1.775-.7q-0.726-.7-0.725-3.2a22.145,22.145,0,0,1,.9-5.775,18.4,18.4,0,0,1,2.5-5.6q1.6-2.325,3.6-2.325a1.865,1.865,0,0,1,1.55.625,2.032,2.032,0,0,1,.5,1.275l-2.4,11.3a6.171,6.171,0,0,1-1.675,3.225,3.612,3.612,0,0,1-2.475,1.175h0Zm23.3,17.05a8.3,8.3,0,0,0,6.775-3.175q2.574-3.175,2.675-8.775a12.83,12.83,0,0,0,5.4-2.85,13.877,13.877,0,0,0,3.75-6.65h-2.1a12.693,12.693,0,0,1-2.775,5.05,10.554,10.554,0,0,1-4.475,2.45,7.492,7.492,0,0,0-1.625-3.2,5.924,5.924,0,0,0-2.475-1.8,8.11,8.11,0,0,0,3.05-1.725,13.935,13.935,0,0,0,3.275-3.9,10.508,10.508,0,0,0,1.425-5.425,7.31,7.31,0,0,0-7.9-7.95,8.616,8.616,0,0,0-6.725,2.675,21.186,21.186,0,0,0-4.025,7.075h2.4a12.49,12.49,0,0,1,2.15-3.625,4.092,4.092,0,0,1,3.2-1.575,2.788,2.788,0,0,1,2.55,1.275,5.576,5.576,0,0,1,.8,3.025,11.421,11.421,0,0,1-.8,4.325,7.68,7.68,0,0,1-2.2,3.125,4.835,4.835,0,0,1-3.15,1.15h-1.45l-0.65,3h1.55q3.45,0,3.6,5.3-7.851,2.5-7.85,7.35a4.3,4.3,0,0,0,1.6,3.6,6.3,6.3,0,0,0,4,1.25h0Zm-1.15-3.9a1.523,1.523,0,0,1-1.7-1.65q0-2.55,4.95-4.25a11.679,11.679,0,0,1-1.25,4.15q-0.951,1.749-2,1.75h0Zm26.5,3.9a9.057,9.057,0,0,0,5.55-1.825q2.449-1.826,3.45-6.675l0.75-3.6a12.254,12.254,0,0,0,5.2-2.825,14.146,14.146,0,0,0,3.65-6.525h-2.1a12.852,12.852,0,0,1-2.45,4.75,8.839,8.839,0,0,1-3.85,2.4l4.95-23.2h-7.2l-0.55,2.6v-0.3a2.157,2.157,0,0,0-1-1.85,5.353,5.353,0,0,0-3.05-.7,9.694,9.694,0,0,0-6.975,2.825,17.9,17.9,0,0,0-4.4,6.9,22.87,22.87,0,0,0-1.475,7.775q0,4.15,1.9,6.1a6.36,6.36,0,0,0,4.75,1.95,7.933,7.933,0,0,0,6-2.75l-0.6,2.65a19.925,19.925,0,0,0-5.85,2.875,5.442,5.442,0,0,0-2.3,4.575,4.3,4.3,0,0,0,1.6,3.6,6.3,6.3,0,0,0,4,1.25h0Zm0.4-17.05a2.457,2.457,0,0,1-1.775-.7q-0.724-.7-0.725-3.2a22.145,22.145,0,0,1,.9-5.775,18.4,18.4,0,0,1,2.5-5.6q1.6-2.325,3.6-2.325a1.864,1.864,0,0,1,1.55.625,1.978,1.978,0,0,1,.5,1.225l-2.55,11.85a5.41,5.41,0,0,1-1.65,2.85,3.619,3.619,0,0,1-2.35,1.05h0Zm-1.55,13.15a1.6,1.6,0,0,1-1.25-.5,1.67,1.67,0,0,1-.45-1.15q0-2.451,4.9-4.25l-0.3,1.45a9.113,9.113,0,0,1-1.25,3.3,2.159,2.159,0,0,1-1.65,1.15h0Zm35.8-8.3q6.15,0,9.3-9.25h-2.1a14.013,14.013,0,0,1-1.95,3.45,2.875,2.875,0,0,1-2.25.95,1.813,1.813,0,0,1-2-2.1,12.406,12.406,0,0,1,.35-2.2q0.35-1.6.85-3.75l2.65-12.4h-6.7l-2.25,10h-5.6l2.15-10h-7.2l-5.3,25h7.2l2.55-12h5.55a48.769,48.769,0,0,0-1.15,7,5.126,5.126,0,0,0,1.525,3.775,5.919,5.919,0,0,0,4.375,1.525h0Zm12.149,0a8.038,8.038,0,0,0,3.825-1,10.11,10.11,0,0,0,3.575-3.75,5.488,5.488,0,0,0,1.525,3.55,4.8,4.8,0,0,0,3.425,1.2,9.438,9.438,0,0,0,5.475-1.925q2.726-1.925,4.575-7.325h-2.1a8.745,8.745,0,0,1-1.625,3.2,3.1,3.1,0,0,1-2.425,1.2,2.347,2.347,0,0,1-1.575-.425,1.832,1.832,0,0,1-.475-1.425,6.2,6.2,0,0,1,.2-1.6l3.6-17h-7.2l-3.4,16.05a8.7,8.7,0,0,1-1.6,3.225,3.053,3.053,0,0,1-2.4,1.175q-1.5,0-1.5-2.05a7.165,7.165,0,0,1,.15-1.4l3.6-17h-7.2l-3.4,16.05a17.394,17.394,0,0,0-.4,3.25,6.177,6.177,0,0,0,1.475,4.5,5.191,5.191,0,0,0,3.875,1.5h0Zm37.8,0a5.3,5.3,0,0,0,3.75-1.35,6.019,6.019,0,0,0,1.7-4,3.411,3.411,0,0,1-2,.5,1.813,1.813,0,0,1-2.1-2,8.877,8.877,0,0,1,.35-2.2,12.528,12.528,0,0,0,.4-2.8q0-4.4-4.849-4.4a10.705,10.705,0,0,0-2.1.2q0.049-.05,1.85-2c0.929-1,1.679-1.758,2.229-2.275a12.735,12.735,0,0,1,1.82-1.425,2.7,2.7,0,0,0,.65,1.775,2.584,2.584,0,0,0,2.1.775,3.1,3.1,0,0,0,2.33-.85,3.23,3.23,0,0,0,.82-2.35,3.311,3.311,0,0,0-.9-2.45,3.588,3.588,0,0,0-2.65-.9,5.087,5.087,0,0,0-2.4.575,9.593,9.593,0,0,0-2.17,1.6q-1.08,1.024-3.129,3.225-2.1,2.351-4.7,4.95l2.15-9.9h-7.2l-5.35,25h7.2l2.2-10.55q1.4-1.1,2-1.475a2.407,2.407,0,0,1,1.3-.375,1.58,1.58,0,0,1,1.35.6,2.7,2.7,0,0,1,.45,1.65,8.562,8.562,0,0,1-.1,1.15q-0.1.7-.15,1.05a11.966,11.966,0,0,0-.35,2.7,5.44,5.44,0,0,0,1.525,4.025,5.377,5.377,0,0,0,3.974,1.525h0Zm13.05-.1a3.915,3.915,0,0,0,2.83-1.15,3.778,3.778,0,0,0,1.17-2.8,4,4,0,0,0-4-4,3.777,3.777,0,0,0-2.8,1.175,3.88,3.88,0,0,0-1.15,2.825,3.927,3.927,0,0,0,3.95,3.95h0Zm13.15,0a3.876,3.876,0,0,0,2.82-1.15,3.75,3.75,0,0,0,1.18-2.8,4.02,4.02,0,0,0-4-4,3.777,3.777,0,0,0-2.8,1.175,3.88,3.88,0,0,0-1.15,2.825,3.927,3.927,0,0,0,3.95,3.95h0Zm13.15,0a3.876,3.876,0,0,0,2.82-1.15,3.75,3.75,0,0,0,1.18-2.8,4.02,4.02,0,0,0-4-4,3.777,3.777,0,0,0-2.8,1.175,3.88,3.88,0,0,0-1.15,2.825,3.927,3.927,0,0,0,3.95,3.95h0Z" transform="translate(-695.656 -63.219)"></path></svg> 