<?xml version="1.0" encoding="UTF-8"?> <svg xmlns="http://www.w3.org/2000/svg" width="203.438" height="22.437" viewBox="0 0 203.438 22.437"><defs><style> .cls-1 { fill: #dc276a; fill-rule: evenodd; } </style></defs><path id="subheading" class="cls-1" d="M781.049,190.692h-12.38v2.757h4.364V205.5h3.57V193.449h4.446v-2.757Zm14.048,7.03a8.523,8.523,0,0,0-.829-3.79,6.035,6.035,0,0,0-2.294-2.548,6.337,6.337,0,0,0-3.357-.895,6.412,6.412,0,0,0-3.393.905,5.926,5.926,0,0,0-2.288,2.569,8.765,8.765,0,0,0-.8,3.84v0.834a8.479,8.479,0,0,0,.86,3.713,5.928,5.928,0,0,0,2.283,2.487,6.45,6.45,0,0,0,3.357.87,6.362,6.362,0,0,0,3.373-.9,5.951,5.951,0,0,0,2.283-2.569,8.728,8.728,0,0,0,.8-3.835v-0.681Zm-3.632.742a6.234,6.234,0,0,1-.742,3.306,2.335,2.335,0,0,1-2.086,1.15,2.361,2.361,0,0,1-2.146-1.17,6.4,6.4,0,0,1-.722-3.347l0.01-1.088q0.153-4.029,2.838-4.029a2.366,2.366,0,0,1,2.111,1.145,6.235,6.235,0,0,1,.737,3.352v0.681Zm11.322,2.014a6.439,6.439,0,0,0,4.258-1.3,4.284,4.284,0,0,0,1.551-3.463,4.864,4.864,0,0,0-.717-2.62,4.71,4.71,0,0,0-2.025-1.78,6.882,6.882,0,0,0-3.006-.626h-5.91V205.5h3.571v-5.025h2.278Zm-2.278-7.029h2.38a1.982,1.982,0,0,1,1.526.631,2.38,2.38,0,0,1,.559,1.658,1.927,1.927,0,0,1-.544,1.465,2.206,2.206,0,0,1-1.582.519h-2.339v-4.273Zm21.616-2.757h-12.38v2.757h4.364V205.5h3.571V193.449h4.445v-2.757Zm15.127,9.8a2.463,2.463,0,0,1-.692,1.842,2.744,2.744,0,0,1-1.882.58,2.179,2.179,0,0,1-2.05-1.018,7.1,7.1,0,0,1-.6-3.387v-1.048a6.423,6.423,0,0,1,.651-3.184,2.133,2.133,0,0,1,1.953-1,2.808,2.808,0,0,1,1.954.59,2.654,2.654,0,0,1,.681,1.943h3.561a5.61,5.61,0,0,0-1.862-3.911,6.386,6.386,0,0,0-4.334-1.419,6.081,6.081,0,0,0-3.295.89,5.733,5.733,0,0,0-2.182,2.523,8.95,8.95,0,0,0-.758,3.809v0.733a7.854,7.854,0,0,0,1.678,5.371,5.817,5.817,0,0,0,4.6,1.9,7.292,7.292,0,0,0,3.149-.651,5.041,5.041,0,0,0,2.141-1.836,5.422,5.422,0,0,0,.834-2.732h-3.55Zm24.658,2.269h-1.577V190.692H850.252l-0.458,6.338a15.036,15.036,0,0,1-.717,3.84,3.768,3.768,0,0,1-1.327,1.887H846.7l0.254,6.378h3.306V205.5h8.067v3.642h3.205Zm-8.565-5.605,0.274-3.7h3.154v9.308h-4.985a12.662,12.662,0,0,0,1.557-5.605h0Zm22.339,0.57a8.524,8.524,0,0,0-.83-3.79,6.027,6.027,0,0,0-2.293-2.548,6.342,6.342,0,0,0-3.357-.895,6.409,6.409,0,0,0-3.393.905,5.935,5.935,0,0,0-2.289,2.569,8.779,8.779,0,0,0-.8,3.84v0.834a8.479,8.479,0,0,0,.859,3.713,5.936,5.936,0,0,0,2.284,2.487,6.45,6.45,0,0,0,3.357.87,6.361,6.361,0,0,0,3.372-.9,5.947,5.947,0,0,0,2.284-2.569,8.728,8.728,0,0,0,.8-3.835v-0.681Zm-3.632.742a6.224,6.224,0,0,1-.743,3.306,2.332,2.332,0,0,1-2.085,1.15,2.36,2.36,0,0,1-2.146-1.17,6.4,6.4,0,0,1-.723-3.347l0.011-1.088q0.151-4.029,2.838-4.029a2.365,2.365,0,0,1,2.11,1.145,6.225,6.225,0,0,1,.738,3.352v0.681Zm13.906,2.024a2.463,2.463,0,0,1-.692,1.842,2.744,2.744,0,0,1-1.882.58,2.179,2.179,0,0,1-2.05-1.018,7.1,7.1,0,0,1-.595-3.387v-1.048a6.423,6.423,0,0,1,.651-3.184,2.133,2.133,0,0,1,1.953-1,2.808,2.808,0,0,1,1.954.59,2.654,2.654,0,0,1,.681,1.943h3.561a5.61,5.61,0,0,0-1.862-3.911,6.384,6.384,0,0,0-4.334-1.419,6.081,6.081,0,0,0-3.295.89,5.733,5.733,0,0,0-2.182,2.523,8.95,8.95,0,0,0-.758,3.809v0.733a7.854,7.854,0,0,0,1.678,5.371,5.817,5.817,0,0,0,4.6,1.9,7.292,7.292,0,0,0,3.149-.651,5.041,5.041,0,0,0,2.141-1.836,5.422,5.422,0,0,0,.834-2.732h-3.55Zm16.866-9.8h-12.38v2.757h4.364V205.5h3.57V193.449h4.446v-2.757ZM913.607,205.5h3.835l-5.473-14.811h-3.357L903.18,205.5H907l0.854-2.766h4.893Zm-3.317-10.66,1.6,5.137H908.7Zm14.242,10.66a6.555,6.555,0,0,0,4.084-1.113A3.923,3.923,0,0,0,930,201.119a3.31,3.31,0,0,0-.621-2.034,3.127,3.127,0,0,0-1.78-1.14,3.072,3.072,0,0,0,1.556-1.2,3.87,3.87,0,0,0-.961-5,7.539,7.539,0,0,0-4.349-1.048h-5.32V205.5h6.012Zm0.061-6.3a1.642,1.642,0,0,1,1.841,1.861,1.548,1.548,0,0,1-.519,1.246,2.224,2.224,0,0,1-1.485.443h-2.339v-3.55h2.5Zm-2.5-5.768h1.749a2.893,2.893,0,0,1,1.74.413,1.6,1.6,0,0,1,.539,1.352,1.52,1.52,0,0,1-.5,1.235,2.65,2.65,0,0,1-1.668.428h-1.861v-3.428ZM940.34,205.5h4.222l-4.578-7.975,4.069-6.836H939.73l-2.849,5.727h-1.373v-5.727h-3.57V205.5h3.57v-5.859H937.2Zm17.639-7.781a8.523,8.523,0,0,0-.829-3.79,6.035,6.035,0,0,0-2.294-2.548,6.337,6.337,0,0,0-3.357-.895,6.406,6.406,0,0,0-3.392.905,5.922,5.922,0,0,0-2.289,2.569,8.779,8.779,0,0,0-.8,3.84v0.834a8.479,8.479,0,0,0,.86,3.713,5.93,5.93,0,0,0,2.284,2.487,6.445,6.445,0,0,0,3.357.87,6.361,6.361,0,0,0,3.372-.9,5.947,5.947,0,0,0,2.284-2.569,8.742,8.742,0,0,0,.8-3.835v-0.681Zm-3.631.742a6.234,6.234,0,0,1-.743,3.306,2.332,2.332,0,0,1-2.085,1.15,2.363,2.363,0,0,1-2.147-1.17,6.413,6.413,0,0,1-.722-3.347l0.01-1.088q0.153-4.029,2.838-4.029a2.366,2.366,0,0,1,2.111,1.145,6.225,6.225,0,0,1,.738,3.352v0.681Zm8.84,1.577v-9.349h-3.571V205.5h3.571l5.32-9.338V205.5h3.57V190.692h-3.57Zm4.1-13.336a1.221,1.221,0,0,1-.371.961,1.8,1.8,0,0,1-2.1-.01,1.209,1.209,0,0,1-.381-0.951h-2.33a2.81,2.81,0,0,0,1.028,2.258,4.761,4.761,0,0,0,5.473,0,2.812,2.812,0,0,0,1.027-2.258h-2.35Z" transform="translate(-768.656 -186.719)"></path></svg> 