<?xml version="1.0" encoding="UTF-8"?> <svg xmlns="http://www.w3.org/2000/svg" width="355.185" height="18.25" viewBox="0 0 355.185 18.25"><defs><style> .cls-1 { fill: #5a1b0f; fill-rule: evenodd; } </style></defs><path id="caption" class="cls-1" d="M695.518,238.235a1.255,1.255,0,0,0-2.138.884,1.176,1.176,0,0,0,.371.874,1.259,1.259,0,0,0,1.767,0,1.176,1.176,0,0,0,.371-0.874A1.209,1.209,0,0,0,695.518,238.235Zm5.054,0a1.255,1.255,0,0,0-2.138.884,1.176,1.176,0,0,0,.371.874,1.259,1.259,0,0,0,1.767,0,1.176,1.176,0,0,0,.371-0.874A1.209,1.209,0,0,0,700.572,238.235Zm5.054,0a1.255,1.255,0,0,0-2.138.884,1.173,1.173,0,0,0,.371.874,1.259,1.259,0,0,0,1.767,0,1.175,1.175,0,0,0,.37-0.874A1.208,1.208,0,0,0,705.626,238.235Zm15.8-6.967a0.965,0.965,0,0,0-.683-0.261,1.944,1.944,0,0,0-.938.27,3.878,3.878,0,0,0-1.067.994,10.836,10.836,0,0,0-.9,1.236q-0.274.466-.714,1.144c-0.1-.439-0.164-0.734-0.2-0.883s-0.145-.563-0.334-1.241a2.168,2.168,0,0,0-.664-1.186,1.722,1.722,0,0,0-1.048-.306,3.015,3.015,0,0,0-.764.189q-0.564.189-1.268,0.484l-0.174.608c0.171-.048.355-0.1,0.554-0.146a2.347,2.347,0,0,1,.563-0.073,1.394,1.394,0,0,1,.8.209,1.794,1.794,0,0,1,.55.944q0.181,0.587.387,1.364t0.379,1.429a10.692,10.692,0,0,1-1.066,1.584,12.019,12.019,0,0,1-.92,1.025q-0.3-.091-0.581-0.2a1.607,1.607,0,0,0-.571-0.105,1.273,1.273,0,0,0-.906.307,0.97,0.97,0,0,0-.33.737,0.9,0.9,0,0,0,.279.7,1.021,1.021,0,0,0,.71.252,1.816,1.816,0,0,0,.952-0.284,4.37,4.37,0,0,0,1.025-.961,12.279,12.279,0,0,0,.915-1.223c0.184-.3.415-0.654,0.7-1.075,0.074,0.3.148,0.6,0.225,0.9s0.176,0.676.3,1.122a2.155,2.155,0,0,0,.673,1.208,1.788,1.788,0,0,0,1.057.293,3.988,3.988,0,0,0,.957-0.11,10.2,10.2,0,0,0,1.323-.48l0.165-.609a3.411,3.411,0,0,1-.595.139,3.96,3.96,0,0,1-.605.062,1.4,1.4,0,0,1-.975-0.334,1.94,1.94,0,0,1-.544-0.892q-0.2-.623-0.376-1.241t-0.393-1.488a13.631,13.631,0,0,1,1.03-1.574,7.867,7.867,0,0,1,.957-1.081c0.134,0.043.317,0.1,0.549,0.161a2.366,2.366,0,0,0,.622.1,1.472,1.472,0,0,0,.829-0.252,0.894,0.894,0,0,0,.389-0.783A0.852,0.852,0,0,0,721.428,231.268Zm8.413,0.651a3.3,3.3,0,0,0-2.549-.994,4.957,4.957,0,0,0-2.193.49,5.185,5.185,0,0,0-1.7,1.288,6.337,6.337,0,0,0-1.484,4.124,3.637,3.637,0,0,0,.948,2.639,3.276,3.276,0,0,0,2.467.98,4.986,4.986,0,0,0,2.3-.508,5.4,5.4,0,0,0,1.7-1.352,5.709,5.709,0,0,0,1.062-1.9,6.712,6.712,0,0,0,.366-2.163A3.684,3.684,0,0,0,729.841,231.919Zm-1.158,4.3a7.106,7.106,0,0,1-.6,1.765,3.9,3.9,0,0,1-1.025,1.3,2.234,2.234,0,0,1-1.447.513,1.539,1.539,0,0,1-1.369-.673,3.57,3.57,0,0,1-.453-1.985,10.317,10.317,0,0,1,.174-1.8,7.06,7.06,0,0,1,.549-1.773,3.66,3.66,0,0,1,1.159-1.522,2.469,2.469,0,0,1,1.432-.467,1.533,1.533,0,0,1,1.332.651,3.367,3.367,0,0,1,.463,1.952A9.77,9.77,0,0,1,728.683,236.217Zm12.117-4.344a2.637,2.637,0,0,0-2.165-.948,2.993,2.993,0,0,0-1.414.376,6.255,6.255,0,0,0-1.332.953h-0.073a1.529,1.529,0,0,0-.412-0.9,1.326,1.326,0,0,0-.971-0.325,3.37,3.37,0,0,0-.952.169,10.689,10.689,0,0,0-1.255.481l-0.137.586q0.174-.047.484-0.124a2.2,2.2,0,0,1,.512-0.078,0.967,0.967,0,0,1,.691.174,1.058,1.058,0,0,1,.16.687,3.546,3.546,0,0,1-.064.61q-0.065.352-.138,0.7l-1.911,8.429a1.409,1.409,0,0,1-.242.555,0.85,0.85,0,0,1-.453.306,2.926,2.926,0,0,1-.486.092c-0.17.018-.353,0.034-0.549,0.046l-0.128.577h5.049l0.129-.577c-0.153-.012-0.324-0.031-0.513-0.055a2.959,2.959,0,0,1-.513-0.11,1.112,1.112,0,0,1-.407-0.21,0.483,0.483,0,0,1-.179-0.394,2.066,2.066,0,0,1,.032-0.321c0.021-.134.05-0.278,0.087-0.43l0.535-2.4a3.908,3.908,0,0,0,.9.476,3.636,3.636,0,0,0,1.289.193,4.486,4.486,0,0,0,1.907-.431,5.348,5.348,0,0,0,1.724-1.32,6.453,6.453,0,0,0,1.573-4.233A3.919,3.919,0,0,0,740.8,231.873Zm-3.161,7.483a2.389,2.389,0,0,1-1.354.422,1.721,1.721,0,0,1-1.2-.454,1.585,1.585,0,0,1-.563-0.976l1.169-5.2a5.577,5.577,0,0,1,1.24-.962,2.089,2.089,0,0,1,.929-0.257,1.851,1.851,0,0,1,.915.2,1.431,1.431,0,0,1,.55.555,2.388,2.388,0,0,1,.279.811,5.576,5.576,0,0,1,.087.976,7.945,7.945,0,0,1-.252,2.03,6.188,6.188,0,0,1-.718,1.71A3.691,3.691,0,0,1,737.639,239.356Zm13.113-7.437a3.3,3.3,0,0,0-2.55-.994,4.955,4.955,0,0,0-2.192.49,5.2,5.2,0,0,0-1.7,1.288,6.344,6.344,0,0,0-1.483,4.124,3.637,3.637,0,0,0,.948,2.639,3.274,3.274,0,0,0,2.467.98,4.989,4.989,0,0,0,2.3-.508,5.4,5.4,0,0,0,1.7-1.352,5.709,5.709,0,0,0,1.062-1.9,6.712,6.712,0,0,0,.366-2.163A3.688,3.688,0,0,0,750.752,231.919Zm-1.158,4.3a7.147,7.147,0,0,1-.6,1.765,3.9,3.9,0,0,1-1.026,1.3,2.229,2.229,0,0,1-1.446.513,1.538,1.538,0,0,1-1.369-.673,3.57,3.57,0,0,1-.453-1.985,10.317,10.317,0,0,1,.174-1.8,7.06,7.06,0,0,1,.549-1.773,3.659,3.659,0,0,1,1.158-1.522,2.472,2.472,0,0,1,1.433-.467,1.533,1.533,0,0,1,1.332.651,3.375,3.375,0,0,1,.462,1.952A9.838,9.838,0,0,1,749.594,236.217Zm9.771,3.735a1.88,1.88,0,0,0,1.326.449,3.6,3.6,0,0,0,.883-0.106,3.7,3.7,0,0,0,.855-0.343,4.5,4.5,0,0,0,.759-0.494q0.366-.294.759-0.632H764a1.593,1.593,0,0,0,.366,1.076,1.387,1.387,0,0,0,1.109.425,3.249,3.249,0,0,0,.939-0.155q0.508-.156,1.269-0.467l0.137-.586a2.938,2.938,0,0,1-.494.119,3.085,3.085,0,0,1-.493.055,1.165,1.165,0,0,1-.745-0.188,0.9,0.9,0,0,1-.224-0.709,3.4,3.4,0,0,1,.073-0.536q0.074-.38.165-0.755l1.361-5.9-0.11-.138-1.6.11-1.572,6.8a5.572,5.572,0,0,1-1.382,1.03,2.576,2.576,0,0,1-1.071.3,1,1,0,0,1-.846-0.348,1.531,1.531,0,0,1-.27-0.961,3.991,3.991,0,0,1,.064-0.559c0.042-.262.088-0.491,0.136-0.686l1.283-5.548-0.11-.138-1.6.11-1.594,6.894a4.932,4.932,0,0,1-1.326.984,2.549,2.549,0,0,1-1.016.252,0.977,0.977,0,0,1-.841-0.357,1.591,1.591,0,0,1-.266-0.97,3.14,3.14,0,0,1,.06-0.509c0.039-.222.089-0.462,0.15-0.718l0.808-3.388a4.724,4.724,0,0,0,.11-0.567,3.815,3.815,0,0,0,.037-0.449,1.333,1.333,0,0,0-.339-0.975,1.452,1.452,0,0,0-1.071-.343,3.16,3.16,0,0,0-.874.166,10.618,10.618,0,0,0-1.259.489l-0.137.59c0.115-.032.277-0.074,0.484-0.125a2.228,2.228,0,0,1,.511-0.077,1.026,1.026,0,0,1,.695.17,0.971,0.971,0,0,1,.173.682,3.138,3.138,0,0,1-.059.595q-0.06.312-.151,0.714l-0.711,2.9q-0.137.6-.173,0.9a4.3,4.3,0,0,0-.037.521,1.865,1.865,0,0,0,.477,1.332,1.766,1.766,0,0,0,1.356.509,3.459,3.459,0,0,0,.939-0.106,4.74,4.74,0,0,0,.838-0.352,6.122,6.122,0,0,0,.8-0.54q0.464-.357.811-0.659h0.028A1.779,1.779,0,0,0,759.365,239.952Zm16.829-8.491a2.987,2.987,0,0,0-1.954-.536,4.568,4.568,0,0,0-2.175.522,5.232,5.232,0,0,0-1.661,1.375,6.374,6.374,0,0,0-1.058,1.92,6.715,6.715,0,0,0-.361,2.2,3.607,3.607,0,0,0,.856,2.575,3.24,3.24,0,0,0,2.476.907,4.333,4.333,0,0,0,2.28-.668,5.745,5.745,0,0,0,1.831-1.786l-0.522-.384a5.627,5.627,0,0,1-1.378,1.364,2.887,2.887,0,0,1-1.616.458,1.8,1.8,0,0,1-1.57-.765,3.832,3.832,0,0,1-.535-2.211q1.052-.128,1.922-0.32a13.509,13.509,0,0,0,1.721-.505,4.127,4.127,0,0,0,1.772-1.11,2.45,2.45,0,0,0,.609-1.669A1.713,1.713,0,0,0,776.194,231.461Zm-1.419,2.612a2.74,2.74,0,0,1-1.13,1.01,5.321,5.321,0,0,1-1.337.443q-0.806.169-1.446,0.26a6.2,6.2,0,0,1,1.176-3,2.6,2.6,0,0,1,2.028-1.206,2.566,2.566,0,0,1,.375.027,0.863,0.863,0,0,1,.348.137,0.735,0.735,0,0,1,.256.306,1.284,1.284,0,0,1,.1.562A2.782,2.782,0,0,1,774.775,234.073Zm8.657,5.952,4.685-7.113,0.1,0.036-1.194,5.017c-0.054.257-.091,0.458-0.109,0.6a3.405,3.405,0,0,0-.028.439,1.346,1.346,0,0,0,.343.938,1.374,1.374,0,0,0,1.074.38,2.67,2.67,0,0,0,.895-0.151c0.286-.1.7-0.261,1.252-0.48l0.137-.586a3.226,3.226,0,0,1-.489.123,2.827,2.827,0,0,1-.489.06,1.185,1.185,0,0,1-.75-0.188,0.883,0.883,0,0,1-.229-0.709,3.8,3.8,0,0,1,.078-0.595q0.078-.421.142-0.7l1.325-5.9-0.11-.138-1.656.147-4.255,6.559a29.511,29.511,0,0,0-.506-3.565q-0.341-1.621-.8-3.122l-3.009.183-0.182.65h1.593a15.781,15.781,0,0,1-.724,3.589,9.523,9.523,0,0,1-1.611,3.195,4.613,4.613,0,0,0-.6-0.275,1.551,1.551,0,0,0-.54-0.11,0.889,0.889,0,0,0-.742.339,1.119,1.119,0,0,0-.265.7,1.152,1.152,0,0,0,.21.705,0.846,0.846,0,0,0,.724.284,1.774,1.774,0,0,0,.92-0.376,4.784,4.784,0,0,0,1.13-1.172,10.3,10.3,0,0,0,1.172-2.2,17.57,17.57,0,0,0,.934-3.42h0.092q0.346,1.712.517,3.095t0.38,3.753h0.586Zm13.538,1.035a5.875,5.875,0,0,1-.938,1.51,3.152,3.152,0,0,1-1.068.8,2.732,2.732,0,0,1-1.1.256h-0.22q-0.082-.183-0.22-0.494a3.712,3.712,0,0,0-.3-0.559,1.782,1.782,0,0,0-.385-0.421,0.89,0.89,0,0,0-.577-0.192,0.825,0.825,0,0,0-.687.3,1.092,1.092,0,0,0-.238.7,1.211,1.211,0,0,0,.092.458,0.939,0.939,0,0,0,.357.412,2.046,2.046,0,0,0,.723.3,5.529,5.529,0,0,0,1.236.11,5.821,5.821,0,0,0,2-.321,4.717,4.717,0,0,0,1.639-1.043,6.141,6.141,0,0,0,1.263-1.8,12.374,12.374,0,0,0,.89-2.692l1.573-7.168-0.11-.138-1.58.11-1.514,6.848a4.641,4.641,0,0,1-1.2.907,2.824,2.824,0,0,1-1.307.329,1.077,1.077,0,0,1-.876-0.357,1.47,1.47,0,0,1-.3-0.97,3.012,3.012,0,0,1,.064-0.508q0.064-.335.156-0.719l0.83-3.342a4.724,4.724,0,0,0,.11-0.567,3.815,3.815,0,0,0,.037-0.449,1.292,1.292,0,0,0-.353-0.989,1.548,1.548,0,0,0-1.085-.329,3.16,3.16,0,0,0-.874.166,10.618,10.618,0,0,0-1.259.489l-0.137.59c0.115-.032.277-0.074,0.484-0.125a2.235,2.235,0,0,1,.512-0.077,1,1,0,0,1,.69.17,0.989,0.989,0,0,1,.169.682,3.4,3.4,0,0,1-.054.59c-0.037.2-.089,0.444-0.156,0.719L792.55,237.1q-0.137.594-.174,0.9a4.487,4.487,0,0,0-.036.522,1.793,1.793,0,0,0,.513,1.332,1.894,1.894,0,0,0,1.392.508,3.636,3.636,0,0,0,1.731-.4,9.391,9.391,0,0,0,1.6-1.108h0.055A10,10,0,0,1,796.97,241.06Zm19.132-1.827a2.975,2.975,0,0,1-.5.06,1.191,1.191,0,0,1-.752-0.188,0.888,0.888,0,0,1-.229-0.71,3.147,3.147,0,0,1,.078-0.591q0.078-.381.161-0.674l0.77-2.942a6.1,6.1,0,0,0,.16-0.834,5.688,5.688,0,0,0,.05-0.587,1.726,1.726,0,0,0-1.86-1.842,3.481,3.481,0,0,0-1.661.389,11.8,11.8,0,0,0-1.733,1.2h-0.054a1.79,1.79,0,0,0-.332-1.09,1.249,1.249,0,0,0-1.04-.394,3.609,3.609,0,0,0-.948.155,9.668,9.668,0,0,0-1.27.476l-0.138.586c0.117-.03.279-0.068,0.488-0.114a2.49,2.49,0,0,1,.515-0.069,1.013,1.013,0,0,1,.7.174,1,1,0,0,1,.175.688,3.458,3.458,0,0,1-.087.673c-0.058.278-.1,0.491-0.133,0.637l-1.373,5.94h1.71l1.565-6.727a4.61,4.61,0,0,1,1.3-1.064,2.71,2.71,0,0,1,1.244-.367,1.051,1.051,0,0,1,.864.358,1.493,1.493,0,0,1,.291.971,2.944,2.944,0,0,1-.06.514c-0.04.214-.093,0.452-0.161,0.715l-0.9,3.418a5.844,5.844,0,0,0-.12.573,3.063,3.063,0,0,0-.037.445,1.3,1.3,0,0,0,.368.939,1.467,1.467,0,0,0,1.1.38,2.942,2.942,0,0,0,.928-0.151c0.306-.1.735-0.261,1.287-0.48l0.137-.586A3.19,3.19,0,0,1,816.1,239.233Zm10.465-7.36a2.638,2.638,0,0,0-2.165-.948,2.993,2.993,0,0,0-1.414.376,6.255,6.255,0,0,0-1.332.953h-0.073a1.53,1.53,0,0,0-.413-0.9,1.324,1.324,0,0,0-.97-0.325,3.376,3.376,0,0,0-.953.169,10.748,10.748,0,0,0-1.254.481l-0.137.586c0.115-.031.277-0.072,0.484-0.124a2.191,2.191,0,0,1,.512-0.078,0.964,0.964,0,0,1,.69.174,1.052,1.052,0,0,1,.16.687,3.448,3.448,0,0,1-.064.61q-0.063.352-.137,0.7l-1.911,8.429a1.424,1.424,0,0,1-.243.555,0.846,0.846,0,0,1-.453.306,2.894,2.894,0,0,1-.485.092c-0.171.018-.354,0.034-0.549,0.046l-0.128.577h5.049l0.128-.577c-0.153-.012-0.323-0.031-0.513-0.055a2.927,2.927,0,0,1-.512-0.11,1.116,1.116,0,0,1-.408-0.21,0.485,0.485,0,0,1-.178-0.394,2.066,2.066,0,0,1,.032-0.321c0.021-.134.05-0.278,0.087-0.43l0.534-2.4a3.908,3.908,0,0,0,.9.476,3.646,3.646,0,0,0,1.29.193,4.489,4.489,0,0,0,1.907-.431,5.345,5.345,0,0,0,1.723-1.32,6.439,6.439,0,0,0,1.573-4.233A3.924,3.924,0,0,0,826.567,231.873Zm-3.162,7.483a2.387,2.387,0,0,1-1.354.422,1.724,1.724,0,0,1-1.2-.454,1.583,1.583,0,0,1-.562-0.976l1.168-5.2a5.578,5.578,0,0,1,1.241-.962,2.086,2.086,0,0,1,.929-0.257,1.854,1.854,0,0,1,.915.2,1.422,1.422,0,0,1,.549.555,2.388,2.388,0,0,1,.279.811,5.576,5.576,0,0,1,.087.976,7.99,7.99,0,0,1-.251,2.03,6.218,6.218,0,0,1-.718,1.71A3.683,3.683,0,0,1,823.405,239.356Zm11.363,0.587a1.413,1.413,0,0,0,1.045.384,2.908,2.908,0,0,0,.982-0.146q0.4-.147,1.229-0.476l0.138-.586a2.954,2.954,0,0,1-.5.119,3.127,3.127,0,0,1-.5.055,1.169,1.169,0,0,1-.742-0.183,0.894,0.894,0,0,1-.22-0.706,3.565,3.565,0,0,1,.078-0.6c0.051-.272.1-0.5,0.151-0.693l1.394-5.911-0.11-.138-1.68.431a3.583,3.583,0,0,0-.929-0.394,4.354,4.354,0,0,0-1.239-.174,4.307,4.307,0,0,0-2,.5,5.567,5.567,0,0,0-1.674,1.315,6.585,6.585,0,0,0-1.162,1.925,5.986,5.986,0,0,0-.421,2.208,4.084,4.084,0,0,0,.754,2.6,2.509,2.509,0,0,0,2.08.953,2.426,2.426,0,0,0,.915-0.169,4.652,4.652,0,0,0,.777-0.4,4.4,4.4,0,0,0,.654-0.481q0.279-.252.48-0.417h0.064A1.461,1.461,0,0,0,834.768,239.943Zm-0.276-1.842a5.2,5.2,0,0,1-1.265,1.013,2.349,2.349,0,0,1-1.074.289,1.624,1.624,0,0,1-.832-0.193,1.263,1.263,0,0,1-.5-0.541,2.54,2.54,0,0,1-.247-0.788,6.753,6.753,0,0,1-.064-0.99,6.854,6.854,0,0,1,.3-2.007,6.171,6.171,0,0,1,.779-1.687,4.467,4.467,0,0,1,1.136-1.182,2.252,2.252,0,0,1,1.3-.44,2.062,2.062,0,0,1,.806.137,1.269,1.269,0,0,1,.5.367,1.217,1.217,0,0,1,.266.513,2.528,2.528,0,0,1,.064.578Zm11.667-6.595a3.571,3.571,0,0,0-2.193-.581,4.2,4.2,0,0,0-2.339.677,5.682,5.682,0,0,0-1.726,1.777l0.541,0.384a5.452,5.452,0,0,1,1.487-1.36,3.181,3.181,0,0,1,1.616-.444,1.574,1.574,0,0,1,1.177.408,1.427,1.427,0,0,1,.4,1.039,1.611,1.611,0,0,1-.092.5,1.672,1.672,0,0,1-.888.975,2.112,2.112,0,0,1-.933.187h-1.136l-0.174.815h1.09a2.135,2.135,0,0,1,1.286.334,1.17,1.17,0,0,1,.453,1.009,2.375,2.375,0,0,1-.769,1.826,2.647,2.647,0,0,1-1.867.713,2.684,2.684,0,0,1-1.044-.182,1.517,1.517,0,0,1-.6-0.4q0.118-.246.279-0.62a1.657,1.657,0,0,0,.16-0.621,0.774,0.774,0,0,0-.22-0.533,0.843,0.843,0,0,0-.659-0.242,0.977,0.977,0,0,0-.828.38,1.387,1.387,0,0,0-.289.865,1.688,1.688,0,0,0,.824,1.442,3.983,3.983,0,0,0,2.271.563,5.763,5.763,0,0,0,3.3-.888,2.706,2.706,0,0,0,1.309-2.335,1.53,1.53,0,0,0-.192-0.819,1.675,1.675,0,0,0-.513-0.517,2.1,2.1,0,0,0-.668-0.293,3.764,3.764,0,0,0-.714-0.11l0.036-.119a3.684,3.684,0,0,0,1.131-.362,2.876,2.876,0,0,0,.719-0.563,1.841,1.841,0,0,0,.4-0.655,2.124,2.124,0,0,0,.129-0.718A1.835,1.835,0,0,0,846.159,231.506Zm7.214,7.686a2.121,2.121,0,0,1-1.478.6,1.437,1.437,0,0,1-1.364-.714,4.362,4.362,0,0,1-.4-2.1,7.186,7.186,0,0,1,.993-3.731,2.843,2.843,0,0,1,2.413-1.677,2.071,2.071,0,0,1,1.048.27,2.867,2.867,0,0,1,.9.912,16.465,16.465,0,0,1-.325,2.608,10.6,10.6,0,0,1-.7,2.259A4.723,4.723,0,0,1,853.373,239.192Zm3.553-9.888a5.746,5.746,0,0,0-.884-1.831,3.633,3.633,0,0,0-1.291-1.117,3.507,3.507,0,0,0-1.574-.357,3.681,3.681,0,0,0-1.571.33,4.745,4.745,0,0,0-1.368,1l0.366,0.43c0.073-.049.177-0.128,0.311-0.238a2.162,2.162,0,0,1,.4-0.265,2.85,2.85,0,0,1,.618-0.225,3.227,3.227,0,0,1,.737-0.077,2.269,2.269,0,0,1,1.955,1.233,6.929,6.929,0,0,1,.865,3.39,2.388,2.388,0,0,0-1-.5,4.608,4.608,0,0,0-1.108-.146,4.675,4.675,0,0,0-3.639,1.714,5.934,5.934,0,0,0-1.506,4.05,3.873,3.873,0,0,0,.947,2.726,3.3,3.3,0,0,0,2.559,1.031,4.425,4.425,0,0,0,2.385-.645,5.409,5.409,0,0,0,1.8-1.973,9.229,9.229,0,0,0,.98-2.733,15.686,15.686,0,0,0,.33-3.181A9.357,9.357,0,0,0,856.926,229.3Zm4.925,4.148a6.268,6.268,0,0,0,.119-0.655,4.117,4.117,0,0,0,.037-0.444,1.315,1.315,0,0,0-.345-0.975,1.474,1.474,0,0,0-1.079-.343,3.189,3.189,0,0,0-.878.166,10.722,10.722,0,0,0-1.264.489l-0.137.59q0.174-.048.487-0.125a2.257,2.257,0,0,1,.515-0.077,1.015,1.015,0,0,1,.694.17,0.989,0.989,0,0,1,.169.682,3.445,3.445,0,0,1-.073.636q-0.073.381-.137,0.673l-1.372,5.933H860.3l1.012-4.422h3.672l-0.512,2.215q-0.073.357-.114,0.6a2.617,2.617,0,0,0-.041.444,1.3,1.3,0,0,0,.366.938,1.46,1.46,0,0,0,1.1.38,2.934,2.934,0,0,0,.926-0.151c0.3-.1.733-0.261,1.283-0.48l0.137-.586a3.226,3.226,0,0,1-.5.123,3,3,0,0,1-.5.06,1.2,1.2,0,0,1-.754-0.188,0.883,0.883,0,0,1-.23-0.709,3.515,3.515,0,0,1,.087-0.6c0.059-.284.109-0.514,0.153-0.691l1.372-5.9-0.11-.138-1.594.11-0.906,3.836H861.48Zm13.6,6.445a1.358,1.358,0,0,0,1.1.43,3.248,3.248,0,0,0,.938-0.155q0.507-.156,1.267-0.467l0.138-.586a2.963,2.963,0,0,1-.494.119,3.1,3.1,0,0,1-.493.055,1.165,1.165,0,0,1-.745-0.188,0.9,0.9,0,0,1-.224-0.709,3.278,3.278,0,0,1,.073-0.536q0.073-.38.165-0.755l1.361-5.9-0.11-.138-1.6.11-1.593,6.894A4.8,4.8,0,0,1,874,239a2.684,2.684,0,0,1-1.2.307,0.979,0.979,0,0,1-.842-0.357,1.591,1.591,0,0,1-.265-0.97,3.231,3.231,0,0,1,.059-0.509c0.04-.222.09-0.462,0.151-0.718l0.808-3.388a4.929,4.929,0,0,0,.11-0.567,3.775,3.775,0,0,0,.036-0.449,1.319,1.319,0,0,0-.343-0.975,1.47,1.47,0,0,0-1.076-.343,3.16,3.16,0,0,0-.874.166,10.618,10.618,0,0,0-1.259.489l-0.137.59c0.115-.032.277-0.074,0.484-0.125a2.228,2.228,0,0,1,.511-0.077,1,1,0,0,1,.69.17,0.989,0.989,0,0,1,.169.682,3.222,3.222,0,0,1-.059.595q-0.06.312-.151,0.714l-0.711,2.9q-0.137.6-.173,0.9a4.3,4.3,0,0,0-.037.521,1.848,1.848,0,0,0,.485,1.332,1.8,1.8,0,0,0,1.365.509,3.656,3.656,0,0,0,.934-0.1,4.385,4.385,0,0,0,.8-0.315,5.619,5.619,0,0,0,.759-0.476q0.385-.285.806-0.623h0.055A1.517,1.517,0,0,0,875.448,239.9Zm13.952-8.61a1.035,1.035,0,0,0-.754-0.28,2.226,2.226,0,0,0-.947.206,2.523,2.523,0,0,0-.8.6,4.45,4.45,0,0,0-.594.815q-0.21.384-.41,0.824a7.08,7.08,0,0,1-.424.805,2.668,2.668,0,0,1-.537.623,1.827,1.827,0,0,1-.565.343,1.706,1.706,0,0,1-.593.106h-0.551l0.443-1.877a6.268,6.268,0,0,0,.119-0.655,4.117,4.117,0,0,0,.037-0.444,1.315,1.315,0,0,0-.345-0.975,1.474,1.474,0,0,0-1.079-.343,3.189,3.189,0,0,0-.878.166,10.722,10.722,0,0,0-1.264.489l-0.137.59q0.174-.048.487-0.125a2.257,2.257,0,0,1,.515-0.077,1.015,1.015,0,0,1,.694.17,0.989,0.989,0,0,1,.169.682,3.445,3.445,0,0,1-.073.636q-0.073.381-.137,0.673l-1.372,5.933h1.711l0.942-4.157h0.6a1.136,1.136,0,0,1,.912.312,2.923,2.923,0,0,1,.435,1.245c0.037,0.171.07,0.372,0.1,0.6s0.061,0.439.091,0.622a1.82,1.82,0,0,0,.572,1.186,1.6,1.6,0,0,0,1.021.343,3.814,3.814,0,0,0,.93-0.1,12.883,12.883,0,0,0,1.35-.467l0.147-.61a4.339,4.339,0,0,1-.5.129,3.016,3.016,0,0,1-.595.073,1.188,1.188,0,0,1-.938-0.321,1.716,1.716,0,0,1-.371-0.869c-0.025-.159-0.055-0.333-0.092-0.522s-0.061-.324-0.073-0.4a2.786,2.786,0,0,0-.407-1.135,2.158,2.158,0,0,0-.856-0.669v-0.082a2.831,2.831,0,0,0,.819-0.806,7.768,7.768,0,0,0,.545-0.924q0.183-.357.361-0.783a1.322,1.322,0,0,1,.344-0.545,4.325,4.325,0,0,0,.654.536,1.1,1.1,0,0,0,.591.2,0.924,0.924,0,0,0,.741-0.3,1.051,1.051,0,0,0,.257-0.71A0.966,0.966,0,0,0,889.4,231.287Zm6.017,9.773a5.9,5.9,0,0,1-.939,1.51,3.148,3.148,0,0,1-1.067.8,2.74,2.74,0,0,1-1.1.256h-0.219c-0.055-.122-0.129-0.287-0.22-0.494a3.8,3.8,0,0,0-.3-0.559,1.8,1.8,0,0,0-.385-0.421,0.89,0.89,0,0,0-.577-0.192,0.823,0.823,0,0,0-.687.3,1.092,1.092,0,0,0-.238.7,1.229,1.229,0,0,0,.091.458,0.939,0.939,0,0,0,.357.412,2.044,2.044,0,0,0,.724.3,5.529,5.529,0,0,0,1.236.11,5.825,5.825,0,0,0,2-.321,4.713,4.713,0,0,0,1.638-1.043,6.125,6.125,0,0,0,1.264-1.8,12.376,12.376,0,0,0,.889-2.692l1.574-7.168-0.11-.138-1.581.11-1.513,6.848a4.641,4.641,0,0,1-1.2.907,2.824,2.824,0,0,1-1.307.329,1.074,1.074,0,0,1-.876-0.357,1.465,1.465,0,0,1-.3-0.97,2.91,2.91,0,0,1,.064-0.508c0.043-.223.094-0.463,0.155-0.719l0.831-3.342a4.724,4.724,0,0,0,.11-0.567,3.775,3.775,0,0,0,.036-0.449,1.292,1.292,0,0,0-.352-0.989,1.548,1.548,0,0,0-1.085-.329,3.172,3.172,0,0,0-.875.166,10.61,10.61,0,0,0-1.258.489l-0.138.59c0.116-.032.277-0.074,0.485-0.125a2.235,2.235,0,0,1,.512-0.077,1,1,0,0,1,.69.17,0.989,0.989,0,0,1,.169.682,3.307,3.307,0,0,1-.055.59c-0.036.2-.088,0.444-0.155,0.719L891,237.1a9.081,9.081,0,0,0-.174.9,4.512,4.512,0,0,0-.037.522,1.793,1.793,0,0,0,.513,1.332,1.9,1.9,0,0,0,1.393.508,3.636,3.636,0,0,0,1.731-.4,9.431,9.431,0,0,0,1.6-1.108h0.055A10,10,0,0,1,895.417,241.06Zm19.132-1.827a2.985,2.985,0,0,1-.5.06,1.19,1.19,0,0,1-.751-0.188,0.885,0.885,0,0,1-.229-0.71,3.147,3.147,0,0,1,.078-0.591q0.078-.381.16-0.674l0.77-2.942a5.959,5.959,0,0,0,.161-0.834q0.049-.422.05-0.587a1.727,1.727,0,0,0-1.861-1.842,3.477,3.477,0,0,0-1.66.389,11.8,11.8,0,0,0-1.733,1.2h-0.055a1.789,1.789,0,0,0-.331-1.09,1.251,1.251,0,0,0-1.04-.394,3.609,3.609,0,0,0-.948.155,9.615,9.615,0,0,0-1.27.476l-0.138.586q0.174-.045.488-0.114a2.482,2.482,0,0,1,.515-0.069,1.013,1.013,0,0,1,.7.174,1,1,0,0,1,.174.688,3.458,3.458,0,0,1-.087.673c-0.058.278-.1,0.491-0.132,0.637l-1.373,5.94h1.71l1.564-6.727a4.627,4.627,0,0,1,1.3-1.064,2.71,2.71,0,0,1,1.244-.367,1.049,1.049,0,0,1,.863.358,1.493,1.493,0,0,1,.291.971,3.026,3.026,0,0,1-.059.514q-0.06.321-.161,0.715l-0.905,3.418q-0.082.33-.119,0.573a2.928,2.928,0,0,0-.037.445,1.3,1.3,0,0,0,.367.939,1.47,1.47,0,0,0,1.1.38,2.951,2.951,0,0,0,.928-0.151c0.306-.1.735-0.261,1.286-0.48l0.138-.586A3.22,3.22,0,0,1,914.549,239.233Zm9.576-7.314a3.3,3.3,0,0,0-2.549-.994,4.957,4.957,0,0,0-2.193.49,5.185,5.185,0,0,0-1.7,1.288,6.337,6.337,0,0,0-1.484,4.124,3.637,3.637,0,0,0,.948,2.639,3.276,3.276,0,0,0,2.467.98,4.986,4.986,0,0,0,2.3-.508,5.4,5.4,0,0,0,1.7-1.352,5.709,5.709,0,0,0,1.062-1.9,6.712,6.712,0,0,0,.366-2.163A3.684,3.684,0,0,0,924.125,231.919Zm-1.158,4.3a7.106,7.106,0,0,1-.6,1.765,3.9,3.9,0,0,1-1.025,1.3,2.234,2.234,0,0,1-1.447.513,1.539,1.539,0,0,1-1.369-.673,3.57,3.57,0,0,1-.453-1.985,10.317,10.317,0,0,1,.174-1.8,7.06,7.06,0,0,1,.549-1.773,3.66,3.66,0,0,1,1.159-1.522,2.469,2.469,0,0,1,1.432-.467,1.533,1.533,0,0,1,1.332.651,3.367,3.367,0,0,1,.463,1.952A9.77,9.77,0,0,1,922.967,236.217Zm11.421-4.278a1.793,1.793,0,0,0-.618-0.574,2.977,2.977,0,0,0-.9-0.339,5.572,5.572,0,0,0-1.113-.1,5.021,5.021,0,0,0-2.279.5,4.636,4.636,0,0,0-1.648,1.347,6.121,6.121,0,0,0-.989,1.993,8.533,8.533,0,0,0-.33,2.415,3.377,3.377,0,0,0,.8,2.419,3.312,3.312,0,0,0,2.5.843,5.465,5.465,0,0,0,3.3-.9,2.753,2.753,0,0,0,1.222-2.316,1.559,1.559,0,0,0-.627-1.3,2.873,2.873,0,0,0-1.616-.549l0.009-.1a3.721,3.721,0,0,0,1.891-.959,2.17,2.17,0,0,0,.618-1.537A1.516,1.516,0,0,0,934.388,231.939Zm-1.638,1.77a1.6,1.6,0,0,1-.4.629,2.47,2.47,0,0,1-.842.5,5.57,5.57,0,0,1-1.364.3l-1.675.183a13.4,13.4,0,0,1,.343-1.312,4.921,4.921,0,0,1,.563-1.2,2.991,2.991,0,0,1,.865-0.909,2.016,2.016,0,0,1,1.131-.321,1.583,1.583,0,0,1,1.071.363,1.242,1.242,0,0,1,.421,1A2.459,2.459,0,0,1,932.75,233.709Zm-0.367,4.407a2.624,2.624,0,0,1-.38.811,1.979,1.979,0,0,1-.737.631,2.4,2.4,0,0,1-1.112.238,1.807,1.807,0,0,1-.687-0.137,1.625,1.625,0,0,1-.6-0.421,2.333,2.333,0,0,1-.425-0.787,3.759,3.759,0,0,1-.17-1.209q0-.238.014-0.595a5.773,5.773,0,0,1,.06-0.659q0.319-.055.943-0.138a8.755,8.755,0,0,1,1.116-.082,2.576,2.576,0,0,1,1.607.394,1.289,1.289,0,0,1,.49,1.062A3.287,3.287,0,0,1,932.383,238.116Zm11.472-6.2a3.3,3.3,0,0,0-2.55-.994,4.955,4.955,0,0,0-2.192.49,5.2,5.2,0,0,0-1.7,1.288,6.344,6.344,0,0,0-1.483,4.124,3.637,3.637,0,0,0,.948,2.639,3.274,3.274,0,0,0,2.467.98,4.989,4.989,0,0,0,2.3-.508,5.4,5.4,0,0,0,1.7-1.352,5.709,5.709,0,0,0,1.062-1.9,6.712,6.712,0,0,0,.366-2.163A3.688,3.688,0,0,0,943.855,231.919Zm-1.158,4.3a7.147,7.147,0,0,1-.6,1.765,3.9,3.9,0,0,1-1.026,1.3,2.229,2.229,0,0,1-1.446.513,1.538,1.538,0,0,1-1.369-.673,3.57,3.57,0,0,1-.453-1.985,10.317,10.317,0,0,1,.174-1.8,7.06,7.06,0,0,1,.549-1.773,3.659,3.659,0,0,1,1.158-1.522,2.472,2.472,0,0,1,1.433-.467,1.533,1.533,0,0,1,1.332.651,3.375,3.375,0,0,1,.462,1.952A9.838,9.838,0,0,1,942.7,236.217Zm8.464,2.975a2.123,2.123,0,0,1-1.479.6,1.438,1.438,0,0,1-1.364-.714,4.374,4.374,0,0,1-.4-2.1,7.177,7.177,0,0,1,.994-3.731,2.842,2.842,0,0,1,2.412-1.677,2.069,2.069,0,0,1,1.048.27,2.857,2.857,0,0,1,.9.912,16.35,16.35,0,0,1-.325,2.608,10.6,10.6,0,0,1-.7,2.259A4.738,4.738,0,0,1,951.161,239.192Zm3.552-9.888a5.745,5.745,0,0,0-.883-1.831,3.641,3.641,0,0,0-1.291-1.117,3.508,3.508,0,0,0-1.575-.357,3.676,3.676,0,0,0-1.57.33,4.762,4.762,0,0,0-1.369,1l0.366,0.43c0.074-.049.177-0.128,0.312-0.238a2.13,2.13,0,0,1,.4-0.265,2.85,2.85,0,0,1,.618-0.225,3.221,3.221,0,0,1,.737-0.077,2.268,2.268,0,0,1,1.954,1.233,6.918,6.918,0,0,1,.865,3.39,2.376,2.376,0,0,0-1-.5,4.594,4.594,0,0,0-1.107-.146,4.676,4.676,0,0,0-3.64,1.714,5.934,5.934,0,0,0-1.506,4.05,3.869,3.869,0,0,0,.948,2.726,3.3,3.3,0,0,0,2.559,1.031,4.43,4.43,0,0,0,2.385-.645,5.426,5.426,0,0,0,1.8-1.973,9.229,9.229,0,0,0,.979-2.733,15.686,15.686,0,0,0,.33-3.181A9.319,9.319,0,0,0,954.713,229.3Zm9.448,4.148a6.268,6.268,0,0,0,.119-0.655,3.87,3.87,0,0,0,.037-0.444,1.319,1.319,0,0,0-.344-0.975,1.478,1.478,0,0,0-1.08-.343,3.189,3.189,0,0,0-.878.166,10.648,10.648,0,0,0-1.263.489l-0.138.59c0.116-.032.279-0.074,0.487-0.125a2.257,2.257,0,0,1,.515-0.077,1.013,1.013,0,0,1,.694.17,0.989,0.989,0,0,1,.169.682,3.445,3.445,0,0,1-.073.636q-0.073.381-.137,0.673l-1.371,5.933h1.71l1.013-4.422h3.672l-0.513,2.215q-0.072.357-.114,0.6a2.723,2.723,0,0,0-.041.444,1.3,1.3,0,0,0,.366.938,1.46,1.46,0,0,0,1.1.38,2.934,2.934,0,0,0,.926-0.151c0.3-.1.733-0.261,1.283-0.48l0.137-.586a3.2,3.2,0,0,1-.5.123,3.005,3.005,0,0,1-.5.06,1.2,1.2,0,0,1-.755-0.188,0.883,0.883,0,0,1-.23-0.709,3.444,3.444,0,0,1,.088-0.6q0.087-.426.152-0.691l1.372-5.9-0.11-.138-1.594.11-0.9,3.836H963.79Zm14.6-1.991a2.99,2.99,0,0,0-1.955-.536,4.567,4.567,0,0,0-2.174.522,5.247,5.247,0,0,0-1.662,1.375,6.371,6.371,0,0,0-1.057,1.92,6.716,6.716,0,0,0-.362,2.2,3.611,3.611,0,0,0,.856,2.575,3.242,3.242,0,0,0,2.477.907,4.329,4.329,0,0,0,2.279-.668A5.748,5.748,0,0,0,979,237.974l-0.522-.384a5.627,5.627,0,0,1-1.378,1.364,2.89,2.89,0,0,1-1.616.458,1.794,1.794,0,0,1-1.57-.765,3.831,3.831,0,0,1-.536-2.211q1.053-.128,1.923-0.32a13.557,13.557,0,0,0,1.721-.505,4.127,4.127,0,0,0,1.772-1.11,2.454,2.454,0,0,0,.608-1.669A1.715,1.715,0,0,0,978.764,231.461Zm-1.419,2.612a2.736,2.736,0,0,1-1.131,1.01,5.313,5.313,0,0,1-1.336.443q-0.807.169-1.447,0.26a6.209,6.209,0,0,1,1.177-3,2.342,2.342,0,0,1,2.4-1.179,0.863,0.863,0,0,1,.348.137,0.743,0.743,0,0,1,.256.306,1.3,1.3,0,0,1,.1.562A2.791,2.791,0,0,1,977.345,234.073Zm11.215-.621a6.268,6.268,0,0,0,.119-0.655,4.117,4.117,0,0,0,.037-0.444,1.315,1.315,0,0,0-.345-0.975,1.474,1.474,0,0,0-1.079-.343,3.189,3.189,0,0,0-.878.166,10.722,10.722,0,0,0-1.264.489l-0.137.59q0.174-.048.487-0.125a2.257,2.257,0,0,1,.515-0.077,1.015,1.015,0,0,1,.694.17,0.989,0.989,0,0,1,.169.682,3.445,3.445,0,0,1-.073.636q-0.073.381-.137,0.673l-1.372,5.933h1.711l1.012-4.422h3.672l-0.512,2.215q-0.073.357-.114,0.6a2.617,2.617,0,0,0-.041.444,1.3,1.3,0,0,0,.366.938,1.46,1.46,0,0,0,1.1.38,2.934,2.934,0,0,0,.926-0.151c0.3-.1.733-0.261,1.283-0.48l0.137-.586a3.226,3.226,0,0,1-.5.123,3,3,0,0,1-.5.06,1.2,1.2,0,0,1-.754-0.188,0.883,0.883,0,0,1-.23-0.709,3.515,3.515,0,0,1,.087-0.6c0.059-.284.109-0.514,0.152-0.691l1.373-5.9-0.11-.138-1.594.11-0.906,3.836h-3.662Zm12.66,7.608a5.894,5.894,0,0,1-.93,1.51,3.21,3.21,0,0,1-1.071.8,2.74,2.74,0,0,1-1.1.256H997.9q-0.082-.183-0.22-0.494a3.624,3.624,0,0,0-.3-0.559,1.782,1.782,0,0,0-.385-0.421,0.89,0.89,0,0,0-.577-0.192,0.825,0.825,0,0,0-.687.3,1.092,1.092,0,0,0-.238.7,1.231,1.231,0,0,0,.092.458,0.939,0.939,0,0,0,.357.412,2.046,2.046,0,0,0,.723.3,5.529,5.529,0,0,0,1.236.11,5.821,5.821,0,0,0,2-.321,4.8,4.8,0,0,0,1.641-1.043,6.173,6.173,0,0,0,1.26-1.8,12.215,12.215,0,0,0,.89-2.692l1.57-7.168-0.11-.138-1.58.11-1.51,6.848a4.523,4.523,0,0,1-1.2.907,2.8,2.8,0,0,1-1.3.329,1.077,1.077,0,0,1-.876-0.357,1.47,1.47,0,0,1-.3-0.97,3.012,3.012,0,0,1,.064-0.508q0.065-.335.156-0.719l0.831-3.342a4.719,4.719,0,0,0,.109-0.567,3.815,3.815,0,0,0,.037-0.449,1.292,1.292,0,0,0-.353-0.989,1.546,1.546,0,0,0-1.085-.329,3.166,3.166,0,0,0-.874.166,10.618,10.618,0,0,0-1.259.489l-0.137.59c0.115-.032.277-0.074,0.484-0.125a2.235,2.235,0,0,1,.512-0.077,1,1,0,0,1,.69.17,0.988,0.988,0,0,1,.17.682,3.4,3.4,0,0,1-.055.59c-0.037.2-.089,0.444-0.156,0.719L996.8,237.1q-0.136.594-.173,0.9a4.3,4.3,0,0,0-.037.522,1.793,1.793,0,0,0,.513,1.332,1.894,1.894,0,0,0,1.392.508,3.631,3.631,0,0,0,1.731-.4,9.223,9.223,0,0,0,1.6-1.108h0.06A10.146,10.146,0,0,1,1001.22,241.06Zm21.24-9.778a1.344,1.344,0,0,0-.93-0.275,4.236,4.236,0,0,0-2.8,1.1,6.62,6.62,0,0,0-1.94,2.906h-1.57l0.9-3.808-0.11-.138-1.54.11-0.9,3.855h-1.56a2.182,2.182,0,0,0,.02-0.33c0.01-.159.02-0.271,0.02-0.339a4.309,4.309,0,0,0-.62-2.453,2.071,2.071,0,0,0-1.84-.907,2.888,2.888,0,0,0-1.64.5,6.247,6.247,0,0,0-1.49,1.5l0.46,0.412c0.09-.1.21-0.244,0.36-0.439a3.164,3.164,0,0,1,.46-0.5,2.843,2.843,0,0,1,.58-0.389,1.559,1.559,0,0,1,.68-0.142,1.132,1.132,0,0,1,.73.206,1.619,1.619,0,0,1,.42.591,2.869,2.869,0,0,1,.2.829,6.6,6.6,0,0,1,.07.929,8.268,8.268,0,0,1-.55,3.2,3.394,3.394,0,0,1-1.66,1.853,3.769,3.769,0,0,0-.71-0.8,1.228,1.228,0,0,0-.77-0.293,0.906,0.906,0,0,0-.98.952,0.933,0.933,0,0,0,.3.723,1.322,1.322,0,0,0,.93.275,4.284,4.284,0,0,0,3.02-1.286,6.968,6.968,0,0,0,1.91-3.392h1.5l-1.02,4.422h1.66l1-4.441h1.55q-0.045.22-.09,0.641c-0.03.281-.05,0.513-0.05,0.7a4.312,4.312,0,0,0,.62,2.454,2.09,2.09,0,0,0,1.83.906,2.943,2.943,0,0,0,1.67-.5,6.4,6.4,0,0,0,1.47-1.5l-0.46-.412q-0.2.247-.39,0.49a3.693,3.693,0,0,1-.42.444,1.951,1.951,0,0,1-.55.38,1.7,1.7,0,0,1-.72.151,1.122,1.122,0,0,1-.71-0.224,1.294,1.294,0,0,1-.44-0.573,2.684,2.684,0,0,1-.21-0.81,6.954,6.954,0,0,1-.06-0.947,8.465,8.465,0,0,1,.56-3.164,3.3,3.3,0,0,1,1.65-1.89,3.364,3.364,0,0,0,.72.8,1.192,1.192,0,0,0,.76.288,0.966,0.966,0,0,0,.72-0.265,0.954,0.954,0,0,0,.26-0.687A0.933,0.933,0,0,0,1022.46,231.282Zm7.95,0.179a3.015,3.015,0,0,0-1.96-.536,4.571,4.571,0,0,0-2.17.522,5.174,5.174,0,0,0-1.66,1.375,6.231,6.231,0,0,0-1.06,1.92,6.741,6.741,0,0,0-.36,2.2,3.568,3.568,0,0,0,.86,2.575,3.226,3.226,0,0,0,2.47.907,4.32,4.32,0,0,0,2.28-.668,5.782,5.782,0,0,0,1.83-1.786l-0.52-.384a5.547,5.547,0,0,1-1.38,1.364,2.854,2.854,0,0,1-1.61.458,1.786,1.786,0,0,1-1.57-.765,3.807,3.807,0,0,1-.54-2.211q1.05-.128,1.92-0.32a13.169,13.169,0,0,0,1.72-.505,4.153,4.153,0,0,0,1.78-1.11,2.48,2.48,0,0,0,.61-1.669A1.73,1.73,0,0,0,1030.41,231.461Zm-1.42,2.612a2.733,2.733,0,0,1-1.13,1.01,5.252,5.252,0,0,1-1.34.443c-0.53.113-1.02,0.2-1.44,0.26a6.155,6.155,0,0,1,1.17-3,2.6,2.6,0,0,1,2.03-1.206,2.7,2.7,0,0,1,.38.027,0.842,0.842,0,0,1,.34.137,0.721,0.721,0,0,1,.26.306,1.257,1.257,0,0,1,.1.562A2.763,2.763,0,0,1,1028.99,234.073Zm6.69-.621a4.568,4.568,0,0,0,.12-0.655,3.079,3.079,0,0,0,.04-0.444,1.318,1.318,0,0,0-.35-0.975,1.478,1.478,0,0,0-1.08-.343,3.118,3.118,0,0,0-.87.166,10.508,10.508,0,0,0-1.27.489l-0.14.59c0.12-.032.28-0.074,0.49-0.125a2.272,2.272,0,0,1,.52-0.077,0.994,0.994,0,0,1,.69.17,1,1,0,0,1,.17.682,3.324,3.324,0,0,1-.07.636c-0.05.254-.1,0.478-0.14,0.673l-1.37,5.933h1.71l1.01-4.422h3.67l-0.51,2.215c-0.05.238-.09,0.438-0.11,0.6a2.419,2.419,0,0,0-.04.444,1.311,1.311,0,0,0,.36.938,1.466,1.466,0,0,0,1.1.38,2.986,2.986,0,0,0,.93-0.151c0.3-.1.73-0.261,1.28-0.48l0.14-.586a3.567,3.567,0,0,1-.5.123,3.091,3.091,0,0,1-.5.06,1.21,1.21,0,0,1-.76-0.188,0.893,0.893,0,0,1-.23-0.709,3.405,3.405,0,0,1,.09-0.6q0.09-.426.15-0.691l1.37-5.9-0.11-.138-1.59.11-0.91,3.836h-3.66Zm12.63-6.354a0.89,0.89,0,0,0-.68-0.256,1.4,1.4,0,0,0-.92.338,1.527,1.527,0,0,0-.54.9c-0.07.323-.21,1.408-0.44,3.254s-0.43,3.475-.64,4.885h0.71q0.81-2.472,1.44-4.248c0.41-1.184.77-2.21,1.05-3.077a6.5,6.5,0,0,0,.21-0.7,2.889,2.889,0,0,0,.05-0.435A0.927,0.927,0,0,0,1048.31,227.1Zm-2.48,11.137a1.228,1.228,0,0,0-.89-0.37,1.263,1.263,0,0,0-1.25,1.254,1.164,1.164,0,0,0,.37.874,1.222,1.222,0,0,0,.88.362,1.245,1.245,0,0,0,.89-0.362,1.2,1.2,0,0,0,.37-0.874A1.236,1.236,0,0,0,1045.83,238.235Z" transform="translate(-693.375 -226)"></path></svg> 