<svg width="60" height="60" viewBox="0 0 60 60" fill="none" xmlns="http://www.w3.org/2000/svg">
<path d="M28.7823 43.1846H21.6105C20.9659 43.1846 20.4386 43.7119 20.4386 44.3565C20.4386 45.001 20.9659 45.5283 21.6105 45.5283H28.7823C29.4269 45.5283 29.9542 45.001 29.9542 44.3565C29.9542 43.7119 29.4269 43.1846 28.7823 43.1846ZM40.8175 43.1846H33.6339C32.9894 43.1846 32.462 43.7119 32.462 44.3565C32.462 45.001 32.9894 45.5283 33.6339 45.5283H40.8058C41.4503 45.5283 41.9776 45.001 41.9776 44.3565C41.9894 43.7119 41.462 43.1846 40.8175 43.1846ZM53.005 43.1846H45.8331C45.1886 43.1846 44.6612 43.7119 44.6612 44.3565C44.6612 45.001 45.1886 45.5283 45.8331 45.5283H53.005C53.6495 45.5283 54.1769 45.001 54.1769 44.3565C54.1769 43.7119 53.6612 43.1846 53.005 43.1846ZM50.6964 47.2276C49.9347 47.2276 49.2081 47.4151 48.5753 47.7549C47.9425 47.4268 47.2159 47.2276 46.4542 47.2276C43.9347 47.2276 41.8839 49.2783 41.8839 51.7979C41.8839 54.3174 43.9347 56.3682 46.4542 56.3682C47.2159 56.3682 47.9425 56.1807 48.5753 55.8408C49.2081 56.169 49.9347 56.3682 50.6964 56.3682C53.2159 56.3682 55.2667 54.3174 55.2667 51.7979C55.2667 49.2783 53.2159 47.2276 50.6964 47.2276ZM46.7003 54.0127C46.6183 54.0244 46.5362 54.0244 46.4542 54.0244C45.2237 54.0244 44.2276 53.0283 44.2276 51.7979C44.2276 50.5674 45.2237 49.5713 46.4542 49.5713C46.5362 49.5713 46.6183 49.5713 46.7003 49.583C46.337 50.2393 46.1261 50.9893 46.1261 51.7979C46.1261 52.5947 46.337 53.3565 46.7003 54.0127ZM48.5753 52.4776C48.505 52.2666 48.4698 52.0322 48.4698 51.7979C48.4698 51.5635 48.505 51.3291 48.5753 51.1182C48.6456 51.3291 48.6808 51.5635 48.6808 51.7979C48.6808 52.0322 48.6456 52.2666 48.5753 52.4776ZM50.6964 54.0244C50.6144 54.0244 50.5323 54.0244 50.4503 54.0127C50.8136 53.3565 51.0245 52.6065 51.0245 51.7979C51.0245 50.9893 50.8136 50.2393 50.4503 49.583C50.5323 49.5713 50.6144 49.5713 50.6964 49.5713C51.9269 49.5713 52.923 50.5674 52.923 51.7979C52.923 53.0283 51.9151 54.0244 50.6964 54.0244ZM30.0011 32.8135H21.5636C20.9191 32.8135 20.3917 33.3408 20.3917 33.9854V39.376C20.3917 40.0205 20.9191 40.5479 21.5636 40.5479H30.0011C30.6456 40.5479 31.173 40.0205 31.173 39.376V33.9854C31.173 33.3408 30.6456 32.8135 30.0011 32.8135ZM28.8292 38.2041H22.7355V35.1572H28.8292V38.2041ZM30.13 57.6573H30.1183C29.4737 57.6573 28.9464 58.1846 28.9464 58.8291C28.9464 59.4737 29.4737 60.001 30.1183 60.001H30.13C30.7745 60.001 31.3019 59.4737 31.3019 58.8291C31.3019 58.1846 30.7745 57.6573 30.13 57.6573ZM56.4855 28.7119H44.755L50.3097 23.1572C51.6808 21.7861 51.6808 19.5596 50.3097 18.1885L33.1417 1.03223C31.7706 -0.338867 29.5441 -0.338867 28.173 1.03223L1.03233 28.1729C-0.33876 29.544 -0.33876 31.7705 1.03233 33.1416L14.5909 46.7002V56.4854C14.5909 58.419 16.173 60.001 18.1066 60.001H24.4112C25.0558 60.001 25.5831 59.4737 25.5831 58.8291C25.5831 58.1846 25.0558 57.6573 24.4112 57.6573H18.1066C17.462 57.6573 16.9347 57.1299 16.9347 56.4854V32.2276C16.9347 31.583 17.462 31.0557 18.1066 31.0557H56.4855C57.13 31.0557 57.6573 31.583 57.6573 32.2276V56.4854C57.6573 57.1299 57.13 57.6573 56.4855 57.6573H34.8292C34.1847 57.6573 33.6573 58.1846 33.6573 58.8291C33.6573 59.4737 34.1847 60.001 34.8292 60.001H56.4855C58.4191 60.001 60.0011 58.419 60.0011 56.4854V32.2276C60.0011 30.2822 58.4191 28.7119 56.4855 28.7119ZM2.68468 31.4893C2.22765 31.0322 2.22765 30.294 2.68468 29.8369L29.8253 2.68457C30.2823 2.22754 31.0206 2.22754 31.4776 2.68457L33.2589 4.46582L4.46593 33.2588L2.68468 31.4893ZM14.5792 43.3838L9.92686 38.7315L14.5792 34.0791V43.3838ZM34.4308 28.7119L37.0909 26.0518C37.548 25.5947 37.548 24.8565 37.0909 24.3994C36.6339 23.9424 35.8956 23.9424 35.4386 24.3994L31.1144 28.7119H28.0206L34.3839 22.3486C34.8409 21.8916 34.8409 21.1533 34.3839 20.6963C33.9269 20.2393 33.1886 20.2393 32.7316 20.6963L24.7159 28.7119H19.9581L32.8956 15.7744C33.3526 15.3174 33.3526 14.5791 32.8956 14.1221C32.4386 13.665 31.7003 13.665 31.2433 14.1221L8.27452 37.0674L6.11827 34.9229L34.923 6.11817L48.6456 19.8408C48.8683 20.0635 48.9855 20.3565 48.9855 20.6729C48.9855 20.9893 48.8683 21.2822 48.6456 21.5049L41.4386 28.7119H34.4308ZM36.0011 11.0049C35.7784 10.7822 35.4855 10.665 35.1691 10.665C34.8644 10.665 34.5597 10.794 34.337 11.0049C34.1144 11.2275 33.9972 11.5205 33.9972 11.8369C33.9972 12.1533 34.1261 12.4463 34.337 12.669C34.5597 12.8916 34.8526 13.0088 35.1691 13.0088C35.4737 13.0088 35.7784 12.8799 36.0011 12.669C36.2237 12.458 36.3409 12.1533 36.3409 11.8369C36.3409 11.5205 36.2237 11.2158 36.0011 11.0049Z" fill="#CA6E55"/>
</svg>
