<svg width="60" height="62" viewBox="0 0 60 62" fill="none" xmlns="http://www.w3.org/2000/svg">
<path d="M20.2266 46.9258C20.2148 46.8555 20.1914 46.7734 20.1562 46.7031C20.1211 46.6328 20.0859 46.5625 20.0508 46.5039C20.0039 46.4453 19.957 46.375 19.9102 46.3281C19.8633 46.2812 19.793 46.2226 19.7344 46.1875C19.6758 46.1406 19.6055 46.1055 19.5352 46.082C19.4648 46.0469 19.3945 46.0234 19.3125 46.0117C19.1602 45.9766 19.0078 45.9766 18.8555 46.0117C18.7852 46.0234 18.7031 46.0469 18.6328 46.082C18.5625 46.1172 18.4922 46.1523 18.4336 46.1875C18.3633 46.2344 18.3047 46.2812 18.2578 46.3281C18.2109 46.375 18.1523 46.4453 18.1172 46.5039C18.0703 46.5625 18.0352 46.6328 18.0117 46.7031C17.9766 46.7734 17.9648 46.8437 17.9414 46.9258C17.9297 46.9961 17.918 47.0781 17.918 47.1601C17.918 47.2305 17.9297 47.3125 17.9414 47.3945C17.9531 47.4648 17.9766 47.5469 18.0117 47.6172C18.0469 47.6875 18.082 47.7578 18.1172 47.8164C18.1641 47.875 18.2109 47.9453 18.2578 47.9922C18.3047 48.0391 18.375 48.0977 18.4336 48.1328C18.4922 48.1797 18.5625 48.2148 18.6328 48.2383C18.7031 48.2734 18.7734 48.2969 18.8555 48.3086C18.9258 48.3203 19.0078 48.332 19.0781 48.332C19.1484 48.332 19.2305 48.3203 19.3008 48.3086C19.3711 48.2969 19.4531 48.2734 19.5234 48.2383C19.5938 48.2031 19.6641 48.168 19.7227 48.1328C19.793 48.0859 19.8516 48.0391 19.8984 47.9922C19.9453 47.9453 20.0039 47.875 20.0391 47.8164C20.0859 47.7578 20.1211 47.6875 20.1445 47.6172C20.1797 47.5469 20.1914 47.4766 20.2148 47.3945C20.2383 47.3125 20.2383 47.2422 20.2383 47.1601C20.2383 47.0781 20.2383 46.9961 20.2266 46.9258ZM53.9062 47.2891C53.9062 47.2773 53.8945 47.2656 53.8945 47.2539C52.8164 44.7344 50.2852 43.7969 47.2969 44.8164L39.1289 47.0781C38.6602 45.6484 37.4766 44.4297 35.8125 43.8086C35.8008 43.8086 35.7891 43.7969 35.7773 43.7969L26.8008 40.75C26.0508 39.7891 23.7188 37.3164 19.3359 37.3164C16.2773 37.3164 13.5703 39.4141 12.0117 41.7109H1.17188C0.527344 41.7109 0 42.2383 0 42.8828V57.6601C0 58.3047 0.527344 58.832 1.17188 58.832H8.14453C8.78906 58.832 9.31641 58.3047 9.31641 57.6601V56.6523H12.5859C13.2305 56.6523 13.7578 56.125 13.7578 55.4805V55.1406C15.668 55.3047 16.2891 55.668 18.0352 56.6758C19.3828 57.4492 21.4102 58.6211 25.0781 60.2734C25.0898 60.2851 25.1133 60.2851 25.125 60.2969C25.8281 60.5781 27.1992 61.0117 28.8984 61.0117C30.082 61.0117 31.4063 60.8008 32.7773 60.1797L50.8242 53.7226C50.8594 53.7109 50.8828 53.6992 50.918 53.6875C52.6406 52.8672 55.207 50.6289 53.9062 47.2891ZM6.97266 56.4766H2.34375V44.0547H6.97266V56.4766ZM11.4023 54.2969H9.31641V44.0547H11.4141V54.2969H11.4023ZM49.9805 51.5195L31.9453 57.9766C31.9336 57.9766 31.9102 57.9883 31.8867 58C31.875 58.0117 31.8516 58.0117 31.8398 58.0234C29.332 59.1836 26.9414 58.4922 26.0039 58.1172C22.4648 56.5234 20.5781 55.4336 19.1953 54.6367C17.2734 53.5351 16.3594 52.9961 13.7461 52.7851V43.3516C14.8594 41.5351 17.0156 39.6719 19.3359 39.6719C23.3203 39.6719 25.0078 42.2617 25.0781 42.3672C25.2188 42.6016 25.4414 42.7773 25.6992 42.8594L35.0156 46.0234C36.5039 46.5859 37.2891 47.8516 36.9258 49.1289C36.7617 49.7148 36.375 50.207 35.8359 50.5C35.3086 50.793 34.6992 50.8633 34.1133 50.7109L23.6133 47.3828C22.9922 47.1836 22.3359 47.5234 22.1367 48.1445C21.9375 48.7656 22.2773 49.4219 22.8984 49.6211L33.4102 52.9492C33.4219 52.9492 33.4336 52.9609 33.4453 52.9609C33.8672 53.0781 34.2891 53.1367 34.7227 53.1367C35.4961 53.1367 36.2695 52.9375 36.9727 52.5508C38.0508 51.9531 38.8359 50.9687 39.1758 49.7734C39.1992 49.6797 39.2227 49.5859 39.2461 49.4922L48.0469 47.0547C49.3125 46.6211 50.9883 46.4687 51.7266 48.1797C52.5 50.1601 50.4961 51.2617 49.9805 51.5195ZM42.082 16.4102C42.0703 16.3398 42.0469 16.2578 42.0117 16.1875C41.9766 16.1172 41.9531 16.0469 41.9062 15.9883C41.8594 15.918 41.8125 15.8594 41.7656 15.8125C41.7188 15.7656 41.6484 15.707 41.5898 15.6719C41.5312 15.625 41.4609 15.5898 41.3906 15.5664C41.3203 15.5312 41.25 15.5195 41.168 15.4961C41.0156 15.4609 40.8633 15.4609 40.7109 15.4961C40.6406 15.5078 40.5586 15.5312 40.4883 15.5664C40.418 15.6016 40.3477 15.6367 40.2891 15.6719C40.2305 15.7187 40.1602 15.7656 40.1133 15.8125C40.0664 15.8594 40.0078 15.9297 39.9727 15.9883C39.9258 16.0469 39.8906 16.1172 39.8672 16.1875C39.832 16.2578 39.8086 16.3281 39.7969 16.4102C39.7852 16.4805 39.7734 16.5625 39.7734 16.6328C39.7734 16.7031 39.7852 16.7852 39.7969 16.8555C39.8086 16.9258 39.832 17.0078 39.8672 17.0781C39.9023 17.1484 39.9375 17.2187 39.9727 17.2773C40.0195 17.3477 40.0664 17.4062 40.1133 17.4531C40.1602 17.5 40.2305 17.5586 40.2891 17.5937C40.3477 17.6406 40.418 17.6758 40.4883 17.6992C40.5586 17.7344 40.6289 17.7461 40.7109 17.7695C40.793 17.793 40.8633 17.793 40.9453 17.793C41.0156 17.793 41.0977 17.7812 41.1797 17.7695C41.25 17.7578 41.332 17.7344 41.4023 17.6992C41.4727 17.6641 41.543 17.6289 41.6016 17.5937C41.6602 17.5469 41.7305 17.5 41.7773 17.4531C41.8242 17.4062 41.8828 17.3359 41.918 17.2773C41.9648 17.2187 42 17.1484 42.0234 17.0781C42.0586 17.0078 42.082 16.9375 42.0938 16.8555C42.1055 16.7852 42.1172 16.7031 42.1172 16.6328C42.1172 16.5625 42.0938 16.4922 42.082 16.4102ZM58.8281 4.97266H51.8555C51.2109 4.97266 50.6836 5.5 50.6836 6.14453V7.15234H47.4141C46.7695 7.15234 46.2422 7.67969 46.2422 8.32422V8.66406C44.332 8.5 43.7109 8.13672 41.9648 7.12891C40.6172 6.35547 38.5898 5.18359 34.9219 3.53125C34.9102 3.51953 34.8867 3.51953 34.875 3.50781C33.6797 3.03906 30.5625 2.11328 27.2227 3.625L22.5117 5.3125L18.5391 1.33984C18.082 0.882813 17.332 0.882813 16.875 1.33984L3.83203 14.3945C3.41016 14.8164 3.32812 15.543 3.83203 16.0469L26.1328 38.3477C26.4844 38.6992 27.3281 38.8164 27.7852 38.3477L39.7031 26.4297C40.0078 26.4531 40.3359 26.4766 40.6641 26.4766C43.7227 26.4766 46.4297 24.3789 47.9883 22.082H58.8281C59.4727 22.082 60 21.5547 60 20.9102V6.14453C60 5.48828 59.4727 4.97266 58.8281 4.97266ZM17.707 3.82422L20.3789 6.49609C19.582 6.98828 18.668 7.24609 17.707 7.24609C16.7461 7.24609 15.832 6.98828 15.0352 6.49609L17.707 3.82422ZM8.98828 17.8867L6.31641 15.2148L8.98828 12.543C9.48047 13.3398 9.73828 14.2539 9.73828 15.2148C9.73828 16.1758 9.48047 17.1016 8.98828 17.8867ZM26.9531 35.8633L24.2812 33.1914C25.9102 32.1836 27.9961 32.1836 29.625 33.1914L26.9531 35.8633ZM31.3125 31.5039C28.7227 29.6289 25.1836 29.6289 22.5938 31.5039L10.6758 19.5859C11.5898 18.332 12.082 16.8203 12.082 15.2266C12.082 13.6328 11.5898 12.1211 10.6758 10.8672L13.3477 8.19531C14.6016 9.10937 16.1133 9.60156 17.707 9.60156C19.3008 9.60156 20.8125 9.10937 22.0664 8.19531L24.5977 10.7266C24.0469 10.8086 23.5195 10.9844 23.0156 11.2656C22.1719 11.7344 21.5156 12.4375 21.1055 13.2812C19.7812 13.5273 18.5625 14.1719 17.6016 15.1211C15 17.7227 15 21.9648 17.6016 24.5664C18.9023 25.8672 20.6133 26.5234 22.3242 26.5234C24.0352 26.5234 25.7461 25.8672 27.0469 24.5664C27.8906 23.7227 28.4883 22.6797 28.7812 21.543L32.7422 22.8906C32.2969 24.9531 32.7539 27.1211 33.9844 28.832L31.3125 31.5039ZM24.1875 19.9844C24.1992 19.9844 24.2109 19.9961 24.2227 19.9961L26.5664 20.793C26.3906 21.5898 25.9922 22.3281 25.3945 22.9141C23.707 24.6016 20.9531 24.6016 19.2656 22.9141C17.5781 21.2266 17.5781 18.4727 19.2656 16.7852C19.6758 16.375 20.1562 16.0586 20.6836 15.8477C20.8945 17.6406 22.1953 19.2461 24.1875 19.9844ZM35.6836 27.1445C35.2266 26.4062 34.9805 25.5625 34.9336 24.707C35.4961 25.1172 36.1758 25.5156 36.9961 25.8203L35.6836 27.1445ZM46.2539 20.4531C45.1406 22.2695 42.9844 24.1328 40.6641 24.1328C40.2305 24.1328 39.8203 24.0977 39.4453 24.0508C36.9141 23.6875 35.5547 22.2461 35.1094 21.6719C35.0859 21.6367 34.9805 21.5078 34.9688 21.4844C34.8281 21.2383 34.6055 21.0391 34.3242 20.9453L25.0078 17.7812C23.5195 17.2187 22.7344 15.9531 23.0977 14.6758C23.2617 14.0898 23.6484 13.6094 24.1758 13.3047C24.7031 13.0117 25.3125 12.9414 25.8984 13.0937L36.3984 16.4219C37.0195 16.6211 37.6758 16.2812 37.875 15.6602C38.0742 15.0391 37.7344 14.3828 37.1133 14.1836L28.7344 11.5469L28.6641 11.4766L24.3398 7.15234L28.0547 5.81641C28.0664 5.81641 28.0781 5.80469 28.0898 5.80469H28.1016C28.1133 5.79297 28.1367 5.79297 28.1484 5.78125C30.6562 4.62109 33.0469 5.3125 33.9844 5.6875C37.5234 7.28125 39.4102 8.37109 40.793 9.16797C42.7148 10.2695 43.6289 10.8086 46.2422 11.0195V20.4531H46.2539ZM50.6836 19.7383H48.5859V9.49609H50.6836V19.7383ZM57.6562 19.7383H53.0273V7.31641H57.6562V19.7383Z" fill="#CA6E55"/>
</svg>
