<svg width="191" height="175" viewBox="0 0 191 175" fill="none" xmlns="http://www.w3.org/2000/svg">
<mask id="path-1-outside-1" maskUnits="userSpaceOnUse" x="-0.0952759" y="-0.222229" width="191" height="175" fill="black">
<rect fill="white" x="-0.0952759" y="-0.222229" width="191" height="175"/>
<path fill-rule="evenodd" clip-rule="evenodd" d="M104.988 125.141C109.942 132.629 114.168 140.548 118.685 148.323L123.202 156.386C118.976 154.514 118.976 154.37 116.936 150.483C115.625 147.747 113.439 145.299 112.128 142.563C110.817 139.396 104.697 127.589 104.988 125.141ZM103.094 93.0326C103.677 96.7763 113.585 105.559 116.936 108.871C123.202 115.062 133.985 136.66 140.542 145.443C142.727 148.323 144.622 151.203 146.807 154.082C147.973 155.522 148.993 156.818 150.159 158.258C152.053 160.706 152.927 161.713 154.53 161.425C154.384 160.274 145.059 148.467 142.29 143.715C138.502 137.236 135.587 130.901 131.216 124.565C129.03 121.254 117.811 104.983 115.479 102.68L107.902 95.3364C106.737 94.0405 104.988 91.8808 103.094 93.0326ZM48.3066 139.54C49.4723 137.668 56.4664 132.197 58.5064 130.613L70.1632 122.838C69.4347 125.285 62.2948 129.893 60.2549 131.909C59.5263 132.628 58.5064 133.78 57.9235 134.356C56.7578 135.364 56.0293 135.076 55.0093 136.372C53.1151 138.82 51.5122 138.964 48.3066 139.54ZM106.154 120.534C105.134 124.133 111.399 132.485 113.585 135.94C117.228 141.412 119.851 148.323 125.388 155.666C127.428 158.402 125.679 158.402 129.613 159.41C128.885 158.114 128.593 157.97 128.01 156.962C127.573 156.242 127.136 155.234 126.699 154.37C125.825 152.93 124.659 150.771 123.931 149.331C121.016 143.715 108.777 122.406 106.154 120.534ZM109.505 114.198C109.359 116.07 111.837 118.662 113.002 120.246L123.931 138.82C126.408 142.707 128.885 147.171 131.362 151.059C133.402 154.37 137.336 160.706 141.416 160.706C140.687 158.258 134.859 152.21 133.11 149.187C130.779 145.299 128.01 140.836 125.533 137.092C122.911 133.06 113.585 114.054 109.505 114.198ZM30.2384 143.283C34.3184 143.571 39.7097 140.116 42.7696 137.38C45.9752 134.5 49.3266 132.197 52.9693 129.605C55.5921 127.733 52.8236 128.885 58.3607 125.717C60.4006 124.565 61.8577 123.269 63.8977 121.974C67.249 120.102 72.3489 117.078 72.9317 113.335C70.3089 116.07 65.0634 118.086 61.8577 120.246C52.3865 126.581 39.1268 137.668 31.2584 142.132C29.3642 143.283 30.6756 142.419 30.2384 143.283ZM21.9329 143.571C25.7214 144.147 27.1785 142.563 30.2384 140.692C39.2725 135.508 42.3325 132.341 49.9094 127.013C54.135 123.989 58.3607 120.246 63.0234 117.798C65.6462 116.358 67.5404 115.062 70.0175 113.335C73.806 110.887 73.5146 111.751 74.9717 107.719C71.6203 108.583 70.7461 110.167 68.269 112.039C67.1033 112.903 65.6462 113.335 64.6262 114.054C63.6062 114.774 63.0234 115.782 61.8577 116.646L51.5122 123.413C46.7038 127.877 46.9952 126.869 41.4582 130.037L31.5498 136.804C29.947 137.812 29.6556 138.676 28.3442 139.396C25.43 140.98 24.7014 141.556 21.9329 143.571ZM123.931 103.832C130.925 105.271 139.667 113.191 143.893 115.926C144.913 116.502 149.576 119.958 150.159 120.678C145.641 120.822 144.039 117.51 136.753 112.615C132.382 109.735 126.845 107.863 123.931 103.832ZM13.1903 142.275C17.2702 143.139 20.6215 142.419 23.9729 140.116C25.5757 138.964 27.1785 138.532 28.4899 137.524C29.8013 136.66 30.967 135.508 32.2784 134.644C35.0469 132.916 37.524 130.757 40.2925 129.029C43.061 127.301 45.8295 125.717 48.598 123.845C53.9893 120.246 59.3806 116.358 64.4805 112.615C66.6662 111.031 70.3089 108.151 72.4946 106.999C75.846 105.127 77.7402 103.688 79.1973 100.088C77.5945 101.096 76.5745 102.104 75.1174 102.968L62.5863 110.743C57.3407 114.63 52.6779 119.238 47.578 122.838C41.3125 127.301 33.4441 132.341 26.7414 136.228L13.1903 142.275ZM116.208 94.0405C119.122 94.4725 127.282 98.3601 130.05 100.088L143.456 106.999C147.973 109.015 165.458 120.246 167.207 123.413C159.63 122.406 159.193 120.678 153.51 117.078C149.576 114.63 145.641 111.175 141.707 108.727C132.673 103.112 131.07 102.536 122.473 98.0721C118.248 95.7684 119.414 98.0721 116.208 94.0405ZM66.9576 165.025L69.7261 161.282C70.3089 160.13 71.4746 157.97 71.7661 156.818C72.9317 153.074 73.806 150.771 74.3889 146.739C76.7202 130.613 82.8401 113.91 91.437 99.9439C95.2255 93.8966 92.1656 91.7368 95.9541 91.7368C96.974 94.9044 94.6427 111.031 93.7684 114.918C90.8542 127.157 85.3172 140.98 79.343 152.066C77.3031 155.81 76.4288 158.258 74.2431 159.986C72.9317 160.994 72.0575 162.289 71.0375 163.297C68.9975 165.313 69.8718 164.881 68.4147 166.753C67.3947 166.465 67.249 166.177 66.5205 165.745L65.6462 167.761C72.786 166.465 84.0058 157.538 88.2314 151.347C91.1456 147.027 94.2055 141.268 96.2455 136.516C99.1597 129.461 101.637 119.958 102.074 111.895C102.365 105.559 96.974 89.865 95.3712 88.5691C93.477 89.865 94.6427 90.2969 91.7285 91.8808C89.1057 93.3206 79.9259 107.719 78.0316 111.031C74.2431 117.654 76.2831 113.479 73.6603 119.814C64.4805 141.124 71.1832 156.386 66.9576 165.025ZM114.605 90.8729C115.334 92.8887 120.725 93.8966 122.911 94.7605L146.661 106.711C154.384 110.455 161.087 115.926 167.79 121.11C170.558 123.125 171.141 125.573 175.512 124.709C172.161 123.701 165.167 116.646 162.544 114.054C159.047 110.599 153.218 106.711 148.701 104.119C147.39 103.4 146.079 102.824 144.622 101.96C140.25 99.512 118.685 92.0248 114.605 90.8729ZM98.7226 88.2811C100.034 96.7763 116.208 112.615 122.911 123.269C123.931 124.997 124.951 126.869 126.116 128.309C127.573 130.181 128.156 131.765 129.613 133.636C133.839 139.108 135.879 143.859 139.376 148.755C143.747 154.802 149.867 163.585 158.027 163.441C157.007 161.713 155.404 160.418 154.384 158.69C153.364 156.962 152.636 154.802 151.47 153.218C149.284 150.051 147.099 146.595 144.767 143.283C143.456 141.412 142.727 139.684 141.562 137.668C140.396 135.94 139.376 134.5 138.21 132.628C134.713 127.589 128.01 111.895 124.513 108.295C123.785 107.575 123.348 107.287 122.473 106.423C121.891 105.703 121.308 104.551 120.579 103.832C119.851 103.112 115.188 99.656 113.731 97.9281C111.982 95.6244 111.254 95.9123 109.214 94.0405C105.571 91.0169 103.968 89.1451 98.7226 88.2811ZM17.2702 138.82C19.893 138.676 34.3184 129.461 37.6697 127.589C39.2725 126.725 40.4382 125.285 42.3325 124.277C49.7637 120.246 58.6521 110.599 64.7719 107.143C71.4746 103.544 88.9599 92.3127 91.2913 86.4093C86.7743 85.5454 81.9658 83.9616 77.1574 84.9695C69.289 86.6973 60.4006 87.7052 53.2608 92.7447C45.3924 98.0721 39.5639 105.127 34.1726 112.615C33.007 114.198 32.2784 116.07 31.1127 117.51C29.8013 119.094 28.927 120.534 27.7614 122.118L17.2702 134.932C19.1644 134.212 23.6815 130.757 25.43 129.317C27.7614 127.301 29.3642 124.709 31.4041 122.118C33.7355 119.094 37.6697 113.91 40.8753 111.319C44.3724 108.439 44.3724 106.999 52.0951 102.392C53.8436 101.384 54.5722 101.096 56.175 99.7999C59.5263 97.2082 66.229 94.1845 70.1632 93.7526C72.2032 93.6086 81.5287 93.4646 83.1315 93.7526C83.1315 96.4883 78.7602 96.2003 73.5146 97.9281L63.8977 102.392C57.6321 106.567 43.061 118.518 37.3783 124.565C36.0669 126.005 35.1926 125.861 33.7355 127.445C31.5498 129.749 31.2584 128.741 29.3642 130.037L17.2702 138.82ZM100.034 85.2575C104.405 81.8018 122.473 80.6499 128.302 80.9379C141.124 81.5138 143.456 84.1056 151.616 89.721C154.093 91.4488 154.093 91.5928 156.133 93.6086C157.444 94.9044 158.755 95.6244 160.358 97.3522C167.79 105.271 168.81 103.256 175.075 114.63C176.386 117.078 181.195 121.83 180.612 124.133C179.446 124.565 179.884 124.421 178.281 123.557C176.095 122.262 174.784 121.974 172.015 120.102C169.392 118.23 167.207 116.07 165.167 113.766C158.464 106.423 142.144 98.0721 131.945 95.0484C128.739 94.0405 125.242 92.8887 122.182 91.5928C119.996 90.7289 114.314 89.577 113.294 87.8492C117.228 87.9932 119.996 89.1451 123.639 89.721C128.448 90.4409 129.03 90.4409 133.839 91.8808C141.707 94.3285 144.184 94.3285 151.47 98.792C156.57 101.816 170.704 114.054 174.055 119.238C174.492 119.814 174.929 120.534 175.512 120.966C177.406 122.262 177.989 120.966 177.989 120.966C177.406 119.238 172.889 114.342 171.432 112.471C167.935 107.863 153.656 94.6165 148.701 91.1608C143.31 87.4172 132.382 84.8255 125.533 84.6815C119.996 84.5375 116.791 85.2575 111.545 85.8334C109.214 86.1214 106.737 85.4014 104.988 85.8334C103.24 86.2654 104.988 86.6973 102.511 86.2654C101.637 86.1214 100.763 85.6894 100.034 85.2575ZM55.3007 69.1311C76.5745 70.139 79.7802 72.5868 94.497 85.5454C89.9799 84.6815 85.1715 82.8097 80.5087 82.9537C74.5346 83.2417 59.9635 86.8413 54.7179 89.865C47.1409 94.3285 49.0352 95.9123 45.101 94.9044C38.8354 93.1766 30.6756 85.8334 26.7414 80.6499C18.873 70.139 21.6415 70.571 18.7273 64.0917C17.9987 62.5078 16.833 60.4921 16.5416 58.7642C22.2243 60.4921 28.0528 63.2278 34.0269 65.0996C40.1468 67.1154 45.9752 68.8432 52.0951 70.715C60.692 73.3067 72.0575 74.6026 79.7802 79.2101C83.7144 81.5138 85.7543 83.3857 87.5028 82.5217C86.92 77.0503 69.7261 72.5868 64.3348 71.2909C61.5663 70.715 57.9235 70.427 55.3007 69.1311ZM97.1198 83.3857C99.1597 83.5296 107.465 81.3699 109.942 80.6499C113.294 79.786 121.016 79.4981 124.805 79.3541C129.905 79.3541 134.567 79.642 139.376 80.7939C144.039 81.9458 146.079 84.1056 150.013 86.4093C152.781 88.1372 152.053 87.5612 155.404 86.8413C157.59 86.2654 159.63 85.9774 161.524 85.1135C164.875 83.5296 168.664 81.3699 171.141 78.9221C176.241 74.1706 181.778 65.6755 182.798 58.4763C179.592 60.3481 183.089 61.212 174.638 63.9477C170.412 65.2436 166.77 64.5236 162.69 63.6597C151.616 61.356 152.344 58.4763 139.667 61.4999C132.673 63.2278 126.699 66.8274 120.288 69.8511C116.499 71.7229 106.008 81.0819 102.074 78.4902C102.802 76.1864 104.26 77.6263 106.591 76.0424L119.559 66.6834C124.222 63.2278 133.985 59.3402 139.522 57.1804C147.681 53.8687 155.55 56.3165 163.418 59.3402C168.955 61.356 176.678 61.356 180.321 56.4605C180.904 55.5966 182.506 52.7169 182.652 51.8529C181.195 52.8608 179.446 53.1488 177.698 53.8687C174.055 55.3086 178.718 54.5887 171.724 55.7405C168.081 56.3165 163.273 53.7248 159.047 53.1488C147.244 51.709 131.362 55.4526 121.891 62.3639C118.831 64.6676 116.062 66.5394 112.857 68.6992C108.194 72.0108 98.5769 77.9142 97.1198 83.3857ZM95.0798 83.3857C96.3912 81.0819 97.8483 77.7702 99.1597 75.3225C102.948 67.8353 95.2255 51.709 93.3313 46.0936C92.457 43.6458 92.1656 44.0778 91.1456 42.206C90.1256 40.4781 82.9858 23.056 82.403 20.3202C81.6744 17.8725 79.9259 12.833 78.1773 11.3932C79.7802 20.7522 87.3571 34.2868 89.5428 42.3499C91.7285 50.7011 91.8742 45.6616 93.9141 59.0522C94.3512 61.9319 94.6427 65.3875 94.9341 68.4112C95.2255 71.0029 96.6826 76.0424 94.9341 78.0582C92.0199 78.2022 92.7484 72.2988 92.3113 70.139C91.7284 67.2593 90.9999 64.0917 90.2713 61.356L80.363 27.5195C79.0516 23.4879 77.1574 13.409 74.826 10.8172C74.826 14.4169 75.2631 18.3045 75.2631 22.1921C75.2631 40.9101 71.6203 50.2691 79.343 69.1311C81.9658 75.4665 81.2373 71.4349 88.5228 77.9142C89.8342 78.9221 93.9141 82.9537 95.0798 83.3857ZM77.5945 70.571C67.6862 68.5552 74.826 68.8432 61.1292 67.8353C56.0293 67.4033 49.0352 66.6834 44.081 65.5315C37.9611 64.0917 41.6039 64.9556 36.7954 63.2278L22.0786 58.6202C19.7473 57.9003 17.2702 55.7405 15.0845 55.7405C12.7531 57.4684 14.2102 59.4842 15.5216 61.7879C19.0187 67.6913 17.5616 76.4744 33.2984 90.009C35.7755 92.0247 42.7696 96.0563 45.9752 96.3443C45.101 97.7841 41.8953 100.52 40.5839 101.96C38.8354 103.688 37.524 105.847 35.9212 107.863C31.8413 113.191 26.45 121.542 22.6615 126.149C21.0587 128.165 19.4558 129.749 17.7073 131.765C11.0046 139.972 7.50754 137.38 5.90472 140.98C12.4617 147.027 31.5498 145.011 39.8554 143.427C52.9693 140.98 57.4864 137.812 67.8319 132.341C67.8319 135.22 67.1033 138.82 66.9576 141.844C66.6662 145.155 66.9576 149.331 66.8119 152.786C66.6662 167.185 63.3148 165.313 62.8777 170.209C69.8718 170.641 83.1315 160.706 87.3571 155.09C92.1656 148.755 96.974 140.548 99.3054 132.916C99.4511 132.341 99.7425 131.477 99.8883 131.045L101.054 129.029C101.928 137.38 108.777 147.027 114.896 152.786C116.062 153.938 116.936 154.514 118.102 155.666C119.996 157.25 120.434 156.962 122.328 158.114C125.679 160.13 127.428 160.994 131.362 161.857C132.236 162.001 133.256 162.289 134.13 162.289C135.879 162.433 135.733 162.001 136.607 162.001C138.647 162.001 137.045 162.577 138.793 162.577C139.959 162.577 139.376 162.001 141.416 162.145C145.787 162.433 153.801 165.457 158.464 167.041C160.358 167.617 160.65 167.329 161.524 166.897C162.107 165.169 159.484 162.001 158.318 160.562C155.987 158.114 155.55 157.25 154.093 154.226L145.933 141.7C142.727 137.236 137.19 127.877 134.422 122.55C133.839 121.542 131.508 116.07 131.07 115.782C132.382 116.646 133.693 118.086 135.296 119.094C136.899 119.958 139.667 120.534 141.416 120.822C143.602 121.254 146.079 121.686 148.264 121.974C150.741 122.262 153.656 121.974 155.696 122.406C158.027 122.838 160.067 123.125 162.398 123.557C164.584 123.845 166.478 124.853 168.518 125.285C172.598 126.149 177.844 127.589 181.486 124.997C182.652 120.966 178.864 117.51 176.824 114.342C174.492 110.599 169.684 103.544 166.187 100.808L153.947 89.0011C155.696 87.7052 158.61 87.8492 160.795 86.9853C162.981 86.1214 164.584 84.8255 166.478 83.9616C173.181 80.6499 179.884 71.1469 182.943 64.3796C184.255 61.4999 186.586 52.7169 186.003 49.8372C183.963 48.2533 183.381 48.6853 181.341 50.1251C179.738 51.133 177.989 51.565 176.386 52.5729C172.307 54.8766 168.81 54.1567 164.73 52.7169C158.755 50.5571 151.47 51.565 145.204 51.9969C142.29 52.2849 141.416 52.7169 138.793 53.2928C129.03 55.3086 118.831 62.6518 110.234 68.2672C108.631 69.4191 107.174 69.7071 105.717 71.1469C104.697 72.1548 102.948 73.8826 101.491 74.3146C101.491 70.427 101.928 66.9714 101.054 63.0838L100.18 58.9082C99.4511 55.4526 96.5369 50.1251 95.0798 45.9496C94.2055 43.3578 90.1256 36.4466 89.2514 34.2868C88.6685 32.703 88.5228 31.5511 87.6485 29.8233L82.8401 17.1526C81.0916 9.66536 78.323 8.94544 77.4488 7.64958C76.8659 6.64168 77.5945 6.92965 76.4288 5.77777C71.1832 6.78567 73.0775 12.1131 73.3689 20.0323C73.806 33.2789 71.6203 39.6142 73.5146 55.5966C74.2431 61.212 76.7202 65.5315 77.5945 70.571Z"/>
</mask>
<path fill-rule="evenodd" clip-rule="evenodd" d="M104.988 125.141C109.942 132.629 114.168 140.548 118.685 148.323L123.202 156.386C118.976 154.514 118.976 154.37 116.936 150.483C115.625 147.747 113.439 145.299 112.128 142.563C110.817 139.396 104.697 127.589 104.988 125.141ZM103.094 93.0326C103.677 96.7763 113.585 105.559 116.936 108.871C123.202 115.062 133.985 136.66 140.542 145.443C142.727 148.323 144.622 151.203 146.807 154.082C147.973 155.522 148.993 156.818 150.159 158.258C152.053 160.706 152.927 161.713 154.53 161.425C154.384 160.274 145.059 148.467 142.29 143.715C138.502 137.236 135.587 130.901 131.216 124.565C129.03 121.254 117.811 104.983 115.479 102.68L107.902 95.3364C106.737 94.0405 104.988 91.8808 103.094 93.0326ZM48.3066 139.54C49.4723 137.668 56.4664 132.197 58.5064 130.613L70.1632 122.838C69.4347 125.285 62.2948 129.893 60.2549 131.909C59.5263 132.628 58.5064 133.78 57.9235 134.356C56.7578 135.364 56.0293 135.076 55.0093 136.372C53.1151 138.82 51.5122 138.964 48.3066 139.54ZM106.154 120.534C105.134 124.133 111.399 132.485 113.585 135.94C117.228 141.412 119.851 148.323 125.388 155.666C127.428 158.402 125.679 158.402 129.613 159.41C128.885 158.114 128.593 157.97 128.01 156.962C127.573 156.242 127.136 155.234 126.699 154.37C125.825 152.93 124.659 150.771 123.931 149.331C121.016 143.715 108.777 122.406 106.154 120.534ZM109.505 114.198C109.359 116.07 111.837 118.662 113.002 120.246L123.931 138.82C126.408 142.707 128.885 147.171 131.362 151.059C133.402 154.37 137.336 160.706 141.416 160.706C140.687 158.258 134.859 152.21 133.11 149.187C130.779 145.299 128.01 140.836 125.533 137.092C122.911 133.06 113.585 114.054 109.505 114.198ZM30.2384 143.283C34.3184 143.571 39.7097 140.116 42.7696 137.38C45.9752 134.5 49.3266 132.197 52.9693 129.605C55.5921 127.733 52.8236 128.885 58.3607 125.717C60.4006 124.565 61.8577 123.269 63.8977 121.974C67.249 120.102 72.3489 117.078 72.9317 113.335C70.3089 116.07 65.0634 118.086 61.8577 120.246C52.3865 126.581 39.1268 137.668 31.2584 142.132C29.3642 143.283 30.6756 142.419 30.2384 143.283ZM21.9329 143.571C25.7214 144.147 27.1785 142.563 30.2384 140.692C39.2725 135.508 42.3325 132.341 49.9094 127.013C54.135 123.989 58.3607 120.246 63.0234 117.798C65.6462 116.358 67.5404 115.062 70.0175 113.335C73.806 110.887 73.5146 111.751 74.9717 107.719C71.6203 108.583 70.7461 110.167 68.269 112.039C67.1033 112.903 65.6462 113.335 64.6262 114.054C63.6062 114.774 63.0234 115.782 61.8577 116.646L51.5122 123.413C46.7038 127.877 46.9952 126.869 41.4582 130.037L31.5498 136.804C29.947 137.812 29.6556 138.676 28.3442 139.396C25.43 140.98 24.7014 141.556 21.9329 143.571ZM123.931 103.832C130.925 105.271 139.667 113.191 143.893 115.926C144.913 116.502 149.576 119.958 150.159 120.678C145.641 120.822 144.039 117.51 136.753 112.615C132.382 109.735 126.845 107.863 123.931 103.832ZM13.1903 142.275C17.2702 143.139 20.6215 142.419 23.9729 140.116C25.5757 138.964 27.1785 138.532 28.4899 137.524C29.8013 136.66 30.967 135.508 32.2784 134.644C35.0469 132.916 37.524 130.757 40.2925 129.029C43.061 127.301 45.8295 125.717 48.598 123.845C53.9893 120.246 59.3806 116.358 64.4805 112.615C66.6662 111.031 70.3089 108.151 72.4946 106.999C75.846 105.127 77.7402 103.688 79.1973 100.088C77.5945 101.096 76.5745 102.104 75.1174 102.968L62.5863 110.743C57.3407 114.63 52.6779 119.238 47.578 122.838C41.3125 127.301 33.4441 132.341 26.7414 136.228L13.1903 142.275ZM116.208 94.0405C119.122 94.4725 127.282 98.3601 130.05 100.088L143.456 106.999C147.973 109.015 165.458 120.246 167.207 123.413C159.63 122.406 159.193 120.678 153.51 117.078C149.576 114.63 145.641 111.175 141.707 108.727C132.673 103.112 131.07 102.536 122.473 98.0721C118.248 95.7684 119.414 98.0721 116.208 94.0405ZM66.9576 165.025L69.7261 161.282C70.3089 160.13 71.4746 157.97 71.7661 156.818C72.9317 153.074 73.806 150.771 74.3889 146.739C76.7202 130.613 82.8401 113.91 91.437 99.9439C95.2255 93.8966 92.1656 91.7368 95.9541 91.7368C96.974 94.9044 94.6427 111.031 93.7684 114.918C90.8542 127.157 85.3172 140.98 79.343 152.066C77.3031 155.81 76.4288 158.258 74.2431 159.986C72.9317 160.994 72.0575 162.289 71.0375 163.297C68.9975 165.313 69.8718 164.881 68.4147 166.753C67.3947 166.465 67.249 166.177 66.5205 165.745L65.6462 167.761C72.786 166.465 84.0058 157.538 88.2314 151.347C91.1456 147.027 94.2055 141.268 96.2455 136.516C99.1597 129.461 101.637 119.958 102.074 111.895C102.365 105.559 96.974 89.865 95.3712 88.5691C93.477 89.865 94.6427 90.2969 91.7285 91.8808C89.1057 93.3206 79.9259 107.719 78.0316 111.031C74.2431 117.654 76.2831 113.479 73.6603 119.814C64.4805 141.124 71.1832 156.386 66.9576 165.025ZM114.605 90.8729C115.334 92.8887 120.725 93.8966 122.911 94.7605L146.661 106.711C154.384 110.455 161.087 115.926 167.79 121.11C170.558 123.125 171.141 125.573 175.512 124.709C172.161 123.701 165.167 116.646 162.544 114.054C159.047 110.599 153.218 106.711 148.701 104.119C147.39 103.4 146.079 102.824 144.622 101.96C140.25 99.512 118.685 92.0248 114.605 90.8729ZM98.7226 88.2811C100.034 96.7763 116.208 112.615 122.911 123.269C123.931 124.997 124.951 126.869 126.116 128.309C127.573 130.181 128.156 131.765 129.613 133.636C133.839 139.108 135.879 143.859 139.376 148.755C143.747 154.802 149.867 163.585 158.027 163.441C157.007 161.713 155.404 160.418 154.384 158.69C153.364 156.962 152.636 154.802 151.47 153.218C149.284 150.051 147.099 146.595 144.767 143.283C143.456 141.412 142.727 139.684 141.562 137.668C140.396 135.94 139.376 134.5 138.21 132.628C134.713 127.589 128.01 111.895 124.513 108.295C123.785 107.575 123.348 107.287 122.473 106.423C121.891 105.703 121.308 104.551 120.579 103.832C119.851 103.112 115.188 99.656 113.731 97.9281C111.982 95.6244 111.254 95.9123 109.214 94.0405C105.571 91.0169 103.968 89.1451 98.7226 88.2811ZM17.2702 138.82C19.893 138.676 34.3184 129.461 37.6697 127.589C39.2725 126.725 40.4382 125.285 42.3325 124.277C49.7637 120.246 58.6521 110.599 64.7719 107.143C71.4746 103.544 88.9599 92.3127 91.2913 86.4093C86.7743 85.5454 81.9658 83.9616 77.1574 84.9695C69.289 86.6973 60.4006 87.7052 53.2608 92.7447C45.3924 98.0721 39.5639 105.127 34.1726 112.615C33.007 114.198 32.2784 116.07 31.1127 117.51C29.8013 119.094 28.927 120.534 27.7614 122.118L17.2702 134.932C19.1644 134.212 23.6815 130.757 25.43 129.317C27.7614 127.301 29.3642 124.709 31.4041 122.118C33.7355 119.094 37.6697 113.91 40.8753 111.319C44.3724 108.439 44.3724 106.999 52.0951 102.392C53.8436 101.384 54.5722 101.096 56.175 99.7999C59.5263 97.2082 66.229 94.1845 70.1632 93.7526C72.2032 93.6086 81.5287 93.4646 83.1315 93.7526C83.1315 96.4883 78.7602 96.2003 73.5146 97.9281L63.8977 102.392C57.6321 106.567 43.061 118.518 37.3783 124.565C36.0669 126.005 35.1926 125.861 33.7355 127.445C31.5498 129.749 31.2584 128.741 29.3642 130.037L17.2702 138.82ZM100.034 85.2575C104.405 81.8018 122.473 80.6499 128.302 80.9379C141.124 81.5138 143.456 84.1056 151.616 89.721C154.093 91.4488 154.093 91.5928 156.133 93.6086C157.444 94.9044 158.755 95.6244 160.358 97.3522C167.79 105.271 168.81 103.256 175.075 114.63C176.386 117.078 181.195 121.83 180.612 124.133C179.446 124.565 179.884 124.421 178.281 123.557C176.095 122.262 174.784 121.974 172.015 120.102C169.392 118.23 167.207 116.07 165.167 113.766C158.464 106.423 142.144 98.0721 131.945 95.0484C128.739 94.0405 125.242 92.8887 122.182 91.5928C119.996 90.7289 114.314 89.577 113.294 87.8492C117.228 87.9932 119.996 89.1451 123.639 89.721C128.448 90.4409 129.03 90.4409 133.839 91.8808C141.707 94.3285 144.184 94.3285 151.47 98.792C156.57 101.816 170.704 114.054 174.055 119.238C174.492 119.814 174.929 120.534 175.512 120.966C177.406 122.262 177.989 120.966 177.989 120.966C177.406 119.238 172.889 114.342 171.432 112.471C167.935 107.863 153.656 94.6165 148.701 91.1608C143.31 87.4172 132.382 84.8255 125.533 84.6815C119.996 84.5375 116.791 85.2575 111.545 85.8334C109.214 86.1214 106.737 85.4014 104.988 85.8334C103.24 86.2654 104.988 86.6973 102.511 86.2654C101.637 86.1214 100.763 85.6894 100.034 85.2575ZM55.3007 69.1311C76.5745 70.139 79.7802 72.5868 94.497 85.5454C89.9799 84.6815 85.1715 82.8097 80.5087 82.9537C74.5346 83.2417 59.9635 86.8413 54.7179 89.865C47.1409 94.3285 49.0352 95.9123 45.101 94.9044C38.8354 93.1766 30.6756 85.8334 26.7414 80.6499C18.873 70.139 21.6415 70.571 18.7273 64.0917C17.9987 62.5078 16.833 60.4921 16.5416 58.7642C22.2243 60.4921 28.0528 63.2278 34.0269 65.0996C40.1468 67.1154 45.9752 68.8432 52.0951 70.715C60.692 73.3067 72.0575 74.6026 79.7802 79.2101C83.7144 81.5138 85.7543 83.3857 87.5028 82.5217C86.92 77.0503 69.7261 72.5868 64.3348 71.2909C61.5663 70.715 57.9235 70.427 55.3007 69.1311ZM97.1198 83.3857C99.1597 83.5296 107.465 81.3699 109.942 80.6499C113.294 79.786 121.016 79.4981 124.805 79.3541C129.905 79.3541 134.567 79.642 139.376 80.7939C144.039 81.9458 146.079 84.1056 150.013 86.4093C152.781 88.1372 152.053 87.5612 155.404 86.8413C157.59 86.2654 159.63 85.9774 161.524 85.1135C164.875 83.5296 168.664 81.3699 171.141 78.9221C176.241 74.1706 181.778 65.6755 182.798 58.4763C179.592 60.3481 183.089 61.212 174.638 63.9477C170.412 65.2436 166.77 64.5236 162.69 63.6597C151.616 61.356 152.344 58.4763 139.667 61.4999C132.673 63.2278 126.699 66.8274 120.288 69.8511C116.499 71.7229 106.008 81.0819 102.074 78.4902C102.802 76.1864 104.26 77.6263 106.591 76.0424L119.559 66.6834C124.222 63.2278 133.985 59.3402 139.522 57.1804C147.681 53.8687 155.55 56.3165 163.418 59.3402C168.955 61.356 176.678 61.356 180.321 56.4605C180.904 55.5966 182.506 52.7169 182.652 51.8529C181.195 52.8608 179.446 53.1488 177.698 53.8687C174.055 55.3086 178.718 54.5887 171.724 55.7405C168.081 56.3165 163.273 53.7248 159.047 53.1488C147.244 51.709 131.362 55.4526 121.891 62.3639C118.831 64.6676 116.062 66.5394 112.857 68.6992C108.194 72.0108 98.5769 77.9142 97.1198 83.3857ZM95.0798 83.3857C96.3912 81.0819 97.8483 77.7702 99.1597 75.3225C102.948 67.8353 95.2255 51.709 93.3313 46.0936C92.457 43.6458 92.1656 44.0778 91.1456 42.206C90.1256 40.4781 82.9858 23.056 82.403 20.3202C81.6744 17.8725 79.9259 12.833 78.1773 11.3932C79.7802 20.7522 87.3571 34.2868 89.5428 42.3499C91.7285 50.7011 91.8742 45.6616 93.9141 59.0522C94.3512 61.9319 94.6427 65.3875 94.9341 68.4112C95.2255 71.0029 96.6826 76.0424 94.9341 78.0582C92.0199 78.2022 92.7484 72.2988 92.3113 70.139C91.7284 67.2593 90.9999 64.0917 90.2713 61.356L80.363 27.5195C79.0516 23.4879 77.1574 13.409 74.826 10.8172C74.826 14.4169 75.2631 18.3045 75.2631 22.1921C75.2631 40.9101 71.6203 50.2691 79.343 69.1311C81.9658 75.4665 81.2373 71.4349 88.5228 77.9142C89.8342 78.9221 93.9141 82.9537 95.0798 83.3857ZM77.5945 70.571C67.6862 68.5552 74.826 68.8432 61.1292 67.8353C56.0293 67.4033 49.0352 66.6834 44.081 65.5315C37.9611 64.0917 41.6039 64.9556 36.7954 63.2278L22.0786 58.6202C19.7473 57.9003 17.2702 55.7405 15.0845 55.7405C12.7531 57.4684 14.2102 59.4842 15.5216 61.7879C19.0187 67.6913 17.5616 76.4744 33.2984 90.009C35.7755 92.0247 42.7696 96.0563 45.9752 96.3443C45.101 97.7841 41.8953 100.52 40.5839 101.96C38.8354 103.688 37.524 105.847 35.9212 107.863C31.8413 113.191 26.45 121.542 22.6615 126.149C21.0587 128.165 19.4558 129.749 17.7073 131.765C11.0046 139.972 7.50754 137.38 5.90472 140.98C12.4617 147.027 31.5498 145.011 39.8554 143.427C52.9693 140.98 57.4864 137.812 67.8319 132.341C67.8319 135.22 67.1033 138.82 66.9576 141.844C66.6662 145.155 66.9576 149.331 66.8119 152.786C66.6662 167.185 63.3148 165.313 62.8777 170.209C69.8718 170.641 83.1315 160.706 87.3571 155.09C92.1656 148.755 96.974 140.548 99.3054 132.916C99.4511 132.341 99.7425 131.477 99.8883 131.045L101.054 129.029C101.928 137.38 108.777 147.027 114.896 152.786C116.062 153.938 116.936 154.514 118.102 155.666C119.996 157.25 120.434 156.962 122.328 158.114C125.679 160.13 127.428 160.994 131.362 161.857C132.236 162.001 133.256 162.289 134.13 162.289C135.879 162.433 135.733 162.001 136.607 162.001C138.647 162.001 137.045 162.577 138.793 162.577C139.959 162.577 139.376 162.001 141.416 162.145C145.787 162.433 153.801 165.457 158.464 167.041C160.358 167.617 160.65 167.329 161.524 166.897C162.107 165.169 159.484 162.001 158.318 160.562C155.987 158.114 155.55 157.25 154.093 154.226L145.933 141.7C142.727 137.236 137.19 127.877 134.422 122.55C133.839 121.542 131.508 116.07 131.07 115.782C132.382 116.646 133.693 118.086 135.296 119.094C136.899 119.958 139.667 120.534 141.416 120.822C143.602 121.254 146.079 121.686 148.264 121.974C150.741 122.262 153.656 121.974 155.696 122.406C158.027 122.838 160.067 123.125 162.398 123.557C164.584 123.845 166.478 124.853 168.518 125.285C172.598 126.149 177.844 127.589 181.486 124.997C182.652 120.966 178.864 117.51 176.824 114.342C174.492 110.599 169.684 103.544 166.187 100.808L153.947 89.0011C155.696 87.7052 158.61 87.8492 160.795 86.9853C162.981 86.1214 164.584 84.8255 166.478 83.9616C173.181 80.6499 179.884 71.1469 182.943 64.3796C184.255 61.4999 186.586 52.7169 186.003 49.8372C183.963 48.2533 183.381 48.6853 181.341 50.1251C179.738 51.133 177.989 51.565 176.386 52.5729C172.307 54.8766 168.81 54.1567 164.73 52.7169C158.755 50.5571 151.47 51.565 145.204 51.9969C142.29 52.2849 141.416 52.7169 138.793 53.2928C129.03 55.3086 118.831 62.6518 110.234 68.2672C108.631 69.4191 107.174 69.7071 105.717 71.1469C104.697 72.1548 102.948 73.8826 101.491 74.3146C101.491 70.427 101.928 66.9714 101.054 63.0838L100.18 58.9082C99.4511 55.4526 96.5369 50.1251 95.0798 45.9496C94.2055 43.3578 90.1256 36.4466 89.2514 34.2868C88.6685 32.703 88.5228 31.5511 87.6485 29.8233L82.8401 17.1526C81.0916 9.66536 78.323 8.94544 77.4488 7.64958C76.8659 6.64168 77.5945 6.92965 76.4288 5.77777C71.1832 6.78567 73.0775 12.1131 73.3689 20.0323C73.806 33.2789 71.6203 39.6142 73.5146 55.5966C74.2431 61.212 76.7202 65.5315 77.5945 70.571Z" fill="#A1817F"/>
<path fill-rule="evenodd" clip-rule="evenodd" d="M104.988 125.141C109.942 132.629 114.168 140.548 118.685 148.323L123.202 156.386C118.976 154.514 118.976 154.37 116.936 150.483C115.625 147.747 113.439 145.299 112.128 142.563C110.817 139.396 104.697 127.589 104.988 125.141ZM103.094 93.0326C103.677 96.7763 113.585 105.559 116.936 108.871C123.202 115.062 133.985 136.66 140.542 145.443C142.727 148.323 144.622 151.203 146.807 154.082C147.973 155.522 148.993 156.818 150.159 158.258C152.053 160.706 152.927 161.713 154.53 161.425C154.384 160.274 145.059 148.467 142.29 143.715C138.502 137.236 135.587 130.901 131.216 124.565C129.03 121.254 117.811 104.983 115.479 102.68L107.902 95.3364C106.737 94.0405 104.988 91.8808 103.094 93.0326ZM48.3066 139.54C49.4723 137.668 56.4664 132.197 58.5064 130.613L70.1632 122.838C69.4347 125.285 62.2948 129.893 60.2549 131.909C59.5263 132.628 58.5064 133.78 57.9235 134.356C56.7578 135.364 56.0293 135.076 55.0093 136.372C53.1151 138.82 51.5122 138.964 48.3066 139.54ZM106.154 120.534C105.134 124.133 111.399 132.485 113.585 135.94C117.228 141.412 119.851 148.323 125.388 155.666C127.428 158.402 125.679 158.402 129.613 159.41C128.885 158.114 128.593 157.97 128.01 156.962C127.573 156.242 127.136 155.234 126.699 154.37C125.825 152.93 124.659 150.771 123.931 149.331C121.016 143.715 108.777 122.406 106.154 120.534ZM109.505 114.198C109.359 116.07 111.837 118.662 113.002 120.246L123.931 138.82C126.408 142.707 128.885 147.171 131.362 151.059C133.402 154.37 137.336 160.706 141.416 160.706C140.687 158.258 134.859 152.21 133.11 149.187C130.779 145.299 128.01 140.836 125.533 137.092C122.911 133.06 113.585 114.054 109.505 114.198ZM30.2384 143.283C34.3184 143.571 39.7097 140.116 42.7696 137.38C45.9752 134.5 49.3266 132.197 52.9693 129.605C55.5921 127.733 52.8236 128.885 58.3607 125.717C60.4006 124.565 61.8577 123.269 63.8977 121.974C67.249 120.102 72.3489 117.078 72.9317 113.335C70.3089 116.07 65.0634 118.086 61.8577 120.246C52.3865 126.581 39.1268 137.668 31.2584 142.132C29.3642 143.283 30.6756 142.419 30.2384 143.283ZM21.9329 143.571C25.7214 144.147 27.1785 142.563 30.2384 140.692C39.2725 135.508 42.3325 132.341 49.9094 127.013C54.135 123.989 58.3607 120.246 63.0234 117.798C65.6462 116.358 67.5404 115.062 70.0175 113.335C73.806 110.887 73.5146 111.751 74.9717 107.719C71.6203 108.583 70.7461 110.167 68.269 112.039C67.1033 112.903 65.6462 113.335 64.6262 114.054C63.6062 114.774 63.0234 115.782 61.8577 116.646L51.5122 123.413C46.7038 127.877 46.9952 126.869 41.4582 130.037L31.5498 136.804C29.947 137.812 29.6556 138.676 28.3442 139.396C25.43 140.98 24.7014 141.556 21.9329 143.571ZM123.931 103.832C130.925 105.271 139.667 113.191 143.893 115.926C144.913 116.502 149.576 119.958 150.159 120.678C145.641 120.822 144.039 117.51 136.753 112.615C132.382 109.735 126.845 107.863 123.931 103.832ZM13.1903 142.275C17.2702 143.139 20.6215 142.419 23.9729 140.116C25.5757 138.964 27.1785 138.532 28.4899 137.524C29.8013 136.66 30.967 135.508 32.2784 134.644C35.0469 132.916 37.524 130.757 40.2925 129.029C43.061 127.301 45.8295 125.717 48.598 123.845C53.9893 120.246 59.3806 116.358 64.4805 112.615C66.6662 111.031 70.3089 108.151 72.4946 106.999C75.846 105.127 77.7402 103.688 79.1973 100.088C77.5945 101.096 76.5745 102.104 75.1174 102.968L62.5863 110.743C57.3407 114.63 52.6779 119.238 47.578 122.838C41.3125 127.301 33.4441 132.341 26.7414 136.228L13.1903 142.275ZM116.208 94.0405C119.122 94.4725 127.282 98.3601 130.05 100.088L143.456 106.999C147.973 109.015 165.458 120.246 167.207 123.413C159.63 122.406 159.193 120.678 153.51 117.078C149.576 114.63 145.641 111.175 141.707 108.727C132.673 103.112 131.07 102.536 122.473 98.0721C118.248 95.7684 119.414 98.0721 116.208 94.0405ZM66.9576 165.025L69.7261 161.282C70.3089 160.13 71.4746 157.97 71.7661 156.818C72.9317 153.074 73.806 150.771 74.3889 146.739C76.7202 130.613 82.8401 113.91 91.437 99.9439C95.2255 93.8966 92.1656 91.7368 95.9541 91.7368C96.974 94.9044 94.6427 111.031 93.7684 114.918C90.8542 127.157 85.3172 140.98 79.343 152.066C77.3031 155.81 76.4288 158.258 74.2431 159.986C72.9317 160.994 72.0575 162.289 71.0375 163.297C68.9975 165.313 69.8718 164.881 68.4147 166.753C67.3947 166.465 67.249 166.177 66.5205 165.745L65.6462 167.761C72.786 166.465 84.0058 157.538 88.2314 151.347C91.1456 147.027 94.2055 141.268 96.2455 136.516C99.1597 129.461 101.637 119.958 102.074 111.895C102.365 105.559 96.974 89.865 95.3712 88.5691C93.477 89.865 94.6427 90.2969 91.7285 91.8808C89.1057 93.3206 79.9259 107.719 78.0316 111.031C74.2431 117.654 76.2831 113.479 73.6603 119.814C64.4805 141.124 71.1832 156.386 66.9576 165.025ZM114.605 90.8729C115.334 92.8887 120.725 93.8966 122.911 94.7605L146.661 106.711C154.384 110.455 161.087 115.926 167.79 121.11C170.558 123.125 171.141 125.573 175.512 124.709C172.161 123.701 165.167 116.646 162.544 114.054C159.047 110.599 153.218 106.711 148.701 104.119C147.39 103.4 146.079 102.824 144.622 101.96C140.25 99.512 118.685 92.0248 114.605 90.8729ZM98.7226 88.2811C100.034 96.7763 116.208 112.615 122.911 123.269C123.931 124.997 124.951 126.869 126.116 128.309C127.573 130.181 128.156 131.765 129.613 133.636C133.839 139.108 135.879 143.859 139.376 148.755C143.747 154.802 149.867 163.585 158.027 163.441C157.007 161.713 155.404 160.418 154.384 158.69C153.364 156.962 152.636 154.802 151.47 153.218C149.284 150.051 147.099 146.595 144.767 143.283C143.456 141.412 142.727 139.684 141.562 137.668C140.396 135.94 139.376 134.5 138.21 132.628C134.713 127.589 128.01 111.895 124.513 108.295C123.785 107.575 123.348 107.287 122.473 106.423C121.891 105.703 121.308 104.551 120.579 103.832C119.851 103.112 115.188 99.656 113.731 97.9281C111.982 95.6244 111.254 95.9123 109.214 94.0405C105.571 91.0169 103.968 89.1451 98.7226 88.2811ZM17.2702 138.82C19.893 138.676 34.3184 129.461 37.6697 127.589C39.2725 126.725 40.4382 125.285 42.3325 124.277C49.7637 120.246 58.6521 110.599 64.7719 107.143C71.4746 103.544 88.9599 92.3127 91.2913 86.4093C86.7743 85.5454 81.9658 83.9616 77.1574 84.9695C69.289 86.6973 60.4006 87.7052 53.2608 92.7447C45.3924 98.0721 39.5639 105.127 34.1726 112.615C33.007 114.198 32.2784 116.07 31.1127 117.51C29.8013 119.094 28.927 120.534 27.7614 122.118L17.2702 134.932C19.1644 134.212 23.6815 130.757 25.43 129.317C27.7614 127.301 29.3642 124.709 31.4041 122.118C33.7355 119.094 37.6697 113.91 40.8753 111.319C44.3724 108.439 44.3724 106.999 52.0951 102.392C53.8436 101.384 54.5722 101.096 56.175 99.7999C59.5263 97.2082 66.229 94.1845 70.1632 93.7526C72.2032 93.6086 81.5287 93.4646 83.1315 93.7526C83.1315 96.4883 78.7602 96.2003 73.5146 97.9281L63.8977 102.392C57.6321 106.567 43.061 118.518 37.3783 124.565C36.0669 126.005 35.1926 125.861 33.7355 127.445C31.5498 129.749 31.2584 128.741 29.3642 130.037L17.2702 138.82ZM100.034 85.2575C104.405 81.8018 122.473 80.6499 128.302 80.9379C141.124 81.5138 143.456 84.1056 151.616 89.721C154.093 91.4488 154.093 91.5928 156.133 93.6086C157.444 94.9044 158.755 95.6244 160.358 97.3522C167.79 105.271 168.81 103.256 175.075 114.63C176.386 117.078 181.195 121.83 180.612 124.133C179.446 124.565 179.884 124.421 178.281 123.557C176.095 122.262 174.784 121.974 172.015 120.102C169.392 118.23 167.207 116.07 165.167 113.766C158.464 106.423 142.144 98.0721 131.945 95.0484C128.739 94.0405 125.242 92.8887 122.182 91.5928C119.996 90.7289 114.314 89.577 113.294 87.8492C117.228 87.9932 119.996 89.1451 123.639 89.721C128.448 90.4409 129.03 90.4409 133.839 91.8808C141.707 94.3285 144.184 94.3285 151.47 98.792C156.57 101.816 170.704 114.054 174.055 119.238C174.492 119.814 174.929 120.534 175.512 120.966C177.406 122.262 177.989 120.966 177.989 120.966C177.406 119.238 172.889 114.342 171.432 112.471C167.935 107.863 153.656 94.6165 148.701 91.1608C143.31 87.4172 132.382 84.8255 125.533 84.6815C119.996 84.5375 116.791 85.2575 111.545 85.8334C109.214 86.1214 106.737 85.4014 104.988 85.8334C103.24 86.2654 104.988 86.6973 102.511 86.2654C101.637 86.1214 100.763 85.6894 100.034 85.2575ZM55.3007 69.1311C76.5745 70.139 79.7802 72.5868 94.497 85.5454C89.9799 84.6815 85.1715 82.8097 80.5087 82.9537C74.5346 83.2417 59.9635 86.8413 54.7179 89.865C47.1409 94.3285 49.0352 95.9123 45.101 94.9044C38.8354 93.1766 30.6756 85.8334 26.7414 80.6499C18.873 70.139 21.6415 70.571 18.7273 64.0917C17.9987 62.5078 16.833 60.4921 16.5416 58.7642C22.2243 60.4921 28.0528 63.2278 34.0269 65.0996C40.1468 67.1154 45.9752 68.8432 52.0951 70.715C60.692 73.3067 72.0575 74.6026 79.7802 79.2101C83.7144 81.5138 85.7543 83.3857 87.5028 82.5217C86.92 77.0503 69.7261 72.5868 64.3348 71.2909C61.5663 70.715 57.9235 70.427 55.3007 69.1311ZM97.1198 83.3857C99.1597 83.5296 107.465 81.3699 109.942 80.6499C113.294 79.786 121.016 79.4981 124.805 79.3541C129.905 79.3541 134.567 79.642 139.376 80.7939C144.039 81.9458 146.079 84.1056 150.013 86.4093C152.781 88.1372 152.053 87.5612 155.404 86.8413C157.59 86.2654 159.63 85.9774 161.524 85.1135C164.875 83.5296 168.664 81.3699 171.141 78.9221C176.241 74.1706 181.778 65.6755 182.798 58.4763C179.592 60.3481 183.089 61.212 174.638 63.9477C170.412 65.2436 166.77 64.5236 162.69 63.6597C151.616 61.356 152.344 58.4763 139.667 61.4999C132.673 63.2278 126.699 66.8274 120.288 69.8511C116.499 71.7229 106.008 81.0819 102.074 78.4902C102.802 76.1864 104.26 77.6263 106.591 76.0424L119.559 66.6834C124.222 63.2278 133.985 59.3402 139.522 57.1804C147.681 53.8687 155.55 56.3165 163.418 59.3402C168.955 61.356 176.678 61.356 180.321 56.4605C180.904 55.5966 182.506 52.7169 182.652 51.8529C181.195 52.8608 179.446 53.1488 177.698 53.8687C174.055 55.3086 178.718 54.5887 171.724 55.7405C168.081 56.3165 163.273 53.7248 159.047 53.1488C147.244 51.709 131.362 55.4526 121.891 62.3639C118.831 64.6676 116.062 66.5394 112.857 68.6992C108.194 72.0108 98.5769 77.9142 97.1198 83.3857ZM95.0798 83.3857C96.3912 81.0819 97.8483 77.7702 99.1597 75.3225C102.948 67.8353 95.2255 51.709 93.3313 46.0936C92.457 43.6458 92.1656 44.0778 91.1456 42.206C90.1256 40.4781 82.9858 23.056 82.403 20.3202C81.6744 17.8725 79.9259 12.833 78.1773 11.3932C79.7802 20.7522 87.3571 34.2868 89.5428 42.3499C91.7285 50.7011 91.8742 45.6616 93.9141 59.0522C94.3512 61.9319 94.6427 65.3875 94.9341 68.4112C95.2255 71.0029 96.6826 76.0424 94.9341 78.0582C92.0199 78.2022 92.7484 72.2988 92.3113 70.139C91.7284 67.2593 90.9999 64.0917 90.2713 61.356L80.363 27.5195C79.0516 23.4879 77.1574 13.409 74.826 10.8172C74.826 14.4169 75.2631 18.3045 75.2631 22.1921C75.2631 40.9101 71.6203 50.2691 79.343 69.1311C81.9658 75.4665 81.2373 71.4349 88.5228 77.9142C89.8342 78.9221 93.9141 82.9537 95.0798 83.3857ZM77.5945 70.571C67.6862 68.5552 74.826 68.8432 61.1292 67.8353C56.0293 67.4033 49.0352 66.6834 44.081 65.5315C37.9611 64.0917 41.6039 64.9556 36.7954 63.2278L22.0786 58.6202C19.7473 57.9003 17.2702 55.7405 15.0845 55.7405C12.7531 57.4684 14.2102 59.4842 15.5216 61.7879C19.0187 67.6913 17.5616 76.4744 33.2984 90.009C35.7755 92.0247 42.7696 96.0563 45.9752 96.3443C45.101 97.7841 41.8953 100.52 40.5839 101.96C38.8354 103.688 37.524 105.847 35.9212 107.863C31.8413 113.191 26.45 121.542 22.6615 126.149C21.0587 128.165 19.4558 129.749 17.7073 131.765C11.0046 139.972 7.50754 137.38 5.90472 140.98C12.4617 147.027 31.5498 145.011 39.8554 143.427C52.9693 140.98 57.4864 137.812 67.8319 132.341C67.8319 135.22 67.1033 138.82 66.9576 141.844C66.6662 145.155 66.9576 149.331 66.8119 152.786C66.6662 167.185 63.3148 165.313 62.8777 170.209C69.8718 170.641 83.1315 160.706 87.3571 155.09C92.1656 148.755 96.974 140.548 99.3054 132.916C99.4511 132.341 99.7425 131.477 99.8883 131.045L101.054 129.029C101.928 137.38 108.777 147.027 114.896 152.786C116.062 153.938 116.936 154.514 118.102 155.666C119.996 157.25 120.434 156.962 122.328 158.114C125.679 160.13 127.428 160.994 131.362 161.857C132.236 162.001 133.256 162.289 134.13 162.289C135.879 162.433 135.733 162.001 136.607 162.001C138.647 162.001 137.045 162.577 138.793 162.577C139.959 162.577 139.376 162.001 141.416 162.145C145.787 162.433 153.801 165.457 158.464 167.041C160.358 167.617 160.65 167.329 161.524 166.897C162.107 165.169 159.484 162.001 158.318 160.562C155.987 158.114 155.55 157.25 154.093 154.226L145.933 141.7C142.727 137.236 137.19 127.877 134.422 122.55C133.839 121.542 131.508 116.07 131.07 115.782C132.382 116.646 133.693 118.086 135.296 119.094C136.899 119.958 139.667 120.534 141.416 120.822C143.602 121.254 146.079 121.686 148.264 121.974C150.741 122.262 153.656 121.974 155.696 122.406C158.027 122.838 160.067 123.125 162.398 123.557C164.584 123.845 166.478 124.853 168.518 125.285C172.598 126.149 177.844 127.589 181.486 124.997C182.652 120.966 178.864 117.51 176.824 114.342C174.492 110.599 169.684 103.544 166.187 100.808L153.947 89.0011C155.696 87.7052 158.61 87.8492 160.795 86.9853C162.981 86.1214 164.584 84.8255 166.478 83.9616C173.181 80.6499 179.884 71.1469 182.943 64.3796C184.255 61.4999 186.586 52.7169 186.003 49.8372C183.963 48.2533 183.381 48.6853 181.341 50.1251C179.738 51.133 177.989 51.565 176.386 52.5729C172.307 54.8766 168.81 54.1567 164.73 52.7169C158.755 50.5571 151.47 51.565 145.204 51.9969C142.29 52.2849 141.416 52.7169 138.793 53.2928C129.03 55.3086 118.831 62.6518 110.234 68.2672C108.631 69.4191 107.174 69.7071 105.717 71.1469C104.697 72.1548 102.948 73.8826 101.491 74.3146C101.491 70.427 101.928 66.9714 101.054 63.0838L100.18 58.9082C99.4511 55.4526 96.5369 50.1251 95.0798 45.9496C94.2055 43.3578 90.1256 36.4466 89.2514 34.2868C88.6685 32.703 88.5228 31.5511 87.6485 29.8233L82.8401 17.1526C81.0916 9.66536 78.323 8.94544 77.4488 7.64958C76.8659 6.64168 77.5945 6.92965 76.4288 5.77777C71.1832 6.78567 73.0775 12.1131 73.3689 20.0323C73.806 33.2789 71.6203 39.6142 73.5146 55.5966C74.2431 61.212 76.7202 65.5315 77.5945 70.571Z" stroke="#FFF1D3" stroke-width="8" mask="url(#path-1-outside-1)"/>
</svg>
