<svg width="140" height="130" viewBox="0 0 140 130" fill="none" xmlns="http://www.w3.org/2000/svg">
<path fill-rule="evenodd" clip-rule="evenodd" d="M60.3089 33.4514C62.105 34.7099 64.5612 35.2171 65.9956 37.6753C67.3117 40.056 67.1801 42.8422 66.4976 45.4372C64.7756 52.3368 57.5486 53.4419 56.1056 54.3572C55.769 56.1646 57.6108 58.1287 56.5918 62.5312C54.8221 70.6668 49.9739 72.3975 41.882 73.2752C38.9821 73.5761 39.6262 73.2368 37.0722 72.7501C35.0512 74.8082 33.6902 76.1149 30.533 76.1632C22.9053 76.3306 16.3919 69.6235 17.6404 62.4144C17.977 60.607 18.9102 59.6963 19.3446 57.8684C6.02888 60.1468 3.77695 41.104 10.1157 37.222C16.9234 33.1396 15.526 34.7605 18.2983 33.3624C19.2287 30.0002 18.9939 27.9038 21.5975 25.2129C26.32 20.4434 27.8814 19.6055 34.7579 18.7781C36.0507 18.6095 37.8377 18.8482 39.0578 19.3078C40.7309 19.9791 41.4048 20.7574 42.6865 21.5107C43.119 21.6244 47.325 18.2913 55.1789 23.5938C56.7178 24.5996 57.9472 26.079 58.883 27.6199C60.6726 30.3101 59.6006 31.0455 60.3089 33.4514ZM118.7 66.3797C121.821 66.6455 124.395 67.2301 126.865 69.267C129.099 71.1491 130.148 72.2575 131.33 74.9729C135.112 83.2738 128.246 89.5141 128.173 90.1423C128.824 92.7645 129.369 94.3874 128.217 97.1828C127.412 99.1906 126.235 101.378 124.838 102.999C122.332 105.67 115.007 106.795 112.039 103.841L112.658 102.894C115.706 103.788 117.513 104.125 120.702 103.252C124.751 102.098 128.008 95.6942 124.973 91.9365C123.327 89.9314 119.268 90.0663 119.018 88.382C121.037 88.2655 121.818 90.0432 124.378 89.0981C129.088 87.1922 132.196 79.5935 129.573 75.8518C128.102 73.7078 125.149 70.3416 122.513 69.4634C115.609 67.2315 117.843 73.5068 114.13 72.8541C113.834 70.4641 118.213 68.9337 115.693 65.6814C114.145 63.6557 111.113 62.3496 108.6 62.0587C105.948 61.5925 102.888 61.6203 100.405 62.4469C96.7679 63.6175 96.8796 65.1266 94.7356 66.5974L93.372 65.4527C94.5299 61.2255 101.716 59.9246 105.599 59.9286C108.581 60.0191 110.98 60.7426 113.678 61.9145C116.473 63.0658 117.188 64.0399 118.7 66.3797ZM92.5533 70.324C97.0238 70.2049 98.6897 67.9148 102.78 66.9558C106.381 66.0994 112.087 66.0279 114.53 69.3987C113.529 71.4475 110.839 73.237 112.412 75.8704C114.265 76.9126 115.811 76.4867 117.229 74.9637C118.724 73.3223 118.735 72.4004 121.387 72.8666C124.157 73.4102 127.759 76.9469 129.384 78.8542C129.217 81.9545 127.874 85.3008 125.421 87.2451C121.936 90.1205 120.895 85.6388 117.03 87.6743C116.261 89.368 115.601 90.1193 116.166 91.84C118.219 93.3511 123.808 93.2023 124.974 96.3297C124.426 102.983 115.128 104.931 111.79 100.215C109.168 100.866 108.624 103.637 108.941 106.125C109.171 107.711 113.403 109.379 114.876 109.581C118.548 110.038 124.338 108.417 126.88 105.432C131.578 100.055 128.729 95.2365 130.675 91.3552C135.123 82.3519 134.758 72.3137 125.606 66.67C124.659 66.051 123.712 65.432 122.533 65.1681C121.019 64.77 119.726 64.9387 118.656 63.7324C110.57 54.3919 87.5847 58.7978 92.5533 70.324ZM37.8426 64.7216C38.7995 70.7535 39.1434 71.9076 45.8764 70.3951C47.736 70.0055 49.7458 68.8694 50.8905 67.5057C52.5974 65.4113 52.3924 64.4325 52.2303 61.7079C49.5691 60.2219 48.4403 61.1735 46.1521 57.566C45.5145 56.4735 46.1316 57.4682 45.3393 56.6124C44.2898 55.504 41.8693 50.2895 42.0372 47.1892C42.1735 44.9129 43.3863 42.4112 43.4703 40.861C43.5953 39.5066 42.6688 38.9855 43.6561 35.4071C44.0178 34.2074 44.9688 30.9431 45.351 29.8413C46.0223 28.1682 47.4858 27.3508 48.0227 26.0123C41.4531 23.9146 46.3119 31.99 41.6661 32.2479C36.902 32.4285 39.5552 26.5599 39.5915 26.2458C36.9098 24.6619 32.3871 25.5071 29.4144 26.4363C28.3583 26.7597 26.7857 28.5195 25.6932 29.157C23.9975 30.3295 23.4195 31.4723 23.1034 33.3776C24.9108 33.7142 24.6536 33.4616 25.7646 34.8636C25.6853 36.9236 24.7045 39.0703 22.5308 39.4234C20.5528 39.7356 18.9523 38.4361 16.4281 39.067C12.4562 40.1033 9.38564 41.053 8.93795 45.7444C8.68799 48.4532 11.088 53.5699 13.5488 54.587C15.124 55.2787 17.7191 55.9612 19.301 55.2212C20.5118 54.661 21.6632 51.8656 23.5982 53.2993C25.2807 54.9903 23.3761 59.0674 22.0971 60.7657C20.6428 62.6028 18.8269 65.6397 19.8288 67.984C20.6713 70.0553 22.8068 71.9579 24.9898 72.6245C31.0859 74.4127 30.33 73.2428 33.0136 72.885C33.7325 69.9759 31.9978 69.011 32.9785 66.8643C34.1802 65.2844 35.9373 64.4055 37.8426 64.7216ZM49.7733 26.5651C47.1809 28.3342 45.5607 31.33 45.3927 34.4303C45.3405 35.1564 45.4066 35.9599 45.5501 36.6451C46.1539 40.5032 46.8476 36.9863 44.1329 42.5613C41.4546 47.8221 44.547 55.7567 50.3859 57.2922C50.1716 55.2937 47.8133 54.766 47.8834 51.6862C44.5939 50.1275 43.8493 48.0357 44.8981 44.7509C46.841 38.4181 48.9745 42.2623 49.9208 38.4881C47.337 36.8838 46.0964 36.3263 47.259 32.609C48.0962 29.7772 50.4201 28.6774 51.0344 27.2205L49.7733 26.5651ZM47.9105 50.3523C49.1941 49.1639 49.1597 47.5364 51.1424 47.7341C53.125 47.9318 52.5516 49.5845 54.2863 50.5493C59.0578 53.3302 64.4879 46.5734 64.474 45.0437C64.4283 44.3381 63.5812 41.757 62.9688 41.2722C60.0662 39.1216 56.8753 41.9356 54.0184 40.4906C52.543 37.8367 55.1036 36.8917 56.1869 35.2344C57.4248 33.3403 58.1734 31.5488 56.1974 29.9193C53.115 27.3977 48.5975 33.146 48.4864 36.03C49.4949 36.9426 49.9638 36.7422 51.2613 37.0835C52.3367 43.1928 49.8759 42.1757 46.4073 44.6391C45.6474 47.3526 45.0582 49.4172 47.9105 50.3523ZM55.2108 37.8909C55.8866 36.7276 58.4221 35.1748 59.3275 31.2049C57.5425 29.0245 56.743 25.2074 51.3889 23.0594C49.2627 22.1766 46.8112 22.1792 45.0382 23.4702C42.3684 25.3576 44.1672 29.0676 41.4902 27.9936C41.4922 26.052 43.8319 24.5402 36.9026 21.7005C34.3234 20.606 30.7793 21.2462 28.3576 22.3665C26.0337 23.4663 23.9922 25.4265 22.4037 27.5983C17.9683 33.738 23.3905 34.7479 23.7661 35.0779C22.956 36.5758 20.6658 34.9099 18.2189 35.4224C3.90854 38.3178 7.60278 52.0522 12.693 55.3793C13.9952 56.2304 17.3937 56.8467 19.0007 56.7144C21.5091 56.4955 21.5223 53.632 23.3959 54.7721C22.8047 58.7784 11.2726 69.5719 27.6351 74.5225C29.1694 75.0185 31.1269 74.6085 32.6155 74.3988C37.4524 73.59 34.5651 66.6342 36.9915 66.0238C37.6905 67.4099 36.6238 73.0484 43.5935 71.6906C47.9205 70.8864 48.9403 70.8771 52.0287 67.5738C54.4365 64.9239 55.203 60.7787 54.8769 57.271C54.1679 50.472 49.4587 52.3779 50.5849 48.9747C53.412 49.3021 51.9353 52.983 58.4771 52.0214C61.4544 51.6021 66.4705 46.7711 65.8826 42.5009C65.7344 41.3059 65.0308 39.4099 64.1611 38.6726C59.9676 34.7489 58.2337 38.1773 55.2108 37.8909ZM82.7867 46.6229C82.124 44.9226 81.8668 44.67 82.5949 42.7806C83.2456 41.0095 84.1516 41.4328 85.5424 41.2436C88.1282 40.9064 89.4819 36.6382 89.1082 34.3665C88.6321 31.6055 85.4088 30.8503 83.1642 29.89C77.9285 27.8195 80.9157 32.8131 76.0967 31.2683C74.2548 29.3042 76.2329 28.992 74.0108 26.188C71.7887 23.384 68.3128 22.8861 66.3646 24.3158C65.3904 25.0307 65.6365 26.2053 65.3726 27.3844C64.7311 30.1752 63.839 31.2816 61.1415 30.1097C60.9781 33.7199 61.8134 32.8298 64.4792 34.8256C66.3164 36.2799 67.3659 37.3882 67.8579 39.7373C68.2065 41.4011 67.811 45.3664 67.2377 47.0191C66.7417 48.5534 66.0975 48.8926 65.4991 49.9375C64.9779 50.8641 65.7927 49.876 64.2498 52.7535C62.996 55.0595 61.1886 54.7229 63.1421 58.1962C64.2783 60.2059 66.2702 61.4234 68.6854 61.7349C74.5355 62.3485 71.6884 51.1953 77.0789 53.0292C78.0715 54.3538 77.7964 56.4548 80.1752 57.0804C82.0031 57.5149 84.1312 56.4561 85.276 55.0924C86.885 53.0185 88.0595 52.7725 86.9961 50.1345C86.1125 47.8675 85.2839 47.3258 82.7867 46.6229ZM78.5561 23.499C77.1514 22.1585 78.7426 22.4383 74.9386 20.3743C73.2039 19.4094 71.4898 18.5425 69.4913 18.7567C66.2977 19.1192 62.763 20.7791 61.3385 23.7339C60.1799 23.5679 57.9604 23.2155 57.0432 23.7141L58.9419 25.462C62.9819 23.2875 61.3299 27.1073 64.0909 26.6312C64.8349 24.3297 62.9865 23.7974 65.5743 21.5185C68.6672 18.725 73.5888 20.7592 75.7289 23.1717C78.3835 26.0894 76.5351 25.5571 77.3617 28.0404C79.4171 27.6098 78.5402 23.911 84.1879 25.9975C86.8445 26.9736 88.3106 28.6077 89.6062 30.8906C90.9017 33.1735 90.126 36.2989 89.2068 38.7392C87.043 44.5053 84.0445 40.4335 84.0882 43.0808C85.1536 43.7772 85.7772 43.34 87.2182 44.3664C89.7452 46.187 89.6367 51.5226 86.6667 54.9033C84.9394 56.8998 83.831 57.9494 81.029 58.2298C77.0319 58.6583 77.35 54.8114 75.95 53.9808C74.1313 54.5661 75.2331 54.9483 73.3127 59.4374C72.6209 61.0127 71.3624 62.8089 69.4618 63.0026C65.4648 63.4312 61.6879 60.0333 61.3003 56.232L59.3111 57.4661C59.9427 64.3835 68.8613 65.9892 73.443 62.9861C75.2365 61.793 76.3766 59.9195 77.4691 59.282C80.8266 59.7026 80.986 59.9757 84.2113 58.7892C90.5071 56.6531 92.3111 50.145 90.9309 45.0191C90.505 43.4736 89.6195 43.1482 90.136 41.7118C91.1484 38.7412 91.9473 38.1651 91.8944 34.4981C91.7045 28.7142 87.7181 23.8277 81.9454 23.0956C80.179 22.9548 79.5758 23.4898 78.5561 23.499ZM42.8478 19.8421C40.2435 18.1399 37.5096 17.2822 34.3366 17.7425C31.8692 18.1572 28.8668 17.9687 26.6044 19.3621C23.1721 21.5115 20.3886 23.8314 18.6183 27.5738C17.7718 29.3859 17.8221 30.6014 17.053 32.295C15.7647 32.9736 14.1782 33.2037 12.89 33.8822C11.6996 34.5403 10.1792 35.5739 9.00932 36.3298C4.3093 39.2556 4.35898 51.1991 7.16633 55.8217C8.42088 57.9088 8.59613 57.77 10.3354 59.2447C13.0832 61.6321 12.3273 60.4622 15.298 61.4747C14.482 68.7975 17.9957 77.7677 26.657 79.1207C28.1503 79.4209 29.4683 79.86 31.0343 79.532C36.0055 78.3886 35.327 77.1003 37.6601 77.0203C43.9539 76.8258 43.4804 76.5163 48.7406 74.8015C51.7906 73.7539 52.4142 73.3168 54.2917 70.5736C54.7765 69.9612 55.0086 69.606 55.5138 69.0915C56.1533 68.2424 57.0587 64.2725 57.5183 63.0523C60.9102 65.1004 60.5121 66.6142 68.3971 66.6994C75.6538 66.712 77.2694 63.2063 78.0319 62.9444C81.8014 63.3808 85.7323 62.1488 88.1561 59.0868C95.3294 49.9215 90.7054 43.9425 91.2946 41.8778C92.075 39.2623 92.7667 37.687 92.682 34.844C92.5332 29.2558 88.9289 23.2675 82.8011 22.3033C81.9566 22.1737 80.2107 22.1307 79.6803 22.0375C79.2478 21.9238 78.0799 20.738 77.3901 20.3716C71.5123 16.6987 66.4088 16.2351 61.279 21.4986C60.4437 22.3888 59.9338 22.3934 58.6978 22.3458C57.9717 22.2936 57.4208 22.1025 56.7925 22.0297C55.7523 21.9411 56.0095 22.1937 55.2834 22.1415C55.0671 22.0846 52.9205 21.1039 52.4675 20.8923C48.354 19.3018 46.6855 19.1405 42.8478 19.8421Z" fill="#A1817F"/>
</svg>
