<svg width="142" height="155" viewBox="0 0 142 155" fill="none" xmlns="http://www.w3.org/2000/svg">
<mask id="path-1-outside-1" maskUnits="userSpaceOnUse" x="0.0358984" y="0.535898" width="142.174" height="154.253" fill="black">
<rect fill="white" x="0.0358984" y="0.535898" width="142.174" height="154.253"/>
<path fill-rule="evenodd" clip-rule="evenodd" d="M42.287 76.6917C41.2869 78.424 39.674 79.9802 38.5399 81.6351L31.5615 92.1753C30.4274 93.8302 28.7946 95.7303 28.0624 97.6173L25.4748 98.0777C28.6119 91.716 36.1116 79.3448 42.287 76.6917ZM51.8393 71.9017C47.0659 73.0546 41.7258 79.2104 39.2268 82.9201C38.4005 84.0421 37.899 85.5293 37.0727 86.6512C35.2091 88.951 30.6356 95.0165 30.1513 97.4019C34.1952 96.8939 33.1408 97.1735 36.8508 91.6756C38.3696 89.3544 39.8884 87.0332 41.4071 84.7119C43.7722 80.9249 50.3205 74.223 51.8393 71.9017ZM36.5493 98.0754C40.824 97.1677 39.1768 96.9273 45.1331 98.0564L62.8708 100.124C65.7635 100.373 69.9613 99.5986 72.3353 100.436C60.1266 102.093 65.9517 101.903 52.962 101.51C49.3028 101.352 39.1116 100.443 36.5493 98.0754ZM58.4338 70.3789C57.9522 71.5222 56.724 72.4122 55.7067 73.2462L48.0414 82.5014C45.0808 87.0106 41.4305 91.477 38.7578 95.797L35.6714 96.5025C35.5031 94.6286 51.0754 70.75 58.4338 70.3789ZM43.6425 96.3075C48.0086 97.4069 75.8406 100.861 79.3741 97.2156C73.301 96.9074 67.0171 96.6551 60.944 96.3469C56.3073 96.3349 47.3443 94.5359 43.6425 96.3075ZM67.6928 68.2623C66.6184 68.8858 66.2166 68.6538 65.0282 68.856C62.7085 69.4711 60.195 71.0404 58.5052 72.7299C57.5449 73.7745 56.1058 74.7203 55.0686 75.8982C53.9544 77.2093 53.2819 78.0648 51.9568 79.4318C50.4779 81.0653 41.311 93.54 40.7327 95.1605C43.0895 95.0998 43.571 93.9565 44.782 92.1683C46.7425 89.3913 47.5091 89.3009 50.5466 84.6585C52.0654 82.3372 58.3459 75.4806 60.3036 73.9458C61.7626 72.6561 66.9433 69.251 67.6928 68.2623ZM89.3678 57.3238C85.7258 58.0638 85.1872 58.9965 82.252 60.6777L72.7739 66.5765C71.6226 67.3332 70.8931 67.978 69.9527 68.6788C66.2681 71.3486 61.3951 74.2207 58.3802 77.2772L45.2382 93.853C48.6494 93.5127 49.1708 91.6817 51.0914 89.5925C56.9103 83.5354 65.8553 76.0851 72.458 70.8359L83.6486 61.6616C85.3954 60.1827 88.1568 59.112 89.3678 57.3238ZM94.814 89.9617C90.3972 94.5185 64.4006 92.8347 57.6776 91.796C60.459 90.3814 62.7588 90.1101 66.1302 90.4576L85.4808 90.9693C88.5273 90.9515 91.6906 90.1127 94.814 89.9617ZM93.9311 64.5778C91.9508 67.6986 83.2139 76.3351 79.8741 79.0263C76.3234 81.7735 73.7701 84.0305 68.5749 85.2951L80.9566 74.6765C83.49 72.7634 84.9291 71.8175 87.1375 69.5391C88.1548 68.7051 92.7998 64.9907 93.9311 64.5778ZM80.9574 83.0275C82.4878 84.0888 88.5609 84.397 90.9549 84.8908L99.1739 85.1943C101.052 85.0349 100.861 84.7469 101.226 84.4245C98.8888 84.1413 98.3331 84.1758 96.0161 83.5488C88.6062 81.2251 88.5121 80.4601 80.9574 83.0275ZM98.8178 55.4952C95.8482 55.3797 97.1877 56.1531 94.5802 56.9573C89.576 58.51 88.402 60.8526 84.7002 62.6242C82.1298 63.9829 76.1199 69.752 73.3757 71.7211C69.6911 74.3909 52.8753 88.668 51.7584 91.2213C56.4151 90.8894 55.6512 89.7376 58.5692 87.1582L69.7028 77.7734C71.6605 76.2386 73.5413 74.8371 75.365 73.225C79.0126 70.0007 82.8511 67.0644 86.4986 63.8401C92.2007 58.604 97.5298 57.4166 98.8178 55.4952ZM98.1797 58.1472C97.2166 60.4339 91.5173 64.4279 89.2717 66.1519C86.0858 68.5766 83.2248 71.3666 79.7511 73.9805C76.2773 76.5944 73.6842 79.5391 70.3643 81.8865C65.8932 84.9905 64.1635 87.3677 59.467 88.3873L87.4163 64.7253C89.8927 62.6016 95.2273 58.93 98.1797 58.1472ZM110.602 55.1919C107.786 54.8099 102.933 57.3381 101.089 59.2941C98.2855 62.2947 101.261 59.9259 97.6528 62.4625C97.0003 62.9741 95.6354 65.0288 94.5411 65.9961C91.9879 68.253 84.2855 76.9538 81.1565 79.5891L81.9802 79.7093L82.1911 79.6534L89.4635 74.7908C91.8629 72.8003 94.57 70.2769 96.5676 68.0544C97.6048 66.8765 98.719 65.5654 99.9671 64.3316C101.081 63.0205 102.233 62.2638 103.481 61.03C109.069 55.3727 107.396 57.9604 110.602 55.1919ZM104.852 64.8421C103.162 66.5315 99.7082 68.8016 98.5741 70.4566C96.9214 72.7004 94.6188 74.2138 91.6664 74.9967C93.2992 73.0966 95.7756 70.9729 97.5423 69.1502C99.5969 67.1383 101.307 65.105 103.361 63.0931C110.619 56.0901 107.336 58.992 113.973 55.5393C115.968 54.5589 115.298 54.1723 118 54.133C113.087 57.6928 109.172 60.7624 104.852 64.8421ZM126.931 52.8934C124.307 52.7993 123.788 53.3883 121.659 54.2913C117.69 55.9082 109.995 60.8825 108.725 63.7023L122.882 55.8856C123.822 55.1848 126.644 53.0825 126.931 52.8934ZM23.7107 98.6583C21.7358 99.2948 20.0117 99.1877 17.9798 99.6136C16.9253 99.8932 14.6427 101.063 13.6453 101.553C11.6505 102.533 5.82263 103.966 6.35296 106.759C9.43656 107.296 12.1636 104.429 15.059 103.435C31.0691 98.2871 21.0606 101.392 32.1098 104.218C35.0395 105.021 36.761 106.371 40.3233 107.006C46.6245 108.156 54.5014 107.196 60.7112 106.34C68.9529 105.057 84.7775 97.1371 92.4888 93.061C96.1336 91.0789 102.218 86.4186 105.29 83.5727C107.036 82.0938 109.858 79.9915 110.59 78.1045C111.071 76.9612 118.965 68.5483 120.771 66.0379C122.213 63.8499 124 61.6834 125.633 59.7833C127.707 57.4276 135.082 49.6037 135.221 47.1968C133.768 46.0023 133.115 46.5139 132.346 47.8464C130.75 50.3009 123.945 51.8797 121.146 52.396C107.231 54.8444 111.622 53.1157 101.887 53.8914C84.9275 55.1155 85.0189 57.1226 71.8761 65.3474C70.2261 66.3492 66.1623 67.2011 63.9765 67.8935C62.8452 68.3063 61.4061 69.2522 60.4286 69.3985C58.2627 69.7471 58.6103 68.5264 56.1168 69.7518C52.7028 71.3342 50.8673 69.5638 41.2353 75.7291C35.5559 79.3793 26.1012 92.0432 23.7107 98.6583Z"/>
</mask>
<path fill-rule="evenodd" clip-rule="evenodd" d="M42.287 76.6917C41.2869 78.424 39.674 79.9802 38.5399 81.6351L31.5615 92.1753C30.4274 93.8302 28.7946 95.7303 28.0624 97.6173L25.4748 98.0777C28.6119 91.716 36.1116 79.3448 42.287 76.6917ZM51.8393 71.9017C47.0659 73.0546 41.7258 79.2104 39.2268 82.9201C38.4005 84.0421 37.899 85.5293 37.0727 86.6512C35.2091 88.951 30.6356 95.0165 30.1513 97.4019C34.1952 96.8939 33.1408 97.1735 36.8508 91.6756C38.3696 89.3544 39.8884 87.0332 41.4071 84.7119C43.7722 80.9249 50.3205 74.223 51.8393 71.9017ZM36.5493 98.0754C40.824 97.1677 39.1768 96.9273 45.1331 98.0564L62.8708 100.124C65.7635 100.373 69.9613 99.5986 72.3353 100.436C60.1266 102.093 65.9517 101.903 52.962 101.51C49.3028 101.352 39.1116 100.443 36.5493 98.0754ZM58.4338 70.3789C57.9522 71.5222 56.724 72.4122 55.7067 73.2462L48.0414 82.5014C45.0808 87.0106 41.4305 91.477 38.7578 95.797L35.6714 96.5025C35.5031 94.6286 51.0754 70.75 58.4338 70.3789ZM43.6425 96.3075C48.0086 97.4069 75.8406 100.861 79.3741 97.2156C73.301 96.9074 67.0171 96.6551 60.944 96.3469C56.3073 96.3349 47.3443 94.5359 43.6425 96.3075ZM67.6928 68.2623C66.6184 68.8858 66.2166 68.6538 65.0282 68.856C62.7085 69.4711 60.195 71.0404 58.5052 72.7299C57.5449 73.7745 56.1058 74.7203 55.0686 75.8982C53.9544 77.2093 53.2819 78.0648 51.9568 79.4318C50.4779 81.0653 41.311 93.54 40.7327 95.1605C43.0895 95.0998 43.571 93.9565 44.782 92.1683C46.7425 89.3913 47.5091 89.3009 50.5466 84.6585C52.0654 82.3372 58.3459 75.4806 60.3036 73.9458C61.7626 72.6561 66.9433 69.251 67.6928 68.2623ZM89.3678 57.3238C85.7258 58.0638 85.1872 58.9965 82.252 60.6777L72.7739 66.5765C71.6226 67.3332 70.8931 67.978 69.9527 68.6788C66.2681 71.3486 61.3951 74.2207 58.3802 77.2772L45.2382 93.853C48.6494 93.5127 49.1708 91.6817 51.0914 89.5925C56.9103 83.5354 65.8553 76.0851 72.458 70.8359L83.6486 61.6616C85.3954 60.1827 88.1568 59.112 89.3678 57.3238ZM94.814 89.9617C90.3972 94.5185 64.4006 92.8347 57.6776 91.796C60.459 90.3814 62.7588 90.1101 66.1302 90.4576L85.4808 90.9693C88.5273 90.9515 91.6906 90.1127 94.814 89.9617ZM93.9311 64.5778C91.9508 67.6986 83.2139 76.3351 79.8741 79.0263C76.3234 81.7735 73.7701 84.0305 68.5749 85.2951L80.9566 74.6765C83.49 72.7634 84.9291 71.8175 87.1375 69.5391C88.1548 68.7051 92.7998 64.9907 93.9311 64.5778ZM80.9574 83.0275C82.4878 84.0888 88.5609 84.397 90.9549 84.8908L99.1739 85.1943C101.052 85.0349 100.861 84.7469 101.226 84.4245C98.8888 84.1413 98.3331 84.1758 96.0161 83.5488C88.6062 81.2251 88.5121 80.4601 80.9574 83.0275ZM98.8178 55.4952C95.8482 55.3797 97.1877 56.1531 94.5802 56.9573C89.576 58.51 88.402 60.8526 84.7002 62.6242C82.1298 63.9829 76.1199 69.752 73.3757 71.7211C69.6911 74.3909 52.8753 88.668 51.7584 91.2213C56.4151 90.8894 55.6512 89.7376 58.5692 87.1582L69.7028 77.7734C71.6605 76.2386 73.5413 74.8371 75.365 73.225C79.0126 70.0007 82.8511 67.0644 86.4986 63.8401C92.2007 58.604 97.5298 57.4166 98.8178 55.4952ZM98.1797 58.1472C97.2166 60.4339 91.5173 64.4279 89.2717 66.1519C86.0858 68.5766 83.2248 71.3666 79.7511 73.9805C76.2773 76.5944 73.6842 79.5391 70.3643 81.8865C65.8932 84.9905 64.1635 87.3677 59.467 88.3873L87.4163 64.7253C89.8927 62.6016 95.2273 58.93 98.1797 58.1472ZM110.602 55.1919C107.786 54.8099 102.933 57.3381 101.089 59.2941C98.2855 62.2947 101.261 59.9259 97.6528 62.4625C97.0003 62.9741 95.6354 65.0288 94.5411 65.9961C91.9879 68.253 84.2855 76.9538 81.1565 79.5891L81.9802 79.7093L82.1911 79.6534L89.4635 74.7908C91.8629 72.8003 94.57 70.2769 96.5676 68.0544C97.6048 66.8765 98.719 65.5654 99.9671 64.3316C101.081 63.0205 102.233 62.2638 103.481 61.03C109.069 55.3727 107.396 57.9604 110.602 55.1919ZM104.852 64.8421C103.162 66.5315 99.7082 68.8016 98.5741 70.4566C96.9214 72.7004 94.6188 74.2138 91.6664 74.9967C93.2992 73.0966 95.7756 70.9729 97.5423 69.1502C99.5969 67.1383 101.307 65.105 103.361 63.0931C110.619 56.0901 107.336 58.992 113.973 55.5393C115.968 54.5589 115.298 54.1723 118 54.133C113.087 57.6928 109.172 60.7624 104.852 64.8421ZM126.931 52.8934C124.307 52.7993 123.788 53.3883 121.659 54.2913C117.69 55.9082 109.995 60.8825 108.725 63.7023L122.882 55.8856C123.822 55.1848 126.644 53.0825 126.931 52.8934ZM23.7107 98.6583C21.7358 99.2948 20.0117 99.1877 17.9798 99.6136C16.9253 99.8932 14.6427 101.063 13.6453 101.553C11.6505 102.533 5.82263 103.966 6.35296 106.759C9.43656 107.296 12.1636 104.429 15.059 103.435C31.0691 98.2871 21.0606 101.392 32.1098 104.218C35.0395 105.021 36.761 106.371 40.3233 107.006C46.6245 108.156 54.5014 107.196 60.7112 106.34C68.9529 105.057 84.7775 97.1371 92.4888 93.061C96.1336 91.0789 102.218 86.4186 105.29 83.5727C107.036 82.0938 109.858 79.9915 110.59 78.1045C111.071 76.9612 118.965 68.5483 120.771 66.0379C122.213 63.8499 124 61.6834 125.633 59.7833C127.707 57.4276 135.082 49.6037 135.221 47.1968C133.768 46.0023 133.115 46.5139 132.346 47.8464C130.75 50.3009 123.945 51.8797 121.146 52.396C107.231 54.8444 111.622 53.1157 101.887 53.8914C84.9275 55.1155 85.0189 57.1226 71.8761 65.3474C70.2261 66.3492 66.1623 67.2011 63.9765 67.8935C62.8452 68.3063 61.4061 69.2522 60.4286 69.3985C58.2627 69.7471 58.6103 68.5264 56.1168 69.7518C52.7028 71.3342 50.8673 69.5638 41.2353 75.7291C35.5559 79.3793 26.1012 92.0432 23.7107 98.6583Z" fill="#A1817F"/>
<path fill-rule="evenodd" clip-rule="evenodd" d="M42.287 76.6917C41.2869 78.424 39.674 79.9802 38.5399 81.6351L31.5615 92.1753C30.4274 93.8302 28.7946 95.7303 28.0624 97.6173L25.4748 98.0777C28.6119 91.716 36.1116 79.3448 42.287 76.6917ZM51.8393 71.9017C47.0659 73.0546 41.7258 79.2104 39.2268 82.9201C38.4005 84.0421 37.899 85.5293 37.0727 86.6512C35.2091 88.951 30.6356 95.0165 30.1513 97.4019C34.1952 96.8939 33.1408 97.1735 36.8508 91.6756C38.3696 89.3544 39.8884 87.0332 41.4071 84.7119C43.7722 80.9249 50.3205 74.223 51.8393 71.9017ZM36.5493 98.0754C40.824 97.1677 39.1768 96.9273 45.1331 98.0564L62.8708 100.124C65.7635 100.373 69.9613 99.5986 72.3353 100.436C60.1266 102.093 65.9517 101.903 52.962 101.51C49.3028 101.352 39.1116 100.443 36.5493 98.0754ZM58.4338 70.3789C57.9522 71.5222 56.724 72.4122 55.7067 73.2462L48.0414 82.5014C45.0808 87.0106 41.4305 91.477 38.7578 95.797L35.6714 96.5025C35.5031 94.6286 51.0754 70.75 58.4338 70.3789ZM43.6425 96.3075C48.0086 97.4069 75.8406 100.861 79.3741 97.2156C73.301 96.9074 67.0171 96.6551 60.944 96.3469C56.3073 96.3349 47.3443 94.5359 43.6425 96.3075ZM67.6928 68.2623C66.6184 68.8858 66.2166 68.6538 65.0282 68.856C62.7085 69.4711 60.195 71.0404 58.5052 72.7299C57.5449 73.7745 56.1058 74.7203 55.0686 75.8982C53.9544 77.2093 53.2819 78.0648 51.9568 79.4318C50.4779 81.0653 41.311 93.54 40.7327 95.1605C43.0895 95.0998 43.571 93.9565 44.782 92.1683C46.7425 89.3913 47.5091 89.3009 50.5466 84.6585C52.0654 82.3372 58.3459 75.4806 60.3036 73.9458C61.7626 72.6561 66.9433 69.251 67.6928 68.2623ZM89.3678 57.3238C85.7258 58.0638 85.1872 58.9965 82.252 60.6777L72.7739 66.5765C71.6226 67.3332 70.8931 67.978 69.9527 68.6788C66.2681 71.3486 61.3951 74.2207 58.3802 77.2772L45.2382 93.853C48.6494 93.5127 49.1708 91.6817 51.0914 89.5925C56.9103 83.5354 65.8553 76.0851 72.458 70.8359L83.6486 61.6616C85.3954 60.1827 88.1568 59.112 89.3678 57.3238ZM94.814 89.9617C90.3972 94.5185 64.4006 92.8347 57.6776 91.796C60.459 90.3814 62.7588 90.1101 66.1302 90.4576L85.4808 90.9693C88.5273 90.9515 91.6906 90.1127 94.814 89.9617ZM93.9311 64.5778C91.9508 67.6986 83.2139 76.3351 79.8741 79.0263C76.3234 81.7735 73.7701 84.0305 68.5749 85.2951L80.9566 74.6765C83.49 72.7634 84.9291 71.8175 87.1375 69.5391C88.1548 68.7051 92.7998 64.9907 93.9311 64.5778ZM80.9574 83.0275C82.4878 84.0888 88.5609 84.397 90.9549 84.8908L99.1739 85.1943C101.052 85.0349 100.861 84.7469 101.226 84.4245C98.8888 84.1413 98.3331 84.1758 96.0161 83.5488C88.6062 81.2251 88.5121 80.4601 80.9574 83.0275ZM98.8178 55.4952C95.8482 55.3797 97.1877 56.1531 94.5802 56.9573C89.576 58.51 88.402 60.8526 84.7002 62.6242C82.1298 63.9829 76.1199 69.752 73.3757 71.7211C69.6911 74.3909 52.8753 88.668 51.7584 91.2213C56.4151 90.8894 55.6512 89.7376 58.5692 87.1582L69.7028 77.7734C71.6605 76.2386 73.5413 74.8371 75.365 73.225C79.0126 70.0007 82.8511 67.0644 86.4986 63.8401C92.2007 58.604 97.5298 57.4166 98.8178 55.4952ZM98.1797 58.1472C97.2166 60.4339 91.5173 64.4279 89.2717 66.1519C86.0858 68.5766 83.2248 71.3666 79.7511 73.9805C76.2773 76.5944 73.6842 79.5391 70.3643 81.8865C65.8932 84.9905 64.1635 87.3677 59.467 88.3873L87.4163 64.7253C89.8927 62.6016 95.2273 58.93 98.1797 58.1472ZM110.602 55.1919C107.786 54.8099 102.933 57.3381 101.089 59.2941C98.2855 62.2947 101.261 59.9259 97.6528 62.4625C97.0003 62.9741 95.6354 65.0288 94.5411 65.9961C91.9879 68.253 84.2855 76.9538 81.1565 79.5891L81.9802 79.7093L82.1911 79.6534L89.4635 74.7908C91.8629 72.8003 94.57 70.2769 96.5676 68.0544C97.6048 66.8765 98.719 65.5654 99.9671 64.3316C101.081 63.0205 102.233 62.2638 103.481 61.03C109.069 55.3727 107.396 57.9604 110.602 55.1919ZM104.852 64.8421C103.162 66.5315 99.7082 68.8016 98.5741 70.4566C96.9214 72.7004 94.6188 74.2138 91.6664 74.9967C93.2992 73.0966 95.7756 70.9729 97.5423 69.1502C99.5969 67.1383 101.307 65.105 103.361 63.0931C110.619 56.0901 107.336 58.992 113.973 55.5393C115.968 54.5589 115.298 54.1723 118 54.133C113.087 57.6928 109.172 60.7624 104.852 64.8421ZM126.931 52.8934C124.307 52.7993 123.788 53.3883 121.659 54.2913C117.69 55.9082 109.995 60.8825 108.725 63.7023L122.882 55.8856C123.822 55.1848 126.644 53.0825 126.931 52.8934ZM23.7107 98.6583C21.7358 99.2948 20.0117 99.1877 17.9798 99.6136C16.9253 99.8932 14.6427 101.063 13.6453 101.553C11.6505 102.533 5.82263 103.966 6.35296 106.759C9.43656 107.296 12.1636 104.429 15.059 103.435C31.0691 98.2871 21.0606 101.392 32.1098 104.218C35.0395 105.021 36.761 106.371 40.3233 107.006C46.6245 108.156 54.5014 107.196 60.7112 106.34C68.9529 105.057 84.7775 97.1371 92.4888 93.061C96.1336 91.0789 102.218 86.4186 105.29 83.5727C107.036 82.0938 109.858 79.9915 110.59 78.1045C111.071 76.9612 118.965 68.5483 120.771 66.0379C122.213 63.8499 124 61.6834 125.633 59.7833C127.707 57.4276 135.082 49.6037 135.221 47.1968C133.768 46.0023 133.115 46.5139 132.346 47.8464C130.75 50.3009 123.945 51.8797 121.146 52.396C107.231 54.8444 111.622 53.1157 101.887 53.8914C84.9275 55.1155 85.0189 57.1226 71.8761 65.3474C70.2261 66.3492 66.1623 67.2011 63.9765 67.8935C62.8452 68.3063 61.4061 69.2522 60.4286 69.3985C58.2627 69.7471 58.6103 68.5264 56.1168 69.7518C52.7028 71.3342 50.8673 69.5638 41.2353 75.7291C35.5559 79.3793 26.1012 92.0432 23.7107 98.6583Z" stroke="#FFF1D3" stroke-width="8" mask="url(#path-1-outside-1)"/>
</svg>
