<svg width="219" height="18" viewBox="0 0 219 18" fill="none" xmlns="http://www.w3.org/2000/svg">
<path fill-rule="evenodd" clip-rule="evenodd" d="M4.91717 7.80898C4.30675 7.79434 3.72326 7.55846 3.27415 7.1447C3.26572 7.13697 3.25771 7.12868 3.25039 7.11984L0.15065 3.43523C-0.0635488 3.18043 -0.0476669 2.81086 0.187662 2.57553C0.307813 2.45538 0.467599 2.38909 0.637605 2.38909C0.807611 2.38909 0.967397 2.45538 1.08755 2.57553L3.89865 5.3865C3.96494 5.45279 4.0728 5.45279 4.13909 5.3865L4.27747 5.24798L1.14472 2.1151C1.03866 2.00917 1.03866 1.83737 1.14472 1.73144C1.25065 1.62552 1.42245 1.62552 1.52838 1.73144L4.66126 4.86419L4.86428 4.66132L1.73139 1.52843C1.62546 1.4225 1.62546 1.2507 1.73139 1.14478C1.83731 1.03871 2.00912 1.03871 2.11504 1.14478L5.24793 4.27753L5.38645 4.13915C5.45274 4.07286 5.45274 3.965 5.38645 3.89871L2.57548 1.0876C2.32731 0.839568 2.32731 0.43589 2.57548 0.187717C2.81081 -0.0476122 3.18037 -0.0636323 3.43504 0.150705L7.11979 3.25031C7.12863 3.25777 7.13691 3.26578 7.14465 3.2742C7.55841 3.72332 7.79429 4.30681 7.80893 4.91722L7.80907 4.92302L7.81238 5.98864C7.81376 6.40391 7.98998 6.80331 8.29616 7.08421L8.79831 7.54161C8.90906 7.64257 8.91707 7.81409 8.81626 7.92499C8.7153 8.03575 8.54378 8.04376 8.43288 7.94281L7.92991 7.48471C7.512 7.10106 7.27157 6.55666 7.26963 5.99043L7.26646 4.92758C7.25444 4.45554 7.07366 4.00394 6.75685 3.65426L3.08577 0.565984C3.04821 0.534496 2.9938 0.536844 2.95913 0.571508C2.92267 0.607967 2.92267 0.66749 2.95913 0.703949L5.7701 3.51492C6.04797 3.79278 6.04797 4.24493 5.7701 4.5228L5.43989 4.85301L5.43976 4.85314L5.43962 4.85328L4.85309 5.43981V5.43995L4.52275 5.77015C4.24488 6.04816 3.79273 6.04816 3.51486 5.77029L0.703895 2.95919C0.680003 2.9353 0.652106 2.93184 0.637605 2.93184C0.623104 2.93184 0.595207 2.9353 0.571453 2.95919C0.536789 2.99385 0.534441 3.04826 0.565929 3.08583L3.65407 6.75691C4.00389 7.07358 4.45535 7.25436 4.92753 7.26637L5.99024 7.26969C6.5566 7.27162 7.10101 7.51192 7.48383 7.92927L7.95394 8.44523C8.05489 8.55599 8.04688 8.72765 7.93598 8.8286C7.88406 8.87597 7.8186 8.89931 7.75341 8.89931C7.67966 8.89931 7.60633 8.86948 7.55275 8.81065L7.08333 8.29539C6.80312 7.99004 6.40386 7.81368 5.98844 7.81244L4.92283 7.80912L4.91717 7.80898ZM13.4556 7.19609L14.5191 7.1287L14.5248 7.12828C15.2827 7.06434 15.963 6.66729 16.3914 6.03864L17.2322 4.8051C17.964 3.7312 18.2475 2.43413 18.0303 1.15294C17.9876 0.901314 17.8589 0.669437 17.668 0.50026C17.477 0.330945 17.2315 0.230957 16.9765 0.218804C15.6781 0.156657 14.4248 0.593756 13.4465 1.44903L12.3226 2.43164C11.7499 2.93227 11.4372 3.65524 11.4645 4.41551L11.4648 4.42117L11.5254 5.48498C11.5491 5.89971 11.397 6.30891 11.1091 6.60694L2.32869 15.6271C2.09364 15.8722 1.97224 16.2085 1.98702 16.574C2.00331 16.9765 2.18796 17.3717 2.48102 17.6315C2.74576 17.8661 3.10967 17.9998 3.47343 17.9998C3.51238 17.9998 3.55132 17.9983 3.59013 17.9951C3.95486 17.966 4.2743 17.8052 4.49057 17.5409L12.3911 7.74464C12.6531 7.42231 13.0411 7.22233 13.4556 7.19609ZM11.9693 7.40325L4.06949 17.1987C3.94879 17.3462 3.76317 17.4371 3.5469 17.4543C3.28962 17.4749 3.02584 17.3893 2.84105 17.2255C2.65627 17.0615 2.53971 16.8099 2.52935 16.5521C2.52051 16.3354 2.58832 16.1403 2.71897 16.0041L11.4987 6.98466C11.8922 6.57739 12.0994 6.01959 12.0674 5.45419L12.0067 4.39313C11.9862 3.79804 12.2313 3.23223 12.6797 2.84016L13.8036 1.85755C14.6759 1.09507 15.7937 0.705759 16.9507 0.760724C17.0825 0.767077 17.2092 0.818728 17.308 0.906286C17.4067 0.993706 17.4732 1.11358 17.4953 1.24354C17.6889 2.38579 17.4362 3.542 16.7838 4.49934L15.943 5.73302C15.6075 6.22522 15.0751 6.53637 14.4818 6.58733L13.4212 6.65445C12.8561 6.69036 12.3271 6.96297 11.9693 7.40325ZM17.6002 15.5586L11.713 10.1964C11.6022 10.0955 11.4307 10.1035 11.3296 10.2142C11.2288 10.325 11.2368 10.4967 11.3476 10.5976L17.2333 15.9585C17.3733 16.0879 17.4527 16.2787 17.457 16.4955C17.4621 16.7535 17.3609 17.0116 17.1862 17.1863C17.0116 17.3608 16.7539 17.4623 16.4954 17.4571C16.2786 17.4528 16.0878 17.3734 15.9598 17.2349L10.7138 11.4754C10.6129 11.3645 10.4412 11.3566 10.3304 11.4574C10.2197 11.5584 10.2117 11.7301 10.3126 11.8408L15.5599 17.6017C15.7905 17.8511 16.1189 17.9925 16.4848 17.9997L16.5132 18C16.9064 18 17.2996 17.8405 17.5698 17.5701C17.8469 17.293 18.0075 16.8874 17.9995 16.4848C17.9923 16.119 17.851 15.7906 17.6002 15.5586Z" fill="#554045"/>
<path fill-rule="evenodd" clip-rule="evenodd" d="M55.0187 7.80898C54.4083 7.79434 53.8248 7.55846 53.3756 7.1447C53.3672 7.13697 53.3592 7.12868 53.3519 7.11984L50.2522 3.43523C50.038 3.18043 50.0538 2.81086 50.2892 2.57553C50.4093 2.45538 50.5691 2.38909 50.7391 2.38909C50.9091 2.38909 51.0689 2.45538 51.189 2.57553L54.0002 5.3865C54.0664 5.45279 54.1743 5.45279 54.2406 5.3865L54.379 5.24798L51.2462 2.1151C51.1402 2.00917 51.1402 1.83737 51.2462 1.73144C51.3521 1.62552 51.524 1.62552 51.6299 1.73144L54.7628 4.86419L54.9658 4.66132L51.8329 1.52843C51.727 1.4225 51.727 1.2507 51.8329 1.14478C51.9388 1.03871 52.1106 1.03871 52.2165 1.14478L55.3494 4.27753L55.4879 4.13915C55.5542 4.07286 55.5542 3.965 55.4879 3.89871L52.677 1.0876C52.4288 0.839568 52.4288 0.43589 52.677 0.187717C52.9123 -0.0476122 53.2819 -0.0636323 53.5365 0.150705L57.2213 3.25031C57.2301 3.25777 57.2384 3.26578 57.2462 3.2742C57.6599 3.72332 57.8958 4.30681 57.9104 4.91722L57.9106 4.92302L57.9139 5.98864C57.9153 6.40391 58.0915 6.80331 58.3977 7.08421L58.8998 7.54161C59.0106 7.64257 59.0186 7.81409 58.9178 7.92499C58.8168 8.03575 58.6453 8.04376 58.5344 7.94281L58.0314 7.48471C57.6135 7.10106 57.3731 6.55666 57.3711 5.99043L57.368 4.92758C57.3559 4.45554 57.1752 4.00394 56.8584 3.65426L53.1873 0.565984C53.1497 0.534496 53.0953 0.536844 53.0606 0.571508C53.0242 0.607967 53.0242 0.66749 53.0606 0.703949L55.8716 3.51492C56.1495 3.79278 56.1495 4.24493 55.8716 4.5228L55.5414 4.85301L55.5413 4.85314L55.5411 4.85328L54.9546 5.43981V5.43995L54.6242 5.77015C54.3464 6.04816 53.8942 6.04816 53.6164 5.77029L50.8054 2.95919C50.7815 2.9353 50.7536 2.93184 50.7391 2.93184C50.7246 2.93184 50.6967 2.9353 50.673 2.95919C50.6383 2.99385 50.6359 3.04826 50.6674 3.08583L53.7556 6.75691C54.1054 7.07358 54.5569 7.25436 55.029 7.26637L56.0917 7.26969C56.6581 7.27162 57.2025 7.51192 57.5853 7.92927L58.0554 8.44523C58.1564 8.55599 58.1484 8.72765 58.0375 8.8286C57.9856 8.87597 57.9201 8.89931 57.8549 8.89931C57.7812 8.89931 57.7078 8.86948 57.6542 8.81065L57.1848 8.29539C56.9046 7.99004 56.5054 7.81368 56.0899 7.81244L55.0243 7.80912L55.0187 7.80898ZM63.5571 7.19609L64.6206 7.1287L64.6263 7.12828C65.3842 7.06434 66.0645 6.66729 66.4929 6.03864L67.3337 4.8051C68.0655 3.7312 68.349 2.43413 68.1318 1.15294C68.0891 0.901314 67.9604 0.669437 67.7695 0.50026C67.5785 0.330945 67.333 0.230957 67.078 0.218804C65.7796 0.156657 64.5263 0.593756 63.548 1.44903L62.4241 2.43164C61.8514 2.93227 61.5387 3.65524 61.566 4.41551L61.5663 4.42117L61.6269 5.48498C61.6506 5.89971 61.4985 6.30891 61.2106 6.60694L52.4302 15.6271C52.1951 15.8722 52.0737 16.2085 52.0885 16.574C52.1048 16.9765 52.2895 17.3717 52.5825 17.6315C52.8473 17.8661 53.2112 17.9998 53.5749 17.9998C53.6139 17.9998 53.6528 17.9983 53.6916 17.9951C54.0564 17.966 54.3758 17.8052 54.5921 17.5409L62.4926 7.74464C62.7546 7.42231 63.1426 7.22233 63.5571 7.19609ZM62.0708 7.40325L54.171 17.1987C54.0503 17.3462 53.8647 17.4371 53.6484 17.4543C53.3911 17.4749 53.1273 17.3893 52.9426 17.2255C52.7578 17.0615 52.6412 16.8099 52.6309 16.5521C52.622 16.3354 52.6898 16.1403 52.8205 16.0041L61.6002 6.98466C61.9937 6.57739 62.2009 6.01959 62.1689 5.45419L62.1082 4.39313C62.0877 3.79804 62.3328 3.23223 62.7812 2.84016L63.9051 1.85755C64.7774 1.09507 65.8952 0.705759 67.0522 0.760724C67.184 0.767077 67.3108 0.818728 67.4095 0.906286C67.5082 0.993706 67.5747 1.11358 67.5968 1.24354C67.7904 2.38579 67.5377 3.542 66.8853 4.49934L66.0445 5.73302C65.709 6.22522 65.1766 6.53637 64.5833 6.58733L63.5227 6.65445C62.9576 6.69036 62.4286 6.96297 62.0708 7.40325ZM67.7017 15.5586L61.8145 10.1964C61.7037 10.0955 61.5322 10.1035 61.4311 10.2142C61.3303 10.325 61.3383 10.4967 61.4491 10.5976L67.3348 15.9585C67.4748 16.0879 67.5542 16.2787 67.5585 16.4955C67.5636 16.7535 67.4624 17.0116 67.2877 17.1863C67.1131 17.3608 66.8554 17.4623 66.5969 17.4571C66.3801 17.4528 66.1893 17.3734 66.0613 17.2349L60.8153 11.4754C60.7144 11.3645 60.5427 11.3566 60.4319 11.4574C60.3212 11.5584 60.3132 11.7301 60.4141 11.8408L65.6614 17.6017C65.892 17.8511 66.2204 17.9925 66.5863 17.9997L66.6147 18C67.0079 18 67.4011 17.8405 67.6713 17.5701C67.9484 17.293 68.109 16.8874 68.101 16.4848C68.0938 16.119 67.9525 15.7906 67.7017 15.5586Z" fill="#CA6E55"/>
<path fill-rule="evenodd" clip-rule="evenodd" d="M105.019 7.80898C104.408 7.79434 103.825 7.55846 103.376 7.1447C103.367 7.13697 103.359 7.12868 103.352 7.11984L100.252 3.43523C100.038 3.18043 100.054 2.81086 100.289 2.57553C100.409 2.45538 100.569 2.38909 100.739 2.38909C100.909 2.38909 101.069 2.45538 101.189 2.57553L104 5.3865C104.066 5.45279 104.174 5.45279 104.241 5.3865L104.379 5.24798L101.246 2.1151C101.14 2.00917 101.14 1.83737 101.246 1.73144C101.352 1.62552 101.524 1.62552 101.63 1.73144L104.763 4.86419L104.966 4.66132L101.833 1.52843C101.727 1.4225 101.727 1.2507 101.833 1.14478C101.939 1.03871 102.111 1.03871 102.217 1.14478L105.349 4.27753L105.488 4.13915C105.554 4.07286 105.554 3.965 105.488 3.89871L102.677 1.0876C102.429 0.839568 102.429 0.43589 102.677 0.187717C102.912 -0.0476122 103.282 -0.0636323 103.537 0.150705L107.221 3.25031C107.23 3.25777 107.238 3.26578 107.246 3.2742C107.66 3.72332 107.896 4.30681 107.91 4.91722L107.911 4.92302L107.914 5.98864C107.915 6.40391 108.091 6.80331 108.398 7.08421L108.9 7.54161C109.011 7.64257 109.019 7.81409 108.918 7.92499C108.817 8.03575 108.645 8.04376 108.534 7.94281L108.031 7.48471C107.614 7.10106 107.373 6.55666 107.371 5.99043L107.368 4.92758C107.356 4.45554 107.175 4.00394 106.858 3.65426L103.187 0.565984C103.15 0.534496 103.095 0.536844 103.061 0.571508C103.024 0.607967 103.024 0.66749 103.061 0.703949L105.872 3.51492C106.149 3.79278 106.149 4.24493 105.872 4.5228L105.541 4.85301L105.541 4.85314L105.541 4.85328L104.955 5.43981V5.43995L104.624 5.77015C104.346 6.04816 103.894 6.04816 103.616 5.77029L100.805 2.95919C100.782 2.9353 100.754 2.93184 100.739 2.93184C100.725 2.93184 100.697 2.9353 100.673 2.95919C100.638 2.99385 100.636 3.04826 100.667 3.08583L103.756 6.75691C104.105 7.07358 104.557 7.25436 105.029 7.26637L106.092 7.26969C106.658 7.27162 107.203 7.51192 107.585 7.92927L108.055 8.44523C108.156 8.55599 108.148 8.72765 108.037 8.8286C107.986 8.87597 107.92 8.89931 107.855 8.89931C107.781 8.89931 107.708 8.86948 107.654 8.81065L107.185 8.29539C106.905 7.99004 106.505 7.81368 106.09 7.81244L105.024 7.80912L105.019 7.80898ZM113.557 7.19609L114.621 7.1287L114.626 7.12828C115.384 7.06434 116.065 6.66729 116.493 6.03864L117.334 4.8051C118.065 3.7312 118.349 2.43413 118.132 1.15294C118.089 0.901314 117.96 0.669437 117.77 0.50026C117.579 0.330945 117.333 0.230957 117.078 0.218804C115.78 0.156657 114.526 0.593756 113.548 1.44903L112.424 2.43164C111.851 2.93227 111.539 3.65524 111.566 4.41551L111.566 4.42117L111.627 5.48498C111.651 5.89971 111.499 6.30891 111.211 6.60694L102.43 15.6271C102.195 15.8722 102.074 16.2085 102.089 16.574C102.105 16.9765 102.289 17.3717 102.583 17.6315C102.847 17.8661 103.211 17.9998 103.575 17.9998C103.614 17.9998 103.653 17.9983 103.692 17.9951C104.056 17.966 104.376 17.8052 104.592 17.5409L112.493 7.74464C112.755 7.42231 113.143 7.22233 113.557 7.19609ZM112.071 7.40325L104.171 17.1987C104.05 17.3462 103.865 17.4371 103.648 17.4543C103.391 17.4749 103.127 17.3893 102.943 17.2255C102.758 17.0615 102.641 16.8099 102.631 16.5521C102.622 16.3354 102.69 16.1403 102.82 16.0041L111.6 6.98466C111.994 6.57739 112.201 6.01959 112.169 5.45419L112.108 4.39313C112.088 3.79804 112.333 3.23223 112.781 2.84016L113.905 1.85755C114.777 1.09507 115.895 0.705759 117.052 0.760724C117.184 0.767077 117.311 0.818728 117.409 0.906286C117.508 0.993706 117.575 1.11358 117.597 1.24354C117.79 2.38579 117.538 3.542 116.885 4.49934L116.044 5.73302C115.709 6.22522 115.177 6.53637 114.583 6.58733L113.523 6.65445C112.958 6.69036 112.429 6.96297 112.071 7.40325ZM117.702 15.5586L111.814 10.1964C111.704 10.0955 111.532 10.1035 111.431 10.2142C111.33 10.325 111.338 10.4967 111.449 10.5976L117.335 15.9585C117.475 16.0879 117.554 16.2787 117.559 16.4955C117.564 16.7535 117.462 17.0116 117.288 17.1863C117.113 17.3608 116.855 17.4623 116.597 17.4571C116.38 17.4528 116.189 17.3734 116.061 17.2349L110.815 11.4754C110.714 11.3645 110.543 11.3566 110.432 11.4574C110.321 11.5584 110.313 11.7301 110.414 11.8408L115.661 17.6017C115.892 17.8511 116.22 17.9925 116.586 17.9997L116.615 18C117.008 18 117.401 17.8405 117.671 17.5701C117.948 17.293 118.109 16.8874 118.101 16.4848C118.094 16.119 117.953 15.7906 117.702 15.5586Z" fill="#554045"/>
<path fill-rule="evenodd" clip-rule="evenodd" d="M155.019 7.80898C154.408 7.79434 153.825 7.55846 153.376 7.1447C153.367 7.13697 153.359 7.12868 153.352 7.11984L150.252 3.43523C150.038 3.18043 150.054 2.81086 150.289 2.57553C150.409 2.45538 150.569 2.38909 150.739 2.38909C150.909 2.38909 151.069 2.45538 151.189 2.57553L154 5.3865C154.066 5.45279 154.174 5.45279 154.241 5.3865L154.379 5.24798L151.246 2.1151C151.14 2.00917 151.14 1.83737 151.246 1.73144C151.352 1.62552 151.524 1.62552 151.63 1.73144L154.763 4.86419L154.966 4.66132L151.833 1.52843C151.727 1.4225 151.727 1.2507 151.833 1.14478C151.939 1.03871 152.111 1.03871 152.217 1.14478L155.349 4.27753L155.488 4.13915C155.554 4.07286 155.554 3.965 155.488 3.89871L152.677 1.0876C152.429 0.839568 152.429 0.43589 152.677 0.187717C152.912 -0.0476122 153.282 -0.0636323 153.537 0.150705L157.221 3.25031C157.23 3.25777 157.238 3.26578 157.246 3.2742C157.66 3.72332 157.896 4.30681 157.91 4.91722L157.911 4.92302L157.914 5.98864C157.915 6.40391 158.091 6.80331 158.398 7.08421L158.9 7.54161C159.011 7.64257 159.019 7.81409 158.918 7.92499C158.817 8.03575 158.645 8.04376 158.534 7.94281L158.031 7.48471C157.614 7.10106 157.373 6.55666 157.371 5.99043L157.368 4.92758C157.356 4.45554 157.175 4.00394 156.858 3.65426L153.187 0.565984C153.15 0.534496 153.095 0.536844 153.061 0.571508C153.024 0.607967 153.024 0.66749 153.061 0.703949L155.872 3.51492C156.149 3.79278 156.149 4.24493 155.872 4.5228L155.541 4.85301L155.541 4.85314L155.541 4.85328L154.955 5.43981V5.43995L154.624 5.77015C154.346 6.04816 153.894 6.04816 153.616 5.77029L150.805 2.95919C150.782 2.9353 150.754 2.93184 150.739 2.93184C150.725 2.93184 150.697 2.9353 150.673 2.95919C150.638 2.99385 150.636 3.04826 150.667 3.08583L153.756 6.75691C154.105 7.07358 154.557 7.25436 155.029 7.26637L156.092 7.26969C156.658 7.27162 157.203 7.51192 157.585 7.92927L158.055 8.44523C158.156 8.55599 158.148 8.72765 158.037 8.8286C157.986 8.87597 157.92 8.89931 157.855 8.89931C157.781 8.89931 157.708 8.86948 157.654 8.81065L157.185 8.29539C156.905 7.99004 156.505 7.81368 156.09 7.81244L155.024 7.80912L155.019 7.80898ZM163.557 7.19609L164.621 7.1287L164.626 7.12828C165.384 7.06434 166.065 6.66729 166.493 6.03864L167.334 4.8051C168.065 3.7312 168.349 2.43413 168.132 1.15294C168.089 0.901314 167.96 0.669437 167.77 0.50026C167.579 0.330945 167.333 0.230957 167.078 0.218804C165.78 0.156657 164.526 0.593756 163.548 1.44903L162.424 2.43164C161.851 2.93227 161.539 3.65524 161.566 4.41551L161.566 4.42117L161.627 5.48498C161.651 5.89971 161.499 6.30891 161.211 6.60694L152.43 15.6271C152.195 15.8722 152.074 16.2085 152.089 16.574C152.105 16.9765 152.289 17.3717 152.583 17.6315C152.847 17.8661 153.211 17.9998 153.575 17.9998C153.614 17.9998 153.653 17.9983 153.692 17.9951C154.056 17.966 154.376 17.8052 154.592 17.5409L162.493 7.74464C162.755 7.42231 163.143 7.22233 163.557 7.19609ZM162.071 7.40325L154.171 17.1987C154.05 17.3462 153.865 17.4371 153.648 17.4543C153.391 17.4749 153.127 17.3893 152.943 17.2255C152.758 17.0615 152.641 16.8099 152.631 16.5521C152.622 16.3354 152.69 16.1403 152.82 16.0041L161.6 6.98466C161.994 6.57739 162.201 6.01959 162.169 5.45419L162.108 4.39313C162.088 3.79804 162.333 3.23223 162.781 2.84016L163.905 1.85755C164.777 1.09507 165.895 0.705759 167.052 0.760724C167.184 0.767077 167.311 0.818728 167.409 0.906286C167.508 0.993706 167.575 1.11358 167.597 1.24354C167.79 2.38579 167.538 3.542 166.885 4.49934L166.044 5.73302C165.709 6.22522 165.177 6.53637 164.583 6.58733L163.523 6.65445C162.958 6.69036 162.429 6.96297 162.071 7.40325ZM167.702 15.5586L161.814 10.1964C161.704 10.0955 161.532 10.1035 161.431 10.2142C161.33 10.325 161.338 10.4967 161.449 10.5976L167.335 15.9585C167.475 16.0879 167.554 16.2787 167.559 16.4955C167.564 16.7535 167.462 17.0116 167.288 17.1863C167.113 17.3608 166.855 17.4623 166.597 17.4571C166.38 17.4528 166.189 17.3734 166.061 17.2349L160.815 11.4754C160.714 11.3645 160.543 11.3566 160.432 11.4574C160.321 11.5584 160.313 11.7301 160.414 11.8408L165.661 17.6017C165.892 17.8511 166.22 17.9925 166.586 17.9997L166.615 18C167.008 18 167.401 17.8405 167.671 17.5701C167.948 17.293 168.109 16.8874 168.101 16.4848C168.094 16.119 167.953 15.7906 167.702 15.5586Z" fill="#CA6E55"/>
<path fill-rule="evenodd" clip-rule="evenodd" d="M205.019 7.80898C204.408 7.79434 203.825 7.55846 203.376 7.1447C203.367 7.13697 203.359 7.12868 203.352 7.11984L200.252 3.43523C200.038 3.18043 200.054 2.81086 200.289 2.57553C200.409 2.45538 200.569 2.38909 200.739 2.38909C200.909 2.38909 201.069 2.45538 201.189 2.57553L204 5.3865C204.066 5.45279 204.174 5.45279 204.241 5.3865L204.379 5.24798L201.246 2.1151C201.14 2.00917 201.14 1.83737 201.246 1.73144C201.352 1.62552 201.524 1.62552 201.63 1.73144L204.763 4.86419L204.966 4.66132L201.833 1.52843C201.727 1.4225 201.727 1.2507 201.833 1.14478C201.939 1.03871 202.111 1.03871 202.217 1.14478L205.349 4.27753L205.488 4.13915C205.554 4.07286 205.554 3.965 205.488 3.89871L202.677 1.0876C202.429 0.839568 202.429 0.43589 202.677 0.187717C202.912 -0.0476122 203.282 -0.0636323 203.537 0.150705L207.221 3.25031C207.23 3.25777 207.238 3.26578 207.246 3.2742C207.66 3.72332 207.896 4.30681 207.91 4.91722L207.911 4.92302L207.914 5.98864C207.915 6.40391 208.091 6.80331 208.398 7.08421L208.9 7.54161C209.011 7.64257 209.019 7.81409 208.918 7.92499C208.817 8.03575 208.645 8.04376 208.534 7.94281L208.031 7.48471C207.614 7.10106 207.373 6.55666 207.371 5.99043L207.368 4.92758C207.356 4.45554 207.175 4.00394 206.858 3.65426L203.187 0.565984C203.15 0.534496 203.095 0.536844 203.061 0.571508C203.024 0.607967 203.024 0.66749 203.061 0.703949L205.872 3.51492C206.149 3.79278 206.149 4.24493 205.872 4.5228L205.541 4.85301L205.541 4.85314L205.541 4.85328L204.955 5.43981V5.43995L204.624 5.77015C204.346 6.04816 203.894 6.04816 203.616 5.77029L200.805 2.95919C200.782 2.9353 200.754 2.93184 200.739 2.93184C200.725 2.93184 200.697 2.9353 200.673 2.95919C200.638 2.99385 200.636 3.04826 200.667 3.08583L203.756 6.75691C204.105 7.07358 204.557 7.25436 205.029 7.26637L206.092 7.26969C206.658 7.27162 207.203 7.51192 207.585 7.92927L208.055 8.44523C208.156 8.55599 208.148 8.72765 208.037 8.8286C207.986 8.87597 207.92 8.89931 207.855 8.89931C207.781 8.89931 207.708 8.86948 207.654 8.81065L207.185 8.29539C206.905 7.99004 206.505 7.81368 206.09 7.81244L205.024 7.80912L205.019 7.80898ZM213.557 7.19609L214.621 7.1287L214.626 7.12828C215.384 7.06434 216.065 6.66729 216.493 6.03864L217.334 4.8051C218.065 3.7312 218.349 2.43413 218.132 1.15294C218.089 0.901314 217.96 0.669437 217.77 0.50026C217.579 0.330945 217.333 0.230957 217.078 0.218804C215.78 0.156657 214.526 0.593756 213.548 1.44903L212.424 2.43164C211.851 2.93227 211.539 3.65524 211.566 4.41551L211.566 4.42117L211.627 5.48498C211.651 5.89971 211.499 6.30891 211.211 6.60694L202.43 15.6271C202.195 15.8722 202.074 16.2085 202.089 16.574C202.105 16.9765 202.289 17.3717 202.583 17.6315C202.847 17.8661 203.211 17.9998 203.575 17.9998C203.614 17.9998 203.653 17.9983 203.692 17.9951C204.056 17.966 204.376 17.8052 204.592 17.5409L212.493 7.74464C212.755 7.42231 213.143 7.22233 213.557 7.19609ZM212.071 7.40325L204.171 17.1987C204.05 17.3462 203.865 17.4371 203.648 17.4543C203.391 17.4749 203.127 17.3893 202.943 17.2255C202.758 17.0615 202.641 16.8099 202.631 16.5521C202.622 16.3354 202.69 16.1403 202.82 16.0041L211.6 6.98466C211.994 6.57739 212.201 6.01959 212.169 5.45419L212.108 4.39313C212.088 3.79804 212.333 3.23223 212.781 2.84016L213.905 1.85755C214.777 1.09507 215.895 0.705759 217.052 0.760724C217.184 0.767077 217.311 0.818728 217.409 0.906286C217.508 0.993706 217.575 1.11358 217.597 1.24354C217.79 2.38579 217.538 3.542 216.885 4.49934L216.044 5.73302C215.709 6.22522 215.177 6.53637 214.583 6.58733L213.523 6.65445C212.958 6.69036 212.429 6.96297 212.071 7.40325ZM217.702 15.5586L211.814 10.1964C211.704 10.0955 211.532 10.1035 211.431 10.2142C211.33 10.325 211.338 10.4967 211.449 10.5976L217.335 15.9585C217.475 16.0879 217.554 16.2787 217.559 16.4955C217.564 16.7535 217.462 17.0116 217.288 17.1863C217.113 17.3608 216.855 17.4623 216.597 17.4571C216.38 17.4528 216.189 17.3734 216.061 17.2349L210.815 11.4754C210.714 11.3645 210.543 11.3566 210.432 11.4574C210.321 11.5584 210.313 11.7301 210.414 11.8408L215.661 17.6017C215.892 17.8511 216.22 17.9925 216.586 17.9997L216.615 18C217.008 18 217.401 17.8405 217.671 17.5701C217.948 17.293 218.109 16.8874 218.101 16.4848C218.094 16.119 217.953 15.7906 217.702 15.5586Z" fill="#554045"/>
</svg>
