<?xml version="1.0" encoding="UTF-8"?> <svg xmlns="http://www.w3.org/2000/svg" width="257.031" height="17.531" viewBox="0 0 257.031 17.531"><defs><style> .cls-1 { fill: #141416; fill-rule: evenodd; } </style></defs><path id="gift-kutab-subheading" class="cls-1" d="M713.02,260.075H699.6v17.063h2.953V262.466h7.512v14.672h2.953V260.075Zm10.559,10.734a6.919,6.919,0,0,0,4.611-1.4,4.842,4.842,0,0,0,1.646-3.906,5.009,5.009,0,0,0-1.681-3.942,6.6,6.6,0,0,0-4.541-1.49h-6.528v17.063h2.965v-6.329h3.528Zm-3.528-8.343H723.7a3.252,3.252,0,0,1,2.32.849,2.951,2.951,0,0,1,.844,2.209,2.738,2.738,0,0,1-.832,2.151,3.511,3.511,0,0,1-2.414.744h-3.563v-5.953Zm15.746,9.773V260.075h-2.965v17.063H735.8l7.488-12.153v12.153h2.965V260.075h-2.965Zm34.68-12.164H757.059v17.063h2.953V262.466h7.512v14.672h2.953V260.075Zm14.039,7.1h-7.008v-4.711h8.11v-2.391H774.543v17.063H785.7V274.77h-8.192v-5.25h7.008v-2.343Zm10.589,3.632a6.917,6.917,0,0,0,4.611-1.4,4.84,4.84,0,0,0,1.647-3.906,5.01,5.01,0,0,0-1.682-3.942,6.6,6.6,0,0,0-4.541-1.49h-6.527v17.063h2.965v-6.329h3.527Zm-3.527-8.343h3.644a3.254,3.254,0,0,1,2.321.849,2.954,2.954,0,0,1,.843,2.209,2.734,2.734,0,0,1-.832,2.151,3.509,3.509,0,0,1-2.414.744h-3.562v-5.953Zm19,14.672a6.7,6.7,0,0,0,4.412-1.289,4.545,4.545,0,0,0,1.541-3.692,4.112,4.112,0,0,0-.756-2.49,3.769,3.769,0,0,0-2.138-1.412,4.076,4.076,0,0,0,1.851-1.453,3.684,3.684,0,0,0,.633-2.11,4.087,4.087,0,0,0-1.512-3.457,7.143,7.143,0,0,0-4.406-1.16h-5.848v17.063h6.223Zm0.281-7.7a2.727,2.727,0,0,1,1.934,4.641,3.188,3.188,0,0,1-2.18.691h-3.293v-5.332h3.539Zm-3.539-6.972h2.883a3.639,3.639,0,0,1,2.244.562,2.177,2.177,0,0,1,.721,1.828,2.148,2.148,0,0,1-.78,1.776,3.359,3.359,0,0,1-2.162.627h-2.906v-4.793Zm26.189,5.636a10.351,10.351,0,0,0-.891-4.376,6.561,6.561,0,0,0-2.49-2.883,7.287,7.287,0,0,0-7.394.011,6.643,6.643,0,0,0-2.5,2.924,10.377,10.377,0,0,0-.885,4.406v0.961a10.144,10.144,0,0,0,.9,4.325,6.653,6.653,0,0,0,2.508,2.888,7.268,7.268,0,0,0,7.406,0,6.552,6.552,0,0,0,2.479-2.906,10.469,10.469,0,0,0,.867-4.4V268.1Zm-2.965.95a7.557,7.557,0,0,1-1.06,4.382,3.485,3.485,0,0,1-3.03,1.5,3.527,3.527,0,0,1-3.041-1.535,7.4,7.4,0,0,1-1.1-4.347v-0.985a7.3,7.3,0,0,1,1.107-4.259,3.784,3.784,0,0,1,6.047,0,7.458,7.458,0,0,1,1.072,4.348v0.891Zm6.374-8.977v17.063h2.953v-5.625L839.581,264l5.028,13.137h2.121l5.039-13.149-0.293,7.524v5.625h2.953V260.075H850.6l-4.91,13.078-4.922-13.078h-3.844ZM870.5,267.27h-1.9v2.344h2a3.946,3.946,0,0,1,2.455.651,2.483,2.483,0,0,1,.838,2.091,2.317,2.317,0,0,1-.956,1.922,4.017,4.017,0,0,1-2.525.739,3.519,3.519,0,0,1-2.32-.756,2.322,2.322,0,0,1-.914-1.858h-2.953a4.545,4.545,0,0,0,.732,2.555,4.907,4.907,0,0,0,2.191,1.758,8.007,8.007,0,0,0,3.264.644,7.489,7.489,0,0,0,4.688-1.353,4.369,4.369,0,0,0,1.757-3.651,4.022,4.022,0,0,0-.755-2.49,4.465,4.465,0,0,0-2.186-1.494,4.737,4.737,0,0,0,1.969-1.535,3.569,3.569,0,0,0,.7-2.133,4.289,4.289,0,0,0-1.623-3.574,7.2,7.2,0,0,0-4.553-1.278,7.429,7.429,0,0,0-3.023.6,5.059,5.059,0,0,0-2.145,1.693,4.186,4.186,0,0,0-.773,2.485h2.953a2.118,2.118,0,0,1,.855-1.741,3.34,3.34,0,0,1,2.133-.673,3.725,3.725,0,0,1,2.356.679,2.2,2.2,0,0,1,.867,1.828q0,2.544-3.141,2.543h0Zm20.514,9.868h3.094l-6.457-17.063H884.99l-6.445,17.063h3.082l1.383-3.973h6.609Zm-4.7-13.442,2.472,7.078h-4.945Zm20.7,13.442h3.563l-6.375-8.895,5.859-8.168h-3.633l-5.015,7.172h-1.629v-7.172h-2.953v17.063h2.953v-7.313H901.8Zm17.822,0h3.093l-6.457-17.063h-2.66l-6.445,17.063h3.082l1.383-3.973h6.609Zm-4.7-13.442,2.473,7.078h-4.945ZM935.8,267.27h-1.9v2.344h2a3.944,3.944,0,0,1,2.455.651,2.48,2.48,0,0,1,.838,2.091,2.316,2.316,0,0,1-.955,1.922,4.019,4.019,0,0,1-2.525.739,3.521,3.521,0,0,1-2.321-.756,2.325,2.325,0,0,1-.914-1.858h-2.953a4.537,4.537,0,0,0,.733,2.555,4.9,4.9,0,0,0,2.191,1.758,8.007,8.007,0,0,0,3.264.644,7.486,7.486,0,0,0,4.687-1.353,4.368,4.368,0,0,0,1.758-3.651,4.016,4.016,0,0,0-.756-2.49,4.462,4.462,0,0,0-2.185-1.494,4.734,4.734,0,0,0,1.968-1.535,3.564,3.564,0,0,0,.7-2.133,4.29,4.29,0,0,0-1.624-3.574,7.194,7.194,0,0,0-4.552-1.278,7.43,7.43,0,0,0-3.024.6,5.049,5.049,0,0,0-2.144,1.693,4.186,4.186,0,0,0-.774,2.485h2.953a2.119,2.119,0,0,1,.856-1.741,3.34,3.34,0,0,1,2.133-.673,3.72,3.72,0,0,1,2.355.679,2.2,2.2,0,0,1,.867,1.828q0,2.544-3.14,2.543h0Zm19.656-.093h-7.008v-4.711h8.11v-2.391H945.482v17.063h11.157V274.77h-8.192v-5.25h7.008v-2.343Z" transform="translate(-699.594 -259.844)"></path></svg> 