<?xml version="1.0" encoding="UTF-8"?> <svg xmlns="http://www.w3.org/2000/svg" width="480.622" height="45.468" viewBox="0 0 480.622 45.468"><defs><style> .cls-1 { fill: #141416; fill-rule: evenodd; } </style></defs><path id="gift-kutab-h1" class="cls-1" d="M608.13,206.84l10.57-16.36H608.528l-9.8,16.594V190.48h-9.3v34.266h9.3V207.379L608.9,224.746H619.38Zm26.782,17.4a11.046,11.046,0,0,0,4.488-3.094,25.563,25.563,0,0,0,3.82-6.621l10.406-24.047h-9.984l-3.492,9.539a74,74,0,0,0-2.367,7.453h-0.328q-0.165-.656-0.446-1.546t-0.609-1.793q-0.328-.9-0.668-1.746t-0.574-1.454l-4.219-10.453h-9.984L632.134,215a4.721,4.721,0,0,1-1.629,2.355,4.292,4.292,0,0,1-2.449.668,15.371,15.371,0,0,1-5.578-.867v7.36a23.977,23.977,0,0,0,6,.7A18.573,18.573,0,0,0,634.912,224.242Zm38.172-26.191h8.344V190.48H655.459v7.571h8.367v26.7h9.258v-26.7Zm45.591,26.7-11.32-34.406H695l-11.18,34.406H694l1.735-6.422h11.132l1.688,6.422h10.125ZM697.651,210.73q2.133-8.062,2.754-10.8t0.832-3.938q0.234,1.29.973,4.266t1.254,4.851l1.476,5.625h-7.289Zm47.513-4.98q-3.75-2.613-10.945-2.613h-1.336V197.91h13.242v-7.43H723.578v34.266H734.57q6.962,0,10.652-2.871a9.843,9.843,0,0,0,3.692-8.262Q748.914,208.363,745.164,205.75Zm-12.281,4.394h1.195a7.62,7.62,0,0,1,4.137.891,3.082,3.082,0,0,1,1.347,2.766,3.341,3.341,0,0,1-1.265,2.836,7.02,7.02,0,0,1-4.172.96h-1.242v-7.453Zm36.618,14.6h13.336q6.048,0,9.551-2.684a8.751,8.751,0,0,0,3.5-7.347,8.492,8.492,0,0,0-1.43-5.11,7.974,7.974,0,0,0-4.617-2.812v-0.235a6.585,6.585,0,0,0,3.891-2.625,8.166,8.166,0,0,0,1.476-4.921,7.034,7.034,0,0,0-3.386-6.458q-3.387-2.073-10.371-2.074H769.5v34.266Zm9.258-27.258h2.6q4.359,0,4.359,2.883a2.855,2.855,0,0,1-1.09,2.437,5.032,5.032,0,0,1-3.082.821h-2.789v-6.141ZM781.83,210.4a5.344,5.344,0,0,1,3.363.914,3.147,3.147,0,0,1,1.16,2.625q0,3.657-4.336,3.656h-3.258v-7.2h3.071Zm62.962-19.922H816.714v34.266h9.3v-26.7h9.445v26.7h9.328V190.48Zm36.427,3.938q-4.22-4.476-12.4-4.477-8.155,0-12.433,4.512t-4.278,13.066q0,8.649,4.3,13.172t12.363,4.524q8.179,0,12.422-4.5t4.242-13.149Q885.437,198.895,881.219,194.418Zm-12.4,3.117a5.88,5.88,0,0,1,5.145,2.449q1.722,2.449,1.722,7.582,0,5.111-1.7,7.524a5.945,5.945,0,0,1-5.215,2.414q-6.913,0-6.914-9.938,0-10.031,6.961-10.031h0Zm58.505,19.617h-4.688V190.48H899.786a71.279,71.279,0,0,1-2.578,14.637,52.586,52.586,0,0,1-5.063,12.035h-2.836V235.41h9.024V224.746H918.3V235.41h9.024V217.152Zm-25.383,0a56.737,56.737,0,0,0,5.273-19.1h6.094v19.1H901.942Zm62.3,7.594L952.923,190.34H940.572l-11.18,34.406h10.172l1.734-6.422h11.133l1.688,6.422h10.125ZM943.22,210.73q2.133-8.062,2.754-10.8t0.832-3.938q0.234,1.29.973,4.266t1.254,4.851l1.476,5.625H943.22Zm47.536-17.414q-3.258-2.835-9.75-2.836H969.147v34.266h9.258V213.379h2.6q6.234,0,9.621-3.129t3.387-8.871Q994.014,196.153,990.756,193.316Zm-12.351,4.641h2.39q3.845,0,3.844,3.469a4.25,4.25,0,0,1-1.231,3.234,4.609,4.609,0,0,1-3.316,1.172h-1.687v-7.875Zm50.115-3.539q-4.215-4.476-12.4-4.477-8.16,0-12.43,4.512-4.29,4.512-4.281,13.066,0,8.649,4.3,13.172t12.36,4.524q8.19,0,12.43-4.5t4.24-13.149Q1032.74,198.895,1028.52,194.418Zm-12.4,3.117a5.862,5.862,0,0,1,5.14,2.449q1.725,2.449,1.73,7.582,0,5.111-1.7,7.524a5.944,5.944,0,0,1-5.22,2.414q-6.915,0-6.91-9.938,0-10.031,6.96-10.031h0Zm42.71,9.305,10.57-16.36h-10.17l-9.8,16.594V190.48h-9.31v34.266h9.31V207.379l10.17,17.367h10.48Z" transform="translate(-589.438 -189.938)"></path></svg> 