<?xml version="1.0" encoding="UTF-8"?> <svg xmlns="http://www.w3.org/2000/svg" width="268.375" height="17.531" viewBox="0 0 268.375 17.531"><defs><style> .cls-1 { fill: #141416; fill-rule: evenodd; } </style></defs><path id="hatchapuri-sub-heading" class="cls-1" d="M209.251,260.075H195.833v17.063h2.953V262.466H206.3v14.672h2.953V260.075Zm10.558,10.734a6.92,6.92,0,0,0,4.612-1.4,4.842,4.842,0,0,0,1.646-3.906,5.01,5.01,0,0,0-1.682-3.942,6.6,6.6,0,0,0-4.541-1.49h-6.527v17.063h2.965v-6.329h3.527Zm-3.527-8.343h3.644a3.254,3.254,0,0,1,2.321.849,2.954,2.954,0,0,1,.843,2.209,2.734,2.734,0,0,1-.832,2.151,3.507,3.507,0,0,1-2.414.744h-3.562v-5.953Zm15.745,9.773V260.075h-2.965v17.063h2.965l7.489-12.153v12.153h2.964V260.075h-2.964ZM258.6,267.27h-1.9v2.344h2a3.946,3.946,0,0,1,2.455.651,2.483,2.483,0,0,1,.838,2.091,2.318,2.318,0,0,1-.955,1.922,4.022,4.022,0,0,1-2.526.739,3.519,3.519,0,0,1-2.32-.756,2.325,2.325,0,0,1-.914-1.858h-2.953a4.545,4.545,0,0,0,.732,2.555,4.9,4.9,0,0,0,2.192,1.758,8,8,0,0,0,3.263.644,7.489,7.489,0,0,0,4.688-1.353,4.368,4.368,0,0,0,1.758-3.651,4.016,4.016,0,0,0-.756-2.49,4.465,4.465,0,0,0-2.186-1.494,4.737,4.737,0,0,0,1.969-1.535,3.562,3.562,0,0,0,.7-2.133,4.289,4.289,0,0,0-1.623-3.574,7.2,7.2,0,0,0-4.553-1.278,7.429,7.429,0,0,0-3.023.6,5.059,5.059,0,0,0-2.145,1.693,4.192,4.192,0,0,0-.773,2.485h2.953a2.117,2.117,0,0,1,.856-1.741,3.339,3.339,0,0,1,2.132-.673,3.723,3.723,0,0,1,2.356.679,2.2,2.2,0,0,1,.867,1.828q0,2.544-3.141,2.543h0Zm20.514,9.868h3.094l-6.457-17.063h-2.66l-6.446,17.063h3.082l1.383-3.973h6.61Zm-4.7-13.442,2.473,7.078H271.94Zm20.7,13.442h3.562l-6.375-8.895,5.86-8.168h-3.633l-5.016,7.172H287.88v-7.172h-2.953v17.063h2.953v-7.313H289.9Zm17.821,0h3.094l-6.457-17.063h-2.66l-6.446,17.063h3.082l1.383-3.973h6.609Zm-4.7-13.442,2.472,7.078H305.76ZM323.9,267.27H322v2.344h2a3.946,3.946,0,0,1,2.455.651,2.483,2.483,0,0,1,.838,2.091,2.317,2.317,0,0,1-.956,1.922,4.017,4.017,0,0,1-2.525.739,3.519,3.519,0,0,1-2.32-.756,2.322,2.322,0,0,1-.914-1.858h-2.953a4.545,4.545,0,0,0,.732,2.555,4.907,4.907,0,0,0,2.191,1.758,8.007,8.007,0,0,0,3.264.644,7.489,7.489,0,0,0,4.688-1.353,4.369,4.369,0,0,0,1.757-3.651,4.022,4.022,0,0,0-.755-2.49,4.465,4.465,0,0,0-2.186-1.494,4.737,4.737,0,0,0,1.969-1.535,3.569,3.569,0,0,0,.7-2.133,4.289,4.289,0,0,0-1.623-3.574,7.2,7.2,0,0,0-4.553-1.278,7.429,7.429,0,0,0-3.023.6,5.059,5.059,0,0,0-2.145,1.693,4.186,4.186,0,0,0-.773,2.485h2.953a2.118,2.118,0,0,1,.855-1.741,3.34,3.34,0,0,1,2.133-.673,3.725,3.725,0,0,1,2.356.679,2.2,2.2,0,0,1,.867,1.828q0,2.544-3.141,2.543h0Zm19.656-.093h-7.007v-4.711h8.109v-2.391H333.581v17.063h11.156V274.77h-8.191v-5.25h7.007v-2.343Zm24.392,0.925a10.351,10.351,0,0,0-.891-4.376,6.567,6.567,0,0,0-2.49-2.883,7.289,7.289,0,0,0-7.4.011,6.656,6.656,0,0,0-2.5,2.924,10.377,10.377,0,0,0-.884,4.406v0.961a10.129,10.129,0,0,0,.9,4.325,6.653,6.653,0,0,0,2.508,2.888,7.268,7.268,0,0,0,7.406,0,6.558,6.558,0,0,0,2.479-2.906,10.469,10.469,0,0,0,.867-4.4V268.1Zm-2.965.95a7.556,7.556,0,0,1-1.061,4.382,3.483,3.483,0,0,1-3.029,1.5,3.526,3.526,0,0,1-3.041-1.535,7.4,7.4,0,0,1-1.1-4.347v-0.985a7.312,7.312,0,0,1,1.108-4.259,3.784,3.784,0,0,1,6.047,0,7.466,7.466,0,0,1,1.072,4.348v0.891Zm18.354-8.977H369.8v2.391h5.273v14.672h2.942V262.466h5.32v-2.391Zm12.251,9.481h1.676a3.411,3.411,0,0,1,2.367.726,2.667,2.667,0,0,1,.8,2.074,2.635,2.635,0,0,1-.762,2.039,2.956,2.956,0,0,1-2.086.7,2.865,2.865,0,0,1-2.033-.7,2.381,2.381,0,0,1-.756-1.828H391.94a4.321,4.321,0,0,0,1.571,3.492,6.918,6.918,0,0,0,8.173-.046,4.584,4.584,0,0,0,1.577-3.657,3.965,3.965,0,0,0-2.872-3.972,4.591,4.591,0,0,0,1.893-1.53,3.624,3.624,0,0,0,.732-2.162,4.5,4.5,0,0,0-1.459-3.568,5.863,5.863,0,0,0-4.013-1.283,6.342,6.342,0,0,0-2.795.6,4.682,4.682,0,0,0-1.945,1.682,4.311,4.311,0,0,0-.7,2.391h2.848a2.213,2.213,0,0,1,.738-1.729,2.721,2.721,0,0,1,1.887-.662,2.571,2.571,0,0,1,1.951.674,2.641,2.641,0,0,1,.639,1.892,2.424,2.424,0,0,1-.768,1.934,3.107,3.107,0,0,1-2.08.68h-1.734v2.25ZM417.558,267a8.887,8.887,0,0,0-1.413-5.367,5.739,5.739,0,0,0-8.378.047,9.155,9.155,0,0,0-1.377,5.519v2.953a8.906,8.906,0,0,0,1.435,5.4,4.927,4.927,0,0,0,4.166,1.822,4.866,4.866,0,0,0,4.19-1.869,9.313,9.313,0,0,0,1.377-5.549V267Zm-2.848,3.621a6.971,6.971,0,0,1-.692,3.393,2.2,2.2,0,0,1-2.027,1.084,2.246,2.246,0,0,1-2.1-1.172,7.412,7.412,0,0,1-.667-3.563V266.5a6.667,6.667,0,0,1,.691-3.311,2.509,2.509,0,0,1,4.137.059,7.227,7.227,0,0,1,.656,3.522v3.855Zm17.3-3.621a8.887,8.887,0,0,0-1.412-5.367,5.74,5.74,0,0,0-8.379.047,9.162,9.162,0,0,0-1.377,5.519v2.953a8.913,8.913,0,0,0,1.435,5.4,4.927,4.927,0,0,0,4.166,1.822,4.864,4.864,0,0,0,4.19-1.869,9.306,9.306,0,0,0,1.377-5.549V267Zm-2.848,3.621a6.972,6.972,0,0,1-.691,3.393,2.207,2.207,0,0,1-2.028,1.084,2.243,2.243,0,0,1-2.1-1.172,7.4,7.4,0,0,1-.668-3.563V266.5a6.678,6.678,0,0,1,.691-3.311,2.509,2.509,0,0,1,4.137.059,7.227,7.227,0,0,1,.656,3.522v3.855Zm17.3-3.621a8.88,8.88,0,0,0-1.412-5.367,5.74,5.74,0,0,0-8.379.047A9.162,9.162,0,0,0,435.3,267.2v2.953a8.906,8.906,0,0,0,1.436,5.4,4.926,4.926,0,0,0,4.166,1.822,4.863,4.863,0,0,0,4.189-1.869,9.306,9.306,0,0,0,1.377-5.549V267Zm-2.848,3.621a6.972,6.972,0,0,1-.691,3.393A2.206,2.206,0,0,1,440.9,275.1a2.244,2.244,0,0,1-2.1-1.172,7.411,7.411,0,0,1-.668-3.563V266.5a6.678,6.678,0,0,1,.691-3.311,2.509,2.509,0,0,1,4.137.059,7.215,7.215,0,0,1,.656,3.522v3.855Zm14.6,1.43h-3.773v-1.243h3.7a6.661,6.661,0,0,0,4.465-1.448,5.461,5.461,0,0,0-.082-7.814,6.623,6.623,0,0,0-4.512-1.472h-6.527v8.344h-2.4v2.39h2.4v1.243h-2.4v2.39h2.4v2.7h2.953v-2.7h3.773v-2.39Zm-3.773-9.586h3.7a3.179,3.179,0,0,1,2.279.867,2.913,2.913,0,0,1,.826,2.144,2.775,2.775,0,0,1-.843,2.2,3.6,3.6,0,0,1-2.438.738h-3.527v-5.953Z" transform="translate(-195.844 -259.844)"></path></svg> 