<svg width="58" height="58" viewBox="0 0 58 58" fill="none" xmlns="http://www.w3.org/2000/svg">
<circle cx="29" cy="29" r="29" fill="#CA6E55"/>
<circle cx="29" cy="29" r="26" fill="white"/>
<circle cx="29" cy="29" r="27.5" stroke="white"/>
<path d="M37.5266 34.3548C36.7935 34.3548 36.0971 34.6496 35.5718 35.1828C35.0464 35.7222 34.7532 36.4247 34.7532 37.1774C34.7532 37.9301 35.0403 38.6326 35.5718 39.172C36.1032 39.7052 36.7935 40 37.5266 40C39.0293 40 40.2511 38.733 40.2511 37.1774C40.2511 35.6219 39.0293 34.3548 37.5266 34.3548ZM37.5266 38.7455C36.6836 38.7455 35.975 38.0305 35.975 37.1774C35.975 36.3244 36.6836 35.6093 37.5266 35.6093C38.3574 35.6093 39.0293 36.3118 39.0293 37.1774C39.0293 38.043 38.3574 38.7455 37.5266 38.7455ZM38.2352 24.9525C38.1252 24.8459 37.9786 24.7894 37.8259 24.7894H34.6921C34.3561 24.7894 34.0812 25.0717 34.0812 25.4167V30.56C34.0812 30.905 34.3561 31.1873 34.6921 31.1873H39.6646C40.0006 31.1873 40.2755 30.905 40.2755 30.56V27.1165C40.2755 26.9409 40.2022 26.7715 40.0739 26.6523L38.2352 24.9525ZM39.0538 29.9328H35.303V26.0376H37.5877L39.0538 27.3925V29.9328ZM22.609 34.3548C21.876 34.3548 21.1796 34.6496 20.6542 35.1828C20.1289 35.7222 19.8357 36.4247 19.8357 37.1774C19.8357 37.9301 20.1228 38.6326 20.6542 39.172C21.1857 39.7052 21.876 40 22.609 40C24.1118 40 25.3335 38.733 25.3335 37.1774C25.3335 35.6219 24.1118 34.3548 22.609 34.3548ZM22.609 38.7455C21.766 38.7455 21.0574 38.0305 21.0574 37.1774C21.0574 36.3244 21.766 35.6093 22.609 35.6093C23.4398 35.6093 24.1118 36.3118 24.1118 37.1774C24.1118 38.043 23.4398 38.7455 22.609 38.7455ZM18.5345 35.1263H17.3067V33.4579C17.3067 33.1129 17.0318 32.8306 16.6958 32.8306C16.3598 32.8306 16.0849 33.1129 16.0849 33.4579V35.7536C16.0849 36.0986 16.3598 36.3808 16.6958 36.3808H18.5345C18.8705 36.3808 19.1454 36.0986 19.1454 35.7536C19.1454 35.4086 18.8705 35.1263 18.5345 35.1263ZM21.6316 31.7079C21.6316 31.3629 21.3568 31.0806 21.0208 31.0806H13.6109C13.2749 31.0806 13 31.3629 13 31.7079C13 32.0529 13.2749 32.3351 13.6109 32.3351H21.0208C21.3568 32.3351 21.6316 32.0591 21.6316 31.7079ZM14.8509 29.4435L22.2608 29.4875C22.5968 29.4875 22.8717 29.2115 22.8778 28.8665C22.8839 28.5152 22.609 28.233 22.2731 28.233L14.8632 28.1891C14.8571 28.1891 14.8571 28.1891 14.8571 28.1891C14.5211 28.1891 14.2462 28.4651 14.2462 28.81C14.2401 29.1613 14.515 29.4435 14.8509 29.4435ZM16.0971 26.5959H23.507C23.843 26.5959 24.1179 26.3136 24.1179 25.9686C24.1179 25.6237 23.843 25.3414 23.507 25.3414H16.0971C15.7611 25.3414 15.4863 25.6237 15.4863 25.9686C15.4863 26.3136 15.7611 26.5959 16.0971 26.5959ZM42.774 25.7491L38.4001 22.0296C38.2902 21.9355 38.1558 21.8853 38.0092 21.8853H32.8656V19.6272C32.8656 19.2823 32.5907 19 32.2547 19H16.6958C16.3598 19 16.0849 19.2823 16.0849 19.6272V24.2186C16.0849 24.5636 16.3598 24.8459 16.6958 24.8459C17.0318 24.8459 17.3067 24.5636 17.3067 24.2186V20.2545H31.65V35.1263H26.6408C26.3048 35.1263 26.0299 35.4086 26.0299 35.7536C26.0299 36.0986 26.3048 36.3808 26.6408 36.3808H34.0996C34.4356 36.3808 34.7104 36.0986 34.7104 35.7536C34.7104 35.4086 34.4356 35.1263 34.0996 35.1263H32.8717V23.1398H37.7954L41.7783 26.5269L41.7355 35.1138H41.1002C40.7642 35.1138 40.4893 35.3961 40.4893 35.741C40.4893 36.086 40.7642 36.3683 41.1002 36.3683H42.3403C42.6762 36.3683 42.9511 36.0923 42.9511 35.7473L43 26.2383C42.9939 26.0502 42.9145 25.8683 42.774 25.7491Z" fill="#CA6E55"/>
</svg>
