<svg width="58" height="58" viewBox="0 0 58 58" fill="none" xmlns="http://www.w3.org/2000/svg">
<circle cx="29" cy="29" r="29" fill="#CA6E55"/>
<circle cx="29" cy="29" r="26" fill="white"/>
<circle cx="29" cy="29" r="27.5" stroke="white"/>
<path d="M40.359 36.002C39.8962 35.1758 39.2047 34.6367 38.319 34.4023C38.1076 34.3438 37.8904 34.3086 37.679 34.2969C37.7076 33.9863 37.719 33.6699 37.719 33.3535C37.719 32.9551 37.6962 32.5508 37.6504 32.1582C39.2276 31.9355 40.4504 30.5879 40.4504 28.9648C40.4504 27.1895 38.9876 25.7422 37.1933 25.7422C37.0162 25.7422 36.8447 25.7539 36.6733 25.7832C37.0447 24.8691 37.2447 23.8789 37.2447 22.8359C37.2447 22.1621 37.159 21.4941 36.9876 20.8438C38.2847 20.2812 39.1476 19.0098 39.1476 17.5742C39.1476 15.6055 37.5247 14 35.5304 14C34.3133 14 33.1876 14.6094 32.5247 15.582C31.4676 15.1016 30.3019 14.8496 29.1304 14.8496C27.959 14.8496 26.799 15.1074 25.7419 15.582C25.079 14.6035 23.9533 14 22.7362 14C20.7419 14 19.119 15.6055 19.119 17.5742C19.119 19.0156 19.9819 20.2871 21.279 20.8438C21.1076 21.4941 21.0219 22.1621 21.0219 22.8359C21.0219 23.8789 21.2276 24.8691 21.5933 25.7832C21.4219 25.7539 21.2504 25.7422 21.0733 25.7422C19.279 25.7422 17.8162 27.1895 17.8162 28.9648C17.8162 30.5879 19.0333 31.9355 20.6162 32.1582C20.5704 32.5566 20.5476 32.9551 20.5476 33.3535C20.5476 33.6758 20.5647 34.0039 20.5933 34.3203C20.5704 34.3203 20.5476 34.3203 20.5247 34.3203C20.2447 34.3203 19.959 34.3555 19.679 34.4316C18.7876 34.666 18.1019 35.2051 17.639 36.0312C16.8333 37.4609 16.8733 39.5762 17.2733 41.041C17.7476 42.7812 19.359 44 21.1819 44C21.2562 44 21.3362 44 21.4104 43.9941C21.4162 43.9941 21.4162 43.9941 21.4219 43.9941C21.4276 43.9941 21.4333 43.9941 21.439 43.9941C21.4447 43.9941 21.4504 43.9941 21.4562 43.9941C22.9533 43.9121 24.2733 43.0039 24.8962 41.6973C26.1819 42.5176 27.6333 42.9453 29.1362 42.9453C30.5704 42.9453 31.9647 42.5527 33.2104 41.7969C33.2333 41.8379 33.2504 41.873 33.2733 41.9141C33.8104 42.8691 34.7019 43.5547 35.7704 43.8359C36.1133 43.9238 36.4619 43.9707 36.8162 43.9707C38.6447 43.9707 40.2504 42.752 40.7247 41.0117C41.119 39.5469 41.1647 37.4316 40.359 36.002ZM20.2619 17.5742C20.2619 16.25 21.3704 15.1719 22.7362 15.1719C23.7133 15.1719 24.599 15.7285 24.999 16.5957C25.0676 16.7422 25.1876 16.8535 25.3362 16.9004C25.4847 16.9531 25.6447 16.9355 25.7819 16.8652C26.8047 16.3145 27.9647 16.0215 29.1362 16.0215C30.3076 16.0215 31.4676 16.3145 32.4904 16.8652C32.6276 16.9414 32.7876 16.9531 32.9362 16.9004C33.0847 16.8477 33.2047 16.7363 33.2733 16.5957C33.6733 15.7285 34.559 15.1719 35.5362 15.1719C36.9019 15.1719 38.0104 16.25 38.0104 17.5742C38.0104 18.5117 37.4562 19.3438 36.6104 19.7363C36.4733 19.4199 36.319 19.1094 36.1419 18.8164C35.9762 18.541 35.6276 18.4531 35.359 18.6172C35.0904 18.7871 35.0047 19.1445 35.1647 19.4199C35.399 19.8125 35.5933 20.2344 35.7419 20.6621C35.7476 20.6738 35.7476 20.6855 35.7533 20.6914C35.9876 21.377 36.1019 22.0977 36.1019 22.8301C36.1019 26.3984 33.279 29.334 29.7076 29.6211V25.2617C30.5362 24.9688 31.119 24.0898 31.119 23.3105C31.119 22.8828 30.9247 21.8926 29.1362 21.8926C27.3476 21.8926 27.1533 22.8828 27.1533 23.3105C27.1533 24.0898 27.7362 24.9688 28.5647 25.2617V29.6211C24.9876 29.334 22.1704 26.3984 22.1704 22.8301C22.1704 22.0859 22.2904 21.3535 22.5304 20.6562C22.5819 20.498 22.5704 20.3281 22.4962 20.1816C22.4162 20.0352 22.2847 19.9297 22.1304 19.8945C21.0276 19.6309 20.2619 18.6758 20.2619 17.5742ZM29.1362 34.1621C28.8219 34.1621 28.5647 34.4258 28.5647 34.748V36.5234C26.6276 36.2363 25.1362 34.5254 25.1362 32.4629C25.1362 31.625 25.3876 30.8164 25.8447 30.1309C26.8504 30.5703 27.9647 30.8164 29.1362 30.8164C30.3076 30.8164 31.4219 30.5703 32.4276 30.1309C32.8847 30.8105 33.1362 31.625 33.1362 32.4629C33.1362 34.5254 31.6447 36.2363 29.7076 36.5234V34.748C29.7076 34.4258 29.4504 34.1621 29.1362 34.1621ZM28.2962 23.3164C28.2962 23.2578 28.2962 23.2344 28.3933 23.1875C28.479 23.1406 28.6962 23.0703 29.1419 23.0703C29.5876 23.0703 29.799 23.1465 29.8904 23.1875C29.9876 23.2344 29.9876 23.2578 29.9876 23.3164C29.9876 23.6445 29.5933 24.1953 29.1476 24.1953C28.6847 24.1953 28.2962 23.6504 28.2962 23.3164ZM23.7419 41.3574C23.359 42.0371 22.719 42.5293 21.9476 42.7285C21.759 42.7754 21.5704 42.8105 21.3819 42.8223C21.319 42.8281 21.2562 42.8281 21.1933 42.8281C19.879 42.8281 18.7247 41.9609 18.3876 40.7246C18.0619 39.541 18.0047 37.748 18.639 36.6172C18.9476 36.0664 19.3876 35.7207 19.9762 35.5684C20.1647 35.5215 20.3533 35.4922 20.5362 35.4922C20.7304 35.4922 20.919 35.5215 21.0962 35.5684C21.1076 35.5684 21.1133 35.5742 21.1247 35.5742C22.599 36.0078 23.6562 37.9707 24.0047 39.2656C24.1933 39.9746 24.0962 40.7188 23.7419 41.3574ZM32.9019 38.9258C32.7419 39.5 32.719 40.0918 32.8219 40.666C31.7019 41.3926 30.4333 41.7734 29.1362 41.7734C27.7362 41.7734 26.3876 41.334 25.2104 40.5078C25.2733 39.998 25.239 39.4707 25.1019 38.9609C24.6847 37.4375 23.5133 35.3047 21.7762 34.5781C21.7247 34.1738 21.6962 33.7637 21.6962 33.3535C21.6962 32.7969 21.7419 32.2402 21.839 31.7012C21.8676 31.5254 21.8219 31.3379 21.7019 31.2031C21.5819 31.0684 21.4104 30.998 21.239 31.0098C21.1876 31.0156 21.1362 31.0156 21.079 31.0156C19.9133 31.0156 18.9647 30.0957 18.9647 28.9648C18.9647 27.834 19.9133 26.9141 21.079 26.9141C21.639 26.9141 22.159 27.125 22.559 27.5C23.1704 28.332 23.9362 29.041 24.8219 29.5918C24.2847 30.4414 23.9933 31.4375 23.9933 32.4629C23.9933 35.3691 26.3019 37.7363 29.1362 37.7363C31.9704 37.7363 34.279 35.3691 34.279 32.4629C34.279 31.4375 33.9876 30.4414 33.4504 29.5918C34.3362 29.041 35.1019 28.332 35.7133 27.5C36.1133 27.1191 36.6333 26.9141 37.1933 26.9141C38.359 26.9141 39.3076 27.834 39.3076 28.9648C39.3076 30.0957 38.359 31.0156 37.1933 31.0156C37.1419 31.0156 37.0904 31.0156 37.0333 31.0098C36.8562 30.998 36.6847 31.0684 36.5704 31.2031C36.4504 31.3379 36.4047 31.5195 36.4333 31.7012C36.5304 32.2461 36.5762 32.7969 36.5762 33.3535C36.5762 33.7168 36.5533 34.0801 36.5133 34.4375C34.6162 35.0352 33.3362 37.3203 32.9019 38.9258ZM39.6219 40.6953C39.2847 41.9316 38.1304 42.7988 36.8162 42.7988C36.559 42.7988 36.3076 42.7637 36.0562 42.6992C35.2847 42.4941 34.6504 42.0078 34.2619 41.3281C33.9019 40.6895 33.8104 39.9512 34.0047 39.2422C34.3762 37.877 35.5304 35.7734 37.1247 35.4922C37.1304 35.4922 37.1362 35.4922 37.1419 35.4863C37.2504 35.4688 37.359 35.457 37.4733 35.457C37.6562 35.457 37.8447 35.4805 38.0333 35.5332C38.6219 35.6855 39.0562 36.0312 39.3704 36.582C40.0047 37.7188 39.9476 39.5059 39.6219 40.6953ZM32.7304 20.6387C32.2047 20.6387 31.7704 21.0605 31.7704 21.5762C31.7704 22.0918 32.199 22.5137 32.7304 22.5137C33.2619 22.5137 33.6904 22.0918 33.6904 21.5762C33.6847 21.0605 33.2562 20.6387 32.7304 20.6387ZM25.5419 20.6387C25.0162 20.6387 24.5819 21.0605 24.5819 21.5762C24.5819 22.0918 25.0104 22.5137 25.5419 22.5137C26.0676 22.5137 26.5019 22.0918 26.5019 21.5762C26.5019 21.0605 26.0676 20.6387 25.5419 20.6387ZM34.9933 17.3164L34.9819 17.3047C34.7533 17.082 34.3933 17.082 34.1704 17.3164C33.9533 17.5508 33.9533 17.9199 34.1819 18.1426L34.1876 18.1484C34.2962 18.2598 34.4447 18.3184 34.5876 18.3184C34.7362 18.3184 34.879 18.2598 34.9933 18.1484C35.2162 17.9141 35.2162 17.5449 34.9933 17.3164ZM29.1362 32.4629C28.8219 32.4629 28.5647 32.7266 28.5647 33.0488V33.0605C28.5647 33.3828 28.8219 33.6465 29.1362 33.6465C29.4504 33.6465 29.7076 33.3828 29.7076 33.0605V33.0488C29.7076 32.7266 29.4504 32.4629 29.1362 32.4629Z" fill="#CA6E55"/>
</svg>
