<svg width="58" height="58" viewBox="0 0 58 58" fill="none" xmlns="http://www.w3.org/2000/svg">
<circle cx="29" cy="29" r="29" fill="#CA6E55"/>
<circle cx="29" cy="29" r="26" fill="white"/>
<circle cx="29" cy="29" r="27.5" stroke="white"/>
<path d="M28.0396 25.4573C27.3627 26.1313 27.3627 27.2272 28.0396 27.9012C28.3751 28.2352 28.8223 28.4052 29.2638 28.4052C29.7052 28.4052 30.1525 28.2352 30.4879 27.9012L31.0765 27.3151C31.7533 26.6411 31.7533 25.5452 31.0765 24.8713C30.3997 24.1973 29.2991 24.1973 28.6222 24.8713L28.0396 25.4573ZM28.8694 26.2836L29.458 25.6976C29.5639 25.5921 29.7111 25.5335 29.8523 25.5335C29.9936 25.5335 30.1407 25.5862 30.2466 25.6976C30.4644 25.9144 30.4644 26.2661 30.2466 26.4829L29.6581 27.069C29.4403 27.2858 29.0872 27.2858 28.8694 27.069C28.6517 26.8521 28.6517 26.5005 28.8694 26.2836ZM40.7405 24.2149C41.5586 23.119 42 21.7945 42 20.4055C42 18.6943 41.3291 17.0885 40.1166 15.8754C38.9042 14.6681 37.2857 14 35.5671 14C34.1723 14 32.8422 14.4395 31.7416 15.2542L31.2589 14.7736C31.0294 14.545 30.6586 14.545 30.4291 14.7736C30.1996 15.0021 30.1996 15.3714 30.4291 15.5999L30.8646 16.0336C29.8464 17.1237 29.2402 18.5185 29.1461 20.0012L17.9577 34.2598C17.7753 34.4942 17.7929 34.8283 18.0048 35.0334L19.023 36.0473L16.8453 38.2157C15.7271 39.3292 15.7153 41.1459 16.8277 42.2653C16.8277 42.2711 16.8336 42.2711 16.8336 42.277L16.8453 42.2887C16.8512 42.2946 16.8512 42.2946 16.8571 42.2946C17.9871 43.3964 19.8058 43.3905 20.924 42.277L24.3141 38.9013C24.985 38.2332 26.0679 38.2332 26.7389 38.9013C27.4098 39.5694 27.4098 40.6478 26.7389 41.3159L25.0439 43.0037C24.8143 43.2323 24.8143 43.6015 25.0439 43.83C25.1616 43.9473 25.3087 44 25.4617 44C25.6147 44 25.7619 43.9414 25.8796 43.83L27.5746 42.1422C28.7046 41.017 28.7046 39.1944 27.5746 38.0692C26.4446 36.9439 24.6142 36.9439 23.4842 38.0692L20.0941 41.4448C19.4291 42.1071 18.3461 42.1129 17.6752 41.4507C17.0101 40.7826 17.016 39.7042 17.6811 39.042L19.8587 36.8736L20.9299 37.9402C21.1418 38.1512 21.4772 38.1629 21.7185 37.9812L35.9732 26.7935C37.4623 26.6997 38.863 26.102 39.9577 25.0822L40.5169 25.639C40.6346 25.7562 40.7817 25.8089 40.9347 25.8089C41.0877 25.8089 41.2349 25.7503 41.3526 25.639C41.5821 25.4104 41.5821 25.0412 41.3526 24.8127L40.7405 24.2149ZM19.2054 34.5763L20.2884 33.1991L22.7603 35.6605L21.3831 36.7447L19.2054 34.5763ZM23.6961 34.9338L21.0182 32.2672L29.7993 21.0736L34.8903 26.143L23.6961 34.9338ZM36.0262 25.6214L30.329 19.9484C30.4291 18.7998 30.9058 17.7214 31.6945 16.8717L33.0835 18.2547C33.2012 18.3719 33.3483 18.4247 33.5013 18.4247C33.6544 18.4247 33.8015 18.3661 33.9192 18.2547C34.1487 18.0262 34.1487 17.657 33.9192 17.4284L32.5832 16.0981C33.4542 15.4944 34.4842 15.1721 35.5671 15.1721C36.9738 15.1721 38.2921 15.7171 39.2809 16.7076C40.2755 17.698 40.8229 19.0107 40.8229 20.4055C40.8229 21.4839 40.4992 22.5095 39.893 23.3768L37.3093 20.8041C37.0797 20.5755 36.7089 20.5755 36.4794 20.8041C36.2499 21.0326 36.2499 21.4018 36.4794 21.6304L39.1161 24.2559C38.2627 25.0412 37.1857 25.5159 36.0262 25.6214ZM41.1584 36.7916V30.6849C41.1584 30.4974 41.0642 30.3157 40.9112 30.2102C40.7582 30.0988 40.5581 30.0695 40.3756 30.134L34.6961 32.0914C34.4607 32.1735 34.3018 32.3962 34.3018 32.6482V37.3835C34.2782 37.3776 34.2606 37.3718 34.237 37.3659C33.7485 37.2487 33.1894 37.2956 32.6597 37.489C31.4591 37.9285 30.7822 38.9834 31.1177 39.8859C31.3531 40.5247 32.03 40.8939 32.8363 40.8939C33.1659 40.8939 33.5131 40.8353 33.8603 40.7064C34.39 40.513 34.8491 40.1789 35.1434 39.7746C35.3788 39.4522 35.4965 39.1006 35.4906 38.7548V38.749V33.0643L39.993 31.5171V35.4436C39.9695 35.4378 39.9518 35.4319 39.9283 35.4261C39.4398 35.3088 38.8807 35.3557 38.3451 35.5491C37.8154 35.7425 37.3563 36.0766 37.0621 36.481C36.7207 36.9498 36.6265 37.4831 36.7972 37.9461C37.0326 38.5849 37.7095 38.9541 38.5158 38.9541C38.8454 38.9541 39.1926 38.8955 39.5399 38.7666C40.0696 38.5732 40.5286 38.2391 40.8229 37.8347C41.0583 37.5065 41.176 37.1491 41.1701 36.8033C41.1584 36.7916 41.1584 36.7916 41.1584 36.7916ZM34.1782 39.0772C34.0193 39.294 33.7544 39.4815 33.4425 39.5929C32.8186 39.8215 32.2889 39.6691 32.2183 39.464C32.1477 39.2588 32.4419 38.8017 33.0658 38.5732C33.2718 38.497 33.4837 38.4559 33.6779 38.4559C33.7779 38.4559 33.8721 38.4677 33.9604 38.4853C34.1311 38.5263 34.2547 38.6025 34.29 38.6962C34.3194 38.7959 34.2782 38.9365 34.1782 39.0772ZM39.8577 37.1373C39.6988 37.3542 39.4339 37.5417 39.122 37.6531C38.4981 37.8816 37.9684 37.7292 37.8978 37.5241C37.8625 37.4362 37.9037 37.2956 38.0096 37.1491C38.1685 36.9322 38.4334 36.7447 38.7453 36.6333C38.9513 36.5571 39.1632 36.5161 39.3574 36.5161C39.4575 36.5161 39.5516 36.5278 39.6399 36.5454C39.8106 36.5864 39.9342 36.6626 39.9695 36.7564C40.0048 36.856 39.9636 36.9967 39.8577 37.1373ZM16.7041 22.4978C18.099 22.4978 19.2349 23.6288 19.2349 25.0178C19.2349 25.3401 19.4997 25.6038 19.8234 25.6038C20.1471 25.6038 20.412 25.3401 20.412 25.0178C20.412 23.6288 21.5479 22.4978 22.9427 22.4978C23.2664 22.4978 23.5313 22.234 23.5313 21.9117C23.5313 21.5894 23.2664 21.3256 22.9427 21.3256C21.5479 21.3256 20.412 20.1946 20.412 18.8056C20.412 18.4833 20.1471 18.2196 19.8234 18.2196C19.4997 18.2196 19.2349 18.4833 19.2349 18.8056C19.2349 20.1946 18.099 21.3256 16.7041 21.3256C16.3804 21.3256 16.1155 21.5894 16.1155 21.9117C16.1155 22.234 16.3804 22.4978 16.7041 22.4978ZM19.8293 20.7982C20.1177 21.2436 20.5002 21.6245 20.9475 21.9117C20.5002 22.1989 20.1177 22.5798 19.8293 23.0252C19.5409 22.5798 19.1583 22.1989 18.711 21.9117C19.1583 21.6245 19.5409 21.2436 19.8293 20.7982ZM35.7496 19.3096C35.6554 19.0811 35.4141 18.9287 35.1669 18.9521C34.9197 18.9697 34.7079 19.1397 34.6431 19.3741C34.5784 19.6085 34.6667 19.8722 34.8668 20.0129C35.0669 20.1535 35.3317 20.1594 35.5377 20.0246C35.7614 19.8722 35.8555 19.5675 35.7496 19.3096ZM25.0321 18.4247H25.5971V18.9873C25.5971 19.3096 25.8619 19.5734 26.1856 19.5734C26.5093 19.5734 26.7742 19.3096 26.7742 18.9873V18.4247H27.3392C27.6629 18.4247 27.9278 18.161 27.9278 17.8386C27.9278 17.5163 27.6629 17.2526 27.3392 17.2526H26.7742V16.69C26.7742 16.3677 26.5093 16.1039 26.1856 16.1039C25.8619 16.1039 25.5971 16.3677 25.5971 16.69V17.2526H25.0321C24.7084 17.2526 24.4435 17.5163 24.4435 17.8386C24.4435 18.161 24.7084 18.4247 25.0321 18.4247Z" fill="#CA6E55"/>
</svg>
