<svg width="58" height="58" viewBox="0 0 58 58" fill="none" xmlns="http://www.w3.org/2000/svg">
<circle cx="29" cy="29" r="29" fill="#CA6E55"/>
<circle cx="29" cy="29" r="26" fill="white"/>
<circle cx="29" cy="29" r="27.5" stroke="white"/>
<path d="M34.6836 21.2617H23.1992C22.877 21.2617 22.6133 21.5254 22.6133 21.8477C22.6133 22.1699 22.877 22.4336 23.1992 22.4336H34.6836C35.2988 22.4336 35.7969 22.9316 35.7969 23.5469V35.7344C35.7969 36.3496 35.2988 36.8477 34.6836 36.8477H18.6289C18.0137 36.8477 17.5156 36.3496 17.5156 35.7344V23.5469C17.5156 22.9316 18.0137 22.4336 18.6289 22.4336H19.1562C19.4785 22.4336 19.7422 22.1699 19.7422 21.8477C19.7422 21.5254 19.4785 21.2617 19.1562 21.2617H18.6289C17.3691 21.2617 16.3438 22.2871 16.3438 23.5469V35.7344C16.3438 36.9941 17.3691 38.0195 18.6289 38.0195H34.6836C35.9434 38.0195 36.9688 36.9941 36.9688 35.7344V23.5469C36.9688 22.2871 35.9434 21.2617 34.6836 21.2617ZM43.4141 18.625H41.5977C41.2754 18.625 41.0117 18.8887 41.0117 19.2109C41.0117 19.5332 41.2754 19.7969 41.5977 19.7969H42.8281V39.4844H15.1719V19.7969H37.2207C37.543 19.7969 37.8066 19.5332 37.8066 19.2109C37.8066 18.8887 37.543 18.625 37.2207 18.625H31.2031L33.4883 16.3398C33.7227 16.4512 33.9805 16.5156 34.2559 16.5156C35.2227 16.5156 36.0137 15.7246 36.0137 14.7578C36.0137 13.791 35.2227 13 34.2559 13C33.2891 13 32.498 13.791 32.498 14.7578C32.498 15.0273 32.5566 15.2793 32.668 15.5078L29.7207 18.4492L26.7793 15.5078C26.8848 15.2793 26.9492 15.0273 26.9492 14.7578C26.9492 13.791 26.1582 13 25.1914 13C24.2246 13 23.4336 13.791 23.4336 14.7578C23.4336 15.7246 24.2246 16.5156 25.1914 16.5156C25.4668 16.5156 25.7246 16.4512 25.959 16.3398L28.2441 18.625H14.5859C14.2637 18.625 14 18.8887 14 19.2109V40.0703C14 40.3926 14.2637 40.6562 14.5859 40.6562H17.2871V42.4141C17.2871 42.7363 17.5508 43 17.873 43H40.1387C40.4609 43 40.7246 42.7363 40.7246 42.4141V40.6562H43.4141C43.7363 40.6562 44 40.3926 44 40.0703V19.2109C44 18.8887 43.7363 18.625 43.4141 18.625ZM34.25 14.1719C34.5723 14.1719 34.8359 14.4355 34.8359 14.7578C34.8359 15.0801 34.5723 15.3438 34.25 15.3438C33.9277 15.3438 33.6641 15.0801 33.6641 14.7578C33.6641 14.4355 33.9277 14.1719 34.25 14.1719ZM25.1914 15.3438C24.8691 15.3438 24.6055 15.0801 24.6055 14.7578C24.6055 14.4355 24.8691 14.1719 25.1914 14.1719C25.5137 14.1719 25.7773 14.4355 25.7773 14.7578C25.7773 15.0801 25.5137 15.3438 25.1914 15.3438ZM39.5527 41.8281H18.459V40.6562H39.5527V41.8281ZM39.8984 24.6895C38.7559 24.6895 37.8301 25.6152 37.8301 26.7578C37.8301 27.9004 38.7559 28.8262 39.8984 28.8262C41.041 28.8262 41.9668 27.9004 41.9668 26.7578C41.9668 25.6152 41.041 24.6895 39.8984 24.6895ZM39.8984 27.6543C39.4062 27.6543 39.002 27.25 39.002 26.7578C39.002 26.2656 39.4062 25.8613 39.8984 25.8613C40.3906 25.8613 40.7949 26.2656 40.7949 26.7578C40.7949 27.25 40.3906 27.6543 39.8984 27.6543ZM32.0879 28.6211C32.0879 28.6152 32.0879 28.6094 32.082 28.6035C31.5957 26.0488 29.3457 24.1152 26.6562 24.1152C23.9668 24.1152 21.7109 26.0547 21.2305 28.6035C21.2305 28.6094 21.2305 28.6152 21.2246 28.6211C21.1602 28.9492 21.1309 29.2891 21.1309 29.6406C21.1309 31.4395 21.9922 33.0391 23.3281 34.0469C23.3398 34.0527 23.3457 34.0645 23.3574 34.0703C23.375 34.082 23.3926 34.0938 23.4102 34.1055C24.3242 34.7734 25.4434 35.166 26.6562 35.166C27.8691 35.166 28.9883 34.7734 29.9023 34.1113C29.9199 34.0996 29.9316 34.0938 29.9492 34.082C29.9668 34.0703 29.9785 34.0586 29.9961 34.0469C31.3262 33.0391 32.1875 31.4395 32.1875 29.6465C32.1816 29.2949 32.1465 28.9492 32.0879 28.6211ZM27.2422 25.3281C28.8594 25.5449 30.2012 26.6582 30.7461 28.1465H28.877L27.2422 26.957V25.3281ZM28.1738 29.084L27.5938 30.8711H25.7188L25.1387 29.084L26.6562 27.9824L28.1738 29.084ZM26.0703 25.3281V26.957L24.4355 28.1406H22.5664C23.1113 26.6523 24.4531 25.5449 26.0703 25.3281ZM22.3027 29.6406C22.3027 29.5293 22.3086 29.4238 22.3145 29.3184H23.9785L24.6582 31.416L23.6211 32.7637C22.8066 31.9668 22.3027 30.8652 22.3027 29.6406ZM26.6562 33.9941C25.9004 33.9941 25.1855 33.8008 24.5645 33.4609L25.6543 32.043H27.7051L28.7539 33.4551C28.1328 33.7949 27.418 33.9941 26.6562 33.9941ZM29.6973 32.752L28.666 31.3633L29.334 29.3125H30.998C31.0039 29.418 31.0098 29.5293 31.0098 29.6348C31.0098 30.8594 30.5059 31.9609 29.6973 32.752ZM39.8984 30.2383C38.9316 30.2383 38.1406 31.0293 38.1406 31.9961V36.2148C38.1406 37.1816 38.9316 37.9727 39.8984 37.9727C40.8652 37.9727 41.6562 37.1816 41.6562 36.2148V31.9961C41.6562 31.0293 40.8652 30.2383 39.8984 30.2383ZM40.4844 36.2148C40.4844 36.5371 40.2207 36.8008 39.8984 36.8008C39.5762 36.8008 39.3125 36.5371 39.3125 36.2148V31.9961C39.3125 31.6738 39.5762 31.4102 39.8984 31.4102C40.2207 31.4102 40.4844 31.6738 40.4844 31.9961V36.2148ZM39.7871 18.7949C39.6758 18.6836 39.5293 18.625 39.3711 18.625C39.2129 18.625 39.0664 18.6895 38.9551 18.7949C38.8438 18.9062 38.7852 19.0527 38.7852 19.2109C38.7852 19.3633 38.8496 19.5156 38.9551 19.627C39.0664 19.7383 39.2129 19.7969 39.3711 19.7969C39.5293 19.7969 39.6758 19.7324 39.7871 19.627C39.8984 19.5156 39.957 19.3691 39.957 19.2109C39.957 19.0527 39.8926 18.9062 39.7871 18.7949ZM21.4473 21.4316C21.3359 21.3203 21.1895 21.2617 21.0312 21.2617C20.873 21.2617 20.7266 21.3262 20.6152 21.4316C20.5039 21.543 20.4453 21.6895 20.4453 21.8477C20.4453 22 20.5098 22.1523 20.6152 22.2637C20.7266 22.375 20.873 22.4336 21.0312 22.4336C21.1895 22.4336 21.3359 22.3691 21.4473 22.2637C21.5586 22.1523 21.6172 22.0059 21.6172 21.8477C21.6172 21.6895 21.5527 21.543 21.4473 21.4316Z" fill="#CA6E55"/>
</svg>
