<svg width="90" height="90" viewBox="0 0 90 90" fill="none" xmlns="http://www.w3.org/2000/svg">
<circle cx="45" cy="45" r="45" fill="#CA6E55"/>
<circle cx="45" cy="45" r="40" fill="white"/>
<circle cx="45" cy="45" r="42.5" stroke="white"/>
<path d="M53.7456 46.5067C53.3395 46.1121 52.6997 46.1121 52.3037 46.4969C51.9077 46.8816 51.9077 47.5031 52.3037 47.8879L52.3139 47.8978C52.517 48.0852 52.7708 48.1839 53.0348 48.1839C53.2989 48.1839 53.5527 48.0852 53.7558 47.8978C54.1417 47.513 54.1417 46.8915 53.7456 46.5067ZM70.9673 37.8448C70.8251 37.3121 70.2768 36.9964 69.7285 37.1345C68.0327 37.5587 66.3979 38.1605 64.8646 38.9498C65.6667 37.4601 66.2963 35.8816 66.7329 34.2439C66.8751 33.7112 66.54 33.1785 66.0018 33.0404C65.4535 32.9022 64.9052 33.2278 64.763 33.7507C64.3264 35.3883 63.6765 36.957 62.8439 38.4269C62.8845 38.2296 62.9352 38.0422 62.9657 37.8448C63.0774 37.3121 62.7119 36.7892 62.1635 36.6906C61.9401 36.6511 61.7167 36.6807 61.5238 36.7695C61.8792 35.8323 62.0721 34.826 62.0721 33.7803C62.0721 28.9363 58.0206 25 53.0348 25C50.2526 25 47.7546 26.2332 46.0893 28.1767C44.4037 26.1641 41.8855 25 39.1235 25C34.1378 25 30.0862 28.9363 30.0862 33.7803C30.0862 35.8816 30.8376 37.8547 32.178 39.4135C30.5736 39.9067 29.0606 40.7354 27.7203 41.8404C26.6134 39.7291 28.5224 36.4637 28.5529 36.4242C28.8372 35.9507 28.6748 35.3489 28.1874 35.0726C27.6999 34.7964 27.0805 34.9543 26.7962 35.4278C26.715 35.5561 25.5574 37.5291 25.3746 39.739L22.3791 36.8287C21.9831 36.4439 21.3434 36.4439 20.9474 36.8287C20.5513 37.2135 20.5513 37.835 20.9474 38.2197L23.9429 41.13C21.6683 41.3076 19.6476 42.4323 19.5055 42.5112C19.0181 42.7874 18.8556 43.3892 19.1399 43.8628C19.3328 44.1785 19.6679 44.3561 20.0233 44.3561C20.1959 44.3561 20.3686 44.3166 20.531 44.2179C20.5717 44.1982 23.9226 42.3336 26.1057 43.409C22.8462 47.148 22.1557 52.1399 24.217 55.8395C24.2272 55.8691 24.2475 55.8888 24.2577 55.9184C24.6638 56.6287 25.1715 57.2897 25.7808 57.8816C26.8064 58.878 28.0452 59.6081 29.4059 60.0422C29.4566 60.0619 29.5176 60.0816 29.5785 60.0915C30.5533 60.3874 31.589 60.5453 32.6552 60.5453C34.0362 60.5453 35.4477 60.2888 36.8388 59.7758C36.128 61.0287 35.539 62.1632 35.0923 63.1399C33.7722 66.0108 33.5894 67.609 34.4728 68.4673C34.8384 68.8224 35.3258 69 35.9858 69C36.9302 69 38.2198 68.6251 39.9663 67.8655C41.9972 66.9874 44.6779 65.5471 47.7242 63.7121C52.9435 60.5749 58.8126 56.5004 60.5287 54.8233C63.5851 51.8538 64.0319 47.3354 61.8081 44.0996C63.2703 43.4682 64.8036 42.9946 66.3877 42.6987C66.936 42.5901 67.3016 42.0771 67.1899 41.5444C67.0782 41.0117 66.5502 40.6565 66.0018 40.765C65.8089 40.8045 65.616 40.8439 65.4129 40.8834C66.9259 40.0744 68.5506 39.443 70.2362 39.0287C70.7743 38.9004 71.1094 38.3677 70.9673 37.8448ZM53.0348 26.9731C56.8935 26.9731 60.0413 30.0314 60.0413 33.7803C60.0413 36.8386 57.9292 39.4924 54.9743 40.3211C54.5681 35.9112 50.8009 32.4287 46.1909 32.33C46.8814 29.252 49.7042 26.9731 53.0348 26.9731ZM60.7927 38.2789C60.4881 39.5318 60.0616 40.7453 59.5234 41.9193C59.036 41.6036 58.508 41.3372 57.9698 41.1399C59.1274 40.4 60.0921 39.4135 60.7927 38.2789ZM45.9776 34.2933C49.7246 34.2933 52.8013 37.174 52.9739 40.7749C51.3492 41.1202 49.7855 41.9193 48.4959 43.1623C47.7851 43.8529 46.6377 45.2439 45.3176 46.9901C45.0739 44.9085 44.1499 43.0045 42.6166 41.5148C41.6316 40.5578 40.4639 39.8574 39.1743 39.4036C39.946 36.4439 42.7384 34.2933 45.9776 34.2933ZM32.1171 33.7803C32.1171 30.0314 35.2649 26.9731 39.1235 26.9731C41.4894 26.9731 43.6117 28.0682 44.9114 29.9327C44.5053 30.7318 44.2311 31.6 44.0991 32.5076C40.7482 33.1982 38.0471 35.6942 37.2145 38.9399C36.4732 38.8413 35.7015 38.8215 34.9095 38.8807C34.7876 38.8906 34.6658 38.9004 34.5439 38.9103C33.0005 37.6475 32.1171 35.7928 32.1171 33.7803ZM31.8429 58.5426L32.7974 57.6152C33.1934 57.2305 33.1934 56.609 32.7974 56.2242C32.4014 55.8395 31.7617 55.8395 31.3656 56.2242L29.5379 58C28.6748 57.6547 27.8827 57.1516 27.2125 56.5004C26.9079 56.2045 26.6439 55.8888 26.4002 55.5632L32.574 49.565C32.97 49.1803 32.97 48.5587 32.574 48.174C32.178 47.7892 31.5383 47.7892 31.1422 48.174L25.4559 53.6987C24.4404 50.6206 25.4355 46.7928 28.3092 44.0009C31.721 40.6861 36.6255 39.9363 39.9663 41.9883L38.4838 43.4287C38.0878 43.8135 38.0878 44.435 38.4838 44.8197C38.6869 45.017 38.9407 45.1058 39.2047 45.1058C39.4687 45.1058 39.7226 45.0072 39.9257 44.8197L41.5199 43.2709C43.1446 45.0565 43.7234 47.4242 43.1446 49.9991C42.6166 50.739 42.0885 51.4987 41.5707 52.2682C41.5605 52.278 41.5605 52.2879 41.5504 52.2879C40.799 53.3928 40.0577 54.5175 39.357 55.6224C39.0829 56.0565 38.8189 56.4807 38.5549 56.8951C38.2401 57.0036 37.9964 57.1121 37.7121 57.2305C37.641 57.2601 37.5699 57.2897 37.4988 57.3292C37.4785 57.339 37.4582 57.3489 37.4379 57.3587C35.6101 58.3157 33.6503 58.7004 31.8429 58.5426ZM59.9093 52.4951L56.2233 48.9139C55.8273 48.5291 55.1875 48.5291 54.7915 48.9139C54.3955 49.2987 54.3955 49.9202 54.7915 50.3049L58.5385 53.9453C56.6396 55.5435 52.06 58.7596 47.2266 61.6996C45.937 62.4888 44.6982 63.209 43.5508 63.8404L41.327 61.6798C40.931 61.2951 40.2912 61.2951 39.8952 61.6798C39.4992 62.0646 39.4992 62.6861 39.8952 63.0709L41.7027 64.8269C41.0325 65.1722 40.3928 65.4879 39.814 65.7543C37.2957 66.9184 36.2905 67.0269 35.9554 67.017C35.9452 66.7013 36.0569 65.7247 37.2551 63.2682C38.1995 61.3345 39.6515 58.8484 41.4387 56.0664C41.8144 55.4843 42.1901 54.9121 42.5759 54.3399L44.4748 56.1848C44.6779 56.3821 44.9317 56.4709 45.1957 56.4709C45.4598 56.4709 45.7136 56.3722 45.9167 56.1848C46.3127 55.8 46.3127 55.1785 45.9167 54.7937L43.7234 52.6628C46.3736 48.8054 48.8817 45.5794 49.9479 44.5435C52.6185 41.9489 56.8325 41.8404 59.3609 44.2969C61.5847 46.4771 61.7472 49.9399 59.9093 52.4951ZM37.8948 45.3821C37.4988 44.9973 36.8591 44.9973 36.4631 45.3821L36.4428 45.4018C36.0468 45.7865 36.0468 46.4081 36.4428 46.7928C36.6459 46.9803 36.8997 47.0789 37.1637 47.0789C37.4277 47.0789 37.6816 46.9803 37.8847 46.7928L37.905 46.7731C38.2908 46.3982 38.2908 45.7668 37.8948 45.3821Z" fill="#CA6E55"/>
</svg>
