<svg width="90" height="90" viewBox="0 0 90 90" fill="none" xmlns="http://www.w3.org/2000/svg">
<circle cx="45" cy="45" r="45" fill="#CA6E55"/>
<circle cx="45" cy="45" r="40" fill="white"/>
<circle cx="45" cy="45" r="42.5" stroke="white"/>
<path d="M60.7031 54.1719C61.1758 54.1719 61.5625 53.7852 61.5625 53.3125C61.5625 52.8398 61.1758 52.4531 60.7031 52.4531C60.2305 52.4531 59.8438 52.8398 59.8438 53.3125C59.8438 53.7852 60.2305 54.1719 60.7031 54.1719ZM60.7031 50.7344C61.1758 50.7344 61.5625 50.3477 61.5625 49.875V43C61.5625 42.5273 61.1758 42.1406 60.7031 42.1406C60.2305 42.1406 59.8438 42.5273 59.8438 43V49.875C59.8438 50.3477 60.2305 50.7344 60.7031 50.7344ZM21.8594 52.4531H22.7188V64.1406C22.7188 64.6133 23.1055 65 23.5781 65H62.4219C63.8398 65 65 63.8398 65 62.4219V30.4531C65 29.9805 64.6133 29.5938 64.1406 29.5938H57.6094V28.7344C57.6094 24.4719 54.1375 21 49.875 21C45.6211 21 42.1406 24.4461 42.1406 28.7344V29.5938H35.6094C35.1367 29.5938 34.75 29.9805 34.75 30.4531V39.5625C33.9078 40.1984 33.3234 41.118 33.1172 42.1406C33.0914 42.1406 33.057 42.132 33.0312 42.132C33.0055 42.132 32.9711 42.132 32.9453 42.132C32.55 40.1727 30.8141 38.6945 28.7344 38.6945C26.3625 38.6945 24.4375 40.6195 24.4375 42.9914C24.4375 43.9539 24.7555 44.8477 25.2969 45.5695H21.8594C21.3867 45.5695 21 45.9562 21 46.4289V51.5852C21 52.0664 21.3867 52.4531 21.8594 52.4531ZM24.4375 52.4531H28.7344V63.2812H24.4375V52.4531ZM30.4531 52.4531H35.6094V63.2812H30.4531V52.4531ZM41.625 63.2812C39.7859 63.2812 39.3391 63.2812 37.3281 63.2812V52.4531H41.625V63.2812ZM37.3281 50.7344V47.2969H43.3438V50.7344H37.3281ZM37.3281 45.5781C37.3023 45.5781 37.268 45.5781 37.2422 45.5781C37.1133 44.9594 36.8555 44.375 36.4688 43.8594V40.568C36.7437 40.4734 37.0359 40.4219 37.3281 40.4219C38.7461 40.4219 39.9062 41.582 39.9062 43C39.9062 44.418 38.7461 45.5781 37.3281 45.5781ZM32.9797 43.8594L33.7273 43.9539C34.518 44.1773 35.1797 44.7789 35.4633 45.5781H30.6078C30.9602 44.5812 31.8883 43.8766 32.9797 43.8594ZM35.6094 47.2969V50.7344H30.4531V47.2969H35.6094ZM62.4219 63.2812H43.3438V59.8438H63.2812V62.4219C63.2812 62.8945 62.8945 63.2812 62.4219 63.2812ZM43.8594 28.7344C43.8594 25.4172 46.5406 22.7188 49.875 22.7188C53.1922 22.7188 55.8906 25.4172 55.8906 28.7344V29.5938H43.8594V28.7344ZM42.1406 31.3125V35.2656H41.2812C40.8086 35.2656 40.4219 35.6523 40.4219 36.125C40.4219 36.5977 40.8086 36.9844 41.2812 36.9844H44.7188C45.1914 36.9844 45.5781 36.5977 45.5781 36.125C45.5781 35.6523 45.1914 35.2656 44.7188 35.2656H43.8594V31.3125H55.8906V35.2656H55.0312C54.5586 35.2656 54.1719 35.6523 54.1719 36.125C54.1719 36.5977 54.5586 36.9844 55.0312 36.9844H58.4688C58.9414 36.9844 59.3281 36.5977 59.3281 36.125C59.3281 35.6523 58.9414 35.2656 58.4688 35.2656H57.6094V31.3125H63.2812V58.125H43.3438V52.4531H44.2031C44.6758 52.4531 45.0625 52.0664 45.0625 51.5938V46.4375C45.0625 45.9648 44.6758 45.5781 44.2031 45.5781H40.7656C41.307 44.8563 41.625 43.9625 41.625 43C41.625 40.6281 39.7 38.7031 37.3281 38.7031C37.0359 38.7031 36.7523 38.7289 36.4688 38.7891V31.3125H42.1406ZM26.1562 43C26.1562 41.582 27.3164 40.4219 28.7344 40.4219C29.9891 40.4219 31.0375 41.3242 31.2695 42.5187C30.0148 43.0859 29.1039 44.2289 28.8203 45.5781C28.7945 45.5781 28.7602 45.5781 28.7344 45.5781C27.3164 45.5781 26.1562 44.418 26.1562 43ZM22.7188 47.2969H28.7344V50.7344H22.7188V47.2969Z" fill="#CA6E55"/>
</svg>
