<svg width="58" height="58" viewBox="0 0 58 58" fill="none" xmlns="http://www.w3.org/2000/svg">
<circle cx="29" cy="29" r="29" fill="#CA6E55"/>
<circle cx="29" cy="29" r="26" fill="white"/>
<circle cx="29" cy="29" r="27.5" stroke="white"/>
<path d="M34.0571 39.9676C34.0203 39.9676 33.9773 39.9615 33.9405 39.9555C33.9037 39.9494 33.8608 39.9373 33.824 39.9191C33.7872 39.901 33.7504 39.8828 33.7197 39.8646C33.6891 39.8404 33.6523 39.8162 33.6277 39.7859C33.5112 39.6709 33.4499 39.5195 33.4499 39.3561C33.4499 39.3137 33.456 39.2773 33.4621 39.235C33.4683 39.1986 33.4805 39.1562 33.4989 39.1199C33.5173 39.0836 33.5357 39.0473 33.5541 39.017C33.5787 38.9867 33.6032 38.9504 33.6277 38.9262C33.6584 38.8959 33.6891 38.8717 33.7197 38.8535C33.7504 38.8293 33.7872 38.8111 33.824 38.799C33.8608 38.7809 33.8976 38.7748 33.9405 38.7627C34.0203 38.7445 34.1 38.7445 34.1797 38.7627C34.2165 38.7687 34.2595 38.7809 34.2963 38.799C34.3331 38.8172 34.3699 38.8354 34.4005 38.8535C34.4373 38.8777 34.468 38.902 34.4925 38.9262C34.5232 38.9564 34.5477 38.9867 34.5723 39.017C34.5968 39.0533 34.6152 39.0836 34.6275 39.1199C34.6397 39.1562 34.652 39.1926 34.6643 39.235C34.6704 39.2773 34.6765 39.3137 34.6765 39.3561C34.6765 39.5135 34.6091 39.6709 34.4987 39.7859C34.468 39.8162 34.4373 39.8404 34.4067 39.8646C34.376 39.8889 34.3392 39.907 34.3024 39.9191C34.2656 39.9373 34.2288 39.9434 34.1859 39.9555C34.1368 39.9676 34.0939 39.9676 34.0571 39.9676ZM25.9856 37.4791C25.6483 37.4791 25.3723 37.2066 25.3723 36.8736V36.3469C25.3723 36.0139 25.6483 35.7414 25.9856 35.7414C26.3229 35.7414 26.5989 36.0139 26.5989 36.3469V36.8736C26.5989 37.2127 26.3229 37.4791 25.9856 37.4791ZM25.9856 40.4762C25.6483 40.4762 25.3723 40.2037 25.3723 39.8707V39.3439C25.3723 39.0109 25.6483 38.7385 25.9856 38.7385C26.3229 38.7385 26.5989 39.0109 26.5989 39.3439V39.8707C26.5989 40.2098 26.3229 40.4762 25.9856 40.4762ZM26.3352 30.3709C25.912 30.3709 25.4888 30.2135 25.1637 29.8926C24.9245 29.6564 24.9245 29.275 25.1637 29.0389C25.4029 28.8027 25.7893 28.8027 26.0285 29.0389C26.1083 29.1176 26.2187 29.16 26.3291 29.16C26.4395 29.16 26.5499 29.1176 26.6296 29.0389C26.8688 28.8027 27.2552 28.8027 27.4944 29.0389C27.7336 29.275 27.7336 29.6564 27.4944 29.8926C27.1816 30.2135 26.7584 30.3709 26.3352 30.3709ZM28.3837 27.0711C28.0464 27.0711 27.7704 26.7986 27.7704 26.4656C27.7704 25.9207 28.2181 25.4787 28.7763 25.4787H29.3405C29.6779 25.4787 29.9539 25.7512 29.9539 26.0842C29.9539 26.4172 29.6779 26.6896 29.3405 26.6896H28.9603C28.8621 26.9076 28.6413 27.0711 28.3837 27.0711ZM24.2867 27.0711C24.0291 27.0711 23.8021 26.9137 23.7163 26.6896H23.336C22.9987 26.6896 22.7227 26.4172 22.7227 26.0842C22.7227 25.7512 22.9987 25.4787 23.336 25.4787H23.9003C24.4523 25.4787 24.9 25.9207 24.9 26.4656C24.9 26.7986 24.624 27.0711 24.2867 27.0711ZM36.3877 26.8047C36.0504 26.8047 35.7744 27.0771 35.7744 27.4102V43.3945C35.7744 43.7275 36.0504 44 36.3877 44C38.0928 44 39.4789 42.6316 39.4789 40.9484V39.1441C40.356 38.902 41 38.1088 41 37.1703V31.3578C41 28.8451 38.9331 26.8047 36.3877 26.8047ZM38.2523 40.9484C38.2523 41.7537 37.7309 42.4379 37.0011 42.6861V39.2168H38.2523V40.9484ZM39.7733 37.1703C39.7733 37.6305 39.3931 38.0119 38.9208 38.0119H37.0011V28.0701C38.5773 28.3547 39.7733 29.723 39.7733 31.3578V37.1703ZM34.0571 37.2975C34.3944 37.2975 34.6704 37.025 34.6704 36.692V35.6809C34.6704 34.4881 33.6891 33.5193 32.4808 33.5193H28.3899L28.2979 32.8654C28.7701 32.6717 29.4693 32.3266 30.1501 31.8604C31.5731 30.8795 32.3459 29.717 32.3888 28.4939C33.2107 28.2396 33.8117 27.4768 33.8117 26.5807C33.8117 25.7148 33.2597 24.958 32.5176 24.6855V19.7812C32.9592 19.2666 33.2229 18.6006 33.2229 17.874C33.2229 16.2453 31.8797 14.9193 30.2299 14.9193C30.0029 14.9193 29.7821 14.9436 29.5675 14.992C28.9603 13.7932 27.6968 13 26.3045 13C24.9245 13 23.6611 13.7932 23.0477 14.9859C22.8453 14.9436 22.6429 14.9254 22.4344 14.9254C20.7845 14.9254 19.4413 16.2514 19.4413 17.8801C19.4413 18.6066 19.7051 19.2727 20.1467 19.7812V24.6916C19.4107 24.9641 18.8587 25.7209 18.8587 26.5867C18.8587 27.4828 19.4536 28.2457 20.2816 28.5C20.3245 29.7291 21.0973 30.8916 22.5203 31.8725C23.2011 32.3387 23.9003 32.6777 24.3725 32.8775L24.2805 33.5314H20.1896C18.9813 33.5254 18 34.4941 18 35.6869V43.3945C18 43.7275 18.276 44 18.6133 44H34.0571C34.3944 44 34.6704 43.7275 34.6704 43.3945V41.9596C34.6704 41.6266 34.3944 41.3541 34.0571 41.3541C33.7197 41.3541 33.4437 41.6266 33.4437 41.9596V42.7891H26.5989V42.3471C26.5989 42.0141 26.3229 41.7416 25.9856 41.7416C25.6483 41.7416 25.3723 42.0141 25.3723 42.3471V42.7891H24.6117V34.7363H32.4747C33.0083 34.7363 33.4376 35.1602 33.4376 35.6869V36.698C33.4437 37.0311 33.7136 37.2975 34.0571 37.2975ZM27.4699 31.8846H27.476C27.476 31.8846 27.476 31.8846 27.4699 31.8846ZM29.6288 23.3959H31.2848V24.7279C30.5304 24.5947 29.9048 24.0861 29.6288 23.3959ZM22.4405 16.1303C22.692 16.1303 22.9312 16.1787 23.1581 16.2816C23.3176 16.3543 23.5016 16.3482 23.6611 16.2816C23.8205 16.215 23.9432 16.0697 23.9923 15.9062C24.2989 14.9072 25.2496 14.2109 26.3045 14.2109C27.3717 14.2109 28.3224 14.9133 28.6229 15.9244C28.672 16.0939 28.7947 16.2332 28.9603 16.3059C29.1259 16.3785 29.3099 16.3785 29.4755 16.2998C29.7147 16.1908 29.9661 16.1363 30.2299 16.1363C31.2051 16.1363 31.9963 16.9174 31.9963 17.8801C31.9963 18.8428 31.2051 19.6238 30.2299 19.6238C29.868 19.6238 29.5184 19.5148 29.2179 19.309C28.9419 19.1152 28.5555 19.1818 28.3653 19.4604C28.1691 19.7328 28.2365 20.1143 28.5187 20.302C29.0216 20.6531 29.6165 20.8348 30.236 20.8348C30.6101 20.8348 30.9659 20.7682 31.2971 20.641V22.185H21.3795V20.641C21.7107 20.7621 22.0664 20.8348 22.4405 20.8348C23.1275 20.8348 23.7776 20.6047 24.2989 20.199C24.8877 20.6107 25.5931 20.8348 26.3352 20.8348C26.6725 20.8348 26.9485 20.5623 26.9485 20.2293C26.9485 19.8963 26.6725 19.6238 26.3352 19.6238C25.7219 19.6238 25.1392 19.3877 24.7037 18.9578C24.5811 18.8367 24.4155 18.7701 24.2437 18.7822C24.072 18.7883 23.9125 18.867 23.8021 19.0002C23.4709 19.3998 22.9741 19.6238 22.4467 19.6238C21.4715 19.6238 20.6803 18.8428 20.6803 17.8801C20.6741 16.9174 21.4653 16.1303 22.4405 16.1303ZM21.3795 23.3959H23.0355C22.7595 24.0861 22.1339 24.6008 21.3795 24.7279V23.3959ZM25.1883 31.8846H25.1944H25.1883ZM19.2267 35.6869C19.2267 35.1662 19.656 34.7363 20.1896 34.7363H23.3912V42.7891H19.2267V35.6869ZM25.5195 33.5254L25.6605 32.5627C25.7035 32.2539 25.5072 31.9633 25.2005 31.8906C24.7037 31.7514 21.5083 30.3951 21.5083 28.391V27.9854C21.5083 27.6523 21.2323 27.3799 20.8949 27.3799C20.4533 27.3799 20.0915 27.0227 20.0915 26.5867C20.0915 26.2779 20.2632 26.0236 20.4717 25.8904C20.5576 25.9389 20.6619 25.9691 20.7723 25.9691H21.0237C22.6123 25.9691 23.9677 24.8793 24.3235 23.3959H28.3469C28.7027 24.8732 30.0581 25.9691 31.6467 25.9691H31.8981C32.0085 25.9691 32.1128 25.9389 32.1987 25.8904C32.4072 26.0236 32.5789 26.284 32.5789 26.5867C32.5789 27.0227 32.2171 27.3799 31.7755 27.3799C31.4381 27.3799 31.1621 27.6523 31.1621 27.9854V28.391C31.1621 30.3891 27.9667 31.7453 27.4699 31.8906C27.1632 31.9633 26.9669 32.2539 27.0099 32.5627L27.1509 33.5254H25.5195Z" fill="#CA6E55"/>
</svg>
