<svg width="58" height="58" viewBox="0 0 58 58" fill="none" xmlns="http://www.w3.org/2000/svg">
<circle cx="29" cy="29" r="29" fill="#CA6E55"/>
<circle cx="29" cy="29" r="26" fill="white"/>
<circle cx="29" cy="29" r="27.5" stroke="white"/>
<path d="M40.7192 22.5342C41.0538 22.0593 41.0917 21.4656 40.8202 20.9532C40.5298 20.4033 39.9426 20.0658 39.2923 20.0658H38.6862C39.065 19.6596 39.4122 19.2159 39.7027 18.7597C40.4477 17.5849 40.7192 16.4476 40.4856 15.4539C40.2141 14.3041 39.2544 13.3542 38.1053 13.0855C37.0446 12.8355 35.9523 13.1417 35.182 13.8979C35.1252 13.9541 35.0494 13.9854 34.9799 13.9854C34.9042 13.9854 34.8284 13.9541 34.7716 13.8979C34.0013 13.1417 32.909 12.8355 31.8483 13.0855C30.6992 13.3542 29.7395 14.3041 29.468 15.4539C29.0955 17.0162 30.0236 18.7098 31.2674 20.0658H30.4403C30.0931 20.0658 29.8089 20.347 29.8089 20.6907C29.8089 21.0344 30.0931 21.3157 30.4403 21.3157H34.3423V21.9156C34.3423 22.1031 34.4306 22.2843 34.5759 22.403C34.7274 22.5217 34.9168 22.5655 35.1062 22.528C35.6871 22.403 36.5079 21.9593 37.3287 21.3157H39.2923C39.507 21.3157 39.6459 21.4281 39.7027 21.5344C39.7532 21.6344 39.7469 21.7281 39.6837 21.8218L37.8022 24.5027H25.787L24.9157 21.2907C25.1872 21.2219 25.3829 20.9782 25.3829 20.6845C25.3829 20.3408 25.0988 20.0596 24.7516 20.0596H24.5811L22.7943 13.4667C22.7501 13.3042 22.6427 13.173 22.4975 13.0855C22.3523 13.0043 22.1818 12.9793 22.0177 13.023L19.5869 13.6729C19.2522 13.7604 19.0502 14.1041 19.1386 14.4353L20.6602 20.0596H18.7092C18.0273 20.0596 17.4275 20.422 17.1497 21.0032C16.8972 21.5344 16.9666 22.153 17.3391 22.6155L27.1003 36.5511V40.5069L24.4043 41.2692C23.4067 41.5505 22.6806 42.4253 22.6806 43.344V44.3751C22.6806 44.7188 22.9648 45 23.312 45H34.6769C35.0241 45 35.3083 44.7188 35.3083 44.3751V43.3502C35.3083 42.4316 34.5822 41.5567 33.5846 41.2755L30.8949 40.5131V36.5574L40.7192 22.5342ZM35.5987 20.9782V20.6907C35.5987 20.347 35.3146 20.0658 34.9673 20.0658H33.0669C31.722 18.9222 30.3456 17.1537 30.6802 15.7414C30.8444 15.054 31.4379 14.4666 32.1198 14.3041C32.7575 14.1541 33.4078 14.3353 33.8624 14.7853C34.1592 15.079 34.5443 15.2352 34.961 15.2415C35.3714 15.2415 35.7565 15.079 36.0533 14.7853C36.5079 14.3353 37.1582 14.1541 37.7959 14.3041C38.4841 14.4666 39.0776 15.054 39.2355 15.7414C39.4312 16.5725 39.0082 17.4787 38.6167 18.0911C37.8275 19.3534 36.5331 20.4408 35.5987 20.9782ZM29.3985 36.4949C29.3985 36.5011 29.3922 36.5011 29.3922 36.5074C29.3165 36.6199 29.1712 36.6949 29.0008 36.6949C28.8366 36.6949 28.6914 36.6261 28.6093 36.5136L21.0769 25.7526H36.9246L29.3985 36.4949ZM23.1731 24.5027L22.3081 21.3157H23.6151L24.4801 24.509H23.1731V24.5027ZM20.5213 14.7165L21.7399 14.3978L23.2741 20.0658H21.9672L20.5213 14.7165ZM18.3367 21.8468C18.2357 21.7281 18.261 21.6156 18.2925 21.5406C18.3178 21.4844 18.4251 21.3094 18.7092 21.3094H20.9948L21.8661 24.5027H20.1993L18.3683 21.8906C18.3557 21.8781 18.3493 21.8593 18.3367 21.8468ZM33.2436 42.4753C33.6856 42.6003 34.0455 42.994 34.0455 43.3502V43.7502H23.9497V43.3502C23.9497 42.994 24.3096 42.6003 24.7516 42.4753L27.9085 41.5817C28.18 41.5067 28.3694 41.263 28.3694 40.9818V37.826C28.5651 37.9009 28.7798 37.9384 29.0008 37.9384C29.0071 37.9384 29.0134 37.9384 29.0134 37.9384C29.2281 37.9384 29.4364 37.8947 29.6321 37.826V40.9818C29.6321 41.263 29.8216 41.5067 30.0931 41.5817L33.2436 42.4753ZM29.6006 32.8141C30.8065 32.8141 31.7852 31.8455 31.7852 30.6519C31.7852 29.4583 30.8065 28.4897 29.6006 28.4897C28.3946 28.4897 27.416 29.4583 27.416 30.6519C27.416 31.8393 28.4009 32.8141 29.6006 32.8141ZM29.6006 29.7395C30.1057 29.7395 30.5224 30.1457 30.5224 30.6519C30.5224 31.1581 30.112 31.5643 29.6006 31.5643C29.0955 31.5643 28.6788 31.1581 28.6788 30.6519C28.6788 30.1457 29.0955 29.7395 29.6006 29.7395ZM25.5092 28.8272C25.8565 28.8272 26.1406 28.5459 26.1406 28.2022C26.1406 27.8585 25.8565 27.5773 25.5092 27.5773C25.162 27.5773 24.8778 27.8585 24.8778 28.2022C24.8778 28.5459 25.162 28.8272 25.5092 28.8272ZM32.4481 27.8648C32.7954 27.8648 33.0795 27.5836 33.0795 27.2399C33.0795 26.8962 32.7954 26.615 32.4481 26.615C32.1008 26.615 31.8167 26.8962 31.8167 27.2399C31.8167 27.5898 32.1008 27.8648 32.4481 27.8648ZM27.5928 21.3157C27.94 21.3157 28.2242 21.0344 28.2242 20.6907C28.2242 20.347 27.94 20.0658 27.5928 20.0658C27.2455 20.0658 26.9614 20.347 26.9614 20.6907C26.9614 21.0344 27.2455 21.3157 27.5928 21.3157Z" fill="#CA6E55"/>
</svg>
