<svg width="90" height="90" viewBox="0 0 90 90" fill="none" xmlns="http://www.w3.org/2000/svg">
<circle cx="45" cy="45" r="45" fill="#CA6E55"/>
<circle cx="45" cy="45" r="40" fill="white"/>
<circle cx="45" cy="45" r="42.5" stroke="white"/>
<path d="M51.3038 49.3914L49.0842 46.8398H55.8777C56.2551 46.8398 56.5966 46.5973 56.7224 46.2379C56.8482 45.8785 56.7404 45.4832 56.4438 45.2406L40.6282 32.4648H43.6925C44.1868 32.4648 44.5911 32.0605 44.5911 31.5664C44.5911 31.0723 44.1868 30.668 43.6925 30.668H38.0852C37.7078 30.668 37.3663 30.9105 37.2405 31.2699C37.1147 31.6293 37.2225 32.0246 37.519 32.2672L53.3346 45.052H47.5116L47.0264 44.4949C44.9326 42.0961 41.9043 40.7215 38.7232 40.7215H32.6845C31.3725 40.7215 30.1145 41.1348 29.0631 41.9254C28.0117 42.716 27.2479 43.7852 26.8705 45.043L25.5675 49.3824H25.4417C23.5456 49.3824 22 50.9367 22 52.8324V59.957C22 60.4512 22.4044 60.8555 22.8986 60.8555H25.7921C26.2055 62.6523 27.814 64 29.746 64C31.6691 64 33.2866 62.6523 33.6999 60.8465H46.2626C46.6759 62.6523 48.2844 64 50.2164 64C52.1485 64 53.757 62.6523 54.1703 60.8465H58.4837C58.9779 60.8465 59.3823 60.4422 59.3823 59.948V57.8637C59.3823 53.3266 55.7878 49.607 51.3038 49.3914ZM56.0125 53.5691H54.5837C54.1614 53.5691 53.8199 53.2277 53.8199 52.8055V51.8531C54.6646 52.2664 55.4104 52.8504 56.0125 53.5691ZM45.6695 45.6719L48.9045 49.3824H37.8425V42.5094H38.7232C41.3831 42.5094 43.9172 43.6684 45.6695 45.6719ZM28.5958 45.5551C29.135 43.7672 30.8154 42.5094 32.6845 42.5094H36.0453V49.3824H27.4546L28.5958 45.5551ZM25.4507 51.1793H25.4956V51.8621C25.4956 52.4551 25.0193 52.9312 24.4263 52.9312H23.7972V52.8414C23.7972 51.925 24.5431 51.1793 25.4507 51.1793ZM29.746 62.2031C28.506 62.2031 27.4905 61.1879 27.4905 59.948C27.4905 58.7082 28.506 57.693 29.746 57.693C30.9861 57.693 32.0016 58.7082 32.0016 59.948C32.0016 61.1879 30.9861 62.2031 29.746 62.2031ZM29.746 55.8961C27.814 55.8961 26.2055 57.2527 25.7921 59.0586H23.7972V54.7281H24.4263C26.0078 54.7281 27.2928 53.4434 27.2928 51.8621V51.1793H36.0453V59.0496H33.6999C33.2866 57.2437 31.6691 55.8961 29.746 55.8961ZM50.2164 62.2031C48.9764 62.2031 47.9609 61.1879 47.9609 59.948C47.9609 58.7082 48.9764 57.693 50.2164 57.693C51.4565 57.693 52.472 58.7082 52.472 59.948C52.472 61.1879 51.4565 62.2031 50.2164 62.2031ZM57.5851 59.0496H54.1703C53.757 57.2437 52.1485 55.8961 50.2164 55.8961C48.2844 55.8961 46.6759 57.2437 46.2626 59.0496H37.8425V51.1793H50.8994C51.2858 51.1793 51.6542 51.2152 52.0227 51.2781V52.8055C52.0227 54.216 53.1729 55.366 54.5837 55.366H57.0998C57.4143 56.1387 57.5851 56.9832 57.5851 57.8727V59.0496ZM40.4395 52.6078C40.2059 52.6078 39.9723 52.7066 39.8015 52.8684C39.6308 53.0391 39.5409 53.2637 39.5409 53.5063C39.5409 53.7488 39.6398 53.9734 39.8015 54.1441C39.9633 54.3148 40.1969 54.4047 40.4395 54.4047C40.6822 54.4047 40.9068 54.3059 41.0776 54.1441C41.2483 53.9734 41.3382 53.7488 41.3382 53.5063C41.3382 53.2637 41.2393 53.0391 41.0776 52.8684C40.9068 52.7066 40.6732 52.6078 40.4395 52.6078ZM50.2164 59.0496C49.9828 59.0496 49.7492 59.1484 49.5784 59.3102C49.4077 59.4809 49.3178 59.7055 49.3178 59.948C49.3178 60.1816 49.4167 60.4152 49.5784 60.5859C49.7402 60.7566 49.9738 60.8465 50.2164 60.8465C50.4591 60.8465 50.6837 60.7477 50.8545 60.5859C51.0252 60.4152 51.1151 60.1906 51.1151 59.948C51.1151 59.7145 51.0162 59.4809 50.8545 59.3102C50.6837 59.1484 50.4501 59.0496 50.2164 59.0496ZM29.746 59.0496C29.5124 59.0496 29.2788 59.1484 29.108 59.3102C28.9373 59.4809 28.8474 59.7055 28.8474 59.948C28.8474 60.1816 28.9463 60.4152 29.108 60.5859C29.2698 60.7566 29.5034 60.8465 29.746 60.8465C29.9797 60.8465 30.2133 60.7477 30.3841 60.5859C30.5548 60.4152 30.6447 60.1906 30.6447 59.948C30.6447 59.7145 30.5458 59.4809 30.3841 59.3102C30.2133 59.1484 29.9797 59.0496 29.746 59.0496ZM58.6634 18C53.5233 18 49.3448 22.1777 49.3448 27.3168C49.3448 29.4461 50.0817 31.5305 51.4206 33.1746C51.4206 33.1746 51.4206 33.1836 51.4296 33.1836L57.9625 41.557C58.1332 41.7727 58.3938 41.8984 58.6724 41.8984C58.951 41.8984 59.2116 41.7727 59.3823 41.557L65.8883 33.2285C65.8972 33.2105 65.9152 33.1926 65.9242 33.1746C67.2631 31.5215 68 29.4461 68 27.3078C67.991 22.1777 63.8035 18 58.6634 18ZM64.4685 32.1145C64.4415 32.1414 64.4235 32.1684 64.4055 32.2043L58.6634 39.5535L52.8584 32.1055C52.8494 32.0965 52.8404 32.0785 52.8314 32.0695C51.7441 30.7309 51.142 29.0508 51.142 27.3168C51.142 23.166 54.5208 19.7969 58.6634 19.7969C62.806 19.7969 66.1848 23.175 66.1848 27.3168C66.1938 29.0687 65.5827 30.7668 64.4685 32.1145ZM58.6634 22.8246C56.1832 22.8246 54.1703 24.8371 54.1703 27.3168C54.1703 29.7965 56.1832 31.809 58.6634 31.809C61.1436 31.809 63.1565 29.7965 63.1565 27.3168C63.1565 24.8371 61.1436 22.8246 58.6634 22.8246ZM58.6634 30.0121C57.1807 30.0121 55.9676 28.7992 55.9676 27.3168C55.9676 25.8344 57.1807 24.6215 58.6634 24.6215C60.1461 24.6215 61.3592 25.8344 61.3592 27.3168C61.3592 28.7992 60.1551 30.0121 58.6634 30.0121ZM47.3049 32.4648C47.5386 32.4648 47.7722 32.366 47.943 32.2043C48.1137 32.0336 48.2036 31.809 48.2036 31.5664C48.2036 31.3238 48.1047 31.0992 47.943 30.9285C47.7812 30.7578 47.5476 30.668 47.3049 30.668C47.0713 30.668 46.8377 30.7668 46.6669 30.9285C46.4962 31.0992 46.4063 31.3238 46.4063 31.5664C46.4063 31.809 46.5052 32.0336 46.6669 32.2043C46.8377 32.366 47.0713 32.4648 47.3049 32.4648Z" fill="#CA6E55"/>
</svg>
