<svg width="90" height="90" viewBox="0 0 90 90" fill="none" xmlns="http://www.w3.org/2000/svg">
<circle cx="45" cy="45" r="45" fill="#CA6E55"/>
<circle cx="45" cy="45" r="40" fill="white"/>
<circle cx="45" cy="45" r="42.5" stroke="white"/>
<path d="M63.9082 45.2134C63.4769 40.8895 61.5362 36.809 58.4517 33.7298C55.8173 31.0999 52.5827 29.4059 49.1889 28.6572V26.2706C50.5764 25.9243 51.6077 24.6702 51.6077 23.1821C51.6077 21.4319 50.1733 20 48.4201 20H41.6698C39.9166 20 38.4822 21.4319 38.4822 23.1821C38.4822 24.6702 39.5135 25.9243 40.901 26.2706V28.6572C37.5165 29.4153 34.3007 31.0999 31.6663 33.7298C31.0944 34.3007 30.56 34.9091 30.0725 35.5361C30.0443 35.5361 30.0256 35.5361 29.9974 35.5361H23.3315C22.8159 35.5361 22.394 35.9573 22.394 36.472C22.394 36.9868 22.8159 37.4079 23.3315 37.4079H28.8068C28.1224 38.5591 27.5692 39.7664 27.1473 41.0018H16.9375C16.4219 41.0018 16 41.423 16 41.9377C16 42.4525 16.4219 42.8737 16.9375 42.8737H26.6129C26.341 44.0623 26.191 45.2602 26.1442 46.4675H22.0002C21.4846 46.4675 21.0627 46.8887 21.0627 47.4035C21.0627 47.9182 21.4846 48.3394 22.0002 48.3394H26.1723C26.2473 49.5467 26.4442 50.754 26.7536 51.9333H20.6877C20.172 51.9333 19.7502 52.3544 19.7502 52.8692C19.7502 53.3839 20.172 53.8051 20.6877 53.8051H27.363C28.2818 56.2385 29.7162 58.5127 31.6756 60.4594C34.7601 63.5386 38.8572 65.4759 43.198 65.9064C43.8168 65.9719 44.4355 66 45.0543 66C48.7107 66 52.3202 64.9424 55.386 62.9489C55.8173 62.6682 55.9391 62.0879 55.6579 61.6574C55.3766 61.2269 54.7953 61.1052 54.3641 61.386C47.6513 65.7473 38.6697 64.802 32.9976 59.1398C26.341 52.4948 26.341 41.6944 32.9976 35.0494C39.6541 28.4045 50.4733 28.4045 57.1298 35.0494C62.7925 40.7023 63.7395 49.6684 59.3893 56.3601C59.108 56.7906 59.2299 57.3709 59.6612 57.6517C60.0924 57.9324 60.6737 57.8108 60.955 57.3803C63.2894 53.7957 64.3301 49.4812 63.9082 45.2134ZM40.3666 23.1821C40.3666 22.4614 40.9573 21.8718 41.6792 21.8718H48.4295C49.1514 21.8718 49.742 22.4614 49.742 23.1821C49.742 23.9027 49.1514 24.4924 48.4295 24.4924H48.2607H41.8479H41.6792C40.9479 24.4924 40.3666 23.9027 40.3666 23.1821ZM42.7761 28.3296V26.3642H47.3138V28.3296C45.8137 28.1518 44.2855 28.1518 42.7761 28.3296ZM57.7955 58.859C57.5517 58.859 57.3079 58.962 57.1298 59.1304C56.9517 59.3082 56.8579 59.5422 56.8579 59.7949C56.8579 60.0383 56.9611 60.2816 57.1298 60.4594C57.3079 60.6372 57.5423 60.7308 57.7955 60.7308C58.0392 60.7308 58.283 60.6279 58.4611 60.4594C58.6392 60.2816 58.733 60.0476 58.733 59.7949C58.733 59.5516 58.6299 59.3082 58.4611 59.1304C58.283 58.962 58.0392 58.859 57.7955 58.859ZM45.0637 32.5693C37.0477 32.5693 30.5225 39.0832 30.5225 47.0852C30.5225 55.0873 37.0477 61.6106 45.0637 61.6106C53.0796 61.6106 59.6049 55.0966 59.6049 47.0946C59.6049 39.0926 53.0796 32.5693 45.0637 32.5693ZM45.0637 59.7388C38.079 59.7388 32.3975 54.0671 32.3975 47.0946C32.3975 40.1221 38.079 34.4411 45.0637 34.4411C52.0484 34.4411 57.7298 40.1221 57.7298 47.0946C57.7298 54.0671 52.0484 59.7388 45.0637 59.7388ZM43.0199 45.0637C42.5792 44.811 42.0917 44.6706 41.5573 44.6332L43.1042 42.0781C43.198 41.9284 43.2542 41.7599 43.2542 41.5727C43.2542 41.32 43.1605 41.0861 42.973 40.8989C42.7855 40.7117 42.5511 40.6181 42.2792 40.6181C42.0448 40.6181 41.7073 40.7023 41.4354 41.1235L38.4634 46.0745C38.1072 46.6454 37.9196 47.3005 37.9196 48.0212C37.9196 48.6576 38.0603 49.2472 38.3509 49.7526C38.6416 50.2673 39.0447 50.6791 39.551 50.9693C40.0572 51.2594 40.6479 51.4092 41.2948 51.4092C41.9323 51.4092 42.523 51.2594 43.0292 50.9693C43.5449 50.6791 43.948 50.2673 44.2293 49.7526C44.5105 49.2378 44.6605 48.6576 44.6605 48.0212C44.6605 47.3754 44.5199 46.7858 44.2293 46.271C43.9386 45.7656 43.5355 45.3538 43.0199 45.0637ZM42.8323 48.0212C42.8323 48.5172 42.6917 48.9103 42.4011 49.2191C42.1104 49.5186 41.7448 49.6684 41.276 49.6684C40.8073 49.6684 40.4416 49.5186 40.1604 49.2191C39.8697 48.9103 39.7291 48.5172 39.7291 48.0212C39.7291 47.5251 39.8697 47.132 40.1604 46.8138C40.451 46.505 40.8073 46.3552 41.2667 46.3552C41.7354 46.3552 42.1011 46.505 42.3917 46.8138C42.6917 47.132 42.8323 47.5251 42.8323 48.0212ZM51.7952 43.1825C51.5327 42.3683 51.1483 41.7318 50.6327 41.2826C50.1076 40.824 49.4795 40.5994 48.7576 40.5994C47.6607 40.5994 46.7981 41.0954 46.1981 42.0875C45.6262 43.0234 45.3356 44.343 45.3356 46.009C45.3356 47.6655 45.6262 48.9851 46.1981 49.9304C46.7981 50.9131 47.6607 51.4185 48.7576 51.4185C49.4795 51.4185 50.117 51.1845 50.6327 50.7353C51.1389 50.2954 51.5327 49.659 51.7952 48.8354C52.0483 48.0399 52.1796 47.0946 52.1796 46.009C52.1702 44.9233 52.0483 43.978 51.7952 43.1825ZM48.7576 49.4905C48.2982 49.4905 47.9513 49.2098 47.6888 48.6295C47.3982 47.9837 47.2575 47.104 47.2575 46.009C47.2575 44.9233 47.3982 44.0435 47.6888 43.3884C47.9419 42.7988 48.2982 42.518 48.767 42.518C49.2264 42.518 49.5732 42.8081 49.8358 43.3978C50.1264 44.0623 50.267 44.9327 50.267 46.009C50.267 47.0946 50.1264 47.9744 49.8358 48.6201C49.5732 49.2004 49.2264 49.4905 48.7576 49.4905ZM55.086 46.1681H54.2141C53.6984 46.1681 53.2765 46.5892 53.2765 47.104C53.2765 47.6187 53.6984 48.0399 54.2141 48.0399H55.086C55.6016 48.0399 56.0235 47.6187 56.0235 47.104C56.0235 46.5892 55.6016 46.1681 55.086 46.1681ZM35.9039 46.1493H35.032C34.5164 46.1493 34.0945 46.5705 34.0945 47.0852C34.0945 47.6 34.5164 48.0212 35.032 48.0212H35.9039C36.4196 48.0212 36.8415 47.6 36.8415 47.0852C36.8415 46.5705 36.429 46.1493 35.9039 46.1493ZM45.0731 38.8867C45.5887 38.8867 46.0106 38.4655 46.0106 37.9508V37.0804C46.0106 36.5656 45.5887 36.1445 45.0731 36.1445C44.5574 36.1445 44.1355 36.5656 44.1355 37.0804V37.9508C44.1355 38.4655 44.5574 38.8867 45.0731 38.8867ZM45.0543 55.2932C44.5387 55.2932 44.1168 55.7143 44.1168 56.2291V57.0995C44.1168 57.6142 44.5387 58.0354 45.0543 58.0354C45.57 58.0354 45.9919 57.6142 45.9919 57.0995V56.2291C45.9919 55.7143 45.57 55.2932 45.0543 55.2932ZM16.9375 51.9333C16.6938 51.9333 16.45 52.0362 16.2719 52.2047C16.0938 52.3731 16 52.6258 16 52.8692C16 53.1125 16.1031 53.3559 16.2719 53.5337C16.4406 53.7115 16.6844 53.8051 16.9375 53.8051C17.1907 53.8051 17.4251 53.7021 17.6032 53.5337C17.7813 53.3559 17.8751 53.1219 17.8751 52.8692C17.8751 52.6258 17.7719 52.3825 17.6032 52.2047C17.4251 52.0362 17.1813 51.9333 16.9375 51.9333Z" fill="#CA6E55"/>
</svg>
