<svg width="220" height="15" viewBox="0 0 220 15" fill="none" xmlns="http://www.w3.org/2000/svg">
<path d="M8.33203 10.9399C8.33203 11.182 8.14453 11.3788 7.91406 11.3788H2.91406C2.68359 11.3788 2.49609 11.182 2.49609 10.9399C2.49609 10.6979 2.6875 10.501 2.91797 10.501H7.91797C8.14844 10.501 8.33203 10.6979 8.33203 10.9399ZM7.91797 8.74949H2.91797C2.6875 8.74949 2.5 8.94638 2.5 9.1884C2.5 9.43041 2.6875 9.62731 2.91797 9.62731H7.91797C8.14844 9.62731 8.33594 9.43041 8.33594 9.1884C8.33594 8.94638 8.14844 8.74949 7.91797 8.74949ZM20 5.68942V11.8137C20 13.0196 19.0664 14 17.918 14H2.08203C0.933594 14 0 13.0196 0 11.8137V5.68942V3.06417V2.18635C0 0.980369 0.933594 0 2.08203 0H17.9141C19.0664 0 20 0.980369 20 2.18635V3.06006V5.68942ZM0.832031 5.25051H19.1641V3.49897H0.832031V5.25051ZM0.832031 2.18635V2.62526H19.1641V2.18635C19.1641 1.4644 18.6016 0.873718 17.9141 0.873718H2.08203C1.39453 0.873718 0.832031 1.4644 0.832031 2.18635ZM19.168 11.8137V6.12423H0.832031V11.8137C0.832031 12.5356 1.39453 13.1263 2.08203 13.1263H17.9141C18.6055 13.1263 19.168 12.5356 19.168 11.8137ZM17.5 9.1884V10.0621C17.5 10.7841 16.9375 11.3747 16.25 11.3747H15.418C14.7305 11.3747 14.168 10.7841 14.168 10.0621V9.1884C14.168 8.46645 14.7305 7.87577 15.418 7.87577H16.25C16.9375 7.87577 17.5 8.46645 17.5 9.1884ZM16.668 9.1884C16.668 8.94638 16.4805 8.74949 16.25 8.74949H15.418C15.1875 8.74949 15 8.94638 15 9.1884V10.0621C15 10.3041 15.1875 10.501 15.418 10.501H16.25C16.4805 10.501 16.668 10.3041 16.668 10.0621V9.1884Z" fill="#554045"/>
<path d="M108.332 10.9399C108.332 11.182 108.144 11.3788 107.914 11.3788H102.914C102.683 11.3788 102.496 11.182 102.496 10.9399C102.496 10.6979 102.687 10.501 102.918 10.501H107.918C108.148 10.501 108.332 10.6979 108.332 10.9399ZM107.918 8.74949H102.918C102.687 8.74949 102.5 8.94638 102.5 9.1884C102.5 9.43041 102.687 9.62731 102.918 9.62731H107.918C108.148 9.62731 108.336 9.43041 108.336 9.1884C108.336 8.94638 108.148 8.74949 107.918 8.74949ZM120 5.68942V11.8137C120 13.0196 119.066 14 117.918 14H102.082C100.933 14 99.9996 13.0196 99.9996 11.8137V5.68942V3.06417V2.18635C99.9996 0.980369 100.933 0 102.082 0H117.914C119.066 0 120 0.980369 120 2.18635V3.06006V5.68942ZM100.832 5.25051H119.164V3.49897H100.832V5.25051ZM100.832 2.18635V2.62526H119.164V2.18635C119.164 1.4644 118.601 0.873718 117.914 0.873718H102.082C101.394 0.873718 100.832 1.4644 100.832 2.18635ZM119.168 11.8137V6.12423H100.832V11.8137C100.832 12.5356 101.394 13.1263 102.082 13.1263H117.914C118.605 13.1263 119.168 12.5356 119.168 11.8137ZM117.5 9.1884V10.0621C117.5 10.7841 116.937 11.3747 116.25 11.3747H115.418C114.73 11.3747 114.168 10.7841 114.168 10.0621V9.1884C114.168 8.46645 114.73 7.87577 115.418 7.87577H116.25C116.937 7.87577 117.5 8.46645 117.5 9.1884ZM116.668 9.1884C116.668 8.94638 116.48 8.74949 116.25 8.74949H115.418C115.187 8.74949 115 8.94638 115 9.1884V10.0621C115 10.3041 115.187 10.501 115.418 10.501H116.25C116.48 10.501 116.668 10.3041 116.668 10.0621V9.1884Z" fill="#554045"/>
<path d="M208.331 10.9399C208.331 11.182 208.144 11.3788 207.913 11.3788H202.913C202.683 11.3788 202.495 11.182 202.495 10.9399C202.495 10.6979 202.687 10.501 202.917 10.501H207.917C208.148 10.501 208.331 10.6979 208.331 10.9399ZM207.917 8.74949H202.917C202.687 8.74949 202.499 8.94638 202.499 9.1884C202.499 9.43041 202.687 9.62731 202.917 9.62731H207.917C208.148 9.62731 208.335 9.43041 208.335 9.1884C208.335 8.94638 208.148 8.74949 207.917 8.74949ZM219.999 5.68942V11.8137C219.999 13.0196 219.066 14 217.917 14H202.081C200.933 14 199.999 13.0196 199.999 11.8137V5.68942V3.06417V2.18635C199.999 0.980369 200.933 0 202.081 0H217.913C219.066 0 219.999 0.980369 219.999 2.18635V3.06006V5.68942ZM200.831 5.25051H219.163V3.49897H200.831V5.25051ZM200.831 2.18635V2.62526H219.163V2.18635C219.163 1.4644 218.601 0.873718 217.913 0.873718H202.081C201.394 0.873718 200.831 1.4644 200.831 2.18635ZM219.167 11.8137V6.12423H200.831V11.8137C200.831 12.5356 201.394 13.1263 202.081 13.1263H217.913C218.605 13.1263 219.167 12.5356 219.167 11.8137ZM217.499 9.1884V10.0621C217.499 10.7841 216.937 11.3747 216.249 11.3747H215.417C214.73 11.3747 214.167 10.7841 214.167 10.0621V9.1884C214.167 8.46645 214.73 7.87577 215.417 7.87577H216.249C216.937 7.87577 217.499 8.46645 217.499 9.1884ZM216.667 9.1884C216.667 8.94638 216.48 8.74949 216.249 8.74949H215.417C215.187 8.74949 214.999 8.94638 214.999 9.1884V10.0621C214.999 10.3041 215.187 10.501 215.417 10.501H216.249C216.48 10.501 216.667 10.3041 216.667 10.0621V9.1884Z" fill="#554045"/>
<path fill-rule="evenodd" clip-rule="evenodd" d="M57.1497 1C53.7427 1 51 3.69783 51 7.00231C51 10.3068 53.7427 13.0046 57.1497 13.0046C60.5567 13.0046 63.2994 10.3068 63.2994 7.00231C63.2994 3.69783 60.5567 1 57.1497 1ZM50 7.00231C50 3.12453 53.2117 0 57.1497 0H57.1501H59.05H60.95H62.8499C66.7879 0 69.9996 3.12453 69.9996 7.00231C69.9996 10.8745 66.7971 13.9957 62.8668 14.0046L62.8499 14.0049H57.1501L57.1333 14.0046C53.2027 13.9959 50 10.8747 50 7.00231ZM68.0997 7.00231C68.0997 4.80138 67.0651 2.8431 65.4503 1.56104C67.5504 2.51879 68.9996 4.60028 68.9996 7.00231C68.9996 9.40434 67.5504 11.4858 65.4503 12.4436C67.0651 11.1615 68.0997 9.20324 68.0997 7.00231ZM63.5503 12.4436C65.6505 11.4859 67.0997 9.40436 67.0997 7.00231C67.0997 4.60027 65.6505 2.51877 63.5503 1.56102C65.1651 2.84309 66.1998 4.80137 66.1998 7.00231C66.1998 9.20325 65.1651 11.1615 63.5503 12.4436ZM64.2994 7.00231C64.2994 4.80114 63.2646 2.84267 61.6495 1.56062C63.7501 2.51818 65.1998 4.59993 65.1998 7.00231C65.1998 9.4047 63.7501 11.4864 61.6495 12.444C63.2646 11.162 64.2994 9.20348 64.2994 7.00231ZM56.0411 9.28395V8.62628H57.7282C58.2906 8.62628 58.7922 8.50739 59.2329 8.26959C59.6813 8.03179 60.0271 7.7011 60.2703 7.27752C60.5211 6.85394 60.6465 6.37091 60.6465 5.82843C60.6465 5.27109 60.5211 4.7732 60.2703 4.33476C60.0271 3.89632 59.6813 3.55448 59.2329 3.30925C58.7922 3.06402 58.2906 2.94141 57.7282 2.94141H55.4483C55.2811 2.94141 55.1405 2.99714 55.0265 3.10861C54.9125 3.21264 54.8555 3.35012 54.8555 3.52104V7.55619H54.1829C54.0082 7.55619 53.8676 7.60821 53.7612 7.71225C53.6548 7.80885 53.6016 7.9389 53.6016 8.10238C53.6016 8.25844 53.6548 8.38477 53.7612 8.48137C53.8676 8.57798 54.0082 8.62628 54.1829 8.62628H54.8555V9.28395H54.1829C54.0158 9.28395 53.8752 9.32853 53.7612 9.41771C53.6548 9.49945 53.6016 9.60349 53.6016 9.72982C53.6016 9.85615 53.6548 9.9639 53.7612 10.0531C53.8752 10.1348 54.0158 10.1757 54.1829 10.1757H54.8555V11.0674C54.8555 11.2309 54.9125 11.3684 55.0265 11.4799C55.1405 11.5913 55.2811 11.6471 55.4483 11.6471C55.6231 11.6471 55.7637 11.5913 55.8701 11.4799C55.9841 11.3684 56.0411 11.2309 56.0411 11.0674V10.1757H57.5116C57.6788 10.1757 57.8194 10.1348 57.9334 10.0531C58.0474 9.9639 58.1044 9.85615 58.1044 9.72982C58.1044 9.60349 58.0474 9.49945 57.9334 9.41771C57.8194 9.32853 57.6788 9.28395 57.5116 9.28395H56.0411ZM57.7282 7.55619H56.0411V4.0115H57.7282C58.245 4.0115 58.6706 4.18242 59.0049 4.52425C59.3393 4.86609 59.5065 5.30082 59.5065 5.82843C59.5065 6.33376 59.3393 6.7499 59.0049 7.07688C58.6706 7.39642 58.245 7.55619 57.7282 7.55619Z" fill="#CA6E55"/>
<path fill-rule="evenodd" clip-rule="evenodd" d="M157.149 1C153.742 1 151 3.69744 151 7.00126C151 10.2977 153.73 12.9904 157.126 13.0025C157.134 13.0021 157.142 13.002 157.15 13.002H157.235C160.602 12.957 163.299 10.2772 163.299 7.00126C163.299 3.69744 160.556 1 157.149 1ZM160.925 14.002H159.142C159.111 14.0023 159.08 14.0025 159.05 14.0025C159.042 14.0025 159.033 14.0023 159.025 14.002H157.242C157.211 14.0023 157.18 14.0025 157.149 14.0025C153.211 14.0025 150 10.8785 150 7.00126C150 3.12399 153.211 0 157.149 0H157.15H159.05H160.95H162.849H162.849C166.787 0 169.999 3.12399 169.999 7.00126C169.999 10.8785 166.787 14.0025 162.849 14.0025C162.841 14.0025 162.833 14.0023 162.825 14.002H161.042C161.011 14.0023 160.98 14.0025 160.95 14.0025C160.941 14.0025 160.933 14.0023 160.925 14.002ZM168.099 7.00126C168.099 4.80081 167.065 2.84298 165.45 1.56111C167.55 2.51878 168.999 4.59984 168.999 7.00126C168.999 9.40269 167.55 11.4837 165.45 12.4414C167.065 11.1596 168.099 9.20172 168.099 7.00126ZM163.55 12.4414C165.65 11.4837 167.099 9.40269 167.099 7.00126C167.099 4.59984 165.65 2.51878 163.55 1.56111C165.165 2.84297 166.199 4.80081 166.199 7.00126C166.199 9.20172 165.165 11.1596 163.55 12.4414ZM161.649 12.4419C163.264 11.16 164.299 9.20199 164.299 7.00126C164.299 4.80054 163.264 2.8425 161.649 1.56064C163.75 2.51811 165.199 4.59945 165.199 7.00126C165.199 9.40308 163.75 11.4844 161.649 12.4419ZM156.041 9.28292V8.62537H157.728C158.29 8.62537 158.792 8.50649 159.233 8.26873C159.681 8.03097 160.027 7.70033 160.27 7.27682C160.521 6.85331 160.646 6.37036 160.646 5.82797C160.646 5.27072 160.521 4.77291 160.27 4.33453C160.027 3.89616 159.681 3.55438 159.233 3.30919C158.792 3.064 158.29 2.94141 157.728 2.94141H155.448C155.281 2.94141 155.14 2.99713 155.026 3.10858C154.912 3.2126 154.855 3.35006 154.855 3.52095V7.55545H154.183C154.008 7.55545 153.867 7.60746 153.761 7.71148C153.654 7.80807 153.601 7.93809 153.601 8.10155C153.601 8.25758 153.654 8.38389 153.761 8.48048C153.867 8.57707 154.008 8.62537 154.183 8.62537H154.855V9.28292H154.183C154.015 9.28292 153.875 9.32751 153.761 9.41667C153.654 9.4984 153.601 9.60242 153.601 9.72873C153.601 9.85504 153.654 9.96277 153.761 10.0519C153.875 10.1337 154.015 10.1745 154.183 10.1745H154.855V11.0661C154.855 11.2296 154.912 11.367 155.026 11.4785C155.14 11.5899 155.281 11.6457 155.448 11.6457C155.623 11.6457 155.763 11.5899 155.87 11.4785C155.984 11.367 156.041 11.2296 156.041 11.0661V10.1745H157.511C157.678 10.1745 157.819 10.1337 157.933 10.0519C158.047 9.96277 158.104 9.85504 158.104 9.72873C158.104 9.60242 158.047 9.4984 157.933 9.41667C157.819 9.32751 157.678 9.28292 157.511 9.28292H156.041ZM157.728 7.55545H156.041V4.01133H157.728C158.245 4.01133 158.67 4.18222 159.005 4.524C159.339 4.86578 159.506 5.30044 159.506 5.82797C159.506 6.33321 159.339 6.74929 159.005 7.07621C158.67 7.3957 158.245 7.55545 157.728 7.55545Z" fill="#CA6E55"/>
</svg>
