<?xml version="1.0" encoding="UTF-8"?> <svg xmlns="http://www.w3.org/2000/svg" width="523.969" height="39" viewBox="0 0 523.969 39"><defs><style> .cls-1 { fill: #fff; fill-rule: evenodd; } </style></defs><path id="opening-subheading" class="cls-1" d="M474.685,296.694q5.656,0,8.9-2.711a8.952,8.952,0,0,0,3.243-7.237,10.16,10.16,0,0,0-1.5-5.474,9.863,9.863,0,0,0-4.232-3.72,14.4,14.4,0,0,0-6.283-1.307H462.458v30.949h7.464v-10.5h4.763Zm-4.763-14.689H474.9a4.147,4.147,0,0,1,3.189,1.318,4.979,4.979,0,0,1,1.17,3.465,4.029,4.029,0,0,1-1.138,3.061,4.61,4.61,0,0,1-3.306,1.084h-4.891v-8.928Zm41.614,6.526H499.8v-6.526h13.907v-5.76H492.334v30.949h21.328v-5.739H499.8v-7.4h11.738v-5.527Zm24.326,8.184a5.138,5.138,0,0,1-1.446,3.847,5.73,5.73,0,0,1-3.934,1.212,4.552,4.552,0,0,1-4.284-2.126q-1.245-2.126-1.244-7.078v-2.19q0.063-4.569,1.361-6.653a4.456,4.456,0,0,1,4.082-2.083,5.861,5.861,0,0,1,4.083,1.233,5.543,5.543,0,0,1,1.425,4.06h7.442a11.716,11.716,0,0,0-3.891-8.173A13.349,13.349,0,0,0,530.4,275.8a12.726,12.726,0,0,0-6.889,1.86,12.006,12.006,0,0,0-4.561,5.272,18.714,18.714,0,0,0-1.585,7.961v1.53q0,7.25,3.509,11.224a12.16,12.16,0,0,0,9.611,3.975,15.242,15.242,0,0,0,6.582-1.361,10.52,10.52,0,0,0,4.476-3.837,11.306,11.306,0,0,0,1.744-5.707h-7.422Zm36.171-20.47H546.154v5.76h9.123v25.189h7.463V282.005h9.293v-5.76Zm30.3,14.688a17.814,17.814,0,0,0-1.734-7.918,12.6,12.6,0,0,0-4.795-5.325,14.171,14.171,0,0,0-14.108.021,12.389,12.389,0,0,0-4.785,5.368,18.324,18.324,0,0,0-1.669,8.024v1.743a17.7,17.7,0,0,0,1.8,7.759,12.394,12.394,0,0,0,4.773,5.2,13.485,13.485,0,0,0,7.018,1.818,13.3,13.3,0,0,0,7.049-1.882,12.416,12.416,0,0,0,4.774-5.367,18.258,18.258,0,0,0,1.68-8.014v-1.424Zm-7.592,1.552a13.01,13.01,0,0,1-1.552,6.908,4.878,4.878,0,0,1-4.359,2.4,4.938,4.938,0,0,1-4.487-2.444,13.379,13.379,0,0,1-1.51-6.994l0.021-2.274q0.319-8.418,5.933-8.418a4.944,4.944,0,0,1,4.412,2.392q1.542,2.391,1.542,7v1.424Zm25.2,4.209q5.656,0,8.9-2.711a8.952,8.952,0,0,0,3.243-7.237,10.151,10.151,0,0,0-1.5-5.474,9.86,9.86,0,0,0-4.231-3.72,14.406,14.406,0,0,0-6.284-1.307H607.714v30.949h7.464v-10.5h4.763Zm-4.763-14.689h4.976a4.147,4.147,0,0,1,3.19,1.318,4.983,4.983,0,0,1,1.169,3.465,4.029,4.029,0,0,1-1.137,3.061,4.614,4.614,0,0,1-3.307,1.084h-4.891v-8.928ZM653.2,307.194h8.016l-11.44-30.949h-7.017L631.4,307.194h7.974l1.786-5.781h10.228Zm-6.932-22.277,3.338,10.735h-6.656Zm44.612-8.672h-7.421v12.286H672.464V276.245H665v30.949h7.464V294.27h10.994v12.924h7.421V276.245Zm32.471,14.688a17.827,17.827,0,0,0-1.733-7.918,12.609,12.609,0,0,0-4.8-5.325,14.171,14.171,0,0,0-14.108.021,12.389,12.389,0,0,0-4.785,5.368,18.324,18.324,0,0,0-1.669,8.024v1.743a17.7,17.7,0,0,0,1.8,7.759,12.39,12.39,0,0,0,4.774,5.2,13.479,13.479,0,0,0,7.017,1.818,13.3,13.3,0,0,0,7.049-1.882,12.416,12.416,0,0,0,4.774-5.367,18.258,18.258,0,0,0,1.68-8.014v-1.424Zm-7.592,1.552a13.01,13.01,0,0,1-1.552,6.908,4.878,4.878,0,0,1-4.359,2.4,4.938,4.938,0,0,1-4.487-2.444,13.379,13.379,0,0,1-1.51-6.994l0.021-2.274q0.319-8.418,5.933-8.418a4.945,4.945,0,0,1,4.413,2.392q1.541,2.391,1.541,7v1.424ZM741.3,307.194q5.655-.042,8.537-2.327t2.882-6.834a6.924,6.924,0,0,0-1.3-4.252,6.526,6.526,0,0,0-3.721-2.38,6.449,6.449,0,0,0,3.254-2.509,7.36,7.36,0,0,0,1.105-4.1,7.285,7.285,0,0,0-3.115-6.356q-3.115-2.189-9.09-2.189H728.729v30.949H741.3Zm0.127-13.157q3.849,0.021,3.849,3.889a3.234,3.234,0,0,1-1.084,2.6,4.651,4.651,0,0,1-3.105.925h-4.891v-7.418h5.231Zm-5.231-12.053h3.658a6.033,6.033,0,0,1,3.636.864,3.335,3.335,0,0,1,1.127,2.824,3.177,3.177,0,0,1-1.042,2.58,5.527,5.527,0,0,1-3.487.9h-3.892v-7.164Zm41.444,5.761h-4.38l-5.784,8.29v0.4l5.784,8.29h4.38l-4.933-8.482Zm8.782,0h-4.38l-5.784,8.29v0.4l5.784,8.29h4.38l-4.933-8.482Zm34.938,13.71h-3.3v-25.21H796.988l-0.957,13.243a31.505,31.505,0,0,1-1.5,8.024,7.884,7.884,0,0,1-2.775,3.943h-2.19l0.531,13.328h6.911v-7.589h16.863v7.61h6.7Zm-17.9-11.712,0.574-7.738h6.592v19.45H800.2q2.615-4.186,3.253-11.712h0Zm59.838,1.19a17.8,17.8,0,0,0-1.733-7.918,12.606,12.606,0,0,0-4.8-5.325,13.262,13.262,0,0,0-7.018-1.87,13.569,13.569,0,0,0-6.783,1.69,12.1,12.1,0,0,0-4.731,4.857,17.316,17.316,0,0,0-1.988,7.354H833.18V276.245h-7.443v30.949h7.443V295.248h3.211a15.785,15.785,0,0,0,2.3,6.569,12.145,12.145,0,0,0,4.668,4.312,13.7,13.7,0,0,0,6.432,1.491,13.3,13.3,0,0,0,7.049-1.882,12.41,12.41,0,0,0,4.774-5.367,18.244,18.244,0,0,0,1.68-8.014v-1.424Zm-7.592,1.552a13.01,13.01,0,0,1-1.552,6.908,4.877,4.877,0,0,1-4.359,2.4,4.939,4.939,0,0,1-4.487-2.444,13.388,13.388,0,0,1-1.51-6.994l0.022-2.274q0.318-8.418,5.932-8.418a4.945,4.945,0,0,1,4.413,2.392q1.542,2.391,1.541,7v1.424Zm13.482-16.24v30.949h37.659V276.245h-7.421v25.21h-7.613v-25.21h-7.464v25.21h-7.7v-25.21H869.18Zm62.964,12.286H920.406v-6.526h13.907v-5.76H912.942v30.949H934.27v-5.739H920.406v-7.4h11.738v-5.527Zm24.326,8.184a5.142,5.142,0,0,1-1.446,3.847,5.732,5.732,0,0,1-3.934,1.212,4.554,4.554,0,0,1-4.285-2.126q-1.243-2.126-1.244-7.078v-2.19q0.065-4.569,1.361-6.653a4.459,4.459,0,0,1,4.083-2.083,5.861,5.861,0,0,1,4.083,1.233,5.539,5.539,0,0,1,1.424,4.06h7.443a11.716,11.716,0,0,0-3.891-8.173,13.349,13.349,0,0,0-9.059-2.966,12.732,12.732,0,0,0-6.89,1.86,12.013,12.013,0,0,0-4.561,5.272,18.729,18.729,0,0,0-1.584,7.961v1.53q0,7.25,3.509,11.224a12.158,12.158,0,0,0,9.611,3.975,15.237,15.237,0,0,0,6.581-1.361,10.529,10.529,0,0,0,4.477-3.837,11.3,11.3,0,0,0,1.743-5.707H956.47Zm11.015-8.949,4.933,8.5-4.933,8.482h4.4l5.783-8.29v-0.4l-5.783-8.29h-4.4Zm8.782,0,4.933,8.5-4.933,8.482h4.4l5.784-8.29v-0.4l-5.784-8.29h-4.4Z" transform="translate(-462.469 -275.813)"></path></svg> 