<?xml version="1.0" encoding="UTF-8"?> <svg xmlns="http://www.w3.org/2000/svg" width="659.152" height="151.875" viewBox="0 0 659.152 151.875"><defs><style> .cls-1 { fill: #fff; fill-rule: evenodd; } </style></defs><path id="opening-h1" class="cls-1" d="M571.79,121.5a29.17,29.17,0,0,0-2.839-12.973A20.667,20.667,0,0,0,561.1,99.8a23.213,23.213,0,0,0-23.116.035,20.288,20.288,0,0,0-7.839,8.794,30.013,30.013,0,0,0-2.735,13.147v2.855a29.026,29.026,0,0,0,2.944,12.712,20.3,20.3,0,0,0,7.821,8.515,22.1,22.1,0,0,0,11.5,2.978,21.787,21.787,0,0,0,11.55-3.082,20.339,20.339,0,0,0,7.821-8.794,29.9,29.9,0,0,0,2.752-13.13V121.5Zm-12.437,2.542q-0.036,7.384-2.544,11.319a7.992,7.992,0,0,1-7.142,3.935,8.088,8.088,0,0,1-7.351-4q-2.474-4-2.473-11.458l0.035-3.726q0.522-13.791,9.72-13.791a8.1,8.1,0,0,1,7.229,3.918q2.524,3.918,2.526,11.475v2.333Zm58.111-26.607h-42.4v9.438h14.946v41.269H602.24V106.87h15.224V97.432Zm36.372,50.707H668.3l-15.678-27.3,13.936-23.4H651.746l-9.755,19.607h-4.7V97.432H625.059v50.707h12.229v-20.06h5.783Zm40-17.2q9.267,0,14.58-4.44a14.675,14.675,0,0,0,5.313-11.859,16.647,16.647,0,0,0-2.456-8.968,16.161,16.161,0,0,0-6.933-6.094,23.587,23.587,0,0,0-10.295-2.142H673.8v50.707h12.229v-17.2h7.8Zm-7.8-24.065h8.152a6.788,6.788,0,0,1,5.226,2.159,8.159,8.159,0,0,1,1.916,5.677,6.6,6.6,0,0,1-1.864,5.015,7.559,7.559,0,0,1-5.417,1.776h-8.013V106.87Zm48.949-9.438H722.713v50.707h18.36q9.372,0,14.929-4.666a16.059,16.059,0,0,0,3.066-20.74,16.173,16.173,0,0,0-7.125-5.8,26.066,26.066,0,0,0-10.661-2.055h-6.305V97.432Zm42.468,0H765.252v50.707h12.193V97.432Zm-36.267,26.851a8.719,8.719,0,0,1,5.992,1.916,6.423,6.423,0,0,1,2.16,5.05,7.15,7.15,0,0,1-2.177,5.4,8.172,8.172,0,0,1-5.9,2.089h-6.271V124.283h6.2Zm85.077-26.851h-42.4v9.438H798.8v41.269H811.03V106.87h15.225V97.432Zm19.2,32.006V97.432H833.223v50.707h12.228l18.221-31.97v31.97H875.9V97.432H863.672Zm71.873-11.876H898.093V106.87h22.785V97.432H885.865v50.707h34.943v-9.4H898.093V126.617h19.231v-9.055ZM402.7,185.438l-0.871,23.333q-0.489,9.369-2.126,13.322t-5.3,4.475l-1.707.174v9.4h3.275q6.1-.069,9.633-2.49a15.258,15.258,0,0,0,5.452-7.679,51.121,51.121,0,0,0,2.439-14.07l0.836-17.03h11.392v41.269h12.229V185.438H402.7Zm76.855,20.129H460.322V194.876h22.785v-9.438H448.094v50.707h34.944v-9.4H460.322v-12.12h19.232v-9.055Zm51.492-20.129h-42.4v9.438h14.946v41.269h12.228V194.876h15.225v-9.438Zm50.064,0H568.951v20.129H550.939V185.438H538.71v50.707h12.229V214.971h18.012v21.174H581.11V185.438Zm41.7,20.129H603.581V194.876h22.785v-9.438H591.352v50.707H626.3v-9.4H603.581v-12.12h19.231v-9.055Zm22.506,11.876V185.438H633.09v50.707h12.228l18.221-31.971v31.971h12.228V185.438H663.539Zm14.04-45.657a4.176,4.176,0,0,1-1.271,3.291,6.176,6.176,0,0,1-7.177-.035,4.14,4.14,0,0,1-1.307-3.256h-7.978a9.618,9.618,0,0,0,3.519,7.731q3.519,2.961,9.372,2.96t9.371-2.96a9.618,9.618,0,0,0,3.519-7.731h-8.048Zm64.731,64.359q9.267-.069,13.988-3.813t4.721-11.2a11.344,11.344,0,0,0-2.125-6.965,10.694,10.694,0,0,0-6.1-3.9,10.552,10.552,0,0,0,5.33-4.11,12.056,12.056,0,0,0,1.812-6.721q0-6.825-5.1-10.413t-14.894-3.587H703.5v50.707h20.59Zm0.209-21.557q6.306,0.035,6.306,6.373a5.3,5.3,0,0,1-1.777,4.266,7.622,7.622,0,0,1-5.086,1.515h-8.013V214.588h8.57Zm-8.57-19.747h5.992q4.111,0,5.958,1.415t1.846,4.628a5.2,5.2,0,0,1-1.707,4.226q-1.707,1.432-5.713,1.467h-6.376V194.841Zm67.762,10.726H764.259V194.876h22.785v-9.438H752.03v50.707h34.944v-9.4H764.259v-12.12H783.49v-9.055ZM814.5,218.941q9.267,0,14.58-4.441a14.67,14.67,0,0,0,5.313-11.858,16.647,16.647,0,0,0-2.456-8.968A16.146,16.146,0,0,0,825,187.58a23.586,23.586,0,0,0-10.295-2.142H794.464v50.707h12.229v-17.2h7.8Zm-7.8-24.065h8.152a6.787,6.787,0,0,1,5.226,2.159,8.156,8.156,0,0,1,1.916,5.677,6.6,6.6,0,0,1-1.864,5.015,7.557,7.557,0,0,1-5.417,1.776h-8.013V194.876Zm62.292,41.269H882.12l-18.744-50.707h-11.5l-18.6,50.707H846.34l2.926-9.473h16.758Zm-11.357-36.5,5.469,17.587h-10.9Zm73.092-14.209H918.561v20.129H900.549V185.438H888.321v50.707h12.228V214.971h18.012v21.174H930.72V185.438Zm59.714,41.3h-5.4v-41.3H950.509l-1.568,21.7a51.6,51.6,0,0,1-2.456,13.147q-1.725,4.579-4.547,6.46H938.35l0.871,21.836h11.323V236.145h27.627v12.468h10.974ZM961.1,207.553l0.94-12.677h10.8v31.866H955.769q4.285-6.861,5.331-19.189h0Zm48.29-22.115H997.123v50.707h18.357q9.375,0,14.93-4.667a16.057,16.057,0,0,0,3.07-20.739,16.176,16.176,0,0,0-7.13-5.8,26.058,26.058,0,0,0-10.66-2.055h-6.3V185.438Zm42.47,0h-12.2v50.707h12.2V185.438Zm-36.27,26.851a8.727,8.727,0,0,1,5.99,1.915,6.426,6.426,0,0,1,2.16,5.05,7.156,7.156,0,0,1-2.18,5.4,8.165,8.165,0,0,1-5.9,2.09h-6.27V212.289h6.2Z" transform="translate(-392.688 -96.75)"></path></svg> 