<svg width="240" height="124" viewBox="0 0 240 124" fill="none" xmlns="http://www.w3.org/2000/svg">
<path fill-rule="evenodd" clip-rule="evenodd" d="M181.7 58.4288C181.482 59.3747 180.973 60.4662 180.682 61.4121L179.082 67.5242C178.791 68.5429 178.354 69.7071 178.281 70.7258L177.117 71.3807C177.627 67.7425 179.227 60.6845 181.7 58.4288ZM185.41 54.5724C183.301 55.8821 181.846 59.6658 181.191 61.8487C180.973 62.5763 180.973 63.3039 180.755 63.9588C180.245 65.3413 179.082 68.9795 179.227 70.2164C181.046 69.3433 180.609 69.6343 181.409 66.4328C181.773 65.0503 182.064 63.7405 182.428 62.358C183.083 60.1751 185.047 55.9549 185.41 54.5724ZM182.428 69.4888C184.246 68.3246 183.446 68.5429 186.502 68.1063L195.231 66.2145C196.686 65.8507 198.505 64.7592 199.741 64.832C194.213 67.597 196.977 66.5783 190.794 68.4701C188.975 68.9795 184.028 70.2164 182.428 69.4888ZM188.247 52.826C188.247 53.4809 187.738 54.063 187.447 54.6451L185.265 60.2479C184.537 62.8674 183.519 65.6324 183.01 68.1063L181.628 68.9795C181.409 68.0335 184.828 54.2085 188.247 52.826ZM185.483 67.5242C187.738 67.3787 201.414 64.4682 202.433 62.2125C199.523 63.0857 196.54 63.9588 193.631 64.832C191.521 65.4141 186.938 66.0689 185.483 67.5242ZM192.321 50.2793C191.885 50.7159 191.666 50.7159 191.157 51.007C190.139 51.6618 189.193 52.826 188.684 53.9175C188.393 54.5724 187.884 55.2272 187.52 56.0276C187.229 56.828 187.084 57.4101 186.647 58.2105C186.211 59.1564 183.883 66.651 183.81 67.4514C184.901 67.0876 184.974 66.36 185.265 65.3413C185.701 63.7405 186.065 63.5222 186.72 60.83C187.084 59.5203 188.975 55.1545 189.557 54.2086C190.284 53.3354 192.176 50.9342 192.321 50.2793ZM200.832 41.5478C199.232 42.4937 199.086 43.003 197.995 44.3128L194.504 48.6058C194.067 49.1151 193.849 49.5517 193.485 50.0611C192.176 51.8801 190.357 54.063 189.411 56.0276L185.847 65.9962C187.447 65.2685 187.302 64.3226 187.956 63.0129C189.702 59.1564 192.758 54.2085 195.085 50.6432L198.795 44.5311C199.377 43.5851 200.541 42.6392 200.832 41.5478ZM208.616 56.1732C207.307 59.0837 194.722 62.5035 191.375 63.0857C192.467 61.9214 193.558 61.4849 195.158 61.1211L204.397 58.2105C205.852 57.7012 207.161 56.7553 208.616 56.1732ZM204.179 44.3128C203.742 46.0591 201.051 51.5891 199.814 53.4809C198.577 55.3728 197.777 56.828 195.522 58.2833L199.668 51.2253C200.614 49.9155 201.051 49.1879 201.778 47.8054C202.069 47.2233 203.669 44.6766 204.179 44.3128ZM200.978 55.1545C201.851 55.3728 204.833 54.5724 205.997 54.3541L209.925 53.1899C210.798 52.7533 210.653 52.6805 210.798 52.535C209.634 52.7533 209.344 52.8988 208.18 52.9716C204.324 53.1171 204.106 52.7533 200.978 55.1545ZM204.979 39.2193C203.524 39.6559 204.251 39.8014 203.233 40.5291C201.123 42.0571 200.905 43.3668 199.523 44.8221C198.504 45.9136 196.613 49.5517 195.595 51.007C194.358 52.826 188.611 62.4308 188.466 63.7405C190.648 62.7946 190.139 62.358 191.012 60.6845L194.722 54.4268C195.449 53.4082 196.031 52.3895 196.686 51.3708C197.923 49.2607 199.232 47.2233 200.396 45.1132C202.36 41.6933 204.688 40.3835 204.979 39.2193ZM205.124 40.5291C205.052 41.766 203.015 44.6038 202.214 45.768C201.123 47.4416 200.178 49.2607 199.014 51.007C197.777 52.7533 197.05 54.6451 195.813 56.3187C194.14 58.5743 193.776 59.9568 191.666 61.1938L201.051 45.4042C201.924 44.0217 203.815 41.4022 205.124 40.5291ZM210.507 37.182C209.125 37.473 207.234 39.5104 206.725 40.7474C205.924 42.6392 206.87 41.0384 205.634 42.8575C205.343 43.2213 205.124 44.3855 204.761 45.0404C203.888 46.4957 201.705 51.8801 200.614 53.6992L200.978 53.6264L201.051 53.5537L203.742 50.1338C204.542 48.8241 205.415 47.1505 205.997 45.8408C206.288 45.1132 206.652 44.3128 206.943 43.5124C207.307 42.712 207.67 42.1299 208.034 41.4022C209.853 37.473 209.416 39.0011 210.507 37.182ZM209.344 42.712C208.762 43.8034 207.525 45.477 207.234 46.4229C206.797 47.7326 205.924 48.8241 204.688 49.6972C205.197 48.533 205.924 47.1505 206.506 45.9863C207.161 44.7493 207.598 43.4396 208.325 42.1299C210.653 37.6185 209.562 39.5104 212.108 36.8909C212.835 36.0905 212.544 36.0905 213.781 35.5812C212.035 37.9096 210.726 40.0197 209.344 42.712ZM217.855 33.3983C216.618 33.8349 216.473 34.1259 215.527 34.9263C213.926 36.3816 211.089 39.947 210.944 41.5478L216.327 35.4357C216.764 34.9991 217.709 33.5438 217.855 33.3983ZM176.463 71.89C175.663 72.4721 174.79 72.7632 173.917 73.2725C173.48 73.5636 172.607 74.5095 172.171 74.8733C171.371 75.6737 168.825 77.3472 169.552 78.5842C171.08 78.2932 171.953 76.5468 173.116 75.6009C179.882 70.5803 175.663 73.6363 181.264 73.1997C182.719 73.0542 183.81 73.418 185.629 73.1997C188.757 72.7632 192.394 71.0168 195.158 69.5616C198.868 67.6697 205.052 61.2666 208.034 58.065C209.489 56.537 211.526 53.3354 212.544 51.5163C213.126 50.5704 214.072 49.0424 214.217 48.0237C214.29 47.4416 216.618 42.1299 217.054 40.6746C217.418 39.4376 217.855 38.1279 218.364 36.8909C218.946 35.4357 221.201 30.5605 220.91 29.3236C220.037 29.0325 219.819 29.3236 219.673 30.1239C219.31 31.5064 216.327 33.3983 215.163 34.0532C209.053 37.473 210.798 35.945 206.288 37.8368C198.505 41.1839 198.868 42.0571 193.922 48.1692C193.267 48.9696 191.448 49.9883 190.648 50.6432C190.212 51.007 189.63 51.6618 189.193 51.9529C188.247 52.4622 188.247 51.8074 187.156 52.826C185.774 54.1358 184.61 53.6264 181.118 58.065C178.936 60.83 176.535 68.3246 176.463 71.89ZM226.22 33.1072C226.002 32.1613 227.53 32.2341 228.112 32.0886C228.839 31.943 229.858 31.3609 230.512 31.0699C231.385 30.7061 232.113 30.5605 232.913 30.0512C233.786 29.5418 235.532 27.0679 236.186 26.122C236.987 24.9578 238.442 23.4297 238.805 22.12C239.023 21.4651 239.096 20.592 239.46 20.0099C239.605 20.883 238.732 23.4297 238.296 24.3757C236.114 29.1053 233.422 31.3609 228.548 33.0345C227.821 33.18 227.021 33.18 226.22 33.1072ZM227.093 30.7788C227.675 30.6333 227.966 30.5605 228.475 30.4878C229.057 30.3422 229.421 30.1967 229.93 30.0512C231.749 29.4691 234.368 27.5772 235.459 26.122C236.768 24.4484 238.078 23.2114 238.587 21.2468L239.169 18.6274C239.169 18.4091 239.169 18.1908 239.169 17.9725C239.242 17.6087 239.314 17.6814 239.387 17.3176C239.46 17.0266 239.751 16.2262 239.751 16.0079C239.824 15.4986 239.751 13.6795 239.605 13.2429C239.387 13.5339 239.314 13.9705 239.096 14.3343C238.514 15.353 238.369 14.5526 237.569 16.5172C237.423 16.9538 237.205 17.2449 236.987 17.6814C236.186 19.1367 234.804 20.7375 233.786 22.0472C231.967 24.3757 230.803 24.885 229.639 26.2675C229.203 26.7768 229.057 26.8496 228.548 27.2862C228.257 27.5772 228.184 28.0866 228.039 28.4504C227.748 28.9597 226.948 30.2695 227.093 30.7788ZM229.276 24.7395C229.712 24.5212 231.022 23.5025 231.458 23.1387C232.04 22.7021 232.695 22.0472 233.204 21.4651C234.295 20.2282 234.15 20.7375 235.532 18.9184C236.114 18.118 236.987 17.3176 237.278 16.2262C237.569 15.1347 238.005 15.2803 238.587 14.4799C239.169 13.7522 239.096 13.3157 239.387 12.6608C239.605 12.2242 239.533 12.1514 239.46 11.7149C239.387 11.2783 239.387 11.06 239.242 10.6234C238.732 11.3511 239.242 12.9518 237.86 14.4071C237.35 14.9892 236.405 15.6441 235.75 16.0079C234.95 16.4445 234.513 17.0993 233.931 17.7542C233.058 18.7729 232.04 19.0639 230.803 20.0826C230.367 20.3737 230.44 20.5192 230.294 20.9558C230.003 21.6834 229.276 24.0846 229.276 24.7395ZM225.929 29.2508C225.638 28.887 225.493 27.8683 225.275 27.3589C224.547 25.5399 224.547 25.6126 224.184 23.5753C224.038 22.9204 224.111 20.7375 224.256 20.0099L224.547 18.2636C224.765 17.6814 225.784 15.4258 226.148 14.9892C226.22 15.353 226.148 16.2989 226.148 16.8083C226.148 17.3904 226.075 17.9725 226.002 18.5546C225.857 20.0826 225.638 18.8457 225.566 22.0472C225.493 24.885 226.657 26.3403 226.584 27.5772C226.511 28.0138 226.22 28.9597 225.929 29.2508ZM227.384 25.1033C227.53 24.9578 228.184 22.5566 228.33 22.12C228.694 21.0286 229.276 20.1554 229.639 19.1367C228.766 17.6087 229.057 16.2989 228.621 14.7709C227.966 12.1514 228.766 11.5693 228.621 10.5507C228.257 10.9145 227.021 13.5339 226.948 13.9705C226.802 14.5526 226.73 17.0266 226.73 17.6814C226.802 20.2282 225.857 22.7021 227.384 25.1033ZM231.385 18.118C232.113 17.7542 232.84 16.8811 233.64 16.4445C234.732 15.8624 237.496 13.8978 237.932 12.9518C238.587 11.6421 238.296 11.4238 238.514 10.9145C239.023 9.45921 238.66 9.38645 238.805 8.80434C239.096 7.71289 237.569 2.765 236.987 2.03737C236.987 2.40118 236.914 2.61947 236.841 3.05605C236.768 3.63816 236.914 4.72961 236.55 6.18487C236.405 6.76697 236.114 7.64013 236.041 8.22224C235.895 9.38645 234.513 12.1514 233.713 13.1701C233.422 13.5339 233.058 13.7522 232.84 14.1161C232.767 14.1888 231.313 17.8997 231.385 18.118ZM233.204 12.5153C233.422 11.4238 233.495 10.6234 233.859 9.53197C234.586 7.42184 234.441 6.62145 234.586 4.94789C234.659 4.43855 234.804 3.92921 234.95 3.49263C235.095 2.765 234.732 1.01868 235.168 0.436579C235.604 0.509342 236.477 1.01868 236.55 1.45526C236.623 2.03737 236.623 2.54671 236.55 3.12882C236.405 3.92921 236.405 3.63816 236.332 3.92921C236.332 4.00197 236.332 4.58408 236.332 4.72961C236.332 5.82105 235.604 8.58605 235.095 9.53197C234.877 10.0413 233.568 12.1514 233.204 12.5153ZM232.476 11.5693C232.331 11.06 232.622 10.6234 232.695 10.1868C232.767 9.75026 232.84 9.24092 232.84 8.80434C232.913 7.64013 232.767 6.54868 232.767 5.96658C232.84 4.22026 233.277 1.89184 234.222 0.436579L234.804 0.509342C234.95 0.800395 234.804 2.98329 234.732 3.41987L234.004 6.9125C233.931 7.27632 234.077 7.34908 234.004 7.64013C233.931 7.93118 233.713 8.65882 233.568 9.02263C233.349 9.45921 232.84 11.2055 232.476 11.5693ZM230.44 17.3176C230.803 16.8811 231.312 15.1347 231.531 14.4071C231.676 13.9705 231.603 13.825 231.603 13.3884C231.531 11.7149 231.458 13.2429 231.676 11.3511C231.749 10.6962 231.894 9.96855 232.04 9.31368C232.258 8.00395 232.185 6.62145 232.404 5.31171C232.549 4.58408 232.695 4.00197 232.84 3.34711C232.913 2.91053 233.349 1.60079 233.349 1.30974C232.476 2.03737 231.749 4.00197 231.313 5.09342C231.094 5.67553 230.731 6.47592 230.585 6.98526L230.003 9.02263C229.858 10.1141 229.203 11.7149 229.276 12.9518C229.348 13.5339 229.785 14.4071 229.93 15.1347C229.93 15.6441 230.149 16.7355 230.44 17.3176ZM233.349 0.727632C231.458 2.54671 231.603 4.00197 230.44 6.11211C229.494 7.93118 228.621 9.75026 227.603 11.4966C223.82 17.9725 222.365 21.3196 224.038 28.5232C224.693 31.2882 225.056 31.5792 224.184 34.417C223.602 36.3088 223.165 38.1279 222.438 40.0197C222.147 40.6746 221.201 42.5664 222.801 42.2754C223.674 42.1299 224.038 40.4563 224.256 39.6559C224.547 38.7828 224.984 37.7641 225.129 36.8909C225.347 35.7995 225.347 35.0718 225.857 34.0532C226.511 32.7434 227.53 33.9076 230.221 32.5979C230.731 32.3068 231.313 32.0886 231.822 31.7975C233.568 30.9971 236.186 28.6687 237.132 26.9951C238.151 25.2488 239.096 23.5753 239.533 21.5379C240.26 18.0453 240.042 13.2429 239.533 9.75026C239.46 9.16816 239.387 8.87711 239.387 8.295C239.314 7.49461 239.096 7.34908 238.878 6.69421C238.369 5.09342 237.932 1.74632 236.259 0.509342C235.75 0.145526 235.459 -1.08426e-09 234.877 -1.08426e-09C233.931 0.0727632 234.004 0.0727632 233.349 0.727632ZM159.804 82.8045C159.368 85.0601 156.603 88.6255 152.602 85.2784C152.311 84.9874 151.802 84.5508 151.511 84.2597C151.075 83.8232 150.711 83.6049 150.347 83.1683C152.093 83.2411 153.694 83.8232 155.439 83.9687C157.404 84.187 158.64 82.5862 159.804 82.8045ZM154.712 90.7357C156.676 90.5901 157.113 95.9018 157.04 97.4299L156.24 96.9933C156.24 94.01 156.531 96.5567 155.876 93.7189C155.439 91.8271 155.148 91.6816 154.712 90.7357ZM157.622 98.012C158.567 98.8124 157.986 99.2489 159.004 99.7583C159.077 99.0307 158.495 96.4112 158.349 95.4653C158.131 93.9372 157.622 92.8458 157.113 91.4633L156.458 91.245C156.531 91.7543 157.113 92.6275 157.476 94.4466C157.695 95.6108 157.84 96.8478 157.622 98.012ZM157.913 91.7543C157.986 92.2637 158.349 93.2096 158.567 93.7917C158.786 94.5921 158.858 95.1014 159.004 95.9018C159.295 97.2843 159.44 98.8124 159.804 100.122L160.895 100.413C161.186 99.6855 160.677 96.3384 160.459 95.4653C160.168 94.3011 159.586 91.3178 157.913 91.7543ZM161.623 100.704C162.35 101.141 162.496 101.65 163.15 102.159C163.005 101.214 162.641 100.631 162.568 99.4672C162.35 97.2116 162.132 92.482 159.877 91.8999C159.804 92.2637 160.459 93.4279 160.604 93.9372C161.332 96.8478 161.405 97.7209 161.623 100.704ZM161.405 92.3364C162.423 94.2283 162.859 96.4839 163.005 98.5941C163.078 100.486 163.951 103.615 165.551 104.561C166.206 103.033 164.314 101.141 163.951 98.1575C163.805 96.9205 163.878 96.1201 163.441 94.8104C163.296 94.0828 162.132 92.482 161.405 92.3364ZM163.005 92.9185C165.115 93.3551 164.969 97.4299 165.478 98.7396C165.987 99.9766 166.206 100.486 166.788 101.65C167.588 103.251 168.388 105.798 166.206 104.852C166.86 103.396 165.115 101.214 164.678 98.9579C164.387 97.5754 164.605 95.7563 163.805 94.1555C163.587 93.719 163.15 93.2824 163.005 92.9185ZM168.388 104.561C168.315 103.033 167.151 101.359 166.788 100.413C166.133 99.0307 165.624 97.7937 165.624 96.1201C165.624 95.4653 165.478 95.247 165.26 94.6649C164.969 93.8645 164.969 94.0828 164.533 93.4279C165.624 93.4279 165.26 93.6462 165.624 94.5193C165.987 95.3197 165.987 96.9933 167.224 99.3217C168.097 100.85 171.007 103.688 170.279 105.434L168.388 104.561ZM183.955 85.4967C183.592 84.5508 182.864 84.4053 181.991 84.0414C181.046 83.6776 180.827 83.3138 180.173 82.6589C179.009 81.422 177.117 81.4947 176.245 83.0228C175.881 83.6776 175.372 84.187 174.571 84.3325C172.316 84.6236 173.262 82.0768 170.643 82.7317C169.77 82.95 169.988 83.3138 168.679 83.3138C165.842 83.3138 167.006 81.2764 164.678 81.1309C163.878 81.0582 163.369 81.3492 162.714 81.713C161.405 82.5862 161.55 82.5862 161.477 83.1683C161.332 84.1142 159.586 86.2971 158.786 86.7337C158.349 87.0247 157.476 87.3158 156.894 87.4613C156.021 87.6796 155.439 87.3885 154.712 87.4613C157.185 89.5714 159.368 89.2076 162.205 89.7897C165.042 90.3718 166.642 91.7543 170.352 92.4092C174.062 92.9913 176.535 95.1742 180.391 91.3905C180.9 90.8812 182.428 89.4259 182.719 88.9893C181.919 88.6983 181.919 88.771 181.409 88.0434C181.919 86.5154 183.374 86.5154 183.955 85.4967ZM178.427 96.0474C180.536 96.3384 183.01 93.0641 184.101 92.1182C187.084 89.4259 188.393 90.6629 191.157 92.1182C188.757 91.536 186.647 92.773 184.756 93.9372C182.937 94.9559 180.609 96.8478 178.427 96.0474ZM167.079 93.7917C167.224 94.3011 167.515 94.7376 167.661 95.4653C168.024 97.2116 168.679 98.8851 169.77 100.268C170.498 101.141 171.443 102.159 172.316 102.96C173.553 104.051 173.844 104.561 174.28 105.943C174.426 106.38 175.153 106.962 175.444 107.326C177.263 109.145 178.645 108.199 180.464 106.816C180.973 106.452 181.482 106.234 181.919 105.87C182.573 105.288 182.573 104.924 183.519 105.143C187.229 105.87 187.52 103.324 188.247 102.887C188.684 102.669 189.193 103.033 189.993 102.523C191.012 101.868 190.939 99.6855 190.212 99.1762C186.502 96.7022 184.901 98.1575 182.646 98.7396C176.535 100.268 176.026 96.7022 171.371 94.8104C170.498 94.3738 167.879 93.6462 167.079 93.7917ZM143 86.952C143.146 87.0247 144.309 87.243 144.528 87.243C144.964 87.3158 145.182 86.952 145.764 86.952C149.838 86.5882 152.02 88.9166 154.857 90.0808C157.986 91.3905 159.077 91.0995 161.259 91.6816C162.35 91.9726 163.514 92.6275 164.678 92.9185C165.696 93.1368 166.715 93.1368 167.733 93.3551C170.061 93.7917 171.734 94.0828 173.771 95.538C178.209 98.5941 179.227 99.7583 184.392 97.5754C187.084 96.4112 189.266 98.4486 190.139 98.5213C188.902 96.8478 186.283 96.9205 184.465 97.2116C182.282 97.5754 181.118 98.5213 178.791 97.4299C177.918 96.9933 176.681 96.4112 175.954 95.8291C171.298 92.1182 171.152 93.7917 167.151 92.2637C164.751 91.3905 163.15 90.3718 160.532 90.2263C154.785 90.008 152.821 86.0788 150.129 84.2597C148.82 83.4593 145.546 83.0228 144.018 83.0955C143.655 83.4593 143 86.5154 143 86.952ZM188.466 103.324C189.266 103.105 190.357 103.105 190.866 102.305C191.375 101.432 191.303 100.413 191.012 99.54C190.066 96.9205 192.758 97.5754 193.194 94.6649C193.558 92.5547 191.085 91.6088 189.702 90.7357C187.084 89.2076 189.339 87.7524 185.92 86.952C184.756 87.8251 184.974 87.3885 184.028 88.0434C183.374 88.5528 182.792 89.1349 182.064 88.1162C181.773 86.7337 187.447 85.715 182.137 83.6049C180.755 83.0955 179.591 80.5488 176.972 81.4947C175.881 81.9313 175.954 83.0228 175.081 83.6049C173.989 84.3325 173.335 83.3138 172.826 82.7317C172.098 82.0041 171.152 82.0041 170.279 82.2951C169.77 82.4407 169.625 82.7317 169.115 82.8045C166.642 83.0228 167.37 81.4947 165.551 80.8399C162.787 79.8939 161.696 82.5134 160.604 82.3679C159.004 82.1496 159.44 81.8586 157.913 82.7317C157.185 83.0955 156.24 83.4593 155.439 83.4593C154.203 83.3866 150.42 82.6589 149.256 82.2224C147.074 81.4947 145.692 80.8399 143.437 81.713C143.073 82.5862 143 83.8232 142.855 84.7691C142.709 85.5695 141.836 87.0247 142.709 87.5341C143.727 88.1162 144.891 87.1703 148.529 89.4259C152.093 91.6088 149.984 91.8999 152.093 93.2096C152.893 93.7189 153.985 94.1555 154.639 94.8104C155.803 95.9018 155.439 95.8291 155.512 97.0661C156.094 97.5754 157.04 97.9392 157.695 98.5941C158.422 99.3945 157.549 99.4672 159.077 100.413C160.895 101.505 162.059 100.486 163.005 103.033C163.587 104.633 165.478 105.507 167.151 105.507C168.679 105.507 167.806 104.997 169.552 105.798C170.498 106.234 171.08 106.089 172.098 106.089C175.081 106.089 174.499 107.689 176.317 108.49C177.918 109.218 179.373 108.272 180.682 107.326C181.264 106.889 182.21 106.525 182.646 106.016C183.446 105.216 183.81 105.652 184.901 105.652C186.429 105.798 187.52 104.561 188.466 103.324ZM135.871 75.6737C135.507 75.2371 135.216 74.9461 136.017 74.655C136.962 74.2912 140.672 74.4367 139.436 76.2558C138.926 76.1103 139.436 75.1643 137.908 75.1643C136.889 75.0916 136.307 74.7278 135.871 75.6737ZM154.93 71.4534C155.294 71.5989 156.021 72.8359 156.24 73.1997C156.531 73.7091 157.185 74.7278 157.04 75.3099L156.603 75.4554C156.385 74.8005 156.021 74.0001 155.803 73.3453C155.658 72.9814 155.512 72.6904 155.367 72.3266C155.294 72.1811 155.221 71.9628 155.076 71.8172C155.003 71.5989 154.857 71.5989 154.93 71.4534ZM152.239 70.5803C152.748 70.7258 153.694 72.0355 153.839 72.6176C154.203 73.8546 153.694 74.3639 153.475 75.4554C153.403 75.8192 152.966 76.2558 153.112 74.9461C153.33 73.1997 152.675 71.89 152.239 70.5803ZM149.838 70.4347C150.202 70.5803 150.493 71.0896 150.566 71.4534C150.42 71.4534 150.275 71.1624 150.129 71.0168C150.056 70.8713 149.911 70.5803 149.838 70.4347ZM148.674 69.9254C148.892 70.2164 149.765 72.3266 149.838 72.6904C149.911 73.1997 149.911 73.8546 149.911 74.3639C149.911 75.1643 149.547 75.1643 150.638 75.3099C151.147 74.2184 151.002 73.1997 150.493 72.1811C150.129 71.5989 149.329 70.1437 148.674 69.9254ZM146.783 69.1978C147.656 68.9795 148.529 70.7258 148.82 71.3807C149.038 71.9628 149.256 72.3266 149.329 72.9087C149.402 73.3453 149.474 74.4367 149.256 74.8005L148.31 74.2912C148.383 74.0001 148.529 74.2912 148.674 73.6363C148.747 73.2725 148.747 73.2725 148.674 72.8359C148.601 72.3266 148.456 71.8172 148.31 71.3079C148.165 70.9441 147.874 70.5075 147.728 70.1437C147.51 69.7799 147.001 69.7071 146.783 69.1978ZM147.874 68.5429C148.019 68.6884 149.62 69.3433 150.056 69.6343C150.711 70.0709 151.22 70.653 151.584 71.3079C152.239 72.3993 152.239 72.4721 152.239 73.6363C152.239 74.2912 152.311 74.3639 152.093 75.0916C151.948 75.4554 151.802 75.9647 152.53 75.6737C153.257 74.9461 152.311 71.5989 151.729 70.7258C150.493 68.6884 149.984 68.6157 147.874 68.5429ZM150.347 68.2518C150.42 68.4701 151.729 69.3433 152.02 69.6343C152.384 69.9982 153.257 70.7985 153.548 71.1624C154.276 71.9628 154.348 72.3266 154.421 73.3453C154.566 75.0188 154.13 75.0916 154.057 75.6737L156.094 75.6009C156.167 74.7278 154.712 71.8172 154.057 71.1624C153.403 70.5075 153.112 70.1437 152.384 69.5616C152.093 69.3433 151.802 69.0522 151.438 68.8339C151.366 68.8339 150.347 68.2518 150.347 68.2518ZM149.038 67.1604C149.111 67.3059 152.093 67.9608 152.53 68.1063C153.548 68.4701 154.639 68.9795 155.512 69.5616C157.04 70.653 157.84 71.5262 158.495 73.2725C158.786 73.9274 159.077 74.3639 158.495 74.8733L160.386 73.9274C160.168 73.4908 160.313 73.3453 160.241 72.9814C160.241 72.6904 160.168 72.3266 159.95 72.1083C158.422 70.0709 159.295 70.5075 156.312 68.7612C155.148 68.1063 154.13 67.888 152.821 67.5242C152.311 67.2332 149.402 66.8693 149.038 67.1604ZM139.799 74.5822C140.09 74.0001 140.017 73.4908 140.381 72.7632C140.672 72.2538 140.963 71.6717 141.254 71.2351C141.909 70.362 143.073 69.5616 143.946 68.9795C144.237 68.7612 145.401 68.3246 145.692 68.2518C146.71 68.0335 147.219 68.4701 147.219 67.5242C147.219 66.9421 147.219 66.1417 146.783 65.7051C146.492 65.4141 145.692 64.9047 145.328 65.123C144.819 65.3413 143.073 65.4141 141.545 66.2145C137.762 68.3246 136.889 70.5803 134.998 74.3639C135.798 73.8546 136.526 73.6363 137.471 73.7091C139.654 73.8546 139.145 74.3639 139.799 74.5822ZM147.947 66.7238C148.456 66.8693 149.474 66.5783 150.202 66.6511C150.929 66.7238 151.802 66.7238 152.457 66.8693C153.475 67.1604 155.439 67.597 156.24 68.0336C157.04 68.5429 158.567 69.3433 159.222 69.9982C159.513 70.2892 159.877 71.0896 160.241 71.5262C160.895 72.2538 160.677 72.5449 160.75 73.418C161.623 72.5449 162.568 72.9087 160.386 70.0709C159.877 69.416 157.767 67.9608 157.04 67.6697C156.385 67.4514 155.73 67.0149 155.076 66.7966C154.494 66.5783 153.475 66.36 152.893 66.2145C152.02 66.0689 148.456 66.1417 147.947 66.7238ZM155.367 66.4328C155.367 66.4328 158.786 68.1791 159.295 68.6157C160.895 69.7799 161.841 71.5989 162.132 71.89C162.496 71.6717 162.787 70.1437 162.641 69.7799C162.568 69.6343 159.659 68.0335 159.295 67.8153C156.967 66.4328 157.113 66.9421 155.367 66.4328ZM162.496 68.9795C162.277 68.9795 159.077 67.1604 158.567 66.9421C157.04 66.0689 155.294 66.1417 153.621 65.7779C154.566 65.1958 163.296 66.651 162.496 68.9795ZM147.437 66.0689C147.728 65.8507 148.383 65.9234 148.82 65.7779C149.256 65.6324 149.911 65.5596 150.42 65.5596L149.765 65.8507C149.62 65.9234 149.547 65.8507 149.402 65.9234L148.238 66.2145C147.801 66.2872 147.51 66.5055 147.437 66.0689ZM156.385 65.3413C157.695 65.3413 158.931 65.4141 160.241 65.4868C160.386 65.7051 160.75 65.8507 160.968 66.0689C161.114 66.2145 161.55 66.5783 161.55 66.7238C161.405 66.7966 160.677 66.36 160.386 66.2872C159.586 66.0689 156.385 65.3413 156.385 65.3413ZM155.949 64.832C156.24 64.6137 156.676 64.4682 157.185 64.1771C157.476 63.9588 157.913 63.5222 158.204 63.3039C158.567 63.5222 158.349 63.886 158.786 64.2499C159.077 64.4682 159.368 64.6864 159.659 64.9047L155.949 64.832ZM140.09 63.0129C140.818 63.1584 144.309 64.1043 144.673 64.5409C144.382 65.1958 142.855 64.5409 142.345 64.4682C141.691 64.3226 140.527 64.1043 139.945 63.8133L140.09 63.0129ZM140.599 62.1397C140.527 62.2853 140.672 62.2125 140.454 62.2853C140.381 62.2853 140.308 62.2853 140.308 62.2853C140.308 62.067 140.381 61.9942 140.599 62.1397ZM154.93 64.6864C155.439 64.6137 156.676 64.0316 157.04 63.6678C157.913 62.7946 158.204 63.0129 158.276 61.8487C158.058 61.9214 158.204 62.1397 157.695 62.5763C156.312 63.9588 155.367 64.2499 154.93 64.6864ZM140.527 61.6304L144.528 63.3039C144.528 62.9401 142.855 61.7032 142.491 61.4121C142.345 61.2666 141.545 60.6117 141.327 60.5389C141.109 60.3934 140.599 61.3393 140.527 61.6304ZM141.618 60.1751C141.763 60.3207 142.491 60.83 142.782 61.0483C143.073 61.3393 143.509 61.7032 143.873 61.9214C144.309 62.2125 145.546 63.4495 145.91 63.886C145.619 63.0857 145.837 63.3039 145.255 62.5763C144.964 62.2125 144.673 61.7759 144.309 61.4121C143.946 61.0483 142.491 59.6658 141.982 59.593L141.618 60.1751ZM150.711 65.4868C152.02 65.123 154.494 64.2499 155.367 63.1584C155.949 62.4308 158.204 59.9568 158.495 59.302C158.422 58.7199 157.476 57.4829 156.894 57.2646C156.676 57.8467 155.73 60.7572 155.512 61.2666C155.294 61.6304 155.003 61.9942 154.785 62.358C154.203 63.3767 153.912 63.5222 152.966 64.1771C152.602 64.4682 152.311 64.6864 151.875 64.9047C151.729 64.9775 150.856 65.4141 150.711 65.4868ZM145.401 61.0483C145.11 60.6117 143.655 58.9382 143.146 58.9382C143 58.9382 142.418 59.1564 142.418 59.302C142.418 59.4475 142.782 59.5203 143.073 59.7386C143.437 60.1024 143.873 60.4662 144.237 60.7572C144.6 61.0483 146.055 62.7218 146.274 63.1584C146.565 63.8133 146.637 63.2312 146.637 63.1584C146.565 62.9401 146.492 63.1584 146.346 62.8674C146.274 62.7218 146.274 62.6491 146.201 62.4308C146.055 61.9942 145.692 61.4121 145.401 61.0483ZM144.528 58.2833C144.6 58.3561 144.746 58.5016 144.891 58.6471L145.473 59.5203C145.546 59.6658 145.619 59.7386 145.692 59.9568C145.764 60.1024 145.837 60.3207 145.91 60.4662C146.055 60.6845 145.983 60.5389 146.128 60.83C146.274 61.1211 146.346 61.4849 146.492 61.8487L145.255 60.1751C145.11 59.9568 144.746 59.593 144.528 59.4475C144.382 59.302 143.8 58.9382 143.727 58.7926L144.528 58.2833ZM147.292 62.358C147.292 62.358 146.565 60.4662 146.274 60.1024C146.128 59.8841 145.764 59.302 145.692 59.0837C145.546 58.7926 145.11 58.2833 145.037 58.1378L145.401 57.8467C146.128 58.2833 146.346 59.2292 146.783 59.8841C147.001 60.2479 147.656 62.1397 147.292 62.358ZM146.055 56.9008C146.128 56.9735 146.274 57.1191 146.274 57.2646C146.128 57.2646 146.055 57.1918 145.91 57.1191L146.055 56.9008ZM151.875 57.0463C151.875 56.828 151.948 56.7553 152.02 56.6825C152.093 56.828 152.166 57.1191 151.875 57.0463ZM155.949 56.537C157.113 56.6097 155.949 59.0837 155.658 59.7386C155.367 60.3934 155.367 60.7572 155.003 61.4121C154.785 61.7759 154.348 62.5036 154.057 62.8674C153.548 63.4495 152.02 64.4682 151.293 64.832C150.056 65.4868 148.82 65.3413 147.51 65.6324C147.074 65.7051 147.001 65.5596 147.365 65.4868C147.874 65.3413 148.31 65.6324 150.129 64.7592C150.929 64.3954 152.384 63.4495 152.893 62.8674C154.566 60.9755 155.949 59.1564 155.949 56.537ZM148.165 59.9568C148.165 59.9568 147.292 57.9195 147.074 57.6284C146.492 56.6097 145.91 56.4642 147.365 55.8821C148.092 56.537 148.31 59.7386 148.165 59.9568ZM146.856 65.0503C146.856 64.9047 149.256 63.8861 149.547 63.595C151.511 62.1397 152.384 61.2666 153.621 59.0837C153.839 58.7199 154.13 57.9195 154.203 57.5557C154.276 57.2646 154.421 55.8093 154.494 55.6638C154.639 55.5911 155.076 55.9549 155.294 56.0276C155.658 56.1732 155.439 56.3187 155.439 56.6825C155.367 57.4101 155.294 57.9922 155.076 58.6471C154.639 59.9568 154.276 60.7572 153.257 61.8487C152.457 62.7218 151.584 63.5222 150.566 64.1043C149.984 64.4682 147.292 65.3413 146.856 65.0503ZM148.674 60.0296C149.402 59.593 149.765 54.6451 148.383 55.2272C147.583 55.5911 147.728 55.3728 148.019 55.9549C148.165 56.1732 148.31 56.9008 148.383 57.1918C148.456 57.5557 148.456 58.065 148.601 58.5016C148.747 59.0837 148.674 59.8113 148.674 60.0296ZM153.039 55.2272L153.985 55.4455C153.985 55.591 153.839 57.0463 153.839 57.1191C153.694 57.8467 153.621 58.1378 153.33 58.7926C152.966 59.5203 152.166 60.83 151.657 61.4121C151.075 62.1397 150.129 62.9401 149.329 63.3767C148.82 63.6678 146.783 64.6864 146.274 64.6137C146.346 64.5409 148.383 63.3039 148.747 63.0129C149.111 62.7218 150.711 61.3393 150.856 61.0483C151.584 59.8113 153.475 56.7553 153.039 55.2272ZM150.275 59.593C150.129 60.1751 149.474 61.4121 148.965 61.7759C148.674 61.9942 147.365 63.2312 147.074 63.3039C147.292 62.7218 148.092 62.4308 148.383 61.7032C149.111 59.6658 150.566 58.2833 149.329 55.0089C149.474 54.9362 149.838 54.7907 150.129 54.8634C150.42 54.8634 150.42 55.0817 150.493 55.3728C151.002 56.6825 150.638 58.3561 150.275 59.593ZM140.09 66.4328C139.072 65.4868 139.508 63.3767 139.872 62.2125C140.236 61.1211 141.181 59.8113 141.982 59.0109C142.855 58.2105 144.6 58.3561 145.401 57.1918C146.201 56.0276 147.074 55.3 148.456 54.9362C150.566 54.2813 150.784 54.4268 152.821 54.7907C154.421 55.0817 155.221 55.4455 156.531 56.3914C157.404 57.0463 158.786 58.2105 158.858 59.3747C158.931 60.6117 158.422 62.9401 158.858 63.7405C159.149 64.2499 161.114 65.6324 161.623 66.2872C162.496 67.3059 163.15 68.7612 163.078 70.1437C162.932 72.9087 160.313 74.8005 157.84 75.6009C155.439 76.4013 151.438 76.6196 149.183 75.3099C148.529 74.9461 148.165 74.7278 147.51 74.2912C146.201 73.418 144.237 74.8733 143.582 70.362C142.054 71.5262 142.564 72.6904 143.873 73.7818C144.528 74.2912 145.401 74.2912 146.201 74.4367C146.928 74.5822 147.583 74.9461 148.238 75.3099C149.329 75.9647 151.657 76.2558 152.966 76.4741C154.785 76.7651 156.458 76.3286 158.276 76.1103C159.222 75.9647 159.586 76.0375 160.386 75.3826C160.895 74.9461 161.623 74.5095 162.059 74.0729C163.296 72.9087 163.66 71.5262 163.66 69.9254C163.66 68.4701 163.15 66.6511 162.277 65.4868C161.114 63.9588 160.313 64.5409 160.168 61.9214C160.022 59.9568 160.532 59.0109 159.222 57.1918C158.276 55.8093 157.767 55.1545 156.24 54.2813C152.748 52.2439 151.293 52.2439 147.656 54.063C143.946 55.9549 144.018 56.6825 140.963 59.1564C140.236 59.7385 138.999 61.7759 138.635 62.6491C138.272 63.7405 137.908 66.4328 139.29 66.8693L140.09 66.4328ZM139.072 67.2332C138.053 67.888 136.671 70.0709 136.089 71.1624C135.507 72.3266 133.761 74.9461 134.998 76.0375C135.435 76.4013 136.744 76.9834 137.326 77.1289C138.417 77.42 139.145 77.5655 140.163 76.9107C141.181 76.2558 140.963 73.0542 142.127 72.0355C143.291 73.8546 142.491 74.0729 144.746 75.3099C145.837 75.892 147.801 76.8379 148.965 77.1289C152.239 78.0021 155.658 77.5655 158.858 76.5468C160.313 76.1103 161.477 75.1643 162.568 74.1457C163.878 72.9087 164.387 71.7445 164.314 69.9254C164.242 68.1791 164.096 66.7966 163.078 65.4141C161.841 63.6678 161.259 63.7405 161.332 61.3393C161.477 58.356 159.149 55.3728 156.749 53.8447C153.112 51.6618 151.511 51.7346 147.656 53.4809C143.727 55.3 143.8 56.3914 140.818 58.7926C140.018 59.4475 138.708 61.4121 138.417 62.4308C137.69 64.5409 137.762 65.6324 139.072 67.2332ZM123.068 81.6403C122.268 81.422 122.704 81.4947 122.34 81.2764C122.122 81.2037 121.758 81.0582 121.468 81.1309C121.249 81.2037 121.322 81.2037 121.031 81.2037C120.813 81.2037 120.667 81.2037 120.522 81.2764C120.231 81.3492 120.013 81.4947 119.576 81.4947C119.649 81.1309 119.94 80.1122 120.085 79.8939C120.231 79.6757 120.522 79.6757 121.031 79.3118C121.613 78.948 121.831 79.6757 122.486 80.2578C123.286 80.9126 122.922 80.8399 122.922 81.1309C122.995 81.2764 123.068 81.4947 123.068 81.6403ZM126.778 120.569C126.632 120.205 126.341 120.496 126.269 120.569C126.05 120.714 126.123 120.569 125.978 120.787C126.05 121.223 126.705 120.787 126.778 120.569ZM119.14 94.8104C119.285 94.8832 119.431 94.8832 119.576 94.9559C119.794 95.0287 119.867 95.1014 120.085 94.9559C120.158 94.6649 120.085 94.7376 119.867 94.5921C119.867 94.6649 119.212 93.7189 119.14 94.8104ZM126.632 107.253C126.705 106.816 126.196 106.816 125.832 106.816C125.468 106.816 125.032 106.889 125.105 107.326C125.396 107.544 126.341 107.471 126.632 107.253ZM110.192 118.24C110.119 118.095 110.119 117.949 109.901 117.876C109.61 117.731 109.101 118.095 109.537 118.677C109.828 118.677 109.683 118.604 109.901 118.604C110.047 118.604 110.119 118.677 110.338 118.749C110.701 118.749 110.774 118.531 111.065 118.458C111.21 118.386 111.356 118.458 111.356 118.24C111.429 117.658 110.847 118.313 110.192 118.24ZM125.032 114.456C124.887 114.311 124.959 114.311 124.596 114.238C124.741 113.802 124.377 114.02 123.868 113.583C123.359 113.147 123.141 113.947 123.213 114.165L123.359 114.384C123.504 114.529 123.359 114.456 123.577 114.602C124.014 114.82 124.959 115.184 125.032 114.456ZM117.83 115.548C116.521 115.402 117.758 115.912 116.303 115.475C116.012 115.402 116.012 115.402 115.939 115.184L116.23 115.039L116.084 114.311C115.721 114.238 115.575 114.165 115.211 114.311C114.848 114.456 114.775 114.456 114.338 114.529V114.966C115.066 115.111 114.848 114.82 115.284 115.257C115.502 115.475 115.721 115.621 116.084 115.766C116.448 115.912 117.176 116.203 117.612 115.766C117.976 115.402 117.758 115.693 117.83 115.548ZM122.85 98.4486C122.922 98.303 123.213 98.0847 122.922 98.012C122.631 97.9392 122.486 98.0847 122.413 98.1575C122.049 98.303 122.268 98.0847 121.977 98.4486C121.831 98.6668 121.831 98.6668 121.54 98.7396C121.177 98.8851 120.813 99.0307 120.522 99.249C120.304 99.3217 120.231 99.3945 120.013 99.54C119.867 99.6128 119.576 99.8311 119.867 99.9766C120.013 100.049 120.231 99.8311 120.376 99.7583L121.977 99.1034C122.34 98.9579 122.268 99.0307 122.559 99.1762C122.995 99.3945 124.014 99.3217 124.377 99.0307C124.305 98.3758 123.868 98.9579 123.286 98.8851C123.141 98.6668 123.286 98.8124 123.213 98.5941C122.995 98.4486 123.068 98.5213 122.85 98.4486ZM136.671 118.531C136.671 118.167 136.38 117.949 136.162 118.095C135.798 118.313 136.162 118.386 135.435 118.531C134.634 118.677 134.489 119.186 133.689 119.113C133.616 118.968 133.689 118.968 133.543 118.822C133.252 118.749 133.398 118.749 133.179 118.822C133.107 118.677 133.107 118.458 132.816 118.458C132.67 118.458 132.452 118.604 132.379 118.749C132.307 118.822 132.452 119.259 132.452 119.404C132.525 119.695 132.67 119.768 132.888 119.623C133.252 119.332 133.107 119.55 133.47 119.623C134.416 119.841 134.925 119.332 135.362 119.041C135.871 118.749 136.38 118.677 136.671 118.531ZM115.939 108.563L115.648 108.344C115.43 108.708 115.502 108.708 114.993 108.708C114.048 108.708 114.411 108.708 114.12 108.49C113.975 108.417 113.538 108.272 113.393 108.199C113.029 108.199 112.811 108.272 112.52 108.417C112.229 108.563 112.156 108.635 111.938 108.854C111.792 108.999 111.792 108.926 111.647 109.072C111.356 109.436 111.865 109.217 110.701 109.727C110.556 109.8 110.41 109.872 110.338 109.872C110.047 109.945 110.047 109.872 110.047 110.163C110.41 110.236 110.992 109.872 111.501 109.8C113.247 109.509 112.593 109.217 113.757 109.145C114.12 109.145 114.339 108.999 114.629 108.999C114.92 109.072 115.648 109.363 115.939 108.563ZM125.978 80.6943C125.759 80.6943 125.178 80.8399 124.887 80.8399C124.305 80.9854 124.232 81.1309 123.941 81.1309C123.359 81.1309 123.577 81.3492 123.504 81.7858C123.504 82.5134 122.704 83.0955 124.45 82.8772C124.959 82.8045 125.032 82.8045 125.25 82.4407C125.323 82.2224 125.396 82.2224 125.468 82.0768C125.541 81.9313 125.614 81.7858 125.687 81.6403C125.832 81.2037 125.905 81.0582 125.978 80.6943ZM118.339 80.7671C118.048 80.9854 117.976 81.3492 117.83 81.7858C117.685 82.1496 117.539 82.5134 117.467 82.8772C117.321 83.6776 116.448 84.6236 117.539 84.9874C117.685 84.187 118.485 83.0955 118.776 82.6589C118.994 82.2224 119.649 80.4761 119.649 80.0395C119.503 79.9667 118.776 79.6757 118.485 79.6757C118.339 79.8939 118.412 79.9667 118.339 80.2578C118.194 80.6943 118.267 80.4761 118.339 80.7671ZM126.05 84.6963C125.978 84.7691 126.196 84.6963 125.905 84.7691C125.759 84.7691 125.832 84.7691 125.759 84.7691C124.959 84.7691 125.323 84.8418 124.959 85.2057C124.959 85.1329 124.523 84.3325 124.523 84.187C124.45 83.9687 124.377 83.8959 124.305 83.6776C124.159 83.4593 124.086 83.4593 124.086 83.1683H125.25C125.396 83.8232 125.759 84.187 126.05 84.6963ZM113.757 84.2597C113.975 84.187 114.12 84.187 114.338 84.1142C114.702 84.0414 114.557 84.0414 114.775 83.7504C114.92 83.6049 115.066 83.5321 115.211 83.3866L116.012 82.5862C116.157 82.4407 117.248 81.713 117.467 81.6403C117.467 81.8586 117.394 82.0768 117.321 82.2951C117.03 82.95 117.321 82.8772 116.812 82.95C116.666 82.95 116.666 82.95 116.521 83.0228C116.303 83.0955 116.23 83.2411 116.157 83.3866C116.012 83.5321 115.575 84.0414 115.357 84.1142C115.139 83.9687 115.357 84.0414 115.139 83.8232C114.848 83.8959 114.92 83.8959 114.848 84.187L114.193 85.5695H113.757V84.2597ZM116.303 84.8418C116.521 84.8418 116.448 84.9146 116.594 84.9874C116.812 85.2057 116.666 85.0601 116.885 85.1329C117.03 85.2057 117.248 85.3512 117.539 85.4967L118.921 86.0061C118.921 86.2971 118.849 86.5154 118.703 86.7337C118.339 87.243 118.703 87.0975 118.339 87.3158C117.758 87.6068 116.812 87.4613 116.375 86.8064C116.084 86.2971 115.648 86.1516 116.303 84.8418ZM122.122 84.6236C122.486 84.6963 123.577 85.2057 123.504 85.6422C123.359 85.8605 123.504 85.715 123.286 85.8605C122.85 86.1516 122.486 86.4426 121.758 86.5154C121.249 86.5882 121.468 86.7337 121.104 86.7337C121.104 86.2971 121.249 86.2243 121.468 85.5695C121.54 85.4239 121.613 85.0601 121.686 84.9874C121.758 84.9146 121.686 84.9874 121.758 84.9146C121.977 84.7691 121.831 84.9146 122.122 84.6236ZM112.593 87.243L111.865 87.0247C111.938 86.8792 112.229 86.6609 112.447 86.3699C112.665 86.1516 112.884 85.7878 113.029 85.6422V85.715L113.102 85.9333C112.956 86.1516 112.811 86.2243 112.665 86.5154C112.52 86.952 112.738 87.0247 112.593 87.243ZM128.015 87.3158C127.796 87.3158 127.796 87.243 127.578 87.1703C127.433 87.0975 127.214 87.1703 127.069 87.0975C126.996 86.7337 126.851 86.2243 126.851 85.7878C127.069 85.8605 127.36 86.2243 127.505 86.4426C127.724 86.952 127.578 86.5154 128.015 87.3158ZM124.377 87.5341L124.159 87.6068C124.159 87.6068 124.159 87.6068 124.159 87.5341C124.159 87.5341 124.159 87.5341 124.159 87.4613C124.159 87.3885 124.159 87.3885 124.086 87.3158C124.086 87.243 124.014 87.1703 124.014 87.0247C124.159 87.1703 124.377 87.3158 124.377 87.5341ZM116.157 87.0975C115.939 87.3885 116.012 87.8979 116.012 88.1889C115.939 88.5528 115.793 88.9893 115.793 89.2076C116.157 89.3532 116.375 89.2804 116.666 89.0621C116.666 88.48 116.812 88.1889 116.812 87.5341L116.157 87.0975ZM110.265 89.1349C110.338 89.1349 110.992 89.5714 110.919 89.0621C110.919 88.9166 110.919 88.9166 110.847 88.8438C110.701 88.6983 110.701 88.6983 110.556 88.5528C110.701 88.2617 111.138 87.6796 111.356 87.6068C111.283 87.9707 111.21 87.8979 111.138 88.771C111.138 89.1349 111.065 89.6442 110.992 90.008C110.629 90.008 109.61 90.3718 110.265 89.1349ZM125.25 87.8251C125.25 87.8979 125.468 88.5528 125.323 88.6983C124.887 88.9166 125.105 88.6255 124.814 88.6255C124.523 88.6255 124.596 88.8438 124.596 89.1349L124.232 89.2076C124.014 89.6442 124.305 89.4259 123.941 89.7897C123.868 89.8625 123.868 89.8625 123.795 89.9353L123.286 90.5174C122.995 90.8084 122.85 91.0995 122.631 90.9539C122.486 90.8084 122.486 90.3718 122.704 90.008C122.85 89.717 122.995 89.5714 123.213 89.3532C123.504 89.0621 123.213 89.2076 123.795 88.771C124.232 88.4072 124.668 87.8251 125.25 87.8251ZM125.396 85.3512C125.396 85.7878 125.614 86.0788 125.614 86.6609C125.614 86.8792 125.614 87.1703 125.614 87.3885C125.614 87.7524 125.687 87.6796 125.759 87.9707C125.905 88.771 125.687 89.7897 125.759 90.5901C126.123 90.5901 126.56 90.2263 126.778 90.0808C126.778 89.6442 126.851 89.2076 126.778 88.771C126.705 88.3345 126.705 87.9706 126.705 87.5341C126.705 87.1703 126.56 86.7337 126.56 86.3699C126.56 86.0788 126.56 85.9333 126.487 85.715C126.487 85.715 126.414 85.6422 126.414 85.5695C126.269 85.2057 126.341 85.1329 125.759 85.2057C125.687 85.2784 125.468 85.2784 125.396 85.3512ZM108.228 90.1535C108.446 90.0808 108.664 90.008 108.883 90.0808C108.955 90.3718 108.883 90.6629 108.81 90.8812C108.664 91.1722 108.519 91.245 108.155 91.1722C108.082 90.8812 108.155 90.4446 108.228 90.1535ZM130.488 91.6088C130.051 88.9893 128.742 88.8438 127.069 88.0434V87.6068C127.869 87.6068 129.033 88.2617 129.76 88.6983C130.342 89.0621 130.124 88.6255 130.561 89.5714C130.561 89.5714 131.943 91.3178 130.488 91.6088ZM114.193 90.9539C114.12 91.0995 113.611 91.6088 113.538 91.6816C113.32 91.536 113.32 91.4633 113.175 91.3178C113.029 91.1722 112.884 91.0995 112.738 90.9539C112.52 90.6629 112.374 90.1535 112.593 89.717C112.884 89.717 113.829 90.4446 114.12 90.8084C114.12 90.8812 114.193 90.9539 114.193 90.9539ZM112.229 91.4633C112.229 91.245 112.229 91.3905 112.229 91.245C112.229 90.5901 112.083 90.2991 112.302 89.5714C112.447 89.1349 112.738 88.1889 112.665 87.7524C112.52 87.6068 112.156 87.5341 111.865 87.5341C111.574 87.9706 111.429 89.0621 111.429 89.717C111.429 90.0808 111.501 90.0808 111.501 90.2991C111.501 90.5901 111.356 90.4446 111.501 90.8084C111.647 91.1722 111.865 91.4633 112.229 91.4633ZM109.465 91.1722C109.101 91.536 108.955 91.1722 108.592 91.8271C108.446 92.0454 108.082 92.5547 108.01 92.773L108.955 92.7003L109.683 91.536C109.828 91.245 110.265 90.5901 110.338 90.3718L109.61 90.2263C109.537 90.2991 109.246 90.8084 109.246 90.8812C109.465 91.1722 109.465 90.8812 109.465 91.1722ZM109.683 93.5007C109.683 93.9372 109.756 94.0828 109.61 94.4466C109.392 95.0287 109.028 95.3197 108.373 95.1015C108.01 95.0287 107.937 94.8104 107.719 94.7376C107.719 94.4466 107.864 94.2283 107.937 93.9372C108.082 93.2824 107.937 92.9185 108.955 93.1368C109.537 93.2824 109.246 93.2824 109.683 93.5007ZM117.612 90.3718C117.176 90.2991 116.739 90.2263 116.303 90.2991C115.43 90.5174 115.648 90.5174 114.775 90.9539C114.484 91.0995 114.557 90.9539 114.338 91.1722C114.193 91.3178 114.12 91.4633 114.048 91.6088C113.975 91.7543 113.829 91.8271 113.757 91.9726C113.466 92.2637 112.374 93.6462 112.229 94.01C112.011 94.7376 111.501 95.3197 112.374 95.247C112.447 95.1015 112.665 94.8104 112.811 94.7376C112.956 94.5921 113.611 93.5007 114.048 93.1368C114.702 92.5547 115.575 91.6816 116.448 91.7543C116.666 91.3178 117.467 90.7357 117.612 90.3718ZM129.033 96.775C128.887 96.6295 128.233 95.247 128.16 94.9559C128.015 94.5921 128.015 94.2283 127.796 93.9372C127.578 93.6462 127.36 93.5007 127.214 93.1368C127.287 92.9913 127.796 92.5547 128.015 92.482L129.251 95.4653C129.397 95.9746 129.397 96.1929 129.469 96.5567C129.324 96.7022 129.251 96.775 129.033 96.775ZM112.083 96.4112C112.083 96.7022 112.083 96.775 111.865 96.775C111.792 96.6295 111.792 96.6295 111.792 96.4112H112.083ZM132.67 96.6295C132.67 96.9933 132.307 97.2843 132.088 97.5754C131.797 98.1575 131.579 97.9392 131.288 97.5754C131.361 97.2843 131.87 96.5567 132.016 96.3384C132.234 96.4112 132.525 96.5567 132.67 96.6295ZM135.071 97.8664C134.998 97.5754 134.125 96.3384 133.98 96.1201C133.761 95.9018 133.834 95.9746 133.689 95.6835L132.888 94.4466C132.597 94.1555 132.598 93.9372 132.379 93.5734C132.307 93.4279 132.161 93.2824 132.088 93.1368C131.87 92.8458 131.506 91.8999 131.215 91.9726C131.07 91.9726 130.633 92.4092 130.27 92.482C130.051 92.1182 130.342 89.7897 128.451 89.1349L127.36 88.771C127.287 88.771 127.287 88.771 127.214 88.771C127.287 88.9893 127.214 88.771 127.36 88.8438C127.36 88.8438 127.433 88.8438 127.505 88.9166C127.651 88.9893 127.651 88.9893 127.724 89.1349C128.233 90.1535 127.724 89.3532 128.597 90.4446C128.815 90.7357 128.96 91.0995 129.178 91.3905C129.397 91.6816 129.397 91.536 129.542 91.7543L130.561 93.7189C130.706 94.01 130.633 94.01 130.924 94.0828C131.288 94.1555 131.361 94.3011 131.579 94.8832C131.943 95.6108 131.943 95.3197 131.725 95.9746C131.943 96.0474 131.797 95.9018 132.088 96.0474C132.234 96.1201 132.234 96.1929 132.452 96.2657C133.252 96.5567 133.179 96.4112 133.179 97.1388C133.179 97.3571 133.179 97.2843 133.107 97.4299C133.325 97.7209 133.398 97.7937 133.543 98.2303C133.616 98.4486 133.761 98.8124 133.907 99.0307C134.634 97.8664 134.489 97.7209 135.071 97.8664ZM110.265 97.6482C110.192 98.0847 110.192 98.303 110.047 98.6668C109.974 98.8851 109.901 98.8124 109.901 98.8124C109.828 98.8851 109.756 99.1034 109.61 99.3217C109.392 99.2489 109.101 99.0307 108.955 98.9579C108.155 98.4486 108.446 98.3758 108.519 98.1575C108.883 97.3571 108.519 97.0661 110.265 97.6482ZM134.78 98.2303C135.435 98.1575 135.435 98.5213 135.653 98.5213C136.017 98.5941 135.726 98.3758 136.38 98.8851C136.598 99.0307 137.908 99.54 138.126 99.6128C138.781 99.8311 138.781 99.54 139.363 99.9766C139.436 100.923 138.635 100.413 137.544 100.195C137.108 100.122 136.962 100.049 136.526 99.8311C136.453 99.7583 136.38 99.7583 136.307 99.6855L136.089 99.54C135.944 99.3945 136.017 99.54 135.944 99.3945C135.944 99.3217 136.017 99.3945 135.944 99.249C135.58 99.1762 134.853 99.0307 134.489 98.8124C134.562 98.5941 134.707 98.3758 134.78 98.2303ZM109.174 100.704C109.465 100.923 110.119 101.214 110.629 101.214C110.774 100.995 111.138 100.559 111.21 100.268C110.919 100.049 110.847 100.195 110.483 100.122C109.974 100.122 110.265 99.9038 109.901 99.7583C109.174 99.54 109.392 99.6128 108.664 99.1762C108.155 98.8124 108.155 98.7396 107.937 98.1575C107.719 97.5754 107.719 97.2843 107.719 96.5567C107.573 96.5567 107.209 96.775 107.064 96.9205C106.991 97.2116 107.209 98.2303 107.355 98.5213C107.573 99.1762 108.155 99.6855 108.592 100.195C108.81 100.486 108.955 100.486 109.174 100.704ZM134.052 100.995C133.907 101.214 133.689 101.505 133.47 101.577H133.252C133.107 101.141 133.398 101.432 132.961 100.413C132.816 100.049 132.961 100.122 132.961 100.049C133.179 99.9038 133.834 100.049 134.125 100.049C134.343 100.34 134.343 100.704 134.416 100.995C134.271 100.995 134.271 100.995 134.052 100.995ZM108.155 102.232C107.937 102.232 107.719 102.159 107.573 102.087C107.428 102.014 107.428 102.014 107.282 101.941C106.846 101.868 106.846 102.014 107.355 100.85C107.428 100.631 107.646 100.122 107.864 99.9038L108.883 100.85L108.155 102.232ZM130.997 98.6668C131.143 98.5941 131.434 98.5941 131.652 98.6668C131.87 98.7396 131.725 98.8851 131.725 99.1034C131.434 100.049 131.652 100.559 131.361 101.505C131.288 101.723 130.924 102.159 130.706 102.232C130.633 102.014 130.633 101.577 130.779 101.359C130.852 101.214 130.924 101.068 130.997 100.995C131.07 100.704 130.997 100.85 130.924 100.631C130.852 100.413 130.924 99.8311 130.924 99.6128C130.924 99.4672 130.924 99.3217 130.924 99.1034C130.924 98.8851 130.924 98.8124 130.997 98.6668ZM106.264 100.995C106.264 101.214 105.9 101.723 105.755 102.159C105.682 102.378 105.609 102.596 105.318 102.451C105.173 102.378 105.245 102.378 105.1 102.305C104.954 102.232 104.954 102.232 104.809 102.159C104.809 101.868 104.954 101.723 105.1 101.505C105.173 101.286 105.245 100.995 105.318 100.777C105.827 100.631 105.827 100.704 106.264 100.995ZM136.453 102.742C136.235 102.96 134.925 103.833 134.707 103.833C134.707 103.469 134.707 103.105 134.78 102.814C135.144 102.742 135.216 102.742 135.58 102.596C135.798 102.523 135.944 102.378 136.235 102.305C136.307 102.451 136.38 102.523 136.453 102.742ZM106.337 103.542C106.264 104.051 106.191 104.27 105.9 104.633C105.464 104.561 104.809 104.27 104.518 104.124C104.518 103.833 104.809 103.105 104.954 102.887C105.318 102.887 106.191 103.324 106.337 103.542ZM105.464 100.195C104.882 100.34 105.1 100.559 104.736 101.286L104.081 102.451C104.009 102.669 103.863 102.887 103.718 103.105C103.645 103.251 103.645 103.324 103.572 103.396C103.499 103.469 103.427 103.615 103.354 103.688C103.209 103.906 103.281 104.488 102.263 104.488C102.408 104.051 102.772 103.615 102.918 103.105L104.3 100.486C104.663 99.9038 104.445 100.195 104.591 99.7583C104.663 99.6128 104.809 99.3217 104.954 99.1034L105.9 96.9933C106.264 95.9746 106.118 96.4112 106.482 95.6108C106.919 94.6649 106.919 94.8104 107.209 94.2283C107.282 94.0828 107.282 94.01 107.355 93.8645L107.573 93.5734C107.573 94.3011 107.209 94.5921 107.209 95.1742L107.646 95.3925C107.719 96.4112 107.209 96.2657 106.7 96.7022C106.264 97.1388 106.7 98.012 106.773 98.5213C106.555 98.6668 106.482 98.5213 106.264 98.8124C106.046 99.1034 105.536 99.6855 105.464 100.195ZM103.354 105.507C103.136 105.579 102.845 105.652 102.699 105.725C101.754 106.161 101.826 106.016 101.899 105.507C101.972 104.633 102.263 104.924 102.627 104.852C102.845 104.779 102.845 104.779 103.063 104.706C103.209 104.852 103.209 104.924 103.281 105.07C103.281 105.361 103.354 105.288 103.354 105.507ZM134.271 105.652C134.343 106.016 134.343 106.38 134.052 106.38C133.907 106.38 133.834 106.307 133.689 106.452C133.543 106.598 133.616 106.671 133.543 106.816C133.47 106.452 133.398 106.744 133.398 106.307C133.398 106.016 133.252 106.089 133.252 105.725C133.616 105.579 133.907 105.361 134.271 105.652ZM135.071 99.8311C135.58 100.413 135.653 100.268 136.017 101.214C136.089 101.505 136.089 101.577 136.307 101.65C137.253 102.159 137.326 102.814 137.399 102.96C137.544 103.178 137.617 103.033 137.835 103.251L138.49 104.197C138.563 104.342 138.635 104.561 138.708 104.779L139.29 105.725C139.581 106.161 139.727 106.671 139.872 106.744C140.236 106.744 140.381 106.671 140.672 106.889C140.89 107.035 140.89 107.18 141.109 107.326C141.036 106.816 140.599 106.161 140.454 105.798L139.945 104.924C139.799 104.706 139.727 104.561 139.581 104.342C139.436 104.124 139.436 104.197 139.29 103.906C139.145 103.542 138.999 103.615 138.781 103.251C138.635 102.96 138.854 103.105 138.49 102.814C138.272 102.669 138.199 102.523 138.053 102.378C137.835 102.159 136.817 101.141 136.817 100.923C136.671 100.486 136.889 100.559 136.453 100.34C136.235 100.268 135.944 100.195 135.726 100.122C135.289 99.9038 135.871 99.9766 134.853 99.6855H134.489C134.78 99.8311 134.707 99.4672 135.071 99.8311ZM106.191 109.363C105.391 108.708 105.609 109.218 106.118 107.398C106.337 107.398 106.919 107.544 107.064 107.617L106.191 109.363ZM140.672 107.471C140.527 107.689 140.454 107.689 140.308 107.908C139.945 108.49 139.363 108.926 139.29 109.072C139.072 109.436 139.363 108.999 139.217 109.218C138.999 109.218 138.999 109.218 138.781 109.072C138.854 108.854 138.854 108.926 138.999 108.708C139.217 108.417 139.872 107.18 140.09 107.107C140.381 106.962 140.599 107.253 140.672 107.471ZM103.354 108.563C103.572 108.854 103.572 108.708 103.863 108.926C104.154 109.145 104.445 109.509 104.736 109.8C105.1 110.163 105.391 110.236 105.755 110.527C105.973 110.382 106.046 110.163 106.118 109.8C105.682 109.727 105.682 109.436 105.391 109.218C104.882 108.854 105.318 108.926 104.809 108.563C104.518 108.344 104.445 108.272 104.227 107.908C104.009 107.544 104.009 107.253 103.863 107.035C103.645 107.107 103.645 107.253 103.572 107.544C103.281 107.981 102.845 107.908 103.354 108.563ZM137.544 106.234C137.69 106.307 138.053 106.962 137.835 107.471C137.69 107.835 137.544 107.544 137.399 107.981C137.326 108.272 137.253 108.344 137.108 108.563C136.598 109.509 136.307 109.581 135.871 109.945C135.726 110.091 135.726 110.236 135.435 110.382C135.289 110.309 135.289 110.236 135.144 110.163C135.289 109.654 136.017 108.708 136.307 108.199C136.526 107.835 136.671 107.544 136.889 107.18C137.399 106.452 137.18 106.307 137.544 106.234ZM140.599 108.199C140.89 108.417 140.89 108.272 141.036 108.708C141.109 108.926 141.254 109.217 141.254 109.509C141.618 111.328 141.036 111.255 141.982 111.473C142.2 111.546 142.345 111.546 142.564 111.546C142.564 111.037 142.418 110.891 142.345 110.454C142.273 110.163 141.4 107.762 141.254 107.617C141.109 107.762 141.036 107.689 140.89 107.835C140.818 107.908 140.672 108.053 140.599 108.199ZM102.19 106.38C101.608 106.525 101.535 106.671 101.317 106.161C100.953 106.889 100.444 108.053 100.299 108.781L99.5713 110.818C99.4985 111.037 99.353 111.255 99.2803 111.473C99.353 111.4 99.7167 111.037 99.7895 110.964C100.008 110.673 100.08 110.673 100.299 110.454C100.59 110.236 100.371 110.163 100.59 109.727C100.881 109.072 101.026 108.272 101.463 107.617C101.608 107.471 102.117 106.525 102.19 106.38ZM139.799 111.837C139.508 111.691 139.799 111.837 139.581 111.691L139.363 111.546C138.999 111.328 139.217 111.037 139.654 111.109C139.945 111.182 139.872 111.255 139.945 111.328C140.09 111.4 140.527 111.4 140.745 111.546C141.036 111.691 141.181 111.691 141.545 111.764C141.836 111.837 141.982 111.91 142.2 112.055C142.2 112.201 142.054 112.346 141.982 112.492C141.618 113.001 141.181 112.419 140.745 112.274C140.381 112.128 140.09 111.983 139.799 111.837ZM105.536 110.891C105.464 111.109 105.464 111.037 105.391 111.109L105.1 111.691C104.954 111.982 104.882 112.274 104.663 112.565C103.863 112.419 104.3 111.837 104.518 111.328C104.663 110.964 104.809 110.891 104.809 110.454L105.536 110.891ZM102.918 110.018C102.699 110.382 102.336 110.454 101.972 110.673C100.808 111.4 101.39 110.964 100.299 112.128C100.008 112.492 99.7167 112.565 99.2075 112.346C99.2075 112.128 99.2075 112.201 99.353 112.055C99.4258 111.982 99.4985 111.91 99.5713 111.837C100.444 110.891 100.662 110.527 101.826 109.727C102.408 109.363 102.772 109.509 102.918 110.018ZM137.399 113.074L137.835 113.365C138.126 113.219 138.417 112.856 138.635 112.201C138.708 111.91 138.635 111.91 138.635 111.619C138.708 110.6 137.762 109.654 137.471 109.654C136.526 109.581 137.253 110.309 137.399 110.673C137.69 111.546 137.326 112.346 137.399 113.074ZM102.699 112.274C102.554 112.128 102.336 111.983 101.972 111.983C101.972 112.346 101.826 112.783 101.899 113.074L102.336 113.147C102.481 112.928 102.699 112.565 102.699 112.274ZM98.2618 115.111C98.2618 114.748 98.6256 112.928 98.8438 112.71C99.062 112.71 99.2075 112.71 99.4258 112.856C99.4258 113.001 99.2803 113.147 99.2075 113.292L98.8438 114.893L98.2618 115.111ZM102.263 116.057C102.263 115.402 102.045 115.257 101.463 115.111C100.881 114.893 99.4985 114.966 99.1348 115.184L97.9709 115.839C97.8254 115.984 97.6071 116.057 97.3889 116.203C97.3162 116.567 97.4616 116.858 97.6071 117.076C97.9709 117.076 98.1891 116.639 98.5528 116.494C99.644 115.984 99.1348 116.348 99.7168 116.13C100.881 115.766 100.371 115.984 101.39 115.912C101.681 115.912 101.463 115.839 101.681 115.839C102.117 115.839 101.899 116.13 102.263 116.057ZM139.799 116.785C139.799 116.639 139.799 116.494 139.872 116.348C140.017 116.13 140.017 116.203 140.236 116.13C140.454 116.057 140.599 115.693 140.963 115.693C141.618 115.766 140.745 116.858 140.527 117.076C140.163 117.076 139.945 116.93 139.799 116.785ZM142.709 112.201C142.855 112.565 142.636 112.492 142.491 113.074C142.418 113.583 142.491 114.238 142.345 115.184C142.2 116.057 142.345 115.475 142.127 116.13C141.836 117.149 141.836 118.386 141.036 119.695C140.818 119.695 140.963 119.695 140.745 119.623C140.381 119.404 140.672 119.259 139.581 118.458C139.436 118.313 139.436 118.24 139.29 118.095L138.563 117.44C137.108 115.984 138.272 116.421 137.035 115.548C136.671 115.257 136.598 115.257 136.453 114.82C136.307 114.384 136.089 114.456 135.798 114.165C135.58 113.802 135.58 113.583 135.435 113.219C135.362 113.001 134.998 112.637 134.853 112.492C134.634 112.201 134.489 111.91 134.271 111.691C133.179 110.382 133.834 110.6 133.034 109.581L132.452 108.781C132.307 108.563 132.088 108.344 131.943 107.908C131.652 107.253 131.434 107.471 131.143 106.744C130.997 106.453 130.852 106.089 130.779 105.725C130.633 104.706 131.07 104.27 130.342 103.615C129.251 102.742 129.033 102.814 128.597 101.286C128.233 99.9766 127.796 99.9038 127.069 98.8124C126.923 98.5213 126.778 98.2303 126.56 97.9392C126.341 97.7209 126.123 97.5026 125.978 97.2116C125.687 96.6295 125.396 95.9746 124.887 95.6108C123.941 94.8832 124.523 95.3925 124.159 94.6649C123.868 94.01 123.941 94.3738 124.086 94.1555C123.941 94.0828 123.868 94.01 123.723 93.9372C123.577 93.8645 123.504 93.7917 123.359 93.7189C123.141 93.5734 122.704 93.1368 122.559 92.9185C122.268 92.482 122.631 92.7003 121.977 91.9726C121.322 91.3178 121.54 91.245 121.031 90.6629C120.813 90.4446 120.74 90.2991 120.813 89.8625C120.813 89.6442 120.958 89.1349 121.031 88.9893C121.322 89.1349 121.322 89.4259 121.686 89.8625C121.977 90.2263 121.831 90.4446 122.486 91.245C122.631 91.3905 122.631 91.536 122.777 91.6816L124.159 93.2096C124.45 93.6462 124.741 93.7917 124.887 94.01L125.978 95.9018C126.05 96.0474 126.123 96.1929 126.269 96.3384C126.341 96.484 126.414 96.7022 126.487 96.8478C126.632 97.2116 126.851 97.5026 126.996 97.7937C127.214 98.0847 127.36 98.4486 127.578 98.6668C127.796 98.9579 128.015 99.1762 128.233 99.4672C128.887 100.34 128.887 100.631 129.76 101.65C129.906 101.868 129.979 101.941 130.051 102.087C130.124 102.232 130.27 102.232 130.415 102.523C130.561 102.742 130.415 102.814 130.488 103.033C131.361 103.251 131.434 104.051 131.87 104.852C132.234 105.579 132.088 105.288 132.307 106.016C132.452 106.525 132.888 107.107 132.961 107.326C133.325 108.199 134.198 108.999 134.707 109.945C134.853 110.163 134.853 110.673 135.289 110.891C135.871 111.255 135.798 111.91 136.235 112.346C136.598 112.71 136.962 113.365 137.18 113.802C137.399 114.165 137.617 114.384 137.835 114.675C137.908 114.82 138.126 115.257 138.49 115.621C138.926 116.13 138.854 116.348 139.072 116.639C139.145 116.712 139.217 116.785 139.29 116.858C139.436 117.003 139.363 116.858 139.508 117.003C139.654 117.221 139.581 117.294 139.872 117.367C140.163 117.44 140.818 117.658 141.109 117.512C141.181 117.367 141.181 117.294 141.254 117.221L141.691 116.494C141.909 115.984 142.054 115.621 141.618 115.33C141.691 115.257 141.691 115.257 141.763 115.184C142.054 114.747 142.054 114.893 142.054 114.602C142.054 114.238 141.982 113.802 141.909 113.438C141.691 113.292 141.618 113.438 141.618 113.074C142.491 113.583 142.2 112.637 142.709 112.201ZM120.304 88.0434C120.74 88.771 120.013 89.7897 119.94 90.2263C119.867 90.6629 119.867 90.5174 119.576 90.7357L119.067 91.1722C118.849 91.3178 118.849 91.4633 118.558 91.6088C117.758 92.1182 118.121 91.9726 117.83 92.1909C116.594 93.1368 116.666 93.2824 116.084 94.5921C115.648 95.4653 114.775 96.1929 114.484 96.7022C114.266 97.1388 114.048 97.8665 113.902 98.012C113.684 98.4486 113.393 98.8124 113.175 99.1762C112.811 99.6855 112.811 99.9038 112.593 100.486C112.011 102.232 111.283 102.596 110.701 104.051C110.047 105.507 108.955 106.598 108.519 107.471C108.082 108.344 108.301 107.981 108.01 108.854L106.991 110.673C106.337 111.764 106.191 112.201 105.973 113.292C105.9 113.656 105.391 114.529 105.1 115.257C104.809 116.057 104.445 116.348 104.154 117.076C103.718 117.949 103.427 118.167 103.063 118.749C102.772 119.259 101.899 120.787 101.608 120.932L100.881 121.151C100.59 121.223 100.371 121.151 100.226 120.932C100.08 120.714 100.08 120.569 99.935 120.278C99.4258 119.477 99.7168 119.695 99.353 118.968C99.2075 118.677 99.1348 118.677 99.062 118.313C98.9893 117.876 98.5528 117.221 98.4801 117.076C98.6983 116.785 99.062 116.712 99.4258 116.639C99.353 116.712 98.9165 116.785 99.2803 117.149C99.4985 117.367 99.353 117.149 99.4985 117.367C99.5713 117.512 99.4985 117.513 99.644 117.658C99.7895 117.804 100.444 118.24 100.662 118.24C100.953 118.313 101.681 117.949 101.899 117.804C102.045 117.658 102.481 117.003 102.554 116.858C102.699 116.639 103.936 114.893 104.445 113.802C104.809 113.001 105.682 111.109 106.046 110.454L106.628 109.363C107.137 107.981 107.209 108.126 107.719 107.18C107.937 106.816 108.155 106.38 108.301 106.089C108.81 104.997 108.446 105.652 108.737 104.852C108.955 104.342 108.955 104.197 109.319 103.76C109.901 103.105 111.283 100.631 111.865 99.6855C112.083 99.3217 112.229 99.0307 112.447 98.5213L113.32 96.8478C113.757 96.1201 113.829 95.6836 114.557 94.8104C114.702 94.5921 114.775 94.5193 114.92 94.3011C115.211 93.9372 115.284 93.8645 115.575 93.3551C115.793 92.9913 116.666 91.6816 116.957 91.4633C118.921 90.0808 118.921 88.2617 120.304 88.0434ZM131.07 122.169C130.706 122.169 130.415 122.169 130.051 122.242L124.45 122.97C123.432 122.97 123.65 123.043 123.068 123.115C122.268 123.188 121.468 123.188 120.667 123.334C119.067 123.625 119.867 123.334 118.921 123.334C118.267 123.334 117.539 123.406 116.885 123.334C116.521 123.261 116.375 123.188 116.012 123.188C116.084 122.97 116.157 123.043 116.23 122.897C115.866 122.897 116.23 122.824 115.939 122.751C115.793 122.751 115.575 122.751 115.502 122.824C115.139 123.043 115.575 123.043 115.139 123.115C114.92 123.188 114.702 123.115 114.484 123.115C114.266 123.406 114.338 123.479 113.829 123.406C113.247 123.334 112.884 123.188 112.593 123.188C112.447 123.188 112.374 123.188 112.156 123.115C111.938 123.043 111.574 122.97 111.356 122.97C110.847 122.897 110.192 122.824 109.683 122.751C109.319 122.679 109.101 122.751 108.81 122.751C108.373 122.679 107.646 122.679 107.209 122.606C106.191 122.46 105.682 122.46 104.663 122.533C104.227 122.533 103.354 122.751 102.99 122.606C102.627 122.46 102.045 122.242 101.826 121.951C101.899 121.514 102.19 121.733 102.263 121.442V121.369C102.336 120.932 102.772 120.569 102.99 120.205C103.281 119.768 103.427 119.259 103.718 118.895C104.009 118.531 104.372 118.095 104.591 117.731L105.318 116.421C105.609 116.494 105.755 116.567 106.046 116.421C106.264 116.348 106.264 116.203 106.628 116.276C107.282 116.348 107.209 116.567 107.719 116.858C107.646 117.076 107.573 117.221 107.864 117.294C108.01 117.149 108.082 116.858 108.082 116.567C107.646 116.348 107.719 116.057 107.209 115.912C106.409 115.621 106.482 115.839 106.046 115.839C106.046 115.839 106.046 115.839 106.046 115.766C105.973 115.548 105.827 115.33 105.827 115.111C105.9 114.748 106.409 113.874 106.555 113.292C106.7 112.783 106.7 112.346 106.919 111.91L107.864 110.236C108.228 109.654 108.519 109.218 108.664 108.49C108.955 107.471 109.756 106.598 110.338 105.798C110.847 105.07 110.774 104.997 111.065 104.415C111.356 103.833 111.792 102.96 112.156 102.523C112.593 101.941 112.811 101.505 113.029 100.777C113.102 100.559 113.175 100.34 113.247 100.122C113.466 99.54 113.902 98.9579 114.266 98.5213C114.411 98.303 114.702 97.7209 114.993 97.5754C115.211 97.6482 115.43 98.012 115.793 97.3571C116.157 97.3571 116.012 97.5026 116.375 97.4299C116.739 97.4299 116.521 97.2843 116.885 97.5026C117.103 97.6482 117.685 97.7209 117.83 97.4299C117.612 97.1388 117.394 97.3571 117.176 97.2116C116.957 97.0661 117.103 97.2116 117.03 96.9933C116.957 96.8478 116.957 96.8478 116.885 96.775C116.666 96.775 116.666 96.775 116.521 96.775C116.23 96.775 115.866 96.7022 115.502 96.775C115.502 96.2657 115.648 96.1929 115.939 95.8291C116.594 94.9559 116.739 94.0828 117.467 93.3551C118.048 92.773 119.285 91.8999 119.576 91.536C119.722 91.3178 120.085 91.0267 120.304 90.9539C120.74 91.4633 120.886 91.8271 121.322 92.3364C121.468 92.482 121.54 92.6275 121.686 92.7003C121.977 93.0641 122.122 93.1368 122.413 93.5734C122.631 93.9372 122.85 94.1555 123.141 94.3738C124.086 95.1015 123.286 94.8104 124.668 95.9746C125.25 96.4112 125.468 97.2116 125.905 97.8664C126.05 98.0847 126.123 98.0847 126.269 98.303L126.632 98.7396C126.923 99.249 127.578 100.049 127.942 100.559C128.451 101.359 127.942 102.232 129.615 103.542C130.779 104.415 130.27 104.488 130.415 105.725C130.488 106.525 130.997 107.253 131.434 107.835C131.943 108.49 132.452 109.436 132.961 110.236C133.107 110.382 133.034 110.309 133.107 110.454C133.179 110.6 133.179 110.6 133.252 110.746C133.543 111.546 134.853 112.928 135.144 113.511C135.362 113.947 135.362 114.238 135.726 114.529C135.871 114.675 136.017 114.82 136.089 114.966C136.235 115.184 136.162 115.257 136.307 115.475C136.598 115.912 136.817 115.839 137.18 116.203C137.471 116.494 137.471 116.639 137.617 116.93C137.69 117.003 137.617 116.93 137.69 117.003C137.762 117.076 137.69 117.076 137.762 117.149C137.835 117.367 137.762 117.221 137.908 117.367C138.126 117.585 138.272 117.658 138.49 117.949L140.09 119.404C140.236 119.55 140.308 119.695 140.454 119.841C141.109 120.496 140.017 120.714 139.654 121.005C139.363 121.223 139.436 121.223 139.145 121.078L136.235 121.223L134.998 121.514C134.78 121.587 134.562 121.587 134.343 121.587C134.125 121.66 134.416 121.66 133.761 121.733C132.816 121.878 132.961 121.951 131.87 121.878C130.852 121.66 130.852 121.806 131.07 122.169ZM141.545 120.205C141.545 119.768 141.4 119.986 141.618 119.55C141.691 119.332 141.763 119.113 141.836 118.968C142.127 118.458 142.127 118.24 142.273 117.658L142.564 116.276C142.709 115.766 142.636 115.184 142.927 114.82C143.073 114.602 142.927 114.748 143.073 114.529C143.218 114.165 143.218 114.311 143.437 113.583C143.655 112.928 143.509 112.71 143.364 112.128C143.146 111.4 143 110.018 142.636 109.363L141.618 106.889C141.472 106.089 140.308 104.27 139.872 103.469C139.654 103.105 139.436 102.814 139.145 102.451C138.854 102.087 138.635 101.868 138.344 101.577C138.126 101.359 137.762 100.85 137.617 100.559C138.272 100.559 139.217 101.068 139.727 100.85C139.872 100.704 140.381 99.7583 139.581 99.3217C139.363 99.1762 138.926 99.1034 138.635 99.1034C138.053 99.1034 138.126 98.9579 137.762 98.8124C137.399 98.6668 137.253 98.7396 136.889 98.5213C136.598 98.3758 136.453 98.1575 136.235 98.0847C135.726 97.7937 136.089 97.8665 135.726 97.4299C135.435 96.9933 134.998 96.6295 134.707 96.1929C134.489 95.9018 134.489 95.7563 134.271 95.538C134.052 95.247 134.052 95.1014 133.834 94.8104C133.689 94.5921 133.47 94.3738 133.325 94.1555L132.016 92.0454C131.943 91.8999 131.87 91.8271 131.797 91.6816C131.725 91.536 131.579 91.4633 131.579 91.245C131.579 91.0995 131.725 90.1535 131.143 89.4987C130.852 89.1349 130.852 89.4259 130.706 88.8438C130.561 88.48 130.415 88.4072 130.124 88.2617C129.833 88.1162 129.688 87.9707 129.397 87.8251C129.106 87.6796 128.887 87.6796 128.669 87.3885C128.524 87.1703 128.451 86.8792 128.233 86.6609C127.942 86.3699 127.942 86.2971 127.796 86.0061C127.578 85.715 127.505 85.6422 127.287 85.424C127.069 85.2057 127.069 84.9874 126.851 84.6963C126.778 84.5508 126.705 84.5508 126.56 84.4053C126.414 84.2597 126.414 84.187 126.341 84.0414C126.123 83.6049 125.614 83.2411 125.396 82.7317C125.25 82.4407 125.905 81.5675 126.05 81.2764C126.269 80.8399 126.269 80.7671 126.196 80.4033C126.414 80.3305 126.487 80.4033 126.487 80.185C126.56 79.7484 125.687 80.185 125.396 80.2578C125.032 80.3305 124.814 80.2578 124.45 80.4033C123.65 80.6216 123.577 80.7671 122.995 80.1122C122.777 79.8939 122.631 79.8212 122.413 79.6029C122.195 79.3118 121.613 78.7297 121.468 78.3659C120.74 78.3659 121.104 78.7297 120.158 79.0936C119.94 79.1663 119.94 79.3118 119.794 79.3846C119.358 79.3846 119.067 79.3118 118.703 79.1663C118.194 78.948 118.121 79.0936 117.903 79.4574C117.685 79.9667 117.83 80.185 117.394 80.6216L114.266 83.1683C114.048 83.3138 114.12 83.3866 113.975 83.5321C113.466 83.5321 113.175 83.4593 113.102 83.9687C113.102 84.187 113.175 84.2597 113.175 84.478C113.175 84.8418 112.811 85.0601 112.665 85.2057L112.083 85.9333C111.72 86.2243 111.647 86.1516 111.065 86.8792L110.483 87.5341C110.192 87.8251 109.828 88.3345 109.756 88.8438L109.61 89.6442C109.61 89.6442 109.61 89.7897 109.537 89.7897C109.465 89.8625 109.465 89.8625 109.465 89.9353C109.101 89.8625 109.465 89.717 108.737 89.5714C107.5 89.3532 107.864 89.3532 107.646 90.6629C107.646 90.8084 107.573 91.1722 107.646 91.3178C107.719 91.6088 107.937 91.4633 108.155 91.536L107.355 92.773C107.064 93.1368 106.118 95.0287 105.827 95.6108C105.682 95.9746 105.682 96.1201 105.536 96.4112L103.718 100.486C103.427 101.068 103.063 101.65 102.699 102.232C102.554 102.523 102.554 102.669 102.408 103.033C102.336 103.324 101.972 103.688 101.754 103.979L101.39 104.415C101.099 104.706 101.244 104.633 101.172 104.924C101.172 105.07 100.953 105.507 100.808 105.652C100.226 106.816 100.008 107.908 99.644 108.781C99.4258 109.217 99.4258 109.654 99.062 110.382C98.8438 110.818 98.5528 111.4 98.4073 111.91C98.2618 112.419 97.9709 112.928 97.8981 113.511C97.8254 113.802 97.8254 114.165 97.7526 114.456C97.6799 114.82 97.6071 114.893 97.6071 115.402C97.2434 115.621 96.8797 115.984 96.8797 116.421C96.8797 116.712 97.0252 116.93 97.0979 117.076C97.2434 117.367 97.2434 117.44 97.3889 117.658C97.8981 117.658 97.6799 117.585 97.9709 117.44C98.1164 117.585 98.2618 117.731 98.3346 117.949L99.353 120.35C99.4985 120.641 99.4985 120.641 99.644 120.932C99.935 121.514 100.08 121.442 100.517 121.733C100.953 122.097 100.735 122.024 101.463 122.46C101.681 122.606 102.336 122.897 102.699 122.97C102.99 123.042 103.79 122.824 104.154 122.824C104.663 122.751 105.245 122.751 105.755 122.751C106.7 122.751 107.791 122.97 108.737 123.043C109.319 123.043 109.756 123.115 110.338 123.115L113.247 123.625C113.829 123.77 114.266 123.697 114.848 123.697C115.721 123.77 115.066 124.061 117.903 123.988C119.067 123.916 119.794 123.697 120.958 123.625C121.977 123.552 123.068 123.406 124.086 123.334C124.596 123.334 125.105 123.188 125.614 123.188C127.214 123.115 129.106 122.679 130.197 122.533C131.288 122.46 132.379 122.315 133.398 122.46C133.761 122.533 137.544 122.024 137.908 121.878L139.145 121.442C139.727 121.151 140.454 121.078 140.818 120.569C141.327 120.278 141.109 120.423 141.545 120.205ZM62.835 71.3079L61.6711 70.653C61.5984 69.6343 61.1619 68.4701 60.8709 67.4514L59.2705 61.3393C58.9795 60.3934 58.4703 59.302 58.2521 58.356C60.7982 60.6845 62.3258 67.7425 62.835 71.3079ZM57.5246 62.4308C57.8884 63.8133 58.1793 65.123 58.5431 66.5055C59.416 69.6343 58.9068 69.4161 60.7254 70.2892C60.8709 69.0522 59.707 65.4141 59.1978 64.0316C58.9795 63.3767 58.9795 62.5763 58.7613 61.9214C58.1793 59.7386 56.6517 55.8821 54.5421 54.6451C54.9786 55.9549 56.9427 60.1751 57.5246 62.4308ZM49.2317 68.4701C43.0484 66.5783 45.8127 67.597 40.2841 64.832C41.5935 64.7592 43.4121 65.8507 44.7943 66.2145L53.5237 68.1063C56.5789 68.5429 55.7788 68.3974 57.5974 69.4888C55.997 70.2164 51.0503 68.9795 49.2317 68.4701ZM58.3248 68.9795L56.9427 68.1063C56.3607 65.6324 55.415 62.9401 54.6876 60.2479L52.5052 54.6451C52.1415 54.063 51.705 53.4082 51.705 52.826C55.1241 54.2085 58.6158 68.0335 58.3248 68.9795ZM46.3946 64.7592C43.4848 63.8861 40.5023 63.0129 37.5925 62.1397C38.6109 64.4682 52.3597 67.3059 54.5421 67.4514C53.0872 66.0689 48.5042 65.4141 46.3946 64.7592ZM50.3229 54.2086C50.9776 55.2272 52.869 59.5203 53.1599 60.83C53.8146 63.595 54.1784 63.7405 54.6148 65.3413C54.9058 66.36 54.9786 67.0149 56.0697 67.4514C56.0697 66.5783 53.7419 59.1564 53.2327 58.2105C52.7962 57.3374 52.6507 56.828 52.3597 56.0276C52.0688 55.2272 51.5595 54.6451 51.1958 53.9175C50.6866 52.8988 49.7409 51.7346 48.7225 51.007C48.2133 50.7159 47.995 50.7159 47.5586 50.2793C47.8495 50.9342 49.7409 53.3354 50.3229 54.2086ZM41.2297 44.6038L44.9397 50.7159C47.2676 54.3541 50.3229 59.2292 52.0688 63.0857C52.6507 64.4682 52.578 65.3413 54.1784 66.0689L50.6139 56.1004C49.6682 54.1358 47.9223 51.9529 46.5401 50.1338C46.1764 49.6245 45.9582 49.1879 45.5217 48.6786L42.0299 44.3855C40.9388 43.0758 40.866 42.5664 39.1929 41.6205C39.4839 42.6392 40.575 43.5851 41.2297 44.6038ZM35.6284 58.2833L44.867 61.1938C46.4674 61.5576 47.5586 61.9942 48.6497 63.1584C45.3035 62.5763 32.7186 59.1564 31.4092 56.2459C32.8641 56.7553 34.1735 57.7012 35.6284 58.2833ZM38.2472 47.8054C38.9747 49.1879 39.4111 49.9155 40.3568 51.2253L44.5033 58.2833C42.2482 56.9008 41.448 55.3728 40.2113 53.4809C39.0474 51.5891 36.2831 46.0591 35.8466 44.3128C36.3558 44.6766 37.9562 47.2233 38.2472 47.8054ZM31.8456 52.8988C30.6817 52.826 30.3907 52.7533 29.2268 52.4622C29.2996 52.6078 29.2268 52.7533 30.0998 53.1171L34.028 54.2813C35.1919 54.4268 38.1745 55.3 39.0474 55.0817C35.9194 52.7533 35.7011 53.1171 31.8456 52.8988ZM39.5566 45.1859C40.7205 47.2961 42.0299 49.3334 43.2666 51.4436C43.9213 52.535 44.5033 53.4809 45.2307 54.4996L48.9407 60.7572C49.8864 62.4308 49.3045 62.8674 51.4868 63.8133C51.4141 62.4308 45.6672 52.8988 44.3578 51.0797C43.3394 49.6245 41.448 45.9863 40.4296 44.8949C39.0474 43.4396 38.8292 42.0571 36.7196 40.6018C35.6284 39.8014 36.3558 39.7287 34.9737 39.2921C35.3374 40.3836 37.6652 41.6933 39.5566 45.1859ZM38.9747 45.4042L48.3588 61.1938C46.2492 59.9568 45.8854 58.5743 44.2123 56.3187C42.9756 54.6451 42.2482 52.826 41.0115 51.007C39.7748 49.2607 38.9019 47.4416 37.8107 45.768C37.0105 44.5311 34.9737 41.766 34.9009 40.5291C36.2103 41.4022 38.1017 44.0217 38.9747 45.4042ZM31.9911 41.3295C32.3549 42.0571 32.7913 42.6392 33.0823 43.4396C33.3733 44.1672 33.737 45.0404 34.028 45.768C34.6827 47.1505 35.4829 48.7513 36.2831 50.0611L38.9747 53.4809L39.0474 53.5537L39.4111 53.6264C38.32 51.8801 36.0649 46.4229 35.2647 44.9676C34.9009 44.3128 34.61 43.1486 34.3917 42.7847C33.1551 40.9657 34.1007 42.5664 33.3005 40.6746C32.7913 39.4376 30.8272 37.473 29.5178 37.1092C30.609 39.0011 30.1725 37.473 31.9911 41.3295ZM26.1715 35.5084C27.4809 36.0178 27.1172 36.0178 27.8447 36.8182C30.4635 39.5104 29.3723 37.5458 31.6274 42.0571C32.2821 43.3668 32.7913 44.6038 33.446 45.9136C34.028 47.0778 34.8282 48.4603 35.2647 49.6245C34.028 48.7513 33.1551 47.6599 32.7186 46.3501C32.4276 45.4042 31.1909 43.7307 30.609 42.6392C29.2996 40.0197 27.9902 37.9096 26.1715 35.5084ZM23.6255 35.4357L29.0086 41.5478C28.8631 39.947 26.026 36.3816 24.4256 34.9263C23.5527 34.1259 23.3345 33.8349 22.0978 33.3983C22.2433 33.5438 23.2617 34.9991 23.6255 35.4357ZM58.834 57.9922C55.2695 53.5537 54.1784 54.063 52.7962 52.7533C51.7778 51.7346 51.705 52.3895 50.7594 51.8801C50.3229 51.6618 49.8137 50.9342 49.3045 50.5704C48.4315 49.9155 46.6856 48.8968 46.0309 48.0964C41.0843 42.0571 41.448 41.1112 33.6643 37.7641C29.2268 35.8722 30.9727 37.4003 24.7894 33.9804C23.6255 33.3255 20.6429 31.4337 20.2792 30.0512C20.0609 29.3236 19.8427 28.9597 19.0425 29.2508C18.6788 30.4878 21.0066 35.3629 21.5886 36.8182C22.0978 38.0551 22.5343 39.3649 22.898 40.6018C23.3345 42.0571 25.6623 47.3688 25.7351 47.9509C25.8078 48.9696 26.8262 50.4249 27.4082 51.4436C28.4266 53.3354 30.5362 56.4642 31.9184 57.9922C34.9009 61.1938 41.0843 67.5242 44.7943 69.4888C47.6313 70.9441 51.1958 72.6904 54.3239 73.127C56.1425 73.418 57.1609 73.0542 58.6886 73.127C64.3627 73.5636 60.1435 70.5075 66.836 75.5282C68.0727 76.4013 68.8729 78.2204 70.4005 78.5114C71.128 77.2745 68.6546 75.6009 67.7817 74.8005C67.3452 74.3639 66.4723 73.418 66.0358 73.1997C65.1629 72.6904 64.2899 72.4721 63.4897 71.8172C63.4897 68.3246 61.0891 60.83 58.834 57.9922ZM11.4043 32.8889C6.53037 31.2154 3.83881 29.0325 1.65646 24.2301C1.21999 23.2842 0.347045 20.7375 0.492535 19.8643C0.85626 20.4464 0.929005 21.3196 1.14724 21.9745C1.51097 23.2842 2.96587 24.8122 3.76606 25.9764C4.42077 26.9224 6.16665 29.3963 7.03959 29.9057C7.83978 30.415 8.63998 30.5605 9.44017 30.9243C10.1676 31.2154 11.1133 31.7975 11.8408 31.943C12.4227 32.0886 13.9504 32.0886 13.7321 32.9617C13.0047 33.18 12.2045 33.18 11.4043 32.8889ZM11.9862 28.4504C11.8408 28.0866 11.768 27.5772 11.477 27.2862C10.9678 26.8496 10.8223 26.7768 10.3859 26.2675C9.22194 24.885 7.98527 24.3757 6.23939 22.0472C5.22096 20.7375 3.83881 19.0639 3.03861 17.6814C2.82038 17.2449 2.60214 17.0266 2.45665 16.5172C1.65646 14.5526 1.51097 15.353 0.929005 14.3343C0.71077 13.9705 0.638025 13.5339 0.41979 13.2429C0.2743 13.6795 0.201555 15.4986 0.2743 16.0079C0.2743 16.2262 0.56528 17.0266 0.638025 17.3176C0.71077 17.6087 0.85626 17.5359 0.85626 17.8997C0.85626 18.118 0.85626 18.3363 0.85626 18.5546L1.51097 21.1741C2.09293 23.1387 3.40234 24.3757 4.639 26.0492C5.73018 27.5045 8.349 29.3963 10.1676 29.9784C10.6768 30.1239 11.0406 30.2695 11.6225 30.415C12.1317 30.5605 12.4227 30.5605 13.0047 30.7061C13.0774 30.2695 12.2045 28.9597 11.9862 28.4504ZM9.73115 20.9558C9.58566 20.5192 9.58566 20.3737 9.22194 20.0826C7.91253 19.0639 6.96684 18.7729 6.0939 17.7542C5.51194 17.0993 5.14822 16.4445 4.27528 16.0079C3.62057 15.6441 2.67489 14.9164 2.16567 14.4071C0.783515 12.9518 1.21999 11.3511 0.783515 10.6234C0.56528 10.9872 0.56528 11.2783 0.56528 11.7149C0.492535 12.2242 0.41979 12.2242 0.638025 12.6608C1.00175 13.3157 0.929005 13.825 1.43822 14.4799C2.09293 15.2803 2.45665 15.1347 2.74763 16.2262C3.03861 17.3176 3.83881 18.118 4.49351 18.9184C5.87567 20.7375 5.73018 20.2282 6.82135 21.4651C7.33057 22.0472 7.91253 22.7021 8.56723 23.1387C9.07645 23.5025 10.3131 24.5212 10.7496 24.7395C10.7496 24.0846 10.0221 21.6834 9.73115 20.9558ZM13.4411 27.65C13.3684 26.3403 14.4596 24.885 14.4596 22.12C14.3868 18.9184 14.1686 20.1554 14.0231 18.6274C13.9504 18.0453 13.8776 17.4632 13.8776 16.8811C13.8776 16.4445 13.8049 15.4258 13.8776 15.062C14.2413 15.4258 15.2598 17.7542 15.478 18.3363L15.769 20.0826C15.9145 20.8103 15.9872 22.9932 15.8417 23.648C15.478 25.6854 15.4053 25.5399 14.7506 27.4317C14.5323 27.941 14.3868 28.9597 14.0959 29.3236C13.8049 28.9597 13.5139 28.0138 13.4411 27.65ZM13.3684 17.6087C13.4411 17.0266 13.2957 14.4799 13.1502 13.8978C13.0047 13.4612 11.8408 10.8417 11.477 10.4779C11.3315 11.4966 12.1317 12.1514 11.477 14.6982C11.0406 16.2262 11.3315 17.6087 10.4586 19.0639C10.8223 20.0826 11.4043 20.9558 11.768 22.0472C11.9135 22.4838 12.4955 24.885 12.7137 25.0305C14.1686 22.7021 13.2229 20.2282 13.3684 17.6087ZM7.18508 14.0433C6.96684 13.6795 6.60312 13.4612 6.31214 13.0974C5.51194 12.1514 4.12979 9.38645 3.9843 8.14947C3.91155 7.64013 3.62057 6.76697 3.47508 6.18487C3.11136 4.65684 3.25685 3.56539 3.1841 3.05605C3.11136 2.61947 3.03861 2.32842 3.03861 2.03737C2.45665 2.765 0.929005 7.71289 1.21999 8.80434C1.36548 9.38645 1.00175 9.45921 1.51097 10.9145C1.7292 11.4238 1.43822 11.7149 2.09293 12.9518C2.5294 13.825 5.29371 15.8624 6.38488 16.4445C7.18508 16.8811 7.91253 17.7542 8.63998 18.118C8.71272 17.8997 7.25782 14.1888 7.18508 14.0433ZM4.85724 9.53197C4.42077 8.58605 3.62057 5.82105 3.62057 4.72961C3.62057 4.58408 3.62057 4.00197 3.62057 3.92921C3.54783 3.63816 3.54783 3.85645 3.40234 3.12882C3.32959 2.54671 3.32959 2.03737 3.40234 1.45526C3.47508 1.01868 4.34802 0.509342 4.78449 0.436579C5.22096 1.01868 4.85724 2.69224 5.00273 3.49263C5.07547 4.00197 5.29371 4.51132 5.36645 4.94789C5.58469 6.62145 5.36645 7.42184 6.0939 9.53197C6.45763 10.6234 6.53037 11.4238 6.74861 12.5153C6.38488 12.1514 5.14822 10.0413 4.85724 9.53197ZM6.45763 8.94987C6.31214 8.65882 6.0939 7.93118 6.02116 7.56737C5.94841 7.27632 6.0939 7.20355 6.02116 6.83974L5.29371 3.34711C5.22096 2.91053 5.07547 0.727632 5.22096 0.436579L5.80292 0.363816C6.74861 1.81908 7.18508 4.1475 7.25782 5.89382C7.25782 6.47592 7.11233 7.56737 7.18508 8.73158C7.18508 9.16816 7.25782 9.6775 7.33057 10.1141C7.40331 10.6234 7.69429 10.9872 7.5488 11.4966C7.18508 11.2055 6.67586 9.45921 6.45763 8.94987ZM10.1676 15.062C10.3131 14.4071 10.7496 13.5339 10.8223 12.8791C10.8951 11.6421 10.3131 10.0413 10.0949 8.94987L9.51292 6.9125C9.36743 6.33039 9.0037 5.60276 8.78547 5.02066C8.349 3.92921 7.69429 1.96461 6.74861 1.23697C6.74861 1.60079 7.18508 2.83776 7.25782 3.27434C7.40331 3.92921 7.5488 4.51132 7.69429 5.23895C7.91253 6.54868 7.83978 7.93118 8.05802 9.24092C8.20351 9.89579 8.349 10.6234 8.42174 11.2783C8.56723 13.0974 8.49449 11.6421 8.49449 13.3157C8.49449 13.7522 8.42174 13.8978 8.56723 14.3343C8.78547 14.9892 9.29468 16.8083 9.65841 17.2449C9.87664 16.7355 10.0949 15.6441 10.1676 15.062ZM5.14822 0.0727632C4.56626 0.0727632 4.27528 0.218289 3.76606 0.582105C2.16567 1.81908 1.7292 5.16618 1.14724 6.76697C0.929005 7.42184 0.71077 7.56737 0.638025 8.36776C0.56528 8.94987 0.56528 9.24092 0.492535 9.82303C-0.089425 13.3157 -0.234915 18.118 0.492535 21.6107C0.929005 23.648 1.87469 25.3216 2.89312 27.0679C3.91155 28.8142 6.45763 31.0699 8.20351 31.8703C8.78547 32.0886 9.29468 32.3796 9.8039 32.6707C12.4955 33.9804 13.5139 32.8162 14.1686 34.1259C14.6778 35.1446 14.6778 35.8722 14.896 36.9637C15.0415 37.8368 15.478 38.8555 15.769 39.7287C15.9872 40.5291 16.351 42.1299 17.2239 42.3482C18.7515 42.6392 17.8059 40.7474 17.5876 40.0925C16.8602 38.2007 16.4237 36.3816 15.8417 34.4897C14.9688 31.652 15.3325 31.3609 15.9872 28.5959C17.6604 21.3924 16.2055 18.0453 12.4227 11.5693C11.4043 9.82303 10.5313 8.00395 9.58566 6.18487C8.49449 4.07474 8.56723 2.61947 6.67586 0.800395C6.02116 0.0727632 6.0939 0.0727632 5.14822 0.0727632ZM84.5858 84.0414C86.3317 83.8959 87.8593 83.3138 89.6779 83.2411C89.3142 83.6776 88.8777 83.8959 88.514 84.3325C88.223 84.6236 87.7866 85.1329 87.4228 85.3512C83.4219 88.6255 80.5848 85.1329 80.2211 82.8772C81.385 82.5862 82.6217 84.187 84.5858 84.0414ZM84.1493 93.7189C83.4946 96.6295 83.7856 94.01 83.7856 96.9933L82.9854 97.4299C82.8399 95.9018 83.2764 90.5174 85.3132 90.7357C84.8768 91.6816 84.5858 91.8271 84.1493 93.7189ZM82.5489 94.4466C82.9127 92.7003 83.4946 91.7543 83.5674 91.245L82.9127 91.4633C82.4034 92.773 81.8942 93.8645 81.676 95.4653C81.5305 96.4112 80.9485 99.0307 81.0213 99.7583C82.0397 99.2489 81.4578 98.8124 82.4034 98.012C82.1852 96.8478 82.3307 95.6108 82.5489 94.4466ZM79.5664 95.538C79.3481 96.4112 78.8389 99.7583 79.1299 100.486L80.2211 100.195C80.5848 98.8851 80.7303 97.3571 81.0213 95.9746C81.1668 95.1742 81.2395 94.6649 81.4577 93.8645C81.6032 93.2824 82.0397 92.2637 82.1125 91.8271C80.4393 91.3178 79.8574 94.3011 79.5664 95.538ZM79.4209 94.01C79.5664 93.4279 80.2211 92.3364 80.1483 91.9726C77.8932 92.5547 77.675 97.2843 77.4568 99.54C77.384 100.704 77.0203 101.286 76.8748 102.232C77.4568 101.65 77.6023 101.214 78.4025 100.777C78.6207 97.7209 78.6207 96.8478 79.4209 94.01ZM76.5111 94.8104C76.0746 96.0474 76.1474 96.8478 76.0019 98.1575C75.6381 101.214 73.7468 103.033 74.4015 104.561C76.0746 103.688 76.8748 100.486 76.9476 98.5941C77.0203 96.4112 77.5295 94.1555 78.548 92.3364C77.8932 92.482 76.7293 94.0828 76.5111 94.8104ZM76.2201 94.1555C75.4927 95.7563 75.6381 97.5754 75.3472 98.9579C74.9107 101.141 73.1648 103.396 73.8195 104.852C71.6372 105.798 72.4374 103.251 73.2376 101.65C73.8923 100.486 74.0378 99.9766 74.547 98.7396C75.0562 97.5026 74.9107 93.4279 77.0203 92.9185C76.8748 93.2824 76.4383 93.719 76.2201 94.1555ZM69.8186 105.434C69.0183 103.688 72.0009 100.85 72.8738 99.3217C74.1105 96.9933 74.1105 95.3197 74.4742 94.5193C74.838 93.719 74.547 93.4279 75.5654 93.4279C75.1289 94.0828 75.1289 93.8645 74.838 94.6649C74.6197 95.247 74.547 95.4653 74.4742 96.1201C74.4015 97.7937 73.8923 99.0307 73.3103 100.413C72.8738 101.359 71.7099 102.96 71.7099 104.561L69.8186 105.434ZM58.6158 88.1889C58.1066 88.8438 58.1066 88.771 57.3064 89.1349C57.5974 89.5714 59.125 91.0267 59.6342 91.536C63.4897 95.3197 65.9631 93.2096 69.6731 92.5547C73.3831 91.9726 74.9107 90.5174 77.8205 89.9353C80.6576 89.3532 82.8399 89.6442 85.3132 87.6068C84.5858 87.6068 84.0038 87.8979 83.1309 87.6068C82.5489 87.4613 81.676 87.0975 81.2395 86.8792C80.4393 86.4426 78.6934 84.2597 78.548 83.3138C78.4752 82.7317 78.548 82.7317 77.3113 81.8586C76.6566 81.422 76.1474 81.2037 75.3472 81.2764C73.0193 81.422 74.1833 83.4593 71.3462 83.4593C70.0368 83.4593 70.255 83.0955 69.3821 82.8772C66.7633 82.2224 67.7089 84.7691 65.4538 84.478C64.7264 84.4053 64.1444 83.8232 63.7807 83.1683C62.9805 81.6403 61.0164 81.5675 59.8525 82.8045C59.1978 83.4593 58.9795 83.8232 58.0339 84.187C57.1609 84.478 56.4335 84.6963 56.0697 85.6422C56.6517 86.5154 58.1066 86.5154 58.6158 88.1889ZM55.3423 93.8645C53.3782 92.7003 51.2686 91.3905 48.9407 92.0454C51.705 90.5901 53.0144 89.3532 55.997 92.0454C57.0882 93.0641 59.5615 96.2657 61.6711 95.9746C59.416 96.8478 57.0882 94.9559 55.3423 93.8645ZM68.7274 94.6649C64.0717 96.6295 63.5625 100.122 57.4519 98.5941C55.1968 98.012 53.5237 96.5567 49.8864 99.0307C49.159 99.54 49.0862 101.65 50.1046 102.378C50.9048 102.887 51.4141 102.523 51.8505 102.742C52.578 103.178 52.869 105.725 56.579 104.997C57.5246 104.779 57.5246 105.143 58.1793 105.725C58.6886 106.161 59.1978 106.307 59.6342 106.671C61.4529 108.053 62.835 108.999 64.6536 107.18C65.0174 106.816 65.7448 106.234 65.8176 105.798C66.1813 104.415 66.545 103.979 67.7817 102.814C68.6546 102.014 69.5276 100.995 70.3278 100.122C71.4917 98.8124 72.1464 97.066 72.4374 95.3197C72.5829 94.5921 72.8738 94.1555 73.0193 93.6462C72.1464 93.6462 69.5276 94.3738 68.7274 94.6649ZM96.1522 83.0228C94.6246 82.95 91.3511 83.3866 90.0417 84.187C87.3501 85.9333 85.386 89.9353 79.6391 90.1535C76.9476 90.2263 75.4199 91.245 73.0193 92.1909C69.0183 93.6462 68.8001 91.9726 64.2172 95.7563C63.4897 96.3384 62.2531 96.9933 61.3801 97.3571C59.125 98.4486 57.8884 97.5026 55.706 97.1388C53.8874 96.8478 51.2686 96.775 50.0319 98.4486C50.8321 98.3758 53.0144 96.3384 55.7788 97.5026C60.9436 99.6855 62.0348 98.5941 66.3995 95.4653C68.4364 94.0828 70.0368 93.719 72.4374 93.2824C73.4558 93.1368 74.4742 93.0641 75.4927 92.8458C76.5838 92.6275 77.7478 91.8999 78.9117 91.6088C81.094 91.0267 82.1125 91.3178 85.3132 90.008C88.223 88.8438 90.3326 86.5154 94.4064 86.8792C94.9883 86.952 95.2066 87.243 95.643 87.1703C95.8613 87.1703 97.0252 86.952 97.1707 86.8792C97.0252 86.5154 96.3705 83.4593 96.1522 83.0228ZM55.2695 105.725C56.3607 105.725 56.7244 105.216 57.5246 106.089C57.9611 106.525 58.9068 106.962 59.4888 107.398C60.7982 108.344 62.2531 109.29 63.8535 108.563C65.6721 107.762 65.0901 106.161 68.0727 106.161C69.0911 106.161 69.6731 106.307 70.6187 105.87C72.3646 105.143 71.4917 105.652 73.0193 105.579C74.6925 105.579 76.5838 104.706 77.1658 103.105C78.1115 100.559 79.3481 101.577 81.094 100.486C82.6217 99.54 81.7487 99.4672 82.4762 98.6668C83.0581 98.012 84.0766 97.6482 84.6585 97.1388C84.7313 95.9018 84.3676 96.0474 85.5315 94.8832C86.1862 94.2283 87.2774 93.7917 88.0775 93.2824C90.1871 92.0454 88.0775 91.7543 91.6421 89.4987C95.2793 87.243 96.4432 88.1889 97.4616 87.6068C98.3346 87.0975 97.4617 85.6422 97.3162 84.8418C97.1707 83.8959 97.0979 82.659 96.7342 81.7858C94.4791 80.9126 93.097 81.5675 90.9146 82.2951C89.7507 82.7317 85.9679 83.4593 84.7313 83.5321C83.9311 83.6049 82.9127 83.2411 82.2579 82.8045C80.7303 81.9313 81.1668 82.2224 79.5664 82.4407C78.548 82.5862 77.4568 79.9667 74.6197 80.9126C72.8011 81.4947 73.5285 83.0955 71.0552 82.8772C70.546 82.8045 70.3278 82.5862 69.8913 82.3679C68.9456 82.0768 67.9999 82.0768 67.3452 82.8045C66.7633 83.3866 66.1813 84.4053 65.0901 83.6776C64.2172 83.0955 64.3627 82.0041 63.1987 81.5675C60.5799 80.6216 59.416 83.0955 58.0339 83.6776C52.7235 85.7878 58.3976 86.8064 58.1066 88.1889C57.4519 89.2076 56.8699 88.6255 56.1425 88.1162C55.1968 87.4613 55.415 87.8251 54.2511 87.0247C50.8321 87.7524 53.0872 89.2076 50.4684 90.8084C49.0862 91.6816 46.6129 92.6275 46.9766 94.7376C47.4858 97.6482 50.1046 96.9933 49.159 99.6128C48.868 100.486 48.7952 101.577 49.3045 102.378C49.8137 103.178 50.9048 103.105 51.705 103.396C52.5052 104.561 53.5964 105.798 55.2695 105.725ZM102.045 75.0916C100.517 75.0916 100.953 76.0375 100.517 76.183C99.2803 74.4367 102.99 74.2912 103.936 74.5822C104.809 74.8733 104.518 75.1643 104.081 75.6009C103.718 74.7278 103.136 75.0916 102.045 75.0916ZM84.8768 71.89C84.804 72.0355 84.7313 72.1811 84.5858 72.3993C84.4403 72.7632 84.2221 73.0542 84.1493 73.418C83.9311 74.0729 83.6401 74.8733 83.3491 75.5282L82.9127 75.3826C82.7672 74.8005 83.4219 73.7818 83.7128 73.2725C83.9311 72.9087 84.6585 71.5989 85.0223 71.5262C85.1677 71.5989 85.0223 71.5989 84.8768 71.89ZM86.9136 74.8733C87.0591 76.183 86.6954 75.7464 86.5499 75.3826C86.2589 74.3639 85.8224 73.7818 86.1862 72.5449C86.3317 71.9628 87.2774 70.7258 87.7866 70.5075C87.3501 71.89 86.6954 73.1997 86.9136 74.8733ZM89.8962 71.0168C89.7507 71.1624 89.6052 71.4534 89.4597 71.4534C89.5324 71.0896 89.8234 70.5803 90.1872 70.4347C90.1144 70.5803 89.9689 70.8713 89.8962 71.0168ZM89.6052 72.1811C89.096 73.1997 88.9505 74.2912 89.4597 75.3099C90.5509 75.1643 90.1872 75.0916 90.1872 74.3639C90.1872 73.8546 90.1871 73.1997 90.2599 72.6904C90.3326 72.2538 91.1328 70.2164 91.4238 69.9254C90.6964 70.1437 89.8962 71.5989 89.6052 72.1811ZM92.2968 70.2164C92.1513 70.5803 91.7875 71.0896 91.7148 71.3807C91.5693 71.89 91.4238 72.3993 91.3511 72.9087C91.2783 73.3453 91.2783 73.2725 91.3511 73.7091C91.4238 74.2912 91.5693 74.0729 91.7148 74.3639L90.7691 74.8733C90.5509 74.5095 90.6236 73.418 90.6964 72.9814C90.7691 72.3993 90.9874 71.9628 91.2056 71.4534C91.4966 70.7985 92.3695 69.0522 93.2424 69.2705C92.9515 69.7071 92.515 69.7799 92.2968 70.2164ZM88.2958 70.653C87.7866 71.5262 86.7681 74.8733 87.4956 75.6009C88.223 75.892 88.0775 75.4554 87.9321 75.0188C87.6411 74.3639 87.7866 74.2912 87.7866 73.5636C87.7866 72.3993 87.7866 72.3266 88.4413 71.2351C88.805 70.5803 89.3142 69.9254 89.9689 69.5616C90.4781 69.2705 92.0058 68.6157 92.1513 68.4701C90.0417 68.6157 89.5324 68.6884 88.2958 70.653ZM88.6595 68.8339C88.2958 69.0522 88.0775 69.3433 87.7138 69.5616C86.9136 70.1437 86.6227 70.5075 86.0407 71.1624C85.386 71.8172 83.9311 74.7278 84.0038 75.6009L86.0407 75.6737C85.9679 75.0916 85.5315 75.0188 85.677 73.3453C85.7497 72.3266 85.8224 71.9628 86.5499 71.1624C86.8409 70.7985 87.7138 69.9982 88.0775 69.6343C88.3685 69.416 89.6779 68.4701 89.7507 68.2518C89.6779 68.2518 88.6595 68.8339 88.6595 68.8339ZM87.0591 67.4514C85.8224 67.8153 84.7313 67.9608 83.5674 68.6884C80.5848 70.4347 81.4577 69.9982 79.9301 72.0355C79.7846 72.2538 79.7119 72.6176 79.6391 72.9087C79.6391 73.3453 79.7119 73.418 79.4936 73.8546L81.385 74.8005C80.8758 74.2912 81.1668 73.8546 81.385 73.1997C82.0397 71.5262 82.8399 70.653 84.3676 69.4888C85.2405 68.9067 86.3317 68.3246 87.3501 68.0336C87.7866 67.888 90.8419 67.2332 90.8419 67.0876C90.5509 66.8693 87.6411 67.2332 87.0591 67.4514ZM102.481 73.7091C103.499 73.6363 104.227 73.8546 104.954 74.3639C103.063 70.5803 102.19 68.3246 98.4073 66.2145C96.9524 65.4141 95.1338 65.3413 94.6246 65.123C94.2609 64.9775 93.4607 65.4141 93.1697 65.7051C92.7332 66.0689 92.7332 66.9421 92.7332 67.5242C92.7332 68.4701 93.3152 68.0335 94.2609 68.2518C94.6246 68.3246 95.7158 68.7612 96.0068 68.9795C96.8797 69.5616 98.0436 70.362 98.6983 71.2351C98.9893 71.6717 99.353 72.3266 99.5713 72.7632C99.935 73.4908 99.935 74.0001 100.153 74.5822C100.881 74.3639 100.371 73.8546 102.481 73.7091ZM87.2046 66.2872C86.6227 66.4328 85.6042 66.6511 85.0223 66.8693C84.3676 67.1604 83.7128 67.5242 83.0581 67.7425C82.2579 68.0336 80.2211 69.4888 79.7119 70.1437C77.5295 72.9814 78.4752 72.6176 79.3481 73.4908C79.4209 72.6176 79.2027 72.3266 79.8574 71.5989C80.1483 71.2351 80.5121 70.4347 80.8758 70.0709C81.5305 69.416 83.0581 68.5429 83.8583 68.1063C84.6585 67.597 86.6954 67.2332 87.6411 66.9421C88.2958 66.7966 89.1687 66.7966 89.8962 66.7238C90.6964 66.651 91.6421 66.9421 92.1513 66.7966C91.5693 66.1417 88.0048 66.0689 87.2046 66.2872ZM80.7303 67.8153C80.3666 68.0335 77.384 69.6343 77.384 69.7799C77.2385 70.1437 77.5295 71.6717 77.8932 71.89C78.1842 71.6717 79.1299 69.7799 80.7303 68.6157C81.3123 68.1791 84.6585 66.4328 84.6585 66.4328C82.9127 66.9421 83.0581 66.4328 80.7303 67.8153ZM86.3317 65.7779C84.7313 66.1417 82.9127 66.0689 81.385 66.9421C80.9485 67.2332 77.675 68.9795 77.4568 68.9795C76.7293 66.651 85.4587 65.1958 86.3317 65.7779ZM91.8603 66.2145L90.6964 65.9234C90.5509 65.9234 90.5509 65.9234 90.3326 65.8507L89.6779 65.5596C90.1872 65.5596 90.8419 65.7051 91.2783 65.7779C91.7148 65.8507 92.3695 65.8507 92.6605 66.0689C92.515 66.5055 92.224 66.2872 91.8603 66.2145ZM79.7119 66.2872C79.4936 66.36 78.7662 66.7966 78.548 66.7238C78.548 66.5055 78.9844 66.1417 79.1299 66.0689C79.3481 65.8507 79.7119 65.7051 79.8574 65.4868C81.1668 65.3413 82.3307 65.3413 83.7128 65.3413C83.6401 65.3413 80.4393 66.0689 79.7119 66.2872ZM80.4393 64.9047C80.7303 64.6864 81.0213 64.5409 81.3123 64.2499C81.7487 63.886 81.5305 63.5222 81.8942 63.3039C82.1852 63.5222 82.6217 63.9588 82.9127 64.1771C83.3491 64.4682 83.8583 64.6137 84.1493 64.832L80.4393 64.9047ZM100.08 63.8133C99.4985 64.0316 98.3346 64.3226 97.6799 64.4682C97.1707 64.5409 95.643 65.2685 95.3521 64.5409C95.7158 64.1043 99.2075 63.1584 99.935 63.0129L100.08 63.8133ZM99.7168 62.2853C99.644 62.2853 99.644 62.2853 99.5713 62.2853C99.353 62.2125 99.4985 62.2853 99.4258 62.1397C99.644 61.9942 99.7168 62.067 99.7168 62.2853ZM82.4034 62.6491C82.4034 62.5763 82.4034 62.5763 82.4034 62.6491C81.8942 62.1397 81.967 61.9942 81.8215 61.8487C81.8215 63.0129 82.1124 62.8674 83.0581 63.6678C83.4219 64.0316 84.6585 64.6137 85.1677 64.6864C84.6585 64.2499 83.7128 63.9588 82.4034 62.6491ZM98.6256 60.5389C98.4073 60.6117 97.6799 61.2666 97.4616 61.4121C97.0979 61.7032 95.4248 62.9401 95.4248 63.3039L99.4258 61.6304C99.4258 61.3393 98.9166 60.3934 98.6256 60.5389ZM97.9709 59.593C97.4616 59.6658 96.0068 61.0483 95.643 61.4121C95.2793 61.7759 94.9883 62.1397 94.6973 62.5763C94.1154 63.3767 94.3336 63.0857 94.0426 63.886C94.4791 63.4495 95.643 62.2125 96.0795 61.9214C96.4432 61.7032 96.8797 61.3393 97.1707 61.0483C97.4617 60.7572 98.1891 60.3207 98.3346 60.1751L97.9709 59.593ZM88.0775 64.832C87.6411 64.6137 87.4228 64.3954 86.9864 64.1043C86.0407 63.4495 85.8224 63.3039 85.1677 62.2853C84.9495 61.9214 84.6585 61.5576 84.4403 61.1938C84.2221 60.7572 83.2764 57.7739 83.0581 57.1918C82.4762 57.4101 81.5305 58.6471 81.4577 59.2292C81.7487 59.8841 84.0038 62.358 84.5858 63.0857C85.4587 64.1771 87.9321 65.123 89.2415 65.4141C89.1687 65.4141 88.2958 64.9775 88.0775 64.832ZM93.7516 62.4308C93.6789 62.5763 93.6789 62.7218 93.6062 62.8674C93.4607 63.1584 93.4607 62.9401 93.3152 63.1584C93.2424 63.2312 93.3152 63.8133 93.6789 63.1584C93.8971 62.7946 95.3521 61.0483 95.7158 60.7572C96.0795 60.4662 96.516 60.1024 96.8797 59.7386C97.0979 59.5203 97.5344 59.4475 97.5344 59.302C97.5344 59.1564 96.9524 58.9382 96.8069 58.9382C96.2977 58.8654 94.8428 60.6117 94.5518 61.0483C94.3336 61.4121 93.9699 61.9942 93.7516 62.4308ZM96.2977 58.7199C96.225 58.8654 95.643 59.2292 95.4975 59.3747C95.2793 59.593 94.9883 59.8841 94.7701 60.1024L93.5334 61.7759C93.6062 61.4121 93.7517 61.1211 93.8971 60.7572C94.0426 60.3934 94.0426 60.6117 94.1154 60.3934C94.1881 60.2479 94.1881 60.0296 94.3336 59.8841C94.4064 59.7385 94.4791 59.6658 94.5518 59.4475L95.1338 58.5743C95.2793 58.5016 95.352 58.3561 95.4975 58.2105L96.2977 58.7199ZM93.3152 59.8113C93.7517 59.1564 93.9699 58.2105 94.6973 57.7739L95.0611 58.065C94.9883 58.2105 94.5518 58.7199 94.4064 59.0109C94.2609 59.2292 93.9699 59.8113 93.8244 60.0296C93.5334 60.3934 92.806 62.2853 92.806 62.2853C92.3695 62.1397 93.0242 60.2479 93.3152 59.8113ZM94.0426 57.1191C93.8971 57.1918 93.8244 57.2646 93.6789 57.2646C93.6789 57.1191 93.8244 56.9008 93.8971 56.9008L94.0426 57.1191ZM88.0048 56.6825C88.1503 56.828 88.223 56.9008 88.1503 57.0463C87.8593 57.1191 87.9321 56.828 88.0048 56.6825ZM87.0591 62.7946C87.5683 63.4495 89.096 64.3226 89.8234 64.6864C91.6421 65.5596 92.0785 65.2686 92.5877 65.4141C92.9515 65.4868 92.9515 65.7051 92.4422 65.5596C91.1328 65.2685 89.8962 65.3413 88.6595 64.7592C87.9321 64.3954 86.4044 63.4495 85.8952 62.7946C85.6042 62.4308 85.2405 61.7759 84.9495 61.3393C84.513 60.6845 84.5858 60.3207 84.2948 59.6658C84.0038 59.0837 82.8399 56.537 84.0038 56.4642C84.0766 59.1564 85.4587 60.9755 87.0591 62.7946ZM92.5877 55.8093C94.0426 56.4642 93.4607 56.537 92.8787 57.5557C92.6605 57.9195 91.7875 59.8841 91.7875 59.8841C91.7148 59.7385 91.933 56.537 92.5877 55.8093ZM89.4597 64.1043C88.4413 63.5222 87.5683 62.6491 86.7681 61.8487C85.7497 60.83 85.4587 59.9568 84.9495 58.6471C84.7313 57.9922 84.6585 57.3374 84.5858 56.6825C84.513 56.2459 84.3676 56.1732 84.7313 56.0276C84.9495 55.8821 85.386 55.5911 85.5315 55.6638C85.6042 55.8093 85.7497 57.2646 85.8224 57.5557C85.8952 57.9195 86.2589 58.7199 86.4044 59.0837C87.6411 61.3393 88.514 62.2125 90.4781 63.595C90.8419 63.8133 93.1697 64.9047 93.1697 65.0503C92.7332 65.3413 90.0417 64.4682 89.4597 64.1043ZM91.4238 58.5016C91.4966 58.1378 91.4966 57.5557 91.6421 57.1918C91.7148 56.9008 91.8603 56.1732 92.0058 55.9549C92.2968 55.3728 92.515 55.5911 91.6421 55.2272C90.2599 54.6451 90.6236 59.593 91.3511 60.0296C91.3511 59.8113 91.2783 59.0837 91.4238 58.5016ZM89.1687 61.0483C89.387 61.3393 90.9146 62.7218 91.2783 63.0129C91.6421 63.3039 93.6789 64.4682 93.7516 64.6137C93.2424 64.6864 91.2056 63.6678 90.6964 63.3767C89.8962 62.9401 88.9505 62.067 88.3685 61.4121C87.8593 60.7572 86.9864 59.5203 86.6954 58.7926C86.4044 58.1378 86.2589 57.8467 86.1862 57.1191C86.1862 57.0463 86.0407 55.591 86.0407 55.4455L86.9864 55.2272C86.5499 56.7553 88.3685 59.8113 89.1687 61.0483ZM89.4597 55.3728C89.5324 55.1545 89.5324 54.9362 89.8234 54.8634C90.0417 54.8634 90.4781 54.9362 90.6236 55.0089C89.387 58.2833 90.9146 59.6658 91.5693 61.7032C91.7875 62.4308 92.5877 62.7218 92.8787 63.3039C92.6605 63.2312 91.3511 62.067 90.9874 61.7759C90.4781 61.4121 89.8962 60.1751 89.6779 59.593C89.387 58.3561 89.0232 56.6825 89.4597 55.3728ZM100.662 66.7966C101.972 66.2872 101.681 63.595 101.317 62.5763C101.026 61.7032 99.7168 59.6658 98.9893 59.0837C95.934 56.6097 96.0068 55.8821 92.2968 53.9903C88.5868 52.1712 87.2046 52.0984 83.7128 54.2086C82.2579 55.0817 81.676 55.7366 80.7303 57.1191C79.4936 59.0109 79.9301 59.9568 79.7846 61.8487C79.6391 64.4682 78.7662 63.8861 77.675 65.4141C76.8021 66.5783 76.2929 68.4701 76.2929 69.8526C76.2929 71.5262 76.6566 72.8359 77.8932 74.0001C78.3297 74.4367 79.0572 74.8733 79.5664 75.3099C80.3666 75.9647 80.6576 75.892 81.676 76.0375C83.4946 76.2558 85.1677 76.6924 86.9864 76.4013C88.2958 76.183 90.6236 75.892 91.7148 75.2371C92.3695 74.8733 93.0242 74.5095 93.7516 74.3639C94.5518 74.2184 95.4248 74.2184 96.0795 73.7091C97.3889 72.6176 97.9709 71.3807 96.3705 70.2892C95.7158 74.8005 93.7517 73.3453 92.4422 74.2184C91.8603 74.655 91.4238 74.8733 90.7691 75.2371C88.514 76.4741 84.513 76.2558 82.1125 75.5282C79.7119 74.7278 77.0203 72.9087 76.8748 70.0709C76.8021 68.6884 77.4568 67.2332 78.3297 66.2145C78.9117 65.5596 80.803 64.1771 81.094 63.6678C81.5305 62.9401 80.9485 60.5389 81.094 59.302C81.1668 58.1378 82.5489 56.9736 83.4219 56.3187C84.6585 55.3728 85.5315 55.0089 87.1319 54.7179C89.2415 54.2813 89.4597 54.2086 91.4966 54.8634C92.8787 55.3 93.7517 56.0276 94.5518 57.1191C95.352 58.2833 97.0979 58.1378 97.9709 58.9382C98.7711 59.7386 99.7168 61.0483 100.08 62.1397C100.444 63.3039 100.881 65.4141 99.8622 66.36L100.662 66.7966ZM101.681 62.5763C101.39 61.5576 100.08 59.593 99.2803 58.9382C96.2977 56.537 96.3705 55.5183 92.4422 53.6264C88.5868 51.8074 86.9864 51.7346 83.3491 53.9903C80.8758 55.5183 78.6207 58.5016 78.7662 61.4849C78.8389 63.8861 78.3297 63.8133 77.0203 65.5596C76.0019 67.0149 75.8564 68.3974 75.7836 70.0709C75.7109 71.9628 76.1474 73.0542 77.5295 74.2912C78.6207 75.3099 79.7846 76.183 81.2395 76.6924C84.4403 77.7111 87.8593 78.1476 91.1328 77.2745C92.3695 76.9834 94.2609 76.0375 95.3521 75.4554C97.6071 74.2184 96.8069 74.0001 97.9709 72.1811C99.2075 73.1997 98.9893 76.4013 99.935 77.0562C100.953 77.7111 101.608 77.5655 102.772 77.2745C103.354 77.1289 104.663 76.5468 105.1 76.183C106.337 75.0916 104.591 72.4721 104.009 71.3079C103.427 70.2164 102.045 68.0336 101.026 67.3787C102.19 65.6324 102.336 64.5409 101.681 62.5763Z" fill="#A1817F"/>
</svg>
