<svg width="218" height="12" viewBox="0 0 218 12" fill="none" xmlns="http://www.w3.org/2000/svg">
<path d="M17.6488 0H4.42184C4.2281 0 4.06959 0.167028 4.06959 0.371172V2.67615L2.75569 4.79926L0.254712 5.59728C0.141992 5.6344 0.0539293 5.72719 0.0187043 5.84225C-0.0165208 5.96103 0.00813677 6.08723 0.0821094 6.18373L1.7236 8.32911L1.67076 11.0832C1.66724 11.2057 1.7236 11.3245 1.8187 11.395C1.87859 11.4395 1.94904 11.4618 2.02301 11.4618C2.06528 11.4618 2.10755 11.4544 2.14982 11.4358L4.59092 10.4559L7.06019 11.3579C7.16939 11.3987 7.29268 11.3764 7.38779 11.3059C7.48289 11.2317 7.53573 11.1129 7.52869 10.9904L7.44767 9.31643H11.4528L15.951 11.9517C16.0038 11.9814 16.0637 12 16.1236 12C16.2081 12 16.2892 11.9703 16.3561 11.9072C16.4688 11.8033 16.5076 11.6363 16.4512 11.4915L15.6269 9.32014H17.6488C17.8426 9.32014 18.0011 9.15311 18.0011 8.94897V0.371172C18.0011 0.167028 17.8426 0 17.6488 0ZM4.69659 9.71358C4.6191 9.68389 4.53456 9.6876 4.45706 9.71729L2.38231 10.5524L2.42458 8.21404C2.42458 8.12496 2.39992 8.0433 2.34708 7.97278L0.955691 6.15404L3.07976 5.47479C3.16078 5.44881 3.22771 5.39685 3.2735 5.32261L4.48524 3.36282L5.75334 5.28178C5.79914 5.3523 5.86959 5.40427 5.9506 5.42654L8.09229 6.03526L6.75373 7.89855C6.70442 7.96907 6.67976 8.05444 6.68328 8.13981L6.796 10.4745L4.69659 9.71358ZM17.2966 8.57779H15.1056C14.9894 8.57779 14.8802 8.63718 14.8132 8.74111C14.7463 8.84132 14.7357 8.97124 14.778 9.0863L15.4261 10.7974L11.7134 8.62604C11.6606 8.59635 11.6007 8.57779 11.5408 8.57779H7.40892L7.39131 8.24374L8.96939 6.05011C9.03984 5.94989 9.06098 5.82369 9.02223 5.70492C8.98348 5.58614 8.89542 5.49706 8.77917 5.46737L6.25706 4.74729L4.77056 2.49799V0.742345H17.2966V8.57779ZM8.2508 3.06959H13.1189C13.3126 3.06959 13.4712 2.90257 13.4712 2.69842C13.4712 2.49428 13.3126 2.32725 13.1189 2.32725H8.2508C8.05706 2.32725 7.89855 2.49428 7.89855 2.69842C7.89855 2.90257 8.05706 3.06959 8.2508 3.06959ZM8.2508 4.81039H15.2782C15.4719 4.81039 15.6304 4.64337 15.6304 4.43922C15.6304 4.23508 15.4719 4.06805 15.2782 4.06805H8.2508C8.05706 4.06805 7.89855 4.23508 7.89855 4.43922C7.89855 4.64337 8.05706 4.81039 8.2508 4.81039ZM11.7663 5.94247C11.5725 5.94247 11.414 6.1095 11.414 6.31364C11.414 6.51779 11.5725 6.68481 11.7663 6.68481H15.4226C15.6164 6.68481 15.7749 6.51779 15.7749 6.31364C15.7749 6.1095 15.6164 5.94247 15.4226 5.94247H11.7663ZM10.3326 5.94247C10.241 5.94247 10.1494 5.9833 10.0825 6.05011C10.0156 6.12063 9.98035 6.21342 9.98035 6.31364C9.98035 6.41386 10.0191 6.50665 10.0825 6.57717C10.1494 6.6477 10.2375 6.68481 10.3326 6.68481C10.4242 6.68481 10.5158 6.64398 10.5827 6.57717C10.6496 6.50665 10.6848 6.41386 10.6848 6.31364C10.6848 6.21342 10.6461 6.12063 10.5827 6.05011C10.5158 5.9833 10.4242 5.94247 10.3326 5.94247ZM5.40109 7.70183C5.30951 7.70183 5.21792 7.74265 5.15099 7.80947C5.08407 7.87999 5.04884 7.97278 5.04884 8.073C5.04884 8.1695 5.08759 8.26601 5.15099 8.33653C5.21792 8.40705 5.30598 8.44417 5.40109 8.44417C5.49268 8.44417 5.58426 8.40334 5.65119 8.33653C5.71812 8.26601 5.75334 8.17321 5.75334 8.073C5.75334 7.97649 5.7146 7.87999 5.65119 7.80947C5.58426 7.74265 5.49268 7.70183 5.40109 7.70183ZM5.75334 6.57717C5.75334 6.37303 5.59483 6.206 5.40109 6.206H3.43906C3.24532 6.206 3.08681 6.37303 3.08681 6.57717C3.08681 6.78132 3.24532 6.94835 3.43906 6.94835H5.40109C5.59483 6.94835 5.75334 6.78132 5.75334 6.57717ZM3.88994 7.72038H3.43906C3.24532 7.72038 3.08681 7.88741 3.08681 8.09156C3.08681 8.2957 3.24532 8.46273 3.43906 8.46273H3.88994C4.08368 8.46273 4.24219 8.2957 4.24219 8.09156C4.24219 7.88741 4.0872 7.72038 3.88994 7.72038Z" fill="#554045"/>
<path d="M67.646 0H54.419C54.2252 0 54.0667 0.167028 54.0667 0.371172V2.67615L52.7528 4.79926L50.2518 5.59728C50.1391 5.6344 50.051 5.72719 50.0158 5.84225C49.9806 5.96103 50.0053 6.08723 50.0792 6.18373L51.7207 8.32911L51.6679 11.0832C51.6644 11.2057 51.7207 11.3245 51.8158 11.395C51.8757 11.4395 51.9462 11.4618 52.0201 11.4618C52.0624 11.4618 52.1047 11.4544 52.1469 11.4358L54.588 10.4559L57.0573 11.3579C57.1665 11.3987 57.2898 11.3764 57.3849 11.3059C57.48 11.2317 57.5328 11.1129 57.5258 10.9904L57.4448 9.31643H61.4499L65.9481 11.9517C66.0009 11.9814 66.0608 12 66.1207 12C66.2053 12 66.2863 11.9703 66.3532 11.9072C66.4659 11.8033 66.5047 11.6363 66.4483 11.4915L65.624 9.32014H67.646C67.8397 9.32014 67.9982 9.15311 67.9982 8.94897V0.371172C67.9982 0.167028 67.8397 0 67.646 0ZM54.6937 9.71358C54.6162 9.68389 54.5317 9.6876 54.4542 9.71729L52.3794 10.5524L52.4217 8.21404C52.4217 8.12496 52.397 8.0433 52.3442 7.97278L50.9528 6.15404L53.0769 5.47479C53.1579 5.44881 53.2248 5.39685 53.2706 5.32261L54.4824 3.36282L55.7505 5.28178C55.7963 5.3523 55.8667 5.40427 55.9477 5.42654L58.0894 6.03526L56.7509 7.89855C56.7015 7.96907 56.6769 8.05444 56.6804 8.13981L56.7931 10.4745L54.6937 9.71358ZM67.2937 8.57779H65.1027C64.9865 8.57779 64.8773 8.63718 64.8103 8.74111C64.7434 8.84132 64.7328 8.97124 64.7751 9.0863L65.4233 10.7974L61.7105 8.62604C61.6577 8.59635 61.5978 8.57779 61.5379 8.57779H57.406L57.3884 8.24374L58.9665 6.05011C59.037 5.94989 59.0581 5.82369 59.0193 5.70492C58.9806 5.58614 58.8925 5.49706 58.7763 5.46737L56.2542 4.74729L54.7677 2.49799V0.742345H67.2937V8.57779ZM58.2479 3.06959H63.116C63.3098 3.06959 63.4683 2.90257 63.4683 2.69842C63.4683 2.49428 63.3098 2.32725 63.116 2.32725H58.2479C58.0542 2.32725 57.8957 2.49428 57.8957 2.69842C57.8957 2.90257 58.0542 3.06959 58.2479 3.06959ZM58.2479 4.81039H65.2753C65.4691 4.81039 65.6276 4.64337 65.6276 4.43922C65.6276 4.23508 65.4691 4.06805 65.2753 4.06805H58.2479C58.0542 4.06805 57.8957 4.23508 57.8957 4.43922C57.8957 4.64337 58.0542 4.81039 58.2479 4.81039ZM61.7634 5.94247C61.5696 5.94247 61.4111 6.1095 61.4111 6.31364C61.4111 6.51779 61.5696 6.68481 61.7634 6.68481H65.4197C65.6135 6.68481 65.772 6.51779 65.772 6.31364C65.772 6.1095 65.6135 5.94247 65.4197 5.94247H61.7634ZM60.3297 5.94247C60.2381 5.94247 60.1465 5.9833 60.0796 6.05011C60.0127 6.12063 59.9775 6.21342 59.9775 6.31364C59.9775 6.41386 60.0162 6.50665 60.0796 6.57717C60.1465 6.6477 60.2346 6.68481 60.3297 6.68481C60.4213 6.68481 60.5129 6.64398 60.5798 6.57717C60.6467 6.50665 60.682 6.41386 60.682 6.31364C60.682 6.21342 60.6432 6.12063 60.5798 6.05011C60.5129 5.9833 60.4213 5.94247 60.3297 5.94247ZM55.3982 7.70183C55.3066 7.70183 55.215 7.74265 55.1481 7.80947C55.0812 7.87999 55.046 7.97278 55.046 8.073C55.046 8.1695 55.0847 8.26601 55.1481 8.33653C55.215 8.40705 55.3031 8.44417 55.3982 8.44417C55.4898 8.44417 55.5814 8.40334 55.6483 8.33653C55.7152 8.26601 55.7505 8.17321 55.7505 8.073C55.7505 7.97649 55.7117 7.87999 55.6483 7.80947C55.5814 7.74265 55.4898 7.70183 55.3982 7.70183ZM55.7505 6.57717C55.7505 6.37303 55.5919 6.206 55.3982 6.206H53.4362C53.2424 6.206 53.0839 6.37303 53.0839 6.57717C53.0839 6.78132 53.2424 6.94835 53.4362 6.94835H55.3982C55.5919 6.94835 55.7505 6.78132 55.7505 6.57717ZM53.8871 7.72038H53.4362C53.2424 7.72038 53.0839 7.88741 53.0839 8.09156C53.0839 8.2957 53.2424 8.46273 53.4362 8.46273H53.8871C54.0808 8.46273 54.2393 8.2957 54.2393 8.09156C54.2393 7.88741 54.0843 7.72038 53.8871 7.72038Z" fill="#CA6E55"/>
<path d="M117.646 0H104.419C104.225 0 104.067 0.167028 104.067 0.371172V2.67615L102.753 4.79926L100.252 5.59728C100.139 5.6344 100.051 5.72719 100.016 5.84225C99.9806 5.96103 100.005 6.08723 100.079 6.18373L101.721 8.32911L101.668 11.0832C101.664 11.2057 101.721 11.3245 101.816 11.395C101.876 11.4395 101.946 11.4618 102.02 11.4618C102.062 11.4618 102.105 11.4544 102.147 11.4358L104.588 10.4559L107.057 11.3579C107.167 11.3987 107.29 11.3764 107.385 11.3059C107.48 11.2317 107.533 11.1129 107.526 10.9904L107.445 9.31643H111.45L115.948 11.9517C116.001 11.9814 116.061 12 116.121 12C116.205 12 116.286 11.9703 116.353 11.9072C116.466 11.8033 116.505 11.6363 116.448 11.4915L115.624 9.32014H117.646C117.84 9.32014 117.998 9.15311 117.998 8.94897V0.371172C117.998 0.167028 117.84 0 117.646 0ZM104.694 9.71358C104.616 9.68389 104.532 9.6876 104.454 9.71729L102.379 10.5524L102.422 8.21404C102.422 8.12496 102.397 8.0433 102.344 7.97278L100.953 6.15404L103.077 5.47479C103.158 5.44881 103.225 5.39685 103.271 5.32261L104.482 3.36282L105.75 5.28178C105.796 5.3523 105.867 5.40427 105.948 5.42654L108.089 6.03526L106.751 7.89855C106.702 7.96907 106.677 8.05444 106.68 8.13981L106.793 10.4745L104.694 9.71358ZM117.294 8.57779H115.103C114.986 8.57779 114.877 8.63718 114.81 8.74111C114.743 8.84132 114.733 8.97124 114.775 9.0863L115.423 10.7974L111.711 8.62604C111.658 8.59635 111.598 8.57779 111.538 8.57779H107.406L107.388 8.24374L108.967 6.05011C109.037 5.94989 109.058 5.82369 109.019 5.70492C108.981 5.58614 108.893 5.49706 108.776 5.46737L106.254 4.74729L104.768 2.49799V0.742345H117.294V8.57779ZM108.248 3.06959H113.116C113.31 3.06959 113.468 2.90257 113.468 2.69842C113.468 2.49428 113.31 2.32725 113.116 2.32725H108.248C108.054 2.32725 107.896 2.49428 107.896 2.69842C107.896 2.90257 108.054 3.06959 108.248 3.06959ZM108.248 4.81039H115.275C115.469 4.81039 115.628 4.64337 115.628 4.43922C115.628 4.23508 115.469 4.06805 115.275 4.06805H108.248C108.054 4.06805 107.896 4.23508 107.896 4.43922C107.896 4.64337 108.054 4.81039 108.248 4.81039ZM111.763 5.94247C111.57 5.94247 111.411 6.1095 111.411 6.31364C111.411 6.51779 111.57 6.68481 111.763 6.68481H115.42C115.613 6.68481 115.772 6.51779 115.772 6.31364C115.772 6.1095 115.613 5.94247 115.42 5.94247H111.763ZM110.33 5.94247C110.238 5.94247 110.147 5.9833 110.08 6.05011C110.013 6.12063 109.977 6.21342 109.977 6.31364C109.977 6.41386 110.016 6.50665 110.08 6.57717C110.147 6.6477 110.235 6.68481 110.33 6.68481C110.421 6.68481 110.513 6.64398 110.58 6.57717C110.647 6.50665 110.682 6.41386 110.682 6.31364C110.682 6.21342 110.643 6.12063 110.58 6.05011C110.513 5.9833 110.421 5.94247 110.33 5.94247ZM105.398 7.70183C105.307 7.70183 105.215 7.74265 105.148 7.80947C105.081 7.87999 105.046 7.97278 105.046 8.073C105.046 8.1695 105.085 8.26601 105.148 8.33653C105.215 8.40705 105.303 8.44417 105.398 8.44417C105.49 8.44417 105.581 8.40334 105.648 8.33653C105.715 8.26601 105.75 8.17321 105.75 8.073C105.75 7.97649 105.712 7.87999 105.648 7.80947C105.581 7.74265 105.49 7.70183 105.398 7.70183ZM105.75 6.57717C105.75 6.37303 105.592 6.206 105.398 6.206H103.436C103.242 6.206 103.084 6.37303 103.084 6.57717C103.084 6.78132 103.242 6.94835 103.436 6.94835H105.398C105.592 6.94835 105.75 6.78132 105.75 6.57717ZM103.887 7.72038H103.436C103.242 7.72038 103.084 7.88741 103.084 8.09156C103.084 8.2957 103.242 8.46273 103.436 8.46273H103.887C104.081 8.46273 104.239 8.2957 104.239 8.09156C104.239 7.88741 104.084 7.72038 103.887 7.72038Z" fill="#554045"/>
<path d="M167.646 0H154.419C154.225 0 154.067 0.167028 154.067 0.371172V2.67615L152.753 4.79926L150.252 5.59728C150.139 5.6344 150.051 5.72719 150.016 5.84225C149.981 5.96103 150.005 6.08723 150.079 6.18373L151.721 8.32911L151.668 11.0832C151.664 11.2057 151.721 11.3245 151.816 11.395C151.876 11.4395 151.946 11.4618 152.02 11.4618C152.062 11.4618 152.105 11.4544 152.147 11.4358L154.588 10.4559L157.057 11.3579C157.167 11.3987 157.29 11.3764 157.385 11.3059C157.48 11.2317 157.533 11.1129 157.526 10.9904L157.445 9.31643H161.45L165.948 11.9517C166.001 11.9814 166.061 12 166.121 12C166.205 12 166.286 11.9703 166.353 11.9072C166.466 11.8033 166.505 11.6363 166.448 11.4915L165.624 9.32014H167.646C167.84 9.32014 167.998 9.15311 167.998 8.94897V0.371172C167.998 0.167028 167.84 0 167.646 0ZM154.694 9.71358C154.616 9.68389 154.532 9.6876 154.454 9.71729L152.379 10.5524L152.422 8.21404C152.422 8.12496 152.397 8.0433 152.344 7.97278L150.953 6.15404L153.077 5.47479C153.158 5.44881 153.225 5.39685 153.271 5.32261L154.482 3.36282L155.75 5.28178C155.796 5.3523 155.867 5.40427 155.948 5.42654L158.089 6.03526L156.751 7.89855C156.702 7.96907 156.677 8.05444 156.68 8.13981L156.793 10.4745L154.694 9.71358ZM167.294 8.57779H165.103C164.986 8.57779 164.877 8.63718 164.81 8.74111C164.743 8.84132 164.733 8.97124 164.775 9.0863L165.423 10.7974L161.711 8.62604C161.658 8.59635 161.598 8.57779 161.538 8.57779H157.406L157.388 8.24374L158.967 6.05011C159.037 5.94989 159.058 5.82369 159.019 5.70492C158.981 5.58614 158.893 5.49706 158.776 5.46737L156.254 4.74729L154.768 2.49799V0.742345H167.294V8.57779ZM158.248 3.06959H163.116C163.31 3.06959 163.468 2.90257 163.468 2.69842C163.468 2.49428 163.31 2.32725 163.116 2.32725H158.248C158.054 2.32725 157.896 2.49428 157.896 2.69842C157.896 2.90257 158.054 3.06959 158.248 3.06959ZM158.248 4.81039H165.275C165.469 4.81039 165.628 4.64337 165.628 4.43922C165.628 4.23508 165.469 4.06805 165.275 4.06805H158.248C158.054 4.06805 157.896 4.23508 157.896 4.43922C157.896 4.64337 158.054 4.81039 158.248 4.81039ZM161.763 5.94247C161.57 5.94247 161.411 6.1095 161.411 6.31364C161.411 6.51779 161.57 6.68481 161.763 6.68481H165.42C165.613 6.68481 165.772 6.51779 165.772 6.31364C165.772 6.1095 165.613 5.94247 165.42 5.94247H161.763ZM160.33 5.94247C160.238 5.94247 160.147 5.9833 160.08 6.05011C160.013 6.12063 159.977 6.21342 159.977 6.31364C159.977 6.41386 160.016 6.50665 160.08 6.57717C160.147 6.6477 160.235 6.68481 160.33 6.68481C160.421 6.68481 160.513 6.64398 160.58 6.57717C160.647 6.50665 160.682 6.41386 160.682 6.31364C160.682 6.21342 160.643 6.12063 160.58 6.05011C160.513 5.9833 160.421 5.94247 160.33 5.94247ZM155.398 7.70183C155.307 7.70183 155.215 7.74265 155.148 7.80947C155.081 7.87999 155.046 7.97278 155.046 8.073C155.046 8.1695 155.085 8.26601 155.148 8.33653C155.215 8.40705 155.303 8.44417 155.398 8.44417C155.49 8.44417 155.581 8.40334 155.648 8.33653C155.715 8.26601 155.75 8.17321 155.75 8.073C155.75 7.97649 155.712 7.87999 155.648 7.80947C155.581 7.74265 155.49 7.70183 155.398 7.70183ZM155.75 6.57717C155.75 6.37303 155.592 6.206 155.398 6.206H153.436C153.242 6.206 153.084 6.37303 153.084 6.57717C153.084 6.78132 153.242 6.94835 153.436 6.94835H155.398C155.592 6.94835 155.75 6.78132 155.75 6.57717ZM153.887 7.72038H153.436C153.242 7.72038 153.084 7.88741 153.084 8.09156C153.084 8.2957 153.242 8.46273 153.436 8.46273H153.887C154.081 8.46273 154.239 8.2957 154.239 8.09156C154.239 7.88741 154.084 7.72038 153.887 7.72038Z" fill="#CA6E55"/>
<path d="M217.646 0H204.419C204.225 0 204.067 0.167028 204.067 0.371172V2.67615L202.753 4.79926L200.252 5.59728C200.139 5.6344 200.051 5.72719 200.016 5.84225C199.981 5.96103 200.005 6.08723 200.079 6.18373L201.721 8.32911L201.668 11.0832C201.664 11.2057 201.721 11.3245 201.816 11.395C201.876 11.4395 201.946 11.4618 202.02 11.4618C202.062 11.4618 202.105 11.4544 202.147 11.4358L204.588 10.4559L207.057 11.3579C207.167 11.3987 207.29 11.3764 207.385 11.3059C207.48 11.2317 207.533 11.1129 207.526 10.9904L207.445 9.31643H211.45L215.948 11.9517C216.001 11.9814 216.061 12 216.121 12C216.205 12 216.286 11.9703 216.353 11.9072C216.466 11.8033 216.505 11.6363 216.448 11.4915L215.624 9.32014H217.646C217.84 9.32014 217.998 9.15311 217.998 8.94897V0.371172C217.998 0.167028 217.84 0 217.646 0ZM204.694 9.71358C204.616 9.68389 204.532 9.6876 204.454 9.71729L202.379 10.5524L202.422 8.21404C202.422 8.12496 202.397 8.0433 202.344 7.97278L200.953 6.15404L203.077 5.47479C203.158 5.44881 203.225 5.39685 203.271 5.32261L204.482 3.36282L205.75 5.28178C205.796 5.3523 205.867 5.40427 205.948 5.42654L208.089 6.03526L206.751 7.89855C206.702 7.96907 206.677 8.05444 206.68 8.13981L206.793 10.4745L204.694 9.71358ZM217.294 8.57779H215.103C214.986 8.57779 214.877 8.63718 214.81 8.74111C214.743 8.84132 214.733 8.97124 214.775 9.0863L215.423 10.7974L211.711 8.62604C211.658 8.59635 211.598 8.57779 211.538 8.57779H207.406L207.388 8.24374L208.967 6.05011C209.037 5.94989 209.058 5.82369 209.019 5.70492C208.981 5.58614 208.893 5.49706 208.776 5.46737L206.254 4.74729L204.768 2.49799V0.742345H217.294V8.57779ZM208.248 3.06959H213.116C213.31 3.06959 213.468 2.90257 213.468 2.69842C213.468 2.49428 213.31 2.32725 213.116 2.32725H208.248C208.054 2.32725 207.896 2.49428 207.896 2.69842C207.896 2.90257 208.054 3.06959 208.248 3.06959ZM208.248 4.81039H215.275C215.469 4.81039 215.628 4.64337 215.628 4.43922C215.628 4.23508 215.469 4.06805 215.275 4.06805H208.248C208.054 4.06805 207.896 4.23508 207.896 4.43922C207.896 4.64337 208.054 4.81039 208.248 4.81039ZM211.763 5.94247C211.57 5.94247 211.411 6.1095 211.411 6.31364C211.411 6.51779 211.57 6.68481 211.763 6.68481H215.42C215.613 6.68481 215.772 6.51779 215.772 6.31364C215.772 6.1095 215.613 5.94247 215.42 5.94247H211.763ZM210.33 5.94247C210.238 5.94247 210.147 5.9833 210.08 6.05011C210.013 6.12063 209.977 6.21342 209.977 6.31364C209.977 6.41386 210.016 6.50665 210.08 6.57717C210.147 6.6477 210.235 6.68481 210.33 6.68481C210.421 6.68481 210.513 6.64398 210.58 6.57717C210.647 6.50665 210.682 6.41386 210.682 6.31364C210.682 6.21342 210.643 6.12063 210.58 6.05011C210.513 5.9833 210.421 5.94247 210.33 5.94247ZM205.398 7.70183C205.307 7.70183 205.215 7.74265 205.148 7.80947C205.081 7.87999 205.046 7.97278 205.046 8.073C205.046 8.1695 205.085 8.26601 205.148 8.33653C205.215 8.40705 205.303 8.44417 205.398 8.44417C205.49 8.44417 205.581 8.40334 205.648 8.33653C205.715 8.26601 205.75 8.17321 205.75 8.073C205.75 7.97649 205.712 7.87999 205.648 7.80947C205.581 7.74265 205.49 7.70183 205.398 7.70183ZM205.75 6.57717C205.75 6.37303 205.592 6.206 205.398 6.206H203.436C203.242 6.206 203.084 6.37303 203.084 6.57717C203.084 6.78132 203.242 6.94835 203.436 6.94835H205.398C205.592 6.94835 205.75 6.78132 205.75 6.57717ZM203.887 7.72038H203.436C203.242 7.72038 203.084 7.88741 203.084 8.09156C203.084 8.2957 203.242 8.46273 203.436 8.46273H203.887C204.081 8.46273 204.239 8.2957 204.239 8.09156C204.239 7.88741 204.084 7.72038 203.887 7.72038Z" fill="#554045"/>
</svg>
