<?xml version="1.0" encoding="UTF-8"?> <svg xmlns="http://www.w3.org/2000/svg" width="229.656" height="32.344" viewBox="0 0 229.656 32.344"><defs><style> .cls-1 { fill: #ca6e55; fill-rule: evenodd; } </style></defs><path id="Безопасно_" data-name="Безопасно," class="cls-1" d="M485.837,214.565H469.085v25.593h9.633a10.482,10.482,0,0,0,6.987-2.294,7.5,7.5,0,0,0,2.628-5.985,7.256,7.256,0,0,0-2.646-5.9,10.9,10.9,0,0,0-7.163-2.189h-4.113v-4.957h11.426v-4.271Zm-7.1,13.482a4.751,4.751,0,0,1,3.155,1.046,3.472,3.472,0,0,1,1.152,2.751,3.844,3.844,0,0,1-1.2,2.971,4.581,4.581,0,0,1-3.226,1.107h-4.2v-7.875h4.324Zm29.7-3.111H498.314v-6.1h11.847v-4.271H493.04v25.593H510.2v-4.236H498.314v-6.855h10.125v-4.131Zm15.547,0.1h-3.252v4.131h3.147a5.009,5.009,0,0,1,3.181.87,3.465,3.465,0,0,1,1.09,2.874,2.923,2.923,0,0,1-1.222,2.408,5.293,5.293,0,0,1-3.331.95,4.86,4.86,0,0,1-3.058-.923,2.8,2.8,0,0,1-1.2-2.294h-5.308a6.606,6.606,0,0,0,1.151,3.858,7.648,7.648,0,0,0,3.384,2.619,12.623,12.623,0,0,0,5.027.958,11.618,11.618,0,0,0,7.163-2.03,6.5,6.5,0,0,0,2.7-5.475,6.065,6.065,0,0,0-1.125-3.736,6.642,6.642,0,0,0-3.235-2.241,7.147,7.147,0,0,0,2.927-2.338,5.376,5.376,0,0,0,1.028-3.164,6.347,6.347,0,0,0-2.513-5.379,11.288,11.288,0,0,0-6.944-1.9,11.718,11.718,0,0,0-4.7.931,7.668,7.668,0,0,0-3.322,2.593,6.332,6.332,0,0,0-1.169,3.735h5.273a2.588,2.588,0,0,1,1.117-2.17,4.546,4.546,0,0,1,2.8-.835,5.009,5.009,0,0,1,3.024.835,2.686,2.686,0,0,1,1.142,2.293q0,3.375-3.779,3.428h0Zm35.69,1.758a15.329,15.329,0,0,0-1.363-6.636,10.145,10.145,0,0,0-3.849-4.412,11.281,11.281,0,0,0-11.373,0,10.141,10.141,0,0,0-3.85,4.412,15.374,15.374,0,0,0-1.362,6.654v1.265a15,15,0,0,0,1.388,6.53,10.17,10.17,0,0,0,3.868,4.369,11.3,11.3,0,0,0,11.381-.018,10.059,10.059,0,0,0,3.824-4.394,15.463,15.463,0,0,0,1.336-6.627V226.8Zm-5.344,1.23a10.848,10.848,0,0,1-1.441,6.074,5.048,5.048,0,0,1-8.227-.079,10.907,10.907,0,0,1-1.441-6.082v-1.248a10.64,10.64,0,0,1,1.459-6.056,5.091,5.091,0,0,1,8.209.026,10.78,10.78,0,0,1,1.441,6.117v1.248Zm31.474-13.464H564.994v25.593h5.273V218.836h10.248v21.322h5.291V214.565Zm22.662,25.593h5.608l-9.58-25.593h-4.887l-9.528,25.593h5.608l1.758-5.273h9.246Zm-6.416-19.125,3.217,9.58h-6.4Zm29.935,10.6a5.047,5.047,0,0,1-1.38,3.454,5.209,5.209,0,0,1-3.648,1.116A4.4,4.4,0,0,1,623,234.287q-1.257-1.916-1.256-6.064v-1.934q0.034-3.972,1.344-5.862a4.481,4.481,0,0,1,3.947-1.89,5.105,5.105,0,0,1,3.612,1.117,5.344,5.344,0,0,1,1.38,3.594h5.273a9.731,9.731,0,0,0-3.129-6.662,11.618,11.618,0,0,0-12.753-.87,9.752,9.752,0,0,0-3.717,4.315,15.333,15.333,0,0,0-1.3,6.5V228.1q0,5.783,2.821,9.1a9.629,9.629,0,0,0,7.743,3.314,10.711,10.711,0,0,0,7.251-2.373,9.056,9.056,0,0,0,3.05-6.5h-5.273Zm31.11-17.068h-5.273v10.371H647.541V214.565h-5.274v25.593h5.274V229.19h10.283v10.968H663.1V214.565ZM690.148,226.8a15.329,15.329,0,0,0-1.362-6.636,10.141,10.141,0,0,0-3.85-4.412,11.281,11.281,0,0,0-11.373,0,10.145,10.145,0,0,0-3.849,4.412,15.359,15.359,0,0,0-1.363,6.654v1.265a15.01,15.01,0,0,0,1.389,6.53,10.162,10.162,0,0,0,3.867,4.369,11.3,11.3,0,0,0,11.382-.018,10.057,10.057,0,0,0,3.823-4.394,15.448,15.448,0,0,0,1.336-6.627V226.8Zm-5.343,1.23a10.847,10.847,0,0,1-1.442,6.074,5.047,5.047,0,0,1-8.226-.079,10.906,10.906,0,0,1-1.442-6.082v-1.248a10.648,10.648,0,0,1,1.459-6.056,5.091,5.091,0,0,1,8.209.026,10.771,10.771,0,0,1,1.442,6.117v1.248Zm12.955,15.258a9.126,9.126,0,0,0,.984-3.937l0.018-3.516h-4.289v3.938a9.144,9.144,0,0,1-1.213,4.271l-0.633,1.143,2.655,1.388A10.11,10.11,0,0,0,697.76,243.287Z" transform="translate(-469.094 -214.219)"></path></svg> 