<?xml version="1.0" encoding="UTF-8"?> <svg xmlns="http://www.w3.org/2000/svg" width="276.813" height="81.25" viewBox="0 0 276.813 81.25"><defs><style> .cls-1 { fill: #303030; fill-rule: evenodd; } </style></defs><path id="Сделайте_заказ_и_заберите_сами_" data-name="Сделайте заказ и заберите сами!" class="cls-1" d="M465.346,270.02a7.782,7.782,0,0,1-2.127,4.877,7.19,7.19,0,0,1-5.115,1.626,6.483,6.483,0,0,1-5.44-2.638,11.373,11.373,0,0,1-2.013-7.072v-3.131a11.283,11.283,0,0,1,2.066-7.195,6.71,6.71,0,0,1,5.545-2.6q6.276,0,7.084,6.521h2.18a9.281,9.281,0,0,0-2.768-6.134,9.164,9.164,0,0,0-6.5-2.215,9.37,9.37,0,0,0-5.159,1.432,9.2,9.2,0,0,0-3.436,4.07,14.5,14.5,0,0,0-1.2,6.047v3.322a14.378,14.378,0,0,0,1.213,5.968,9.285,9.285,0,0,0,3.384,4.034,9.03,9.03,0,0,0,5.036,1.424,9.566,9.566,0,0,0,6.531-2.145,9.176,9.176,0,0,0,2.891-6.187h-2.18Zm4.276,6.205-0.017,7.365h2.021V278h14.291v5.59h2.092v-7.365H486.04V258.98H474.808l-0.334,7.243q-0.334,5.782-2.549,8.789l-0.931,1.213h-1.372Zm6.961-10.336,0.229-4.94h7.119v15.276H473.419q2.849-3.534,3.164-10.336h0Zm29.476,9.105-1.318-1a6.6,6.6,0,0,1-2.347,1.969,6.853,6.853,0,0,1-2.979.615,5.9,5.9,0,0,1-4.667-2.153,7.963,7.963,0,0,1-1.855-5.388v-0.4h13.571v-1.178a9.588,9.588,0,0,0-2.031-6.46,6.866,6.866,0,0,0-5.493-2.364,7.308,7.308,0,0,0-4.113,1.257,8.458,8.458,0,0,0-2.962,3.454,11.191,11.191,0,0,0-1.063,4.939v0.756a10.391,10.391,0,0,0,1.089,4.79,8.147,8.147,0,0,0,3.05,3.331,8.258,8.258,0,0,0,4.386,1.2,7.673,7.673,0,0,0,6.732-3.358h0Zm-3.252-12.849a6.976,6.976,0,0,1,1.565,4.464v0.229H492.964a8.037,8.037,0,0,1,1.977-4.676,5.259,5.259,0,0,1,4-1.74A4.846,4.846,0,0,1,502.807,262.145Zm10.913-3.165-0.387,9.211a18.99,18.99,0,0,1-1.037,6.153,2.75,2.75,0,0,1-2.6,1.758l-0.651.035V278h0.809a4.5,4.5,0,0,0,3.041-.983,6.085,6.085,0,0,0,1.722-3.065,29.768,29.768,0,0,0,.792-6.031l0.333-7.112h7.788V278h2.109V258.98H513.72ZM545.446,278v-0.211a11.178,11.178,0,0,1-.58-4.131v-9a5.708,5.708,0,0,0-1.889-4.438,7.409,7.409,0,0,0-5.019-1.591,8.122,8.122,0,0,0-5.185,1.661,4.89,4.89,0,0,0-2.11,3.929l2.11,0.017a3.343,3.343,0,0,1,1.441-2.707,5.737,5.737,0,0,1,3.639-1.125,5.2,5.2,0,0,1,3.665,1.169,4.171,4.171,0,0,1,1.257,3.208v2.162H538.96a11.106,11.106,0,0,0-6.442,1.618,5.091,5.091,0,0,0-2.312,4.394,4.979,4.979,0,0,0,1.7,3.867,6.376,6.376,0,0,0,4.439,1.53,8.637,8.637,0,0,0,3.63-.783,7.33,7.33,0,0,0,2.821-2.223,9.963,9.963,0,0,0,.4,2.654h2.25ZM533.5,275.434a3.4,3.4,0,0,1-1.186-2.655,3.455,3.455,0,0,1,1.775-3.067,9.421,9.421,0,0,1,4.922-1.151h3.762v4.183a6,6,0,0,1-2.417,2.725,7.062,7.062,0,0,1-3.771,1.019A4.47,4.47,0,0,1,533.5,275.434Zm19.017-.809V258.98h-2.092V278h2.092l10.266-15.627V278h2.109V258.98h-2.109Zm8.367-22.5a2.853,2.853,0,0,1-.87,2.2,3.415,3.415,0,0,1-2.417.809,3.511,3.511,0,0,1-2.417-.774,2.828,2.828,0,0,1-.87-2.232h-1.793a4.168,4.168,0,0,0,1.4,3.278,6.1,6.1,0,0,0,7.383-.008,4.2,4.2,0,0,0,1.38-3.27h-1.793Zm23.378,6.855h-15.7v1.793h6.662V278h2.11V260.773h6.926V258.98Zm17.125,16.014-1.318-1a6.612,6.612,0,0,1-2.347,1.969,6.857,6.857,0,0,1-2.98.615,5.9,5.9,0,0,1-4.667-2.153,7.967,7.967,0,0,1-1.854-5.388v-0.4h13.57v-1.178a9.593,9.593,0,0,0-2.03-6.46,6.869,6.869,0,0,0-5.493-2.364,7.3,7.3,0,0,0-4.113,1.257,8.458,8.458,0,0,0-2.962,3.454,11.177,11.177,0,0,0-1.064,4.939v0.756a10.379,10.379,0,0,0,1.09,4.79,8.14,8.14,0,0,0,3.05,3.331,8.253,8.253,0,0,0,4.386,1.2,7.673,7.673,0,0,0,6.732-3.358h0Zm-3.252-12.849a6.975,6.975,0,0,1,1.564,4.464v0.229H588.293a8.044,8.044,0,0,1,1.978-4.676,5.259,5.259,0,0,1,4-1.74A4.847,4.847,0,0,1,598.137,262.145Zm23.273,5.238h-3.252v1.828h2.9a6.884,6.884,0,0,1,3.814.844,3.086,3.086,0,0,1,1.248,2.759,3.242,3.242,0,0,1-1.362,2.751,6.21,6.21,0,0,1-3.77,1.011,6.013,6.013,0,0,1-3.736-1.151,3.479,3.479,0,0,1-1.52-2.874h-2.11a5.02,5.02,0,0,0,2.092,4.183,8.427,8.427,0,0,0,5.274,1.6,8.558,8.558,0,0,0,5.273-1.494,4.812,4.812,0,0,0,1.986-4.061q0-3.533-3.656-4.535a5.409,5.409,0,0,0,2.461-1.723,3.984,3.984,0,0,0,.844-2.478,4.739,4.739,0,0,0-1.828-3.99,8.185,8.185,0,0,0-5.1-1.407,8.012,8.012,0,0,0-5,1.547,4.734,4.734,0,0,0-2.03,3.92h2.092a3.147,3.147,0,0,1,1.45-2.645,5.805,5.805,0,0,1,3.489-1.046,5.91,5.91,0,0,1,3.533.932,3.083,3.083,0,0,1,1.283,2.654q0,3.27-4.377,3.375h0ZM647.21,278v-0.211a11.157,11.157,0,0,1-.58-4.131v-9a5.705,5.705,0,0,0-1.89-4.438,7.4,7.4,0,0,0-5.018-1.591,8.125,8.125,0,0,0-5.186,1.661,4.891,4.891,0,0,0-2.109,3.929l2.109,0.017a3.344,3.344,0,0,1,1.442-2.707,5.732,5.732,0,0,1,3.638-1.125,5.2,5.2,0,0,1,3.665,1.169,4.168,4.168,0,0,1,1.257,3.208v2.162h-3.814a11.11,11.11,0,0,0-6.443,1.618,5.09,5.09,0,0,0-2.311,4.394,4.979,4.979,0,0,0,1.7,3.867,6.374,6.374,0,0,0,4.439,1.53,8.629,8.629,0,0,0,3.629-.783,7.333,7.333,0,0,0,2.822-2.223,9.922,9.922,0,0,0,.4,2.654h2.25Zm-11.944-2.566a3.4,3.4,0,0,1-1.187-2.655,3.456,3.456,0,0,1,1.776-3.067,9.42,9.42,0,0,1,4.921-1.151h3.762v4.183a6,6,0,0,1-2.417,2.725,7.056,7.056,0,0,1-3.77,1.019A4.47,4.47,0,0,1,635.266,275.434Zm29.7,2.566h2.778l-8.667-9.791,7.805-9.229H664.23l-6.979,8.438h-2.882V258.98h-2.127V278h2.127v-8.719h2.918Zm19.88,0v-0.211a11.178,11.178,0,0,1-.58-4.131v-9a5.708,5.708,0,0,0-1.889-4.438,7.409,7.409,0,0,0-5.019-1.591,8.122,8.122,0,0,0-5.185,1.661,4.89,4.89,0,0,0-2.11,3.929l2.11,0.017a3.343,3.343,0,0,1,1.441-2.707,5.737,5.737,0,0,1,3.639-1.125,5.2,5.2,0,0,1,3.665,1.169,4.171,4.171,0,0,1,1.257,3.208v2.162h-3.815a11.106,11.106,0,0,0-6.442,1.618,5.091,5.091,0,0,0-2.312,4.394,4.979,4.979,0,0,0,1.7,3.867,6.376,6.376,0,0,0,4.439,1.53,8.637,8.637,0,0,0,3.63-.783,7.33,7.33,0,0,0,2.821-2.223,9.963,9.963,0,0,0,.4,2.654h2.25ZM672.9,275.434a3.4,3.4,0,0,1-1.186-2.655,3.455,3.455,0,0,1,1.775-3.067,9.421,9.421,0,0,1,4.922-1.151h3.762v4.183a6,6,0,0,1-2.417,2.725,7.062,7.062,0,0,1-3.771,1.019A4.47,4.47,0,0,1,672.9,275.434Zm23.455-8.051h-3.252v1.828h2.9a6.887,6.887,0,0,1,3.815.844,3.086,3.086,0,0,1,1.248,2.759,3.242,3.242,0,0,1-1.362,2.751,6.215,6.215,0,0,1-3.771,1.011,6.01,6.01,0,0,1-3.735-1.151,3.48,3.48,0,0,1-1.521-2.874h-2.109a5.02,5.02,0,0,0,2.092,4.183,8.424,8.424,0,0,0,5.273,1.6,8.563,8.563,0,0,0,5.274-1.494,4.812,4.812,0,0,0,1.986-4.061q0-3.533-3.656-4.535A5.414,5.414,0,0,0,702,266.521a3.989,3.989,0,0,0,.843-2.478,4.737,4.737,0,0,0-1.828-3.99,8.185,8.185,0,0,0-5.1-1.407,8.009,8.009,0,0,0-5,1.547,4.735,4.735,0,0,0-2.031,3.92h2.092a3.147,3.147,0,0,1,1.45-2.645,5.807,5.807,0,0,1,3.489-1.046,5.916,5.916,0,0,1,3.534.932,3.083,3.083,0,0,1,1.283,2.654q0,3.27-4.377,3.375h0Zm-252.5,55.242V306.98h-2.092V326h2.092l10.266-15.627V326h2.109V306.98h-2.109Zm33.521-7.242h-3.252v1.828h2.9a6.884,6.884,0,0,1,3.814.844,3.086,3.086,0,0,1,1.248,2.759,3.242,3.242,0,0,1-1.362,2.751,6.211,6.211,0,0,1-3.771,1.011,6.012,6.012,0,0,1-3.735-1.151,3.479,3.479,0,0,1-1.52-2.874h-2.11a5.02,5.02,0,0,0,2.092,4.183,8.424,8.424,0,0,0,5.273,1.6,8.559,8.559,0,0,0,5.274-1.494,4.812,4.812,0,0,0,1.986-4.061q0-3.533-3.656-4.535a5.414,5.414,0,0,0,2.461-1.723,3.99,3.99,0,0,0,.844-2.478,4.739,4.739,0,0,0-1.828-3.99,8.185,8.185,0,0,0-5.1-1.407,8.01,8.01,0,0,0-5,1.547,4.734,4.734,0,0,0-2.03,3.92H472a3.148,3.148,0,0,1,1.451-2.645,5.8,5.8,0,0,1,3.489-1.046,5.91,5.91,0,0,1,3.533.932,3.083,3.083,0,0,1,1.283,2.654q0,3.27-4.377,3.375h0ZM503.18,326v-0.211a11.157,11.157,0,0,1-.58-4.131v-9a5.705,5.705,0,0,0-1.89-4.438,7.4,7.4,0,0,0-5.018-1.591,8.125,8.125,0,0,0-5.186,1.661,4.891,4.891,0,0,0-2.109,3.929l2.109,0.017a3.344,3.344,0,0,1,1.442-2.707,5.732,5.732,0,0,1,3.638-1.125,5.2,5.2,0,0,1,3.665,1.169,4.168,4.168,0,0,1,1.257,3.208v2.162h-3.814a11.11,11.11,0,0,0-6.443,1.618,5.09,5.09,0,0,0-2.311,4.394,4.979,4.979,0,0,0,1.7,3.867,6.374,6.374,0,0,0,4.439,1.53,8.629,8.629,0,0,0,3.629-.783,7.333,7.333,0,0,0,2.822-2.223,9.922,9.922,0,0,0,.4,2.654h2.25Zm-11.944-2.566a3.4,3.4,0,0,1-1.187-2.655,3.456,3.456,0,0,1,1.776-3.067,9.42,9.42,0,0,1,4.921-1.151h3.762v4.183a6,6,0,0,1-2.417,2.725,7.056,7.056,0,0,1-3.77,1.019A4.47,4.47,0,0,1,491.236,323.434ZM512.06,309.16a8.664,8.664,0,0,0-2.822,2.391,10.421,10.421,0,0,1,2.294-5.388,7.553,7.553,0,0,1,4.667-2.47,14.489,14.489,0,0,0,3.762-.993,4.327,4.327,0,0,0,1.846-1.555,4.476,4.476,0,0,0,.615-2.444h-1.81a2.259,2.259,0,0,1-1.064,1.969,9.738,9.738,0,0,1-3.683,1.143,9.01,9.01,0,0,0-6.4,4.218q-2.25,3.534-2.25,9.44v1.687a9.431,9.431,0,0,0,2.329,6.689,7.931,7.931,0,0,0,6.091,2.5,8.441,8.441,0,0,0,4.421-1.152,7.612,7.612,0,0,0,2.953-3.217,10.277,10.277,0,0,0,1.028-4.649v-0.457a8.715,8.715,0,0,0-2.25-6.267,7.736,7.736,0,0,0-5.871-2.364A8.008,8.008,0,0,0,512.06,309.16Zm-1.011,2.769a5.838,5.838,0,0,1,4.553-1.908,5.966,5.966,0,0,1,4.579,1.881,6.843,6.843,0,0,1,1.749,4.852v0.457a7.963,7.963,0,0,1-1.723,5.335,6.176,6.176,0,0,1-9.14.017,7.7,7.7,0,0,1-1.741-5.229V316.9A7.12,7.12,0,0,1,511.049,311.929Zm31.592,11.065-1.318-1a6.6,6.6,0,0,1-2.347,1.969,6.853,6.853,0,0,1-2.979.615,5.9,5.9,0,0,1-4.667-2.153,7.963,7.963,0,0,1-1.855-5.388v-0.4h13.57v-1.178a9.588,9.588,0,0,0-2.03-6.46,6.867,6.867,0,0,0-5.493-2.364,7.3,7.3,0,0,0-4.113,1.257,8.458,8.458,0,0,0-2.962,3.454,11.191,11.191,0,0,0-1.064,4.939v0.756a10.379,10.379,0,0,0,1.09,4.79,8.147,8.147,0,0,0,3.05,3.331,8.256,8.256,0,0,0,4.386,1.2,7.673,7.673,0,0,0,6.732-3.358h0Zm-3.252-12.849a6.976,6.976,0,0,1,1.565,4.464v0.229H529.545a8.044,8.044,0,0,1,1.978-4.676,5.259,5.259,0,0,1,4-1.74A4.846,4.846,0,0,1,539.389,310.145Zm23.261,6.24a11.714,11.714,0,0,0-1.942-7.172,6.326,6.326,0,0,0-5.353-2.584,6.751,6.751,0,0,0-5.959,3.041l-0.1-2.69H547.34v26.333h2.091v-9.7a7.039,7.039,0,0,0,5.977,2.743,6.271,6.271,0,0,0,5.273-2.611,11.448,11.448,0,0,0,1.969-7.057v-0.3Zm-3.6,6.073a4.772,4.772,0,0,1-4.139,2.118,6.239,6.239,0,0,1-3.323-.861,5.586,5.586,0,0,1-2.162-2.5V312.1a5.551,5.551,0,0,1,5.45-3.639,4.819,4.819,0,0,1,4.166,2.109,9.794,9.794,0,0,1,1.494,5.748A10.646,10.646,0,0,1,559.055,322.458Zm10.475,0.167V306.98h-2.092V326h2.092L579.8,310.373V326h2.109V306.98H579.8Zm31.745-15.645h-15.7v1.793h6.662V326h2.11V308.773h6.926V306.98ZM618.4,322.994l-1.318-1a6.612,6.612,0,0,1-2.347,1.969,6.857,6.857,0,0,1-2.98.615,5.9,5.9,0,0,1-4.667-2.153,7.967,7.967,0,0,1-1.854-5.388v-0.4H618.8v-1.178a9.593,9.593,0,0,0-2.03-6.46,6.869,6.869,0,0,0-5.493-2.364,7.308,7.308,0,0,0-4.114,1.257,8.456,8.456,0,0,0-2.961,3.454,11.177,11.177,0,0,0-1.064,4.939v0.756a10.379,10.379,0,0,0,1.09,4.79,8.14,8.14,0,0,0,3.05,3.331,8.252,8.252,0,0,0,4.385,1.2,7.674,7.674,0,0,0,6.733-3.358h0Zm-3.252-12.849a6.975,6.975,0,0,1,1.564,4.464v0.229H605.3a8.038,8.038,0,0,1,1.978-4.676,5.259,5.259,0,0,1,4-1.74A4.847,4.847,0,0,1,615.148,310.145Zm19.1,12.392a9.1,9.1,0,0,1-1.574-5.678v-0.615a9.3,9.3,0,0,1,1.574-5.765,5.735,5.735,0,0,1,8.121-.686,5.175,5.175,0,0,1,1.608,3.6H646a6.8,6.8,0,0,0-2.171-4.9,7.338,7.338,0,0,0-5.16-1.863,7.787,7.787,0,0,0-4.3,1.178,7.582,7.582,0,0,0-2.822,3.339,11.9,11.9,0,0,0-.984,4.975v0.633a10.516,10.516,0,0,0,2.188,7,7.35,7.35,0,0,0,5.933,2.6,8.029,8.029,0,0,0,3.56-.809,6.83,6.83,0,0,0,2.663-2.241,5.96,5.96,0,0,0,1.09-3.173h-2.022a4.362,4.362,0,0,1-1.608,3.208,5.557,5.557,0,0,1-3.683,1.239A5.277,5.277,0,0,1,634.247,322.537Zm30.5,3.463v-0.211a11.157,11.157,0,0,1-.58-4.131v-9a5.705,5.705,0,0,0-1.89-4.438,7.4,7.4,0,0,0-5.018-1.591,8.127,8.127,0,0,0-5.186,1.661,4.891,4.891,0,0,0-2.109,3.929l2.109,0.017a3.344,3.344,0,0,1,1.442-2.707,5.734,5.734,0,0,1,3.638-1.125,5.2,5.2,0,0,1,3.665,1.169,4.168,4.168,0,0,1,1.257,3.208v2.162H658.26a11.11,11.11,0,0,0-6.443,1.618,5.09,5.09,0,0,0-2.311,4.394,4.979,4.979,0,0,0,1.7,3.867,6.376,6.376,0,0,0,4.439,1.53,8.637,8.637,0,0,0,3.63-.783,7.33,7.33,0,0,0,2.821-2.223,9.922,9.922,0,0,0,.4,2.654h2.25ZM652.8,323.434a3.4,3.4,0,0,1-1.187-2.655,3.456,3.456,0,0,1,1.776-3.067,9.421,9.421,0,0,1,4.922-1.151h3.761v4.183a6,6,0,0,1-2.417,2.725,7.056,7.056,0,0,1-3.77,1.019A4.47,4.47,0,0,1,652.8,323.434Zm19.783-16.454h-2.759V326h2.091V310.039L679.371,326h1.494l7.312-15.609V326h2.11V306.98h-2.6l-7.559,16.172ZM698,322.625V306.98h-2.092V326H698l10.266-15.627V326h2.109V306.98h-2.109Zm20.11-22.219h-2.179l0.1,18.457h1.951Zm-2.039,25.337a1.4,1.4,0,0,0,1.055.4,1.432,1.432,0,0,0,1.063-.4,1.339,1.339,0,0,0,.4-0.982,1.419,1.419,0,0,0-.4-1.017,1.4,1.4,0,0,0-1.063-.416,1.371,1.371,0,0,0-1.055.416,1.437,1.437,0,0,0-.387,1.017A1.356,1.356,0,0,0,716.071,325.743Z" transform="translate(-441.781 -252.063)"></path></svg> 