<?xml version="1.0" encoding="UTF-8"?> <svg xmlns="http://www.w3.org/2000/svg" width="103.938" height="52.25" viewBox="0 0 103.938 52.25"><defs><style> .cls-1 { fill: #eee2d8; fill-rule: evenodd; } </style></defs><path id="heading-decor" class="cls-1" d="M601.932,83.563l-2.076,3.751-2.076-3.751h-3.056a52.172,52.172,0,0,0-8.485,1.109,53.942,53.942,0,0,0-6.024,2.393l-5.091,3.07V93.3L572.53,91.67l-4.782,2.5a35.339,35.339,0,0,0-8.108,8.2l-3.231,5.609,2.219,3.585h-4.072l-5.489,9.358-1.176,7.854v4.277l4.52,2.684-0.133.079h6.167l-0.124-.079,3.9-2.471v-3.346h8.5l10.236,5.817-0.139.079h6.244l-0.136-.078,1.276-.732h-0.09l1.849-1.095-2.232-3.991h5.924V125.3l3.688,2.234,2.5-4.608,2.5,4.608,3.689-2.234v4.615h5.924l-2.233,3.991L611.589,135H611.5l1.275,0.732-0.138.079h6.245l-0.138-.079,10.235-5.817h8.5v3.346l3.906,2.471-0.124.079h6.166l-0.132-.079,4.52-2.684v-4.277l0.013,0.024a48.854,48.854,0,0,0-1.214-6.9,27.163,27.163,0,0,0-1.723-3.933l-3.741-6.4h-4.072l2.219-3.585-3.231-5.609,0.2,0.113a53.022,53.022,0,0,0-8.435-8.174l-4.655-2.638L624.589,93.3V90.134l-4.44-2.677a50.966,50.966,0,0,0-6.821-2.6,54,54,0,0,0-8.646-1.292h-2.75ZM623,129.919l-7.247,4.12-2.047-1.213,1.627-2.907H623Zm9.855-18.356L629.9,107.4l-2.986,1.809,2.057-3.677-4.386-3V96.786l2.669-1.677,7.789,4.413,4.839,8.4-2.253,3.64h-4.776Zm-15.6-10.176,4.4-2.766v5.494l3.432,2.345-3.262,5.831-12.862,7.79V106.573l3.9-6.984Zm-15.015-3.345h3.8v7.75l-5.4,9.67v-0.121l-0.79,1.45-0.79-1.45v0.122l-5.4-9.671v-7.75h3.8l2.389-4.445Zm-19.795,3.345,4.386-1.8,3.9,6.984v13.508l-12.862-7.79-3.261-5.831,3.432-2.345V98.621Zm48.907,13.141h4.44l-2.244,3.625,2.332,4.443-7.669,4.359H616.993l7-12.521,5.1-3.09Zm9.052,12.427H634.2l5.614-3.191-2.881-5.488,2.32-3.748h4.241l5.187,8.1,0.22,8.726-4.6,2.73-3.892-2.463v-4.665Zm-31.437-3.422,9.941-6.02-5.282,9.442h-4.659v-3.422Zm-7.435-3.652,4.512-8.075v10.045l-2.589,1.568Zm-5.286,3.538-2.589-1.568V111.805l4.512,8.076Zm-10.171,3.536-5.282-9.442,9.94,6.02v3.422h-4.658Zm-9.37,2.964h7.667L586,132.826l-2.046,1.213Zm-16.249-15.391,2.32,3.748-2.881,5.488,5.615,3.191H559.3v4.665l-3.892,2.463-4.6-2.73,0.683-9.213,4.725-7.612h4.24Zm10.152-3.184,5.1,3.09,7,12.521H571.5l-7.67-4.359,2.332-4.443-2.244-3.625h4.44Zm1.84-16.235,2.67,1.677v5.753l-4.387,3,2.057,3.677-2.986-1.809-2.952,4.16H562.08l-2.254-3.64,4.839-8.4Zm25.775-4.679-2.5,4.648h-4.991v5.481l-2.621-4.692-5.387,2.208-4.683-2.941V91.82l8.778-5.293h9.243Zm14.658-3.9,8.778,5.293v3.315l-4.683,2.941L611.6,95.867l-2.622,4.692V95.078h-4.991l-2.5-4.648,2.161-3.9h9.243Z" transform="translate(-547.906 -83.563)"></path></svg> 