<?xml version="1.0" encoding="UTF-8"?> <svg xmlns="http://www.w3.org/2000/svg" width="309.219" height="86.25" viewBox="0 0 309.219 86.25"><defs><style> .cls-1 { fill: #ca6e55; fill-rule: evenodd; } </style></defs><path id="Выгодно_" data-name="Выгодно!" class="cls-1" d="M486.336,152.724a24.079,24.079,0,0,0-6.569-2.856c-0.206-.059-0.3-0.139-0.286-0.242a0.332,0.332,0,0,1,.242-0.242,19.5,19.5,0,0,0,5.207-2.658,10.9,10.9,0,0,0,3.186-3.45,10.781,10.781,0,0,0,1.406-5.449,11.4,11.4,0,0,0-.571-3.67,11.012,11.012,0,0,0-1.6-3.076,13.356,13.356,0,0,0-2.417-2.483,16.32,16.32,0,0,0-3.01-1.889,18.741,18.741,0,0,0-3.538-1.3,23.049,23.049,0,0,0-3.274-.571,27.639,27.639,0,0,0-3.054-.132q-1.473.023-2.834,0.022a34.492,34.492,0,0,1-4.79-.308,7.148,7.148,0,0,1-3.6-1.45q-0.615-.483-0.659.22-0.617,5.932-1.033,11.118t-0.813,10.327a0.887,0.887,0,0,1-.153.528,0.812,0.812,0,0,1-.462.088l-1.318.087a3.757,3.757,0,0,0-.659.044,1.275,1.275,0,0,0-.528.308l-7.031,6.284a0.5,0.5,0,0,0-.176.55,0.411,0.411,0,0,0,.44.329l9.052,0.176a0.389,0.389,0,0,1,.44.439q-0.088,3.165-.154,6.021t-0.154,5.625a1.212,1.212,0,0,0,.22.791,3.01,3.01,0,0,0,.7.571l6.68,3.428a0.68,0.68,0,0,0,.527.11,0.507,0.507,0,0,0,.22-0.55q0.132-4.218.176-8.2t0.175-7.317a0.977,0.977,0,0,1,.088-0.44,0.451,0.451,0,0,1,.44-0.175q2.417,0.088,4.306.307t3.318,0.484a22.469,22.469,0,0,1,2.439.571q1.011,0.308,1.67.527a11.03,11.03,0,0,1,2.549,1.3,10.1,10.1,0,0,1,2.065,1.867,8.766,8.766,0,0,1,1.385,2.285,6.251,6.251,0,0,1-1.78,7.3,12.121,12.121,0,0,1-4.065,2.571,25.609,25.609,0,0,1-5.076,1.406,44.5,44.5,0,0,1-5.427.594q-2.747.13-5.12,0.131a30.375,30.375,0,0,1-4.768-.417,23.453,23.453,0,0,1-5.031-1.384,17.15,17.15,0,0,1-4.329-2.483,7.908,7.908,0,0,1-2.659-3.758q-0.353-1.1-.483.044a7.15,7.15,0,0,0-.088.945v0.813q0,1.275.132,2.923a21.889,21.889,0,0,0,.549,3.383,15.168,15.168,0,0,0,1.231,3.34,8.924,8.924,0,0,0,2.131,2.747,10.8,10.8,0,0,0,3.845,2.087,31.259,31.259,0,0,0,4.878,1.165,42.063,42.063,0,0,0,4.966.483q2.439,0.087,4.109.088a69.758,69.758,0,0,0,9.316-.527,24.669,24.669,0,0,0,5.318-1.143,20.786,20.786,0,0,0,6.02-3.406,17.63,17.63,0,0,0,3.538-3.955,12.088,12.088,0,0,0,1.648-3.845,15.357,15.357,0,0,0,.395-3.12,19.481,19.481,0,0,0-.154-2.329,16.627,16.627,0,0,0-.549-2.637,19.623,19.623,0,0,0-1.011-2.7,12.821,12.821,0,0,0-1.538-2.526A17.131,17.131,0,0,0,486.336,152.724Zm-19.511-7.295a0.6,0.6,0,0,1-.11-0.4q0.132-1.846.242-3.472t0.241-3.186q0.132-1.559.286-3.076t0.33-3.186a1.764,1.764,0,0,1,.791-1.516,6.5,6.5,0,0,1,2.329-.418q0.7-.043,1.735-0.022a16.226,16.226,0,0,1,2.154.2,14.076,14.076,0,0,1,2.241.549,7.036,7.036,0,0,1,2.043,1.077,8.992,8.992,0,0,1,2.088,2.329,6,6,0,0,1,.813,3.208,6.783,6.783,0,0,1-.352,2.154,6.869,6.869,0,0,1-1.1,2.021,7.19,7.19,0,0,1-2.7,2.065,17.191,17.191,0,0,1-3.472,1.143,23.863,23.863,0,0,1-3.691.505q-1.869.111-3.362,0.154A0.671,0.671,0,0,1,466.825,145.429Zm42.234,7.207q-0.132-.132-0.484.132l-6.547,5.493q-0.264.22-.44,0.4a1.265,1.265,0,0,0-.264.373,1.841,1.841,0,0,0-.131.462q-0.045.264-.088,0.7a1.144,1.144,0,0,1-.022.308,0.369,0.369,0,0,0-.022.153v0.4c0,0.191-.015.5-0.044,0.945q-0.088,1.407-.154,3.164t-0.088,3.669q-0.022,1.912-.066,3.933t-0.044,4a1.9,1.9,0,0,0,.176.923,1.511,1.511,0,0,0,.527.528l6.109,3.559q0.659,0.4.659-.439l0.044-2.066a9.892,9.892,0,0,1,.681-3.449,9.217,9.217,0,0,1,1.758-2.835,9.219,9.219,0,0,1,5.867-2.944,5.144,5.144,0,0,1,3.713.725,3.056,3.056,0,0,1,1.34,2.571,2.119,2.119,0,0,1-.571,1.494,4.033,4.033,0,0,1-1.406.967,7.878,7.878,0,0,1-1.736.5,9.413,9.413,0,0,1-1.56.154,22.6,22.6,0,0,1-3.318-.308q-2-.307-4.241-0.879t-4.548-1.406a34.011,34.011,0,0,1-4.307-1.89,19.025,19.025,0,0,1-3.471-2.307,6.534,6.534,0,0,1-2-2.7q-0.308-.747-0.461-0.506a1.65,1.65,0,0,0-.2.725c-0.03.323-.044,0.623-0.044,0.9v0.549q0.043,1.276.22,2.725a18.79,18.79,0,0,0,.571,2.857,12.115,12.115,0,0,0,1.1,2.658,7.818,7.818,0,0,0,1.8,2.176,9.419,9.419,0,0,0,2.813,1.625,19.418,19.418,0,0,0,3.977.967,53.177,53.177,0,0,0,5.6.484q3.252,0.132,7.734.132a15.024,15.024,0,0,0,3.56-.462,7.526,7.526,0,0,0,3.472-2,9.052,9.052,0,0,0,1.67-2.308,6.555,6.555,0,0,0,.659-3.01,11.514,11.514,0,0,0-.594-3.669,9.774,9.774,0,0,0-1.735-3.164,8.43,8.43,0,0,0-6.68-3.054,10.094,10.094,0,0,0-4.461,1.252,15.771,15.771,0,0,0-4.636,3.669c-0.323.352-.483,0.308-0.483-0.131q0.087-1.846.154-3.67t0.153-3.669q0.043-.615.11-1.868t0.154-2.637q0.087-1.385.176-2.614t0.132-1.8A0.579,0.579,0,0,0,509.059,152.636Zm21.841,5.186a2.618,2.618,0,0,0-.616.725,2.16,2.16,0,0,0-.131.857q-0.132,4.131-.2,7.976t0.022,7.405a9.563,9.563,0,0,0,.373,2.285,5.793,5.793,0,0,0,1.077,2.065,7.79,7.79,0,0,0,2.791,2.176,7.523,7.523,0,0,0,3.186.769,15.065,15.065,0,0,0,4.108-.528,13.478,13.478,0,0,0,3.143-1.274,0.482,0.482,0,0,0,.351-0.439c-0.029-.147-0.191-0.191-0.483-0.132a10.2,10.2,0,0,1-2.132.11,8.57,8.57,0,0,1-1.56-.242,3.832,3.832,0,0,1-1.56-.835,3.379,3.379,0,0,1-.813-1.187,4.989,4.989,0,0,1-.329-1.45q-0.066-.791-0.11-1.626-0.177-5.4.132-10.832t0.527-10.657q0.043-.7-0.242-0.593a2.691,2.691,0,0,0-.593.329Zm35.862,16.348q-1.429-.043-2.967-0.176t-3.076-.33q-1.539-.2-2.812-0.461a9.963,9.963,0,0,1-3.1-1.143,2.378,2.378,0,0,1-1.253-1.582,0.712,0.712,0,0,1,.242-0.725,2.265,2.265,0,0,1,.9-0.439,7.741,7.741,0,0,1,1.362-.22q0.79-.066,1.67-0.11,0.791-.043,1.6-0.11a9.381,9.381,0,0,0,1.582-.264,4.681,4.681,0,0,0,1.384-.593,3.172,3.172,0,0,0,1.011-1.054,4.112,4.112,0,0,0,.527-1.561,5.327,5.327,0,0,0-.175-2.307,9.722,9.722,0,0,0-2.2-4.218,13.476,13.476,0,0,0-3.735-2.9,18.331,18.331,0,0,0-4.636-1.692,22.655,22.655,0,0,0-4.9-.549c-0.206,0-.455.008-0.747,0.022s-0.594.037-.9,0.066-0.609.066-.9,0.11a5.9,5.9,0,0,0-.747.154,0.983,0.983,0,0,0-.571.285,0.9,0.9,0,0,0,.395.681l3.911,4.263a1.3,1.3,0,0,0,.506.4,2,2,0,0,0,.857,0,11.128,11.128,0,0,1,2.131-.154,6.05,6.05,0,0,1,2.043.373,6.693,6.693,0,0,1,2.11,1.143,2.641,2.641,0,0,1,1.01,1.933,1.734,1.734,0,0,1-.153.967,1.334,1.334,0,0,1-.769.55,7.525,7.525,0,0,1-1.56.307q-0.99.111-2.483,0.2-1.145.089-2.242,0.22a6.75,6.75,0,0,0-1.977.527,3.607,3.607,0,0,0-1.428,1.121,3.077,3.077,0,0,0-.55,1.911,8.775,8.775,0,0,0,1.516,4.9,13.57,13.57,0,0,0,3.8,3.845q1.054,0.7,2.5,1.473a20.821,20.821,0,0,0,3.471,1.406,34.263,34.263,0,0,0,4.658,1.076,40.479,40.479,0,0,0,6.065.484q2.021,0.043,3.362.066t2.395,0.022q1.054,0,1.955-.022t2.044-.022a18.009,18.009,0,0,0,4.153-.506,11.347,11.347,0,0,0,2.988-1.186,7.823,7.823,0,0,0,1.955-1.6,6.73,6.73,0,0,0,1.1-1.714,7.917,7.917,0,0,0,.484-2.043,21.094,21.094,0,0,0,.131-2.352q0-1.141-.11-2.307t-0.285-2.175a0.9,0.9,0,0,0-.352-0.791,1.176,1.176,0,0,0-.351.791,12.027,12.027,0,0,1-.616,2.2,4.044,4.044,0,0,1-1.274,1.714q-1.275,1.011-5.537,1.582a85.219,85.219,0,0,1-10.942.572Q568.189,174.214,566.762,174.17Zm4.636-14.239a0.785,0.785,0,0,0-.242.352,0.476,0.476,0,0,0,.2.351l3.867,3.868a0.476,0.476,0,0,0,.352.2,0.77,0.77,0,0,0,.351-0.241l3.824-3.824a0.782,0.782,0,0,0,.241-0.351,0.479,0.479,0,0,0-.2-0.352l-3.867-3.867a0.485,0.485,0,0,0-.351-0.2,0.788,0.788,0,0,0-.352.242Zm23.4-4.5a11.243,11.243,0,0,0-2.922,3.23,20.481,20.481,0,0,0-2.175,4.966,36,36,0,0,0-1.275,6.328q-0.615,5.889,2.242,9.184a8.763,8.763,0,0,0,2.175,1.736,12.48,12.48,0,0,0,2.5,1.077,14.915,14.915,0,0,0,2.571.549,19.773,19.773,0,0,0,2.373.154,12.405,12.405,0,0,0,5.537-1.23,14.089,14.089,0,0,0,4.306-3.23,15.605,15.605,0,0,0,2.835-4.483,13.525,13.525,0,0,0,1.076-4.988,7.579,7.579,0,0,0-.791-3.471,15.854,15.854,0,0,0-2.175-3.362,21.283,21.283,0,0,0-3.076-2.988,29.923,29.923,0,0,0-3.494-2.417,20.425,20.425,0,0,0-3.405-1.626,8.6,8.6,0,0,0-2.835-.594A5.86,5.86,0,0,0,594.8,155.427ZM597,173.4a6.117,6.117,0,0,1-3.12-3.208,10.355,10.355,0,0,1-.572-1.736,4.6,4.6,0,0,1-.154-1.341,7.332,7.332,0,0,1,.154-1.3,10.813,10.813,0,0,1,.528-1.714,7.2,7.2,0,0,1,.659-1.274,4.68,4.68,0,0,1,.5-0.594,1.515,1.515,0,0,1,.989-0.329,6.982,6.982,0,0,1,2.483.593,36.919,36.919,0,0,1,3.6,1.6,41.767,41.767,0,0,1,3.692,2.109,15.237,15.237,0,0,1,2.746,2.154,2.609,2.609,0,0,1,.879,1.758,2.3,2.3,0,0,1-.725,1.3,7.063,7.063,0,0,1-1.911,1.362,11.933,11.933,0,0,1-2.945,1.011,14.773,14.773,0,0,1-3.779.286A7.859,7.859,0,0,1,597,173.4Zm32.126,5.647a9.812,9.812,0,0,0,3.318-1.583,0.561,0.561,0,0,1,.528-0.175,0.911,0.911,0,0,1,.219.7q0.132,4.57,0,7.91a31.194,31.194,0,0,1-.681,5.713,12.064,12.064,0,0,1-1.56,3.911,8.008,8.008,0,0,1-2.637,2.505,12.823,12.823,0,0,1-3.955,1.45,52.56,52.56,0,0,1-5.449.791c-0.264.029-.637,0.051-1.121,0.066l-1.56.044-1.648.044q-0.813.021-1.34,0.022-3.339,0-5.976-.22a12.462,12.462,0,0,1-4.219-.967,0.776,0.776,0,0,1-.44-0.922,9.573,9.573,0,0,1,1.011-2.7,18.387,18.387,0,0,1,1.626-2.417,27.718,27.718,0,0,1,1.934-2.2q1.011-1.033,2.021-2.044a0.492,0.492,0,0,0,.22-0.571,0.93,0.93,0,0,0-.4-0.352l-6.2-3.471a0.553,0.553,0,0,0-.791.175,31.317,31.317,0,0,0-2.329,3.912,19.556,19.556,0,0,0-1.714,5.493q-1.319,7.953,1.714,11.645a7.313,7.313,0,0,0,2.461,1.89,12.1,12.1,0,0,0,2.988.945,21.3,21.3,0,0,0,3.208.329q1.626,0.043,3.12.044,1.758,0,3.34-.022t3.032-.088q1.451-.066,2.857-0.241t2.812-.44a26.976,26.976,0,0,0,5.34-1.692,19.786,19.786,0,0,0,4.9-3.1,17.855,17.855,0,0,0,4.79-6.636,28.15,28.15,0,0,0,2.021-9.536q0.132-1.89.2-4.065t0.11-4.35q0.043-2.175.066-4.263t0.022-3.8a3.632,3.632,0,0,0-.088-0.923,1.068,1.068,0,0,0-.528-0.571l-6.416-3.692q-0.527-.306-0.527.44a9.877,9.877,0,0,1-.154,2.263,5.061,5.061,0,0,1-.945,2,5.359,5.359,0,0,1-2.263,1.846,6.551,6.551,0,0,1-2.571.571,6.321,6.321,0,0,1-2.241-.395,5.314,5.314,0,0,1-3.032-2.813,5.141,5.141,0,0,1-.44-2.153,6.407,6.407,0,0,1,1.451-4.131,8.494,8.494,0,0,1,2.065-1.67,7.219,7.219,0,0,1,3.648-.879,24.165,24.165,0,0,1,3.713.264,14.934,14.934,0,0,1,3.274.9,17.794,17.794,0,0,1,3.12,1.648,30.627,30.627,0,0,1,3.252,2.5,0.918,0.918,0,0,0,.637.373,1.3,1.3,0,0,0,.066-0.945,12.763,12.763,0,0,0-.5-1.911,15.742,15.742,0,0,0-.769-1.824,15.055,15.055,0,0,0-5.054-5.273,11.26,11.26,0,0,0-3.318-1.429,15.89,15.89,0,0,0-4.065-.5,15.647,15.647,0,0,0-8.152,1.912,14.337,14.337,0,0,0-5.207,5.647,10.885,10.885,0,0,0-1.033,2.856,14.632,14.632,0,0,0-.33,3.076,11.97,11.97,0,0,0,.967,4.878,10.9,10.9,0,0,0,1.385,2.329,11.571,11.571,0,0,0,5.119,3.78,10.115,10.115,0,0,0,3.6.615A13.252,13.252,0,0,0,629.125,179.048Zm40.257-7.01a7.346,7.346,0,0,0,2.681-1.823,0.267,0.267,0,0,1,.307-0.154,0.336,0.336,0,0,1,.132.329q-0.045.968,0,2.285a12.691,12.691,0,0,0,.4,2.7,9.757,9.757,0,0,0,1.143,2.681,6.9,6.9,0,0,0,2.241,2.219,6.593,6.593,0,0,0,1.956.791,21.06,21.06,0,0,0,2.659.483q1.449,0.176,3.032.264t3.076,0.11q1.494,0.021,2.79.022h2.176l12.436,0.132a13.9,13.9,0,0,0,3.714-.418,7.155,7.155,0,0,0,2.373-1.1,4.968,4.968,0,0,0,1.384-1.56,11.626,11.626,0,0,0,.791-1.758,9.076,9.076,0,0,0,.4-2.857,20.147,20.147,0,0,0-.264-3.186q-0.264-1.647-.571-3.01-0.221-1.011-.418-0.923a1.539,1.539,0,0,0-.417.879,10.988,10.988,0,0,1-.682,2.219,3.779,3.779,0,0,1-1.164,1.516,5.159,5.159,0,0,1-1.89.857,22.411,22.411,0,0,1-3.252.55q-2.022.22-4.878,0.307t-6.723.088q-1.1,0-2.549-.044t-2.944-.219a25.878,25.878,0,0,1-2.9-.506,8.44,8.44,0,0,1-2.373-.9,2.7,2.7,0,0,1-1.164-1.538,8.644,8.644,0,0,1-.286-2.417q0-2.637.088-5.054t0.132-4.482l0.088-5.757q0-.483-0.264-0.417a1.231,1.231,0,0,0-.44.2l-6.284,5.186a7.078,7.078,0,0,0-1.582,1.736,3.226,3.226,0,0,0-.395,1.78,4.6,4.6,0,0,1-.44,2.043,4.649,4.649,0,0,1-1.12,1.494,4.438,4.438,0,0,1-1.56.879,4.862,4.862,0,0,1-1.758.242,7.535,7.535,0,0,1-2.791-.593,5.165,5.165,0,0,1-1.67-1.165,3.642,3.642,0,0,1-.813-1.406,4.724,4.724,0,0,1-.219-1.319l0.087-8.657c0-.322-0.087-0.461-0.263-0.417a1.231,1.231,0,0,0-.44.2l-6.284,5.186a7.078,7.078,0,0,0-1.582,1.736,3.226,3.226,0,0,0-.395,1.78q0.042,0.7.088,1.648a15.2,15.2,0,0,1,0,1.6,13.591,13.591,0,0,1-.154,1.406,5.6,5.6,0,0,1-.44,1.384,10.357,10.357,0,0,1-.9,1.56,20.678,20.678,0,0,1-1.494,1.89,11.122,11.122,0,0,1-1.6,1.472,21.319,21.319,0,0,1-1.845,1.252,20.5,20.5,0,0,1-1.824.989q-0.88.418-1.582,0.681a1.122,1.122,0,0,0-.571.418q-0.09.2,0.527,0.5a13.8,13.8,0,0,0,1.955.769,11.136,11.136,0,0,0,2.527.484,10.311,10.311,0,0,0,2.879-.2,8.338,8.338,0,0,0,3.01-1.318c0.264-.176.395-0.1,0.395,0.219l0.132,3.955a2.074,2.074,0,0,0,2.2,2.2c0.322,0,.775-0.015,1.362-0.044s1.1-.044,1.538-0.044a2.085,2.085,0,0,0,1.472-.55,2.265,2.265,0,0,0,.637-1.648q0.043-1.756.066-2.812t0.044-1.956q0.023-.9.044-1.955t0.022-2.769a0.336,0.336,0,0,1,.132-0.329,0.269,0.269,0,0,1,.308.154,7.791,7.791,0,0,0,2.7,1.823,7.153,7.153,0,0,0,2.527.55A7.333,7.333,0,0,0,669.382,172.038Zm24.609-15.93a0.792,0.792,0,0,0-.351-0.242,0.485,0.485,0,0,0-.352.2l-3.867,3.867a0.479,0.479,0,0,0-.2.352,0.778,0.778,0,0,0,.242.351l3.823,3.824a0.767,0.767,0,0,0,.352.241,0.476,0.476,0,0,0,.351-0.2l3.867-3.868a0.476,0.476,0,0,0,.2-0.351,0.785,0.785,0,0,0-.242-0.352Zm24.722-.681a11.243,11.243,0,0,0-2.922,3.23,20.481,20.481,0,0,0-2.176,4.966,36.1,36.1,0,0,0-1.274,6.328q-0.617,5.889,2.241,9.184a8.749,8.749,0,0,0,2.176,1.736,12.5,12.5,0,0,0,2.5,1.077,14.935,14.935,0,0,0,2.571.549,19.8,19.8,0,0,0,2.373.154,12.4,12.4,0,0,0,5.537-1.23,14.106,14.106,0,0,0,4.307-3.23,15.581,15.581,0,0,0,2.834-4.483,13.506,13.506,0,0,0,1.077-4.988,7.592,7.592,0,0,0-.791-3.471A15.893,15.893,0,0,0,735,161.887a21.283,21.283,0,0,0-3.076-2.988,30.008,30.008,0,0,0-3.494-2.417,20.4,20.4,0,0,0-3.406-1.626,8.588,8.588,0,0,0-2.834-.594A5.858,5.858,0,0,0,718.713,155.427Zm2.2,17.974a6.127,6.127,0,0,1-3.12-3.208,10.436,10.436,0,0,1-.571-1.736,4.6,4.6,0,0,1-.154-1.341,7.332,7.332,0,0,1,.154-1.3,10.817,10.817,0,0,1,.527-1.714,7.341,7.341,0,0,1,.659-1.274,4.774,4.774,0,0,1,.506-0.594,1.515,1.515,0,0,1,.989-0.329,6.986,6.986,0,0,1,2.483.593,36.919,36.919,0,0,1,3.6,1.6,41.75,41.75,0,0,1,3.691,2.109,15.249,15.249,0,0,1,2.747,2.154,2.613,2.613,0,0,1,.879,1.758,2.307,2.307,0,0,1-.725,1.3,7.069,7.069,0,0,1-1.912,1.362,11.925,11.925,0,0,1-2.944,1.011,14.78,14.78,0,0,1-3.779.286A7.864,7.864,0,0,1,720.91,173.4Zm26.59-3.89q0.681-.042.373-1.582a26.726,26.726,0,0,1-.461-3.164q-0.155-1.713-.154-3.559t0.11-3.758q0.109-1.911.33-3.757a31.264,31.264,0,0,1,.7-3.406q0.483-1.868,1.1-3.823t1.319-3.955q0.7-2,1.406-3.779t1.34-3.3q0.638-1.516,1.121-2.527a1.9,1.9,0,0,0,.286-1.121,1.555,1.555,0,0,0-.55-0.9l-5.8-4.877a1.849,1.849,0,0,0-1.077-.506,0.911,0.911,0,0,0-.813.725q-0.308.749-.791,2.2t-1.077,3.317q-0.593,1.869-1.23,4.043t-1.165,4.373q-0.527,2.2-.923,4.263t-0.571,3.735a37.508,37.508,0,0,0-.132,5.361,23.861,23.861,0,0,0,.725,4.7,28.4,28.4,0,0,0,1.692,4.681q1.1,2.4,2.725,5.251Q746.818,169.556,747.5,169.511Zm-0.022,3.648a0.905,0.905,0,0,0-.418-0.286,0.5,0.5,0,0,0-.373.2l-4.307,4.307a0.481,0.481,0,0,0,.044.791l4.263,4.262a0.48,0.48,0,0,0,.791.044l4.307-4.306a0.493,0.493,0,0,0,.2-0.374,0.9,0.9,0,0,0-.285-0.417Z" transform="translate(-445.75 -122.781)"></path></svg> 