<svg width="220" height="20" viewBox="0 0 220 20" fill="none" xmlns="http://www.w3.org/2000/svg">
<path d="M10 1.61804L11.7696 7.06434L11.8819 7.40983H12.2451H17.9717L13.3388 10.7758L13.0449 10.9894L13.1572 11.3348L14.9268 16.7812L10.2939 13.4152L10 13.2016L9.70611 13.4152L5.0732 16.7812L6.84282 11.3348L6.95507 10.9894L6.66118 10.7758L2.02828 7.40983H7.75486H8.11813L8.23039 7.06434L10 1.61804Z" stroke="#554045"/>
<path d="M60 1.61804L61.7696 7.06434L61.8819 7.40983H62.2451H67.9717L63.3388 10.7758L63.0449 10.9894L63.1572 11.3348L64.9268 16.7812L60.2939 13.4152L60 13.2016L59.7061 13.4152L55.0732 16.7812L56.8428 11.3348L56.9551 10.9894L56.6612 10.7758L52.0283 7.40983H57.7549H58.1181L58.2304 7.06434L60 1.61804Z" stroke="#CA6E55"/>
<path d="M110 1.61804L111.77 7.06434L111.882 7.40983H112.245H117.972L113.339 10.7758L113.045 10.9894L113.157 11.3348L114.927 16.7812L110.294 13.4152L110 13.2016L109.706 13.4152L105.073 16.7812L106.843 11.3348L106.955 10.9894L106.661 10.7758L102.028 7.40983H107.755H108.118L108.23 7.06434L110 1.61804Z" stroke="#554045"/>
<path d="M160 1.61804L161.77 7.06434L161.882 7.40983H162.245H167.972L163.339 10.7758L163.045 10.9894L163.157 11.3348L164.927 16.7812L160.294 13.4152L160 13.2016L159.706 13.4152L155.073 16.7812L156.843 11.3348L156.955 10.9894L156.661 10.7758L152.028 7.40983H157.755H158.118L158.23 7.06434L160 1.61804Z" stroke="#CA6E55"/>
<path d="M210 1.61804L211.77 7.06434L211.882 7.40983H212.245H217.972L213.339 10.7758L213.045 10.9894L213.157 11.3348L214.927 16.7812L210.294 13.4152L210 13.2016L209.706 13.4152L205.073 16.7812L206.843 11.3348L206.955 10.9894L206.661 10.7758L202.028 7.40983H207.755H208.118L208.23 7.06434L210 1.61804Z" stroke="#554045"/>
</svg>
