<?xml version="1.0" encoding="UTF-8"?> <svg xmlns="http://www.w3.org/2000/svg" width="390.625" height="31.156" viewBox="0 0 390.625 31.156"><defs><style> .cls-1 { fill: #fff; fill-rule: evenodd; } </style></defs><path id="summer-menu-sub" class="cls-1" d="M125.006,276.888a4.849,4.849,0,0,0,2.283-1.586,4.071,4.071,0,0,0,.82-2.562,3.977,3.977,0,0,0-1.778-3.486,8.592,8.592,0,0,0-4.915-1.22h-8.088V286.37h8.332a9,9,0,0,0,5.3-1.289,4.288,4.288,0,0,0,1.778-3.7q0-3.624-3.73-4.5h0Zm-9.273-6.9h5.508a5.805,5.805,0,0,1,3.26.767,2.593,2.593,0,0,1,1.133,2.3,2.68,2.68,0,0,1-1.133,2.335,5.6,5.6,0,0,1-3.26.8h-5.508v-6.2Zm5.822,14.432h-5.822v-6.379H121.8a5.88,5.88,0,0,1,3.416.784,2.8,2.8,0,0,1,1.081,2.423,2.657,2.657,0,0,1-1.185,2.405,6.621,6.621,0,0,1-3.556.767h0ZM153.1,267.894a8.636,8.636,0,0,0-4.131.977,7.624,7.624,0,0,0-2.946,2.788v-3.625h-2.37v25.1h2.475V282.919a7.632,7.632,0,0,0,2.945,2.7,8.669,8.669,0,0,0,4.027.924,9.387,9.387,0,0,0,4.689-1.168,8.387,8.387,0,0,0,3.259-3.294,10.571,10.571,0,0,0,0-9.726,8.349,8.349,0,0,0-3.277-3.3,9.423,9.423,0,0,0-4.671-1.168h0Zm-0.174,16.454a6.925,6.925,0,0,1-3.5-.888,6.309,6.309,0,0,1-2.44-2.528,7.688,7.688,0,0,1-.889-3.73,7.587,7.587,0,0,1,.889-3.712,6.465,6.465,0,0,1,2.44-2.528,7.194,7.194,0,0,1,6.99,0,6.432,6.432,0,0,1,2.457,2.528,7.587,7.587,0,0,1,.889,3.712,7.688,7.688,0,0,1-.889,3.73,6.278,6.278,0,0,1-2.457,2.528,6.956,6.956,0,0,1-3.486.888h0ZM183.64,277.2a9.917,9.917,0,0,0-1.15-4.828,8.4,8.4,0,0,0-3.173-3.294,8.861,8.861,0,0,0-4.566-1.186,8.953,8.953,0,0,0-4.584,1.186,8.46,8.46,0,0,0-3.208,3.311,9.836,9.836,0,0,0-1.167,4.811,9.483,9.483,0,0,0,1.22,4.811,8.664,8.664,0,0,0,3.4,3.329,10.176,10.176,0,0,0,5,1.2,10.32,10.32,0,0,0,4.026-.767,7.85,7.85,0,0,0,3.051-2.231l-1.4-1.6a6.843,6.843,0,0,1-2.475,1.8,7.906,7.906,0,0,1-3.137.61,7.289,7.289,0,0,1-5.02-1.76,6.549,6.549,0,0,1-2.2-4.619h15.338Zm-8.889-7.181a6.281,6.281,0,0,1,4.479,1.691,6.641,6.641,0,0,1,2.04,4.409h-13a6.636,6.636,0,0,1,2.039-4.409,6.236,6.236,0,0,1,4.445-1.691h0Zm22.031,16.524a9.445,9.445,0,0,0,4.218-.924,7.018,7.018,0,0,0,2.964-2.7l-1.848-1.255a5.651,5.651,0,0,1-2.3,2.022,6.974,6.974,0,0,1-3.033.662,7.188,7.188,0,0,1-3.573-.888,6.28,6.28,0,0,1-2.475-2.51,8.307,8.307,0,0,1,0-7.478,6.242,6.242,0,0,1,2.475-2.527,7.178,7.178,0,0,1,3.573-.889,6.82,6.82,0,0,1,3.033.68,5.791,5.791,0,0,1,2.3,2.039l1.848-1.255a7.043,7.043,0,0,0-2.946-2.7,9.433,9.433,0,0,0-4.236-.924,9.888,9.888,0,0,0-4.863,1.186,8.614,8.614,0,0,0-3.364,3.311,10.129,10.129,0,0,0,0,9.639,8.566,8.566,0,0,0,3.364,3.329,9.877,9.877,0,0,0,4.863,1.186h0Zm24.507-18.511h-16.35v2.2h6.938v16.14h2.475V270.23h6.937v-2.2Zm10.319,18.511a9.53,9.53,0,0,0,4.776-1.2,8.651,8.651,0,0,0,3.329-3.329,10.229,10.229,0,0,0,0-9.622,8.532,8.532,0,0,0-3.329-3.311,10.209,10.209,0,0,0-9.552,0,8.644,8.644,0,0,0-3.347,3.311,10.1,10.1,0,0,0,0,9.622,8.765,8.765,0,0,0,3.347,3.329,9.525,9.525,0,0,0,4.776,1.2h0Zm0-2.2a6.925,6.925,0,0,1-3.5-.888,6.316,6.316,0,0,1-2.44-2.528,8.27,8.27,0,0,1,0-7.46,6.313,6.313,0,0,1,2.44-2.527,7.348,7.348,0,0,1,7.007,0,6.2,6.2,0,0,1,2.423,2.527,8.422,8.422,0,0,1,0,7.46,6.2,6.2,0,0,1-2.423,2.528,6.924,6.924,0,0,1-3.5.888h0Zm24.053-16.454a8.636,8.636,0,0,0-4.131.977,7.624,7.624,0,0,0-2.946,2.788v-3.625h-2.37v25.1h2.475V282.919a7.632,7.632,0,0,0,2.945,2.7,8.669,8.669,0,0,0,4.027.924,9.387,9.387,0,0,0,4.689-1.168,8.387,8.387,0,0,0,3.259-3.294,10.571,10.571,0,0,0,0-9.726,8.349,8.349,0,0,0-3.277-3.3,9.423,9.423,0,0,0-4.671-1.168h0Zm-0.174,16.454a6.925,6.925,0,0,1-3.5-.888,6.309,6.309,0,0,1-2.44-2.528,7.688,7.688,0,0,1-.889-3.73,7.587,7.587,0,0,1,.889-3.712,6.465,6.465,0,0,1,2.44-2.528,7.194,7.194,0,0,1,6.99,0,6.432,6.432,0,0,1,2.457,2.528,7.587,7.587,0,0,1,.889,3.712,7.688,7.688,0,0,1-.889,3.73,6.278,6.278,0,0,1-2.457,2.528,6.956,6.956,0,0,1-3.486.888h0Zm20.846-16.454a13.061,13.061,0,0,0-4.114.645,9.91,9.91,0,0,0-3.346,1.831l1.115,1.847a8.426,8.426,0,0,1,2.754-1.586,9.85,9.85,0,0,1,3.347-.575,5.474,5.474,0,0,1,3.869,1.237,4.7,4.7,0,0,1,1.325,3.608v1.116h-5.822q-3.695,0-5.385,1.429a5.037,5.037,0,0,0,.122,7.635,7.541,7.541,0,0,0,4.88,1.464,8.6,8.6,0,0,0,3.852-.8,5.671,5.671,0,0,0,2.458-2.231v2.858h2.37V275.006a6.938,6.938,0,0,0-1.917-5.316,7.765,7.765,0,0,0-5.508-1.8h0Zm-0.872,16.7a5.552,5.552,0,0,1-3.416-.924,3,3,0,0,1-1.22-2.528q0-3.276,4.706-3.277h5.752v3a5.725,5.725,0,0,1-2.231,2.772,6.523,6.523,0,0,1-3.591.959h0Zm14.886,1.777h2.475v-8.087H304.36v8.087h2.475V268.034H304.36v8.122H292.822v-8.122h-2.475V286.37Zm39.6-9.168a9.917,9.917,0,0,0-1.15-4.828,8.407,8.407,0,0,0-3.172-3.294,9.419,9.419,0,0,0-9.151,0,8.45,8.45,0,0,0-3.207,3.311A9.826,9.826,0,0,0,312.1,277.2a9.483,9.483,0,0,0,1.22,4.811,8.664,8.664,0,0,0,3.4,3.329,10.176,10.176,0,0,0,5,1.2,10.321,10.321,0,0,0,4.027-.767,7.854,7.854,0,0,0,3.05-2.231l-1.394-1.6a6.86,6.86,0,0,1-2.475,1.8,7.911,7.911,0,0,1-3.138.61,7.289,7.289,0,0,1-5.02-1.76,6.552,6.552,0,0,1-2.2-4.619h15.339Zm-8.889-7.181a6.285,6.285,0,0,1,4.48,1.691,6.645,6.645,0,0,1,2.039,4.409h-13a6.636,6.636,0,0,1,2.039-4.409,6.237,6.237,0,0,1,4.445-1.691h0Zm26.772,13.77h2.3l-4.95-6.589,4.95-6.623h-2.3l-5.054,6.623Zm6.206,0h2.3l-4.95-6.589,4.95-6.623h-2.3l-5.055,6.623Zm26.493,0.348V261.968H364.075l-0.279,7.913a50.874,50.874,0,0,1-1.15,10.441Q361.7,284,359.3,284.139h-1.22l-0.035,7.7h2.405l0.035-5.473h21.3v5.473h2.405v-7.7h-3.66ZM366.1,270.125l0.209-5.926h11.678v19.94H362.959q1.6-1.219,2.284-4.828a61.607,61.607,0,0,0,.854-9.186h0Zm38.52-2.231a9.343,9.343,0,0,0-4.357,1.011,8.534,8.534,0,0,0-3.19,2.841,9.33,9.33,0,0,0-1.517,4.2h-4.218v-7.913H388.86V286.37h2.475v-8.157h4.184a9.152,9.152,0,0,0,1.446,4.323,8.718,8.718,0,0,0,3.225,2.945,9.22,9.22,0,0,0,4.427,1.064,9.106,9.106,0,0,0,4.654-1.2,8.632,8.632,0,0,0,3.259-3.329,10.351,10.351,0,0,0,0-9.622,8.51,8.51,0,0,0-3.259-3.311,9.214,9.214,0,0,0-4.654-1.186h0Zm0,16.489a6.49,6.49,0,0,1-3.4-.906,6.384,6.384,0,0,1-2.388-2.545,8.422,8.422,0,0,1,0-7.46,6.265,6.265,0,0,1,2.388-2.527,6.942,6.942,0,0,1,6.8,0,6.265,6.265,0,0,1,2.388,2.527,8.422,8.422,0,0,1,0,7.46,6.384,6.384,0,0,1-2.388,2.545,6.49,6.49,0,0,1-3.4.906h0Zm37.231-16.349v16.175h-8.89V268.034h-2.475v16.175h-8.994V268.034h-2.475V286.37h25.309V268.034h-2.475Zm25.621,9.168a9.917,9.917,0,0,0-1.15-4.828,8.407,8.407,0,0,0-3.172-3.294,8.865,8.865,0,0,0-4.567-1.186A8.956,8.956,0,0,0,454,269.08a8.45,8.45,0,0,0-3.207,3.311,9.826,9.826,0,0,0-1.168,4.811,9.483,9.483,0,0,0,1.22,4.811,8.664,8.664,0,0,0,3.4,3.329,10.176,10.176,0,0,0,5,1.2,10.321,10.321,0,0,0,4.027-.767,7.854,7.854,0,0,0,3.05-2.231l-1.394-1.6a6.86,6.86,0,0,1-2.475,1.8,7.911,7.911,0,0,1-3.138.61,7.289,7.289,0,0,1-5.02-1.76,6.556,6.556,0,0,1-2.2-4.619h15.339Zm-8.889-7.181a6.285,6.285,0,0,1,4.48,1.691,6.645,6.645,0,0,1,2.039,4.409h-13a6.636,6.636,0,0,1,2.039-4.409,6.237,6.237,0,0,1,4.445-1.691h0Zm22.032,16.524a9.448,9.448,0,0,0,4.218-.924,7.016,7.016,0,0,0,2.963-2.7l-1.848-1.255a5.642,5.642,0,0,1-2.3,2.022,6.974,6.974,0,0,1-3.033.662,7.185,7.185,0,0,1-3.573-.888,6.283,6.283,0,0,1-2.476-2.51,8.307,8.307,0,0,1,0-7.478,6.244,6.244,0,0,1,2.476-2.527,7.175,7.175,0,0,1,3.573-.889,6.82,6.82,0,0,1,3.033.68,5.781,5.781,0,0,1,2.3,2.039l1.848-1.255a7.043,7.043,0,0,0-2.946-2.7,9.426,9.426,0,0,0-4.235-.924,9.882,9.882,0,0,0-4.863,1.186,8.607,8.607,0,0,0-3.364,3.311,10.129,10.129,0,0,0,0,9.639,8.559,8.559,0,0,0,3.364,3.329,9.871,9.871,0,0,0,4.863,1.186h0Zm12.061-2.754,5.055-6.589-5.055-6.623h-2.3l4.95,6.623-4.95,6.589h2.3Zm6.2,0,5.055-6.589-5.055-6.623h-2.3l4.95,6.623-4.95,6.589h2.3Z" transform="translate(-113.313 -261.969)"></path></svg> 