<?xml version="1.0" encoding="UTF-8"?> <svg xmlns="http://www.w3.org/2000/svg" width="521.782" height="46.812" viewBox="0 0 521.782 46.812"><defs><style> .cls-1 { fill: #fff; fill-rule: evenodd; } </style></defs><path id="summer-menu-h1" class="cls-1" d="M57.683,186.984L57.036,205.35q-0.388,9.443-1.875,13.871t-5.238,4.43a6.339,6.339,0,0,1-1.875-.259l-0.647,8.86a23.322,23.322,0,0,0,5.173.711,10.271,10.271,0,0,0,8.051-3.2q2.877-3.2,4.106-9.183a96.609,96.609,0,0,0,1.552-15.617l0.323-9.442h15.52v36.732H92.475V186.984H57.683Zm56.52,36.861V213.369H135.22V205.22H114.2v-9.829H138v-8.407h-34.21v45.268h35.05v-8.407H114.2Zm67.707-36.861H142.656v8.536h14.421v36.732h10.347V195.52H181.91v-8.536Zm37.636,0v17.848H198.982V186.984H188.506v45.268h10.476v-18.56h20.564v18.56h10.477V186.984H219.546Zm32.2,36.861V213.369h21.017V205.22H251.75v-9.829h23.8v-8.407H241.339v45.268h35.05v-8.407H251.75Zm43.521,0V213.369h21.017V205.22H295.271v-9.829h23.8v-8.407H284.86v45.268h35.05v-8.407H295.271ZM397.7,232.252l-0.064-45.268h-8.666L372.29,215.115l-16.943-28.131h-8.666v45.268h9.83V205.673l13.321,21.793h4.656l13.322-22.31,0.065,27.1H397.7Zm21.664-8.407V213.369h21.017V205.22H419.368v-9.829h23.8v-8.407h-34.21v45.268h35.051v-8.407H419.368Zm64.15-36.861v17.848H462.954V186.984H452.477v45.268h10.477v-18.56h20.564v18.56h10.476V186.984H483.518Zm61.758-.776a25.479,25.479,0,0,0-10.929,2.328A22.012,22.012,0,0,0,526.1,195.1a22.477,22.477,0,0,0-4.3,9.668h-6.079V186.984H505.311v45.268h10.411V213.821h5.95A22.208,22.208,0,0,0,534.153,230.6a25.34,25.34,0,0,0,11.123,2.425,24.771,24.771,0,0,0,12.254-3.04,22.217,22.217,0,0,0,8.569-8.374,24.732,24.732,0,0,0,0-23.992,22.227,22.227,0,0,0-8.569-8.375,24.781,24.781,0,0,0-12.254-3.039h0Zm0,37.9a13.016,13.016,0,0,1-6.791-1.811,12.73,12.73,0,0,1-4.785-5.109,17.266,17.266,0,0,1,0-15.132,12.73,12.73,0,0,1,4.785-5.109,13.636,13.636,0,0,1,13.581,0,12.736,12.736,0,0,1,4.785,5.109,17.266,17.266,0,0,1,0,15.132,12.736,12.736,0,0,1-4.785,5.109,13.02,13.02,0,0,1-6.79,1.811h0Z" transform="translate(-47.406 -186.219)"></path></svg> 