<?xml version="1.0" encoding="utf-8"?>
<!-- Generator: Adobe Illustrator 23.0.1, SVG Export Plug-In . SVG Version: 6.00 Build 0)  -->
<svg version="1.1" id="Layer_1" xmlns="http://www.w3.org/2000/svg" xmlns:xlink="http://www.w3.org/1999/xlink" x="0px" y="0px"
	 viewBox="0 0 293 319" style="enable-background:new 0 0 293 319;" xml:space="preserve">
<style type="text/css">
	.st0{fill:#6E9267;}
</style>
<path class="st0" d="M128,74.2c-0.1,0-0.6-0.1-1.1-0.4c-0.7-0.4-0.9-0.4-1.4,0.1c-0.6,0.6-0.5,0.8,1.8,7.8
	c2.3,7.1,4.7,12.6,7.4,16.9c0.6,1,1.2,2.1,1.3,2.6c0.5,1.7,11.6,12.4,20.7,19.9c1.5,1.3,4.3,3.6,6.2,5.2c4.7,3.9,4.6,4.8-0.1,1.4
	c-7-5.1-17.3-14.2-22.4-19.8c-5.7-6.3-5.6-6.1-6-5.9c-0.2,0.1-0.4,0-0.5-0.2c-0.1-0.2,0.2-0.4,0.6-0.6c0.4-0.1,0.6-0.4,0.6-0.7
	c-0.2-0.7-2.2-1.3-2.7-0.8c-0.6,0.5,0.2,2.3,3.7,8.3c3,5.1,6,9.2,9.3,12.6l2.3,2.4l-1,0.2c-0.7,0.1-1.1,0.3-1.1,0.8
	c-0.2,2.4,14.4,16.6,23.7,23.1l4.2,2.9l0.8,3.5c0.8,3.5,2.4,7,3.7,8.5c1,1,2.8,1.3,3.8,0.5c1.1-1,1.1-2.4-0.3-5.3l-1.2-2.6l1-3.1
	c0.5-1.7,2-6.1,3.3-10c2.9-8.5,4-13.2,4.8-20.3c1.1-9.8,1-11-1.1-10l-1.2,0.6l0.2-2c0.8-8.3,0.6-15-0.5-17.8
	c-0.5-1.5-0.8-1.7-1.7-1.9c-1.9-0.3-2.2-1.6-2.6-9.5c-0.4-8.4-0.9-11.9-2-11.9c-0.4,0-1.1,0.4-1.7,0.9c-0.6,0.5-1,0.9-1,0.8
	c0,0-0.5-3.8-1.1-8.3c-1.2-9.4-3-17.1-4.6-20c-1.2-2.2-1.9-2.4-3.1-1.1l-0.8,0.8l-1.6-5.6c-1.6-5.6-4.1-11.9-5.1-13.2
	c-0.7-0.9-1.8-0.6-2.9,1l-0.9,1.3l-0.4-0.8c-0.2-0.4-1.4-3.3-2.5-6.4c-1.2-3.1-2.7-7-3.5-8.6c-2.1-4.4-2.9-4.6-4.8-1.3
	c-0.8,1.3-1.4,2-1.8,2c-0.4,0-0.5,0.1-0.4,0.6c0.1,0.3-1.4,3.4-3.3,6.8c-3.6,6.4-5.5,11.1-6.9,16.7l-0.8,3.2l-0.7-1.5
	c-1.2-2.2-1.8-2.9-2.5-2.6c-0.8,0.4-1.2,3-1.3,10.1c-0.1,3.4-0.3,6.2-0.4,6.3c-0.1,0-0.5-0.4-0.8-1c-0.3-0.6-0.9-1.3-1.3-1.6
	c-0.6-0.5-0.7-0.4-1.1,0.2c-0.8,1.5,0.4,12.7,2.6,24.4C128.1,73.1,128.2,74.2,128,74.2z M166.3,126.2c-0.5-1.5-0.6-2.2-0.3-1.5
	c0.3,0.7,0.7,1.9,0.8,2.8C167,128.3,166.8,127.7,166.3,126.2z M172.7,147.7c-0.5,0.1-5.9-3.8-9.5-6.9c-7.1-6-15.9-15-16-16.2
	c0-0.4,0.3-0.4,1.6,0c2.8,0.9,2.5,0-1.1-3.6c-4-3.9-7-7.8-10.3-13.5c-3.7-6.2-3.7-6.2,0.9-1c1.8,2.1,4.7,5.1,6.5,6.8
	c3.8,3.6,14.6,12.7,17.1,14.4c4.1,2.7,5.9,4.4,6.3,5.9l0.4,1.4l-2.5-2.4c-1.4-1.3-2.8-2.5-3.1-2.5c-0.3,0,0.6,1.1,2,2.6
	c3,3,2.8,3-1.2-0.1c-1.6-1.2-3.3-2.4-3.7-2.7c-1.6-0.8-0.5,0.4,2.3,2.5c4.9,3.7,7.2,5.8,7.8,7.3l0.6,1.4l-1-0.7
	c-0.5-0.4-2.9-2.3-5.4-4.4c-3.9-3.3-5.2-4.2-4.9-3.3c0,0.1,2.7,2.4,5.9,5.1c3.2,2.7,5.8,5.1,5.8,5.3c0,0.2-3.9-2.8-8.7-6.8
	c-4.8-3.9-8.9-7.2-9.1-7.3c-1.4-0.4-0.3,0.5,15.3,13.4C171.4,144.9,173.5,147.5,172.7,147.7z M169.1,133.8c0.2,0.4,0.4,1.1,0.5,1.6
	c0,0.5-0.1,0.1-0.4-0.7C168.9,133.8,168.9,133.4,169.1,133.8z M173,132.8c-1.1-1.4-1.1-2.8,0.2-7.9c2.5-9.6,4.4-22.2,5.8-38.2
	c0.5-5.3,1-9.6,1-9.6c0.1,0,0.1,2.1,0.1,4.6c-0.1,15.2-1.4,25.7-5.7,46.4C173.7,132.1,173.3,133.2,173,132.8z M176.7,156.2
	c-0.3-1-0.4-1.4-0.1-1c0.2,0.4,0.4,1.2,0.5,1.7C177.2,157.5,177,157.2,176.7,156.2z M181.2,88.6c0-1.9,0.1-3.5,0.1-3.5
	c0,0,0.3,1.1,0.6,2.5l0.5,2.5l1.6,0.8c2,1,2.2,1.6,2.4,6.4c0.2,5.1-0.6,14-1.3,15c-0.3,0.5-3.4,12.4-3.3,12.8
	c0.3,0.9,0.9-0.9,2.1-5.8c0.9-3.6,1.6-5.6,1.8-5.4c0.2,0.2,0.8,0.1,1.6-0.2c0.7-0.4,1.2-0.4,1.3-0.2c0.2,0.7-0.9,10-1.8,14.2
	c-0.5,2.3-1.6,6.4-2.5,9.1c-5,14.7-4.9,14.4-5.3,13.6c-0.2-0.6,0-1.8,0.8-4c0.6-1.7,1.9-6.1,2.8-9.7c4.3-17.1,5.5-21.8,5.2-21.9
	c-0.4-0.3-1.1,1.9-3.9,13.5c-2.7,10.7-3.2,12.8-3.1,11.2c0-0.3-0.1-0.5-0.3-0.5c-0.2,0.1-0.9,2-1.5,4.3c-1.1,4-1.2,4.2-1.6,3.1
	c-0.4-0.9-0.1-2.2,1.5-7.5c1.1-3.6,1.9-6.8,1.9-7.3c-0.1-1.3-0.4-0.4-2.4,6.2c-1.5,4.9-1.9,5.9-2.1,5.1c-0.2-0.6,0.3-2.9,1.4-6.8
	c1.6-5.5,2.2-8,2.1-8.4c-0.2-0.7-0.7,0.2-1.2,2.3c-0.3,1.3-1.2,4.3-1.9,6.6c-1.1,3.6-1.3,4.1-1.6,3.3c-0.3-0.6-0.1-1.9,0.5-3.8
	c1.2-4,3.1-15,2.7-15.7c-0.2-0.3-0.8,2.2-1.4,5.6c-1.3,7.9-2.3,11.5-2.8,10.5c-0.2-0.5,0.4-4,1.5-9.5c1.5-6.8,2-8.7,2.5-8.7
	c1,0,1.3-1.1,0.5-1.6c-0.7-0.4-0.7-0.8,0-4.4C179.7,106.6,181.1,92.9,181.2,88.6z M174,52.6c0.3,1.5,1,6.4,1.6,10.8
	c0.9,7.3,1,8.1,1.7,8.4c0.7,0.4,0.8,0.3,1.8-0.6c0.6-0.5,1.2-0.9,1.3-0.9c0.1,0.1-0.1,0.3-0.4,0.5c-0.4,0.3-0.9,3.5-1.7,12
	c-1.7,18.9-3.3,30.6-5.5,39.7l-1.3,5.6l-0.7-2c-0.7-2-0.7-2.2,1.3-12.8c1.1-5.9,1.9-10.8,1.9-11c-0.3-1-0.9,1.4-2.4,9.9
	c-1.5,8.3-1.9,9.7-2.2,8.8c-0.3-0.7-0.3-1.7,0-2.8c0.6-2.4,3.2-20.8,3-21.4c-0.3-1-0.8,1-1.4,6c-0.4,2.8-1.1,7.6-1.6,10.5
	c-0.8,4.7-0.9,5.3-1.3,4.4c-0.3-0.8-0.2-2.3,0.6-6.2c1.7-8.7,4-25.8,3.5-26.1c-0.4-0.2-0.5,0.4-2.4,13.8c-1.1,7.5-2.3,14.1-2.4,13.5
	c-0.3-1,4.3-41.4,4.8-42.1c0.2-0.3,0.7-3.8,1.1-7.8c1-9.6,0.9-8.8,0.3-8.3c-0.4,0.3-0.5,0.3-0.5-0.1c0-0.3,0.1-1.4,0.1-2.5
	c0.1-1.1,0.2-2.1,0.3-2.1C173.3,49.8,173.6,51,174,52.6z M171.2,46.4c0-2.5,0.1-2.9,0.5-2.2c0.3,0.4,0.8,1.6,1.1,2.6
	c0.5,1.4,0.5,1.9,0,2.3c-0.3,0.3-0.5,1.3-0.5,2.2c0,4.2-1.2,17-3.3,36.6c-1.3,11.8-2.5,22-2.6,22.7c-0.2,1.2-0.2,1.1-0.7-1.2
	c-0.7-3.4-0.5-8.9,0.6-17.3C170.5,60.7,171.2,54.1,171.2,46.4z M163.7,32.1c0.1,0,0.9,2.5,1.8,5.6c0.9,3.1,1.8,5.9,1.9,6.2
	c0.1,0.3-0.2,3.2-0.6,6.4c-1.2,8.8-1.3,10.5-0.6,10.3c0.2,0,0.3-0.9,0.4-1.9c0.1-1,0.5-4.7,1-8.2c0.7-4.8,1.1-6.6,1.8-7.6l0.9-1.3
	l-0.1,3.5c-0.1,6.9-0.7,14.5-1.7,22.4c-0.6,4.5-1.4,10.9-1.8,14.4c-0.4,3.5-1.1,8.5-1.4,11.1c-0.4,2.7-0.7,6.3-0.8,8l-0.1,3.2
	l-0.9-2.9c-0.8-2.5-0.8-3.3-0.5-6.4c0.2-2,0.9-6.6,1.6-10.4c0.7-3.8,1.2-7,1.3-7.2c0-0.2-0.1-0.3-0.3-0.2c-0.5,0.2-1.6,6-3.4,18.1
	c-0.1,0.9-0.2,0.7-0.4-0.8c-0.4-2.6-0.1-7.2,1.1-16.3c1.1-8.7,1.1-8.8,0.7-8.7c-0.3,0-2.3,12.5-2.7,17.1c-0.1,1.5-0.3,2.7-0.3,2.7
	c-0.3-0.3-2.4-11.1-2.1-11.4c0.2-0.2,0.3-1.2,0.4-2.3c0-1.1,0.5-4.2,1-6.7c2.5-13.1,3-16.4,3.5-20.9c0.3-2.6,0.6-7.3,0.5-10.3
	C163.6,34.6,163.7,32.1,163.7,32.1z M164.8,121.5c-0.3-0.2-0.8-1.4-1.1-2.5c-0.8-2.7,0.2-1.8,1,1
	C165.1,121.4,165.2,121.8,164.8,121.5z M160.9,108.4c0.3,0.3,0.7,1.1,0.8,1.6c0.3,0.8,0.2,0.9-0.2,0.6c-0.3-0.2-0.7-1-0.8-1.6
	C160.5,108,160.5,107.9,160.9,108.4z M160.4,106.5c-0.7-0.6-1.8-4.4-1.4-4.5c0.2-0.1,0.7,1,1.1,2.4
	C160.6,106.1,160.7,106.8,160.4,106.5z M162.2,112.6c0.3,0.3,0.7,1.2,0.9,1.9c0.3,0.8,0.2,1.3,0,1.2c-0.2-0.1-0.6-0.9-0.9-1.9
	C161.8,112.5,161.8,112.1,162.2,112.6z M158.3,98.3c-0.4,0.1-0.8-1-0.9-2.7c-0.2-1.7,0.1-1.5,0.7,0.7
	C158.4,97.4,158.5,98.3,158.3,98.3z M161.2,29.6c-0.1-4.3,0-4.5,0.9-2c0.6,1.8,0.8,3.3,0.8,8.3c0,3.4-0.1,7.4-0.2,9.1
	c-0.4,4-2.4,16-3.4,20.5c-0.5,2.1-1.1,5.3-1.3,7.3c-0.2,2-0.5,3.1-0.5,2.4c-0.3-3.1,0.1-8,1.3-15C160.7,47.2,161.4,39,161.2,29.6z
	 M154.6,22.1l0.9,2.3c0.5,1.3,1.1,2.4,1.5,2.6c0.5,0.3,0.8,0.1,1.8-0.9c0.7-0.7,1.3-1.2,1.4-1.1c0.3,0.2,0.4,10.7,0.1,15.4
	c-0.3,5.1-1.4,14.1-2.3,19.5c-0.4,2.2-0.9,5.4-1.1,7.2c-0.4,3.1-0.4,3.1-0.7,1.5c-0.3-1.7,0.2-7.6,1.2-14.6c0.3-1.9,0.5-3.6,0.4-3.8
	c-0.3-1-0.9,1.5-1.5,6.5c-0.9,7.6-0.9,7.5-1.4,5c-0.5-2.8-0.1-7.3,1-11.9c1-3.9,1-4.1,0.5-4c-0.4,0.1-1.3,3.1-2,7.1
	c-0.6,3.3-0.6,3.4-0.9,1.8c-0.7-4.7-0.7-5.8,0.5-11.8c0.7-3.4,1-6.2,0.8-6.3c-0.2,0-0.8,2.2-1.4,4.9c-1,4.5-1.1,4.8-1.3,3.4
	c-0.1-0.9,0.3-5,0.9-9.2c0.6-4.2,1.2-8.9,1.3-10.5L154.6,22.1z M157.1,91.9c0,0.3-0.2,0.1-0.3-0.4c-0.1-0.5-0.1-0.7,0-0.5
	C157,91.3,157.1,91.7,157.1,91.9z M155.5,85.2c0,0.3-0.1,0.3-0.3-0.1c-0.1-0.3-0.1-0.6,0-0.5C155.4,84.6,155.5,84.9,155.5,85.2z
	 M154.4,78.9c0,0.4-0.1,0.2-0.3-0.4c-0.2-0.6-0.2-0.9,0-0.7C154.2,78.1,154.4,78.5,154.4,78.9z M150,16.4c0.2-6.2,0.3-6.3,2.4-0.7
	c1.5,3.9,1.6,5.5,1.1,10.8c-0.4,3.8-1.7,12.2-1.9,12.1c-0.1-0.1-0.1-9.9,0-14.3c0-0.3-0.2-0.4-0.4-0.2c-0.2,0.2-0.4,1.7-0.5,3.5
	c0,1.8-0.1,3-0.2,2.8C150.1,29.5,149.8,21.7,150,16.4z M150.8,69.2c-0.7-1-1.3-2.1-1.4-2.3c-0.1-0.6,2.2,2.7,2.4,3.5
	C152,70.8,151.5,70.2,150.8,69.2z M149.3,50.2c0.2,0.5,0.5,1.4,0.6,1.9c0.1,0.5-0.1,0.1-0.4-0.9C149.1,50.1,149.1,49.7,149.3,50.2z
	 M148.6,45.4c0.2,0.3,0.3,0.8,0.4,1.2c0,0.4-0.1,0.1-0.3-0.6C148.5,45.4,148.4,45.1,148.6,45.4z M148.3,39.9l-0.7-2.7
	c-0.4-1.5-0.6-3-0.5-3.5c0.1-0.5,0.1-1.6-0.1-2.6c-0.2-1.2-0.1-1.6,0.1-1c0.2,0.5,0.5,2.8,0.7,5.3L148.3,39.9z M147,24
	c-0.1-0.3-0.1-0.6,0-0.5c0.1,0.1,0.3,0.4,0.2,0.7C147.3,24.4,147.2,24.4,147,24z M147.4,25.6c0,0.3-0.1,0.3-0.3-0.1
	c-0.1-0.3-0.1-0.6,0-0.5C147.3,25,147.4,25.3,147.4,25.6z M145.9,12.1c0.5-0.3,0.8-0.6,0.7-0.9c-0.1-0.5,0.9-2.5,1.1-2.3
	c0.1,0.1-0.2,2.4-0.6,5.2c-0.4,2.8-0.8,5.4-0.8,5.7c-0.1,1-0.5-0.6-0.8-3.2C145,12.8,145.1,12.6,145.9,12.1z M143.5,15.7
	c0.4-0.8,0.8-1.4,0.9-1.3c0.1,0.1,0.3,1.1,0.4,2.3c0.1,1.2,0.5,3.7,0.8,5.6c0.6,3.6,0.7,5.8,0.1,4.1c-0.2-0.5-0.5-2.6-0.9-4.9
	c-0.7-4.6-1-5.7-1.3-5.4c-0.3,0.3,0.3,4.4,1.7,11.8c0.5,2.8,0.9,5.3,0.9,5.5c-0.1,0.2-0.3-0.5-0.5-1.5c-0.2-1-0.9-4.7-1.6-8.3
	C142.8,17.3,142.8,17.2,143.5,15.7z M141.6,19.3c0.2-0.5,0.5-0.8,0.6-0.8c0.1,0.1,0.6,2.4,1.1,5.1c0.5,2.7,1.3,7,1.9,9.5l1,4.4
	l-1.3-3.4c-0.7-1.9-1.8-5.8-2.5-8.7C141.4,21.1,141.3,20,141.6,19.3z M134.1,38.7c0.2-0.4,0.5-1.2,0.7-1.6c0.2-0.6,0.5,0.1,1.6,3.8
	c0.8,2.7,1.6,4.7,1.8,4.7c0.3,0.1-0.1-1.7-1.1-5c-0.8-2.8-1.4-5.2-1.2-5.4c0.1-0.2,0.8,1.5,1.6,3.8c1.2,3.6,1.8,5,2.1,4.3
	c0-0.1-0.6-2.2-1.5-4.7c-1.1-3.3-1.7-4.4-2-4.3c-0.2,0.1-0.5,0-0.5-0.2c-0.2-0.5,1.6-6.2,2.4-7.6c0.5-1,0.3-1.7,2,6.2
	c0.6,2.8,1.4,3.4,0.9,0.6c-1-5.5-1.8-8.1-2.2-8c-0.3,0.1,0-0.8,0.6-1.9c0.6-1.1,1.1-2,1.1-2c0,0,1.2,3.8,2.5,8.5
	c1.4,4.6,2.4,8.6,2.3,8.8c-0.1,0.2,0.4,1.8,1.2,3.6c0.8,1.9,1.4,4,1.5,4.8c0.1,0.8,0,1.2-0.1,0.9c-0.1-0.3-0.4-0.6-0.6-0.5
	c-0.3,0.1-0.1,0.8,0.5,2.2c1,2.4,3,10.4,2.4,10c-0.2-0.1-2.9-5.6-5.9-12.1c-3-6.5-5.7-12-5.9-12.1c-0.7-0.4-0.2,0.7,6.4,15
	c5.1,11,6.5,14.3,6.7,15.7l0.2,1.8l-1.5-2.2c-0.8-1.2-2.2-3.4-3-4.9c-1.6-3-2.6-3.7-1.4-1c0.5,1.2,0.3,1-1-1
	c-0.9-1.4-1.8-2.7-1.9-2.8c-0.9-0.5,0.2,1.4,4.6,8.7c5,8.1,5,8.2,5.4,10.9c0.2,1.5,0.4,2.8,0.5,2.9c0.1,0.6-3.5-5.2-5.4-8.8
	c-2.8-5.2-10.6-21.6-12.6-26.6C133.8,39.8,133.7,39.4,134.1,38.7z M134.7,44.1c2,5.1,9.1,20.2,11.9,25.3c1.2,2.2,3.3,5.7,4.6,7.7
	c1.3,2,2.6,4.3,2.8,5.1c0.6,2.2,0,1.4-3.8-4.7c-3.8-6.2-4.4-7.3-10.7-20.4c-3.7-7.7-5-10.9-6.3-15C131.3,36.3,131.9,37.1,134.7,44.1
	z M129.2,51.2c0.3-0.4,0.6-2.3,0.6-5c0.1-2.4,0.2-5.3,0.2-6.6l0.1-2.3l0.8,2.2c0.4,1.2,1.4,3.9,2.2,6c4.4,11.1,14.5,30.3,19.7,37.7
	c2.3,3.2,2.5,4.3,0.3,1.7c-1.8-2.2-2.8-3-2.5-2.2c0.1,0.2,1.1,1.6,2.2,3c1.1,1.4,2.2,3.1,2.4,3.7c0.2,0.8-0.9-0.5-4.1-4.5
	c-3.9-4.9-5.2-6.4-4.8-5.1c0.1,0.2,2.2,3,4.7,6.2c3.3,4.2,4.7,6.3,5,7.4c0.9,3.2,0.4,2.9-3.7-2.1c-6.7-8.1-15.7-22.7-21.9-35.5
	C128.6,51.9,128.6,51.9,129.2,51.2z M126.3,49.5c0.1-0.3,0.3,0,0.5,0.6c0.2,0.6,1.1,2.6,2,4.5c6.4,13.8,15.8,29,23.7,38.3
	c2.6,3,4.7,5.7,4.7,6c0,0.7-11.5-11.8-14.7-16.1C134.6,72.1,125.3,52.9,126.3,49.5z M126.8,55.9c0.2,0,0.5,0.6,0.8,1.5
	c1.3,4.5,8.3,17.4,13,24c3.7,5.3,6.8,8.8,12.3,14.4c4.3,4.4,4.6,4.8,5,6.5l0.4,1.9l-1.9-2.3c-3.6-4.3-4.4-5.2-4.6-4.9
	c-0.1,0.2,1.4,2.3,3.5,4.8c2.3,2.8,3.9,5,4.1,5.7c0.3,1-0.1,0.8-2.7-2.1c-1.7-1.8-4.7-5.5-6.7-8.1c-4.7-6-5.6-7-5.6-6.5
	c-0.1,0.9,8.9,12.2,14.1,17.8c1.4,1.5,2,2.4,2.3,3.7c0.3,1.2,0.3,1.5,0,1.2c-0.3-0.2-3.2-3-6.4-6.1C143.6,96.9,139.4,92,134,83.7
	c-1.3-2.1-2.6-3.9-2.7-3.9c-1.1-0.6,1.6,3.9,5.8,9.8c3.5,4.9,8,9.9,14.9,16.5c9.8,9.4,9.9,9.5,10.5,11.6l0.5,1.9l-1.2-1.1
	c-0.6-0.6-2.6-2.5-4.3-4.2c-1.7-1.7-3.2-2.9-3.2-2.7c0,0.3,2.1,2.6,4.7,5.2c2.6,2.6,4.7,5,4.7,5.3c0,0.4-0.8-0.3-2.3-1.9
	c-4.3-4.6-9.9-10-10.2-9.9c-0.5,0.2-1-0.3,11,11.8c2.3,2.3,3,3.2,3.2,4.2c0.2,1.2,0.1,1.1-4.1-2.6c-2.4-2.1-5.4-4.8-6.7-6
	c-1.3-1.2-4.4-4-7-6.3c-6.7-5.9-7.8-7.1-10.8-12.3c-3.9-6.6-6.7-12.9-8.4-18.8l-1.5-5l1,0.3c0.9,0.3,1,0.2,1.4-0.4
	c0.4-0.8,0.3-1.9-0.8-7.4C127.3,62.2,126.5,56.1,126.8,55.9z M139.8,24.8c0-0.3,0.1-0.5,0.3-0.4c0.6,0.4,3.2,11.4,2.7,11.6
	C142.6,36.1,139.8,25.9,139.8,24.8z M173.8,63c0.2-0.1,0.3,0,0.4,0.2c0.1,0.5-0.6,8.4-0.8,8.8c-0.5,0.9-0.5-0.6-0.2-4.7
	C173.3,65,173.6,63,173.8,63z M174.1,71.7c0.2-1.7,0.6-2.7,0.9-1.9c0.2,0.6-0.4,4.4-0.6,4.5C173.9,74.3,173.8,73.9,174.1,71.7z
	 M173.4,80.8c-0.1-0.1-0.2-1-0.2-2.1c0.1-1.8,0.5-2.7,0.8-1.6C174.3,77.8,173.7,81,173.4,80.8z M176,81.4c0.1-2.2,0.3-4,0.5-4
	c0.2-0.1,0.3,0,0.4,0.2c0.2,0.6-0.2,7.1-0.5,7.6C175.9,86.2,175.8,85.1,176,81.4z M174.4,109.1c0.2,0.7-1.5,8.1-1.9,8
	c-0.2-0.1,0-1.9,0.4-4.1C173.7,109.4,174.2,108.2,174.4,109.1z M181.2,107.6c0.2-1.3,1.4-10.8,1.9-15c0.1-0.7,0.3-1.3,0.5-1.4
	c0.2-0.1,0.4,0.1,0.4,0.4c-0.1,1.4-1.5,12.7-1.9,15c-0.2,1.5-0.6,2.6-0.8,2.6C181.1,109.1,181,108.5,181.2,107.6z M183.7,104.3
	c0.6-3.7,1.2-6.6,1.4-6.4c0.3,0.3-1.3,12.1-1.8,13C182.6,112.3,182.7,110.2,183.7,104.3z M185.1,106.7c0.2,0.8-0.3,4.3-1.1,6.9
	c-0.5,1.5-1.2,4.2-1.7,6c-0.5,1.8-1,3.1-1.2,2.9c-0.2-0.3,1.2-6.1,2.6-10.8c0.3-0.8,0.5-2.3,0.5-3.3
	C184.4,106.8,184.9,105.8,185.1,106.7z M151.5,122.8c-0.2-0.8,0.3-0.4,2.2,1.6c1.1,1.2,1.8,2.1,1.6,2.2
	C154.9,126.7,151.7,123.5,151.5,122.8z M281.8,203.3c-0.4-0.3-2-0.9-3.5-1.3c-1.5-0.4-6.5-1.7-11.2-3c-11-3-19.6-4.7-28.1-5.5
	c-7.7-0.7-8.3-0.8-8.1-1.8c0.1-0.3-0.2-0.9-0.5-1.1c-1.3-1-17.5,0.8-24.9,2.7l-4.9,1.3l0.1-1.3c0.1-1.1,0-1.3-0.7-1.4
	c-3-0.5-18.7,4.3-29.6,9c-2.8,1.2-3.9,1.6-3.7,1.1c0.8-1.7,0-2.8-1.4-1.9c-0.5,0.3-5.1,2.7-10.3,5.4c-9.9,5.1-12.7,6.9-19.7,12.4
	l-4.3,3.4l0-1.2l0-1.2l-1.1,0.2c-2.2,0.5-9.2,7-15.7,14.6c-3.3,3.9-8.5,11.2-10.4,14.6l-0.8,1.4l0.4-3.4c1.3-10.8,1.5-13.4,1.2-14.6
	c-0.4-1.8-1-2.2-2.9-1.7l-1.6,0.4l0.7-4.4c1.9-12.7,2.1-15.8,1.5-20.9c-0.3-2.8-1.1-3.8-2.8-3.7c-1,0.1-1,0.6-0.8-6.9
	c0.2-8.2-1-16.6-3.6-24.5c-0.9-2.8-1.4-3.6-2.2-4.1c-0.8-0.5-1.1-0.5-2,0.1c-0.5,0.4-1.1,0.7-1.2,0.6c-0.1-0.1-0.3-1.6-0.4-3.3
	c-0.3-4.2-3.4-20.9-4.4-24.1c-1.4-4.2-3.1-5.4-5.2-3.5c-1,0.9-0.8,1.1-2.1-4.3c-1.1-4.7-4.6-13.8-5.5-14.5c-0.4-0.3-1-0.5-1.4-0.4
	c-0.5,0.1-0.8-0.4-1.6-3.5c-2.2-8.3-4.9-14.9-8.6-21.3c-1-1.7-2.9-5.3-4.2-8.1c-2.5-5.3-6.6-15.9-6.5-16.9c0-0.3,0.3-1.2,0.5-1.9
	c0.3-1.1,0.2-1.5-0.3-1.9c-0.4-0.3-0.9-0.4-1.1-0.3c-1.2,0.7-12.1,18.1-14.7,23.4c-1.7,3.4-2.3,4.4-2.9,4.6c-1,0.4-3,5.3-5.5,13.2
	c-1,3.3-2.2,7.3-2.8,9l-0.9,3.1l-0.7-1.7c-0.4-1.1-1.1-1.9-1.6-2.3c-0.8-0.5-0.9-0.4-1.9,0.8c-1.6,2.2-3.1,10.6-3.9,22.4
	c-0.3,4.1-0.4,4.4-1.3,5.1c-1.9,1.3-1.8,2.9,0.3,9c1.5,4.3,2.5,6.5,5.2,11.2l1.9,3.3l-1.5,0.4c-0.8,0.2-1.7,0.7-1.9,1.1
	c-0.6,1.1,1,3.6,5.2,8.1c3.4,3.7,15.3,15,17.2,16.5c1,0.8,0.2,0.8-3.5,0.3c-4.6-0.6-5.4,0.8-3,5.5c1.8,3.5,3.4,5.5,7.7,9.6
	c8.7,8.3,8.7,8.4,7.8,8.6c-1.5,0.4-1.9,1.4-1.3,2.8c0.5,1.1,1.3,1.8,7.8,6.7l7.2,5.4l-1.1,0.5c-0.6,0.3-1.3,0.8-1.5,1.1
	c-0.8,1.1-0.2,1.9,4.3,5.7c7.3,6.2,10.3,9.8,15.3,18.8c3.5,6.4,4.8,9.8,5.6,15.6l0.7,4.4l-1.5,0.1c-2.9,0.1-4.8,1.6-5.2,4.1
	c-0.1,0.7,0.1,2.4,0.6,3.9c0.4,1.5,0.7,3.3,0.5,4.2c-0.1,0.8-0.2,1.7-0.1,2c0.1,0.3-1.1,3.5-2.7,7.1c-4.2,9.8-6.9,16.6-6.9,17.4
	c0,0.4-0.2,0.9-0.4,1.1c-0.3,0.3-0.4,0.6-0.3,0.8c0.3,0.7,3.6,1.3,4.5,0.8c0.5-0.3,1.1-0.5,1.5-0.7c0.6-0.2,0.9-0.8,1.7-3.1
	c2.6-7.8,6.1-14.6,11.2-22.3c2.8-4.2,5-8.2,8.8-15.5c0.5-0.9,0.8-1,3.5-1.1c4.6-0.1,9.9,0.3,15,1.2c5.8,1,8.5,1.8,17.1,4.8
	c7.2,2.5,8.1,2.6,8.2,0.8c0-0.9,0.1-0.9,1.7-0.8c0.9,0.1,2.9,0.3,4.5,0.6c1.6,0.2,4.1,0.5,5.7,0.7c1.6,0.1,3.2,0.3,3.6,0.5
	c0.4,0.2,0.9,0.2,1,0.1c0.1-0.1,1.6-0.1,3.4-0.1c1.7,0.1,5.7,0,8.6-0.2c3.5-0.2,5.7-0.1,6.1,0.2c0.4,0.3,0.9,0.4,1.1,0.4
	c0.2-0.1,0.1-0.4-0.4-0.7c-0.5-0.4-0.6-0.6-0.3-0.7c0.2-0.1,0.4-0.5,0.4-0.9c0-0.6,0.1-0.7,1-0.7c5.5,0.2,17-1,19.3-2.1
	c1-0.5,1.2-1.6,0.4-2.2c-0.5-0.4-0.4-0.5,1.2-1c1-0.3,4.9-1.9,8.8-3.5c10.5-4.3,11.1-4.6,10.5-5.9c-0.2-0.6-0.1-0.7,1.2-1.3
	c1.7-0.8,2.6-1.8,2-2.2c-1.2-1,1.5-2.7,3.4-2.2c0.7,0.2,1.5,0.2,1.6,0c0.1-0.2,0-0.4-0.3-0.5c-0.3-0.1-0.8-0.2-1.2-0.3
	c-0.6-0.2,2.7-1.9,7.4-3.9c3.6-1.5,4.2-2.5,1.7-2.9c-0.7-0.1-1.3-0.3-1.5-0.4c-0.2-0.1,1.2-0.8,3.1-1.6c3.4-1.4,14-7.3,15.5-8.6
	c0.6-0.5,0.6-0.8,0.2-1.2l-0.5-0.6l1.8-1.2c1-0.6,3.2-2.3,4.8-3.6c2.6-2.1,3-2.6,2.9-3.2c-0.1-0.6-0.3-0.8-1-0.9
	c-0.5-0.1-0.8-0.2-0.7-0.3c0.1-0.1,2-1.4,4.1-2.9c2.7-1.9,4.4-3.3,5.3-4.5l1.4-1.7l-1.1-0.7l-1.1-0.7l2.4-1.7
	c1.3-0.9,4.3-3.2,6.6-5.1C282.3,205.7,283.3,204.4,281.8,203.3z M232.4,195c0.2-0.4,1.4-0.4,4.1-0.2c2.1,0.2,3.9,0.4,3.9,0.5
	c0,0.1-1.8,1.5-4.1,3.2c-5.1,3.8-14.4,11.4-14.4,11.8c0.1,0.5,0.6,0.2,4.9-3.3c5.1-4.2,12.8-10.2,14.4-11.1c0.8-0.5,2-0.5,4.6-0.2
	c3.4,0.4,12.4,2.3,12.5,2.5c0,0.1-1.7,1.1-3.8,2.3c-3.8,2.1-15.7,9.8-18.7,12.2c-1.2,0.9-1.5,1.3-1.4,1.7c0.3,0.7,0.8,0.5,2.7-1
	c5.6-4.4,14.1-10,20.2-13.3c2.7-1.5,2.8-1.5,5.1-0.8c1.3,0.3,5.4,1.4,9.2,2.4c7,1.8,7.4,2,7.2,2.2c-0.5,0.6-24.2,7.8-24.2,7.3
	c0-0.1,2-1.7,4.4-3.6c3.9-3,5.1-4.1,4.1-3.9c-0.1,0-2.6,1.8-5.5,4.1c-4.3,3.3-5.6,4.1-7.1,4.5c-1,0.3-1.9,0.4-1.9,0.2
	c0-0.3,8-6.4,11.2-8.6c2.5-1.7,3.1-2.2,2.7-2.5c-0.3-0.2-5.7,3.6-11.9,8.4c-3.9,3-4.6,3.4-6.7,3.9c-1.3,0.3-2.4,0.5-2.4,0.4
	c0-0.3,7.6-5.9,11.1-8.1c1.6-1.1,4.5-2.8,6.4-3.8c1.9-1.1,3.5-2,3.4-2.2c-0.1-0.5-0.9-0.1-5.4,2.4c-4.9,2.8-9,5.6-14,9.4
	c-3.4,2.7-3.9,2.9-9.3,3.8l-3.2,0.6l1-1.1c2.7-2.8,5-5.6,4.7-5.8c-0.3-0.2-1.4,0.9-5,4.9c-2,2.2-2.2,2.3-4.2,2.7
	c-2.4,0.5-2.4,0.4,1.4-3.2c3.1-3,3.5-3.5,2.8-3.4c-0.3,0-1.9,1.5-3.6,3.2c-1.7,1.7-3.4,3.3-3.7,3.6c-0.3,0.3-1.4,0.7-2.4,0.9
	l-1.9,0.4l1-1c0.6-0.6,2.5-2.4,4.3-4.2c3.7-3.5,4-3.9,3.7-4.2c-0.2-0.2-5.2,4.4-9.1,8.4c-1.2,1.2-1.8,1.4-5.9,2.3
	c-2.6,0.5-4.6,0.9-4.6,0.7c0-0.1,0.8-1.1,1.7-2.1c1.3-1.4,1.9-1.8,2.3-1.6c0.3,0.2,0.9-0.1,1.5-0.8c3.7-4,13-12.4,17.9-16.1
	c3.7-2.8,3.8-2.9,3.3-3.3c-0.7-0.5-14.6,10.9-19.6,16c-0.8,0.8-1.7,1.6-2,1.7c-0.3,0.1-2,1.6-3.8,3.5c-3.2,3.2-3.4,3.4-5.3,3.9
	c-1.1,0.3-2,0.4-2,0.3c0-0.1,1.5-1.6,3.3-3.4c3.8-3.6,4.5-4.5,3.9-4.6c-0.5-0.1-0.8,0.2,3.7-4.2c4.2-4.2,8.3-7.5,14.4-11.7
	C230.4,196.8,232.3,195.3,232.4,195z M203.7,219.9c0.4-0.6,0.7-0.7,0.5-0.4c-0.1,0.3-0.5,0.8-0.8,1
	C203.1,220.7,203.2,220.4,203.7,219.9z M205.4,218.2c0.4-0.5,0.6-0.7,0.5-0.4c-0.1,0.3-0.4,0.6-0.7,0.9
	C205,218.9,205,218.7,205.4,218.2z M207.1,216.5c0.3-0.4,0.5-0.5,0.4-0.3c-0.1,0.3-0.3,0.6-0.6,0.7
	C206.7,217.1,206.8,216.9,207.1,216.5z M208.7,215c0.3-0.4,0.5-0.5,0.4-0.3c-0.1,0.3-0.3,0.6-0.6,0.7
	C208.4,215.6,208.4,215.4,208.7,215z M222.9,192.3c6.2-0.5,6.3-0.5,6.4,0.4c0.1,0.8,0.3,1,1.1,1.2c0.5,0.1,0.9,0.3,0.8,0.5
	c-0.1,0.1-2.1,1.5-4.5,3.2c-5.8,4-9.3,6.9-15.3,12.6c-2.7,2.6-6.9,6.6-9.3,8.9l-4.4,4.2l-2.7,0.7c-1.5,0.4-2.7,0.7-2.8,0.6
	c0-0.2,5.9-5.7,9.4-8.8c2.4-2.1,3.2-3.1,2.4-3c-0.4,0.1-5.5,4.6-9.7,8.6l-3.9,3.7l-4.3,1.2c-3.6,1-4.3,1.1-3.9,0.5
	c0.7-1.3,5-5.6,10.2-10.1c5.6-5,5.3-4.6,4.8-5c-0.7-0.5-10.4,8.1-15.1,13.4c-2.6,3-2.9,3.2-4.8,3.8c-1.1,0.3-2,0.5-2,0.5
	c0-0.2,9.2-10,11.3-12.1c6.8-6.6,14.7-13.1,21.6-17.8c4.3-2.9,5-3.5,4.5-3.8c-0.3-0.2-8.9,5.8-13.2,9.2c-2.8,2.2-8.1,6.8-12.5,10.9
	c-1.3,1.3-4.8,4.8-7.7,7.9c-2.9,3.1-5.4,5.8-5.7,6c-2,1.6,8.9-10.9,14.2-16.2c4.1-4.2,10-9.6,12.8-11.7c3.2-2.4,8.4-5.5,12.3-7.4
	C216.3,193,217.2,192.8,222.9,192.3z M202.5,221.1c-0.1,0.3-0.4,0.6-0.7,0.9c-0.3,0.2-0.2,0,0.1-0.5
	C202.3,221,202.5,220.9,202.5,221.1z M165.1,204.2c0.7,0.5,0.9,0.4,5.6-1.6c3.6-1.6,16-6.3,17.1-6.5c0.3,0-0.6,0.6-1.9,1.5
	c-4.6,3-8,5.9-10.6,9c-2.4,2.9-2.5,3-1.9,3.3c0.7,0.3,1.7-0.3,3.2-2.2c4-5,16.1-13.1,21.4-14.3c1.4-0.3,1.6-0.3,1.2,0.2
	c-0.2,0.3-0.4,1-0.5,1.4c0,1.2,1.1,1.3,5,0.3c4.4-1.1,8.1-1.9,8.2-1.8c0.1,0-0.8,0.6-1.9,1.2c-3.3,1.8-8.5,5.1-10.9,6.9
	c-5.7,4.4-14.5,13-23,22.6c-6.2,7-6.1,6.9-7.7,7.3l-1.3,0.3l1.1-1.3c0.6-0.7,4.4-4.8,8.3-9c7.8-8.3,8.7-9.3,7.9-9.2
	c-0.4,0.1-11.2,11.4-17.3,18.2c-1.4,1.5-2.2,2.1-3.1,2.4l-1.3,0.3l1.5-1.8c0.8-1,5.2-5.9,9.6-11c9.3-10.5,9.1-10.3,8.5-10.2
	c-0.5,0.1-14.2,15.3-19,21.1c-1.6,1.9-2.3,2.6-3.4,2.9c-0.7,0.3-1.3,0.4-1.2,0.3c0.1-0.1,2.9-3.2,6.3-6.8c5.7-6.1,6.6-7.2,5.8-7.1
	c-0.2,0-3.4,3.4-7.2,7.4c-3.8,4.1-7,7.4-7.2,7.4c-0.2,0,1-1.5,2.5-3.5c1.6-1.9,5.5-6.9,8.8-11.1c4.9-6.3,6-7.8,5.9-8.3
	c-0.1-0.3-0.4-0.7-0.7-0.8c-0.5-0.1-1.2,0.7-4.9,5.5c-3.3,4.3-4.5,5.7-5,5.8c-0.7,0.1-6,6.2-10.6,12.2c-1.7,2.2-2,2.5-4,3.3
	c-1.8,0.7-2.2,0.7-2,0.2c0.1-0.4,2.8-3.9,6-7.8c3.8-4.7,5.7-7.2,5.5-7.4c-0.5-0.4-12.8,14.9-12.7,15.8c0,0.3-0.6,0.7-1.6,1.1
	c-1,0.4-1.7,0.6-1.7,0.5c0-0.1,2.5-3.7,5.7-7.9c3.1-4.3,5.7-7.8,5.7-7.9c-0.1-0.7-3,2.8-7.8,9.5c-4.4,6.1-5.6,7.6-6.4,7.9
	c-0.9,0.4-0.8,0.2,0.4-1.7c0.7-1.2,3.7-5.3,6.7-9.3c5-6.7,6.6-9.1,5.7-8.7c-0.2,0.1-3.8,4.9-8,10.6c-7.1,9.7-7.7,10.5-8.9,11.1
	c-1.3,0.6-1.2,0.6,3.7-6.3c2.8-3.8,7-10,9.5-13.8c3.3-5,5.8-8.5,9.3-12.8C163.5,204.5,164.4,203.7,165.1,204.2z M153.8,235.9
	c-1.2,1.1-0.7,0.4,2.1-3c2-2.4,4.3-5.3,5.3-6.5c1-1.2,0.1,0.2-2.1,3C156.9,232.3,154.6,235.2,153.8,235.9z M138.3,217.5l3.7-2.6
	c2-1.4,7-4.3,11-6.4c4-2.1,7.3-3.8,7.3-3.7c0,0-1.9,2.5-4.3,5.6c-3.4,4.3-5.6,7.5-9.9,14.4c-3,4.8-7.6,11.8-10.2,15.3l-4.7,6.5
	l-2.1,1l-2.1,1l1.5-2.3c0.8-1.3,2.9-4.5,4.7-7.1c1.8-2.6,3.2-4.9,3.1-5.1c-0.2-0.4-5.3,6.7-8.9,12.4c-1.5,2.3-1.9,2.8-3,3.2
	c-0.7,0.3-1,0.4-0.7,0.1c1.8-1.3,2-1.6,1.6-2.1c-0.2-0.3-0.6-0.5-0.8-0.4c-0.5,0.2,3.5-5.8,6.2-9.3c0.8-1,1.3-1.9,1.1-2
	c-0.2-0.1-2.7,3-6.5,8l-6.2,8.2l-2.3,1l-2.3,1l0.9-1.2c0.7-1,1-1.1,1.4-0.8c0.4,0.4,0.9,0,3.3-2.5c3-3.1,3.3-3.7,2.7-4.1
	c-0.4-0.3-1.6,0.5-3,2.3c-0.8,0.9-0.7,0.9,0.1-0.6c0.5-0.9,1.4-2.3,2-3.2c0.9-1.2,1-1.6,0.7-1.9c-0.2-0.2-0.4-0.4-0.4-0.4
	c0,0,2-3.1,4.3-6.9c2.4-3.8,5.9-9.2,8-12.1L138.3,217.5z M129.4,220.8l-0.3,1.2c-0.1,0.7-0.2,1.4-0.1,1.7c0.2,0.6,1.8-0.1,3.6-1.6
	c2.5-2.1,2.7-2.1,1.1,0.2c-0.8,1.1-3,4.5-4.9,7.5c-1.9,3-5.3,8.4-7.6,12.1c-3,4.8-4.9,7.5-6.8,9.8c-1.8,2.1-2.6,3.2-2.4,3.4
	c0.3,0.2-0.4,0.9-2.1,1.9c-0.6,0.4-0.7,0.4-0.3-0.5c0.2-0.5,1.5-2.4,2.9-4.3c1.9-2.5,2.5-3.5,2.3-3.8c-0.2-0.3,0.6-1.9,3-5.5
	c2-3,3.2-5.2,3-5.3c-0.4-0.3-3.6,4.7-13,20c-0.6,0.9-1.2,1.5-1.7,1.7c-0.7,0.2-0.6-0.1,1.4-2.7c2.4-3.1,3.4-4.9,3-5.2
	c-0.1-0.1-1,1-1.9,2.3c-1.5,2.1-1.6,2.3-0.9,0.9c1.1-2.2,6.8-10.7,9.4-14.2c1.2-1.5,2.5-3.5,2.9-4.4c0.4-0.9,2.4-4,4.3-6.9
	c1.9-2.9,3.9-5.9,4.3-6.6L129.4,220.8z M104,257.1l-1.4,1.9l1-2.2c1.1-2.4,4.4-6.9,5-7C109,249.8,106.3,254.1,104,257.1z M105,257.2
	l-0.8,1.7c-0.4,1-1.1,2-1.4,2.3c-0.6,0.6-0.7,0.6-0.5-0.1c0.1-0.4,0.8-1.5,1.4-2.3L105,257.2z M111.1,246.9c0.6-0.7,0.8-1,0.6-0.6
	c-0.2,0.4-0.7,1-1,1.3C110.4,248,110.5,247.7,111.1,246.9z M104.4,250.4c4.3-7.8,13.3-19.2,20.1-25.4l1.8-1.6l-1.1,1.9
	c-0.6,1.1-4.4,6.3-8.3,11.8c-5.1,6.9-7.2,9.6-7.2,9.2c0-0.4,1.5-2.6,3.6-5.4c2.5-3.2,3.5-4.8,3.3-5c-0.3-0.2-2.3,2.4-11.5,15.5
	C101.5,256.4,101.3,256,104.4,250.4z M66.5,111.5l0.7,2.9c0.4,1.6,0.9,3.3,1.1,3.7c0.3,0.7,0.6,0.9,1.5,0.9c0.8,0.1,1.2,0.3,1.5,0.9
	c1,1.8,3.8,10.5,4.6,14.1c1.1,5,1.7,5.5,4.1,3.9c0.7-0.5,1.5-0.7,1.9-0.5c0.5,0.2,0.5,0.3-0.1,0.5c-0.6,0.2-0.8,1.1-1.5,7
	c-1,8.6-6.9,39.3-7.6,39.4c-0.1,0-0.5-0.7-0.9-1.6c-0.5-1.3-0.6-2.6,0-6.6c1.2-9.7,2.9-17.1,6.1-26.7c1.4-4.1,1.6-5.1,1.1-5.1
	c-0.4,0.1-3.3,9.1-4.8,15.2c-1.5,5.8-2.1,9.2-2.8,14.8c-0.3,2.5-0.6,4.6-0.7,4.6c-0.1,0-0.6-0.9-1-2.1c-0.7-1.9-0.7-2.6-0.2-5.8
	c0.6-3.8,1.2-11.3,0.9-12.1c-0.5-1.2-0.7,0-1,4.3c-0.2,2.6-0.5,5.8-0.7,7.1c-0.4,2.4-0.5,2.4-0.8,1.5c-0.2-0.5-0.5-1.4-0.7-1.9
	c-0.2-0.6,0.1-3.3,0.8-7.2c0.6-3.4,1.2-8,1.2-10.1c0.1-4.8,0.5-9.4,1.2-13.3c0.6-3.4,0.6-3.4,0.2-3.3c-0.6,0.1-2,10.1-2.2,15.4
	c-0.1,4.3-1.6,14.6-2.1,15.3c-0.3,0.4-1.1-2.3-1.1-3.6c0-0.7,0.1-3.3,0.1-5.6c0.2-7.3,0-11-1.1-19.9c-1.5-12-0.9-19.2,1.8-25
	L66.5,111.5z M73.5,186.5l1.1-5.1c0.6-2.8,1.9-9.2,2.9-14.3c1-5.1,1.8-9,1.8-8.7c0,0.3,0.1,2.6,0.1,5.2c0,2.6-0.2,4.9-0.4,5.1
	c-0.4,0.4-1.6,7.9-2.7,17.3c-0.4,3.1-0.7,5.6-0.7,5.7c-0.1,0.1-0.5-1.1-1.1-2.5L73.5,186.5z M74.4,200.8l-1.2-0.8
	c-0.6-0.4-1.6-1.4-2.1-2.1c-0.5-0.7-1.3-1.9-1.9-2.6c-1.5-1.9-0.8-2,1.6-0.2c2,1.5,2.3,1.9,2.8,3.7L74.4,200.8z M78.1,177.8
	c1.3-9.9,1.4-10,1.4-1.6c0,6.6-0.2,11.9-0.8,16.5c-0.3,2.7-1,5.9-1.2,5.8c0,0-0.4-1.1-0.8-2.3C76.1,193.9,76.3,191.6,78.1,177.8z
	 M65.4,177.3c-1.5-1.9-2.7-3.5-2.6-3.6c0.3-0.4,2.6,1.9,3,3C66.4,178.4,66.3,178.5,65.4,177.3z M54.3,84.9c0.1-0.1,0.6,0.6,1.1,1.7
	c0.5,1.1,2.1,4,3.5,6.6c3.7,6.6,7.6,16.7,6.7,17.4c-0.8,0.6-3,6.9-3.4,10c-0.7,5.7-0.7,9.2,0.2,16.4c0.5,3.9,0.9,8.5,1,10.2
	c0.2,3.9,0.2,12.2,0,12.3c-0.1,0-1-2.3-2-5.3c-1-2.9-2.4-6.5-3-8.1c-1.1-2.7-1.2-2.9-0.6-7.9c0.3-2.8,0.4-5,0.2-4.9
	c-0.2,0.1-0.6,2.1-0.9,4.2c-0.3,2.2-0.6,3.9-0.7,3.8c-0.1-0.1-0.4-0.9-0.7-1.7c-0.4-1.2-0.3-2.6,0.5-6.8c1.1-5.6,2.4-10.4,4.3-15.8
	c0.6-1.8,1.1-3.5,0.9-3.5c-0.4-0.3-0.6,0.1-2.3,5.2c-1.9,5.9-3.5,12-4,15.6c-0.2,1.5-0.5,2.4-0.6,2c-0.1-0.4-1.2-4.2-2.4-8.6l-2.2-8
	l0.8-2.9c2-7.5,3-15.4,3.3-25.5C54.1,87.8,54.2,85,54.3,84.9z M46.1,78.3c0.3-2.5,1.7-7.7,2.3-8.4c0.3-0.4,0.6,0.4,2.2,4.8
	c0.7,1.9,1.8,4.8,2.5,6.4c0.7,1.6,1.1,2.9,0.9,2.7c-0.8-0.6-0.9,0.7-1.2,7.8c-0.3,8.4-0.9,14.1-2.1,19.7c-1.2,6.1-1.3,6.2-2.2,2.9
	c-1.3-4.6-2-9.8-2.3-17.1C45.7,87.4,45.7,81.5,46.1,78.3z M32.3,92.4c0.5-0.4,1.5-2.2,2.4-4.3c1.8-4,4.9-9.6,8-14.2l1.9-2.9L44,73.9
	c-0.4,1.6-0.8,5-1,7.6c-0.4,6.2,0,19.7,0.6,25.4c0.3,2.9,1.8,9.3,4,17.5c1.9,7.1,3.4,12.9,3.3,13c-0.3,0-1.7-3.1-2.9-6.5
	c-0.6-1.8-1.5-5.2-2-7.6c-0.4-2.4-1-4.3-1.2-4.3c-0.4,0,0.4,4.5,1.5,9.2c0.4,1.5,0.5,2.6,0.4,2.5c-0.1-0.1-0.5-1.5-0.9-3.2
	c-0.4-1.6-0.8-3-1-3c-0.2,0-0.4,0.2-0.4,0.5c0,0.3-0.6-1.9-1.2-4.8c-0.6-2.9-1.3-5.3-1.4-5.3c-0.3,0-0.2,1.2,1,7
	c0.7,3.4,0.6,3.4-2.3-1.8c-3.8-7-7.3-16.6-8.5-23.4C31.6,93.5,31.6,93.1,32.3,92.4z M19.2,114.1c0.6,0.4,1.3,4.3,1.1,5.9
	c-0.3,2.7-0.2,4.2,0.4,4.2c0.3,0,0.6-0.1,0.8-0.3c0.2-0.2,1.7-5.1,3.5-10.9c3.6-11.8,5.1-16.6,5.6-17.2c0.2-0.2,0.5,0.8,0.8,2.2
	c0.3,1.4,0.8,3.6,1.1,5c2.5,9.2,8.9,22.1,17.2,34.6c1.8,2.7,3.8,6,4.3,7.2c1.1,2.3,4.9,12.3,5.5,14.1c0.3,1.1,0.3,1.1-1.1-0.4
	c-2.9-3-4.5-4.3-4.7-4c-0.1,0.2,0.1,0.7,0.6,1.1c1.1,1.2,3.8,3.7,5,4.8c0.9,0.7,2.4,4,2.1,4.5c-0.1,0.1-1.1-0.8-2.4-1.9
	c-1.6-1.4-2.4-2-2.6-1.8c-0.1,0.2,0,0.5,0.3,0.7c0.3,0.2,1.7,1.5,3.1,2.7c2.4,2.2,2.6,2.5,3.5,5c0.6,1.6,0.7,2.4,0.3,2
	c-0.3-0.4-1.4-1.6-2.4-2.6c-1-1.1-2-2.3-2.2-2.9c-0.6-1.2-0.7-1.3-1-0.9c-0.4,0.5,0.9,2.4,3.5,5.3c1.7,1.8,2.2,2.6,1.7,2.5
	c-1.1-0.3-3.1-1.9-5-3.9c-1.4-1.5-1.8-2.3-2.4-4.6c-1.2-4.4-3.8-8.7-6.6-10.8c-1.7-1.3-1.4-0.3,0.5,1.7c2.2,2.4,4,5.4,4.8,8.3
	l0.7,2.4l-1-1c-0.6-0.6-4.6-4-8.9-7.5C35.9,149.7,33,147,29.8,143c-5.8-7.1-10.5-17.2-11.3-24.1C18.2,116.9,18.7,113.7,19.2,114.1z
	 M16.4,152.7c-1.4-3.2-2.9-7.8-3-9.3c-0.1-1.1,0-1.4,0.7-1.6c0.4-0.2,1-0.6,1.2-0.9c0.3-0.3,0.7-3.7,0.9-7.4
	c0.5-7.1,0.9-11.9,1.2-12.2c0.1-0.1,0.6,1.6,1.2,3.7c0.6,2.1,2.2,6.1,3.6,8.9c4.9,9.8,10.4,16.2,21.1,24.3
	c6.2,4.7,13.9,12.3,21.3,21c3.5,4.1,3.9,4.7,5.1,7.9c0.7,1.9,1.3,3.5,1.2,3.5c-0.1,0-0.8-0.7-1.6-1.6c-1.3-1.5-2.1-1.9-2-1.2
	c0,0.2,1,1.4,2.2,2.6c2.3,2.4,2.8,3.2,2.8,4.4c0,0.6-0.2,0.5-2.1-0.9c-1.3-1-2.7-2.4-3.6-3.6c-2-2.7-5.5-5.9-13.9-12.6
	c-4.9-3.9-7.1-5.5-7.3-5.3c-0.1,0.2,0.3,0.7,1,1.3c0.7,0.5,4.7,3.8,9,7.3c6.1,5,8.1,6.8,9.5,8.6c4.2,5.3,4.2,5.3-12.1-7.2
	c-9.8-7.5-15.3-11.6-15.4-11.4c-0.1,0.2,5.4,4.6,15.2,12.1l15.4,11.9l1.5,2.5c1.1,1.8,2,2.8,3.3,3.7c1.4,1,1.8,1.6,2.2,2.7
	c0.6,1.7,0.4,2-0.7,1.3c-0.8-0.5-0.9-0.4-0.5,0.2c0.2,0.4,0.5,1,0.7,1.3c0.2,0.4,0.6,0.9,0.9,1.1c0.9,0.7,1.8,3.7,1.2,4
	c-0.3,0.2-0.2,0.6,0.2,1.1c0.4,0.4,0.9,2.1,1.2,3.7l0.5,2.9l-1.8-1.6c-1-0.9-2.7-2.8-3.8-4.3c-1.1-1.5-3.2-4-4.5-5.5l-2.5-2.8l2.4,2
	c3,2.5,6.4,6,6.8,6.8c0.2,0.4,0.5,0.6,0.7,0.5c0.7-0.3-0.5-1.7-3.9-5c-5.1-4.9-8.8-8.1-9.1-7.7c-0.1,0.2,0.3,0.7,1,1.2
	c0.7,0.5,1.1,0.9,0.9,1c-0.2,0-2-1.5-4.1-3.3c-2.1-1.9-6.2-5.5-9.1-8.1c-2.9-2.6-6.2-5.6-7.3-6.7c-1.1-1.1-3.3-3.1-5-4.6
	c-3.2-2.8-11.3-10.9-11.6-11.7c-0.1-0.2-0.5-0.6-0.8-0.8C24.7,167.2,18.9,158.4,16.4,152.7z M79.2,221c0.2,0.8,0.2,0.8-0.5-0.2
	c-1-1.4-1-1.6-0.3-1.1C78.7,220,79,220.5,79.2,221z M24,169c-0.7,0-1.3,0.1-1.3,0.2c0,0.1,0.3,0.8,0.6,1.6c0.3,0.8,0.4,1.3,0.2,1.2
	c-0.5-0.3-3.2-3.3-4.2-4.6l-0.9-1.1l1.4-0.3c0.8-0.2,1.5-0.4,1.6-0.6c0.3-0.3,1.1,0.3,2.6,2.1l1.3,1.5L24,169z M45.1,206.8
	c-3.2-3-6.5-6.2-7.3-7c-1.7-1.9-4-5.5-4.4-6.9l-0.3-1.1l2.4,0.4c3.7,0.6,5.8,0.4,6.5-0.6c0.4-0.5,0.6-1,0.5-1.2
	c-0.1-0.2-2.7-2.8-5.9-5.7c-6.8-6.3-10.6-9.9-11.2-10.6c-0.3-0.4-0.2-0.9,0.6-1.9l1.1-1.4l4.1,4.4c2.2,2.4,5.4,5.5,7,6.9
	c1.6,1.4,4.1,3.7,5.5,5.1c1.4,1.4,3.5,3.4,4.7,4.4c12.3,11,17.7,16,19.7,18.3c3.1,3.5,12.1,16.1,11.6,16.2c-0.1,0-1.5-1.4-3-3.1
	c-2.6-2.8-3.4-3.5-3.3-2.7c0,0.2,1.7,2.1,3.7,4.2c4.4,4.7,4.2,4.4,4.7,7l0.4,2.1l-2.2-3c-2.4-3.3-2.9-3.8-3.2-3.3
	c-0.1,0.1,0,0.4,0.2,0.6c0.2,0.2,1.5,1.9,2.9,3.8c3.2,4.5,3.1,4.4,2.9,4.5c-0.1,0-2-2.4-4.1-5.4c-2.1-3-4-5.4-4.1-5.4
	c-0.5,0.1,0.2,1.3,4.1,6.8c2.3,3.2,4.3,6.3,4.4,6.9c0.3,1.2-0.2,2.3-0.7,1.4c-0.2-0.3-0.6-0.9-1-1.3c-0.4-0.4-0.7-1.2-0.7-1.9
	c-0.1-1.2-3.1-6-5.4-8.8c-2-2.3-12.9-11.3-13.2-10.9c-0.1,0.2,2,2.1,5.3,4.8c5.9,4.8,8.3,7.3,10.5,10.9c1.5,2.3,2.6,4.7,1.8,3.6
	c-1.2-1.5-6.5-7-8.7-8.9c-2.5-2.2-6.6-5-6.9-4.6c-0.1,0.1,1.7,1.6,3.9,3.4c4.4,3.4,7.5,6.4,11.9,11.9l2.7,3.3L77,238
	c-5.3-3.8-5.9-4.3-7.6-6.6c-2-2.7-4-4.9-6.6-7.3c-1-0.9-3-2.9-4.6-4.4c-1.5-1.5-3.6-3.4-4.5-4.1c-0.9-0.7-1.9-1.7-2.2-2.3
	C51.2,212.7,48.5,209.9,45.1,206.8z M83.9,245.1l-0.3,0.8l-4.3-3.1c-3.3-2.4-4.5-3.5-5.4-4.7c-0.6-0.9-1.1-1.8-1.2-2.1
	c0-0.3,2.3,1.4,5.7,3.9C84.1,244.3,84.2,244.3,83.9,245.1z M84.9,248.8c0.1,0.5,0.1,1,0,1.1c-0.1,0.1-1.8-1.2-3.7-2.8
	c-2.5-2-3.8-3.3-4.2-4.2c-0.6-1.2-0.6-1.2,3.5,1.9C84,247.4,84.7,248.1,84.9,248.8z M59.9,224.7c-4.5-3-11-7.9-11.1-8.3
	c0-0.2,0.5-0.5,1.2-0.7c1.3-0.4,1.3-0.4,3.4,1.5c1.2,1,3.9,3.7,6.1,5.9l4,4.1L59.9,224.7z M68.8,237.9c-3.2-2.6-6.3-5.1-6.8-5.7
	l-1-1l1.5-0.6c0.9-0.4,1.6-1,1.9-1.5c0.3-0.7,0.5-0.8,0.8-0.4c0.2,0.3,0.8,0.9,1.3,1.5c0.7,0.7,0.8,1.1,0.5,1.3
	c-0.3,0.2-0.1,0.5,0.9,1.4c0.8,0.6,1.8,1.8,2.4,2.7l1.1,1.6l-1.5-1.1c-2.2-1.6-4.5-2.8-4.7-2.5c-0.1,0.1,1.5,1.5,3.8,3
	c3.6,2.5,4.1,2.9,4.8,4.3l0.8,1.6L68.8,237.9z M74.3,243.4c0-0.1,0.3,0.1,0.8,0.4c0.4,0.3,1.5,1.9,2.4,3.5c0.9,1.6,1.6,2.9,1.5,2.9
	C78.8,250.3,74.3,243.7,74.3,243.4z M80.5,248.7c-0.3-0.1-0.7-0.5-0.8-0.9c-0.2-0.5,0.4-0.2,2.5,1.4c1.5,1.1,2.8,2.3,2.9,2.5
	c0.1,0.2,0.2,1.4,0.3,2.6l0.2,2.1l-1.2-2.4C83.1,251.5,81.3,248.9,80.5,248.7z M84.9,258.3c-0.8-1.7-1-2.4-0.5-2
	c0.1,0.1,0.5,0.9,0.9,1.8C86.2,260.5,86,260.6,84.9,258.3z M88.4,246.2c-0.2-1,0.4-2.3,3.5-8.6c2-4.1,3.7-7.7,3.7-8
	c0.1-1.4-0.8,0.1-3.7,6.2c-1.8,3.6-3.4,6.9-3.6,7.1c-0.2,0.3-0.4-0.2-0.6-1.3c-0.2-1.7-0.1-1.9,2.5-6.6c1.5-2.7,2.7-5,2.6-5.3
	c0-0.3-0.2-0.3-0.4,0c-0.5,0.7-4.4,7.6-4.7,8.4c-0.3,0.6-0.3,0.6-0.4-0.1c-0.1-0.5,1-2.9,2.9-6.8c2.9-5.6,3.3-6.8,2.7-6.7
	c-0.1,0-1.4,2.4-2.9,5.3c-2.9,5.7-3.3,6.4-3.4,5.7c0-0.3,1.5-3.5,3.4-7.3c1.9-3.7,3.5-6.8,3.4-7c-0.1-0.8-0.9,0.5-3.2,4.7
	c-1.4,2.7-2.7,5.3-3,5.9c-0.3,0.6,0-1.3,0.7-4.1c0.6-2.8,1.3-6.1,1.5-7.3c0.3-1.9,0.8-3.2,3.4-7.9c3.4-6.2,3.6-6.6,3.1-6.7
	c-0.2,0-1.5,2-2.9,4.6c-1.4,2.6-2.6,4.7-2.7,4.8c-0.4,0.3,1.7-14.6,2.5-18.2c0.5-1.9,1.4-4.8,2-6.6c1.4-3.5,1.4-3.7,0.6-3.6
	c-1.2,0.2-3.5,6.7-4.7,13.5c-0.4,2.2-1.3,8.1-1.9,12.9c-0.6,4.8-1.4,10-1.7,11.3c-1.2,5-1.4,5.9-1.6,5.4c-1.4-5.2-3-12.2-2.8-12.5
	c0.6-0.8,3.1-8.5,2.7-8.5c-0.4,0-2,4.3-2.9,7.3c-0.1,0.4-0.7-1.3-1.3-3.9c-1.1-4.4-1.1-4.7-0.3-6.1c2.2-3.9,11.3-26.4,10.9-26.7
	c-0.4-0.3-0.7,0.3-3.3,6.9c-2.6,6.5-8.4,20-8.6,20.1c-0.1,0-0.2-0.4-0.3-1c-0.2-0.7,0.4-2.5,2.5-7.4c2.5-5.8,7.9-20.8,8-22.3
	c0-0.3-0.1-0.6-0.3-0.6c-0.2,0-1.2,2.7-2.2,5.8c-1.7,5.3-6.5,17.8-8.1,20.9l-0.6,1.3l-0.3-1c-0.3-0.7,0.1-2.3,1.6-6.6
	c1.1-3.1,2.6-8.1,3.4-11.1c0.8-3.1,2.1-7.8,2.9-10.5c1.3-4.6,1.6-6.3,0.9-5.4c-0.3,0.4-3.1,10.4-4.7,16.3c-1.2,4.7-2,7.4-2.1,7.3
	c0,0,0-1.3,0.2-2.7c0.5-4.6,0.6-10.8,0.4-22.1c-0.3-13.8,0-19.1,1.3-22.8c0.5-1.6,0.9-3,0.7-3.1c-0.2-0.1-0.5,0.2-0.7,0.7
	c-0.5,1.1-0.5,1.1-0.2-1.8c0.3-2.4,0.4-2.3,1.2,0.7c0.3,1.1,1,4.8,1.6,8.1c1,5.9,1,6.2,0.2,10.1c-0.5,2.2-0.7,4.1-0.4,4.1
	c0.2,0,0.6-1.1,0.9-2.7c0.3-1.5,0.6-2.8,0.6-2.7c0.1,0,0.4,2.2,0.7,4.7c0.3,2.5,0.7,4.9,0.9,5.3c0.4,1,1.8,1.1,2.8,0.2
	c0.5-0.4,1-0.7,1.3-0.7c0.5,0,2.5,6.1,3.2,9.9c0.3,1.8,0.4,3.2,0.1,3.6c-0.2,0.3-1.7,3.3-3.2,6.6c-1.5,3.3-4.1,8.9-5.8,12.4
	c-1.7,3.5-3,6.5-3,6.6c0.1,0.9,1.1-0.8,4.6-8.2c2.2-4.6,4.8-10.2,5.9-12.4c1-2.3,2-4.1,2.1-4.1c0.5-0.1,0.7,6,0.4,11.8
	c-0.2,3.3-0.2,6.6-0.1,7.4c0.2,1.6,1,2.4,2.5,2.3l1.1-0.1l0.3,3.1c0.4,4,0.1,7.1-1.3,15.8c-0.6,3.9-1.2,7.6-1.2,8.2
	c0,0.8-1.3,3.2-4.3,8.6c-2.4,4.2-4.4,7.6-4.5,7.8C88.7,247.3,88.5,246.9,88.4,246.2z M89.1,251.7c0.1-0.3,0-1.1-0.1-1.8
	c-0.2-0.8-0.1-1,0.1-0.7c0.3,0.4,0.5,0.4,0.7,0.1c0.2-0.3,0.2-0.6-0.1-0.8c-0.3-0.2-0.4-0.5-0.3-0.8c0.2-0.5,8.2-14.6,8.6-15.2
	c0.2-0.2,0.5-0.2,0.8,0c0.4,0.3-0.1,1.6-4,9C90.2,250.3,88.9,252.7,89.1,251.7z M97.5,238.5c0,0.2-0.2,0.4-0.4,0.6
	c-0.3,0.2-0.3,0.1,0-0.3C97.2,238.5,97.5,238.4,97.5,238.5z M89.4,255.1c-0.6,0.1,0.3-2.1,3.3-8c3.2-6.2,4.6-8.7,3.8-6.5
	c-0.2,0.6-1.9,4.1-3.6,7.7C91.1,252.1,89.6,255.1,89.4,255.1z M92.6,251.4c1.9-3.7,6.3-13.5,7.3-16.2c0.2-0.4,0.5-0.3,1.4,0.4
	c1.1,0.8,1.2,1,0.9,2.7c-0.3,1.8-0.3,1.8-1.4,2.1c-1.3,0.3-2.2,1.3-2,2.2c0.1,0.4-0.6,1.7-2,3.9c-1.2,1.8-3.2,5-4.6,7.2
	c-1.3,2.1-2.5,3.9-2.6,3.9C89.5,257.7,89.5,257.7,92.6,251.4z M101.2,260.1c-0.4,1-0.9,2-1,2.2c-0.1,0.2-0.1-0.3,0.1-1
	c0.2-0.7,0.7-1.7,1-2.2C101.9,258.3,101.9,258.5,101.2,260.1z M97.8,246.4c0.9-1.4,1.4-2,1.6-1.9c0.2,0.1,0.1,0.6-0.1,1.1
	c-0.8,1.8-8.4,15.7-8.9,16.3c-0.4,0.5-0.5,0.4-0.6-1C89.7,259.2,89.2,260.1,97.8,246.4z M90.7,266.1c-0.1,0.3-0.3,0.6-0.6,0.7
	c-0.2,0.1-0.2-0.1,0.1-0.5C90.6,266,90.8,265.9,90.7,266.1z M91,270.5c-0.1,0.3-0.4,0.6-0.7,0.9c-0.3,0.2-0.2,0,0.1-0.5
	C90.9,270.4,91.1,270.2,91,270.5z M91.8,269c-0.3,0.2-0.3,0.1,0-0.3c0.2-0.3,0.4-0.4,0.4-0.3C92.2,268.6,92,268.8,91.8,269z
	 M95.8,261.1c-2,3.1-4.2,6.4-4.8,7.4c-1,1.5-1.2,1.7-1.1,1c0-0.8,3.8-7.1,6-10c1.4-1.9,2.3-3.6,2-3.9c-0.1-0.1-1.1,1.1-2.3,2.7
	c-1.5,2.2-1.2,1.6,1-2.1c1.7-2.7,3.1-5.2,3-5.5c-0.1-0.7-1.5,1.3-4.8,6.7c-1.5,2.5-3.1,5-3.6,5.5c-0.8,1,8.6-16.6,9.5-17.7
	c0.4-0.6,0.4-0.6,0.4,0.3c0,0.5-0.4,2.9-0.9,5.4l-0.8,4.5L95.8,261.1z M92,263.6c0.6-0.7,0.8-1,0.6-0.6c-0.2,0.4-0.7,1-1,1.3
	C91.3,264.6,91.5,264.3,92,263.6z M100.1,271.4c-0.4,0.1-1,0.1-1.5,0c-0.5-0.1-0.3-0.2,0.6-0.2C100.8,271,101.2,271.1,100.1,271.4z
	 M124.7,274.7c-9.1-2.5-15.7-3.8-22-4.2l-4.9-0.3l0.9-0.8c0.5-0.4,1.1-0.8,1.4-0.9c1.6-0.4,15.5,2.7,23,5.1
	C128.5,275.4,129.5,276,124.7,274.7z M137.8,278.1c-0.2,0.7-0.7,0.6-2.2-0.3c-4.5-2.6-18.3-7-28.1-8.9c-3-0.6-5.3-1.1-5.1-1.2
	c0.8-0.3,7.1,0.4,10.1,1.2c3.2,0.8,24.5,7.9,25.3,8.5C137.8,277.4,137.9,277.8,137.8,278.1z M142.1,277c-0.4,0-5.7-1.8-11.8-4
	c-13.8-4.8-18.9-6.2-23.7-6.5c-3.3-0.2-4.2-0.6-2.8-1.1c0.8-0.3,12.1,1.8,16.5,3.1c5,1.5,11.1,3.7,17.3,6.2
	C142.2,276.6,143.3,277.1,142.1,277z M147.7,277.9c-1,0-1.5-0.2-8.4-3.2c-10.3-4.5-21.8-8.1-29.9-9.4c-4.1-0.6-5-1.1-3.2-1.6
	c1.4-0.4,17.9,4.1,26.1,7.1c5.5,2,14.9,6,15.8,6.7C148.6,277.9,148.6,277.9,147.7,277.9z M152.7,278.4c-0.5,0-2.4-0.8-4.2-1.6
	c-10.3-4.9-21.9-9.1-33.4-12c-4.1-1-7.2-1.9-6.8-2c1.6-0.4,15.3,2.9,22.1,5.2c6.4,2.2,20.5,8.4,22.6,9.9l0.7,0.5L152.7,278.4z
	 M178.2,276.4c-0.2,0.1-1.4,0.1-2.8,0c-2.8-0.1-3.8,0.4-3.5,1.5c0.2,0.6,0.1,0.7-0.4,0.7c-0.3,0-4.2-1.6-8.8-3.6
	c-4.5-2-8.5-3.5-9-3.5c-0.8,0-0.8,0.1,0,0.4c0.5,0.2,3.9,1.7,7.7,3.4c3.8,1.6,7,3.1,7.1,3.2c0.3,0.4-4.1,0.6-8.7,0.4l-3.7-0.2
	l-5.2-2.6c-13.6-6.9-25.7-11.2-37.7-13.4c-2.6-0.5-4.7-0.9-4.6-1c0.5-0.6,1.9-0.7,4.1-0.2c15.5,3.3,29.9,8.2,41.7,14.1
	c1.8,0.9,3.3,1.5,3.4,1.4c0.3-0.4-0.9-1.1-6.6-3.8c-10.2-4.8-20.3-8.2-32.8-11.2l-6.4-1.5l3.9-0.4c4.6-0.5,11.2-0.2,15.6,0.8
	c6.8,1.5,22.6,6.5,32.4,10.3c3.3,1.3,7.8,2.9,10.1,3.6C178.9,276.4,178.6,276.3,178.2,276.4z M205.2,268.1c-1.2,0.5-4.2,1.7-6.6,2.6
	c-4.4,1.7-5.8,2.7-5.3,3.9c0.2,0.5-0.5,0.7-3.6,1.1c-2.1,0.3-4.5,0.5-5.4,0.5c-1.7,0-12.8-3.8-21.2-7.1c-9.1-3.7-26.5-9.1-32.5-10.3
	c-3.1-0.6-8.7-0.9-12.2-0.7c-1.8,0.1-3.1,0.1-3,0c0.1-0.1,1.4-0.8,2.8-1.4c2.4-1.1,3.1-1.2,7.7-1.2c9.2,0,11.3,0.7,44.8,13.4
	c7,2.7,8.4,3.1,8.4,2.5c0-0.1-2.6-1.2-5.7-2.4c-3.2-1.2-10.7-4-16.7-6.3c-18.1-6.9-22.4-8-29.8-8c-2.3,0-4.1-0.1-4-0.2
	c0.1-0.1,1-0.5,2-0.9c4.3-1.6,14.7,0.3,27.4,5.1c5.4,2,7.1,2.5,5.9,1.5c-0.8-0.6-11.4-4.5-15.3-5.5c-4-1.1-9.7-2.2-12.4-2.3
	c-1.1-0.1-2-0.2-2-0.3c0-0.1,0.9-0.6,2.1-1.1c2.1-0.9,2.3-0.9,9.1,0.2c3.8,0.6,7,1,7.1,0.8c0.1-0.1-0.1-0.3-0.5-0.5
	c-0.8-0.2-10-1.8-11.4-1.9c-1.1-0.1-1.1-0.2,0.4-0.9c1.6-0.8,13.7,0.2,22.5,1.9c5.9,1.1,9.8,2.3,22.7,7.2
	c12.8,4.8,23.9,8.7,25.5,8.9C207.6,266.9,207.5,267.1,205.2,268.1z M227.6,253.6c-1.7,0.7-3.7,1.7-4.7,2.3l-1.7,1l-9.6-2
	c-5.3-1.1-12.6-2.9-16.3-4c-3.7-1.1-6.8-2-6.9-2c-1.9,0.2,8.6,3.6,16.5,5.4c2.3,0.5,6.5,1.4,9.4,2c3,0.6,5.4,1.1,5.4,1.3
	c0.1,0.5-1.7,1.2-2.6,1.1c-3.2-0.3-23.2-5-28-6.7c-6.7-2.3-6.6-2.3-6.3-1.8c0.3,0.5,4.9,2.4,9.2,3.7c1.9,0.6,8.5,2.1,14.6,3.5
	c8.6,1.9,11.2,2.6,11.6,3.1c0.6,0.9,0.4,1-1.4,1.7c-3.6,1.2-5.2,2.1-5.2,2.8c-0.1,0.7-0.3,0.8-1.6,0.8c-0.8,0-2.3-0.2-3.2-0.4
	c-2-0.5-11.8-3.9-24.1-8.4c-18.7-6.9-23.2-8-38.3-9.1c-2.7-0.2-5.1-0.4-5.4-0.4c-1-0.1,14.7-6.8,21-8.9c6.7-2.3,19-0.2,44.4,7.3
	c7.9,2.4,19,5.2,23,5.9c1.6,0.3,2.9,0.6,3,0.6C230.5,252.2,229.3,252.9,227.6,253.6z M241.3,243.5c-1.9,1.1-5.5,2.9-8,3.8
	c-2.4,1-4.6,2-4.8,2.3c-0.4,0.5-1.7,0.3-7.4-1.3c-3.8-1-10.5-2.9-14.8-4.2c-16.3-4.8-28.9-7.7-36-8.1c-1.8-0.1-3.1-0.3-2.8-0.4
	c1.2-0.5,7.4-2.4,15.5-4.8c8.5-2.5,8.7-2.5,11.4-2.1c4.3,0.8,13.4,3,17.5,4.3c4,1.3,26.8,6.9,30.6,7.6c1.3,0.2,2.3,0.5,2.3,0.5
	C244.8,241.4,243.2,242.4,241.3,243.5z M257.2,231c-0.2,0.2-1.5,1.2-2.9,2.2c-1.4,1.1-3.4,2.5-4.6,3.1c-1.8,1-2.6,1.2-4.5,1
	c-4.4-0.3-11.7-1.8-20.6-4.3c-9.2-2.6-22.4-5.9-23.2-5.8c-1.4,0.2,0.3,0.8,7.1,2.5c4.1,1,11.1,2.9,15.5,4.2c8,2.3,15.6,4,19.8,4.3
	c1.3,0.1,2.5,0.5,3.1,0.9l1,0.8l-1.4,0c-2,0.1-6.1-0.7-17.9-3.5c-11.6-2.7-14.8-3.6-19.7-5.3c-1.9-0.6-5.6-1.6-8.4-2.3
	c-2.8-0.6-5.3-1.2-5.6-1.3c-0.6-0.1,4.8-1.6,14-3.7c6.4-1.5,6.4-1.5,11.8-0.8c2.9,0.4,9.4,1.4,14.3,2.2c12.4,2.1,16.1,2.7,18.7,2.6
	c2.9,0,3.2,0.2,1.4,0.9c-1.2,0.5-1.4,0.7-1.1,1.1c0.2,0.3,0.9,0.5,1.5,0.5C257.4,230.6,257.7,230.7,257.2,231z M266.7,220.3
	c0.1,0.1-0.1,0.5-0.5,0.8c-0.4,0.4-2.3,1.8-4.1,3.1c-3.1,2.3-3.4,2.4-5.8,2.7c-3.3,0.3-5.8,0-19.6-2.3c-6.2-1-12.5-2-14.1-2.2
	c-1.6-0.2-3.1-0.3-3.4-0.4c-0.6-0.1,0.1-0.2,9.6-2.4c4.5-1,8.9-2,9.6-2.2c0.7-0.2,3,0,5,0.4c2,0.4,5.4,0.9,7.5,1.1
	c2.1,0.2,5.8,0.6,8.3,0.9c2.5,0.3,4.9,0.4,5.3,0.3C265.2,219.8,266.1,219.9,266.7,220.3z M278.7,206.8c-5.9,4.9-9.2,7.5-9.8,7.8
	c-0.4,0.2-1.6,0.2-2.6,0.1c-2.2-0.3-2.3,0.4-0.2,0.7l1.3,0.2l-1,0.8c-0.5,0.4-1.3,1.2-1.7,1.8c-0.9,1.1-0.9,1.1-9.7,0.3
	c-5.1-0.5-12.6-1.6-12.7-1.8c0-0.1,2.5-0.7,5.5-1.4c7.1-1.6,19.1-5,25.8-7.3c2.9-1,5.4-1.7,5.4-1.7
	C279.2,206.4,279,206.6,278.7,206.8z M260.4,209.1c0.2-0.2,7-4.4,7.5-4.6c0.2-0.1,0.3,0,0.2,0.3c-0.2,0.6-7.4,5-7.7,4.8
	C260.3,209.4,260.3,209.2,260.4,209.1z M243.1,198.5c0.6-0.5,1.5,0,1.1,0.6c-0.5,0.7-11.1,8.5-11.6,8.6
	C230.9,207.9,234.2,205,243.1,198.5z M269.3,213.5c-0.3,0.4-0.6,0.4-1,0.1c-0.6-0.4-0.3-1.2,0.3-1.3
	C269.4,212.3,269.8,213,269.3,213.5z M203.7,206.1c4.7-4,9.5-7.4,12.8-9.3c2.1-1.1,2.1-0.4,0,0.8c-3.8,2.2-7.4,4.9-12.3,9
	c-3,2.5-5.5,4.4-5.6,4.3C198.3,210.7,197.9,211,203.7,206.1z M200.1,213c0.2,0.2,0,0.5-0.4,0.9c-0.4,0.4-3.4,3.1-6.6,6
	c-3.2,2.9-5.9,5.2-6,5.1c-0.4-0.3,0.3-0.9,6.5-6.5c3.2-2.9,6-5.5,6.1-5.6C199.7,212.9,199.9,212.9,200.1,213z M261.9,223.2
	c-0.3,0.3-18.6-1.1-18.7-1.5c-0.1-0.2,4-0.1,8.9,0.2C260.4,222.5,262.3,222.8,261.9,223.2z M260.1,224.4c-0.3,0.2-11.3,0.3-12.5,0.1
	c-2.1-0.3,0.4-0.6,6.1-0.7C259.5,223.8,260.8,223.9,260.1,224.4z M159.1,221.7c-0.8-0.6,11.6-15,14.7-17.1c0.2-0.2,0.5-0.1,0.5,0
	c0.1,0.2-0.8,1.2-1.9,2.2c-2.6,2.5-8.1,8.6-10.9,12.2C160.3,220.7,159.3,221.8,159.1,221.7z M164.8,217.5c-3,3.6-4.9,5.7-5,5.6
	c-0.3-0.2,8.7-11.5,9.4-11.8C170,210.9,169.2,212.1,164.8,217.5z M240,233.7c-0.5-0.1-1,0-1,0.2c0,0.4-1.4,0.2-6.4-1.4
	c-3.3-1-4.9-1.8-3.9-1.8c0.2,0,2.2,0.5,4.3,1.1c2.1,0.6,3.8,1.1,3.8,1c0-0.1-2.2-0.9-4.8-1.8c-2.6-0.9-4.7-1.8-4.8-2
	c0-0.2,3.1,0.6,6.8,1.8c3.8,1.2,7,2.3,7.1,2.4C241.6,233.6,240.8,233.9,240,233.7z M37.8,106.3c-0.2-1.3,0.3-18.2,0.5-18.5
	c0.1-0.2,0.3-0.2,0.4-0.1c0.3,0.3-0.2,19.2-0.5,19.2C38,107,37.9,106.7,37.8,106.3z M39.7,116.9c-0.7-2.7-0.9-14.2-0.3-16.4
	c0.4-1.5,0.7,0.1,0.5,3c-0.3,4.4-0.3,7.7,0.2,11.2C40.4,117.7,40.2,118.9,39.7,116.9z M55.5,106.8c0.4-2.3,0.9-6.1,1.1-8.4
	c0.2-2.3,0.6-4.3,0.7-4.4c0.2-0.1,0.3-0.1,0.4,0c0.3,0.2-1.9,16.6-2.3,17.1C54.9,111.8,54.9,110.6,55.5,106.8z M56.9,112.6
	c0-0.5,2.3-13.1,2.5-13.3c0.1-0.1,0.3-0.2,0.4-0.1c0.3,0.3-2.1,13.4-2.5,13.5C57.1,112.7,56.9,112.7,56.9,112.6z M56.7,119.1
	c-0.1-0.6,3.2-12.1,3.6-12.6c0.7-0.9,0.3,1-1.3,6.8C57.5,118.9,56.8,120.4,56.7,119.1z M235.5,241.7c2.3,0.4,4.2,0.8,4.3,0.9
	c0.2,0.8-5.7-0.2-17.9-3.1c-4.5-1.1-10.5-2.5-13.3-3.1c-2.8-0.6-5.2-1.3-5.1-1.6c0-0.4,1.6-0.1,17,3.6
	C226.4,239.8,233.2,241.3,235.5,241.7z M235.3,244.4c-0.4,0.5-6.9-0.7-14.8-2.7c-6.7-1.7-8.7-2.4-7.1-2.5c0.2,0,3.4,0.7,7,1.6
	c3.6,0.9,8.4,2,10.6,2.3C235.3,243.9,235.6,243.9,235.3,244.4z M222.4,245.2c0.2,0.1,0.1,0.3-0.1,0.4c-0.4,0.3-18-5.6-18.9-6.2
	c-1-0.8,0.8-0.3,9.5,2.6C218,243.7,222.3,245.1,222.4,245.2z M221.5,247.7c-0.2,0-4.3-1.3-9-3c-7.6-2.7-9.5-3.5-8.4-3.7
	c0.2,0,4.2,1.3,8.9,3C220.8,246.7,222.7,247.6,221.5,247.7z M68.6,130.7c-0.3-0.2,1.3-7.2,1.7-7.8c0.8-1.1,0.3,2-1.3,7.5
	C68.9,130.7,68.7,130.8,68.6,130.7z M71.6,124.7c0.5-0.7,0.6,0.3,0.2,1.8c-0.3,0.9-0.6,3.1-0.7,4.9c-0.1,1.8-0.4,3.2-0.6,3.2
	C69.8,134.6,70.8,125.8,71.6,124.7z M72.4,153c-0.3,0.2,1.3-8.8,1.7-9.3c0.1-0.1,0.2,0,0.4,0.2C74.8,144.4,72.9,152.7,72.4,153z
	 M31.8,128.9c-1.5-3.1-2.7-5.8-2.6-6.1c0.1-0.3,0.3-0.4,0.4-0.2c4.9,9.7,6.4,12.9,6.2,13.1C35.5,136.1,34.7,134.7,31.8,128.9z
	 M43.7,138.9c0.1-0.2,1,0.2,2.1,0.7c2.5,1.3,3.7,2.1,3.4,2.4c-0.1,0.1-1.4-0.4-2.8-1.1C43.7,139.4,43.6,139.3,43.7,138.9z
	 M26.4,126.5c0.1-0.3,0.3-0.3,0.6,0.1c1.5,2.1,6,7.6,8,9.8c1.3,1.4,2.3,2.7,2.2,2.9C36.6,140.1,26,127.5,26.4,126.5z M40.5,139.1
	c0.2-0.2,11,8.3,12,9.4c1.3,1.5-0.3,0.6-4.3-2.6C43.4,142.2,40.3,139.4,40.5,139.1z M40.3,144.3c-0.1-0.8,1.2-0.3,4.6,1.9
	c4.5,2.9,8.5,5.9,9.2,6.7c1.1,1.5,0,1.1-2.5-0.8c-1.5-1.1-4.6-3.3-6.9-4.8C42.3,145.9,40.4,144.5,40.3,144.3z M96,212
	c-2.1,3.9-3,5.1-3,4.4c0-0.4,3.3-6.8,4.1-7.8c0.2-0.3,0.5-0.4,0.6-0.3C97.8,208.4,97.1,210.1,96,212z M200.3,247.3
	c-6.3-2.1-12.4-4.1-13.7-4.5c-1.3-0.4-2.4-0.8-2.4-1c-0.1-0.7,0.5-0.5,21.1,6.2c4.7,1.5,10.5,3.4,13.2,4.1c2.6,0.7,4.9,1.4,5.1,1.6
	C225.5,255.2,216.4,252.6,200.3,247.3z M219.9,255c-0.2,0.3-6.1-0.9-10.3-2.2c-4.9-1.5-13.6-4.5-14.1-4.8c-1.1-0.8,1-0.3,7.6,1.9
	c3.9,1.3,9.2,2.9,11.8,3.5C219.9,254.6,220.1,254.7,219.9,255z M175.2,250.2c6.9,2.7,36.1,10.2,40.2,10.4c1.1,0,1.4,0.3,1.1,0.7
	c-0.1,0.2-3.9-0.4-8.3-1.3c-12.9-2.6-36.4-9.5-36.6-10.6C171.5,248.8,171.9,248.9,175.2,250.2z M188.6,246.1
	c-0.1,0.2-14-2.6-14.4-2.9c-0.8-0.6,1.4-0.4,7,0.7C187,245.1,188.9,245.7,188.6,246.1z M177.5,245.4c2.7,0.5,5.1,1.2,5.2,1.4
	c0.2,0.4-9.5-1.2-10.2-1.7C171.5,244.4,172.9,244.5,177.5,245.4z M148.1,213c1-0.9,1.4-0.2,0.4,0.7c-2.1,2-9.2,10.6-11.8,14.4
	c-1.9,2.7-2.9,4-3.1,3.9C132.8,231.4,144.9,215.7,148.1,213z M145.8,218.6c0.1,0.5-6.8,10.2-7.1,9.9c-0.4-0.3,0.5-1.8,3.8-6.1
	C144.4,219.9,145.8,218.3,145.8,218.6z M23.8,151.1c0.2,1-0.4,0.4-1.9-1.8c-0.8-1.2-2.4-3.3-3.4-4.4c-2.4-2.7-2.6-3-2.1-3.1
	C16.9,141.5,23.5,149.8,23.8,151.1z M23.3,148.4c0.3-0.4,0.6-0.1,2.9,2.5c2,2.2,2.3,2.7,1.8,2.7C27.6,153.7,23.1,148.7,23.3,148.4z
	 M49.6,170c0.1,0,2,0.9,4.1,2c4.3,2.3,6.8,4,6.5,4.3c-0.1,0.1-1.2-0.4-2.5-1.1c-1.2-0.8-3.6-2.1-5.3-3
	C49.7,170.9,48.8,170.1,49.6,170z M31.1,155.1c0.1-0.2,0.9,0.3,2.1,1.4c1.9,1.6,2.3,2.3,1.7,2.4C34.4,159,30.8,155.4,31.1,155.1z
	 M62.9,181.2c0.1-0.2,0.7,0.2,1.6,1.1c1.4,1.4,1.6,1.8,1.1,1.9C65.1,184.2,62.7,181.6,62.9,181.2z M29.1,158c1,0.9,4.5,3.9,7.8,6.5
	c3.2,2.6,5.8,4.9,5.7,5c-0.5,0.7-15.1-11.5-15.3-12.7C27.2,156.5,27.8,156.9,29.1,158z M31.7,166.3c-0.3,0.3-4.2-2.6-4.2-3.1
	c0-0.2,0.1-0.4,0.2-0.4C28.2,162.7,31.9,166.1,31.7,166.3z M38.8,176.3c0.2-0.3,2.1,0.7,4.9,2.6c1.1,0.7,2.4,1.6,2.9,2
	c1.6,1.1,0.7,1.3-1.1,0.2C41.9,178.9,38.6,176.5,38.8,176.3z M55.4,189.3c0.5-0.7,14.4,11.5,16.7,14.7c0.9,1.3,1,2.4,0,1.2
	c-2.1-2.8-10.2-10.3-14.9-13.9C55.9,190.2,55.2,189.5,55.4,189.3z M197.5,268c-0.2,0.1-2.2-0.5-4.4-1.3c-8.8-3.5-18.5-7.6-19-7.9
	c-1.4-1.1,1.4-0.1,10.9,3.8c5.8,2.4,10.9,4.4,11.4,4.6C197.7,267.5,197.9,267.7,197.5,268z M194.9,269.2c-0.3-0.1-5.8-2.2-12.2-4.7
	c-6.4-2.4-11.7-4.5-12-4.7c-1.3-1,1.8,0,11.6,3.8c6.1,2.3,11.4,4.3,11.9,4.5c0.5,0.2,1.1,0.4,1.3,0.6
	C196.1,269.1,195.6,269.5,194.9,269.2z M192.3,272c-0.1,0.1-5-1.7-10.9-4.1c-5.9-2.4-13.8-5.4-17.5-6.6c-3.7-1.3-6.8-2.5-6.8-2.7
	c-0.1-0.8,9.7,2.6,24.6,8.6C191.4,271.1,192.6,271.6,192.3,272z M183,270.3c-6.6-2.8-13.3-5.3-18.5-6.7c-4.5-1.2-4.8-1.4-4.2-1.6
	c1.2-0.5,12.6,3.2,21.4,6.9c3.2,1.3,6.2,2.7,6.5,3C189.7,272.9,187.9,272.3,183,270.3z M148.2,268.7c0.2,0.4-0.6,0.6-1,0.3
	c-0.2-0.1-3.5-1.4-7.3-2.7c-3.8-1.4-7-2.6-7-2.8c0-0.2,0-0.3,0.2-0.4c0.1,0,3.5,1.2,7.6,2.6C144.7,267.2,148.1,268.5,148.2,268.7z
	 M51.8,206.3c-9.4-5.9-15.3-10-14.8-10.2c0.2-0.1,2.2,1.1,4.4,2.6c2.2,1.5,6.8,4.4,10.1,6.5c7.1,4.4,11.1,7.3,10.5,7.6
	c-0.2,0.1-1.1-0.4-1.9-1C59.3,211.2,55.6,208.7,51.8,206.3z M64.1,217c-0.2,0.3-19.4-11.7-19.5-12.1c0-0.2,0-0.4,0.2-0.4
	c0.1,0,3.8,2.2,8.3,5C61.9,215,64.4,216.6,64.1,217z"/>
</svg>
