<?xml version="1.0" encoding="utf-8"?>
<!-- Generator: Adobe Illustrator 23.0.1, SVG Export Plug-In . SVG Version: 6.00 Build 0)  -->
<svg version="1.1" id="Layer_1" xmlns="http://www.w3.org/2000/svg" xmlns:xlink="http://www.w3.org/1999/xlink" x="0px" y="0px"
	 viewBox="0 0 251 280" style="enable-background:new 0 0 251 280;" xml:space="preserve">
<style type="text/css">
	.st0{fill:#6E9267;}
</style>
<path class="st0" d="M248.6,50.8c-0.5-0.3-21.3,6.9-28.3,9.8c-6.6,2.7-13.4,6.3-20,10.7c-2.2,1.5-3,1.8-3.3,1.4
	c-0.3-0.4-1.2,0-3.8,1.8c-2.9,2-15.7,12.3-18.8,15.1c-0.9,0.8-1.2,0.9-1.8,0.4c-0.6-0.5-0.9-0.4-1.8,0.1c-1.2,0.9-4.4,4.3-10.5,11.3
	c-4,4.7-4.8,5.4-5.6,5.2c-0.7-0.2-1.2,0.1-2.6,1.6c-4.9,5.4-8.3,10.1-15.1,20.8c-0.2,0.4,0.9-6.9,2.6-16.2c2.7-15.1,3-17,2.6-18
	c-0.3-0.8-0.7-1.1-1.3-1c-0.9,0.1-0.9,0.1-0.8-6.4c0-2.3,0.5-8.3,1.1-13.4c1.1-9.5,1.1-10.7,0.1-10.9c-0.4-0.1-0.5-0.8-0.1-3.1
	c0.8-4.5,1.8-15.4,1.7-17.2c-0.1-0.9-0.4-1.8-0.6-2c-0.3-0.3-0.3-1.7-0.1-4.1c0.2-2.1,0.3-5.2,0.3-7.1c0-1.9-0.1-6.5-0.1-10.5
	c0-9.3-0.3-11.6-1.3-11.7c-0.4-0.1-1.1,0.1-1.4,0.4c-1.4,1.3-6.9,8.5-10.7,14.3c-3.9,5.8-7.6,12.1-10.1,17c-1.8,3.5-2.1,4-2.8,3.7
	c-0.5-0.2-1-0.1-1.5,0.5c-1.1,1.2-4.7,10.9-5.8,15.9c-0.7,3-1.2,4.5-1.5,4.4c-1.7-0.5-1.6-0.7-3.3,9c-0.8,5.1-1.7,11.8-2,15
	c-0.4,5.2-0.5,5.7-1.2,6c-1.3,0.5-1.4,3.6-0.8,17.8c0.2,4.3,0.3,7.8,0.3,7.8c0,0-0.4,0.1-0.9,0c-0.8,0-1,0.2-1.2,1.6
	c-0.1,0.9,0.3,8.6,0.9,16.9c0.6,8.4,1.1,16,1,16.9c-0.1,1.4-0.3,1.6-1.1,1.6c-0.5,0-1.2,0.3-1.5,0.7c-0.4,0.5-1.5,6.5-3.5,19
	c-1.6,10-3.1,18.4-3.3,18.6c-0.2,0.2-1,0.5-1.7,0.7c-1.7,0.5-2.1,1.4-2.8,7.2c-0.7,5.6-3.9,21.5-5.8,28.9c-0.8,3.1-1.9,6.1-2.8,8
	c-2.5,4.9-3.3,7.8-4.5,15.7c-1.2,7.8-1.1,9.6,0.3,9.9c1.4,0.2,2.3-0.3,13.1-7.3c12.4-8.1,16.3-10.4,26.6-15.6
	c23.3-11.8,49.4-29.4,55.7-37.6c1.1-1.4,1.2-1.6,0.7-2.7c-0.5-1.1-0.4-1.2,4.5-5.2c11-9,20.3-17.8,23.6-22.2c2-2.6,2.7-4.9,1.8-5.5
	c-0.7-0.4-0.6-0.6,7.4-9.9c8.7-10.1,8.9-10.4,7.5-11.8c-0.7-0.7-0.6-0.8,1.5-3.8c3.7-5.3,6.2-9.6,6.5-11.2c0.3-1.5,0.2-1.6-2.4-2.6
	c-0.7-0.3-1.2-0.6-1.2-0.6c0-0.1,1.7-2.7,3.7-5.9c2-3.2,4.2-6.7,4.8-7.9s2.3-4,3.7-6.4c5-8.4,5.6-10.7,2.6-10.7
	c-1,0-1.5-0.2-1.6-0.6c-0.2-1,3-9.2,5.4-13.9c2.6-5,2.8-5.9,1.7-6.4c-0.4-0.2-0.8-0.4-0.8-0.4c0-0.1,0.8-1.3,1.7-2.8
	C245.2,65.8,250.3,51.8,248.6,50.8z M140.3,126.5c4.5-7.1,7.2-10.9,11.6-16c1.7-2,2.2-2.4,2.9-2.1c0.8,0.3,1.4-0.3,5.5-5.1
	c8-9.4,11.2-12.6,11.6-12c0.2,0.3,0.6,0.6,0.9,0.6c0.3,0,4-2.9,8.3-6.4c11.1-9.2,14.2-11.6,14.7-10.9c0.5,0.6,1.7,0.1,5.4-2.4
	c4.8-3.2,11.3-6.8,16.3-9c4.9-2.2,29.2-11.2,29.9-11.1c0.2,0,0.2,0.2-0.1,0.3c-0.3,0.1-6.5,7.1-13.7,15.5
	c-15.7,18.3-28.5,32.4-28.8,31.9c-0.1-0.2,2.5-5.6,7.1-14.7c3.1-6.1,8.6-15.1,12.2-20c2.9-3.9,2.9-4,2.3-4.1
	c-0.5-0.1-5.4,6.8-9.2,13.1c-3.4,5.5-6.6,11.6-11.4,21.2l-3.4,6.9l-5.2,5.6c-2.9,3.1-7.7,8.6-10.7,12.2
	c-6.5,7.9-17.9,21.1-18.1,20.8c-0.3-0.4,5.1-12.9,7.9-18.2c1.8-3.4,5.9-12.7,9.6-21.6c7.4-17.7,9-22,9.1-23.6c0-1.7-0.3-0.9-3.1,6.5
	c-1.3,3.6-4,10.3-5.9,14.9c-1.9,4.6-4.4,10.5-5.4,13c-2.6,6.3-2.6,5.2,0.1-1.6c1.2-3,2.1-5.7,2-5.9c-0.3-0.7-0.9,0.7-3.7,7.9
	c-1.5,3.8-3,7.4-3.3,8c-0.4,0.7-0.5,1.2-0.2,1.4c0.2,0.2-0.4,1.7-1.5,3.8c-1,1.9-2.9,6.2-4.1,9.5c-1.3,3.3-2.4,6-2.5,6.1
	c-0.1,0.1,0-1.2,0.3-2.9c0.3-2,0.4-3.1,0.1-3.2c-0.3-0.1-0.7,1.4-1.1,4.6l-0.7,4.7l-4.1,4.5c-2.2,2.5-7.3,8.1-11.3,12.5
	c-4,4.4-7.3,8-7.4,7.9c-0.3-0.4,3.8-17.4,4.9-20.7c2.3-6.9,6.3-16.1,12.3-28.9c3.3-6.9,7-14.9,8.3-17.8c2.4-5.3,3.8-9.8,3.2-9.9
	c-0.4-0.1-2.6,4.7-3.1,7c-0.2,1-3.3,7.9-6.8,15.4c-7.9,16.8-9.1,19.6-11.9,26.7c-3.4,8.7-3.8,10.1-6.1,20.5l-2.1,9.6l-3.3,3.9
	c-3.2,3.7-21.9,26.4-23.7,28.8c-0.5,0.6-0.8,0.8-0.8,0.5c0.2-1.4,4.3-14.8,6.6-21.7c9.2-27.2,10.3-30.7,11.9-37.2
	C134.5,136.1,135.2,134.7,140.3,126.5z M177.9,117.4c0-0.4,0.2-0.6,0.3-0.5c0.1,0.2,0.1,0.5-0.1,0.8
	C177.9,118,177.8,117.9,177.9,117.4z M105.4,204.5c-0.4-0.5-2.8,10.4-2.8,12.6c0,1-0.2,2.1-0.5,2.6c-0.9,1.8-0.8-0.8,0.3-7.6
	c1.5-8.6,0.8-9.4-0.8-1c-1.1,5.7-1.1,5.6,0.1-1.9c1.1-6.8,1.2-7.9,0.6-7.7c-1.1,0.2,0.9-9.9,2.7-14.3c0.8-1.9,1.8-3.6,2.1-3.9
	c0.4-0.3,0.8-1.2,0.9-2c0.2-1,0.5-1.4,0.8-1.4c0.3,0.1,0.7-0.3,0.9-0.7c0.2-0.5,0.5-0.7,0.7-0.5c1.1,0.9,2.1-1.3,6.1-14
	c3.4-10.8,6.6-18.5,9.2-22.2c0.9-1.3,1-1.2,1.6,0.4c0.3,0.8,0.4,2.6,0.2,4.6c-0.3,3.6,0.1,5,0.6,2c0.2-1.3,0.5-1.8,0.8-1.7
	c0.3,0.1,0.7-0.4,1-1.2c0.3-0.9,0.3-0.2-0.2,1.9c-0.7,3.3-2.2,7.8-8.9,27.3c-4.2,12.2-9.5,30-9.4,31.4c0,0.2-1.7,2.7-3.9,5.5
	l-3.9,5.2l1-6.4C105.3,207.8,105.6,204.8,105.4,204.5z M101.4,189.8c0.1-0.6,0.2-0.8,0.3-0.5c0.1,0.3,0,0.8-0.2,1
	C101.3,190.6,101.3,190.3,101.4,189.8z M101.2,187.3c-0.2,0.5-0.2,0.1,0-0.9s0.3-1.4,0.3-0.9C101.5,186,101.3,186.8,101.2,187.3z
	 M101.4,179.5c0,1.1-0.2,2.7-0.5,3.4c-0.5,1.3-0.5,1.3-0.7,0.3c-0.2-1.3,1.2-9.6,1.6-9.9c0.6-0.4,1.1,0.6,1,1.9
	c-0.1,0.7-0.4,1.4-0.8,1.7C101.5,177.4,101.4,178,101.4,179.5z M102.5,180.3c0.2-1.4,0.4-1.6,0.5-1c0.1,0.5,0.1,1.7-0.1,2.7
	c-0.2,1.4-0.4,1.6-0.5,1C102.3,182.5,102.4,181.3,102.5,180.3z M103.3,184.5c0.1,0.3,0,0.8-0.2,1.2c-0.2,0.4-0.2,0.1-0.1-0.5
	C103.1,184.5,103.3,184.2,103.3,184.5z M105.5,182.8c0-0.4,0.2-0.6,0.3-0.5c0.1,0.2,0.1,0.5-0.1,0.8
	C105.5,183.4,105.4,183.2,105.5,182.8z M105,180.4c-0.4,1-0.6,1.3-0.5,0.7c0.1-1.1,0.9-2.9,1.1-2.7
	C105.7,178.5,105.4,179.4,105,180.4z M107,163.3c0.6-1.1,0.8,2.5,0.4,6.9c-0.4,4.3-1,4.2-1.5-0.2C105.5,167.1,105.8,165.7,107,163.3
	z M107,158.5c0,0.8-0.4,2.4-0.8,3.6c-0.6,1.7-0.7,2-0.8,1.1c-0.1-0.6-0.3-1.1-0.6-1c-0.3,0-0.4-0.1-0.3-0.3c0.1-0.2,0.8-1.3,1.4-2.6
	C107.1,157.1,107.1,157.1,107,158.5z M104.6,165.4c-0.1,0.7-0.2,0.6-0.5-0.4c-0.2-0.7-0.2-1.5,0-1.9c0.4-0.6,0.4-0.6,0.5,0.4
	C104.7,164.1,104.7,164.9,104.6,165.4z M104.8,158.9c-0.8,1.7-1.7,3.1-1.9,3.1c-0.2,0-0.2-0.3-0.1-0.5c0.1-0.3,0.9-1.7,1.7-3.3
	c0.8-1.5,1.5-2.7,1.6-2.6C106.3,155.7,105.7,157.1,104.8,158.9z M104.6,170.4c0.2,0.2,0.4,1.5,0.6,2.9c0.2,2,0.1,3.1-0.4,4.2
	l-0.6,1.6l-0.2-1.7C103.7,175,104.2,170,104.6,170.4z M110.8,170.1c0.1,0.1-0.2,1-0.5,1.9c-0.4,1-0.6,1.3-0.5,0.7
	C109.9,171.7,110.6,169.9,110.8,170.1z M110.3,166.8c0.1-0.7,0.3-1,0.3-0.7c0.1,0.3,0,0.8-0.2,1.2
	C110.3,167.7,110.2,167.5,110.3,166.8z M113.4,170.1c0,0.3-0.3,1.6-0.7,2.8c-0.6,1.8-0.7,1.9-0.6,0.7
	C112.3,171.8,113.3,169.1,113.4,170.1z M112.7,153.2c0.3-1.7,0.5-2.3,0.4-1.5c-0.1,0.9-0.3,2.2-0.5,3
	C112.4,155.6,112.5,154.9,112.7,153.2z M115.1,147.5c1.2-5.2,4.5-13.1,4.6-10.9c0,0.7,0,1.9-0.2,2.8c-0.2,1.5-0.3,1.6-0.7,0.7
	c-0.5-0.8-0.5-0.7-0.7,1.8c-0.2,2.6-1.4,5.6-2,5.5c-0.2,0-0.4,0.6-0.6,1.5c-0.2,0.9-0.5,1.8-0.8,2.3
	C114.3,151.7,114.4,150.4,115.1,147.5z M114.9,142.5c0-0.4,0.2-0.6,0.3-0.5c0.1,0.2,0.1,0.5-0.1,0.8
	C114.9,143.1,114.9,143,114.9,142.5z M119.6,133.8c-0.9,1.7-1.5,2.7-1.5,2.3c0.1-0.9,4.9-9.4,5.1-9c0,0.1-0.2,1-0.6,2.1
	c-0.4,1.2-0.8,1.9-1.1,1.8C121.3,130.9,120.5,132,119.6,133.8z M120.8,134.2c-0.2,0.3-0.3,0.2-0.2-0.3c0-0.4,0.2-0.6,0.3-0.5
	C121,133.5,121,133.9,120.8,134.2z M118.4,129.7c-0.2,0.9-0.6,2.1-0.9,2.8c-0.5,0.9-0.4,0.2,0.1-2.9s0.7-3.8,0.9-2.8
	C118.6,127.5,118.5,128.8,118.4,129.7z M119,146.8c-0.2,0.3-0.3,0.2-0.2-0.3c0.1-0.4,0.2-0.6,0.3-0.5
	C119.2,146.2,119.2,146.6,119,146.8z M114.8,165.5c0.1-0.7,0.3-1,0.3-0.7c0.1,0.3,0,0.8-0.2,1.2
	C114.7,166.4,114.6,166.2,114.8,165.5z M114.7,155.9c0-0.4,0.2-0.6,0.3-0.5c0.1,0.2,0.1,0.5-0.1,0.8
	C114.7,156.5,114.6,156.4,114.7,155.9z M121.8,141.5c0.1-0.5,0.4-1.5,0.7-2.2l0.5-1.3l-0.1,1.5c-0.1,0.9-0.4,1.8-0.7,2.2
	C121.7,142.3,121.6,142.3,121.8,141.5z M124.3,136.1c0.5-4,0.7-5,1.5-7.3c0.6-1.8,0.6-1.6,0.1,3c-0.4,3.7-0.8,5.2-1.3,6.1
	C124,139,123.9,138.9,124.3,136.1z M128.2,131.4c0.1-0.9,0.3-1.3,0.3-0.9c0,0.4-0.1,1.2-0.3,1.6
	C128.1,132.6,128.1,132.3,128.2,131.4z M129,146.2c0.1-0.7,0.3-1,0.3-0.7c0.1,0.3,0,0.8-0.2,1.2C128.9,147.1,128.9,146.8,129,146.2z
	 M129.9,140.9c0.1-0.9,0.3-1.3,0.3-0.9c0,0.4-0.1,1.2-0.3,1.6C129.8,142.1,129.8,141.8,129.9,140.9z M130.7,135.9
	c0.2-1.1,0.7-3.2,1.1-4.6l0.8-2.5l-0.5,3.7c-0.3,2-0.8,4.1-1.1,4.6C130.4,137.9,130.4,137.7,130.7,135.9z M139.1,106.2
	c-0.6,3.8-1.6,9.2-2.2,12.2c-0.7,3-1.3,5.2-1.5,5.1c-0.2-0.2-0.4,0.3-0.5,1c-0.1,0.7-0.4,1.2-0.6,1.2c-0.2,0-0.4-0.3-0.3-0.6
	c0-0.3-0.2-0.8-0.6-1.1c-0.6-0.5-0.7-0.5-1.1,0.2c-0.2,0.5-0.7,2.3-1,4.1c-0.8,4.7-2.8,13.1-3,12.8c-0.1-0.1,0.5-3.9,1.3-8.2
	c1-5.4,1.3-8.1,1-8.4c-0.3-0.3-0.1-1.4,0.7-3.9c1.3-4.3,1.5-5.3,1-5.4c-0.3-0.1-2.8,7.8-4.8,15.5l-1,3.8l0.6-3.9
	c0.4-2.6,0.5-4,0.2-4.2c-0.3-0.2-0.1-1,0.7-3.1c1.4-3.3,1.6-4.3,0.9-3.8c-0.3,0.2-1.2,2.2-2.1,4.4c-0.9,2.2-1.7,4.2-1.9,4.3
	c-0.2,0.1-0.8,1.9-1.3,4c-0.5,2.1-1.2,4.4-1.5,5.2c-1.1,2.5,0.2-4,1.7-9c1.2-3.7,1.9-5.2,4.3-8.8c1.6-2.4,3.9-5.9,5.1-7.9
	c1.2-2,2.8-4.3,3.4-5.2c0.6-0.9,1.6-2.8,2.3-4.3l1.2-2.7L139.1,106.2z M129.4,127.2c0.2-1.2,0.4-1.7,0.4-1.1c0,0.6-0.2,1.6-0.4,2.2
	C129.1,128.9,129.2,128.4,129.4,127.2z M139.4,16.9c0.6-3.7,1.2-5.9,1.3-5.6c0.2,0.2,0.3,3,0.2,6.1c0,3.1,0,7.7,0,10.3
	c0,2.5-0.3,7.3-0.7,10.6c-0.7,5.6-0.7,5.9,0,6.1c1.1,0.2,1.1,1.9-0.6,11.8c-0.8,4.6-1.3,8.6-1.1,9c0.2,0.4,0.6,0.6,1.1,0.5
	c0.8-0.1,0.8,0.2-0.3,7.9c-1.1,7.6-1.7,18.1-1.1,20.7c0.1,0.7,0.5,1.1,1.2,1.2c1.2,0.2,1.6,0.9,0.9,1.5c-0.3,0.2-0.7,1.1-1,1.8
	c-0.3,0.8-1.1,2.6-1.9,4.2c-1.3,2.7-2.2,3.3-1.8,1.2c0.1-0.5,0-1-0.3-1.1c-0.3-0.1-0.5,0.5-0.5,1.9c0,1.1,0,2.2-0.1,2.4
	c-0.1,0.8-5.6,8.7-5.8,8.3c-0.1-0.2-0.2-2.1-0.3-4.2c-0.1-2.1-0.3-3.7-0.4-3.8c-0.5-0.1-0.6,1-0.4,5c0.1,2,0.4,3.7,0.6,3.8
	c0.2,0.1-0.5,1.5-1.6,3.1c-1.1,1.6-2.5,3.8-3.2,4.9c-0.7,1.1-1.3,1.9-1.3,1.8c-0.1-0.1-0.1-3,0-6.5c0.1-5.9,0-7.2-0.5-6.8
	c-0.3,0.2-0.4,13.4-0.1,13.7c0.2,0.2-0.1,0.9-0.5,1.6c-0.8,1.2-0.9,1.2-0.9,0.4c0-0.5-0.3-1-0.5-1c-1.1-0.2-0.9-6.2,0.5-14
	c1.4-8.3,1.8-9.4,7.8-20.8c3.4-6.5,8.9-21,8.3-21.6c-0.7-0.6-1.1,0.3-3.4,7c-1.5,4.3-3.3,8.7-5.2,12.3c-1.6,3.1-3.4,6.7-4.1,8.1
	l-1.2,2.5l1.9-11.1c2-12,2.4-13.3,7-23.6c2.7-6.2,6.8-16.8,6.6-17.2c-0.4-0.6-0.8,0.2-3.2,6.3c-1.3,3.4-3.4,8.2-4.5,10.7l-2.1,4.5
	l1.7-8.7c1.5-8,1.8-9.1,3.8-13.8c1.8-4.3,3.3-8.6,5.7-17.1c0.4-1.5,0.2-2.6-0.5-2.2c-0.1,0.1-0.9,2.4-1.7,5.3
	c-0.8,2.8-2,6.3-2.6,7.7l-1,2.5l0.7-3C136.3,32.5,138.5,22.3,139.4,16.9z M130.9,22c1.5-2.5,6.9-10.1,7.2-10.1c0.1,0-0.4,3.2-1.2,7
	c-2.5,11.9-6.8,30.1-7.1,29.8c-0.2-0.1-0.6-2.4-1-5.1c-0.6-4.4-0.6-5.4,0.2-12.3C129.7,24.5,129.9,23.6,130.9,22z M116.2,44.8
	c1,0.4,1.4-0.2,4.9-6.7c1.6-3,3.9-7.1,5.2-9.1l2.3-3.7l-0.7,6.9c-0.5,4.9-0.6,7.8-0.3,9.9c0.2,1.7,0.7,4.4,1.1,6.2l0.7,3.2
	l-2.1,10.4c-1.1,5.7-2.2,10.8-2.5,11.3c-0.3,0.7-1.4-2.5-4.8-13.9C116.6,48.3,115.7,44.6,116.2,44.8z M107.2,67.8
	c0.6,1.5,1.2,0.5,1.9-3.7c0.9-5.4,3.9-15,5.4-17.8c0.2-0.3,1.1,1.9,2.1,5.4c1,3.3,1.6,6,1.4,6c-0.6,0.1-1.9,8.1-1.4,8.2
	c0.2,0,0.7-1.5,1.1-3.9c0.6-3.1,0.8-3.8,1-3.1c0.3,0.9,0.3,1.6-0.5,6.8c-0.3,1.9-0.3,3.4-0.1,3.4c0.2,0,0.7-1.3,1-3.3l0.6-3.4
	l2.2,7.5l2.2,7.5l-2.9,15.2l-2.9,15.2l-0.8-2.4c-0.4-1.3-1.5-4.4-2.5-6.9c-1.9-5.1-2-5.5-1.7-14.4c0.1-3.5,0.2-6.5,0.1-6.6
	c-0.5-0.7-0.7,0.6-0.9,5.1c-0.3,9.2-0.3,8.4-0.7,7.1c-0.5-1.4-0.5-5,0.1-10.5c0.2-2.3,0.2-4,0-4.1c-0.3,0-0.6,1.6-1,4.5l-0.5,4.6
	l-1.2-4c-0.7-2.2-1.5-5.8-1.8-8.1C106.8,67,106.8,66.8,107.2,67.8z M102.3,95.3c0.7-0.6,0.8-1.1,1.1-5.1c0.3-5.1,1.6-15.8,2.4-18.8
	l0.5-2l0.7,4c0.4,2.2,1.7,7.4,2.9,11.6c1.2,4.2,3.1,10,4.2,13c1.1,3,2.5,6.9,3.2,8.8l1.1,3.4l-2.5,14.1c-1.3,7.8-2.6,14.3-2.9,14.6
	c-0.3,0.3-0.5-0.1-0.8-1.2c-1.5-6.4-5-20.5-7.6-30.2C101.6,96.5,101.5,95.9,102.3,95.3z M100.5,121.4c0.5,0.1,1-0.1,1.2-0.5
	c0.2-0.3,0.2-5.1-0.1-10.6c-0.4-9.8-0.5-10.9-0.2-10.5c0.1,0.1,1.4,4.8,2.9,10.3c1.5,5.5,3.5,13.5,4.5,17.7c1,4.2,2.2,9,2.7,10.6
	c0.7,2.4,0.8,3.5,0.5,5.4l-0.4,2.3l-0.6-3c-0.3-1.7-0.7-3.4-0.8-3.8c-0.1-0.4-0.3-0.7-0.6-0.6c-0.2,0.1,0,2.2,0.5,4.6
	c0.9,4.8,0.9,5.1-1.1,10.7c-0.9,2.6-1.4,3.1-1.2,1.3c0.1-1-0.8-1.8-0.9-0.8c-0.1,0.3-0.5,0.6-0.9,0.7c-0.5,0-1.3,0.9-2.2,2.6
	c-1.2,2.3-1.4,2.5-1.7,1.8c-0.2-0.5-0.3-2-0.2-3.5c0.2-2.6-0.6-16.7-1.6-27.1C99.6,120.8,99.6,121.2,100.5,121.4z M95.2,181.4
	c0.7-4,1.5-9.7,1.7-12.7c0.5-5.3,1.7-10.8,2.3-10.7c0.2,0,0.6,0.2,0.9,0.4c0.3,0.2,0.9,1,1.2,1.8l0.6,1.4l-2.4,4.6
	c-2.2,4.2-2.8,5.8-1.8,5.1c0.2-0.1,1.2-1.9,2.2-3.9c1.7-3.4,2.7-5,2.5-3.8c-0.1,0.3-0.9,2.3-1.8,4.5c-1.6,3.7-1.9,4.9-0.9,4.1
	c0.2-0.2,0.9-1.5,1.6-3c1.7-3.7,1.9-4,2.3-2.4c0.2,1,0.1,1.7-0.4,2.8c-0.6,1.3-0.7,1.4-0.5,0.3c0.1-0.6,0-1.1-0.2-1
	c-0.2,0.1-0.9,2.1-1.5,4.6c-1,4.3-2.1,6.1-1.5,2.4c0.2-1.2,0.1-1.8-0.2-1.8c-0.3,0.1-0.7,1.3-1.1,3.7c-0.5,2.9-0.6,3.4-0.8,2.5
	c-0.1-0.7-0.4-1.2-0.6-1.3c-0.5-0.1-0.5,0.4-0.2,2.3c0.5,2.8,0.5,4.1,0.1,3.7c-0.2-0.2-0.6,0.9-1,3.5l-0.7,3.8l-0.5-1.8
	C94.1,189,94.2,187.6,95.2,181.4z M98.9,186.8c0.4-2.6,1-2.3,0.7,0.4c-0.1,0.6-0.3,1.8-0.4,2.6C98.6,192.2,98.4,189.8,98.9,186.8z
	 M98.4,183.7c-0.2,0.8-0.2,0.1,0.1-1.6c0.3-1.7,0.5-2.3,0.4-1.5C98.9,181.5,98.7,182.9,98.4,183.7z M97.9,194.1
	c-0.2,0.4-0.2,0.1-0.1-0.5s0.3-1,0.3-0.7C98.2,193.2,98.1,193.7,97.9,194.1z M96.3,191.5c-0.2,0.7-0.2,0.2,0-1.1
	c0.2-1.3,0.4-1.9,0.4-1.3C96.7,189.7,96.5,190.8,96.3,191.5z M96.4,200.5c-0.2,0.4-0.2,0-0.1-0.7c0.1-0.8,0.3-1.1,0.3-0.7
	C96.6,199.5,96.5,200.1,96.4,200.5z M94,207.7c0.1-0.7,0.4-1.1,0.6-0.9c0.2,0.2,0.3,0.7,0.2,1.1c-0.1,0.4-0.3,0.9-0.6,0.9
	C94,208.9,93.9,208.5,94,207.7z M93.4,191.6c0.3-1.9,0.4-0.2,0.2,4.5c-0.2,4.4-0.4,5.7-0.8,5.1C92.7,201,93.2,193,93.4,191.6z
	 M92.4,207.3c0-0.4,0.2-0.6,0.3-0.5c0.1,0.2,0.1,0.5-0.1,0.8C92.5,207.9,92.4,207.8,92.4,207.3z M91.6,196.5c0.5-0.8,0.6,1,0.3,4.7
	c-0.1,1.7-0.3,2.3-0.6,2.2C90.7,203.1,91,197.5,91.6,196.5z M91,206.2c0-0.4,0.2-0.6,0.3-0.5c0.1,0.2,0.1,0.5-0.1,0.8
	C91,206.8,90.9,206.7,91,206.2z M89.4,196.8c-0.2-0.2-0.1-0.3,0.3-0.3c0.5,0.1,0.6,0.8,0.4,3.3c-0.2,1.8-0.3,3.8-0.3,4.7
	c0,1.1-0.1,1.3-0.4,0.7c-0.2-0.4-0.2-2.4,0-4.4C89.7,198.8,89.7,197,89.4,196.8z M89,215.7c0.1-0.6,0.2-0.8,0.3-0.5
	c0.1,0.3,0,0.8-0.2,1C88.9,216.5,88.9,216.2,89,215.7z M89,218.6c0-0.9,0-0.9,0.4,0.3c0.7,1.9,1,0.9,0.9-2.7c-0.1-1.7,0-3.6,0.1-4.1
	c0.2-1.1,0.9,3.6,0.9,5.9c0,1.4-0.3,1.8-1.3,2.7l-1.3,1l0.2-1C88.9,220.1,89,219.2,89,218.6z M88.5,199.3c0.2-1.2,0.4-1.7,0.4-1.1
	c0,0.6-0.2,1.6-0.4,2.2C88.3,201,88.3,200.5,88.5,199.3z M87,208.7c0.7-3.4,1.4-6.1,1.4-6c0,0.1-0.4,3.7-1,8
	c-0.6,4.3-1.1,8.7-1.1,9.6c-0.1,2.9-0.4,1.5-0.5-2.1C85.6,215.5,85.9,213.7,87,208.7z M87.9,215.6c-0.2,0.5-0.2,0.2-0.1-0.7
	c0.1-0.9,0.3-1.3,0.3-0.9C88.2,214.4,88.1,215.1,87.9,215.6z M87.8,223.2c-0.3,0.5-0.3-4.8-0.1-5.9c0.1-0.4,0.2,0.7,0.2,2.4
	C88,221.4,88,223,87.8,223.2z M85.1,225.8c0.1,1.3-0.1,2-0.4,2.2c-0.4,0.3-0.4-0.3-0.1-1.8L85,224L85.1,225.8z M81.7,231.8
	c0.3-0.9,1.1-4.3,1.8-7.6l1.4-6l-0.8,6.1c-0.7,5.4-1,6.3-1.8,7.6l-1,1.5L81.7,231.8z M75.5,249.6c0-0.4,0.2-0.6,0.3-0.5
	c0.1,0.2,0.1,0.5-0.1,0.8C75.5,250.2,75.5,250.1,75.5,249.6z M75.5,259.2c-0.5-0.5,0.3-5.8,1.7-11.4c1.3-5.2,1.8-6.5,3.5-9.5
	c2.7-4.7,9.9-15.9,10.9-17c1-1,2.6-5.6,4-10.7c0.5-2,1.1-3.8,1.3-3.8c0.2-0.1,0.3-0.5,0.3-1c0-0.4,0.6-3.1,1.5-6
	c0.9-2.9,1.6-5.2,1.6-5.3c0-0.1,0.5,0,1,0.1l1,0.2l-2.8,16l-2.8,16l-1.4,1.9c-0.8,1.1-3.4,5.2-5.9,9.1
	C80.2,252.3,75.7,259.3,75.5,259.2z M99.8,216.2c-0.6,5-1.1,7.8-1.5,8.3c-0.4,0.6-0.1-1.6,0.9-7.5l1.5-8.3L99.8,216.2z M100.5,220.3
	c0,0.4-0.1,1.2-0.3,1.6c-0.2,0.5-0.2,0.2-0.1-0.7C100.3,220.3,100.5,219.9,100.5,220.3z M168.1,203.1c0,0.1-7.2,4.4-8.3,4.9
	c-0.1,0.1-0.1,0.3-0.1,0.6c0,0.3,1.4-0.3,3.2-1.3c1.7-1,3.1-1.8,3.1-1.6c-0.1,0.8-8.9,7.9-14.5,11.7c-14.2,9.6-24.8,15.9-39.2,23.1
	c-9.6,4.8-15.3,8.1-25.8,14.9c-3.6,2.4-6.6,4.2-6.7,4.2c-0.2-0.3,0.7-1.3,0.9-1.1c0.1,0.1,1.4-0.8,2.9-2.1c1.5-1.3,4.3-3.6,6.2-5.2
	c2-1.6,3.5-3,3.3-3.2c-0.2-0.3-1.8,0.8-6.8,4.8l-2.6,2.1l2.7-2.9c1.5-1.6,4.1-4.2,5.8-5.9c3-2.9,3.6-3.6,2.9-3.7
	c-0.4-0.1-7.3,6.5-9.6,9.1c-0.9,1.1-1.7,1.8-1.8,1.7c-0.1-0.1,0.9-1.7,2.2-3.6c2.5-3.8,7.8-9,12.6-12.5c1.6-1.2,2.9-2.2,2.8-2.4
	c-0.3-0.5-2.9,1.1-5.8,3.6c-5.6,4.7-5.3,4.6-3.6,1.8c2.4-3.9,2.8-4.3,6.1-6.1c1.7-0.9,3.2-1.7,3.3-1.8c0.1,0,0.1-0.3,0.1-0.6
	c0-0.3-1,0-2.4,0.7c-3.4,1.8-3.6,1.9-2.7,0.6c1-1.4,3.4-2.8,9.1-5.7c2.5-1.2,4.6-2.3,4.7-2.4c0.1,0,0.1-0.3,0.1-0.5
	c0-0.3-2.2,0.6-4.8,2c-6.9,3.6-7,3.6-5.2,2c0.9-0.8,2.5-2,3.6-2.8c2.9-1.9,12.2-6.9,16.4-8.7c5.3-2.3,17.5-5.7,26.8-7.5
	c9-1.8,13.3-3,17.8-5C168.1,202.9,168.1,202.8,168.1,203.1z M198.8,170.5c-0.2,1.2-1.4,2.8-1.8,2.4c-0.2-0.2-1.6,0.7-3.1,1.9
	c-6,4.8-9.7,7.2-13.3,9.1c-4.2,2.1-4.5,3.1-0.3,1.2c2.7-1.2,9.2-5.6,14.1-9.5c1.9-1.5,2.5-1.8,1.7-1c-4,4.6-13.2,12.8-23,20.6
	c-5.9,4.7-6.1,4.9-5.7,5.9c0.3,0.7-0.2,1-3.8,2.5c-5.4,2.3-6.3,2.6-15.3,4.4c-19.2,3.8-29.9,7.7-43,15.6l-2.8,1.7l1.8-2.2
	c2-2.5,2.5-3,2.8-2.5c0.1,0.2-0.3,0.7-0.9,1.2c-2.5,1.9-0.5,1.2,4.3-1.4c2.8-1.6,7.1-3.7,9.7-4.7c4.3-1.8,5.3-2.4,4.3-2.6
	c-0.6-0.1-11.2,4.8-14.1,6.4c-1.2,0.7-2.3,1.1-2.4,0.8c-0.1-0.2,0.9-1,2.3-1.7c1.4-0.7,3.6-2.2,5.1-3.3c1.5-1.1,4.3-2.6,6.5-3.5
	c2.2-0.9,4-1.7,4-1.9c0.1-0.7,0.3-0.8-12.6,4.6c-2.5,1-3.4,2-2.1,2.2c0.3,0.1,0.6-0.1,0.7-0.3c0-0.2,0.6-0.6,1.3-0.9l1.2-0.5l-1.4,1
	c-0.7,0.6-2.3,1.5-3.3,2l-1.9,0.9l2.1-2.8c1.5-2,2.7-3,4-3.6c1-0.5,2.7-1.4,3.6-2c0.9-0.6,3.6-1.7,6-2.5c4-1.3,5.1-1.8,3.9-2
	c-1.1-0.2-10.2,3.3-11.8,4.5c-2.1,1.5-2.4,1.2-0.7-0.8c0.7-0.8,1.4-1.4,1.5-1.3c0.1,0.2,1.5-0.4,3.1-1.1c1.6-0.8,3.1-1.4,3.2-1.4
	c0.6,0.1,6.3-2.9,5.9-3.1c-0.4-0.2-2.9,0.7-9,3.5l-3.3,1.5l1.5-1.9c1.7-2.2,11.2-8.8,16.7-11.7c5.4-2.8,19.3-8.5,27.6-11.3
	c4-1.4,7.5-2.6,7.8-2.7c0.3-0.1,5-1.9,10.7-3.8c5.7-2,11.8-4.3,13.7-5.2C197.8,169.4,199,169.2,198.8,170.5z M127.9,197l1.7-1.3
	c1.5-1.2,1.9-1.4,1.9-1.1c0,0.1-0.8,0.6-1.8,1.3L127.9,197z M131.6,194.8l0.9-0.8c0.9-0.7,1.3-0.9,1.2-0.6c0,0.1-0.5,0.4-1.1,0.7
	L131.6,194.8z M221.2,132.2c0,0.4-0.7,1.9-1.6,3.3c-2.5,4.1-5.6,8.1-6.9,9c-1.4,0.9-1.7,1.6-0.7,1.4c0.4-0.1,0.6,0.1,0.5,0.7
	c-0.1,0.5,0.2,1,0.7,1.2c1.5,0.7,1.4,0.7-9.8,13.4c-2.9,3.3-5.3,6.3-5.4,6.6c-0.1,0.9-4.7,2.9-13.5,5.9c-3.4,1.2-10.2,3.6-15.1,5.3
	c-13.2,4.7-14.8,5.2-15,4.9c-0.2-0.3-10.4,3.6-17,6.6c-5.8,2.6-12.6,6.8-12.4,7.6c0.1,0.3-0.9,1.2-2.1,2l-2.2,1.5l1.4-1.7
	c0.7-0.9,2.8-3.4,4.5-5.5c1.7-2.1,4.8-5.9,6.8-8.5c2-2.5,5.9-7.2,8.5-10.3c4.3-5,5.3-6,8.5-7.9c7.8-4.7,20.5-10.8,31.8-15
	c17.5-6.6,24.7-10,31.9-15c3-2.1,5.7-4.3,6.1-5C220.9,131.9,221.2,131.7,221.2,132.2z M227,112.8c-2.1,3.5-5.1,8.5-6.7,10.9
	c-1.6,2.4-2.9,4.7-3,4.9c-0.1,0.9,1.1,2.1,2.2,2.3l1.2,0.2l-1.5,1.5c-0.8,0.9-3.5,2.9-6,4.5c-6.4,4.3-14.8,8.2-29.6,14
	c-5,1.9-11,4.4-13.4,5.5c-5.6,2.6-16.6,8.3-18.9,9.7c-1,0.6-1.8,1-1.7,0.9c0-0.1,0.7-1,1.5-1.9c1-1.2,3.1-2.5,7.6-4.9
	c3.4-1.8,6-3.3,5.7-3.4c-0.2-0.1-2.5,0.8-4.9,2.1s-4.6,2.3-4.8,2.4c-0.2,0,1.4-1.9,3.6-4.3c4-4.4,5.1-5.2,17.1-12.5
	c1-0.6,1.7-1.3,1.7-1.5c0-0.2-2.9,1.3-6.3,3.4c-3.4,2.1-6.1,3.7-6,3.5c1-1.5,5-5.9,5.4-5.9c0.2,0,2.4-0.8,4.7-2
	c5-2.4,4.6-2.2,4.5-2.7c0-0.2-1.9,0.5-4.2,1.6c-2.3,1.1-4.2,1.9-4.2,1.8c-0.3-0.4,3.3-3.6,6.8-5.9c5.5-3.6,9.4-5.8,17.6-9.6
	c3.9-1.8,8.3-4,9.8-4.8c1.5-0.8,5.3-2.6,8.4-4c4.4-2,6.5-3.2,9.7-5.8c2.3-1.8,4.9-4.1,5.8-5c0.9-0.9,1.6-1.6,1.7-1.6
	C230.7,106.3,229.1,109.3,227,112.8z M238.2,79.1c-0.1,0.3-1.1,2.1-2.2,4.1c-2.1,4-4.9,11-5.3,13.4c-0.3,1.8,0.2,2.5,1.9,2.8
	c1.9,0.3,1.6,1-1.3,4.6c-5.1,6.1-11.2,10.6-18.9,14.1c-3.1,1.4-6.9,3.2-8.4,4c-1.5,0.8-5.3,2.7-8.5,4.2c-7.4,3.5-12.3,6.1-16.6,8.9
	l-3.4,2.2l2.5-2.9c1.4-1.6,5.8-7,9.9-12.1c4.1-5.1,9.8-11.8,12.8-14.9c5.1-5.4,6-6.2,17.9-14.7c6.9-4.9,13.7-10,15.1-11.3
	c2.6-2.3,3.8-3.1,4.4-3C238.3,78.6,238.4,78.8,238.2,79.1z M236.1,77.8c-0.2,1.1-6.7,6.3-16.7,13.4l-9.3,6.5l4.3-4.7
	c2.3-2.6,7.8-8.9,12.2-14c16.5-19.4,20.5-24,20.5-23.9c0.1,0.1-0.4,1.6-1.1,3.4c-1.7,4.8-4.8,11.1-7.4,15.1
	C237.3,75.6,236.2,77.5,236.1,77.8z M139.9,20.8c0.6-0.4,0.6-0.2,0.1,2.5c-0.3,1.5-0.6,2.6-0.9,2.6
	C138.7,25.8,139.4,21.2,139.9,20.8z M137.4,57.4c0.2,0,0.3,1.5,0.1,3.2c-0.4,4.4-0.7,6.3-1.2,6.2c-0.2,0-0.3-0.7-0.2-1.4
	c0.1-0.7,0.4-2.9,0.5-4.7C136.9,58.5,137.1,57.3,137.4,57.4z M136.1,60.7c-0.3,1.7-0.7,3.1-1,3.2c-0.3,0.1-0.2-1,0.1-3.1
	c0.3-1.9,0.7-3.2,1-3.2C136.4,57.6,136.4,59,136.1,60.7z M133.6,103.8c0.4,3.3,0.4,3.3-0.1,3.2c-0.2,0-0.5-1.3-0.7-2.7
	c-0.4-2.8-0.7-2.7-0.5,0.2c0.1,0.9-0.1,1.8-0.3,2c-0.4,0.3-0.8-3.4-0.7-7.3c0-1.3,0.1-1.7,0.4-1.5c0.2,0.2,0.4,1.1,0.4,2.1
	c0,1.2,0.1,1.6,0.4,1.2C133.1,100.2,133.2,100.4,133.6,103.8z M135.4,98.7c-0.1,0.3-0.4,0.6-0.7,0.5c-0.6-0.1-0.7-0.6-0.2-1
	C135.1,97.8,135.5,98.1,135.4,98.7z M130.1,102.4c0.4,0.5,0.3,9.9-0.1,10.1c-0.4,0.2-0.5-0.3-0.6-5.8c0-2.2,0-4.1,0.2-4.3
	C129.8,102.2,130,102.2,130.1,102.4z M132.4,24.3c0.3-2.6,0.6-4.1,0.9-4.1c0.4,0.1-0.3,8.3-0.7,8.6C132,29.3,131.9,28.2,132.4,24.3z
	 M134,24c0.4-2,0.8-3.4,1-3.4c0.2,0,0.2,1.4-0.1,3.3c-0.3,1.8-0.8,3.3-1,3.4C133.6,27.4,133.7,26.2,134,24z M237.8,58.8
	c1.1-1,2.1-1.6,2.1-1.4c0.1,0.5-3.5,4-4,4C235.3,61.3,235.8,60.6,237.8,58.8z M228.7,65.1c1-1.4,2-2.5,2.2-2.5
	c0.6,0.1,0.5,0.2-2.3,4.2c-1.4,2.1-2.7,3.6-2.9,3.5C225.3,70,225.8,69.2,228.7,65.1z M227.4,70c4.1-5.6,6.1-7.2,2.5-2
	c-1.9,2.8-5.3,7.3-5.8,7.7c-0.1,0.1-0.2,0-0.3-0.1C223.6,75.4,225.3,72.9,227.4,70z M210.2,77.9c0.4,0.1,0.1,1.1-1.1,4.4
	c-0.3,0.9,1.4-2,4.2-7.2c0.6-1.1,1.3-2,1.5-1.9c0.2,0,0.3,0.3,0.1,0.5c-0.1,0.3-1.4,2.7-2.9,5.5c-1.5,2.8-2.7,5.1-2.9,5.1
	c-0.1,0.1-0.3-0.1-0.5-0.4c-0.1-0.3-1,1.6-2.1,4.6c-1.8,4.9-2.5,6.3-2.8,5.8C203.5,93.9,209.8,77.8,210.2,77.9z M208.5,73.2
	c0.1-0.4,0.3-0.6,0.5-0.5c0.2,0.1,0.4,0.4,0.4,0.6c0,0.2-0.3,0.4-0.5,0.5C208.6,73.8,208.4,73.6,208.5,73.2z M199.9,98.7
	c0.4-2.4,5-14,7.9-19.9c0.5-1.1,1.2-2,1.4-1.9c0.3,0,0.3,0.4,0,0.9c-1.6,3.2-5.4,12.2-6.9,16.3C200.6,98.8,199.5,100.9,199.9,98.7z
	 M200,81.5c0.8-1.7,1.6-3,1.7-3c0.5,0.1,0.3,0.6-1.2,3.8c-0.8,1.6-1.5,2.8-1.7,2.8C198.3,85.1,198.4,85,200,81.5z M201,83.3
	c0.1-0.3,0.8-1.4,1.3-2.5c0.6-1.1,1.3-2,1.5-1.9c0.2,0,0.3,0.3,0.1,0.5c-0.1,0.3-0.8,1.4-1.3,2.5c-0.6,1.1-1.3,2-1.5,1.9
	C200.9,83.8,200.8,83.6,201,83.3z M195.4,86.6c0.2-0.3,1-2.1,2-4c0.9-1.9,1.8-3.6,1.9-3.7c0.1-0.2,0.4-0.3,0.6-0.2
	c0.5,0.1-3.6,8.3-4.3,8.4C195.4,87.1,195.3,86.9,195.4,86.6z M178.5,103.7c0.3-1.6,6.6-16.4,7.9-18.5c1.3-2.2,0.8,0.1-0.9,3.6
	c-0.9,2-2.7,6.2-3.9,9.3c-1.2,3.1-2.5,5.8-2.7,6C178.5,104.3,178.4,104.1,178.5,103.7z M182.9,99.9c0.2-1,5.4-14.1,5.8-14.6
	c0.2-0.2,0.3,0,0.3,0.4c0,0.9-5.3,14.2-5.8,14.6C183,100.4,182.8,100.3,182.9,99.9z M194.4,102.4c-1.6,5.6-1.9,6.3-2.3,5.8
	c-0.2-0.2,0.3-2.1,2.6-9.9c0.3-1-0.7,1.1-2.3,4.6c-3.9,8.9-4.1,9.4-4.5,9.1c-0.3-0.3,0.4-2,5.6-14c1.7-4,3.3-7.3,3.5-7.2
	c0.5,0.1,0.5,0.2-0.8,2.9c-0.8,1.7-0.9,2.4-0.6,2.7C196,96.6,195.7,98.1,194.4,102.4z M198.2,96.5c-0.2,1.3-2.1,7.2-2.4,7.3
	c-0.6,0.5-0.5-0.8,0.6-4.4c0.7-2.2,1.4-4,1.6-4C198.2,95.5,198.2,96,198.2,96.5z M172.6,107.5c0.5-2,1.1-3.6,1.3-3.6
	c0.4,0.1-1.2,7.3-1.7,7.6C171.7,111.9,171.8,110.7,172.6,107.5z M172,104.3c0.8-0.9,0.5,0.5-0.7,3.5c-1.3,3.3-2,4.5-2.4,3.9
	C168.8,111.4,171.4,104.9,172,104.3z M175,116.9c1.6-3.7,2.9-6.9,2.9-7c0-0.1,0.2-0.2,0.5-0.2c0.5,0.1,0.5,0.2-3.1,8.7
	c-1.4,3.3-2.7,6.2-2.9,6.4C171.5,125.3,172,123.8,175,116.9z M159.2,113.7c0.4-0.9,0.8-1.3,1-1.1c0.2,0.3,0.1,1-0.3,1.8
	c-0.4,0.7-1.7,4-3,7.2c-2.4,6-2.6,6.4-2.9,5.9C153.9,127.3,157.6,117.3,159.2,113.7z M150.2,126.4c0.6-1.9,4.9-13,5.2-13.3
	c0.7-0.7,0.8,0.5,0.2,1.7c-0.4,0.8-1.6,3.9-2.8,7.1c-1.2,3.1-2.3,5.6-2.5,5.5C150.1,127.3,150.1,126.9,150.2,126.4z M151.1,129.2
	c0.2-1,3.5-10.4,5-14.1c0.5-1.1,0.9-1.9,1.1-1.7c0.3,0.4-5.3,16.1-5.8,16.5C151.1,130.1,151,129.7,151.1,129.2z M170.2,125.9
	c-1,2.4-1.9,4.1-2.1,3.9c-0.2-0.2-0.2-0.6,0-0.9c0.2-0.4,1.2-2.7,2.2-5.2c1.1-2.5,2.1-4.6,2.3-4.5
	C173,119.2,172.9,119.6,170.2,125.9z M167.7,128.7c-0.3,1-0.7,2.2-0.9,2.6c-0.4,1-1,0.2-0.6-0.8c0.2-0.5,0.6-1.5,0.8-2.3
	C167.7,125.9,168.4,126.4,167.7,128.7z M138.4,150.4c-0.2-0.3,3.8-13.5,4.3-14c0.7-0.8,0.3,1.3-1.6,7.5
	C139.1,150.2,138.8,151,138.4,150.4z M143.9,138.5c0.9-1.4,0.5,0.8-0.9,5c-2.3,7-2.4,7.1-2.7,6.7C140,149.7,143.1,139.8,143.9,138.5
	z M154.9,149.8c-0.7,3.3-1.4,5.4-1.6,5.3c-0.5-0.1,1.8-10.8,2.4-11.5C156.3,142.9,156.1,144.6,154.9,149.8z M153.7,147.3
	c-0.6,1.6-1.4,4.1-1.8,5.6c-0.4,1.5-0.9,2.7-1.1,2.6c-0.2,0-0.3-0.4-0.2-0.8c0.2-1.1,1.9-6.7,2.9-9.1c0.5-1.3,0.9-1.9,1.1-1.7
	C154.6,144.2,154.3,145.6,153.7,147.3z M150.9,149.9c-1.7,5.7-1.9,6.2-2.3,6.1c-0.2,0-0.2-0.9,0.2-2.1c1.2-3.9,2.5-8,2.8-8.7
	c0.5-1,1.2-0.7,0.8,0.3C152.1,145.9,151.5,147.9,150.9,149.9z M131,162.1c-0.8,2.8-1.9,6.5-2.3,8.2c-0.4,1.7-1,3.1-1.2,3
	c-0.2,0-0.3-0.6-0.2-1.1c0.3-1.9,4.5-15.9,4.8-16.3C132.9,155.2,132.5,157.1,131,162.1z M129.9,169.5c0.4-2.2,2.6-10.3,3-11.2
	c0.5-1,1.3-0.7,0.8,0.3c-0.2,0.5-1.1,3.6-1.9,6.8c-0.8,3.2-1.7,5.9-1.8,5.9C129.8,171.2,129.7,170.4,129.9,169.5z M133.5,162.3
	c0.3-1.2,0.8-2,1-2c0.3,0,0.1,1-0.3,2.6c-0.4,1.4-1.1,4.1-1.6,6c-0.5,1.9-1.1,3.6-1.3,3.7C130.9,172.8,132.1,167.2,133.5,162.3z
	 M137.2,167.1c0.3-2.7,0.6-4.1,0.9-4.1c0.4,0.1-0.2,8.2-0.7,8.6C136.7,172,136.7,171.1,137.2,167.1z M136.1,164.4
	c0.3-0.7,0.6-1.1,0.8-0.9c0.3,0.5-1.6,8.6-2,8.6C134.4,172,135.4,166.2,136.1,164.4z M134.5,163.5c0.2-0.1,0.4-0.2,0.5-0.2
	c0.1,0-0.2,2.2-0.7,4.9c-0.5,3-1,4.9-1.2,4.8C132.6,172.9,134,163.9,134.5,163.5z M139.5,164.5c0.3,0.1-0.4,7.3-0.8,7.9
	c-0.1,0.2-0.4,0.2-0.6,0c-0.2-0.2,0-2,0.3-4.1C138.8,166.2,139.3,164.5,139.5,164.5z M125.6,184.9c-0.8,0.3-0.9-0.2-0.3-2.1
	c0.3-1,0.8-1.8,1-1.8C126.8,181.2,126.1,184.7,125.6,184.9z M227.3,91.6c-0.1-0.2,0.2-0.8,0.8-1.4c1-1,1.9-1.4,1.8-0.7
	C229.8,90.1,227.5,91.9,227.3,91.6z M224,95.9c-5.3,4-8.2,6-8.6,5.9c-0.3-0.1,1.8-1.8,4.6-4c2.9-2.1,5.3-3.8,5.5-3.6
	C225.7,94.4,225,95.1,224,95.9z M210.1,102.1c-0.3-0.1,1.3-1.3,3.5-2.5c2.1-1.3,4.8-2.9,5.8-3.7c1.8-1.4,2.6-1.7,2.5-1
	C221.7,95.8,210.9,102.5,210.1,102.1z M225.4,104.4c-1.2,0.7-0.4-0.7,1.4-2.4c1-0.9,1.9-1.6,2.1-1.4
	C229.2,100.9,226.5,103.8,225.4,104.4z M228.6,103.6c1.7-1.3,2.5-1.5,2.4-0.8c0,0.2-1,1-2.2,1.8
	C226.2,106.3,226.1,105.5,228.6,103.6z M199.6,111.3c-0.1-0.2,3.3-2.1,7.7-4.2c7.1-3.3,8.7-4,7.8-2.9c-0.2,0.2-3,1.6-6.4,3.2
	c-3.3,1.6-6.7,3.2-7.5,3.6C200.4,111.4,199.7,111.5,199.6,111.3z M221.5,110.2c-1.9,1.6-7.9,5.1-8.6,5c-0.8-0.1-0.1-0.8,1.7-1.6
	c1-0.5,3.4-1.9,5.3-3.3C223.5,107.6,224.5,107.6,221.5,110.2z M216.9,109.3c2.4-1.3,3.2-1.5,3.1-0.9c-0.1,0.5-4.6,2.7-5.1,2.5
	C214.6,110.7,215.5,110,216.9,109.3z M211.8,109.2c-1.5,0.8-13.7,5.5-14,5.5c-1-0.2,0.6-1.1,5.6-3c3.1-1.2,6.4-2.5,7.3-3
	c0.8-0.4,1.7-0.6,1.9-0.4C212.8,108.5,212.4,108.9,211.8,109.2z M107,101.1c-0.3,0-0.5-4.4-0.3-5.6c0-0.2,0.2-0.3,0.4-0.2
	c0.2,0,0.4,1.2,0.4,2.5C107.5,100.6,107.4,101.2,107,101.1z M109.3,103.1c-0.3-0.4-0.4-6-0.1-6.3c0.4-0.5,0.5-0.1,0.6,3.2
	C110,102.7,109.8,103.8,109.3,103.1z M111.4,123.4c0-0.2,0.1-2.6,0.2-5.3c0.1-2.7,0.2-5,0.4-5.1c0.6-0.4,0.7,0.8,0.5,5.3
	c-0.1,3-0.3,4.9-0.6,5.1C111.6,123.7,111.4,123.7,111.4,123.4z M109.9,119.1c0.2-2.1,0.3-4.2,0.3-4.6c-0.1-0.7,0.6-0.9,0.9-0.3
	c0.3,0.8-0.8,9.3-1.2,9C109.7,123.1,109.7,121.2,109.9,119.1z M199.4,131.8c-4.4,1.7-19,6.3-19.2,6c-0.3-0.5,1-1,9.4-3.7
	c9-2.9,14.5-5.1,18-7.3c1.2-0.7,2.2-1.3,2.4-1.3C211.7,125.8,205.4,129.5,199.4,131.8z M213.7,135c-0.1,0.6-3.8,2.4-4,2.1
	c-0.1-0.2,0.6-0.8,1.6-1.4C213.2,134.5,213.8,134.3,213.7,135z M198.7,135.3c-1.9,1-5.4,2.1-5.6,1.7c-0.1-0.2,1.1-0.8,2.6-1.4
	C198.6,134.5,200.6,134.3,198.7,135.3z M205.3,139.8c-0.2,1.4-23.4,10.6-24.4,9.8c-0.2-0.2,1-0.7,2.7-1.3c3.3-1.1,12.2-4.6,12.3-4.8
	c0-0.1-0.3-0.1-0.6,0c-1.2,0.2-0.5-0.6,1-1.3c0.8-0.4,2.9-1.5,4.5-2.5c1.6-1,3-1.6,3-1.4c0.1,0.5-2.8,2.4-5.6,3.8
	c-1,0.5-1.8,1-1.8,1.1c0,0.2,0.6,0,4.5-1.8C205.3,139.3,205.4,139.3,205.3,139.8z M186.6,139.5c-3.1,1.4-4.5,1.8-4.4,1.3
	c0.1-0.3,1.1-0.9,2.4-1.4C186.9,138.5,188.6,138.6,186.6,139.5z M182.8,147.4c-1.9,0.8-2.7,0.8-2,0c0.2-0.2,1.9-1,3.8-1.7
	c3.1-1.2,4.5-1.5,4.4-0.9c0,0.1-1,0.6-2.2,1C185.7,146.2,183.8,146.9,182.8,147.4z M168.4,151.8c-0.2-0.1,0.9-0.7,2.5-1.3
	c3-1.1,3.5-1.2,3.4-0.5C174.2,150.5,169,152.1,168.4,151.8z M179.4,150.8c-0.2,0.2-2.1,0.9-4.2,1.7c-2.1,0.7-4.5,1.6-5.4,2.1
	c-1.6,0.8-2.5,0.5-1.2-0.3c0.4-0.3,2.8-1.2,5.4-2.2C178.4,150.4,180.1,150,179.4,150.8z M137.7,109c0.5,0.6,0.4,1.6-0.1,1.8
	c-0.2,0.1-0.4-0.4-0.4-1.1C137.2,108.7,137.3,108.5,137.7,109z M136,114.7c0.2,0.2,0.2,1.4-0.1,2.8c-0.5,3-1.2,2.6-0.8-0.4
	c0.2-1.1,0.3-2.2,0.4-2.4C135.6,114.5,135.8,114.5,136,114.7z M133.9,117.6c-0.3,2.8-0.3,3-0.9,2.5c-0.2-0.2-0.2-1.4,0-2.7
	C133.6,114.1,134.2,114.3,133.9,117.6z M102.9,140.7c0.3-2.3,0.7-4.2,0.9-4.1c0.4,0.1,0.4,2.9-0.1,5.8c-0.2,1.6-0.2,1.7,0.2,0.7
	c0.7-1.7,1.3-1.2,0.9,0.8c-1,5.5-1.6,7.7-1.9,7.6c-0.2,0-0.2-1.3,0.1-2.9c0.3-1.8,0.3-2.8,0-2.7
	C102.3,146.1,102.3,145.5,102.9,140.7z M107.4,143.4c-0.2-1-0.2-1.6,0.1-1.6c0.9,0.2,2.5,8.8,1.8,9.6c-0.2,0.2-0.6-1.1-0.9-3
	C108.1,146.6,107.7,144.3,107.4,143.4z M210.3,149.5c0.1,0.9-6.8,4.6-7.1,3.8c-0.1-0.2,1.3-1.1,3-2c1.7-0.9,3.4-1.8,3.6-2
	C210.1,149,210.3,149.1,210.3,149.5z M209.3,153.4c-0.1,0.8-7.8,4.9-8.2,4.4c-0.1-0.2,0.2-0.5,0.8-0.8c0.5-0.3,2.3-1.3,3.9-2.2
	C208.6,153.1,209.4,152.8,209.3,153.4z M204.9,158.2c0.2,0.5-7.3,5.3-7.6,4.8c-0.1-0.2,1.5-1.4,3.5-2.8
	C205,157.4,204.7,157.6,204.9,158.2z M196.6,161c-0.9,0.5-1.7,0.8-1.9,0.6c-0.2-0.2,0.4-0.7,1.2-1.2c0.9-0.5,1.7-0.8,1.9-0.6
	C198.1,160,197.5,160.5,196.6,161z M169.4,162.8c-0.3-0.1,1.6-1,4-1.9c2.5-0.9,5.1-1.9,5.8-2.2c1.5-0.6,2-0.6,1.9-0.1
	C181.1,159.2,170,163.2,169.4,162.8z M176.1,162.7c6.6-2.1,6.9-2.2,6.8-1.6c0,0.2-3.1,1.3-6.7,2.4c-3.7,1.1-6.6,1.8-6.5,1.6
	C169.8,164.9,172.7,163.8,176.1,162.7z M183,166c3.8-1.3,4.2-1.4,4.1-0.8c-0.1,0.4-7.1,3-7.8,2.8C178.4,167.9,179.9,167,183,166z
	 M189.9,165.7c0.4,0.1,0.5,0.2,0.2,0.4c-0.5,0.4-13.3,5.7-13.5,5.7c-0.9-0.2,0.9-1.2,6.3-3.5C186.5,166.8,189.6,165.6,189.9,165.7z
	 M189.9,171.1c-0.1,0.4-13.4,5-17.4,6c-1.3,0.3-3.5,1-4.9,1.5c-3.2,1.2-9.4,3.4-9.6,3.3c-0.1,0-0.1-0.2-0.1-0.4
	c0.1-0.5,9.3-3.8,16.7-6.1c3.2-1,7.7-2.4,10.2-3.3C189.5,170.6,190,170.4,189.9,171.1z M151.3,170.2c-0.3-0.4-0.3-0.4,3.3-1.5
	c1.7-0.5,3.1-1,3.2-1c0.1,0,0.2,0.2,0.3,0.4C158.2,168.6,151.6,170.6,151.3,170.2z M158.6,173.6c0.1-0.2,2.6-0.9,5.4-1.6
	c4.8-1,6.2-1.1,5-0.4c-0.4,0.3-10.1,2.5-10.5,2.4C158.4,174,158.5,173.8,158.6,173.6z M153.9,170.5c2.5-0.9,4-1.1,3.4-0.5
	c-0.4,0.5-5.9,2.4-6.5,2.3C149.9,172.2,150.9,171.6,153.9,170.5z M144.6,180.3c-0.9-0.5,11.6-3.8,21.9-5.8c1-0.2,1.9-0.2,2-0.1
	c0.4,0.3-0.2,0.9-0.8,0.8c-0.8-0.1-11.9,2.3-17.3,3.8C147.5,179.8,144.8,180.4,144.6,180.3z M158.3,179.4c0,0.2-2,0.8-4.3,1.4
	c-2.4,0.6-7,1.9-10.3,2.9c-3.4,1-6,1.6-6,1.4c0.1-0.4,10.9-3.8,16.8-5.3C158,178.9,158.4,178.9,158.3,179.4z M146.8,185.1
	c0,0.3-0.1,0.5-0.3,0.6c-0.2,0-3.3,1.3-6.9,2.7c-7.2,3-7.7,3.1-7.5,2.5c0.1-0.3,3.7-1.9,13.3-5.8
	C146.4,184.8,146.8,184.8,146.8,185.1z M116.7,174.8c-0.1-0.2,1.8-6,3.5-10.9c0.3-0.7,0.7-1.3,0.9-1.2c0.2,0,0.3,0.5,0,1.2
	c-0.2,0.6-1.1,3.2-1.9,5.8C117.8,173.8,117.1,175.4,116.7,174.8z M112.2,193.8c0.5-1.8,1-3.3,1.2-3.2c0.3,0,0.1,1.5-0.5,4
	c-0.5,2.2-1.2,5.2-1.5,6.9c-0.3,1.9-0.6,2.8-0.9,2.6C110.1,203.7,110.9,198.7,112.2,193.8z M110.4,191.9c0.2-0.2,0.3,0.4,0.3,1.3
	c0,2.4-1.5,11.3-1.9,11.2C108.4,204.4,110,192.5,110.4,191.9z M107.4,200.5c0.7-4,1.4-7,1.6-6.9c0.3,0.1-1.6,14.2-2,14.8
	C106.2,209.5,106.3,206.6,107.4,200.5z M197.7,170.2c0.7,0.6-0.2,1.4-3.2,3.3c-3.3,2-5.2,2.6-3,1c1-0.7,1-0.9,0.4-0.7
	c-1.5,0.3-0.4-0.7,2.6-2.3C196.1,170.7,197.6,170.1,197.7,170.2z M181.3,178c-0.9-0.2-0.4-0.8,0.9-1.1c0.7-0.2,2.5-0.8,4.1-1.4
	c3.1-1.2,3.6-1.3,3.5-0.7C189.6,175.3,182,178.1,181.3,178z M191.1,176.2c-0.1,0.8-8.1,5.1-8.8,4.8c-0.3-0.1,1.5-1.3,3.9-2.7
	C190.5,175.9,191.2,175.6,191.1,176.2z M180.4,186.3c-0.2-0.2,1.2-1.2,2.9-2.4c1.8-1.1,3.3-1.9,3.3-1.6
	C186.8,182.9,180.8,186.7,180.4,186.3z M167.8,190.5c-0.1-0.2,0.1-0.5,0.4-0.6c0.4-0.1,2.1-0.8,3.8-1.5c1.8-0.7,3.3-1.2,3.5-1
	c0.4,0.3-0.5,0.8-4.5,2.3C169.4,190.4,167.9,190.7,167.8,190.5z M173.8,190.7c3.6-2.4,4.4-2.7,4.3-2c-0.1,0.6-7.6,5.2-7.9,4.8
	C170.1,193.3,171.7,192,173.8,190.7z M169.9,192.7c-0.1,0.4-7.7,2.5-8.6,2.3c-1.1-0.2,0-0.7,4.2-1.7
	C169.6,192.2,169.9,192.2,169.9,192.7z M163,197c-7.2,1.7-7.3,1.8-7,1.3c0.1-0.2,3-1.1,6.3-2c3.4-0.9,6.2-1.5,6.4-1.3
	C169.3,195.4,168.3,195.8,163,197z M135,199.6c-0.3-0.1,0.7-0.7,2-1.1c2.6-0.9,3.1-1,3-0.4C140,198.5,135.6,199.9,135,199.6z
	 M142.2,200.6c2.5-0.7,4.5-1.3,4.6-1.3c0.1,0,0.1,0.2,0.2,0.4c0.1,0.2-2,1-4.5,1.7c-5.2,1.5-5,1.4-4.9,0.9
	C137.7,202,139.8,201.3,142.2,200.6z M126.6,200.6c-2.7,0.9-2.7,0.1,0-0.9c1.9-0.7,2.4-0.7,2.3-0.2
	C128.9,199.7,127.8,200.2,126.6,200.6z M132.1,204.4c0.2-0.1,2.8-0.6,5.7-1.2c5.1-1.1,6.7-1.3,6.6-0.7c-0.1,0.5-12.2,2.8-12.4,2.4
	C131.7,204.6,131.8,204.4,132.1,204.4z M148.4,204c0.2,0.2,0.2,0.4,0,0.5c-0.7,0.4-8.5,2-8.7,1.7c-0.3-0.4,0-0.6,4.3-1.5
	C146.2,204.2,148.2,203.9,148.4,204z M130.7,202c1.5-0.6,2.5-0.7,2.4-0.2c-0.1,0.3-3.3,1.6-3.8,1.6
	C128.7,203.2,129.4,202.5,130.7,202z M122.4,203.9c-1.7,1.2-2.6,0.8-0.9-0.4c0.6-0.5,1.4-0.8,1.8-0.7
	C123.7,202.8,123.5,203.2,122.4,203.9z M145.2,207.3c0,0.2-1.4,0.6-3,1c-1.6,0.3-4,1-5.3,1.5c-1.3,0.5-2.3,0.6-2.3,0.4
	c0.1-0.5,2.5-1.5,6.5-2.5C144.4,206.8,145.3,206.7,145.2,207.3z M130.7,208.2c-4,1.2-3.9,1.1-3.8,0.6c0-0.2,1.4-0.9,3.1-1.4
	c1.6-0.5,3.2-0.9,3.5-0.9C134.6,206.8,133.6,207.3,130.7,208.2z M128.2,210.7c-1.1-0.2,0.1-0.8,3.8-1.9c2.3-0.7,4.1-1.3,4.2-1.3
	c0.1,0,0.2,0.2,0.3,0.4C136.6,208.3,129.1,210.9,128.2,210.7z M158.4,209.8c-0.1,0.7-1.5,1.7-6.2,4.3c-9.4,5.3-14.3,7.9-14.5,7.7
	c-0.3-0.4,1.5-1.6,6.3-4.1c5.1-2.6,11.8-6.5,11.8-6.7c0-0.1-2.2,0.8-4.8,2.1c-5.2,2.4-9.6,3.9-9.5,3.3c0-0.2,1-0.7,2.2-1.2
	c3.2-1.2,12.6-5.4,13.3-6C157.9,208.4,158.5,208.7,158.4,209.8z M134.9,218.8c-0.1-0.2,0.3-0.6,0.9-0.9c0.6-0.3,1.7-0.8,2.5-1.2
	c1.4-0.7,2.5-0.8,2.4-0.2C140.5,217,135.2,219.2,134.9,218.8z M135.6,221.4c-0.1,0.5-16.4,9.1-16.5,8.6c0-0.3,0.3-0.7,0.8-0.9
	c0.5-0.2,3.9-2.1,7.8-4.2C133.7,221.5,135.7,220.7,135.6,221.4z M124.2,222.6c4.1-1.9,5.7-2.4,5.6-1.8c0,0.2-8,3.8-9.9,4.5
	c-0.3,0.1-0.6,0-0.5-0.2C119.5,224.9,121.6,223.8,124.2,222.6z M113.4,223.6c-0.3-0.1,1-1,2.9-1.9c3.2-1.5,4.1-1.8,4-1.2
	C120.2,221,113.9,223.8,113.4,223.6z M115.7,224.9c-0.1,0.5-9.7,5.1-9.9,4.8c-0.3-0.4,0.2-0.7,5.1-3.1
	C115.2,224.4,115.9,224.2,115.7,224.9z M118.2,228c0,0.2-0.3,0.4-0.5,0.5c-0.3,0-0.4-0.2-0.4-0.6c0.1-0.4,0.3-0.6,0.5-0.5
	C118.1,227.5,118.3,227.8,118.2,228z M105.9,235c-0.1-0.2,1.5-1.4,3.4-2.6c2-1.2,3.9-2.1,4.2-2c0.4,0.1-0.1,0.6-1.3,1.3
	C107.9,234.4,106,235.3,105.9,235z M112.8,235.4c-1.4,0.8-3.3,1.8-4.1,2.3c-0.8,0.5-1.5,0.7-1.6,0.5c-0.1-0.2,1.6-1.4,3.9-2.7
	c2.2-1.3,4.2-2.3,4.3-2.2C116,233.3,115.3,234,112.8,235.4z M100.9,239.5c1.8-1.3,3.5-2.3,3.9-2.2s-1,1.2-2.9,2.6
	c-1.9,1.4-3.7,2.4-3.9,2.2C97.8,241.9,99.1,240.7,100.9,239.5z M96.4,240.6c-0.1-0.2,0.7-0.9,1.9-1.6c2.1-1.3,2.8-1.5,2.7-0.8
	C100.8,238.8,96.6,241,96.4,240.6z M106.5,239.9c-0.1,0.6-9.4,6.8-9.7,6.5c-0.1-0.2,1.9-1.8,4.4-3.6
	C105.6,239.7,106.6,239.2,106.5,239.9z M87.2,234c-0.3,1.2-0.8,2.3-0.9,2.4c-0.6,0.4-0.6-0.5,0-2.6C87.3,230.9,88.1,231,87.2,234z
	 M85.8,234.1c-1.1,4.5-1.7,6.3-2.1,6.2c-0.3-0.1,1.1-6.9,1.6-8C86,231.1,86.3,232.2,85.8,234.1z M83.5,235.6
	c0.5,0.1-1.7,9.4-2.3,9.8c-0.5,0.4,0.1-3.3,1.1-7.2C82.7,236.8,83.2,235.6,83.5,235.6z M81.8,238.5c-0.2,0.4-1.2,4-2.1,8.1
	c-1.6,7.2-1.9,8.1-2.3,7.5c-0.2-0.3,3.2-15.6,3.6-16C81.5,237.6,82.2,237.9,81.8,238.5z M67.9,195.5l1.2-3c0.6-1.6,2.4-6,4-9.7
	c3.5-8.2,4.9-12.8,6.2-19.9c1.8-9.7,1.7-10.9-0.4-10l-1.2,0.5l0.3-2c1.3-8.2,1.6-14.8,0.8-17.7c-0.4-1.5-0.7-1.8-1.6-2
	c-1.8-0.4-2.1-1.7-1.9-9.6c0.2-8.3-0.1-11.9-1.1-12c-0.4-0.1-1.2,0.3-1.8,0.7c-0.6,0.5-1.1,0.8-1.1,0.8c0,0-0.2-3.8-0.5-8.3
	C70.2,93.8,69,86.1,67.6,83c-1-2.2-1.7-2.5-3-1.3l-0.9,0.8l-1.2-5.6c-1.2-5.6-3.2-12.1-4.1-13.5c-0.6-1-1.7-0.7-2.9,0.8l-1,1.2
	l-0.4-0.8c-0.2-0.4-1.1-3.4-2-6.6c-0.9-3.2-2.2-7.1-2.9-8.8c-1.8-4.5-2.6-4.8-4.7-1.6c-0.8,1.2-1.5,1.9-1.9,1.9
	c-0.4-0.1-0.6,0.1-0.5,0.5c0.1,0.3-1.6,3.3-3.7,6.6c-4,6.1-6.2,10.7-8,16.1l-1,3.2l-0.6-1.5c-1-2.3-1.6-3.1-2.3-2.8
	c-0.8,0.4-1.4,2.9-2,10c-0.3,3.4-0.7,6.2-0.8,6.2c-0.1,0-0.4-0.5-0.7-1.1c-0.3-0.6-0.8-1.4-1.1-1.7c-0.6-0.5-0.7-0.5-1.1,0.1
	c-0.9,1.4-0.5,12.7,0.9,24.4c0.2,1.3,0.2,2.5,0,2.5c-0.2,0-0.6-0.2-1.1-0.5c-0.6-0.4-0.9-0.4-1.4,0c-0.6,0.5-0.6,0.8,1.2,7.8
	c1.8,7.2,3.8,12.8,6.1,17.3c0.5,1,1,2.2,1.1,2.6c0.4,1.7,10.7,13.1,19.2,21.3c1.4,1.4,4,3.8,5.8,5.6c4.4,4.2,4.3,5.1-0.2,1.4
	c-6.6-5.5-16.2-15.3-20.9-21.2c-5.3-6.7-5.1-6.5-5.6-6.3c-0.2,0.1-0.4,0-0.4-0.2c0-0.2,0.2-0.4,0.6-0.5c0.4-0.1,0.7-0.4,0.6-0.6
	c-0.2-0.7-2.1-1.4-2.7-1c-0.7,0.4,0,2.3,3.1,8.6c2.6,5.3,5.3,9.5,8.4,13.1l2.2,2.5l-1,0.1c-0.7,0.1-1.1,0.3-1.1,0.7
	c-0.3,2.4,13.2,17.5,21.9,24.6l4,3.2L62,194c0.6,3.6,1.9,7.2,3.1,8.7c0.9,1.1,2.7,1.5,3.7,0.8c1.2-0.9,1.2-2.3,0.1-5.3L67.9,195.5z
	 M66.4,87.3c0.2-2.5,0.3-2.8,0.6-2.2c0.2,0.5,0.6,1.6,0.9,2.6c0.4,1.4,0.3,1.9-0.1,2.3c-0.3,0.3-0.6,1.2-0.7,2.1
	c-0.3,4.2-2.3,16.8-5.9,36.2c-2.1,11.6-4,21.7-4.1,22.4c-0.3,1.1-0.3,1.1-0.6-1.2c-0.5-3.4,0.1-8.9,1.8-17.1
	C64.7,101.4,65.9,94.9,66.4,87.3z M57.6,69.9c0.2-4.2,0.3-4.5,1-1.9c0.5,1.8,0.5,3.3,0.2,8.3c-0.2,3.4-0.6,7.4-0.8,9
	c-0.6,4-3.5,15.7-4.8,20.2c-0.6,2-1.4,5.2-1.8,7.2c-0.4,1.9-0.7,3-0.7,2.4c-0.1-3.1,0.7-7.9,2.3-14.8C56,87.4,57.2,79.3,57.6,69.9z
	 M53.5,155.7c-0.2-0.1-0.6-1-0.8-2c-0.3-1.4-0.3-1.7,0.1-1.2c0.3,0.4,0.6,1.2,0.8,2C53.8,155.3,53.8,155.8,53.5,155.7z M54.9,160
	c0.3,1.4,0.3,1.8,0,1.5c-0.3-0.2-0.7-1.4-0.9-2.6C53.3,156.2,54.2,157.2,54.9,160z M52.4,150.5c-0.3-0.2-0.6-1-0.7-1.7
	c-0.2-1-0.2-1.1,0.2-0.6c0.3,0.4,0.6,1.1,0.7,1.7C52.8,150.7,52.8,150.9,52.4,150.5z M51.5,146.3c-0.6-0.6-1.5-4.5-1-4.6
	c0.2,0,0.6,1,0.9,2.5C51.8,146,51.8,146.6,51.5,146.3z M51.6,62l0.7,2.3c0.4,1.3,1,2.5,1.3,2.7c0.5,0.3,0.8,0.2,1.8-0.8
	c0.7-0.6,1.4-1.1,1.5-1c0.3,0.2-0.4,10.7-0.9,15.4c-0.6,5-2.3,13.9-3.7,19.2c-0.6,2.2-1.3,5.3-1.6,7c-0.6,3.1-0.6,3.1-0.8,1.4
	c-0.2-1.7,0.7-7.6,2.2-14.4c0.4-1.9,0.7-3.6,0.7-3.8c-0.2-1-1,1.4-1.9,6.3c-1.5,7.5-1.4,7.4-1.7,4.9c-0.3-2.8,0.4-7.3,1.9-11.8
	c1.3-3.8,1.3-4,0.8-3.9c-0.5,0.1-1.5,3-2.5,6.9c-0.8,3.3-0.9,3.3-1,1.7c-0.4-4.7-0.3-5.8,1.3-11.7c0.9-3.3,1.5-6.1,1.3-6.2
	c-0.2-0.1-1,2.1-1.7,4.8c-1.3,4.5-1.4,4.7-1.5,3.3c-0.1-0.9,0.6-5,1.5-9.1c0.9-4.1,1.8-8.8,2.1-10.4L51.6,62z M50,138
	c-0.4,0.1-0.7-1.1-0.7-2.8c0-1.7,0.2-1.5,0.7,0.7C50.2,137.1,50.2,138,50,138z M49.2,131.6c0,0.3-0.2,0.1-0.3-0.4
	c-0.1-0.5-0.1-0.7,0.1-0.5C49.2,130.9,49.3,131.3,49.2,131.6z M48.1,124.8c0,0.3-0.1,0.3-0.3-0.2c-0.1-0.4-0.1-0.6,0.1-0.5
	C48,124.2,48.1,124.5,48.1,124.8z M47.4,56c0.6-6.2,0.8-6.2,2.4-0.5c1.2,4,1.2,5.6,0.3,10.8c-0.7,3.8-2.6,12-2.8,11.9
	c-0.1-0.1,0.6-9.8,1-14.2c0-0.3-0.1-0.4-0.4-0.2c-0.2,0.1-0.5,1.7-0.7,3.4c-0.2,1.7-0.3,3-0.4,2.7C46.6,69,46.9,61.3,47.4,56z
	 M47.4,118.4c0,0.4-0.1,0.2-0.3-0.4c-0.1-0.6-0.1-0.9,0-0.7C47.4,117.6,47.5,118,47.4,118.4z M43.7,51.4c0.5-0.2,0.8-0.6,0.8-0.8
	c-0.1-0.5,1-2.4,1.3-2.3c0.1,0.1-0.3,2.4-0.9,5.1c-0.6,2.8-1.2,5.3-1.2,5.6c-0.1,1-0.4-0.7-0.6-3.2C42.8,52.1,42.8,51.8,43.7,51.4z
	 M44.6,108.5c-0.6-1.1-1.2-2.1-1.2-2.3c-0.1-0.6,2,2.9,2.2,3.6C45.6,110.2,45.2,109.6,44.6,108.5z M43.5,70.5c-0.1-1.2,0-1.6,0.2-1
	c0.2,0.5,0.3,2.9,0.4,5.3l0,4.4l-0.5-2.7c-0.3-1.5-0.4-3-0.2-3.5C43.5,72.6,43.6,71.5,43.5,70.5z M44,64.3c0.1,0.1,0.2,0.4,0.2,0.7
	c0,0.3-0.1,0.3-0.3-0.2C43.8,64.5,43.8,64.2,44,64.3z M44,62.8c0.1,0.1,0.2,0.4,0.2,0.7c0,0.3-0.1,0.3-0.3-0.2
	C43.8,63,43.9,62.7,44,62.8z M44.1,84.7c0.2,0.3,0.3,0.9,0.3,1.2c0,0.4-0.1,0.1-0.3-0.6C43.9,84.7,43.9,84.4,44.1,84.7z M44.4,89.5
	c0.2,0.5,0.4,1.4,0.4,2c0,0.5-0.1,0.1-0.4-0.9C44.2,89.5,44.2,89,44.4,89.5z M41.1,54.9c0.5-0.8,0.9-1.3,1-1.3
	c0.1,0.1,0.2,1.1,0.3,2.3c0.1,1.2,0.3,3.7,0.4,5.6c0.3,3.6,0.3,5.8-0.2,4.1c-0.1-0.5-0.4-2.7-0.5-4.9c-0.4-4.6-0.6-5.8-0.9-5.4
	c-0.3,0.3,0,4.4,0.9,11.9c0.3,2.9,0.6,5.3,0.5,5.5c-0.1,0.2-0.3-0.5-0.4-1.5c-0.1-1-0.6-4.7-1-8.3C40.2,56.4,40.2,56.3,41.1,54.9z
	 M38.9,58.3c0.3-0.5,0.6-0.8,0.7-0.7c0.1,0.1,0.4,2.4,0.7,5.1c0.3,2.8,0.8,7.1,1.2,9.5l0.7,4.5l-1-3.5c-0.6-1.9-1.4-5.9-1.9-8.8
	C38.6,60.1,38.5,59,38.9,58.3z M30.1,77c0.3-0.4,0.6-1.2,0.8-1.6c0.2-0.6,0.5,0.2,1.3,3.9c0.6,2.7,1.2,4.7,1.5,4.8
	c0.3,0.1,0-1.7-0.7-5c-0.6-2.8-1-5.3-0.9-5.4c0.2-0.1,0.7,1.6,1.3,3.9c0.9,3.7,1.5,5.1,1.8,4.4c0-0.1-0.5-2.2-1.1-4.7
	c-0.9-3.4-1.3-4.5-1.7-4.4c-0.2,0.1-0.5,0-0.5-0.3c-0.1-0.5,2-6.1,2.9-7.4c0.6-1,0.4-1.6,1.5,6.3c0.4,2.8,1.2,3.4,0.9,0.7
	c-0.6-5.5-1.2-8.2-1.6-8.1c-0.3,0.1,0.1-0.8,0.7-1.8c0.7-1.1,1.2-1.9,1.2-1.9c0,0,0.9,3.9,1.9,8.6c1,4.7,1.8,8.7,1.7,8.9
	c-0.1,0.2,0.3,1.8,0.9,3.7c0.7,2,1.1,4.1,1.1,4.9c0,0.8-0.1,1.2-0.2,0.9c-0.1-0.4-0.3-0.6-0.6-0.5c-0.3,0.1-0.2,0.7,0.3,2.2
	c0.8,2.5,2.2,10.5,1.7,10.1c-0.2-0.1-2.4-5.7-5-12.4c-2.6-6.7-4.8-12.3-5-12.4c-0.7-0.5-0.3,0.7,5.3,15.3
	c4.3,11.3,5.5,14.6,5.5,16.1l0.1,1.8l-1.4-2.2c-0.7-1.2-1.9-3.5-2.6-5.1c-1.3-3.1-2.4-3.8-1.4-1.1c0.5,1.3,0.2,1-0.9-1.1
	c-0.8-1.5-1.6-2.8-1.7-2.9c-0.8-0.5,0.1,1.4,4,9c4.4,8.4,4.4,8.5,4.7,11.2c0.1,1.5,0.2,2.8,0.2,2.9c0.1,0.6-3.1-5.4-4.8-9.1
	c-2.5-5.4-9-22.2-10.7-27.3C29.7,78.2,29.6,77.8,30.1,77z M30.3,82.5c1.7,5.2,7.6,20.7,10,26c1,2.3,2.8,5.9,4,8
	c1.2,2.1,2.3,4.4,2.4,5.3c0.5,2.2-0.1,1.4-3.5-4.9c-3.4-6.4-3.9-7.5-9.2-21c-3.1-7.9-4.2-11.2-5.3-15.4C27.4,74.5,28,75.3,30.3,82.5
	z M24.3,89.1c0.4-0.4,0.7-2.3,1-4.9c0.2-2.4,0.5-5.3,0.7-6.6l0.3-2.3l0.6,2.3c0.3,1.3,1.1,4,1.8,6.1c3.6,11.3,12.3,31.2,16.9,38.8
	c2,3.3,2.1,4.4,0.2,1.7c-1.7-2.3-2.5-3.2-2.4-2.3c0.1,0.3,1,1.7,2,3.2c1,1.5,2,3.3,2.1,3.9c0.2,0.8-0.9-0.5-3.7-4.7
	c-3.5-5.2-4.7-6.7-4.5-5.5c0,0.2,1.9,3.1,4.2,6.5c3,4.4,4.2,6.6,4.5,7.7c0.7,3.3,0.2,2.9-3.5-2.3c-6.1-8.5-14-23.7-19.3-36.8
	C23.7,89.8,23.7,89.8,24.3,89.1z M21.6,87.2c0.1-0.3,0.3,0,0.5,0.6c0.2,0.6,0.9,2.7,1.7,4.6c5.4,14.1,13.7,29.9,20.9,39.7
	c2.4,3.2,4.2,6,4.2,6.3c-0.1,0.7-10.6-12.5-13.5-17C28.3,110.3,20.3,90.6,21.6,87.2z M51.1,163.5c-2.3-2.3-5.1-5.2-6.2-6.4
	c-1.2-1.3-4.1-4.3-6.5-6.7c-6.3-6.3-7.3-7.6-9.9-13c-3.4-6.8-5.7-13.3-7.1-19.3l-1.1-5.1l1,0.4c0.9,0.3,1,0.3,1.4-0.3
	c0.5-0.8,0.4-1.8-0.3-7.4c-0.7-5.7-1.1-11.8-0.7-11.9c0.2,0,0.5,0.7,0.7,1.6c1,4.6,7,17.9,11.2,24.7c3.4,5.5,6.1,9.2,11.2,15.2
	c4,4.6,4.3,5.1,4.5,6.8l0.3,1.9l-1.7-2.4c-3.2-4.6-4-5.5-4.2-5.2c-0.2,0.1,1.3,2.4,3.2,5.1c2.1,2.9,3.5,5.2,3.7,6
	c0.2,1-0.1,0.8-2.5-2.3c-1.5-1.9-4.3-5.7-6.2-8.5c-4.2-6.3-5-7.3-5.1-6.8c-0.1,0.9,8,12.7,12.8,18.6c1.3,1.5,1.8,2.6,2.1,3.8
	c0.3,1.2,0.2,1.6-0.1,1.2c-0.3-0.3-2.9-3.2-5.9-6.5c-10.1-11.3-14-16.4-18.7-25.1c-1.2-2.2-2.3-4-2.4-4.1c-1.1-0.7,1.3,4,5.1,10.2
	c3.1,5.1,7.3,10.4,13.7,17.4c9.1,10,9.2,10.1,9.6,12.3l0.4,1.9l-1.1-1.1c-0.6-0.6-2.4-2.7-4-4.5c-1.6-1.8-3-3.2-3-2.9
	c0,0.3,1.9,2.7,4.3,5.5c2.4,2.7,4.3,5.3,4.3,5.6c0,0.4-0.8-0.3-2.2-2c-4-4.9-9.2-10.6-9.5-10.6c-0.6,0.1-1-0.4,10.1,12.5
	c2.1,2.4,2.7,3.4,2.9,4.4C55.2,167.5,55.1,167.4,51.1,163.5z M54.9,141.5c-0.6-2.6-0.6-3.3-0.1-6.4c0.3-1.9,1.3-6.5,2.3-10.3
	c0.9-3.7,1.7-6.9,1.8-7.1c0-0.2-0.1-0.3-0.3-0.2c-0.5,0.1-2,5.8-4.6,17.8c-0.2,0.8-0.2,0.7-0.4-0.8c-0.2-2.6,0.4-7.2,2.2-16.1
	c1.7-8.5,1.7-8.6,1.3-8.6c-0.3,0-3.1,12.2-3.8,16.8c-0.2,1.5-0.5,2.7-0.5,2.6c-0.3-0.3-1.6-11.2-1.3-11.5c0.2-0.2,0.4-1.2,0.5-2.3
	c0.1-1.1,0.8-4.1,1.4-6.6c3.4-12.9,4.1-16.1,5-20.5c0.5-2.6,1.1-7.2,1.3-10.2c0.2-3,0.4-5.5,0.5-5.5c0.1,0,0.7,2.6,1.4,5.7
	c0.7,3.2,1.3,6,1.4,6.3c0.1,0.3-0.4,3.2-1.1,6.4c-1.8,8.7-2,10.3-1.3,10.2c0.2,0,0.4-0.9,0.5-1.9c0.1-1,0.9-4.6,1.6-8.1
	c1-4.8,1.6-6.5,2.3-7.5l1-1.2L65.6,86c-0.6,6.9-1.7,14.3-3.3,22.2c-0.9,4.4-2.1,10.8-2.8,14.2c-0.7,3.4-1.6,8.4-2.2,11
	c-0.5,2.6-1.2,6.2-1.4,7.9l-0.4,3.2L54.9,141.5z M55.8,164.7c0.2,0.7,0.5,2,0.6,2.8c0.1,0.9-0.1,0.3-0.4-1.3
	C55.7,164.7,55.6,164,55.8,164.7z M60.9,188.1c-0.5,0.1-5.6-4.2-9-7.5c-6.6-6.5-14.8-16-14.8-17.2c0-0.4,0.3-0.4,1.5,0.1
	c2.7,1.1,2.5,0.1-0.9-3.6c-3.7-4.2-6.4-8.2-9.3-14.1c-3.2-6.4-3.2-6.4,0.9-0.9c1.7,2.2,4.3,5.4,6,7.2c3.5,3.8,13.6,13.6,16,15.5
	c3.9,3,5.5,4.8,5.8,6.3l0.3,1.5l-2.3-2.6c-1.3-1.4-2.6-2.6-2.9-2.7c-0.3,0,0.5,1.2,1.9,2.7c2.7,3.2,2.6,3.1-1.2-0.2
	c-1.5-1.3-3.1-2.7-3.5-2.9c-1.5-0.9-0.5,0.4,2.1,2.7c4.6,4,6.7,6.3,7.3,7.8l0.5,1.5l-0.9-0.7c-0.5-0.4-2.8-2.5-5-4.7
	c-3.6-3.5-4.9-4.5-4.7-3.7c0,0.1,2.5,2.6,5.5,5.5c3,2.9,5.4,5.4,5.4,5.6c0,0.2-3.7-3.1-8.2-7.3c-4.5-4.3-8.3-7.8-8.6-7.9
	c-1.4-0.5-0.4,0.5,14.3,14.4C59.8,185.2,61.7,188,60.9,188.1z M58.3,174.1c0.2,0.4,0.3,1.2,0.4,1.6c0,0.5-0.1,0.1-0.3-0.8
	C58.1,174,58.1,173.6,58.3,174.1z M61,168.5l-0.6-2.1c-0.6-2-0.5-2.2,2.1-12.6c1.5-5.8,2.7-10.6,2.7-10.8c-0.2-1-1,1.3-3.1,9.7
	c-2.1,8.2-2.5,9.5-2.8,8.6c-0.2-0.7-0.1-1.7,0.2-2.8c0.7-2.3,4.6-20.5,4.5-21c-0.2-1-0.8,1-1.9,5.8c-0.6,2.8-1.6,7.5-2.3,10.4
	c-1.1,4.6-1.3,5.2-1.6,4.3c-0.3-0.8,0-2.3,1-6.2c2.3-8.5,5.8-25.4,5.3-25.7c-0.4-0.3-0.6,0.4-3.4,13.5c-1.6,7.4-3.2,13.9-3.4,13.3
	c-0.3-1,7.1-40.8,7.7-41.5c0.2-0.3,1-3.8,1.7-7.7c1.6-9.5,1.5-8.7,0.9-8.3c-0.4,0.3-0.6,0.2-0.5-0.1c0-0.3,0.2-1.4,0.3-2.5
	c0.1-1.1,0.3-2,0.4-2c0.1,0,0.3,1.2,0.6,2.8c0.2,1.5,0.6,6.4,0.8,10.8c0.4,7.3,0.5,8.1,1.1,8.5c0.6,0.4,0.8,0.4,1.8-0.5
	c0.6-0.5,1.2-0.8,1.4-0.8c0.1,0.1-0.1,0.3-0.4,0.5c-0.5,0.3-1.1,3.4-2.5,11.8c-3,18.7-5.4,30.2-8.2,39.1L61,168.5z M62.2,173.4
	c-1-1.5-0.9-2.8,0.8-7.8c3.1-9.4,5.9-21.7,8.5-37.6c0.9-5.3,1.6-9.5,1.7-9.4c0.1,0.1,0,2.1-0.2,4.6c-1.2,15.1-3.2,25.4-8.9,45.7
	C63,172.6,62.5,173.8,62.2,173.4z M64.3,196.8c-0.2-1-0.3-1.4-0.1-1c0.2,0.4,0.3,1.2,0.4,1.8C64.6,198.2,64.5,197.8,64.3,196.8z
	 M67,191.1c-0.2-0.6,0.1-1.8,1.1-3.9c0.8-1.7,2.3-5.9,3.5-9.5c5.5-16.7,6.9-21.3,6.7-21.4c-0.4-0.3-1.2,1.8-4.8,13.1
	c-3.4,10.5-4.1,12.5-3.9,10.9c0-0.3-0.1-0.5-0.3-0.5c-0.2,0-1,1.9-1.8,4.2c-1.4,3.9-1.5,4-1.8,3c-0.3-0.9,0-2.2,2-7.4
	c1.3-3.5,2.4-6.6,2.4-7.1c0-1.3-0.4-0.5-2.8,5.9c-1.8,4.8-2.3,5.7-2.5,4.9c-0.1-0.7,0.5-2.9,1.9-6.6c2-5.4,2.8-7.8,2.7-8.2
	c-0.2-0.7-0.7,0.2-1.4,2.2c-0.4,1.3-1.5,4.2-2.3,6.4c-1.3,3.5-1.6,3.9-1.9,3.1c-0.2-0.6,0-1.8,0.7-3.7c1.4-3.9,4.1-14.7,3.8-15.4
	c-0.1-0.3-0.9,2.2-1.8,5.5c-1.9,7.7-3.1,11.3-3.5,10.2c-0.2-0.5,0.7-4,2.2-9.3c1.9-6.7,2.6-8.6,3.1-8.5c1,0.1,1.4-1,0.6-1.5
	c-0.6-0.4-0.6-0.8,0.3-4.4c1.3-5.4,3.7-18.9,4.1-23.2c0.2-1.9,0.3-3.5,0.4-3.5c0,0,0.2,1.1,0.4,2.5l0.3,2.5l1.5,0.9
	c1.9,1.1,2.1,1.7,1.9,6.5c-0.2,5.1-1.6,13.9-2.3,14.8c-0.4,0.4-4.2,12.1-4.1,12.5c0.2,0.9,1-0.8,2.5-5.6c1.1-3.5,1.9-5.5,2.2-5.2
	c0.2,0.2,0.8,0.2,1.6-0.1c0.7-0.3,1.3-0.4,1.3-0.1c0.2,0.7-1.6,9.8-2.7,14c-0.6,2.3-2,6.3-3.1,8.9C67.2,192.2,67.3,191.9,67,191.1z
	 M36.7,63.6c0-0.3,0.2-0.4,0.3-0.3c0.6,0.4,2.4,11.6,1.9,11.7C38.7,75.1,36.6,64.7,36.7,63.6z M66.9,108.2c0.3-2.3,0.8-4.2,0.9-4.2
	c0.2,0,0.3,0,0.4,0.2c0.1,0.5-1.2,8.3-1.4,8.7C66.3,113.7,66.3,112.3,66.9,108.2z M67.5,112.6c0.3-1.7,0.8-2.7,1-1.9
	c0.1,0.6-0.7,4.4-1,4.4C67.2,115.3,67.1,114.8,67.5,112.6z M66.3,121.7c-0.1-0.1-0.1-1,0-2.1c0.2-1.8,0.7-2.6,0.9-1.6
	C67.3,118.7,66.5,121.9,66.3,121.7z M68.8,122.4c0.3-2.1,0.6-3.9,0.8-4c0.2,0,0.3,0.1,0.4,0.3c0.1,0.6-0.7,7.1-1,7.5
	C68.4,127.2,68.3,126.1,68.8,122.4z M62.9,157.7c-0.2-0.1,0.1-1.9,0.7-4c1-3.5,1.5-4.7,1.7-3.8C65.4,150.6,63.2,157.8,62.9,157.7z
	 M72.1,150.4c-0.2-0.1-0.3-0.7,0-1.6c0.3-1.2,2.2-10.7,2.9-14.8c0.1-0.7,0.4-1.3,0.6-1.4c0.2-0.1,0.4,0.1,0.3,0.4
	c-0.2,1.4-2.4,12.6-2.9,14.8C72.8,149.4,72.3,150.5,72.1,150.4z M74.8,145.7c0.9-3.6,1.7-6.5,1.8-6.2c0.2,0.4-2.2,11.9-2.7,12.8
	C73.2,153.6,73.4,151.5,74.8,145.7z M72.4,160.9c-0.6,1.7-1.2,3-1.4,2.8c-0.2-0.3,1.6-6,3.4-10.6c0.3-0.8,0.6-2.2,0.8-3.2
	c0.2-1.6,0.7-2.5,0.9-1.6c0.2,0.8-0.6,4.2-1.5,6.7C74,156.5,73,159.1,72.4,160.9z M41.5,161.9c-0.2-0.8,0.3-0.4,2,1.7
	c1,1.2,1.6,2.2,1.4,2.3C44.7,166,41.7,162.6,41.5,161.9z"/>
</svg>
