<?xml version="1.0" encoding="utf-8"?>
<!-- Generator: Adobe Illustrator 23.0.1, SVG Export Plug-In . SVG Version: 6.00 Build 0)  -->
<svg version="1.1" id="Layer_1" xmlns="http://www.w3.org/2000/svg" xmlns:xlink="http://www.w3.org/1999/xlink" x="0px" y="0px"
	 viewBox="0 0 269 263" style="enable-background:new 0 0 269 263;" xml:space="preserve">
<style type="text/css">
	.st0{fill:#6E9267;}
</style>
<path class="st0" d="M263.2,101.3c-0.4-2.6-1-3.7-1.7-3.5c-0.2,0-1.2,1.2-2.2,2.6c-1.7,2.3-2,2.6-4.1,4c-2.6,1.7-7.4,3.6-9.4,3.8
	c-0.8,0.1-1.6-0.1-1.9-0.3c-0.9-0.9-4.3,0.1-10.6,3l-4.4,2l-0.3-0.8c-0.1-0.4-0.4-1-0.7-1.2c-0.6-0.6-3.3-0.3-5.6,0.6
	c-1.7,0.7-2.1,0.8-2.3,0.3c-0.2-0.3-0.6-0.9-1-1.3c-0.7-0.7-0.9-0.7-1.9-0.3c-2.7,1-7.6,5.1-13.9,11.8c-3.5,3.7-7.9,7.6-8,7.1
	c0-0.1-0.4-0.3-0.8-0.4c-0.8-0.2-0.8-0.2-3.3,2.6c-2.1,2.4-2.7,3.3-3.8,5.6c-1.5,3.1-1.5,3.1-1.9,2.7c-0.7-0.6-1.3,0.3-2.2,3.2
	c-1,3.2-1.2,4.5-2.3,13.4c-0.6,5.2-0.7,5.7-1.4,5.8c-0.4,0-0.8,0.2-1,0.4c-0.5,0.5-0.4,5.5,0.2,10c1.2,8.9,1.6,14,1.4,20.5
	c-0.1,2.8,0.4,7.2,1.1,11.7l0.2,1.1l-0.8-1.6c-2.3-4.9-5.4-10.3-9.8-17.1c-5.7-9-7-10.8-10.9-15.3l-2.9-3.4l0-3
	c0-4.2,0.6-13.4,1.4-21.3c1.1-11.2,0.2-29-1.6-30.7c-0.5-0.5-0.7-1.4-0.9-3.9c-0.7-7.8-2-14.1-3.8-19.1c-1.1-3-2-4.2-3-4.2
	c-0.5,0-0.7-0.1-0.8-0.4c0-0.2-0.3-2.2-0.6-4.2c-0.8-5.9-1.4-8.9-2.9-14.4c-2-7.7-2.8-9.8-3.9-10.6c-0.8-0.6-1.2-1.3-2.6-4.9
	c-3.5-8.9-4.7-11.2-8.9-17.3c-3.2-4.7-4.2-5.7-5-5c-0.3,0.2-0.6,0.4-0.6,0.3c-0.1-0.1-1.6-2.4-3.4-5.2c-3.8-5.9-6-8.8-6.8-8.9
	c-0.9-0.1-1.1,0.4-0.8,2.3c0.1,1,0.4,3.1,0.5,4.8c0.7,7.7,2.5,16.1,7,32.5c0.7,2.6,0.7,3.1,0.3,3.6c-0.3,0.3-0.5,0.9-0.4,1.3
	c0.1,0.4,1.6,4.8,3.4,9.7c2.4,6.7,3.2,9.2,3,9.7c-0.4,1.1,4,14.8,6.2,19.1c2,4,2.2,4.4,1.6,4.7c-0.6,0.4-0.5,1,1.6,5.8
	c1.4,3.5,1.5,3.9,0.9,3.4c-0.7-0.4-0.8-0.4-1.4,0.2c-0.4,0.4-0.7,0.7-0.7,0.7c-0.2-0.2-3.3-6.4-6.2-12.2c-2.5-5-3.9-7.6-4.3-7.8
	c-0.8-0.5-3.9-6.3-6.1-11.4c-1.6-3.8-2.3-4.7-3-3.8c-0.2,0.2-0.4,0.4-0.5,0.3c0,0-0.8-1.5-1.6-3.2c-1.4-2.8-2.6-6.1-3.2-8.4
	c-0.2-0.8-1-1.3-1.4-0.8c-0.1,0.2-0.2,2.7,0,5.6c0.5,10.3,4.3,22.3,10.8,33.8c1.3,2.3,3.4,6,4.6,8.3c1.7,3.1,6,9.7,6.9,10.5
	c0,0-0.2,0.3-0.5,0.7c-0.4,0.5-0.4,0.9,0.1,1.9l0.6,1.3l-2.5-2.6c-2.4-2.5-2.6-2.7-4.6-7c-2.4-5-3.6-7.1-4.8-8.1
	c-0.5-0.4-1.5-2.2-2.7-4.6c-2-4.3-3.2-5.9-4.3-6.1c-0.6-0.1-0.9-0.4-2.3-2.6c-1.1-1.8-1.9-2.8-2.9-3.5c-1-0.8-1.6-1.5-2.7-3.6
	c-0.8-1.4-2.1-3.5-2.9-4.6c-1.3-1.8-1.5-2-2.6-2.5c-0.7-0.3-1.2-0.6-1.3-0.7c0-0.1-1.5-2-3.2-4.1c-2.6-3.1-3.4-4-4.2-4.4
	c-0.8-0.4-1.3-0.9-2.6-2.6c-2.2-3-5.3-5.7-6.4-5.6c-0.8,0.1-0.9,0-9.7-8.7c-6.2-6.1-9.2-8.9-9.8-9.1c-0.9-0.4-1.7,0.1-1.5,1
	c0.2,1,2.9,9.6,4,12.2c0.6,1.5,1.8,4.4,2.7,6.4c1.6,3.5,1.6,3.7,1.1,4.2c-0.8,0.7-0.7,1,2.2,5.2c1.3,2,2.4,3.7,2.4,3.9
	c0,0.2-0.3,0.4-0.7,0.5c-1.6,0.4-0.6,2.3,3.5,6.5l2.4,2.5L77,91.3c-0.8,0.8-0.5,1.3,2.9,3.9c3.6,2.8,3.6,2.9,1.7,2.2
	c-1.7-0.6-3.2-0.4-3.7,0.4c-0.4,0.7-1,0.7-5.7-0.6c-6.8-1.8-8.8-2-9.9-1c-0.5,0.5-1.2,0.5-4.8-0.1c-4.7-0.8-9.2-0.8-10.3-0.1
	c-0.5,0.3-0.8,0.8-0.9,1.4l-0.2,1l-3.7,0.1c-3.7,0.1-8.5,1-15.8,2.9c-6.9,1.9-14.6,5.1-17.7,7.6c-1,0.8-2.1,1.5-2.4,1.6
	c-0.9,0.3-1.4,1.1-0.9,1.7c0.2,0.3,3,0.9,7.1,1.6c3.7,0.6,8.7,1.5,11,2c2.4,0.5,5.6,1.1,7.3,1.4c4.2,0.8,19.2,4.4,29,7
	c10.1,2.7,18.5,5.2,24.9,7.6l4.9,1.8l0.6,1.9c1.5,4.6,1.7,5.7,1.2,6.5c-0.4,0.6-0.3,1.5,0.7,5.3c1.2,4.6,1.2,4.6,0.4,5
	c-1.1,0.5-1.1,1.1,0.7,6.4c1.7,5,1.8,5.6,1.1,6c-0.3,0.2-0.6,0.6-0.7,1.1c-0.2,1.2,1.2,5.3,3.3,9.6c2.3,4.7,2.7,5.8,2.3,5.9
	c-1.1,0.3,0.5,3.9,3,6.8c1.2,1.4,1.4,1.7,1.1,2.3c-0.4,0.9,0.1,1.7,3.4,4.6l2.9,2.5l-0.4,0.9l-0.4,0.9l1.7,1.5
	c1.5,1.3,5.1,3.9,6.8,4.8c0.4,0.2,0.5,0.4,0.3,0.7c-0.2,0.2-0.3,0.6-0.2,0.9c0.1,0.5,0.7,0.9,3.7,2.3c2,0.9,4.9,2.2,6.4,2.7
	c2.5,0.9,2.8,1,2.8,1.6c0,0.4,0.2,0.8,0.4,1c0.6,0.6,5.4,1.7,10.4,2.5c4.3,0.6,4.7,0.7,4.5,1.3c-0.1,0.3-0.1,0.8,0,1
	c0.3,0.6,3.5,1.4,7.8,1.9c2.2,0.3,4.8,0.6,5.8,0.7l1.9,0.2l-0.1,0.9c-0.1,1.2,0.7,1.6,3.6,1.8c7.7,0.6,14.2,1.1,14.8,1
	c0.7-0.1,1,0.2,6,5.4l5.3,5.4l1.8,3.7c2.5,5.2,3.4,6.6,4.1,6.8c0.7,0.2,1.2,0,1.8-0.8c0.3-0.3,0.5-0.7,0.7-0.9
	c0.4-0.4-0.3-2.2-2.1-5.8c-4.2-8.3-8.8-20-11-27.9c-1.9-6.7-3.6-17.4-3.6-21.6c0-2.9,1.2-6.4,3.1-10c3.2-5.8,7.1-10.8,11-14.2
	c1.3-1.1,3.8-3.5,5.6-5.2c2.9-2.9,9.2-8.2,10.3-8.6c0.2-0.1,0.6-0.4,0.7-0.6c0.7-0.9,7.7-6.3,14-10.7c7.9-5.6,8.3-5.8,15.2-9.8
	c8.1-4.7,9.6-5.7,12.7-9c2.9-3.1,4.4-5.4,6.1-9.7C263.7,107.7,263.9,105.9,263.2,101.3z M228.3,114.4c1-0.4,2.4-1.1,3.2-1.5
	c2.5-1.3,6.8-3,9-3.7c1.9-0.6,2.3-0.6,2.5-0.2c0.5,0.9,3.5,0.5,7.3-0.8c3-1.1,3.1-1.1,2.2-0.3c-1.5,1.2-2,1.4-2.2,1.2
	c-0.1-0.1-0.6,0.1-1.1,0.5c-1.4,1-2.8,1.8-3.3,1.7c-0.3,0-1.5,0.8-2.7,1.8c-1.4,1.2-2.4,1.8-2.7,1.7c-0.5-0.2-0.4-0.3,1.9-2
	c1-0.7,1.8-1.4,1.7-1.6c-0.1-0.3-0.5-0.1-2.8,1.7c-1.2,0.9-2.4,1.5-3.3,1.8c-1.8,0.5-1.8,0.4,1.3-1.8c2.7-1.9,3.1-2.2,2.8-2.5
	c-0.1-0.1-2,1.1-4.2,2.7c-2.2,1.6-4.3,2.9-4.6,3c-0.4,0.1-0.4,0.1,0-0.2c1.5-1,2.7-2.1,2.5-2.4c-0.1-0.1-0.4-0.1-0.6,0.1
	c-0.2,0.2-0.4,0.2-0.4,0c-0.1-0.5-0.6-0.2-3.1,1.9c-2.3,1.9-4.7,3.5-5.2,3.4c-0.2,0,1-1.1,2.6-2.3c3.3-2.6,4.1-3.3,3.5-3.3
	c-0.3,0-5,3.5-5.7,4.3c-0.2,0.2-0.2,0.1-0.3-0.3c-0.1-0.6-0.9-1-1.3-0.6c-0.1,0.1-0.2,0-0.1-0.3
	C225.4,115.7,225.8,115.5,228.3,114.4z M213.6,114.1c1.3-1.1,2.9-2.1,3.5-2.4l1.1-0.5l0.5,1.3c0.5,1.4,1.2,1.8,1.9,1.1
	c0.4-0.4,3.8-1.7,5.2-1.9c1.2-0.2,1.5,0,1.7,1.2l0.1,0.9l-2.9,1.7c-3.3,2-5.3,3.1-5.3,2.8c0-0.1,1-0.9,2.3-1.8
	c1.2-0.9,2.2-1.8,2.2-1.9c-0.1-0.4-0.3-0.3-3.6,2.1c-1.5,1.1-2.8,2.2-2.8,2.4c0,0.2-0.3,0.4-0.6,0.5c-0.4,0.1-0.2-0.2,0.9-1.4
	c0.8-0.9,1.4-1.7,1.3-1.8c-0.2-0.2-1.2,0.5-4.1,3.1c-1,0.9-2.5,2-3.2,2.3l-1.3,0.6l1.8-1.7c2.8-2.5,1.8-2.5-1,0l-2.4,2.2l2.5-2.7
	c1.4-1.5,2.5-2.6,2.6-2.4c0.1,0.3,1.5-0.6,2.6-1.8c0.9-1,0.2-1.1-0.8-0.1c-0.4,0.4-0.7,0.6-0.5,0.3c0.1-0.3,0.2-0.6,0-0.7
	c-0.2-0.1-1.6,1.3-4.4,4.4c-2.3,2.5-4.2,4.5-4.3,4.4c0-0.1,1.2-1.6,2.7-3.2c1.6-1.7,2.7-3.1,2.7-3.3c-0.1-0.2-1.1,0.7-2.9,2.6
	c-1.8,1.9-2.8,2.8-2.9,2.6c-0.1-0.2,0.6-1.1,1.5-2c2-2.1,3.3-3.9,2.9-4C210,117.2,210.9,116.3,213.6,114.1z M208,119.4
	c0.5-0.3,0.1,0.3-1.1,1.6c-1,1.1-2.1,2-2.3,2.1C203.9,123.2,207,119.9,208,119.4z M159.3,171.9c3.2,3.7,14.2,20.4,17.2,26.3
	c1.9,3.6,1.1,2.5-1.8-2.5c-3.3-5.8-12.1-19.2-14.8-22.6C157.6,170.2,157.2,169.5,159.3,171.9z M157,140.4l-0.2,1.1l0-1.1
	c0-1.1,0.1-1.4,0.3-1.2C157.1,139.2,157.1,139.8,157,140.4z M157.3,132.2c-0.1,0.1-0.4-1.1-0.7-2.7c-0.3-1.5-0.7-2.9-0.7-3
	c-0.2-0.2-0.7-3.9-0.5-4c0,0,0.4,0.8,0.7,1.9c0.3,1.1,0.8,2.1,1,2.2C157.3,126.8,157.7,131.8,157.3,132.2z M156.3,136.8
	c-0.2,0.2-0.4-0.8-0.4-2.4c-0.1-1.5-0.1-2.8,0-2.8c0,0,0.2,1,0.4,2.4C156.4,135.3,156.5,136.6,156.3,136.8z M115.8,20.2
	c0.1,0,1.8,2.6,3.7,5.7c3.7,6,4.1,6.4,5.2,5.5c0.3-0.2,0.6-0.3,0.8-0.1c0.2,0.2,1.7,2.4,3.4,5c3.3,5.2,4.7,7.9,7.7,16.1
	c1.1,2.8,2.2,5.4,2.4,5.6c0.3,0.2,0.7,0.4,1,0.3c0.5-0.2,0.6,0,1.3,2c1.9,5.6,3.4,12.4,4.6,21.4c0.5,3.4,1,6.4,1.2,6.6
	c0.5,0.5,1.3,0.4,1.8-0.1c0.5-0.5,0.6-0.4,1.4,1.4c1.7,3.9,3.2,11.3,3.8,18.2c0.6,6.4,0.6,6.6,1.4,7c0.7,0.4,0.7,0.5,1.6,7.1
	c0.1,0.5-0.1,0.8-0.3,0.9c-0.3,0.1-0.3,0.2,0,0.3c0.3,0.1,0.5,0.8,0.5,1.7l0,1.5l-0.6-2c-0.3-1.1-0.8-2.5-0.9-3.2
	c-0.6-2.2-1.3-3.8-1.5-3.8c-0.2,0,0,1.9,0.3,4c0.3,2.2,0.5,4,0.5,4c0,0.1-0.3-0.6-0.6-1.5c-0.6-2-1.5-4.4-1.7-4.6
	c-0.4-0.4-0.4,1,0,6.1c0.3,3.6,0.6,5.9,0.9,6.1c0.3,0.2,0.3,0.5,0.2,0.7c-0.2,0.2-0.2,1.1-0.1,2.1c0.1,1.5,0.1,1.3-0.4-0.9
	c-0.3-1.5-0.7-3.6-0.9-4.7c-0.2-1.1-0.5-4.3-0.7-7.1c-0.3-5.2-1.4-15.7-1.6-15.9c-0.4-0.4-0.4,0.7-0.1,3.9c0.2,2.1,0.2,3.7,0,3.8
	c-0.2,0.1-0.2,0.3,0.1,0.4c0.3,0.1,0.5,1.5,0.7,4c0.5,5.8,0.4,5.8-1.1,1.4c-1.1-3.3-1.5-4.7-1.5-6.9c-0.1-1.5-0.2-2.7-0.4-2.7
	c-0.2,0-0.3,0.6-0.3,1.2l0,1.2l-0.4-1.3c-0.2-0.7-0.5-1.9-0.7-2.6c-0.2-0.7-0.5-4.1-0.7-7.6c-0.3-6.4-0.5-7.9-0.9-7.9
	c-0.1,0-0.1,1.1,0,2.4c0.3,4.5,0.4,8.6,0.2,7.8c-0.6-2-2.2-7.4-3-10.3c-0.5-1.8-1.1-4.1-1.2-5.2c-0.1-1.1-0.5-4.2-0.8-6.8
	c-0.3-2.6-0.7-6.4-0.9-8.3c-0.3-3.2-0.5-4.2-0.9-3.7c-0.2,0.2,0.3,4.8,1,10.9c0.6,5.1,0.6,6,0.2,4.4c-1.1-3.8-2.2-7-3.9-11.6
	c-1.2-3.2-1.9-5.8-2-6.8c-0.1-1.8-1.4-11.3-1.9-13.5c-0.2-0.8-0.4-1.5-0.6-1.5c-0.2,0-0.2,0.3-0.1,0.8c0.2,0.8,1.7,10.8,1.8,12.3
	c0.1,0.4-1.1-2.7-2.7-6.9c-1.5-4.3-2.7-7.8-2.5-7.9c0.2-0.1-1.1-12.2-1.4-12.8c-0.5-0.9-0.4,0.9,0.2,6.1c0.4,3.3,0.7,6,0.6,6
	c-0.1,0-1.3-3-2.6-6.7c-1.3-3.7-3.4-9-4.6-11.7C116.3,21.9,115.6,20.2,115.8,20.2z M155,133.1c-0.1-0.6-0.4-2.1-0.7-3.2
	c-0.5-2.2-1-6.1-0.8-6.3c0.1-0.1,0.3,0.9,0.5,2.1c0.2,1.2,0.5,2.3,0.7,2.4c0.2,0.1,0.4,1.4,0.5,3.2
	C155.2,132.9,155.1,133.7,155,133.1z M155,138.8c-0.2,0-0.7-3.4-0.5-3.6c0,0,0.2,0.3,0.3,0.8C155.1,137.3,155.2,138.8,155,138.8z
	 M148.9,131.1c0.1-0.1,0.3,0.5,0.5,1.3c0.2,0.8,0.4,2,0.4,2.5c0.1,0.9,0.1,0.8-0.3-0.3C148.9,132.5,148.7,131.3,148.9,131.1z
	 M149.2,126.3c0.1,0.2,0.1,0.4,0,0.4c-0.1,0-0.3-0.2-0.3-0.4C148.7,125.8,148.9,125.7,149.2,126.3z M149.5,127.8
	c0.1-0.1,0.3,0.4,0.5,1c0.2,0.6,0.3,1.1,0.2,1.1C150.1,129.9,149.4,127.9,149.5,127.8z M148.2,121.3c0-0.5,0.1-0.9,0.1-0.9
	c0,0,0.4,0.8,0.8,1.9c0.9,2.5,2,6.4,2,6.8C150.9,129.7,148.2,122.1,148.2,121.3z M147.9,124.5c-0.3-1.6-0.8-1.7-0.7-0.1l0.1,1.2
	l-0.5-1.4c-0.9-2.6-1.1-3.3-1.2-4.1c0-0.4,0-0.8,0.1-0.8c0.1,0,0.8,1.4,1.6,3.1c1,2.2,1.3,3.1,1,3.3
	C148.2,125.7,148,125.4,147.9,124.5z M147.5,128.8c-0.5-1.2-0.8-2.4-0.6-2.4c0.1,0,0.4,0.7,0.7,1.5C148,129.6,148,130,147.5,128.8z
	 M128.5,57c-0.1,0-0.3-0.2-0.3-0.4c-0.1-0.5,0.1-0.6,0.3-0.1C128.6,56.8,128.6,57,128.5,57z M136.3,104.7c0.7-0.5,0.6-1-1.7-5.8
	c-1.9-3.9-2.2-4.8-4.7-12.3c-1-3.2-1.7-5.8-1.6-5.9c0.2-0.1,0.3-0.3,0.4-0.5c0-0.2-1.5-4.5-3.4-9.6c-3.4-9-3.4-9.3-2.8-9.9
	c0.6-0.5,0.5-0.9-0.3-4.3c-0.5-2-1.5-6.1-2.3-8.9c-1.9-7.1-4.1-17.4-4.7-21.8c-0.2-2-0.4-3.7-0.3-3.8c0.1-0.1,0.4,0.7,0.8,1.6
	c0.4,1,1.2,2.9,1.9,4.5c1.9,4.5,5.6,13.9,5.4,13.9c-0.1,0-1.3-1.9-2.7-4.1c-2.2-3.5-3.1-4.7-3.1-3.9c0,0.1,1.6,2.7,3.5,5.8
	c2.8,4.6,3.8,6.3,4.9,9.4c1.5,3.9,2.3,7.1,1.4,5.8c-0.7-1.1-5.2-7.2-5.5-7.5c-0.2-0.2-0.4-0.2-0.5-0.1c-0.1,0.1,1.2,2.1,2.9,4.4
	c4.5,6.3,5.5,8.2,7.2,13.3c0.8,2.5,1.4,4.5,1.3,4.5c-0.1,0-0.6-0.7-1.3-1.6c-1.6-2.3-6.7-7.6-6.8-7.1c0,0.2,0.5,0.9,1.1,1.6
	c4.3,4.1,7.7,9.1,9.4,13.8c1.2,3.2,4.5,14.4,3.9,13.3c-0.2-0.3-0.7-1.4-1.3-2.5c-2.4-4.6-8.3-13.6-9-13.5c-0.4,0-0.2,0.4,1.3,2.5
	c3.6,5,7.4,11.6,9.8,17c1.1,2.4,4.4,13,4.2,13.3c0,0-0.3-0.5-0.7-1.1c-4.1-7.5-9.3-16.4-9.5-16.4c-0.4,0-0.1,0.8,0.9,2.5
	c2.3,3.8,9.4,16.6,10,18.2c1.3,3.2,2.8,8.6,2.9,10.1c0,1.7-0.1,1.6-1.3-0.6c-0.6-1.2-1-2.5-1.2-4.4c-0.3-3-1-3.6-0.7-0.7
	c0.1,1.3,0,1.6-0.3,1.4c-0.2-0.2-0.5-1.4-0.5-2.6c-0.1-2.5-0.7-3.1-0.7-0.8l0,1.5l-0.5-0.8c-0.3-0.4-0.8-1.2-1.1-1.7
	c-0.3-0.5-0.7-0.9-0.8-0.9c-0.4,0-0.1,0.8,1.2,2.7c1,1.6,1.4,2.3,1.5,3.5c0.1,1,0.2,1.4,0.4,1.3c0.2-0.2,0.3-0.5,0.3-0.8
	c0-0.4,0.1-0.4,0.3-0.2c0.2,0.2,0.5,1.3,0.6,2.5c0.2,1.2,0.3,2.2,0.4,2.2c0.2,0.2,0.8,4.6,0.6,4.6c-0.3,0-0.8-1.8-1-3.9
	c-0.1-1.2-0.4-2.1-0.6-2.2c-0.2,0-0.3,0.4-0.2,1c0.1,1.1,0.1,1.1-0.3,0.5c-0.2-0.4-0.6-1.5-0.8-2.7c-0.2-1.1-0.5-2.1-0.7-2
	c-0.2,0-0.3,0.1-0.3,0.2c0,0.1,0.2,1.3,0.5,2.8c0.3,1.5,0.5,2.7,0.4,2.7c-0.1,0.1-0.2-0.2-1.4-5.6c-0.6-2.6-1.2-5-1.3-5.1
	c-0.4-0.4-0.3,0.7,0.6,4.7c0.4,2,0.7,3.6,0.7,3.5c-0.4-0.4-0.9-2.2-1.7-5.6c-0.5-2.1-1-3.7-1.1-3.5c-0.1,0.2-0.1,1,0.1,1.8
	c0.8,3,0.2,2.1-1.4-2.5C135.8,105.4,135.7,105.1,136.3,104.7z M144.8,126.1c-0.1,0.3-0.2,0.1-0.3-0.4c-0.1-0.4-0.3-1-0.3-1.2
	c-0.2-0.8,0.1-0.6,0.4,0.3C144.8,125.3,144.9,125.9,144.8,126.1z M111.3,74.8c0.1,0,0.8,1.5,1.7,3.3c0.8,1.8,1.7,3.4,1.9,3.5
	c0.5,0.2,0.9-0.2,0.9-1.1c0-1.1,0.3-0.6,1.7,2.7c0.7,1.6,2.2,4.9,3.4,7.2c1.8,3.4,2.3,4.2,2.8,4.3c0.5,0.1,1.1,1,3.1,5.2
	c1.4,2.8,3.5,7,4.6,9.4c1.2,2.4,2.4,4.6,2.7,4.9c0.6,0.6,0.7,0.6,1.3-0.1c0.6-0.7,0.6-0.7,1.6,0.2c0.7,0.6,1.3,1.6,1.8,3
	c0.4,1.1,0.9,2.2,1.1,2.5c1,1.3,1.6,2.6,2.9,5.5c1.7,3.9,2,4.2,2.7,3.2c0.2-0.2,0.6,0.7,1.6,3.5c1.3,3.7,2.2,6.8,1.9,6.9
	c-0.4,0.1-0.4,0.3,1.6,7.2c1,3.4,1.7,6.5,1.7,6.9c0,0.8-0.4-0.6-2.5-7.7c-0.8-2.9-1.6-5.3-1.7-5.3c-0.1,0-0.2,0.3-0.2,0.7
	c0,0.4-0.3-0.2-0.5-1.2c-0.5-1.9-0.5-2.6,0-1c0.2,0.5,0.5,0.9,0.6,0.9c0.4-0.1-1.1-4.2-3-7.8c-1.8-3.5-1.8-3.5-2-3.2
	c-0.1,0.1,0.4,1.3,1.1,2.7c0.7,1.4,1.5,3.6,1.8,5c0.3,1.4,1,4.1,1.6,6.2c1.1,4,1.3,5,0.3,2.4c-0.3-0.9-0.7-1.5-0.8-1.5
	c-0.4,0-1.4-3.2-1.8-5.9c-0.2-1.5-0.8-3.2-1.2-4c-0.4-0.8-1.2-2.5-1.8-4c-1.2-2.9-1.1-2.8-1.4-2.5c-0.1,0.1,0,0.7,0.3,1.4
	c0.5,1.2,0.6,1.7,1.7,6.1c0.4,1.6,0.6,2.9,0.5,2.9c-0.4,0-3.1-7.6-3.7-10.4c-0.3-1.5-0.9-4.4-1.3-6.5c-0.4-2-0.9-3.8-1-3.8
	c-0.2-0.1-0.2,0.4-0.1,1.1c1.2,6.5,2.4,14.2,2.2,14c-0.5-0.5-1.9-3.2-2-4c-0.2-1.1-0.5-1.5-0.7-0.9c-0.1,0.3-0.3,0.2-0.8-0.5
	c-1.1-1.7-1.7-3.3-2.4-6.4c-0.9-3.8-1.6-4.4-0.8-0.8c0.3,1.5,0.5,2.6,0.3,2.5c-0.1-0.1-1-1.5-2-3.1c-2.5-3.9-3.6-7.3-4.7-13.7
	c-0.5-3.1-0.8-3.8-1.1-3.5c-0.2,0.2,0.7,5.3,1.5,8.6c0.3,1.3,0.5,2.3,0.4,2.3c-0.1,0-1-1.5-2-3.5c-1.6-3.2-1.9-4.1-3.6-11.3
	c-1-4.3-1.9-7.9-2.1-8c-0.2-0.1,0.3,2.5,1,5.7c0.7,3.2,1.3,5.9,1.3,6c0,0-1.3-2.7-2.8-6.2c-1.5-3.4-2.8-6.3-2.9-6.4
	c-0.1-0.1-0.1-0.9-0.1-1.8c0-0.9-0.1-1.7-0.3-1.7c-0.2,0-0.3,0.4-0.3,0.8c0,0.4-0.1,0.7-0.1,0.7C114.8,85.8,110.9,74.8,111.3,74.8z
	 M150.3,149.8c-0.4-1-0.6-2.1-0.3-2.4c0,0,0.3,0.6,0.6,1.5C151.3,151.4,151.2,151.9,150.3,149.8z M148.5,150.7
	c-0.1,0.1-0.2-0.3-0.4-0.9c-0.2-0.5-0.3-1-0.2-1.1c0.1-0.1,0.2,0.3,0.4,0.9C148.5,150.2,148.6,150.6,148.5,150.7z M143.6,141.5
	c-0.2-0.7-0.4-0.9-0.7-0.7c-0.2,0.1-0.6-0.4-1.1-1.8c-0.6-1.6-0.6-1.8-0.1-1.2c0.9,1.2,0.9,0.4,0-1.1c-0.9-1.5-0.8-1.7,0.2-0.5
	c1.1,1.4,2.8,5.8,2.3,6C144,142.4,143.8,142.2,143.6,141.5z M143.6,144.3c-0.1-0.3-0.1-0.5,0-0.5c0.1,0,0.3,0.2,0.4,0.6
	C144.2,145.1,144,145.1,143.6,144.3z M141.8,141.4c-0.1-0.3-0.1-0.5,0-0.5c0.1,0,0.3,0.2,0.4,0.6
	C142.4,142.2,142.2,142.1,141.8,141.4z M136.3,129.4c-0.6-1.8-0.5-2.4,0.2-1.8c0.2,0.2,0.7,1.2,1.1,2.4c0.7,1.9,0.7,2,0,1.6
	C137,131.3,136.7,130.7,136.3,129.4z M136.3,133.9c-0.1,0-0.4-0.3-0.5-0.6c-0.2-0.3-0.2-0.6-0.1-0.6c0.1,0,0.4,0.3,0.5,0.6
	C136.3,133.6,136.4,133.9,136.3,133.9z M137.5,134c0.2-0.2,0.5,0.3,1.1,1.7c1,2.5,1.1,2.8,0.1,1.5C137.7,136,137.1,134.4,137.5,134z
	 M138.5,133.3c0.2,0.1,0.9,1.6,1.7,3.4c0.8,1.8,1.2,3.2,1,3.1c-0.2-0.1-1-1.6-1.7-3.4C138.8,134.6,138.3,133.2,138.5,133.3z
	 M138.9,131.7c0,0,0.2,0.1,0.4,0.2c0.2,0.2,0.2,0.4,0.1,0.5c-0.1,0.1-0.3,0-0.4-0.2C138.9,132,138.8,131.7,138.9,131.7z
	 M144.3,134.5c0.1,0.1,0.2,0.6,0.3,1.1l0.1,1l-0.4-1C144,134.6,143.9,134.2,144.3,134.5z M145.2,143.9c0.6,0.8,1,1.5,0.9,1.9
	c-0.1,0.4,0.2,1.6,0.6,2.6c1.1,3,0,1-1.4-2.5c-0.7-1.7-1.2-3.1-1.2-3.2C144.2,142.7,144.6,143.2,145.2,143.9z M145.5,141.9
	c0.1,0,0.5,0.6,0.9,1.4c0.9,1.6,0.9,2.4,0.1,1.1C145.8,143.4,145.2,141.9,145.5,141.9z M147.1,146.3c0.1,0,0.3,0.5,0.5,1
	c0.5,1.3,0.3,1.4-0.2,0.1C147.1,146.8,147,146.3,147.1,146.3z M120.6,105.6c-4.8-8.7-8-16.7-9.9-25c-0.5-2.2-1.3-8.8-1.1-9
	c0,0,0.4,1.3,0.9,3.1c0.5,1.7,1.5,4.9,2.3,7c2.4,6.2,2.5,6.7,2.2,6.2c-1-1.5-2.2-2.7-2.3-2.5c-0.2,0.2,1.9,3.2,3,4.1
	c0.7,0.6,6.4,13.1,5.9,12.9c-0.4-0.2-4.1-5.6-5.1-7.6c-1-1.8-0.9-1.8-1.2-1.6c-0.1,0.1,0,0.5,0.1,0.9c0.5,1.1,4,6.5,5.9,9.1
	c0.9,1.2,1.9,2.7,2.1,3.2c0.4,0.8,1.4,2.6,5.2,8.9c0.9,1.6,0.4,1.6-1,0C123.7,110.8,122.8,109.7,120.6,105.6z M128.8,119.5
	c-1.3-1.7-3.7-5.5-3.5-5.7c0.1-0.1,0.7,0.6,1.5,1.5c0.8,0.9,2,1.9,2.7,2.4c1,0.6,1.5,1.1,3.1,3.7c1,1.6,1.9,3.1,1.9,3.2
	c0,0.1-0.5-0.3-1.1-0.9c-0.6-0.6-1.2-1-1.3-0.8c-0.1,0.1,0.4,0.8,1.3,1.6c1.4,1.3,1.5,1.6,2.2,3.9c0.8,2.9,0.5,2.9-0.5,0
	c-0.9-2.6-0.8-2.5-1.1-2.2c-0.1,0.1,0.1,1.3,0.6,2.7c0.4,1.3,0.8,2.5,0.7,2.5c-0.1,0.1-2.6-5.6-2.8-6.4
	C132,124.1,130.5,121.7,128.8,119.5z M133.1,134c0.1,0,0.3,0.2,0.4,0.4c0.1,0.2,0,0.2-0.3,0C133,134.2,133,134,133.1,134z
	 M133,129.2c-0.3-0.3-1-2.1-0.8-2.2c0.1-0.1,0.3,0.4,0.6,1C133.3,129.3,133.4,129.6,133,129.2z M127.7,128.1
	c0.2,0.1,0.5,0.3,0.5,0.5c0.1,0.2-0.1,0.1-0.4-0.1C127.6,128.2,127.5,128,127.7,128.1z M123.1,124c0.1-0.1,0.7,0.3,1.3,0.8
	c1.3,1.3,1.2,1.3-0.4,0.2C123.3,124.6,123,124.1,123.1,124z M121.2,122.6c-0.7-0.7-1.5-1.3-2-1.5c-0.5-0.2-0.8-0.5-0.9-0.8
	c-0.2-0.7-0.7-1.1-0.7-0.7c-0.1,0.5-0.8,0-2.7-1.8c-1.8-1.7-2.7-2-1.4-0.4l0.9,1l-1.1,0c-1,0-1.3-0.2-4.7-2.8
	c-2-1.6-4.2-3.5-4.9-4.2c-0.8-0.7-1.5-1.2-1.6-1.1c-0.1,0.1,0.1,0.5,0.4,0.8c0.5,0.4,0.5,0.5,0.1,0.5c-0.3,0-1.3-0.8-2.3-1.7
	c-1-0.9-2-1.7-2.4-1.8c-0.3-0.1-0.5-0.1-0.4,0c0.1,0.1,0,0.2-0.3,0.1c-0.3,0-1-0.5-1.6-1.1c-1.5-1.4-1.7-0.8-0.2,0.7
	c0.7,0.7,0.1,0.3-1.4-1c-1.5-1.2-3.4-2.8-4.3-3.4c-1.6-1.3-1.8-1.9-0.3-1c0.9,0.5,2.9,0.5,3.4,0c0.2-0.3,0.8-0.3,1.4,0
	c1.1,0.4,3.9,1.9,5.1,2.8c0.5,0.3,1.8,1.2,2.9,1.9c3.7,2.4,4.8,3.1,8.4,5.9c4.3,3.3,11.4,9.2,11.8,10
	C123.1,124,122.4,123.8,121.2,122.6z M98.4,110.6l-1.6-1.6l1.9,1.6c1.4,1.2,1.9,1.8,1.8,2.1c-0.1,0.7-0.8,0.4-2.3-1.1l-1.4-1.4
	l1.4,1.2C100.3,113.1,100.4,112.5,98.4,110.6z M88.1,97.7c0.2,0.1,0.7,0.8,1,1.5c0.8,1.7,0.9,2.5,0.2,1.4
	C88.5,99.6,87.7,97.6,88.1,97.7z M87.5,99.9c-0.8-0.7-2.3-3.4-2.1-3.6c0.1-0.1,0.5,0.1,0.9,0.5c0.4,0.4,1,1.4,1.3,2.2
	C88.2,100.5,88.2,100.5,87.5,99.9z M91.6,97.7c-0.6-1.3-1.1-2.4-1-2.4c0.1,0,0.7,0.7,1.3,1.6c0.6,0.9,1.4,2.1,1.7,2.8
	c0.5,1.2,0.5,1.2-0.2,0.8C93,100.2,92.4,99.3,91.6,97.7z M92.4,100.8c0,0.3-0.1,0.4-0.3,0.2c-0.4-0.4-0.5-1,0-0.8
	C92.3,100.3,92.4,100.6,92.4,100.8z M91.3,98.9c-0.2-0.1-0.8-1.1-1.3-2.2c-0.5-1.1-0.8-2-0.6-1.9c0.2,0.1,0.8,1.1,1.3,2.2
	C91.2,98.1,91.5,99,91.3,98.9z M91.2,101.5c-0.1,0.1-0.3,0.1-0.4-0.1c-0.1-0.2-0.4-0.9-0.7-1.5c-0.7-1.4,0.1-1,0.8,0.4
	C91.2,100.8,91.4,101.4,91.2,101.5z M117.8,111.8c0.1-0.1,0.6,0.4,1.1,1c1.2,1.4,4.1,7.6,3.4,7.1c-0.3-0.2-1-1.5-1.5-3
	c-0.5-1.4-1.1-2.7-1.1-2.7c-0.4-0.3-0.5,0.4-0.3,1c0.8,1.7,1.4,3.4,0.9,2.8C119.7,117.1,117.6,112,117.8,111.8z M111.6,101.4
	c0.3,0,0.8,0.2,1,0.4c0.7,0.7,3.1,5.6,3.2,6.6c0,0.4,0.8,2.4,1.6,4.4c1.6,3.8,2.1,5.5,0.9,3c-0.9-1.9-3.4-8-4.2-10.3
	c-0.4-1-0.9-1.9-1.1-2.1c-0.4-0.2,1.8,5.9,3.7,10.1c0.5,1.1,0.8,2,0.8,2c-0.2,0-3.1-6.4-4.9-10.7
	C111.3,102.1,111.1,101.4,111.6,101.4z M70.2,58.5c3.4,3.4,6.9,7.1,7.8,8c1.7,1.9,2.3,2.2,3,1.6c0.4-0.3,0.7-0.2,2.1,1.1
	c0.9,0.8,2.4,2.4,3.3,3.7c1.4,1.9,1.8,2.3,2.5,2.5c0.9,0.2,1.3,0.7,6.2,6.8c1.5,1.9,1.8,2.1,2.7,2.3c0.8,0.2,1.2,0.5,2,1.4
	c1.6,2,4.4,7.1,5.2,9.4c0.4,1.2,0.9,2.2,1.2,2.4c0.3,0.2,0.3-0.2-0.1-1.3c-0.7-1.8-0.5-2,0.7-0.9c1.3,1.2,3,4.4,4.5,8.1
	c0.7,1.9,2.1,5,3,7c1.9,4.1,2,4.6,0.9,3.5c-0.6-0.5-1.6-2.7-3.5-7.3c-1.5-3.6-2.8-6.5-3-6.5c-0.3,0.1,0.7,2.7,3.4,9.2
	c1,2.4,1.2,3.1,0.7,2.7c-0.5-0.4-2.2-3.9-4.4-9.4c-0.5-1.1-1-2.1-1.2-2.2c-0.3-0.1,1.7,5.3,3.2,8.7c0.4,0.9,0.6,1.6,0.4,1.5
	c-0.2-0.1-0.9-1.4-1.5-2.9c-3.7-8.5-4.5-10.2-4.4-8.8c0,0.2,0.9,2.3,1.9,4.6c1,2.3,2,4.6,2.2,5.1l0.3,0.8l-1-0.7
	c-0.8-0.5-1.3-1.3-2.5-4c-0.9-1.9-2.2-5.2-3.1-7.4c-0.8-2.2-1.6-3.9-1.7-3.7c-0.2,0.5,1.2,4.7,2.9,8.6c0.8,1.7,1.6,3.6,1.8,4.2
	l0.4,1.1l-1-1.1c-0.8-0.8-1.4-2.1-2.4-4.8c-0.8-2-1.5-3.7-1.6-3.7c-0.1,0-0.8-1.3-1.4-2.9c-1.2-3-1.4-3.4-1.7-3.1
	c-0.1,0.1,0.5,1.8,1.3,3.7c0.8,2,2,4.9,2.7,6.6c1.1,2.8,1.1,3,0.4,2.7c-0.7-0.3-1.1-1.3-3.2-6.9c-1.3-3.6-2.6-6.5-2.7-6.5
	c-0.2,0-0.3,0.1-0.3,0.2c0,0.1,1,2.9,2.2,6.2c1.7,4.6,2.1,5.9,1.6,5.7c-0.6-0.4-1.7-2.6-3.6-7.9c-1.3-3.7-1.4-3.7-1.7-3.4
	c-0.1,0.1,0.5,2.1,1.3,4.4c1.5,3.9,1.5,4.1,0.6,3c-1.1-1.3-2.6-4.8-4.6-10.5c-0.8-2.2-1.5-4-1.6-4.2c-0.7-0.6,0.1,2.1,2.3,8.3
	c0.9,2.5,0.9,2.5,0,1.5c-0.5-0.6-1-1.5-1.2-2c-0.2-0.5-0.5-1-0.8-1.1c-0.9-0.4-2.9-3.4-3.3-5c-0.5-1.8-1-2.5-0.9-1.2
	c0.3,2.4-2.1-2-3.7-6.5c-0.7-2.2-1.4-4-1.5-4.1c-0.6-0.5-0.4,0.4,0.5,3.1c0.6,1.7,1,3,0.9,3c-0.1,0-0.9-1.1-1.9-2.5
	c-1.5-2.1-2-3.4-4-8.7c-1.4-3.8-2.3-6.1-2.5-5.9c-0.2,0.2,0.4,2.1,1.3,4.4c0.8,2.2,1.5,4.2,1.5,4.3c0,0.1-1.3-1.8-2.9-4.2
	c-1.6-2.4-4.7-7.1-6.8-10.4c-2.2-3.3-3.9-5.9-3.8-5.9C64,52.2,66.8,55,70.2,58.5z M79.7,93.6c-1.8-1.4-1.8-1.5-1.2-1.8
	c0.8-0.5,0.5-1.5-0.9-2.9c-1.2-1.1-4.1-4.5-4.9-5.6c-0.4-0.6-0.4-0.6,0.4-0.7c0.8-0.1,0.8-0.1,0.7-0.9c-0.1-0.5-1.1-2.4-2.4-4.3
	c-2.9-4.4-2.9-4.3-2.5-4.5c0.8-0.4,0.6-1.5-1.2-5.5c-1.8-4.3-5.5-14.3-5.2-14.3c0.1,0,2,2.8,4.2,6.3c2.2,3.5,4.1,6.4,4.1,6.5
	c0,0.1-0.3-0.1-0.7-0.4c-0.4-0.3-0.8-0.5-0.9-0.4c-0.3,0.3,0.6,1.1,1.6,1.5c0.6,0.2,1.1,0.8,1.9,2.1l1.1,1.8l-1.2-1
	c-1.1-0.9-1.9-1.2-1.8-0.7c0,0.1,0.9,0.9,2.1,1.8c1.4,1.1,2.3,2,2.7,2.8l0.6,1.1l-1.6-1.2c-0.9-0.7-1.7-1.1-1.8-1
	c-0.2,0.2,0.1,0.6,2.5,2.3c1.5,1.1,2.2,1.8,2.9,2.8l0.9,1.4l-1.8-1.4c-1-0.8-2-1.4-2.2-1.4c-0.4,0.1,0.8,1.1,3.2,3
	c1.4,1.1,2.1,1.8,3.1,3.3l1.2,1.8L80.9,83c-1.9-1.2-2.7-1.6-2.7-1.1c0,0.2,4.2,2.9,4.8,3c0.3,0.1,2.9,3.5,2.9,3.8
	c0,0.1-1.2-0.6-2.6-1.4c-2.6-1.6-3.1-1.8-3.1-1.4c0,0.3,5,3.3,5.8,3.5c0.7,0.2,3.4,3.5,3.3,4c-0.1,0.3-3.3-1.5-4.1-2.2
	c-0.2-0.2-0.4-0.2-0.6-0.1c-0.3,0.3,0.2,0.7,2.3,1.9c2.1,1.3,2.1,1.3,1.8,1.5c-0.2,0.1,0,0.9,0.4,1.8c0.4,0.9,0.6,1.6,0.3,1.5
	c-0.2,0-0.6-0.6-0.9-1.2c-0.3-0.6-0.6-1.2-0.7-1.3c-0.4-0.4-0.5,0.2-0.3,0.8c0.2,0.6-0.1,0.5-2.3-0.8c-1.4-0.8-2.7-1.4-2.8-1.3
	c-0.2,0.2-0.1,0.3,1.2,1.1c0.8,0.4,1,0.7,1,1c0,0.2,0.1,0.8,0.4,1.3c0.5,0.8,0.3,0.8-1.6-0.8C82.4,95.8,80.7,94.4,79.7,93.6z
	 M44.6,100.2c0.8-0.1,1.7-0.2,2.1-0.4c0.6-0.2,0.8-0.5,1.1-1.6l0.3-1.4l2.6,0c1.5,0,4.3,0.3,6.3,0.7c5.6,1,5.3,1,6,0
	c0.5-0.8,0.7-0.8,2.3-0.6c0.9,0.1,4,0.9,6.8,1.7c2.8,0.8,5.3,1.4,5.5,1.2c0.3-0.1,0.8-0.6,1.2-1c0.6-0.6,0.9-0.7,1.9-0.4
	c2.6,0.8,5.9,2.6,6.9,3.7c0.5,0.6,1.8,1.8,3,2.7c1.2,0.9,2.1,1.8,2,1.9c0,0.1,0.2,0.6,0.6,0.9c0.4,0.4-1.5-0.9-4.2-2.9
	c-2.7-2-4.9-3.6-5-3.6c-0.6,0,0.5,1,5.2,4.5c3,2.2,5.4,4.1,5.4,4.1c0,0.2-2.5-1.4-5.2-3.3c-3.2-2.4-9-6-9.2-5.7
	c-0.2,0.2,0.1,0.5,1.3,1.2c0.5,0.3,1,0.7,1,0.9c0,0.2,0.3,0.7,0.7,1.1c0.6,0.7,0.3,0.6-2.4-0.6c-3.7-1.6-5.2-1.7-2-0.2
	c0.5,0.2,0.5,0.4,0,0.8c-0.3,0.3-0.5,0.6-0.5,0.6c0,0-2.1-1.4-4.6-3.1c-2.5-1.7-4.7-3.1-4.8-3.1c-0.7,0,0,0.6,2.9,2.6
	c1.8,1.2,3.8,2.8,4.6,3.6l1.4,1.4l-1.1-0.4c-1.4-0.5-2.7-1.1-2-1c0.3,0,0.5,0,0.5-0.1c0-0.3-9.8-6.3-10.3-6.2c-0.6,0,0.1,0.6,2,1.8
	c1.7,1.1,4.1,3.5,2.9,3c-0.4-0.2-1.1-0.2-1.5,0c-0.7,0.3-1.2,0.1-2.8-0.9c-1.7-1.1-1.9-1.1-2.3-0.7c-0.3,0.5-0.6,0.4-2.5-0.9
	c-2-1.4-3-1.9-3-1.5c0,0.1,1.6,1.3,3.5,2.6c4.2,2.8,5.3,3.7,4.5,3.8c-0.3,0-0.8-0.1-1-0.4c-0.9-0.9-8.9-5.7-9.1-5.5
	c-0.3,0.3,0.3,0.7,4.1,3c1.9,1.2,3.5,2.2,3.5,2.2c0,0.1-0.8-0.1-1.8-0.4c-1.5-0.5-2.2-0.9-5.1-3.3c-1.8-1.5-3.4-2.8-3.5-2.9
	c-0.1-0.1-0.2,0-0.3,0.2c-0.1,0.2,0.5,0.8,1.5,1.6c1.5,1.2,1.6,1.2,0.4,0.7c-0.6-0.3-1.3-0.7-1.5-0.9c-0.2-0.2-0.7-0.3-1-0.3
	c-0.3,0-0.8-0.1-1.1-0.3c-0.3-0.2-0.6-0.2-0.8-0.1c-0.2,0.1-0.2,0.3,0.3,0.6c0.3,0.2,1.4,1,2.4,1.8c1.5,1.2,1.8,1.5,1.5,1.8
	c-0.2,0.2-0.3,0.3-0.4,0.3c0,0-1.1-0.9-2.4-1.9c-2.2-1.7-2.8-2.1-2.8-1.6c0,0.1,1.1,1,2.3,2.1c2.3,1.8,2.3,1.9,2.4,3
	c0,0.6,0,1.1-0.1,1.1c-0.1,0-1-0.7-2-1.5c-3.7-3.1-5.9-4.8-6-4.5c-0.1,0.3,1.9,2.1,4.2,3.7c0.9,0.6,1.8,1.4,2.1,1.7
	c1.8,1.7-3.5-1.6-7.4-4.6l-1.4-1.1L44.6,100.2z M88.8,107c0,0.3-3.3-1.6-4.1-2.3c-1.3-1.2-0.6-1,1.9,0.7
	C87.8,106.2,88.8,107,88.8,107z M71.6,103.4c-0.8-0.8-0.8-0.8,0.7,0.1c0.9,0.5,1.7,1,1.8,1.1C74.7,105.3,72.3,104.1,71.6,103.4z
	 M67.4,104.7c-0.1,0.4-1.4-0.4-2.6-1.5c-1.2-1.1-0.3-1,1.4,0.3C66.9,104,67.4,104.6,67.4,104.7z M57.1,103.5c-0.9-0.2-1.9-0.7-3-1.6
	c-0.9-0.7-1.6-1.3-1.5-1.3c0.1,0,1.2,0.6,2.5,1.3c1.3,0.7,2.5,1.4,2.8,1.6C58.2,103.6,57.8,103.7,57.1,103.5z M41.5,100.3
	c0.9,0,1.2,0.2,3.7,2.4c2.2,2,2.6,2.4,2.1,2.4c-1-0.1-2.4-1-4.6-3l-2.1-1.8L41.5,100.3z M38.9,100.4c0.4,0,1.3,0.6,2.9,1.9
	c1.9,1.6,2.2,1.9,1.8,1.9c-0.6,0-2.6-1.3-4.4-2.9C38.4,100.5,38.3,100.4,38.9,100.4z M36.6,100.8c0.8-0.2,1.1-0.1,2.1,0.9
	c0.6,0.6,1.5,1.3,2,1.6l0.9,0.6l-1.1,0c-0.9,0-1.4-0.2-2.9-1.4l-1.9-1.4L36.6,100.8z M27.4,102.9c6.1-1.6,7.4-1.8,7.8-1.5
	c3.4,2.6,3.9,3.1,3.3,2.9c-0.3-0.1-0.9-0.5-1.3-0.8c-0.3-0.3-0.6-0.4-0.7-0.3c-0.1,0.3-1-0.1-1.8-0.8c-0.3-0.3-0.6-0.4-0.7-0.3
	c-0.3,0.3,0.4,0.9,2.9,2.5c1.2,0.8,2.2,1.6,2.3,1.9c0.2,0.8-0.4,0.5-4-2.1c-1.9-1.3-3.6-2.4-3.8-2.4c-0.6,0,0,0.5,2.8,2.4
	c1.3,0.9,2.4,1.7,2.4,1.8c0,0.3-2.3-0.4-3.2-0.9c-2.9-1.8-4.5-2.7-4.6-2.5c-0.1,0.1,0.5,0.7,1.3,1.4c0.8,0.7,1.4,1.3,1.4,1.3
	c-0.1,0.1-2.3-1-3.9-1.9c-0.8-0.4-1.2-0.5-1.2-0.2c0,0.3,0.3,0.5,0.7,0.7c0.4,0.2,1.1,0.5,1.5,0.7c0.7,0.4,0.7,0.5,0.2,0.5
	c-0.3,0-1.5-0.4-2.5-0.9c-1.1-0.5-2-0.9-2.1-0.8c-0.3,0.3,0,0.5,1.4,1.1c1.2,0.6,1.6,1,0.9,1c-0.4,0-3.6-1.4-4-1.7
	C22.3,104.3,22.9,104.1,27.4,102.9z M20.4,104.9c1-0.4,1.6-0.4,1.7-0.2c0.1,0.2,0.5,0.5,1,0.7c0.5,0.2,0.7,0.4,0.6,0.6
	c-0.1,0.1,0.1,0.4,0.6,0.8c0.7,0.4,0.4,0.4-1.1,0c-1.1-0.3-2-0.5-2.2-0.4c-0.4,0.2-0.3,0.3,2.3,1.2c2.1,0.7,2.8,1.3,1.9,1.5
	c-0.5,0.1-3-0.8-4.4-1.7c-0.7-0.4-1.4-0.9-1.8-1.1C18.2,105.9,18.4,105.6,20.4,104.9z M10.7,109.5c0.6-0.4,2.2-1.3,3.6-2
	c2.9-1.3,3.2-1.3,4.2-0.8c0.6,0.3,0.6,0.5,0.3,0.6c-0.6,0.3-0.4,0.4,1.5,1c2.4,0.7,1.3,0.8-1.4,0.1c-1.2-0.3-2.3-0.5-2.3-0.3
	c0,0.1,0.4,0.4,1,0.6c0.9,0.3,0.9,0.3-1.1,0.5c-1.2,0.1-3.2,0.4-4.5,0.7l-2.3,0.5L10.7,109.5z M85.9,129.5l-2.6-0.9l-5.9-5.4
	c-3.3-3-6-5.3-6.1-5.2c-0.1,0.1,2.1,2.4,4.9,5l5,4.8l-2.7-0.9c-2.6-0.9-2.8-0.9-7.9-4.9c-2.9-2.2-7.2-5.6-9.5-7.6
	c-2.4-1.9-4.5-3.5-4.7-3.5c-0.7,0,9.1,8.2,15.5,12.8c1,0.8,1.9,1.5,1.9,1.5c0,0.1-2.7-0.7-6-1.6l-6-1.7l-3.3-2.7
	c-3.8-3.1-4.4-3.5-4.7-3.2c-0.1,0.1,0.1,0.4,0.5,0.7c0.4,0.2,1.8,1.4,3.2,2.6l2.5,2.1l-2.6-0.7c-2-0.5-3-1-4.1-1.8
	c-4-3-11.4-8.2-11.5-8c-0.2,0.3,0.4,0.8,5.1,4.2c4.4,3.1,6.1,4.4,6.1,4.5c-0.1,0.1-8.3-1.8-9.1-2.1c-0.6-0.2-2-1.1-3.1-2.1
	c-1.2-0.9-2.3-1.7-2.5-1.7c-0.3,0,0.2,0.5,1.7,1.7l2.1,1.7l-2-0.5c-1.8-0.4-2.3-0.7-4.7-2.6c-4.3-3.3-4.8-3.7-5-3.4
	c-0.1,0.2,0.2,0.6,1,1.2c0.7,0.5,2.1,1.6,3.1,2.5l1.9,1.5l-4.7-0.9c-2.6-0.5-7.8-1.4-11.4-2c-3.7-0.6-7.2-1.2-7.8-1.3
	c-2-0.4,3.2-1.1,7.6-1.1c2.3,0,4.6,0.2,5.2,0.3c1,0.3,1.2,0.3,1.8-0.5c0.4-0.5,0.7-1.3,0.7-2l0-1.1l1.9,0c2.1,0,4.8,0.4,8.5,1.3
	c1.4,0.3,2.6,0.5,2.8,0.4c0.8-0.4,1.1-1.5,0.6-2.2c-1.1-1.6-0.2-1.5,6.7,0.2c2.9,0.7,5.6,1.4,6,1.4c1,0.1,1.5-0.3,1.5-1.5l0-0.9
	l0.7,0.4c1.1,0.6,1.3,0.1,0.2-0.6l-0.9-0.6l0.8-0.1c0.5,0,1.1,0.1,1.4,0.4c0.3,0.3,0.6,0.4,0.8,0.2c0.1-0.2,1.7,0.2,3.5,0.7
	c4.5,1.4,5.9,1.5,6.6,0.7c0.3-0.3,0.6-0.8,0.5-1c-0.2-0.7,0.3-0.7,1.5,0.2c0.7,0.5,1.3,0.8,1.4,0.7c0.2-0.3-0.3-0.7-1.6-1.5
	c-1.6-0.9-0.6-0.8,1.8,0.3c3.9,1.7,5.8,2.4,6.3,2.3c0.2-0.1,0.7-0.4,1-0.7c0.5-0.5,0.7-0.5,1.2,0c0.3,0.3,0.8,0.6,1,0.5
	c0.2-0.1-0.1-0.5-0.6-1c-0.5-0.5-0.9-1.1-0.9-1.3c0.2-0.9,7.3,2.3,14.9,6.6c2.5,1.4,5,2.7,5.6,2.8c1.1,0.2,1.8-0.2,1.8-1
	c0-1.1,2.5,0.5,7.4,4.5c2.8,2.3,3.7,2.7,4.4,2c0.6-0.6,1-0.4,5.4,3c3.3,2.6,8.9,8,11.7,11.4c7.8,9.5,15.2,20,17.4,24.9l0.9,2l-1-0.7
	c-0.7-0.4-1-0.8-1-1.1c0-0.3-2-3.1-4.5-6.3c-2.5-3.2-5.6-7.3-6.9-9c-2.2-3-2.7-3.6-2.7-2.9c0,0.4,3.5,5.2,9.1,12.2l4.7,6l-2.2-1.6
	c-1.2-0.9-3.7-2.5-5.4-3.5c-2.5-1.5-3.3-2.2-3.8-3c-0.3-0.5-2.9-3.6-5.6-6.8c-4.9-5.7-8.4-10-10.4-13.1c-1.2-1.8-1.5-2.2-1.7-1.9
	c-0.2,0.2,2.4,4.1,4.9,7.4c1,1.3,4,4.9,6.8,8.1c2.8,3.2,5,5.9,5,6.1c0,0.5-8.1-4.1-9.5-5.5c-0.7-0.7-2.3-2.5-3.5-4
	c-1.4-1.8-4.4-5-8.6-9.2c-3.6-3.6-7.9-8.1-9.6-10c-3.7-4.2-4.1-4.6-4.1-4.1c0,0.7,6.3,7.6,13.2,14.5c6.8,6.8,11.4,12.2,10.5,12.1
	c-0.1,0-3.8-1.7-8.3-3.7c-6.7-3.1-8.2-3.8-8.5-4.4c-0.2-0.4-1.2-1.5-2.3-2.5c-2.3-2.1-4.5-4.8-6.9-8.2c-1-1.4-1.8-2.6-1.8-2.6
	c0-0.1-0.2-0.1-0.4,0c-0.6,0.2,4.2,6.6,7.5,10c1.7,1.7,3,3.2,2.9,3.3s-1.5-0.5-3.2-1.3l-3.1-1.4l-12.6-11.8
	c-7-6.5-12.7-11.7-12.8-11.6c-0.3,0.4,2.9,3.5,12.9,12.7l10.8,9.9l-4.4-1.7C90.4,131.2,87.3,130,85.9,129.5z M137.1,164.8
	c-0.5-1.7-0.8-3.1-0.7-3.2c0.2,0,0.1-0.5-0.2-1l-0.5-0.9l0.7,0.6c0.9,0.8,4.1,8.9,3.7,9.2c-0.2,0.1,0.2,1.3,0.8,2.7
	c0.6,1.3,1,2.5,0.9,2.5c-0.1,0-0.4-0.6-0.8-1.4c-0.7-1.6-0.9-1.9-1.2-1.6c-0.3,0.3,2.5,5.9,3.6,7.3c0.3,0.4,1.3,2.3,2.2,4.3
	c0.9,2,2.1,4.5,2.6,5.4c0.5,1,0.9,1.8,0.9,1.8c-0.1,0-6.6-7.2-8.8-9.8c-1.7-2-4-6.2-5-9.1c-0.3-0.8-0.4-1.2-0.2-1
	c0.8,1.3,1.1,1.7,1.3,1.5c0.2-0.2-1.6-3.7-2.2-4.2c-0.2-0.1-0.8-2.2-1.5-4.5c-0.8-2.9-1-4-0.6-3.4c0.4,0.5,0.7,0.7,0.8,0.6
	c0.1-0.1,0.7,1.3,1.3,3.3c0.6,1.9,1.2,3.5,1.3,3.5c0.1,0,0.2-0.1,0.2-0.4c0-0.5-3.2-10.4-3.4-10.7c-0.1-0.1,0.2,0.1,0.7,0.5
	c0.6,0.5,1.1,1.2,1.5,2.1c0.4,1.1,2.2,6.4,3,9.2c0,0.1,0.2,0.1,0.3,0C137.9,168.1,137.6,166.5,137.1,164.8z M142.9,173.8
	c0.6,1.3,4.7,7.2,5,7.2c0.5,0,0-0.9-1.6-3.1c-2.5-3.4-3-4.3-2.5-4.5c0.3-0.2,0.1-1.1-0.9-3.6c-0.7-1.9-1.3-3.4-1.2-3.4
	c0.3,0,4.4,5.3,4.5,5.7c0.1,0.4,2,3.9,3.1,5.8c1.1,1.9,3.3,4,3.7,3.8c0.6-0.3,2.9,2.7,6.2,8.1c1.4,2.2,2.7,4.2,3,4.4
	c0.3,0.2,0.8,0.3,1.2,0.2c0.7-0.2,0.7-0.2,2.7,2.6c1.5,2.1,1.1,2.4-0.9,0.5c-0.9-0.8-1.3-1.1-1.4-0.8c-0.1,0.3,0.7,1,2.3,2.5
	c2.2,1.9,2.5,2.2,3.5,4.2c1.1,2.1,1.1,2.1,0.2,1.5c-0.5-0.3-1.8-1.3-2.9-2.3c-1.1-0.9-2.1-1.6-2.2-1.4c-0.2,0.2,4.2,4,5.6,4.7
	c0.5,0.3,0.9,0.7,1.2,1.4c0.2,0.5,0.2,0.8,0.1,0.7c-0.2-0.2-1.5-1.1-2.9-2.1c-2.4-1.8-2.6-1.9-4.2-4.4c-1.9-2.9-2-3-2.3-2.7
	c-0.1,0.1,0.4,1.1,1.1,2.2c0.7,1.1,1,1.8,0.8,1.6c-0.3-0.2-0.6-0.3-0.7-0.2c-0.2,0.2,0.2,0.6,1.2,1.3c0.8,0.6,1.5,1.4,1.7,1.7
	c0.3,0.6,0,0.5-1.5-0.7c-1-0.8-2-1.4-2.1-1.3c-0.4,0.1,0.5,1,3,2.7c1.2,0.8,2.4,1.9,2.9,2.6l0.9,1.1l-1-0.6
	c-0.6-0.4-2.1-1.5-3.4-2.6c-2.6-2.1-4.3-4.4-7.2-9.5c-1.6-2.8-1.3-2.9,1-0.8c0.8,0.8,1.2,1,1.2,0.7c0.1-0.3-0.6-1-2.3-2.3
	c-1.8-1.5-2.5-2.2-2.9-3.1l-0.6-1.1l2,1.9c1.2,1.1,2.1,1.8,2.2,1.7c0.1-0.1-0.9-1.2-2.6-2.9c-1.8-1.7-2.9-3-3.2-3.7
	c-0.5-0.9-0.3-0.8,2.3,1.7c3.3,3.1,3.4,3.2,3.1,2.4c-0.4-0.8-5.8-5.9-6.4-6c-0.5-0.1-0.5,0-0.4,0.4c0.2,0.8,4.6,9.2,6.5,12.3
	c0.9,1.5,1.7,2.8,1.7,2.9c0,0.1-0.6-0.5-1.4-1.3c-0.8-0.8-2.6-2.7-4-4.1c-3.8-3.8-5.2-6.3-10.4-18.7c-1.3-3-2.3-5.7-2.2-5.9
	c0.1-0.2-0.5-2.1-1.3-4.2c-1.2-3.3-1.3-3.8-0.7-3.5c0.5,0.3,1,1.3,2.5,5.1c1,2.7,1.6,4.5,1.4,4.2
	C142.4,171.7,142.3,172.5,142.9,173.8z M174.2,215.4c-0.5-0.5-0.9-1.9-0.6-1.9c0.2,0-0.3-0.5-1-1.2c-2-1.7-2.7-2.5-2.5-2.8
	c0.1-0.1,0.5,0,0.8,0.3c0.3,0.3,1,0.8,1.5,1c0.7,0.4,1,0.8,1.7,2.5C174.8,215.2,174.8,216,174.2,215.4z M173.6,219.2
	c-1-1-1.4-1.4-0.8-1c0.5,0.4,1.4,1.2,1.8,1.7C175.1,220.5,174.6,220.2,173.6,219.2z M170.5,211.8c-0.6-0.6-0.8-0.9-0.5-0.7
	c0.3,0.2,0.8,0.7,1.1,1C171.4,212.5,171.1,212.4,170.5,211.8z M172.2,210c-0.7-0.3-5-3.9-4.7-3.9c0.2,0,1.3,0.7,2.5,1.5
	C172.2,209.1,173.5,210.5,172.2,210z M155.8,211.7c2.7,3,5.8,5.9,6,5.6c0.1-0.1-0.6-1-1.8-2.1c-1.1-1.1-2.6-2.6-3.4-3.5l-1.4-1.6
	l1.1,0.3c1.1,0.3,1.3,0.5,5,4.7c2.2,2.4,3.9,4.4,3.9,4.5c0,0.1-1.6-0.4-3.6-1.1l-3.6-1.2l-3.2-3.5c-1.8-1.9-3.5-3.9-3.8-4.3
	l-0.6-0.8l1.7,0.5C153.9,209.6,154.1,209.8,155.8,211.7z M152.4,206.8c-3-3.6-5.7-7.1-5.5-7.3c0.1-0.1,0.8,0.1,1.5,0.5
	c1.4,0.6,1.5,0.7,4.7,4.9c1.8,2.3,3.3,4.4,3.5,4.5c0.1,0.1-0.3,0.1-1-0.1C154.3,209,154.1,208.9,152.4,206.8z M163.3,216.2
	c-1.6-1.8-3.3-3.6-3.6-4.1c-0.6-0.8-0.7-0.9,0-0.8c0.4,0,1.1,0.4,1.5,0.9c0.8,0.7,6.9,7.6,7.5,8.4c0.2,0.2-0.2,0.2-0.9,0
	c-0.6-0.2-1.2-0.6-1.3-0.8C166.3,219.6,164.9,218,163.3,216.2z M158.5,207.8c-3.1-3.7-3.3-3.9-3.3-3.3c0,0.2,1,1.6,2.3,3.2
	c1.3,1.5,2.3,2.9,2.3,2.9c0,0.1-0.4,0-0.9-0.2c-0.6-0.2-1.4-0.8-2.1-1.7c-1.2-1.4-5.7-7.4-5.6-7.5c0,0,1.4,0.5,3,1.1
	c2.9,1.2,4.6,2.4,4.8,3.4c0,0.3,0.9,1.6,2,3c1.1,1.4,1.9,2.6,2,2.7c0,0.1-0.4,0.1-0.8-0.1C161.3,211.1,160.6,210.4,158.5,207.8z
	 M160.2,206.8c0,0,1.5,1.3,3.2,2.9c2.8,2.7,3,2.9,2.3,2.7c-0.5-0.1-1.2-0.5-1.6-0.9C163.2,210.8,160.1,206.9,160.2,206.8z
	 M118.6,171c0.8,1,1.2,1.7,0.9,1.4c-1.2-1-5.4-6.8-5.1-7c0.2-0.1-0.1-1.3-0.8-3c-1.6-4-0.4-3.1,1.3,1.1c1.7,4,2.4,4.5,0.9,0.5
	l-1.2-2.9l1,0.6c0.8,0.5,1.1,1,1.7,2.3c0.7,1.8,1,2.2,1.3,1.9c0.1-0.1,0-0.6-0.2-1.1c-0.6-1.3-0.2-1.4,1-0.3c0.7,0.6,1.4,1.8,2,3.1
	c0.5,1.2,1.1,2.3,1.3,2.4c0.6,0.6,0.4-0.3-0.4-2c-1-2-0.7-2.1,1.5-0.5c1.1,0.9,11.7,12.3,13.3,14.5c0.4,0.5-5.6-2.2-9.2-4.2
	c-4-2.2-6.1-3.9-8.4-7c-1.7-2.2-2.3-2.8-2.3-2.1C117.1,169,117.8,169.9,118.6,171z M112.4,157.2c0.4,0.9,0.5,1.5,0.2,1.5
	c-0.4,0-1.1-1.8-2-4.9l-0.4-1.5l1.6,1.2c0.9,0.6,2,1.6,2.4,2.2c0.5,0.6,0.9,1.3,0.9,1.6c0,0.3,0.3,1.3,0.6,2.3l0.5,1.7l-1.1-0.9
	c-0.9-0.7-1.2-1.3-1.9-3.1c-0.6-1.5-0.9-2.1-1.1-1.9C111.9,155.5,112.1,156.3,112.4,157.2z M107.4,142.4l-1.6-1.6l1.3,0.9
	c0.7,0.5,1.5,1.2,1.6,1.6C108.9,143.8,108.4,143.5,107.4,142.4z M108.2,149.8c-0.8-0.7-1.5-2.1-1.2-2.1c0.1,0,0.7,0.6,1.4,1.4
	C109.7,150.6,109.6,151.2,108.2,149.8z M106.1,142.7c0.2,0.2-0.1,0.1-0.5-0.3c-0.4-0.4-0.5-0.6-0.3-0.5
	C105.7,142.2,106,142.5,106.1,142.7z M106.5,147.9c-0.3,0.5-0.4,0.4-1.3-0.4c-0.8-0.7-2-2.9-1.7-3.1c0,0,0.8,0.6,1.7,1.5
	C106.6,147.2,106.8,147.4,106.5,147.9z M105.8,148.9c0.8,0.6,1.1,1.3,1.9,3.9c0.8,2.6,0.9,3.1,0.3,2.9c-0.4-0.2-1-1.3-1.9-3.9
	C104.9,148.2,104.9,148.2,105.8,148.9z M107.6,150.3l0.9,0.7c0.7,0.6,1.1,1.3,1.8,3.8l0.9,3.1l-0.9-0.7c-0.7-0.6-1.1-1.3-1.8-3.8
	L107.6,150.3z M111.1,148.1c0.8,1,0.8,1.1,0.2,0.6c-0.8-0.7-1.7-1.9-1.4-1.9C110,146.8,110.5,147.4,111.1,148.1z M110.8,145
	c0.4,0.3,0.9,0.8,1.2,1.1c0.3,0.4,0,0.1-0.7-0.5C110.6,145.1,110.4,144.8,110.8,145z M109.7,145.5c-0.2-0.2-0.3-0.4-0.2-0.4
	c0.1,0,0.3,0.2,0.4,0.4C110,145.7,110,145.7,109.7,145.5z M117,153.5c0.8,1.6,1.4,2.9,1.4,2.9c-0.1,0-1.3-1.3-2.7-2.9
	c-2.3-2.6-2.5-2.8-1.2-1.8c1.8,1.4,1.7,0.9-0.4-1.3c-2.5-2.8-2.7-3.3-0.5-1.4C115.3,150.4,115.7,150.9,117,153.5z M114.1,146.5
	c0.2,0.1,0.5,0.3,0.5,0.5c0.1,0.2-0.1,0.1-0.4-0.1C114,146.6,113.9,146.4,114.1,146.5z M121.6,152.6c1,1.3,2.2,3.8,2,4
	c-0.2,0.2-2.7-3.3-3-4.3c-0.2-0.7-0.3-1.2-0.3-1.2C120.3,151.1,120.9,151.8,121.6,152.6z M121.1,150.7c0.1,0,0.4,0.3,0.5,0.6
	c0.2,0.3,0.2,0.6,0.1,0.6c-0.1,0-0.4-0.3-0.5-0.6C121.1,150.9,121,150.7,121.1,150.7z M127.7,154.9c0,0,0.6,0.6,1.3,1.3
	c0.9,0.9,1.4,1.8,1.7,2.8c0.2,0.8,0.3,1.4,0.1,1.3C130.5,160.3,127.5,155.1,127.7,154.9z M128.3,159c0.1,0.4-0.2,0.2-1-0.5
	c-0.8-0.7-0.9-1-0.6-0.9c0.3,0,0.7,0.3,1,0.5C128,158.3,128.3,158.7,128.3,159z M128.3,154.2c0.8,0.6,1.2,1.2,1.2,1.5
	c0,0.4-0.1,0.3-0.6-0.4c-0.3-0.5-0.9-1.1-1.2-1.5C127.4,153.4,127.6,153.6,128.3,154.2z M130.8,156.7c-0.6-1.3-0.4-2.4,0.2-1.7
	c0.2,0.2,0.6,1.5,1.1,2.9c0.5,1.4,0.6,2.4,0.4,2C131.7,158.6,131.4,158,130.8,156.7z M130.6,153.1c-0.5,0.1-0.9-0.1-2-1.1l-1.4-1.2
	l1.1,0.5c0.6,0.3,1.5,0.8,2,1.1C131.1,152.9,131.1,153,130.6,153.1z M126.2,155.1c-0.6-0.8-0.8-1.1-0.4-0.9c0.3,0.2,0.9,0.8,1.2,1.3
	C128,156.8,127.4,156.5,126.2,155.1z M126.1,156.8c-0.2-0.2-0.3-0.4-0.2-0.4c0.1,0,0.3,0.2,0.4,0.4
	C126.5,157.1,126.4,157.1,126.1,156.8z M125.7,153.1c-0.5-0.5-0.7-0.8-0.4-0.5c0.3,0.2,0.8,0.6,1,0.9
	C126.5,153.8,126.2,153.6,125.7,153.1z M126.3,160.2c0.5,1.7,1,3.2,1.2,3.2c0.2,0,0.2-0.2,0.2-0.5c-0.1-0.3-0.4-1.4-0.6-2.4
	l-0.5-1.9l0.9,1.1c0.6,0.7,1,1,1.1,0.9c0.1-0.1,0.7,1.3,1.4,3.3c0.9,2.6,1.1,3.5,0.7,3.6c-0.3,0-0.3,0.3,0.2,0.9
	c0.3,0.4,1,1.3,1.5,2c0.5,0.7,1,1.2,1.1,1.2c0.5,0,0.1-0.9-1-2.2c-1-1.1-1.2-1.6-0.9-1.7c0.3-0.1,0-1.3-0.8-3.7
	c-0.7-1.9-1.2-3.5-1.1-3.5c0.3,0,2,3.8,3.4,7.7c0.8,2.1,1.9,4.9,2.5,6.2c1.2,2.8,1.3,2.8-4.3-3.3l-4.2-4.7l-1.4-3.1
	c-1.4-3.2-1.9-4.8-1.2-3.5c0.2,0.4,0.5,1,0.6,1.5c0.1,0.4,0.3,0.8,0.4,0.8c0.4,0,0.5-1.5,0.1-1.8c-0.2-0.2-0.3-0.5-0.2-0.6
	c0.1-0.1,0.1-0.4-0.1-0.5c-0.2-0.2-0.6-0.9-0.9-1.8l-0.6-1.5l0.8,0.6C125.2,156.8,125.6,157.7,126.3,160.2z M123.3,153.6
	c-0.7-1-0.3-0.8,0.6,0.2c0.5,0.6,0.9,1.2,1,1.5C125,155.8,124.3,155.1,123.3,153.6z M121.3,156c1,1.3,4.2,8,3.9,8
	c-0.1,0-1.2-1.3-2.6-2.9c-2.5-2.9-3.9-5.2-4.4-7.3l-0.3-1.2l0.7,0.4c0.4,0.2,0.9,0.6,1.1,0.9C119.9,154.3,120.7,155.2,121.3,156z
	 M122.7,166c-0.9-0.3-2-1.5-2.3-2.2c-0.3-1,0.1-0.8,1.5,0.9C122.9,165.8,123.1,166.2,122.7,166z M119.7,163.5
	c0.2,0.6,0.1,0.5-1.1-0.3c-1.3-0.9-1.4-1.2-2.2-3.3c-0.4-1.2-0.7-2.3-0.7-2.3c0.1,0,1,1.1,2.1,2.3c1.3,1.5,1.9,2.4,1.8,2.6
	C119.5,162.7,119.6,163.1,119.7,163.5z M119.5,147.3c-0.4-0.3-0.5-0.6-0.3-0.5c0.2,0.1,0.5,0.3,0.7,0.6
	C120,147.7,119.8,147.6,119.5,147.3z M119.5,151.2l0.3,1l-1-1.1c-0.5-0.6-1.2-1.4-1.6-1.8c-0.5-0.5-0.4-0.5,0.7,0.2
	C118.9,150.1,119.2,150.4,119.5,151.2z M101.7,143.5c-0.6-1.6-0.6-1.8-0.1-1.4c0.3,0.3,0.9,1.2,1.2,2.1
	C103.7,146.6,102.7,146,101.7,143.5z M96.9,137.6c0.3,0.3,0.8,1.5,1.3,2.8c0.8,2.2,0.8,2.3,0.1,2c-0.5-0.3-0.9-1-1.6-2.7
	C95.9,137.3,95.9,136.6,96.9,137.6z M96.4,140.9c-0.4,0.4-1.6-1.3-2.5-3.5c-1-2.3-1-2.4-0.2-2.1c0.6,0.3,1,0.8,1.8,2.9
	C96.1,139.6,96.5,140.8,96.4,140.9z M99.1,139.8c0.5,0.4,1,1.3,1.5,2.7c0.7,2,0.7,2.1,0.1,1.5c-0.4-0.4-1.1-1.6-1.5-2.7
	C98.5,139.4,98.5,139.2,99.1,139.8z M91.9,134.6c0.1,0,0.6,1,1.1,2.3c0.5,1.3,0.8,2.4,0.7,2.5c-0.2,0.2-0.6-0.7-1.1-2.3
	C92.2,135.8,91.9,134.6,91.9,134.6z M164.8,223.6l-1.4-0.2l0.1-0.8c0.2-1.6-0.6-1.8-8.6-2.7c-3.2-0.3-6.4-0.8-6.6-1
	c0,0,0.2-0.3,0.6-0.6c0.8-0.6,0.6-1.4-0.5-1.7c-0.4-0.1-3.1-0.5-6-1c-4.4-0.6-9.3-1.6-9.6-1.8c0,0,0.1-0.3,0.2-0.6
	c0.4-0.7,0-1-2.7-1.9c-2.5-0.9-10.2-4-10.6-4.4c-0.1-0.1-0.1-0.3,0.1-0.5c0.5-0.6-0.2-1.3-2.9-3.1c-1.5-0.9-3.4-2.2-4.2-2.9
	l-1.6-1.2l0.5-0.7l0.5-0.7l-3.6-3.3c-3.4-3.2-3.6-3.3-3.2-3.7c0.5-0.6,0.2-1.3-1.9-3.7c-2.4-2.9-3.1-4.2-2.7-4.9
	c0.6-0.9,0.3-1.8-1.6-5.7c-2.4-5-2.9-6.2-3.5-8.4c-0.4-1.5-0.4-1.9,0.1-2.3c0.9-0.7,0.9-2.1-0.2-5c-0.5-1.5-1.2-3.6-1.6-4.9
	c-0.7-2.2-0.7-2.2,0.1-2.4c1.1-0.3,1.1-0.7-0.3-5.8c-1-3.8-1.1-4.5-0.7-5.1c0.3-0.4,0.4-1,0.3-1.6c-0.2-1-0.2-1,0.4-0.6
	c0.3,0.2,1.2,2.2,2.1,4.4c0.8,2.2,1.7,4,1.9,4c0.2,0,0.3-0.1,0.2-0.3c-0.1-0.2-0.7-1.8-1.4-3.7c-1.2-3.1-1.2-3.4-0.6-3
	c0.6,0.3,1,1.2,2.3,4.8c0.9,2.4,1.6,4.5,1.7,4.5c0.1,0.1,0.2,0,0.3-0.1c0.1-0.1-0.4-2-1.2-4.1c-1.3-3.7-1.3-3.8-0.5-3.2
	c0.7,0.5,1.1,1.4,2,3.9c1.2,3.2,1.5,3.7,1.8,3.4c0.1-0.1-0.4-1.5-1-3.2c-1-2.6-1.1-2.9-0.4-2.3c0.5,0.5,1.1,1.7,1.7,3.7
	c1.1,3.2,1.1,3.3,1.4,3c0.1-0.1-0.2-1.4-0.7-2.8c-1.4-4.1-0.1-2.6,1.4,1.7c1.1,3.2,1.2,3.5,0.6,3.2c-0.4-0.2-1-0.6-1.3-0.9
	c-0.3-0.3-0.8-0.5-1-0.4c-0.3,0.1,0,0.4,1.2,1.2c0.9,0.6,1.8,1.3,2.1,1.6c0.3,0.2,0.7,0.4,0.8,0.4c0.6,0,1.5,1.2,2.1,2.7
	c0.3,0.9,0.7,1.6,0.8,1.8c0.5,0.5,0.5-0.2,0.1-1.4l-0.5-1.3l0.8,0.4c0.6,0.3,1,1.1,2,3.6c0.8,2.1,1.1,3.1,0.8,2.9
	c-1.2-0.8-0.7,0.2,1.5,3.2c1.7,2.3,2.2,3.1,1.7,2.9c-0.6-0.3-5.2-6-6.6-8.2c-0.3-0.4-0.4-0.5-0.6-0.2c-0.1,0.2,0.7,1.5,2.2,3.5
	c1.3,1.7,2.2,3,1.9,2.9c-0.2-0.1-1.8-1.8-3.4-3.9c-1.6-2-3-3.7-3-3.7c-0.5,0,0,0.9,1.7,3c1.1,1.3,2,2.5,2.1,2.7
	c0,0.2-1.5-0.6-3.5-1.7c-2-1.1-3.6-2-3.8-2c-0.7,0,0,0.6,3.4,2.5c5.3,3,10.4,6.3,11.6,7.5c0.6,0.6,1.2,1,1.4,0.9
	c0.2-0.1,0.8,0.3,1.3,0.8c0.5,0.5,1.2,1,1.5,1.1c0.3,0.1,1.7,0.9,3.2,1.7c1.4,0.9,4.8,2.6,7.4,3.8l4.8,2.2l2.4,2.7
	c1.3,1.5,2.6,2.9,2.8,3.2c0.5,0.5,0.4,0.5-0.4,0.2c-0.5-0.2-1.6-0.9-2.4-1.7c-0.8-0.8-1.6-1.3-1.7-1.2c-0.1,0.1,0.1,0.5,0.5,0.9
	c0.5,0.5,0.6,0.6,0.2,0.6c-0.3,0-0.7-0.3-0.9-0.5c-0.2-0.2-0.7-0.4-1-0.4c-0.3,0-3.4-1.3-6.9-3c-5.9-2.8-7.6-3.5-6.8-2.7
	c0.5,0.4,8.9,4.5,12,5.8l2.7,1.1l3.3,3.5c1.8,1.9,3.4,3.5,3.5,3.5c0.1,0,0.2-0.1,0.2-0.4c0-0.2-0.9-1.3-2.5-2.8
	c-2.4-2.3-3.1-3.3-2-2.9c0.3,0.1,1.7,1.4,3.3,2.8c1.6,1.5,2.9,2.6,3.1,2.5c0.2-0.1-0.4-0.8-1.8-2.1c-1.6-1.6-2-2-1.5-1.9
	c0.5,0.1,2,1.6,5.8,5.6c2.9,3,5.2,5.5,5.2,5.5c0,0-6.4-2.5-14.2-5.7l-14.2-5.8l-1.4-1.7c-5.1-6-6.6-7.7-6.7-7.7
	c-0.5,0,0.2,1.1,2.6,3.7c4.2,4.8,4.5,5.2,3.7,4.9c-0.8-0.3-5.1-4.7-6.4-6.5c-0.4-0.6-0.8-1-1-0.9c-0.3,0.3,0,0.7,2.5,3.6l2.4,2.7
	l-6.1-2.5c-6-2.5-6.8-2.7-6.8-2.3c0,0.2,7,3.1,15.9,6.6c15.7,6.2,20.1,8.1,20.4,8.7c0.2,0.6,2.6,3.8,4.9,6.6c0.4,0.5,1,1.3,1.3,1.7
	l0.5,0.7l-1.4-0.4c-1.7-0.5-2.4-1-5.8-5.1c-2.3-2.8-3.1-3.5-3.1-2.9c0,0.1,1.3,1.7,2.9,3.6l2.9,3.4l-2.7-0.8
	c-1.5-0.4-2.9-0.9-3.1-1.1c-0.2-0.2-0.5-0.3-0.6-0.2c-0.6,0.3-3.3-1-4.4-2c-0.7-0.6-1.3-1-1.4-0.9c-0.1,0.1,0.1,0.5,0.4,0.8l0.6,0.6
	l-0.8-0.2c-0.6-0.1-1.1-0.6-1.9-1.4c-0.7-0.8-1.1-1.1-1.2-1c-0.1,0.1,0,0.5,0.4,0.8c0.7,0.7,0.3,0.7-1.5,0c-1.5-0.6-2.1-0.7-2.1-0.3
	c0,0.1,1.1,0.6,2.4,1.1l2.4,0.9l1.9,2.5c1.1,1.4,2.1,2.6,2.2,2.6c0.5,0.1-0.1-0.9-1.6-2.8L136,204l1,0.3c0.9,0.2,1.2,0.5,3.3,3.2
	c2.7,3.4,2.9,3.5,3.1,3.3c0.1-0.1-0.7-1.2-1.7-2.5c-2.5-3.1-2.6-3.2-1-2.7c1.1,0.3,1.5,0.6,2.8,2.1c1.1,1.2,1.6,1.7,1.8,1.5
	c0.1-0.1-0.1-0.6-0.6-1c-1.1-1.1-1.3-1.7-0.4-1.4c0.4,0.2,1.4,1,2.4,2.2c2.5,2.8,5,5.2,5.3,4.9c0.1-0.1-0.5-0.9-1.5-1.8
	c-0.9-0.9-2.3-2.3-3-3.2l-1.4-1.6l1.6,0.5l1.6,0.5l3.6,4.1c2,2.2,3.7,4.1,3.8,4.2c0.1,0.1-0.1,0.1-0.5,0.1c-0.4-0.1-0.7,0-0.7,0.2
	c0,0.1,1.7,0.8,3.7,1.5c2.1,0.7,6.6,2.3,10.1,3.6c3.5,1.3,6.6,2.4,6.8,2.4C177,224.5,168.9,224,164.8,223.6z M176.7,223.7
	c-4-1.3-7.4-2.7-7.3-3c0-0.2-1.1-1.6-2.5-3.2c-4.8-5.4-4.8-5.4-4-5.3c0.6,0.1,1.1,0.5,2.4,2c3.3,3.6,6.6,7,6.9,7
	c0.4-0.1,0-0.6-3.2-3.9c-1.6-1.7-3.1-3.3-3.3-3.7c-0.3-0.5-0.1-0.5,1.1,0c1.6,0.7,2.7,1.7,2.4,2.1c-0.3,0.3,8.7,8.4,9.1,8.1
	c0.2-0.1,0.4,0,0.5,0.3C178.9,224.3,178,224.1,176.7,223.7z M184.6,223.2c-0.1,0.1-1.4-0.9-3-2.1c-1.6-1.2-3.2-2.4-3.5-2.6
	c-0.3-0.2-0.8-1.1-1.2-2c-1.4-4-5.6-13.4-7.3-16.8c-2.2-4.1-4.7-7.6-5.6-7.9c-0.3-0.1-0.7,0-0.9,0.2c-0.2,0.2-0.4,0.2-0.6-0.1
	c-1.1-1.9-5.4-8.3-6.7-9.9c-1.3-1.6-1.7-2-2.4-2.2c-0.7-0.2-1-0.6-2.3-2.9c-0.8-1.5-2.2-3.7-3-4.9c-1.9-2.9-6.7-8.8-7.9-9.9
	c-0.6-0.5-2.5-2.6-4.4-4.7l-3.4-3.8l3.1,1.8c1.7,1,4.4,2.7,6,3.8c2.8,1.9,3.1,2.3,6.7,6.3c9,10.1,15.3,19.1,23.3,33.2
	c1.9,3.3,4.2,7.3,5.1,9C178.9,211.5,184.8,223,184.6,223.2z M207.5,153.5c-1.6,1.3-3.4,2.8-4,3.4c-1,1-0.9,0.7,1.7-5
	c1.5-3.4,2.8-6.2,2.8-6.3c0.1-0.1,0.4,0.6,0.8,1.5c0.4,0.9,0.9,2.2,1.1,2.9l0.4,1.2L207.5,153.5z M211.5,150.2
	c-0.2,0.2-0.4,0.4-0.5,0.3c-0.2-0.2-2.2-5.4-2.3-5.9c-0.1-1.1,0.4-0.4,1.8,2.3C211.6,149.2,211.8,149.9,211.5,150.2z M214.5,147.8
	c-0.4,0.5-0.5,0.4-0.3-0.1c0.1-0.3,0.2-0.7,0.3-0.7c0,0,0.1,0,0.3,0.1C214.9,147.2,214.8,147.6,214.5,147.8z M216.2,146.6
	c-0.6,0.6-0.6,0.6-0.9-0.1c-0.3-0.7,0.5-1.4,1-0.9C216.5,145.9,216.5,146.2,216.2,146.6z M232.5,134.9l-3,2.1
	c-3.7,2.6-3.9,2.7-3.6,1.9c0.8-2,6.1-10.2,7.9-12.2c0.6-0.6,0.6-0.6,0.3,0.9c-0.2,0.8-0.6,2.9-0.9,4.5L232.5,134.9z M234.1,130.4
	c0.4-2.1,0.7-4,0.6-4.3c-0.2-0.3,0.8-1.8,1.1-1.6c0.1,0.1-0.8,4.9-1.4,7.4C233.5,135.5,233.3,134.3,234.1,130.4z M245,124
	c0,0.7-0.1,1.7-0.2,2.3l-0.1,1.1l-2.9,1.7c-1.6,0.9-3,1.7-3.2,1.7c-0.2,0,3.5-4.6,5.8-7.3l0.6-0.7L245,124z M247,123.4
	c-0.2,2.5-0.3,3-0.9,3.3c-0.7,0.4-0.7,0.3-0.5-2c0.2-2.1,0.5-3.1,1.2-4c0.1-0.2,0.3-0.3,0.3-0.2C247.1,120.5,247.1,121.8,247,123.4z
	 M259.7,111.2c-0.6,1.4-1.1,2.5-1.2,2.6c-0.1,0.1,0.4-1.4,1-3.4c1.2-3.8,1.8-7.1,1.3-6.8c-0.2,0.1-0.6,1.4-0.9,3
	c-0.7,3.2-3.3,10.4-4.5,12.3c-0.4,0.7-1.7,2.1-2.7,3l-1.9,1.7l1.7-3c2.6-4.6,5.6-12.2,5-12.7c-0.3-0.3-0.4-0.2-1.1,2.2
	c-1.1,3.6-5.4,12.7-6.1,12.7c-0.1,0-0.1-1,0-2.3c0.1-1.2,0.2-2.3,0.1-2.4c-0.4-0.3-0.7,0.8-0.9,3.3c-0.2,2.8-0.5,3.4-1.6,3.9
	c-0.4,0.2-0.5-0.3-0.3-2.8c0.1-1.7,0.3-3.4,0.5-3.7c0.6-1.2-0.1-0.9-1.2,0.4c-1,1.3-1,1.3-1,0.6c0-0.4-0.1-0.7-0.2-0.7
	c-0.2,0-0.4,0.6-0.4,1.3c-0.1,1.2-0.4,1.5-3.3,5.1c-1.8,2.2-3.3,3.9-3.4,3.9c-0.1,0-0.1-0.7,0.1-1.6c0.1-0.9,0.2-1.7,0-1.8
	c-0.3-0.3-0.5,0-0.7,2c-0.3,3.2-0.7,3.9-2.4,4.7l-0.9,0.4l0.8-3.5c0.4-1.9,0.8-4,0.8-4.7c0-1,0.2-1.3,1.3-2.5
	c0.7-0.8,1.2-1.5,1.1-1.6c-0.3-0.3-5.4,5.2-7.7,8.4c-1.1,1.5-3.1,4.7-4.5,7.1l-2.5,4.4l-2.4,1.7c-1.3,0.9-2.4,1.7-2.5,1.8
	c0,0-0.3-0.1-0.5-0.3c-0.2-0.2-0.5-0.3-0.6-0.2c-0.1,0.1-0.1,0.4,0.1,0.5c0.2,0.2,0.1,0.5-0.3,1c-0.6,0.6-0.7,0.6-1.3,0
	c-0.7-0.7-0.7-0.7,2.8-6.9c1.1-2,2-3.7,1.9-3.8c-0.3-0.3-0.5,0.1-3,4.6c-1.3,2.3-2.5,4.4-2.6,4.5c-0.1,0.1-0.4,0.1-0.7-0.1
	c-0.4-0.2-0.4-0.2-0.1,0.3c0.3,0.6,0.2,1.5-0.2,1.5c-0.1,0-0.6-0.6-1-1.4c-0.5-0.8-0.9-1.4-1-1.4c-0.4,0-0.2,0.8,0.7,2.1
	c0.7,1.1,0.9,1.6,0.7,2.2c-0.1,0.4-0.3,0.7-0.5,0.7c-0.1,0-0.9-1.2-1.7-2.6c-1.6-2.9-1.6-3-1.9-2.7c-0.1,0.1,0.6,1.5,1.4,3.1
	c1.1,1.9,1.6,3.1,1.5,3.5c-0.1,0.3-0.3,0.6-0.4,0.6c-0.3,0-3.2-5.8-3.2-6.4c0-0.5,2.4-5.8,4.1-8.9c1.8-3.2,3.4-5.3,5.2-7
	c1.3-1.2,1.5-1.5,1.1-1.5c-0.9,0-4.3,3.9-6,6.8c-1.5,2.5-4.7,9.1-5.4,10.8c-0.5,1.3-3.7,8.5-5.8,12.8l-1.7,3.5l-2.4,2.2
	c-1.4,1.2-3.2,2.9-4.1,3.7l-1.7,1.5l2.6-5.7c1.4-3.2,2.8-5.9,3-6c0.4-0.3,0.9-2.4,0.7-2.7c-0.1-0.1-0.2-1.6-0.2-3.3
	c0-1.7-0.2-3.1-0.3-3c-0.2,0.1-0.3,1.5-0.3,3.2c0,1.7-0.1,3.4-0.1,3.9c-0.1,0.5-1.7,4.1-3.5,8.1c-2.7,6-3.7,7.7-5.1,9.6
	c-1,1.2-2.5,3.5-3.5,5c-0.9,1.5-1.8,2.7-1.8,2.7c-0.2,0,1.5-4.7,1.8-5c0.1-0.1,0.2-0.5,0.3-0.8c0-0.3,0.6-2,1.2-3.8
	c0.6-1.8,2-5.9,3.1-9.2c2.9-9.1,4.6-13.1,8.1-18.9c1.7-2.9,2-3.4,1.6-3.4c-0.3,0-4,6.1-5.2,8.7c-1.6,3.3-3.3,7.7-4.3,11.1
	c-0.5,1.6-1,2.9-1,2.9c-0.1,0-0.2-2.5-0.3-5.7c-0.1-3.1-0.2-5.7-0.4-5.8c-0.3-0.2-0.2,12.5,0.2,12.8c0.2,0.2-1.1,4.7-1.4,4.7
	c0,0,0-1.9,0.2-4.3c0.3-4.8,0.3-7.2-0.1-7.2c-0.1,0-0.3,1.6-0.4,3.5c-0.1,2-0.2,4.9-0.3,6.6c-0.1,1.7-0.2,3.3-0.2,3.5
	c0,0.3-0.1,0.8-0.3,1.3c-0.3,0.6-0.4-0.9-0.5-5.6c0-3.5-0.2-6.3-0.4-6.1c-0.2,0.2-0.3,3.5-0.2,7.4l0.1,7.1l-1.7,4.9
	c-0.9,2.7-1.8,5.1-1.9,5.4c-0.1,0.3-0.3-0.9-0.4-2.5c-0.2-1.6-0.5-5-0.9-7.6c-0.3-2.5-0.6-5.7-0.7-6.9c-0.1-2.2-0.1-2.3,0.6-2
	c1,0.4,1.5-0.3,1.6-2.6c0.4-4.9,1.7-14.4,2.3-16.8c0.7-2.3,0.8-2.5,1.3-2.5c0.8,0.1,1.5-0.8,2.9-4.1c1.2-2.8,2.3-4.6,4.1-6.5
	c1.1-1.2,1.2-1.3,2.1-1l1,0.3l-1,3.5c-0.6,1.9-0.9,3.5-0.7,3.5c0.2,0,0.9-1.8,1.5-4.1c1-3.6,1.8-5.3,2.2-4.8
	c0.1,0.1-0.3,1.5-0.8,3.1c-0.5,1.6-0.8,2.8-0.6,2.7c0.2-0.1,0.8-1.7,1.4-3.5l1.1-3.4l1.9-1.4c1.1-0.8,2.4-1.6,3-1.9
	c1-0.4,1.8-0.2,1.6,0.5c-0.1,0.4,0.6,1.1,1.1,1c0.2-0.1,1.3-0.7,2.6-1.4c2.7-1.6,12.1-5.9,12.5-5.7c0.2,0.1,0.4,0,0.6-0.2
	c0.4-0.4,2.8-1.2,3-1c0.1,0.1-0.1,0.5-0.3,1c-0.7,1.2-0.3,1.7,1.5,1.5c0.8-0.1,1.7-0.3,1.9-0.6c0.5-0.6,5.5-2.6,5.5-2.2
	c0,0.2-0.8,1.8-1.8,3.6c-1.8,3.4-2.2,4.2-1.7,4.2c0.1,0,0.9-1.3,1.7-2.9c0.8-1.6,1.8-3.5,2.3-4.3l0.8-1.5l1.7-0.4
	c0.9-0.2,1.9-0.5,2.2-0.6c0.2-0.1,0.7-0.1,0.9,0.2c0.4,0.4-0.1,1.5-1.4,2.9c-0.3,0.3-0.5,0.7-0.3,0.8c0.1,0.1,0.9-0.6,2-1.7
	c2.3-2.6,4.7-4.3,8.7-6.3c4-2,6.6-4,10.2-8.1l2.5-2.8l0.1,2C261.6,105.4,261,108.3,259.7,111.2z M99.2,89.6c-0.6-1.3-1-2.4-0.9-2.5
	c0.3-0.3,0.3-0.2,1.5,2.3c0.6,1.3,1,2.4,0.9,2.5C100.5,92.1,100.5,92.2,99.2,89.6z M103.3,95c-0.5-1.2-0.9-2.3-0.7-2.3
	c0.2,0,0.6,0.6,1,1.5c0.4,0.9,0.9,1.9,1.1,2.3c0.4,0.8,0.3,1.3-0.2,0.9C104.4,97.4,103.8,96.3,103.3,95z M107,97.3
	c-0.3-0.8-0.3-1.3-0.1-1.2c0.5,0.2,1.4,2.5,1.2,2.7C107.8,99.2,107.5,98.7,107,97.3z M106.2,121.7c0.5,0,6,4.3,6.6,5.2
	c0.9,1.4-0.4,0.6-3.6-2.3C107.1,122.8,106,121.7,106.2,121.7z M106.9,121.1c-0.1-0.1-0.1-0.3,0-0.4c0.1-0.1,0.3-0.1,0.4,0
	c0.1,0.1,0.1,0.3,0,0.4C107.2,121.2,107,121.2,106.9,121.1z M116.4,127.3c-2.1-2.1-3.1-3.3-2.8-3.3c0.3,0,1.6,1.2,3.4,3
	c2.6,2.7,3.4,3.6,2.8,3.5C119.7,130.5,118.2,129,116.4,127.3z M118.2,127.4c-1.9-1.9-3.1-3.3-2.9-3.5c0.2-0.2,6.5,6.1,6.5,6.5
	C121.9,131,121.2,130.5,118.2,127.4z M119.2,126.7c-0.4-0.9,0.3-0.5,1.8,1c2,2.1,2,2.8,0,0.9C120.1,127.8,119.3,126.9,119.2,126.7z
	 M122.3,128.8c-0.6-0.8-1.1-1.5-1-1.6c0.2-0.2,2.7,2.5,3.2,3.4c0.4,0.7-0.1,1-0.6,0.3C123.7,130.5,123,129.5,122.3,128.8z
	 M124.4,132.2c0.2-0.2,4.6,4.2,4.6,4.6c0,0.6-0.6,0.1-2.6-2.1C125.2,133.4,124.3,132.3,124.4,132.2z M125.8,135.2
	c1.7,1.8,1.7,2.5,0,0.9c-0.7-0.7-1.4-1.5-1.5-1.7C123.8,133.5,124.6,133.8,125.8,135.2z M129.9,138.9c-0.4-0.5-0.6-1-0.5-1.1
	c0.1-0.1,0.4,0.1,0.7,0.5c0.3,0.4,1.1,1.5,1.8,2.5c1.2,1.6,1.5,2.4,1.1,2.4c-0.1,0-0.7-0.7-1.3-1.6
	C131.1,140.5,130.3,139.4,129.9,138.9z M133.7,144.5c-0.5-0.8,0.1-1,0.6-0.2c0.3,0.4,0.9,1.1,1.3,1.7c1.2,1.5,0.6,1.7-0.6,0.2
	C134.4,145.5,133.9,144.7,133.7,144.5z M138.5,152.1c-0.1-0.1-0.1-0.3,0-0.4c0.1-0.1,0.3-0.1,0.4,0c0.1,0.1,0.1,0.3,0,0.4
	C138.8,152.3,138.6,152.3,138.5,152.1z M150.4,95.1c-0.1-0.1-0.1-0.3,0-0.4c0.1-0.1,0.2-0.2,0.3-0.1c0.1,0.1,0.1,0.2,0,0.4
	C150.6,95.1,150.5,95.2,150.4,95.1z M148.7,100.7c-0.1-0.2-0.1-0.4,0-0.4c0.1-0.1,0.2,0,0.3,0.1c0.1,0.1,0.1,0.3,0,0.4
	C148.9,100.9,148.8,100.9,148.7,100.7z M151.5,106.6c0-0.4,0.1-1,0.3-1.2c0.2-0.3,0.3-0.1,0.4,0.8
	C152.1,107.5,151.6,107.8,151.5,106.6z M149.3,112c0.2,0.8,0.5,4.1,0.4,4.3c-0.3,0.4-0.5-0.3-0.7-2.3C148.8,112.2,149,111,149.3,112
	z M152.3,114c-0.2-2.3-0.1-2.9,0.3-2.5c0.4,0.3,0.5,4.7,0.2,4.8C152.6,116.3,152.3,115.3,152.3,114z M61.6,100.6
	c-0.1-0.1-0.2-0.2-0.1-0.3c0.1-0.1,0.2-0.1,0.4,0c0.2,0,0.2,0.2,0.1,0.3C61.9,100.7,61.8,100.8,61.6,100.6z M107.1,113.6
	c-2.2-1.9-3.6-3.3-3.5-3.4c0.2-0.2,3.5,2.4,6.2,4.9C112.8,118.1,110.9,117,107.1,113.6z M120.1,180c-0.1-0.1-0.1-0.3,0-0.4
	c0.1-0.1,0.2-0.2,0.3-0.1c0.1,0.1,0.1,0.2,0,0.4C120.3,180.1,120.2,180.1,120.1,180z M136.7,191.7c-0.3-0.4-0.3-0.6,0-0.6
	c0.5,0,5.2,4.6,5,4.9C141.4,196.2,137.4,192.7,136.7,191.7z M137.7,190.2c-0.5-0.9,0.4-0.3,2,1.2c2.5,2.5,4.4,4.6,4.2,4.9
	C143.6,196.4,138.1,191,137.7,190.2z M127.4,164.4c-0.2-0.4-0.1-0.4,0.3-0.2c0.6,0.3,2.7,4,2.5,4.3c-0.1,0.1-0.3,0.1-0.4,0
	C129.5,168.3,127.7,165,127.4,164.4z M138.9,173.1c1.5,2.6,2.9,4.8,3,4.9c0.3,0.3,0.2,1-0.1,1c-0.1,0-1.5-2.3-3.2-5.1
	c-1.7-2.8-3.1-5.2-3.1-5.2c-0.1-0.1,0-0.2,0.1-0.3C135.9,168,135.9,168,138.9,173.1z M148.5,180c-0.6-0.5-3-5-3-5.4
	c0-0.3-0.1-1-0.3-1.6c-0.3-0.8-0.3-1,0.1-0.8c0.5,0.3,1.2,2.1,0.9,2.4c-0.2,0.2,1.1,2.6,2.4,4.5C149,179.7,148.9,180.5,148.5,180z
	 M147,175.8c0.1-0.1,0.3-0.1,0.4,0c0.1,0.1,0.2,0.2,0.1,0.3c-0.1,0.1-0.2,0.1-0.4,0C147,176.1,146.9,175.9,147,175.8z M159.3,198
	c0.6,0,2.7,1.6,2.5,1.9c-0.2,0.3-1.2-0.3-2.2-1.2C159.1,198.3,159,198,159.3,198z M160.7,197.5c-0.1-0.2-0.1-0.4,0-0.4
	c0.1-0.1,0.2,0,0.3,0.1c0.1,0.1,0.1,0.3,0,0.4C160.9,197.8,160.8,197.7,160.7,197.5z M164.6,199.5c0.2-0.2,2.2,1.1,3.7,2.6
	c1.6,1.6,0.3,1-1.9-0.7C165.2,200.3,164.5,199.6,164.6,199.5z M200.6,127.8c0.4,0.1-0.7,4-1.1,4c-0.4,0-0.3-0.2,0.2-2.2
	C200.2,127.5,200.1,127.7,200.6,127.8z M202.2,128.7c0.2,0.2-0.2,1.9-0.5,2.2c-0.3,0.3-0.5-0.4-0.3-1.2
	C201.7,128.6,201.9,128.4,202.2,128.7z M199.6,149.8c-0.1,3.9-0.7,3.5-0.6-0.5c0-1.8,0.2-3.3,0.3-3.3
	C199.7,145.9,199.7,146.5,199.6,149.8z M223.8,124.9c0.3,0.1-0.6,3.3-1.1,3.8c-0.5,0.6-0.5-0.3,0.1-1.9c0.3-1,0.6-1.8,0.6-1.9
	C223.4,124.9,223.6,124.9,223.8,124.9z M226.1,124.7c0.3,0.1-0.8,3.9-1.3,4.4c-0.5,0.6-0.5-0.4,0.2-2.3c0.4-1.1,0.7-2.1,0.7-2.2
	C225.7,124.6,225.9,124.6,226.1,124.7z M237,117c0.1,0.1-0.5,1.1-1.2,2.2c-0.8,1.1-1.6,2.3-1.7,2.5c-0.2,0.4-0.3,0.4-0.5,0.1
	c-0.1-0.2,0.3-1.1,1.1-2.2C236.3,117.3,236.7,116.8,237,117z M247.2,113.5c0.2,0.2-2,3.1-2.3,3.1c-0.1,0-0.2-0.2-0.1-0.5
	C244.9,115.5,247,113.3,247.2,113.5z M212.2,117.1c-0.1-0.1,0.5-1,1.5-2.1c1-1.1,1.8-1.8,2-1.6c0.1,0.1-0.5,1-1.5,2.1
	C213.1,116.6,212.3,117.3,212.2,117.1z"/>
</svg>
