<svg width="220" height="14" viewBox="0 0 220 14" fill="none" xmlns="http://www.w3.org/2000/svg">
<path d="M16.351 9.96946C15.8623 9.96946 15.3981 10.1609 15.0479 10.507C14.6976 10.8573 14.5021 11.3134 14.5021 11.8021C14.5021 12.2908 14.6935 12.7469 15.0479 13.0971C15.4022 13.4433 15.8623 13.6347 16.351 13.6347C17.3529 13.6347 18.1674 12.8121 18.1674 11.8021C18.1674 10.7921 17.3529 9.96946 16.351 9.96946ZM16.351 12.8202C15.789 12.8202 15.3166 12.3559 15.3166 11.8021C15.3166 11.2482 15.789 10.784 16.351 10.784C16.9049 10.784 17.3529 11.2401 17.3529 11.8021C17.3529 12.3641 16.9049 12.8202 16.351 12.8202ZM16.8235 3.86479C16.7502 3.79556 16.6524 3.75891 16.5506 3.75891H14.4614C14.2374 3.75891 14.0542 3.94217 14.0542 4.16616V7.5056C14.0542 7.72959 14.2374 7.91285 14.4614 7.91285H17.7764C18.0004 7.91285 18.1837 7.72959 18.1837 7.5056V5.2698C18.1837 5.15577 18.1348 5.04582 18.0493 4.96844L16.8235 3.86479ZM17.3692 7.09835H14.8687V4.56933H16.3918L17.3692 5.44899V7.09835ZM6.40603 9.96946C5.91733 9.96946 5.45306 10.1609 5.10283 10.507C4.7526 10.8573 4.55712 11.3134 4.55712 11.8021C4.55712 12.2908 4.74852 12.7469 5.10283 13.0971C5.45714 13.4433 5.91733 13.6347 6.40603 13.6347C7.40786 13.6347 8.22236 12.8121 8.22236 11.8021C8.22236 10.7921 7.40786 9.96946 6.40603 9.96946ZM6.40603 12.8202C5.84402 12.8202 5.37161 12.3559 5.37161 11.8021C5.37161 11.2482 5.84402 10.784 6.40603 10.784C6.95989 10.784 7.40786 11.2401 7.40786 11.8021C7.40786 12.3641 6.95989 12.8202 6.40603 12.8202ZM3.68968 10.4704H2.87111V9.38709C2.87111 9.1631 2.68784 8.97984 2.46386 8.97984C2.23987 8.97984 2.05661 9.1631 2.05661 9.38709V10.8776C2.05661 11.1016 2.23987 11.2849 2.46386 11.2849H3.68968C3.91366 11.2849 4.09693 11.1016 4.09693 10.8776C4.09693 10.6536 3.91366 10.4704 3.68968 10.4704ZM5.75443 8.25086C5.75443 8.02688 5.57117 7.84362 5.34718 7.84362H0.407249C0.183262 7.84362 0 8.02688 0 8.25086C0 8.47485 0.183262 8.65811 0.407249 8.65811H5.34718C5.57117 8.65811 5.75443 8.47892 5.75443 8.25086ZM1.23396 6.7807L6.1739 6.8092C6.39788 6.8092 6.58114 6.63001 6.58522 6.40603C6.58929 6.17797 6.40603 5.99471 6.18204 5.99471L1.24211 5.9662C1.23804 5.9662 1.23804 5.9662 1.23804 5.9662C1.01405 5.9662 0.830788 6.14539 0.830788 6.36937C0.826716 6.59743 1.00998 6.7807 1.23396 6.7807ZM2.06475 4.93178H7.00468C7.22867 4.93178 7.41193 4.74852 7.41193 4.52454C7.41193 4.30055 7.22867 4.11729 7.00468 4.11729H2.06475C1.84077 4.11729 1.6575 4.30055 1.6575 4.52454C1.6575 4.74852 1.84077 4.93178 2.06475 4.93178ZM19.8493 4.382L16.9334 1.96701C16.8601 1.90593 16.7705 1.87335 16.6728 1.87335H13.2437V0.407249C13.2437 0.183262 13.0605 0 12.8365 0H2.46386C2.23987 0 2.05661 0.183262 2.05661 0.407249V3.38831C2.05661 3.6123 2.23987 3.79556 2.46386 3.79556C2.68784 3.79556 2.87111 3.6123 2.87111 3.38831V0.814498H12.4333V10.4704H9.09387C8.86988 10.4704 8.68662 10.6536 8.68662 10.8776C8.68662 11.1016 8.86988 11.2849 9.09387 11.2849H14.0664C14.2904 11.2849 14.4736 11.1016 14.4736 10.8776C14.4736 10.6536 14.2904 10.4704 14.0664 10.4704H13.2478V2.68784H16.5302L19.1855 4.88699L19.157 10.4622H18.7335C18.5095 10.4622 18.3262 10.6455 18.3262 10.8695C18.3262 11.0935 18.5095 11.2767 18.7335 11.2767H19.5602C19.7842 11.2767 19.9674 11.0975 19.9674 10.8735L20 4.69965C19.9959 4.57748 19.943 4.45938 19.8493 4.382Z" fill="#554045"/>
<path d="M66.351 9.96946C65.8623 9.96946 65.3981 10.1609 65.0479 10.507C64.6976 10.8573 64.5021 11.3134 64.5021 11.8021C64.5021 12.2908 64.6935 12.7469 65.0479 13.0971C65.4022 13.4433 65.8623 13.6347 66.351 13.6347C67.3529 13.6347 68.1674 12.8121 68.1674 11.8021C68.1674 10.7921 67.3529 9.96946 66.351 9.96946ZM66.351 12.8202C65.789 12.8202 65.3166 12.3559 65.3166 11.8021C65.3166 11.2482 65.789 10.784 66.351 10.784C66.9049 10.784 67.3529 11.2401 67.3529 11.8021C67.3529 12.3641 66.9049 12.8202 66.351 12.8202ZM66.8235 3.86479C66.7502 3.79556 66.6524 3.75891 66.5506 3.75891H64.4614C64.2374 3.75891 64.0542 3.94217 64.0542 4.16616V7.5056C64.0542 7.72959 64.2374 7.91285 64.4614 7.91285H67.7764C68.0004 7.91285 68.1837 7.72959 68.1837 7.5056V5.2698C68.1837 5.15577 68.1348 5.04582 68.0493 4.96844L66.8235 3.86479ZM67.3692 7.09835H64.8687V4.56933H66.3918L67.3692 5.44899V7.09835ZM56.406 9.96946C55.9173 9.96946 55.4531 10.1609 55.1028 10.507C54.7526 10.8573 54.5571 11.3134 54.5571 11.8021C54.5571 12.2908 54.7485 12.7469 55.1028 13.0971C55.4571 13.4433 55.9173 13.6347 56.406 13.6347C57.4079 13.6347 58.2224 12.8121 58.2224 11.8021C58.2224 10.7921 57.4079 9.96946 56.406 9.96946ZM56.406 12.8202C55.844 12.8202 55.3716 12.3559 55.3716 11.8021C55.3716 11.2482 55.844 10.784 56.406 10.784C56.9599 10.784 57.4079 11.2401 57.4079 11.8021C57.4079 12.3641 56.9599 12.8202 56.406 12.8202ZM53.6897 10.4704H52.8711V9.38709C52.8711 9.1631 52.6878 8.97984 52.4639 8.97984C52.2399 8.97984 52.0566 9.1631 52.0566 9.38709V10.8776C52.0566 11.1016 52.2399 11.2849 52.4639 11.2849H53.6897C53.9137 11.2849 54.0969 11.1016 54.0969 10.8776C54.0969 10.6536 53.9137 10.4704 53.6897 10.4704ZM55.7544 8.25086C55.7544 8.02688 55.5712 7.84362 55.3472 7.84362H50.4072C50.1833 7.84362 50 8.02688 50 8.25086C50 8.47485 50.1833 8.65811 50.4072 8.65811H55.3472C55.5712 8.65811 55.7544 8.47892 55.7544 8.25086ZM51.234 6.7807L56.1739 6.8092C56.3979 6.8092 56.5811 6.63001 56.5852 6.40603C56.5893 6.17797 56.406 5.99471 56.182 5.99471L51.2421 5.9662C51.238 5.9662 51.238 5.9662 51.238 5.9662C51.0141 5.9662 50.8308 6.14539 50.8308 6.36937C50.8267 6.59743 51.01 6.7807 51.234 6.7807ZM52.0648 4.93178H57.0047C57.2287 4.93178 57.4119 4.74852 57.4119 4.52454C57.4119 4.30055 57.2287 4.11729 57.0047 4.11729H52.0648C51.8408 4.11729 51.6575 4.30055 51.6575 4.52454C51.6575 4.74852 51.8408 4.93178 52.0648 4.93178ZM69.8493 4.382L66.9334 1.96701C66.8601 1.90593 66.7705 1.87335 66.6728 1.87335H63.2437V0.407249C63.2437 0.183262 63.0605 0 62.8365 0H52.4639C52.2399 0 52.0566 0.183262 52.0566 0.407249V3.38831C52.0566 3.6123 52.2399 3.79556 52.4639 3.79556C52.6878 3.79556 52.8711 3.6123 52.8711 3.38831V0.814498H62.4333V10.4704H59.0939C58.8699 10.4704 58.6866 10.6536 58.6866 10.8776C58.6866 11.1016 58.8699 11.2849 59.0939 11.2849H64.0664C64.2904 11.2849 64.4736 11.1016 64.4736 10.8776C64.4736 10.6536 64.2904 10.4704 64.0664 10.4704H63.2478V2.68784H66.5302L69.1855 4.88699L69.157 10.4622H68.7335C68.5095 10.4622 68.3262 10.6455 68.3262 10.8695C68.3262 11.0935 68.5095 11.2767 68.7335 11.2767H69.5602C69.7842 11.2767 69.9674 11.0975 69.9674 10.8735L70 4.69965C69.9959 4.57748 69.943 4.45938 69.8493 4.382Z" fill="#CA6E55"/>
<path d="M116.351 9.96946C115.862 9.96946 115.398 10.1609 115.048 10.507C114.698 10.8573 114.502 11.3134 114.502 11.8021C114.502 12.2908 114.694 12.7469 115.048 13.0971C115.402 13.4433 115.862 13.6347 116.351 13.6347C117.353 13.6347 118.167 12.8121 118.167 11.8021C118.167 10.7921 117.353 9.96946 116.351 9.96946ZM116.351 12.8202C115.789 12.8202 115.317 12.3559 115.317 11.8021C115.317 11.2482 115.789 10.784 116.351 10.784C116.905 10.784 117.353 11.2401 117.353 11.8021C117.353 12.3641 116.905 12.8202 116.351 12.8202ZM116.823 3.86479C116.75 3.79556 116.652 3.75891 116.551 3.75891H114.461C114.237 3.75891 114.054 3.94217 114.054 4.16616V7.5056C114.054 7.72959 114.237 7.91285 114.461 7.91285H117.776C118 7.91285 118.184 7.72959 118.184 7.5056V5.2698C118.184 5.15577 118.135 5.04582 118.049 4.96844L116.823 3.86479ZM117.369 7.09835H114.869V4.56933H116.392L117.369 5.44899V7.09835ZM106.406 9.96946C105.917 9.96946 105.453 10.1609 105.103 10.507C104.753 10.8573 104.557 11.3134 104.557 11.8021C104.557 12.2908 104.749 12.7469 105.103 13.0971C105.457 13.4433 105.917 13.6347 106.406 13.6347C107.408 13.6347 108.222 12.8121 108.222 11.8021C108.222 10.7921 107.408 9.96946 106.406 9.96946ZM106.406 12.8202C105.844 12.8202 105.372 12.3559 105.372 11.8021C105.372 11.2482 105.844 10.784 106.406 10.784C106.96 10.784 107.408 11.2401 107.408 11.8021C107.408 12.3641 106.96 12.8202 106.406 12.8202ZM103.69 10.4704H102.871V9.38709C102.871 9.1631 102.688 8.97984 102.464 8.97984C102.24 8.97984 102.057 9.1631 102.057 9.38709V10.8776C102.057 11.1016 102.24 11.2849 102.464 11.2849H103.69C103.914 11.2849 104.097 11.1016 104.097 10.8776C104.097 10.6536 103.914 10.4704 103.69 10.4704ZM105.754 8.25086C105.754 8.02688 105.571 7.84362 105.347 7.84362H100.407C100.183 7.84362 100 8.02688 100 8.25086C100 8.47485 100.183 8.65811 100.407 8.65811H105.347C105.571 8.65811 105.754 8.47892 105.754 8.25086ZM101.234 6.7807L106.174 6.8092C106.398 6.8092 106.581 6.63001 106.585 6.40603C106.589 6.17797 106.406 5.99471 106.182 5.99471L101.242 5.9662C101.238 5.9662 101.238 5.9662 101.238 5.9662C101.014 5.9662 100.831 6.14539 100.831 6.36937C100.827 6.59743 101.01 6.7807 101.234 6.7807ZM102.065 4.93178H107.005C107.229 4.93178 107.412 4.74852 107.412 4.52454C107.412 4.30055 107.229 4.11729 107.005 4.11729H102.065C101.841 4.11729 101.658 4.30055 101.658 4.52454C101.658 4.74852 101.841 4.93178 102.065 4.93178ZM119.849 4.382L116.933 1.96701C116.86 1.90593 116.771 1.87335 116.673 1.87335H113.244V0.407249C113.244 0.183262 113.06 0 112.836 0H102.464C102.24 0 102.057 0.183262 102.057 0.407249V3.38831C102.057 3.6123 102.24 3.79556 102.464 3.79556C102.688 3.79556 102.871 3.6123 102.871 3.38831V0.814498H112.433V10.4704H109.094C108.87 10.4704 108.687 10.6536 108.687 10.8776C108.687 11.1016 108.87 11.2849 109.094 11.2849H114.066C114.29 11.2849 114.474 11.1016 114.474 10.8776C114.474 10.6536 114.29 10.4704 114.066 10.4704H113.248V2.68784H116.53L119.186 4.88699L119.157 10.4622H118.733C118.509 10.4622 118.326 10.6455 118.326 10.8695C118.326 11.0935 118.509 11.2767 118.733 11.2767H119.56C119.784 11.2767 119.967 11.0975 119.967 10.8735L120 4.69965C119.996 4.57748 119.943 4.45938 119.849 4.382Z" fill="#554045"/>
<path d="M166.351 9.96946C165.862 9.96946 165.398 10.1609 165.048 10.507C164.698 10.8573 164.502 11.3134 164.502 11.8021C164.502 12.2908 164.694 12.7469 165.048 13.0971C165.402 13.4433 165.862 13.6347 166.351 13.6347C167.353 13.6347 168.167 12.8121 168.167 11.8021C168.167 10.7921 167.353 9.96946 166.351 9.96946ZM166.351 12.8202C165.789 12.8202 165.317 12.3559 165.317 11.8021C165.317 11.2482 165.789 10.784 166.351 10.784C166.905 10.784 167.353 11.2401 167.353 11.8021C167.353 12.3641 166.905 12.8202 166.351 12.8202ZM166.823 3.86479C166.75 3.79556 166.652 3.75891 166.551 3.75891H164.461C164.237 3.75891 164.054 3.94217 164.054 4.16616V7.5056C164.054 7.72959 164.237 7.91285 164.461 7.91285H167.776C168 7.91285 168.184 7.72959 168.184 7.5056V5.2698C168.184 5.15577 168.135 5.04582 168.049 4.96844L166.823 3.86479ZM167.369 7.09835H164.869V4.56933H166.392L167.369 5.44899V7.09835ZM156.406 9.96946C155.917 9.96946 155.453 10.1609 155.103 10.507C154.753 10.8573 154.557 11.3134 154.557 11.8021C154.557 12.2908 154.749 12.7469 155.103 13.0971C155.457 13.4433 155.917 13.6347 156.406 13.6347C157.408 13.6347 158.222 12.8121 158.222 11.8021C158.222 10.7921 157.408 9.96946 156.406 9.96946ZM156.406 12.8202C155.844 12.8202 155.372 12.3559 155.372 11.8021C155.372 11.2482 155.844 10.784 156.406 10.784C156.96 10.784 157.408 11.2401 157.408 11.8021C157.408 12.3641 156.96 12.8202 156.406 12.8202ZM153.69 10.4704H152.871V9.38709C152.871 9.1631 152.688 8.97984 152.464 8.97984C152.24 8.97984 152.057 9.1631 152.057 9.38709V10.8776C152.057 11.1016 152.24 11.2849 152.464 11.2849H153.69C153.914 11.2849 154.097 11.1016 154.097 10.8776C154.097 10.6536 153.914 10.4704 153.69 10.4704ZM155.754 8.25086C155.754 8.02688 155.571 7.84362 155.347 7.84362H150.407C150.183 7.84362 150 8.02688 150 8.25086C150 8.47485 150.183 8.65811 150.407 8.65811H155.347C155.571 8.65811 155.754 8.47892 155.754 8.25086ZM151.234 6.7807L156.174 6.8092C156.398 6.8092 156.581 6.63001 156.585 6.40603C156.589 6.17797 156.406 5.99471 156.182 5.99471L151.242 5.9662C151.238 5.9662 151.238 5.9662 151.238 5.9662C151.014 5.9662 150.831 6.14539 150.831 6.36937C150.827 6.59743 151.01 6.7807 151.234 6.7807ZM152.065 4.93178H157.005C157.229 4.93178 157.412 4.74852 157.412 4.52454C157.412 4.30055 157.229 4.11729 157.005 4.11729H152.065C151.841 4.11729 151.658 4.30055 151.658 4.52454C151.658 4.74852 151.841 4.93178 152.065 4.93178ZM169.849 4.382L166.933 1.96701C166.86 1.90593 166.771 1.87335 166.673 1.87335H163.244V0.407249C163.244 0.183262 163.06 0 162.836 0H152.464C152.24 0 152.057 0.183262 152.057 0.407249V3.38831C152.057 3.6123 152.24 3.79556 152.464 3.79556C152.688 3.79556 152.871 3.6123 152.871 3.38831V0.814498H162.433V10.4704H159.094C158.87 10.4704 158.687 10.6536 158.687 10.8776C158.687 11.1016 158.87 11.2849 159.094 11.2849H164.066C164.29 11.2849 164.474 11.1016 164.474 10.8776C164.474 10.6536 164.29 10.4704 164.066 10.4704H163.248V2.68784H166.53L169.186 4.88699L169.157 10.4622H168.733C168.509 10.4622 168.326 10.6455 168.326 10.8695C168.326 11.0935 168.509 11.2767 168.733 11.2767H169.56C169.784 11.2767 169.967 11.0975 169.967 10.8735L170 4.69965C169.996 4.57748 169.943 4.45938 169.849 4.382Z" fill="#CA6E55"/>
<path d="M216.351 9.96946C215.862 9.96946 215.398 10.1609 215.048 10.507C214.698 10.8573 214.502 11.3134 214.502 11.8021C214.502 12.2908 214.694 12.7469 215.048 13.0971C215.402 13.4433 215.862 13.6347 216.351 13.6347C217.353 13.6347 218.167 12.8121 218.167 11.8021C218.167 10.7921 217.353 9.96946 216.351 9.96946ZM216.351 12.8202C215.789 12.8202 215.317 12.3559 215.317 11.8021C215.317 11.2482 215.789 10.784 216.351 10.784C216.905 10.784 217.353 11.2401 217.353 11.8021C217.353 12.3641 216.905 12.8202 216.351 12.8202ZM216.823 3.86479C216.75 3.79556 216.652 3.75891 216.551 3.75891H214.461C214.237 3.75891 214.054 3.94217 214.054 4.16616V7.5056C214.054 7.72959 214.237 7.91285 214.461 7.91285H217.776C218 7.91285 218.184 7.72959 218.184 7.5056V5.2698C218.184 5.15577 218.135 5.04582 218.049 4.96844L216.823 3.86479ZM217.369 7.09835H214.869V4.56933H216.392L217.369 5.44899V7.09835ZM206.406 9.96946C205.917 9.96946 205.453 10.1609 205.103 10.507C204.753 10.8573 204.557 11.3134 204.557 11.8021C204.557 12.2908 204.749 12.7469 205.103 13.0971C205.457 13.4433 205.917 13.6347 206.406 13.6347C207.408 13.6347 208.222 12.8121 208.222 11.8021C208.222 10.7921 207.408 9.96946 206.406 9.96946ZM206.406 12.8202C205.844 12.8202 205.372 12.3559 205.372 11.8021C205.372 11.2482 205.844 10.784 206.406 10.784C206.96 10.784 207.408 11.2401 207.408 11.8021C207.408 12.3641 206.96 12.8202 206.406 12.8202ZM203.69 10.4704H202.871V9.38709C202.871 9.1631 202.688 8.97984 202.464 8.97984C202.24 8.97984 202.057 9.1631 202.057 9.38709V10.8776C202.057 11.1016 202.24 11.2849 202.464 11.2849H203.69C203.914 11.2849 204.097 11.1016 204.097 10.8776C204.097 10.6536 203.914 10.4704 203.69 10.4704ZM205.754 8.25086C205.754 8.02688 205.571 7.84362 205.347 7.84362H200.407C200.183 7.84362 200 8.02688 200 8.25086C200 8.47485 200.183 8.65811 200.407 8.65811H205.347C205.571 8.65811 205.754 8.47892 205.754 8.25086ZM201.234 6.7807L206.174 6.8092C206.398 6.8092 206.581 6.63001 206.585 6.40603C206.589 6.17797 206.406 5.99471 206.182 5.99471L201.242 5.9662C201.238 5.9662 201.238 5.9662 201.238 5.9662C201.014 5.9662 200.831 6.14539 200.831 6.36937C200.827 6.59743 201.01 6.7807 201.234 6.7807ZM202.065 4.93178H207.005C207.229 4.93178 207.412 4.74852 207.412 4.52454C207.412 4.30055 207.229 4.11729 207.005 4.11729H202.065C201.841 4.11729 201.658 4.30055 201.658 4.52454C201.658 4.74852 201.841 4.93178 202.065 4.93178ZM219.849 4.382L216.933 1.96701C216.86 1.90593 216.771 1.87335 216.673 1.87335H213.244V0.407249C213.244 0.183262 213.06 0 212.836 0H202.464C202.24 0 202.057 0.183262 202.057 0.407249V3.38831C202.057 3.6123 202.24 3.79556 202.464 3.79556C202.688 3.79556 202.871 3.6123 202.871 3.38831V0.814498H212.433V10.4704H209.094C208.87 10.4704 208.687 10.6536 208.687 10.8776C208.687 11.1016 208.87 11.2849 209.094 11.2849H214.066C214.29 11.2849 214.474 11.1016 214.474 10.8776C214.474 10.6536 214.29 10.4704 214.066 10.4704H213.248V2.68784H216.53L219.186 4.88699L219.157 10.4622H218.733C218.509 10.4622 218.326 10.6455 218.326 10.8695C218.326 11.0935 218.509 11.2767 218.733 11.2767H219.56C219.784 11.2767 219.967 11.0975 219.967 10.8735L220 4.69965C219.996 4.57748 219.943 4.45938 219.849 4.382Z" fill="#554045"/>
</svg>
