<svg width="220" height="14" viewBox="0 0 220 14" fill="none" xmlns="http://www.w3.org/2000/svg">
<path d="M203.649 9.96946C204.138 9.96946 204.602 10.1609 204.952 10.507C205.302 10.8573 205.498 11.3134 205.498 11.8021C205.498 12.2908 205.306 12.7469 204.952 13.0971C204.598 13.4433 204.138 13.6347 203.649 13.6347C202.647 13.6347 201.833 12.8121 201.833 11.8021C201.833 10.7921 202.647 9.96946 203.649 9.96946ZM203.649 12.8202C204.211 12.8202 204.683 12.3559 204.683 11.8021C204.683 11.2482 204.211 10.784 203.649 10.784C203.095 10.784 202.647 11.2401 202.647 11.8021C202.647 12.3641 203.095 12.8202 203.649 12.8202ZM203.177 3.86479C203.25 3.79556 203.348 3.75891 203.449 3.75891H205.539C205.763 3.75891 205.946 3.94217 205.946 4.16616V7.5056C205.946 7.72959 205.763 7.91285 205.539 7.91285H202.224C202 7.91285 201.816 7.72959 201.816 7.5056V5.2698C201.816 5.15577 201.865 5.04582 201.951 4.96844L203.177 3.86479ZM202.631 7.09835H205.131V4.56933H203.608L202.631 5.44899V7.09835ZM213.594 9.96946C214.083 9.96946 214.547 10.1609 214.897 10.507C215.247 10.8573 215.443 11.3134 215.443 11.8021C215.443 12.2908 215.251 12.7469 214.897 13.0971C214.543 13.4433 214.083 13.6347 213.594 13.6347C212.592 13.6347 211.778 12.8121 211.778 11.8021C211.778 10.7921 212.592 9.96946 213.594 9.96946ZM213.594 12.8202C214.156 12.8202 214.628 12.3559 214.628 11.8021C214.628 11.2482 214.156 10.784 213.594 10.784C213.04 10.784 212.592 11.2401 212.592 11.8021C212.592 12.3641 213.04 12.8202 213.594 12.8202ZM216.31 10.4704H217.129V9.38709C217.129 9.1631 217.312 8.97984 217.536 8.97984C217.76 8.97984 217.943 9.1631 217.943 9.38709V10.8776C217.943 11.1016 217.76 11.2849 217.536 11.2849H216.31C216.086 11.2849 215.903 11.1016 215.903 10.8776C215.903 10.6536 216.086 10.4704 216.31 10.4704ZM214.246 8.25086C214.246 8.02688 214.429 7.84362 214.653 7.84362H219.593C219.817 7.84362 220 8.02688 220 8.25086C220 8.47485 219.817 8.65811 219.593 8.65811H214.653C214.429 8.65811 214.246 8.47892 214.246 8.25086ZM218.766 6.7807L213.826 6.8092C213.602 6.8092 213.419 6.63001 213.415 6.40603C213.411 6.17797 213.594 5.99471 213.818 5.99471L218.758 5.9662C218.762 5.9662 218.762 5.9662 218.762 5.9662C218.986 5.9662 219.169 6.14539 219.169 6.36937C219.173 6.59743 218.99 6.7807 218.766 6.7807ZM217.935 4.93178H212.995C212.771 4.93178 212.588 4.74852 212.588 4.52454C212.588 4.30055 212.771 4.11729 212.995 4.11729H217.935C218.159 4.11729 218.342 4.30055 218.342 4.52454C218.342 4.74852 218.159 4.93178 217.935 4.93178ZM200.151 4.382L203.067 1.96701C203.14 1.90593 203.229 1.87335 203.327 1.87335H206.756V0.407249C206.756 0.183262 206.94 0 207.164 0H217.536C217.76 0 217.943 0.183262 217.943 0.407249V3.38831C217.943 3.6123 217.76 3.79556 217.536 3.79556C217.312 3.79556 217.129 3.6123 217.129 3.38831V0.814498H207.567V10.4704H210.906C211.13 10.4704 211.313 10.6536 211.313 10.8776C211.313 11.1016 211.13 11.2849 210.906 11.2849H205.934C205.71 11.2849 205.526 11.1016 205.526 10.8776C205.526 10.6536 205.71 10.4704 205.934 10.4704H206.752V2.68784H203.47L200.814 4.88699L200.843 10.4622H201.267C201.491 10.4622 201.674 10.6455 201.674 10.8695C201.674 11.0935 201.491 11.2767 201.267 11.2767H200.44C200.216 11.2767 200.033 11.0975 200.033 10.8735L200 4.69965C200.004 4.57748 200.057 4.45938 200.151 4.382Z" fill="#554045"/>
<path d="M153.649 9.96946C154.138 9.96946 154.602 10.1609 154.952 10.507C155.302 10.8573 155.498 11.3134 155.498 11.8021C155.498 12.2908 155.306 12.7469 154.952 13.0971C154.598 13.4433 154.138 13.6347 153.649 13.6347C152.647 13.6347 151.833 12.8121 151.833 11.8021C151.833 10.7921 152.647 9.96946 153.649 9.96946ZM153.649 12.8202C154.211 12.8202 154.683 12.3559 154.683 11.8021C154.683 11.2482 154.211 10.784 153.649 10.784C153.095 10.784 152.647 11.2401 152.647 11.8021C152.647 12.3641 153.095 12.8202 153.649 12.8202ZM153.177 3.86479C153.25 3.79556 153.348 3.75891 153.449 3.75891H155.539C155.763 3.75891 155.946 3.94217 155.946 4.16616V7.5056C155.946 7.72959 155.763 7.91285 155.539 7.91285H152.224C152 7.91285 151.816 7.72959 151.816 7.5056V5.2698C151.816 5.15577 151.865 5.04582 151.951 4.96844L153.177 3.86479ZM152.631 7.09835H155.131V4.56933H153.608L152.631 5.44899V7.09835ZM163.594 9.96946C164.083 9.96946 164.547 10.1609 164.897 10.507C165.247 10.8573 165.443 11.3134 165.443 11.8021C165.443 12.2908 165.251 12.7469 164.897 13.0971C164.543 13.4433 164.083 13.6347 163.594 13.6347C162.592 13.6347 161.778 12.8121 161.778 11.8021C161.778 10.7921 162.592 9.96946 163.594 9.96946ZM163.594 12.8202C164.156 12.8202 164.628 12.3559 164.628 11.8021C164.628 11.2482 164.156 10.784 163.594 10.784C163.04 10.784 162.592 11.2401 162.592 11.8021C162.592 12.3641 163.04 12.8202 163.594 12.8202ZM166.31 10.4704H167.129V9.38709C167.129 9.1631 167.312 8.97984 167.536 8.97984C167.76 8.97984 167.943 9.1631 167.943 9.38709V10.8776C167.943 11.1016 167.76 11.2849 167.536 11.2849H166.31C166.086 11.2849 165.903 11.1016 165.903 10.8776C165.903 10.6536 166.086 10.4704 166.31 10.4704ZM164.246 8.25086C164.246 8.02688 164.429 7.84362 164.653 7.84362H169.593C169.817 7.84362 170 8.02688 170 8.25086C170 8.47485 169.817 8.65811 169.593 8.65811H164.653C164.429 8.65811 164.246 8.47892 164.246 8.25086ZM168.766 6.7807L163.826 6.8092C163.602 6.8092 163.419 6.63001 163.415 6.40603C163.411 6.17797 163.594 5.99471 163.818 5.99471L168.758 5.9662C168.762 5.9662 168.762 5.9662 168.762 5.9662C168.986 5.9662 169.169 6.14539 169.169 6.36937C169.173 6.59743 168.99 6.7807 168.766 6.7807ZM167.935 4.93178H162.995C162.771 4.93178 162.588 4.74852 162.588 4.52454C162.588 4.30055 162.771 4.11729 162.995 4.11729H167.935C168.159 4.11729 168.342 4.30055 168.342 4.52454C168.342 4.74852 168.159 4.93178 167.935 4.93178ZM150.151 4.382L153.067 1.96701C153.14 1.90593 153.229 1.87335 153.327 1.87335H156.756V0.407249C156.756 0.183262 156.94 0 157.164 0H167.536C167.76 0 167.943 0.183262 167.943 0.407249V3.38831C167.943 3.6123 167.76 3.79556 167.536 3.79556C167.312 3.79556 167.129 3.6123 167.129 3.38831V0.814498H157.567V10.4704H160.906C161.13 10.4704 161.313 10.6536 161.313 10.8776C161.313 11.1016 161.13 11.2849 160.906 11.2849H155.934C155.71 11.2849 155.526 11.1016 155.526 10.8776C155.526 10.6536 155.71 10.4704 155.934 10.4704H156.752V2.68784H153.47L150.814 4.88699L150.843 10.4622H151.267C151.491 10.4622 151.674 10.6455 151.674 10.8695C151.674 11.0935 151.491 11.2767 151.267 11.2767H150.44C150.216 11.2767 150.033 11.0975 150.033 10.8735L150 4.69965C150.004 4.57748 150.057 4.45938 150.151 4.382Z" fill="#CA6E55"/>
<path d="M103.649 9.96946C104.138 9.96946 104.602 10.1609 104.952 10.507C105.302 10.8573 105.498 11.3134 105.498 11.8021C105.498 12.2908 105.306 12.7469 104.952 13.0971C104.598 13.4433 104.138 13.6347 103.649 13.6347C102.647 13.6347 101.833 12.8121 101.833 11.8021C101.833 10.7921 102.647 9.96946 103.649 9.96946ZM103.649 12.8202C104.211 12.8202 104.683 12.3559 104.683 11.8021C104.683 11.2482 104.211 10.784 103.649 10.784C103.095 10.784 102.647 11.2401 102.647 11.8021C102.647 12.3641 103.095 12.8202 103.649 12.8202ZM103.177 3.86479C103.25 3.79556 103.348 3.75891 103.449 3.75891H105.539C105.763 3.75891 105.946 3.94217 105.946 4.16616V7.5056C105.946 7.72959 105.763 7.91285 105.539 7.91285H102.224C102 7.91285 101.816 7.72959 101.816 7.5056V5.2698C101.816 5.15577 101.865 5.04582 101.951 4.96844L103.177 3.86479ZM102.631 7.09835H105.131V4.56933H103.608L102.631 5.44899V7.09835ZM113.594 9.96946C114.083 9.96946 114.547 10.1609 114.897 10.507C115.247 10.8573 115.443 11.3134 115.443 11.8021C115.443 12.2908 115.251 12.7469 114.897 13.0971C114.543 13.4433 114.083 13.6347 113.594 13.6347C112.592 13.6347 111.778 12.8121 111.778 11.8021C111.778 10.7921 112.592 9.96946 113.594 9.96946ZM113.594 12.8202C114.156 12.8202 114.628 12.3559 114.628 11.8021C114.628 11.2482 114.156 10.784 113.594 10.784C113.04 10.784 112.592 11.2401 112.592 11.8021C112.592 12.3641 113.04 12.8202 113.594 12.8202ZM116.31 10.4704H117.129V9.38709C117.129 9.1631 117.312 8.97984 117.536 8.97984C117.76 8.97984 117.943 9.1631 117.943 9.38709V10.8776C117.943 11.1016 117.76 11.2849 117.536 11.2849H116.31C116.086 11.2849 115.903 11.1016 115.903 10.8776C115.903 10.6536 116.086 10.4704 116.31 10.4704ZM114.246 8.25086C114.246 8.02688 114.429 7.84362 114.653 7.84362H119.593C119.817 7.84362 120 8.02688 120 8.25086C120 8.47485 119.817 8.65811 119.593 8.65811H114.653C114.429 8.65811 114.246 8.47892 114.246 8.25086ZM118.766 6.7807L113.826 6.8092C113.602 6.8092 113.419 6.63001 113.415 6.40603C113.411 6.17797 113.594 5.99471 113.818 5.99471L118.758 5.9662C118.762 5.9662 118.762 5.9662 118.762 5.9662C118.986 5.9662 119.169 6.14539 119.169 6.36937C119.173 6.59743 118.99 6.7807 118.766 6.7807ZM117.935 4.93178H112.995C112.771 4.93178 112.588 4.74852 112.588 4.52454C112.588 4.30055 112.771 4.11729 112.995 4.11729H117.935C118.159 4.11729 118.342 4.30055 118.342 4.52454C118.342 4.74852 118.159 4.93178 117.935 4.93178ZM100.151 4.382L103.067 1.96701C103.14 1.90593 103.229 1.87335 103.327 1.87335H106.756V0.407249C106.756 0.183262 106.94 0 107.164 0H117.536C117.76 0 117.943 0.183262 117.943 0.407249V3.38831C117.943 3.6123 117.76 3.79556 117.536 3.79556C117.312 3.79556 117.129 3.6123 117.129 3.38831V0.814498H107.567V10.4704H110.906C111.13 10.4704 111.313 10.6536 111.313 10.8776C111.313 11.1016 111.13 11.2849 110.906 11.2849H105.934C105.71 11.2849 105.526 11.1016 105.526 10.8776C105.526 10.6536 105.71 10.4704 105.934 10.4704H106.752V2.68784H103.47L100.814 4.88699L100.843 10.4622H101.267C101.491 10.4622 101.674 10.6455 101.674 10.8695C101.674 11.0935 101.491 11.2767 101.267 11.2767H100.44C100.216 11.2767 100.033 11.0975 100.033 10.8735L100 4.69965C100.004 4.57748 100.057 4.45938 100.151 4.382Z" fill="#554045"/>
<path d="M53.649 9.96946C54.1377 9.96946 54.6019 10.1609 54.9521 10.507C55.3024 10.8573 55.4979 11.3134 55.4979 11.8021C55.4979 12.2908 55.3065 12.7469 54.9521 13.0971C54.5978 13.4433 54.1377 13.6347 53.649 13.6347C52.6471 13.6347 51.8326 12.8121 51.8326 11.8021C51.8326 10.7921 52.6471 9.96946 53.649 9.96946ZM53.649 12.8202C54.211 12.8202 54.6834 12.3559 54.6834 11.8021C54.6834 11.2482 54.211 10.784 53.649 10.784C53.0951 10.784 52.6471 11.2401 52.6471 11.8021C52.6471 12.3641 53.0951 12.8202 53.649 12.8202ZM53.1765 3.86479C53.2498 3.79556 53.3476 3.75891 53.4494 3.75891H55.5386C55.7626 3.75891 55.9458 3.94217 55.9458 4.16616V7.5056C55.9458 7.72959 55.7626 7.91285 55.5386 7.91285H52.2236C51.9996 7.91285 51.8163 7.72959 51.8163 7.5056V5.2698C51.8163 5.15577 51.8652 5.04582 51.9507 4.96844L53.1765 3.86479ZM52.6308 7.09835H55.1313V4.56933H53.6082L52.6308 5.44899V7.09835ZM63.594 9.96946C64.0827 9.96946 64.5469 10.1609 64.8972 10.507C65.2474 10.8573 65.4429 11.3134 65.4429 11.8021C65.4429 12.2908 65.2515 12.7469 64.8972 13.0971C64.5429 13.4433 64.0827 13.6347 63.594 13.6347C62.5921 13.6347 61.7776 12.8121 61.7776 11.8021C61.7776 10.7921 62.5921 9.96946 63.594 9.96946ZM63.594 12.8202C64.156 12.8202 64.6284 12.3559 64.6284 11.8021C64.6284 11.2482 64.156 10.784 63.594 10.784C63.0401 10.784 62.5921 11.2401 62.5921 11.8021C62.5921 12.3641 63.0401 12.8202 63.594 12.8202ZM66.3103 10.4704H67.1289V9.38709C67.1289 9.1631 67.3122 8.97984 67.5361 8.97984C67.7601 8.97984 67.9434 9.1631 67.9434 9.38709V10.8776C67.9434 11.1016 67.7601 11.2849 67.5361 11.2849H66.3103C66.0863 11.2849 65.9031 11.1016 65.9031 10.8776C65.9031 10.6536 66.0863 10.4704 66.3103 10.4704ZM64.2456 8.25086C64.2456 8.02688 64.4288 7.84362 64.6528 7.84362H69.5928C69.8167 7.84362 70 8.02688 70 8.25086C70 8.47485 69.8167 8.65811 69.5928 8.65811H64.6528C64.4288 8.65811 64.2456 8.47892 64.2456 8.25086ZM68.766 6.7807L63.8261 6.8092C63.6021 6.8092 63.4189 6.63001 63.4148 6.40603C63.4107 6.17797 63.594 5.99471 63.818 5.99471L68.7579 5.9662C68.762 5.9662 68.762 5.9662 68.762 5.9662C68.9859 5.9662 69.1692 6.14539 69.1692 6.36937C69.1733 6.59743 68.99 6.7807 68.766 6.7807ZM67.9352 4.93178H62.9953C62.7713 4.93178 62.5881 4.74852 62.5881 4.52454C62.5881 4.30055 62.7713 4.11729 62.9953 4.11729H67.9352C68.1592 4.11729 68.3425 4.30055 68.3425 4.52454C68.3425 4.74852 68.1592 4.93178 67.9352 4.93178ZM50.1507 4.382L53.0666 1.96701C53.1399 1.90593 53.2295 1.87335 53.3272 1.87335H56.7563V0.407249C56.7563 0.183262 56.9395 0 57.1635 0H67.5361C67.7601 0 67.9434 0.183262 67.9434 0.407249V3.38831C67.9434 3.6123 67.7601 3.79556 67.5361 3.79556C67.3122 3.79556 67.1289 3.6123 67.1289 3.38831V0.814498H57.5667V10.4704H60.9061C61.1301 10.4704 61.3134 10.6536 61.3134 10.8776C61.3134 11.1016 61.1301 11.2849 60.9061 11.2849H55.9336C55.7096 11.2849 55.5264 11.1016 55.5264 10.8776C55.5264 10.6536 55.7096 10.4704 55.9336 10.4704H56.7522V2.68784H53.4698L50.8145 4.88699L50.843 10.4622H51.2665C51.4905 10.4622 51.6738 10.6455 51.6738 10.8695C51.6738 11.0935 51.4905 11.2767 51.2665 11.2767H50.4398C50.2158 11.2767 50.0326 11.0975 50.0326 10.8735L50 4.69965C50.0041 4.57748 50.057 4.45938 50.1507 4.382Z" fill="#CA6E55"/>
<path d="M3.64895 9.96946C4.13765 9.96946 4.60191 10.1609 4.95215 10.507C5.30238 10.8573 5.49786 11.3134 5.49786 11.8021C5.49786 12.2908 5.30645 12.7469 4.95215 13.0971C4.59784 13.4433 4.13765 13.6347 3.64895 13.6347C2.64712 13.6347 1.83262 12.8121 1.83262 11.8021C1.83262 10.7921 2.64712 9.96946 3.64895 9.96946ZM3.64895 12.8202C4.21095 12.8202 4.68336 12.3559 4.68336 11.8021C4.68336 11.2482 4.21095 10.784 3.64895 10.784C3.09509 10.784 2.64712 11.2401 2.64712 11.8021C2.64712 12.3641 3.09509 12.8202 3.64895 12.8202ZM3.17654 3.86479C3.24985 3.79556 3.34759 3.75891 3.4494 3.75891H5.53859C5.76257 3.75891 5.94584 3.94217 5.94584 4.16616V7.5056C5.94584 7.72959 5.76257 7.91285 5.53859 7.91285H2.22358C1.99959 7.91285 1.81633 7.72959 1.81633 7.5056V5.2698C1.81633 5.15577 1.8652 5.04582 1.95072 4.96844L3.17654 3.86479ZM2.63083 7.09835H5.13134V4.56933H3.60823L2.63083 5.44899V7.09835ZM13.594 9.96946C14.0827 9.96946 14.5469 10.1609 14.8972 10.507C15.2474 10.8573 15.4429 11.3134 15.4429 11.8021C15.4429 12.2908 15.2515 12.7469 14.8972 13.0971C14.5429 13.4433 14.0827 13.6347 13.594 13.6347C12.5921 13.6347 11.7776 12.8121 11.7776 11.8021C11.7776 10.7921 12.5921 9.96946 13.594 9.96946ZM13.594 12.8202C14.156 12.8202 14.6284 12.3559 14.6284 11.8021C14.6284 11.2482 14.156 10.784 13.594 10.784C13.0401 10.784 12.5921 11.2401 12.5921 11.8021C12.5921 12.3641 13.0401 12.8202 13.594 12.8202ZM16.3103 10.4704H17.1289V9.38709C17.1289 9.1631 17.3122 8.97984 17.5361 8.97984C17.7601 8.97984 17.9434 9.1631 17.9434 9.38709V10.8776C17.9434 11.1016 17.7601 11.2849 17.5361 11.2849H16.3103C16.0863 11.2849 15.9031 11.1016 15.9031 10.8776C15.9031 10.6536 16.0863 10.4704 16.3103 10.4704ZM14.2456 8.25086C14.2456 8.02688 14.4288 7.84362 14.6528 7.84362H19.5928C19.8167 7.84362 20 8.02688 20 8.25086C20 8.47485 19.8167 8.65811 19.5928 8.65811H14.6528C14.4288 8.65811 14.2456 8.47892 14.2456 8.25086ZM18.766 6.7807L13.8261 6.8092C13.6021 6.8092 13.4189 6.63001 13.4148 6.40603C13.4107 6.17797 13.594 5.99471 13.818 5.99471L18.7579 5.9662C18.762 5.9662 18.762 5.9662 18.762 5.9662C18.9859 5.9662 19.1692 6.14539 19.1692 6.36937C19.1733 6.59743 18.99 6.7807 18.766 6.7807ZM17.9352 4.93178H12.9953C12.7713 4.93178 12.5881 4.74852 12.5881 4.52454C12.5881 4.30055 12.7713 4.11729 12.9953 4.11729H17.9352C18.1592 4.11729 18.3425 4.30055 18.3425 4.52454C18.3425 4.74852 18.1592 4.93178 17.9352 4.93178ZM0.150682 4.382L3.06659 1.96701C3.13989 1.90593 3.22948 1.87335 3.32722 1.87335H6.75626V0.407249C6.75626 0.183262 6.93952 0 7.16351 0H17.5361C17.7601 0 17.9434 0.183262 17.9434 0.407249V3.38831C17.9434 3.6123 17.7601 3.79556 17.5361 3.79556C17.3122 3.79556 17.1289 3.6123 17.1289 3.38831V0.814498H7.56669V10.4704H10.9061C11.1301 10.4704 11.3134 10.6536 11.3134 10.8776C11.3134 11.1016 11.1301 11.2849 10.9061 11.2849H5.93362C5.70963 11.2849 5.52637 11.1016 5.52637 10.8776C5.52637 10.6536 5.70963 10.4704 5.93362 10.4704H6.75219V2.68784H3.46976L0.814497 4.88699L0.843006 10.4622H1.26654C1.49053 10.4622 1.67379 10.6455 1.67379 10.8695C1.67379 11.0935 1.49053 11.2767 1.26654 11.2767H0.439829C0.215843 11.2767 0.0325813 11.0975 0.0325813 10.8735L0 4.69965C0.00407219 4.57748 0.0570145 4.45938 0.150682 4.382Z" fill="#554045"/>
</svg>
