<svg width="314" height="334" viewBox="0 0 314 334" fill="none" xmlns="http://www.w3.org/2000/svg">
<path fill-rule="evenodd" clip-rule="evenodd" d="M81.915 152.873C86.413 150.463 90.0454 145.892 96.6528 145.493C102.975 145.259 108.619 148.459 113.287 152.602C125.795 163.426 120.498 179.603 120.881 183.562C124.278 186.16 130.288 184.395 138.354 191.136C153.377 203.357 151.876 215.248 145.198 232.984C142.776 239.325 142.749 237.63 139.056 242.426C141.204 248.787 142.486 252.987 139.27 259.598C131.606 275.622 110.847 282.112 97.1987 271.947C93.8018 269.349 92.8922 266.454 89.5555 263.632C80.2971 293.692 38.4164 278.372 37.0189 261.125C35.698 242.692 37.5938 247.298 37.6045 240.07C31.6051 234.605 27.0083 232.892 24.159 224.656C19.2222 209.835 19.1235 205.71 24.6293 190.554C25.6373 187.69 28.0096 184.228 30.2449 182.175C33.3951 179.404 35.7181 178.821 38.6274 176.949C39.3177 176.17 36.819 163.93 56.0713 153.18C59.7749 151.039 64.1361 150.038 68.3164 149.712C75.7786 148.819 76.1786 151.818 81.915 152.873ZM211.575 66.1294C215.404 59.9242 219.322 55.1887 226.143 52.1956C232.394 49.5318 235.796 48.5151 242.672 48.9112C263.87 49.7702 269.607 70.591 270.834 71.4019C276.959 72.8022 280.899 73.3756 285.49 78.7036C288.81 82.4858 292.114 87.2278 294.01 91.8335C296.919 99.8444 291.562 116.246 282.313 119.312L280.998 117.031C286.055 111.637 288.652 108.235 290.191 100.693C292.049 91.0669 282.181 77.5759 271.196 79.9354C265.306 81.2498 261.323 89.8243 257.565 88.5762C259.444 84.2588 263.953 84.5029 264.681 78.1899C265.673 66.4033 253.17 51.9651 242.65 53.4853C236.657 54.2897 226.57 56.8899 221.979 61.4448C210.096 73.4465 225.464 75.395 220.21 82.4237C214.939 80.5294 216.363 69.8229 206.967 71.644C201.138 72.7335 195.243 77.6621 191.999 82.5781C188.246 87.5987 185.091 93.9844 184.198 100.012C182.807 108.799 186.056 110.152 186.856 116.151L183.048 117.783C175.492 110.937 180.341 94.64 184.428 86.5755C187.748 80.4747 191.769 76.2493 197.034 71.875C202.359 67.2758 205.132 66.8134 211.575 66.1294ZM192.296 124.599C196.745 115.185 193.742 109.319 196.049 99.8131C198.054 91.4317 203.899 79.4996 213.46 77.9636C216.66 82.1956 217.547 89.6648 224.664 89.1613C228.773 86.4056 229.513 82.7471 227.842 78.2015C226.006 73.3709 224.105 72.3794 227.858 67.3589C231.896 62.1736 243.018 58.4045 248.683 57.0299C254.94 60.6348 260.473 66.9385 261.931 74.0783C264.238 84.3382 253.844 81.7943 254.009 91.9623C256.716 95.339 257.581 97.4993 261.745 98.133C267.038 95.4533 272.598 83.6859 280.313 84.5477C293.544 92.6729 287.82 114.038 274.528 116.021C273.125 122.153 278.303 126.192 283.798 128.146C287.332 129.334 295.238 122.293 297.205 119.445C302.01 112.296 304.727 98.5618 301.204 90.1454C294.979 74.738 281.989 75.5961 275.978 67.4774C261.969 48.7787 240.754 38.9966 219.431 52.0845C217.152 53.4022 214.873 54.7198 213.087 56.8927C210.671 59.62 209.663 62.4834 206.036 63.4399C178.159 70.4332 163.16 122.818 192.296 124.599ZM123.206 232.394C136.728 236.74 139.483 237.238 143.417 221.659C144.562 217.386 144.315 212.017 142.688 208.207C140.134 202.461 137.888 201.859 132.064 199.334C126.185 203.303 126.974 206.648 117.085 207.614C114.148 207.791 116.86 207.553 114.253 208.301C110.85 209.318 97.4874 208.871 91.2304 205.266C86.6501 202.592 82.7325 197.445 79.6041 195.642C76.9249 193.96 74.8704 195.338 68.4819 189.528C66.3725 187.517 60.5976 182.113 58.7129 180.162C55.946 177.01 55.787 173.11 53.5734 170.589C42.3202 182.036 64.1807 180.422 59.8363 190.345C55.207 200.434 45.8159 188.758 45.2023 188.353C39.099 192.261 36.1023 202.546 34.9081 209.699C34.4699 212.233 36.4698 217.349 36.6452 220.288C37.2973 225.043 39.0616 227.444 42.6831 230.101C45.28 226.699 44.4856 226.969 48.5618 226.133C52.7532 228.461 56.1776 232.753 54.6272 237.641C53.1974 242.078 48.8198 244.039 47.4777 249.946C45.4562 259.288 44.2018 266.665 53.4667 272.522C58.825 275.886 71.9633 276.273 76.6585 272.228C79.7485 269.681 83.8904 265.006 84.0163 260.942C84.1258 257.838 79.5344 252.51 84.542 249.995C89.8181 248.275 96.2778 256.514 98.4585 260.955C100.743 265.906 105.138 272.869 111.055 273.249C116.238 273.674 122.429 271.235 126.105 267.399C136.219 256.61 132.997 256.952 135.073 251.001C129.792 246.452 125.967 249.043 122.543 244.751C120.527 240.595 120.549 236.021 123.206 232.394ZM56.5593 167.532C57.5074 174.777 62.0221 181.289 68.279 184.894C69.7309 185.765 71.4678 186.472 73.0402 186.893C81.6804 189.69 75.1111 184.556 83.8283 196.051C91.9318 207.141 111.645 209.048 120.964 198.529C116.592 196.875 113.02 201.221 106.702 197.841C100.013 203.039 94.8902 202.39 89.1756 196.761C78.0752 186.073 88.2932 185.677 81.4555 179.747C75.4124 183.431 72.9525 185.423 66.4599 179.104C61.4631 174.39 61.6218 168.407 59.2439 165.6L56.5593 167.532ZM103.963 196.384C102.845 192.469 99.4319 190.831 101.925 186.919C104.417 183.007 107.245 185.934 111.069 183.343C121.851 176.35 113.533 157.971 110.345 156.393C108.833 155.747 102.587 154.797 100.938 155.56C93.4262 159.332 95.9138 168.918 89.9146 173.336C82.8579 173.615 83.5864 167.302 81.2852 163.311C78.6552 158.749 75.724 155.312 70.2671 157.707C61.7969 161.463 68.9801 176.887 74.848 180.146C77.8011 179.009 77.8778 177.824 79.9487 175.487C93.7555 179.668 89.0602 183.713 90.5288 193.508C95.3613 197.936 99.0267 201.329 103.963 196.384ZM85.7725 168.129C84.0685 165.503 83.5095 158.604 76.2225 152.553C69.8232 153.972 61.0625 151.625 50.9817 160.494C46.9165 163.984 44.347 169.081 45.1635 174.121C46.2759 181.65 55.8639 181.809 50.8235 186.243C46.7965 184.2 46.1169 177.751 32.9461 189.166C27.966 193.376 25.572 201.412 25.353 207.621C25.1942 213.604 27.1175 219.904 29.9557 225.486C38.0374 241.15 45.828 230.944 46.9073 230.51C49.1647 233.766 43.3024 236.776 41.7959 242.398C32.7732 275.173 65.1533 281.921 77.4037 274.838C80.5376 273.026 85.3862 266.612 86.7996 263.134C88.9801 257.692 83.0519 254.658 87.3856 251.962C95.078 257.398 105.363 292.695 132.822 263.896C135.463 261.229 136.668 256.731 137.796 253.418C141.198 242.518 123.732 241.212 125.014 235.53C128.624 235.533 139.204 243.671 143.707 227.763C146.583 217.928 147.635 215.799 144.024 205.913C141.055 198.127 133.258 192.182 125.637 189.175C110.784 183.508 109.792 195.295 103.913 189.381C107.562 183.85 113.649 190.784 118.525 176.182C120.782 169.555 116.026 154.059 106.548 150.796C103.912 149.849 99.239 149.32 96.7954 150.352C84.249 154.945 89.5418 162.148 85.7725 168.129ZM132.856 120.002C128.632 119.593 127.838 119.862 124.682 116.365C121.69 113.153 123.52 111.715 124.588 108.627C126.604 102.9 119.169 95.6044 114.063 93.9952C107.834 92.0849 102.881 97.9892 98.5309 101.644C88.735 110.349 102.235 109.386 93.9675 117.777C87.9572 119.541 89.3871 115.103 81.2346 116.776C73.0821 118.448 68.3979 125.147 69.3185 130.697C69.7788 133.472 72.4744 134.194 74.6441 135.98C79.7615 140.244 81.1203 143.26 75.8552 147.634C83.1751 151.765 82.2052 149.095 89.1468 145.652C94.0942 143.362 97.4965 142.345 102.888 143.789C106.706 144.813 114.519 149.799 117.347 152.726C120.009 155.367 120.037 157.062 121.576 159.403C122.952 161.459 121.757 158.728 126.108 164.956C129.576 169.983 126.979 173.385 136.238 172.973C141.602 172.723 146.221 169.863 149.404 165.172C156.822 153.661 130.687 147.864 140.155 138.589C143.946 137.918 148.017 140.696 151.813 136.41C154.635 133.069 154.673 127.535 153.046 123.724C150.432 118.203 151.155 115.504 144.564 114.943C138.932 114.398 136.938 115.551 132.856 120.002ZM80.4289 104.507C76.1719 106.018 78.4236 103.006 70.1452 108.742C66.3211 111.333 62.7215 113.984 61.0671 118.362C58.4648 125.378 58.1966 134.466 62.8319 140.529C61.2704 142.762 58.2079 147.003 58.2792 149.433L63.9004 147.323C63.6317 136.645 69.8229 144.089 71.7349 137.852C67.7407 133.89 64.6946 137.171 62.6836 129.401C60.1357 120.041 69.5262 111.951 76.7801 110.038C85.6229 107.586 82.5768 110.868 88.598 111.758C89.8635 107.035 81.2672 104.973 91.5288 95.4295C96.3445 90.9348 101.275 89.6045 107.373 89.3101C113.471 89.0157 119.142 93.9098 123.24 98.3825C132.933 108.934 121.334 110.888 126.873 113.578C129.437 112.095 129.185 110.34 132.829 108.424C139.261 105.086 150.218 110.914 154.114 120.636C156.443 126.322 157.457 129.727 155.095 135.843C151.786 144.598 144.138 139.898 140.944 141.934C140.248 146.328 142.198 144.44 149.496 153.145C152.039 156.236 154.444 160.737 152.85 164.89C149.541 173.645 138.523 177.924 130.228 174.737L130.699 180.167C145.717 186.119 158.416 169.274 156.997 156.601C156.405 151.621 153.715 147.285 153.54 144.345C157.939 137.811 158.673 137.766 159.599 129.819C161.779 114.494 150.169 103.911 138.083 101.395C134.428 100.657 132.823 102.155 130.385 99.5737C125.284 94.3502 124.928 92.0854 117.263 88.3443C105.061 82.6644 90.7341 85.8158 83.1517 97.0415C81.0041 100.564 81.4808 102.379 80.4289 104.507ZM35.3345 174.862C29.0668 178.485 24.4154 183.265 22.0378 190.341C20.3066 195.903 16.762 201.944 17.2772 208.108C18.1321 217.497 20.0226 225.717 25.929 233.326C28.8 236.987 31.375 238.159 34.0817 241.536C34.1366 244.925 32.9478 248.464 33.0026 251.853C33.1178 255.017 33.6658 259.262 34.0056 262.487C35.14 275.325 59.9759 287.765 72.5169 286.786C78.1656 286.371 78.0615 285.861 82.9486 283.796C90.7887 280.594 87.5671 280.936 92.7883 275.827C107.127 285.213 129.431 287.333 141.336 270.757C143.528 267.97 145.823 265.692 146.787 262.094C149.636 250.564 146.25 250.621 148.535 245.689C154.742 232.407 153.602 233.066 155.569 220.336C156.599 212.898 156.347 211.143 152.626 204.361C151.865 202.711 151.372 201.856 150.835 200.266C149.744 198.045 142.457 191.995 140.408 189.759C148.221 184.862 150.944 187.279 159.403 170.985C167.051 155.92 161.473 148.881 161.73 147.022C166.595 139.648 168.168 130.186 164.36 121.935C152.875 97.4046 135.612 100.733 131.946 97.3406C127.338 92.9724 124.796 89.8808 118.808 87.0709C107.055 81.5115 90.8436 82.7116 82.4065 94.4314C81.2505 96.05 79.3275 99.6325 78.5769 100.637C77.8866 101.416 74.1994 102.597 72.7147 103.646C58.9192 112.001 52.5969 122.118 58.131 138.305C59.1008 140.975 58.5748 142.04 57.1778 144.558C56.3067 146.012 55.3315 146.956 54.5207 148.185C53.2442 150.253 54.0386 149.984 53.1675 151.438C52.8223 151.827 48.5325 155.258 47.6175 155.977C39.9967 162.853 37.9093 166.151 35.3345 174.862Z" fill="#A1817F"/>
</svg>
