<svg width="296" height="282" viewBox="0 0 296 282" fill="none" xmlns="http://www.w3.org/2000/svg">
<path fill-rule="evenodd" clip-rule="evenodd" d="M173.278 186.977C182.439 195.176 190.798 204.205 199.488 212.941L208.28 222.059C202.072 221.058 202.021 220.867 197.963 216.423C195.27 213.251 191.532 210.77 188.839 207.598C185.993 203.854 173.766 190.329 173.278 186.977ZM159.371 145.013C161.467 149.778 177.586 157.957 183.16 161.176C193.579 167.194 215.404 192.08 227.128 201.437C231.019 204.492 234.528 207.65 238.418 210.705C240.459 212.207 242.258 213.569 244.299 215.071C247.654 217.655 249.159 218.686 251.159 217.74C250.558 216.262 234.128 203.864 228.806 198.528C221.533 191.257 215.457 183.87 207.47 176.995C203.426 173.366 182.923 155.708 179.046 153.468L166.497 146.381C164.507 145.071 161.445 142.818 159.371 145.013ZM104.063 226.012C104.926 223.117 112.152 213.395 114.264 210.575L126.786 196.156C126.701 199.662 118.976 208.288 117.018 211.681C116.319 212.893 115.391 214.781 114.831 215.75C113.661 217.498 112.603 217.372 111.726 219.451C110.113 223.366 108.062 224.12 104.063 226.012ZM173.167 180.45C173.11 185.587 184.298 194.473 188.394 198.293C195.118 204.277 201.016 212.531 210.891 220.335C214.539 223.25 212.246 223.865 217.764 223.82C216.348 222.356 215.914 222.267 214.791 221.134C213.962 220.331 213.03 219.147 212.149 218.153C210.491 216.549 208.193 214.091 206.726 212.436C200.906 206.004 177.273 182.013 173.167 180.45ZM175.309 170.861C175.784 173.397 179.954 175.968 182.047 177.661L202.987 198.481C207.618 202.772 212.455 207.827 217.086 212.118C220.94 215.798 228.353 222.827 233.704 221.393C231.878 218.399 222.083 212.419 218.714 209.019C214.273 204.676 209.054 199.723 204.474 195.623C199.6 191.192 180.608 169.236 175.309 170.861ZM81.6984 237.331C87.1516 236.28 92.9929 229.797 96.0328 225.09C99.2125 220.14 102.788 215.904 106.644 211.183C109.417 207.776 106.196 210.278 112.331 204.127C114.597 201.88 116.047 199.648 118.261 197.211C121.991 193.548 127.603 187.741 127.036 182.566C124.569 187.12 118.407 191.64 114.971 195.634C104.804 207.373 91.3577 226.752 82.6264 235.443C80.5519 237.638 81.9644 236.031 81.6984 237.331ZM70.9083 240.632C76.0817 240.066 77.4293 237.451 80.7765 233.89C90.7805 223.834 93.6667 218.553 101.709 208.817C106.175 203.318 110.385 196.862 115.629 191.974C118.557 189.141 120.58 186.755 123.214 183.59C127.312 179.009 127.237 180.258 127.714 174.394C123.626 176.718 123.043 179.129 120.46 182.484C119.238 184.041 117.481 185.126 116.399 186.441C115.318 187.755 114.912 189.298 113.691 190.854L102.53 203.475C97.8117 211.091 97.8354 209.65 91.7005 215.801L81.1133 228.268C79.3698 230.169 79.2949 231.419 77.8312 232.835C74.5727 235.962 73.8221 236.983 70.9083 240.632ZM190.539 152.028C200.224 151.481 214.508 158.923 221.023 161.07C222.565 161.477 229.91 164.426 230.93 165.177C225.057 166.956 221.777 163.122 210.481 159.183C203.723 156.896 195.796 156.356 190.539 152.028ZM58.9814 241.984C64.6395 241.697 68.7787 239.564 72.3543 235.327C74.0466 233.235 75.995 232.098 77.3564 230.299C78.7689 228.691 79.8879 226.752 81.3005 225.144C84.3167 221.878 86.797 218.14 89.8132 214.873C92.8294 211.606 95.8968 208.53 98.8618 205.072C104.652 198.399 110.339 191.343 115.696 184.58C117.999 181.709 121.752 176.606 124.209 174.308C127.938 170.646 129.91 168.068 130.541 162.777C128.797 164.679 127.818 166.375 126.214 168.034L112.546 182.761C107.049 189.765 102.573 197.521 97.1655 204.093C90.5362 212.22 82.0097 221.676 74.6022 229.193L58.9814 241.984ZM176.928 141.742C180.904 141.292 192.988 143.586 197.234 144.907L217.274 149.372C223.915 150.461 250.842 159.227 254.262 162.818C243.966 164.143 242.778 162.002 234.045 159.22C228.014 157.353 221.625 154.148 215.595 152.28C201.749 148 199.442 147.798 186.58 144.893C180.218 143.319 182.567 145.968 176.928 141.742ZM137.59 253.294L139.889 247.35C140.243 245.616 141.004 242.339 140.976 240.707C141.173 235.327 141.5 231.962 140.83 226.404C138.151 204.174 140.235 179.849 146.542 158.285C149.359 148.925 144.577 147.132 149.546 145.801C152.011 149.648 154.69 171.878 154.926 177.347C155.458 194.62 153.114 214.917 149.223 231.736C147.879 237.423 147.604 240.98 145.352 244.043C143.99 245.842 143.305 247.869 142.326 249.566C140.368 252.959 141.36 252.078 140.115 255.075C138.675 255.052 138.382 254.72 137.273 254.403L136.843 257.386C145.746 253.157 157.285 237.362 160.624 227.657C162.909 220.898 164.873 212.176 165.858 205.151C167.17 194.76 167.038 181.272 164.743 170.414C162.872 161.9 150.218 142.958 147.655 141.8C145.631 144.186 147.314 144.35 144.055 147.477C141.128 150.311 134.211 172.653 132.905 177.715C130.292 187.84 131.482 181.58 130.296 190.912C125.838 222.431 140.058 240.339 137.59 253.294ZM173.699 138.1C175.372 140.52 182.801 139.964 185.975 140.343L221.375 147.863C232.835 150.119 243.572 155.028 254.207 159.555C258.555 161.258 260.19 164.303 265.615 161.62C260.862 161.46 249.179 154.55 244.817 152.031C239.002 148.672 229.975 145.559 223.129 143.705C221.153 143.21 219.228 142.906 217.009 142.271C210.406 140.558 179.46 138.196 173.699 138.1ZM151.948 140.24C156.69 151.058 183.536 166.402 196.117 178.193C198.069 180.129 200.073 182.256 202.114 183.758C204.691 185.731 206.018 187.629 208.595 189.602C216.084 195.381 220.449 200.973 226.777 206.243C234.662 212.736 245.812 222.246 256.462 219.188C254.51 217.252 251.947 216.095 249.995 214.16C248.042 212.224 246.318 209.613 244.226 207.919C240.233 204.482 236.137 200.662 231.901 197.084C229.516 195.06 227.945 193.022 225.7 190.756C223.556 188.871 221.706 187.318 219.512 185.242C213.132 179.781 198.759 161.299 192.892 157.749C191.68 157.049 191.004 156.82 189.551 155.981C188.53 155.23 187.356 153.905 186.144 153.205C184.933 152.506 177.588 149.556 175.063 147.774C171.95 145.33 171.097 145.968 167.755 144.2C161.902 141.466 159.134 139.544 151.948 140.24ZM63.1028 235.962C66.4914 234.849 82.1318 217.546 85.8612 213.883C87.6559 212.173 88.6725 209.851 90.7982 207.848C99.11 199.883 107.335 183.952 114.132 177.213C121.642 170.079 140.578 149.024 141.536 140.367C135.304 140.807 128.435 140.394 122.487 143.422C112.782 148.481 101.484 152.942 93.9129 162.142C85.4888 171.98 80.3548 183.396 75.9477 195.231C74.9824 197.743 74.6928 200.484 73.6762 202.806C72.5198 205.369 71.8854 207.588 70.9201 210.101L61.7198 230.801C63.948 229.179 68.6427 223.004 70.4236 220.478C72.7641 216.982 73.9442 212.978 75.6975 208.82C77.6794 203.987 80.9951 195.722 84.2772 191.155C87.8391 186.103 87.3269 184.191 95.816 175.36C97.7506 173.407 98.6036 172.769 100.245 170.485C103.718 165.866 111.433 159.497 116.439 157.541C119.063 156.633 131.242 153.164 133.447 152.983C134.42 156.616 128.584 157.769 122.319 161.907L111.295 171.212C104.563 178.958 89.7048 199.945 84.4033 209.971C83.1957 212.343 81.9979 212.459 80.6503 215.074C78.6034 218.901 77.8627 217.665 75.8394 220.051L63.1028 235.962ZM152.592 135.765C157.095 129.641 180.382 121.762 188.128 120.096C205.15 116.355 209.129 118.977 221.828 123.565C225.692 124.988 225.743 125.179 229.135 127.139C231.316 128.398 233.292 128.893 236.009 130.624C248.572 138.527 249.193 135.492 261.457 148.392C264.047 151.181 272.044 155.8 272.099 159.063C270.724 160.046 271.246 159.702 268.836 159.118C265.509 158.165 263.687 158.244 259.39 156.732C255.284 155.168 251.649 153.069 248.155 150.727C236.752 143.333 212.378 137.98 197.925 137.55C193.363 137.339 188.366 137.038 183.892 136.393C180.719 136.014 172.856 136.482 170.904 134.546C176.115 133.355 180.155 133.911 185.138 133.396C191.7 132.662 192.464 132.457 199.283 132.679C210.473 133.164 213.721 132.293 224.864 135.659C232.628 137.882 255.519 149.164 261.758 154.868C262.536 155.479 263.366 156.281 264.284 156.65C267.229 157.705 267.532 155.779 267.532 155.779C266.153 153.69 258.488 148.778 255.911 146.805C249.685 141.916 226.245 129.347 218.519 126.5C210.116 123.425 194.862 123.824 185.829 126.04C178.516 127.794 174.568 129.876 167.893 132.484C164.938 133.686 161.433 133.601 159.294 134.789C157.154 135.977 159.601 135.936 156.199 136.233C155.001 136.349 153.701 136.082 152.592 135.765ZM88.1878 130.074C116.447 123.937 121.522 126.06 145.432 138.093C139.201 138.533 132.229 137.738 126.165 139.568C118.432 142.049 100.603 151.949 94.7994 157.807C86.4502 166.396 89.4979 167.833 83.9797 167.877C75.1478 167.785 61.834 160.903 54.8304 155.404C40.7718 144.214 44.5564 143.814 38.4294 136.236C36.9105 134.389 34.6646 132.122 33.6677 129.931C41.7352 130.228 50.3523 131.812 58.8532 132.198C67.5965 132.723 75.8551 132.969 84.5471 133.304C96.7439 133.724 112.11 131.45 123.878 134.853C129.857 136.53 133.198 138.298 135.184 136.536C132.473 129.477 108.336 129.593 100.804 129.767C96.9684 129.975 92.0885 130.873 88.1878 130.074ZM148.104 134.304C150.83 133.778 160.955 127.992 163.947 126.166C168.035 123.841 178.061 120.745 182.978 119.222C189.667 117.43 195.884 116.174 202.6 116.014C209.125 115.904 212.569 118.055 218.548 119.731C222.794 121.052 221.633 120.544 225.772 118.41C228.434 116.877 231.007 115.778 233.184 113.965C237.016 110.685 241.216 106.486 243.594 102.366C248.592 94.2653 252.831 81.0409 251.608 71.1242C248.07 74.7358 252.963 74.6539 242.853 81.2559C237.772 84.4613 232.739 84.7856 227.08 85.0723C211.738 85.9053 211.669 81.8259 196.119 90.2952C187.561 95.047 181.006 101.925 173.674 108.193C169.371 112.009 158.941 128.122 152.86 126.063C152.996 122.749 155.419 124.148 157.913 121.226L171.591 104.243C176.477 98.0169 187.898 89.4247 194.391 84.6115C203.914 77.3472 215.104 77.832 226.499 79.0814C234.478 79.8119 244.606 77.0981 247.642 69.3184C248.099 67.9666 249.177 63.58 249.061 62.3818C247.508 64.232 245.318 65.2288 243.28 66.7991C239.015 69.9909 244.874 67.3965 236.111 71.3836C231.539 73.4284 224.311 71.6772 218.564 72.3975C202.573 74.6334 183.075 85.1849 173.112 97.6891C169.919 101.823 166.954 105.281 163.518 109.275C158.581 115.31 148.068 126.528 148.104 134.304ZM145.429 135.021C146.329 131.501 147.062 126.592 147.911 122.882C150.216 111.61 134.351 92.9134 129.869 86.1236C127.851 83.1811 127.623 83.857 125.619 81.7303C123.667 79.7947 108.105 59.1728 106.368 55.7455C104.541 52.7518 100.455 46.6755 97.65 45.3783C103.082 57.2407 117.834 72.5475 123.568 82.4847C129.406 92.8041 127.804 86.0622 135.243 103.124C136.841 106.793 138.452 111.279 139.91 115.191C141.214 118.529 144.918 124.708 143.342 127.999C139.571 129.214 138.427 121.12 137.085 118.407C135.296 114.788 133.214 110.838 131.285 107.462L106.253 66.0206C103.099 61.1289 97.0294 48.413 93.0498 45.7913C94.3304 50.5704 96.2867 55.5783 97.6697 60.7397C104.329 85.5911 102.881 99.2969 119.719 121.626C125.412 129.115 123.023 124.019 134.883 130.061C136.961 130.938 143.746 134.857 145.429 135.021ZM117.938 124.152C104.226 124.957 113.692 122.831 95.3707 126.306C88.5286 127.524 79.0998 129.026 72.1927 129.238C63.6543 129.477 68.7391 129.344 61.8182 128.74L40.8782 127.794C37.5645 127.657 33.5475 125.66 30.6811 126.428C28.2382 129.542 30.8663 131.706 33.4057 134.304C40.0922 140.913 41.3058 153.086 66.7592 165.525C70.725 167.331 81.3319 170.226 85.6385 169.482C85.0042 171.7 81.7732 176.459 80.5656 178.831C78.8871 181.74 77.9355 185.068 76.5506 188.308C73.095 196.815 68.9953 209.797 65.6659 217.245C64.2809 220.485 62.7423 223.151 61.1662 226.442C55.2954 239.693 49.7871 237.481 48.9655 242.824C59.7163 248.548 84.033 239.164 94.3621 234.143C110.69 226.285 115.487 220.492 127.109 209.592C128.133 213.415 128.458 218.45 129.343 222.516C130.139 227.015 132.006 232.457 133.045 237.096C137.976 256.263 132.915 254.956 134.083 261.609C143.409 259.725 157.265 241.875 160.809 232.935C164.862 222.834 168.248 210.247 168.591 199.296C168.577 198.481 168.652 197.231 168.689 196.606L169.501 193.521C173.619 204.301 186.032 214.702 196.107 220.198C198.046 221.318 199.397 221.775 201.336 222.895C204.383 224.332 204.854 223.796 207.748 224.66C212.861 226.158 215.461 226.691 220.928 226.455C222.126 226.339 223.566 226.363 224.713 226.056C227.057 225.633 226.712 225.111 227.859 224.803C230.534 224.086 228.637 225.414 230.93 224.8C232.459 224.39 231.49 223.83 234.216 223.305C240.052 222.151 251.638 223.349 258.316 223.813C261.005 223.912 261.285 223.428 262.278 222.547C262.428 220.048 257.861 216.764 255.82 215.262C251.892 212.832 251.011 211.838 248.025 208.336L232.867 194.572C227.075 189.772 216.484 179.292 210.957 173.192C209.834 172.059 204.83 165.614 204.155 165.385C206.182 166.071 208.414 167.522 210.875 168.297C213.284 168.881 217.12 168.673 219.515 168.44C222.536 168.246 225.938 167.949 228.907 167.563C232.258 167.075 235.977 165.669 238.807 165.525C242.018 165.279 244.796 164.945 248.007 164.699C250.976 164.313 253.819 164.986 256.648 164.843C262.306 164.556 269.697 164.624 273.553 159.903C273.647 154.141 267.45 150.884 263.647 147.395C259.258 143.244 250.442 135.567 244.882 133.164L224.63 121.79C226.462 119.455 230.335 118.622 232.894 116.707C235.453 114.792 237.094 112.508 239.271 110.695C246.884 103.943 252.294 88.9708 253.899 78.9107C254.595 74.6266 254.528 62.1463 252.739 58.5278C249.5 57.1419 248.889 57.9202 246.726 60.5487C244.983 62.4501 242.843 63.638 241.1 65.5394C236.568 70.0318 231.726 70.3049 225.863 69.827C217.26 69.0589 208.063 72.9573 200 75.7326C196.28 77.139 195.287 78.0197 192.052 79.706C179.966 85.813 169.201 99.1468 159.924 109.623C158.232 111.716 156.424 112.61 155.025 115.034C154.046 116.73 152.367 119.639 150.61 120.724C149.227 115.563 148.571 110.821 146.041 105.967L143.409 100.731C141.224 96.3987 135.507 90.3497 132.111 85.318C130.042 82.1843 122.233 74.4421 120.318 71.8819C118.99 69.9839 118.389 68.5058 116.628 66.519L105.814 51.3863C100.857 42.0602 96.9703 42.0773 95.3627 40.664C94.2398 39.5307 95.2977 39.657 93.3591 38.5373C86.8382 41.7188 91.2177 48.1263 94.4171 58.5379C99.7028 75.9714 99.0902 85.1507 107.26 105.704C110.213 112.904 114.999 117.768 117.938 124.152Z" fill="#A1817F"/>
</svg>
