<?xml version="1.0" encoding="UTF-8"?> <svg xmlns="http://www.w3.org/2000/svg" width="158.657" height="21.469" viewBox="0 0 158.657 21.469"><defs><style> .cls-1 { fill: #4e2c0c; fill-rule: evenodd; } </style></defs><path id="ДОСТАВКА" class="cls-1" d="M518.072,166.545H515.9V151.85H505.146l-0.445,7.57a18.186,18.186,0,0,1-.785,4.26,6.844,6.844,0,0,1-1.629,2.865h-1.371l0.094,6.563h2.859v-4.2h11.238v4.2h2.813Zm-10.383-7.5,0.281-4.8h4.981v12.3h-7.313a15.715,15.715,0,0,0,2.051-7.5h0Zm30.525,0.832a10.374,10.374,0,0,0-.89-4.377,6.569,6.569,0,0,0-2.491-2.883,7.284,7.284,0,0,0-7.394.012,6.643,6.643,0,0,0-2.5,2.924,10.374,10.374,0,0,0-.885,4.406v0.961a10.14,10.14,0,0,0,.9,4.324,6.661,6.661,0,0,0,2.508,2.889,7.268,7.268,0,0,0,7.406,0,6.557,6.557,0,0,0,2.479-2.906,10.474,10.474,0,0,0,.867-4.4v-0.949Zm-2.965.949a7.562,7.562,0,0,1-1.06,4.383,3.488,3.488,0,0,1-3.03,1.5,3.528,3.528,0,0,1-3.041-1.535,7.406,7.406,0,0,1-1.1-4.348v-0.984a7.308,7.308,0,0,1,1.107-4.26,3.783,3.783,0,0,1,6.047.006,7.458,7.458,0,0,1,1.072,4.348v0.89Zm20.655,2.532a4.092,4.092,0,0,1-1.113,2.613,3.835,3.835,0,0,1-2.625.785,3.287,3.287,0,0,1-2.9-1.454,7.5,7.5,0,0,1-.99-4.223v-1.513a7.066,7.066,0,0,1,1.061-4.147,3.461,3.461,0,0,1,2.97-1.413,3.548,3.548,0,0,1,2.526.814,4.222,4.222,0,0,1,1.072,2.655h2.953a6.385,6.385,0,0,0-2-4.33,6.592,6.592,0,0,0-4.547-1.53,6.859,6.859,0,0,0-3.7,1,6.456,6.456,0,0,0-2.455,2.836,10,10,0,0,0-.855,4.254v1.594a9.922,9.922,0,0,0,.878,4.137,6.357,6.357,0,0,0,2.4,2.748,6.657,6.657,0,0,0,3.592.967,6.871,6.871,0,0,0,4.676-1.53,6.162,6.162,0,0,0,2.015-4.259H555.9Zm22.643-11.508H565.012v2.39h5.274v14.672h2.941V154.24h5.32v-2.39Zm16,17.062h3.093l-6.457-17.062h-2.66l-6.445,17.062h3.082l1.383-3.972h6.609Zm-4.7-13.441,2.473,7.078h-4.945Zm20.865,13.441a6.7,6.7,0,0,0,4.412-1.289,4.543,4.543,0,0,0,1.541-3.691,4.11,4.11,0,0,0-.756-2.49,3.77,3.77,0,0,0-2.139-1.413,4.067,4.067,0,0,0,1.852-1.453,3.683,3.683,0,0,0,.633-2.109,4.085,4.085,0,0,0-1.512-3.457,7.137,7.137,0,0,0-4.406-1.16h-5.848v17.062h6.223Zm0.281-7.7a2.727,2.727,0,0,1,1.934,4.641,3.189,3.189,0,0,1-2.18.691h-3.293v-5.332H611Zm-3.539-6.973h2.883a3.641,3.641,0,0,1,2.244.563,2.178,2.178,0,0,1,.721,1.828,2.145,2.145,0,0,1-.78,1.775,3.359,3.359,0,0,1-2.162.627h-2.906V154.24Zm27.025,14.672h3.563l-6.375-8.894,5.859-8.168H633.9l-5.015,7.172h-1.629V151.85H624.3v17.062h2.953V161.6h2.015Zm22,0h3.093l-6.457-17.062h-2.66l-6.445,17.062h3.082l1.383-3.972h6.609Zm-4.7-13.441,2.473,7.078h-4.945Z" transform="translate(-500.906 -151.625)"></path></svg> 