<?xml version="1.0" encoding="UTF-8"?> <svg xmlns="http://www.w3.org/2000/svg" width="266.844" height="30.719" viewBox="0 0 266.844 30.719"><defs><style> .cls-1 { fill: #120e0a; fill-rule: evenodd; } </style></defs><path id="качественно_" data-name="качественно," class="cls-1" d="M466.784,295.528h2.69l-11.285-13.016L468.7,269.934h-2.724l-9.9,11.742h-3.41V269.934h-2.162v25.594h2.162V283.5h3.516Zm26.23,0h2.25l-9.686-25.594h-2.056l-9.686,25.594H476.1l2.637-7.19H490.36Zm-8.473-22.957,5.133,13.939H479.409Zm28.587-2.637v12.111a25.58,25.58,0,0,1-6.926,1q-3.322,0-4.843-1.415a5.972,5.972,0,0,1-1.538-4.526v-7.172h-2.18v7.286q0.052,3.9,2.127,5.777t6.434,1.878a25.873,25.873,0,0,0,6.926-1v11.654h2.179V269.934h-2.179Zm24.1,11.5H525.262v-9.668h13.676v-1.828H523.1v25.594h15.926V293.7H525.262V283.258h11.971V281.43Zm23.243,6.117a7.8,7.8,0,0,1-2.127,4.878,7.2,7.2,0,0,1-5.115,1.626,6.484,6.484,0,0,1-5.441-2.638,11.375,11.375,0,0,1-2.013-7.072v-3.132a11.293,11.293,0,0,1,2.066-7.195,6.715,6.715,0,0,1,5.546-2.6q6.274,0,7.084,6.521h2.179a9.276,9.276,0,0,0-2.768-6.135,9.166,9.166,0,0,0-6.495-2.215,9.368,9.368,0,0,0-5.159,1.433,9.2,9.2,0,0,0-3.437,4.069,14.5,14.5,0,0,0-1.2,6.047v3.323a14.354,14.354,0,0,0,1.213,5.967,9.286,9.286,0,0,0,3.383,4.035,9.03,9.03,0,0,0,5.037,1.423,9.565,9.565,0,0,0,6.53-2.144,9.172,9.172,0,0,0,2.891-6.188h-2.179Zm25.764-17.613H566.552v1.828h8.754v23.766h2.162V271.762h8.772v-1.828Zm14.315,25.594a8.971,8.971,0,0,0,6.091-1.906,6.654,6.654,0,0,0,2.188-5.3,6.2,6.2,0,0,0-4.957-6.132,5.9,5.9,0,0,0,2.962-2.1,5.671,5.671,0,0,0,1.081-3.457,6.02,6.02,0,0,0-2.127-5q-2.127-1.7-6.24-1.7h-7.559v25.594h8.561Zm0.263-12.287a6.259,6.259,0,0,1,4.3,1.377,4.752,4.752,0,0,1,1.556,3.747,4.921,4.921,0,0,1-1.626,3.922,6.482,6.482,0,0,1-4.4,1.413h-6.487V283.241h6.662Zm-6.662-11.479h5.4a7.636,7.636,0,0,1,4.649,1.171,4.28,4.28,0,0,1,1.538,3.637,4.356,4.356,0,0,1-1.485,3.566,6.639,6.639,0,0,1-4.192,1.277h-5.907v-9.651Zm35.382,9.668H617.567v-9.668h13.676v-1.828H615.405v25.594h15.926V293.7H617.567V283.258h11.971V281.43Zm26.716-11.5h-2.18v11.5H639.449v-11.5h-2.162v25.594h2.162v-12.27h14.625v12.27h2.18V269.934Zm26.76,0h-2.18v11.5H666.209v-11.5h-2.162v25.594h2.162v-12.27h14.625v12.27h2.18V269.934Zm26.807,11.127a14.488,14.488,0,0,0-1.283-6.029,9.365,9.365,0,0,0-3.489-4.026,10.184,10.184,0,0,0-10.433.027,9.456,9.456,0,0,0-3.507,4.148,14.7,14.7,0,0,0-1.239,6.2v2.637q0,5.449,2.76,8.657a9.089,9.089,0,0,0,7.242,3.208,9.553,9.553,0,0,0,5.238-1.441,9.318,9.318,0,0,0,3.489-4.113,14.779,14.779,0,0,0,1.222-6.2v-3.059Zm-2.162,2.988q0,4.694-2.057,7.322a7.528,7.528,0,0,1-11.461-.036,11.31,11.31,0,0,1-2.109-7.215v-2.672q0-4.711,2.118-7.339a7.522,7.522,0,0,1,11.417-.009,11.308,11.308,0,0,1,2.092,7.242v2.707Zm9.67,10.371v-2.2h-2.057v2.725a7.655,7.655,0,0,1-1.652,4.447l1.248,0.914a7.572,7.572,0,0,0,2.461-5.889h0Z" transform="translate(-450.5 -269.594)"></path></svg> 