<?xml version="1.0" encoding="UTF-8"?> <svg xmlns="http://www.w3.org/2000/svg" width="151.406" height="26.312" viewBox="0 0 151.406 26.312"><defs><style> .cls-1 { fill: #120e0a; fill-rule: evenodd; } </style></defs><path id="вкусно_" data-name="вкусно!" class="cls-1" d="M512.793,351.528a8.969,8.969,0,0,0,6.09-1.906,6.655,6.655,0,0,0,2.189-5.3,6.2,6.2,0,0,0-4.957-6.132,5.9,5.9,0,0,0,2.962-2.1,5.678,5.678,0,0,0,1.081-3.457,6.02,6.02,0,0,0-2.127-5q-2.127-1.7-6.24-1.7h-7.559v25.594h8.561Zm0.263-12.287a6.26,6.26,0,0,1,4.3,1.377,4.752,4.752,0,0,1,1.556,3.747,4.921,4.921,0,0,1-1.626,3.922,6.483,6.483,0,0,1-4.4,1.413h-6.486V339.241h6.662Zm-6.662-11.479h5.4a7.638,7.638,0,0,1,4.649,1.171,4.28,4.28,0,0,1,1.538,3.637,4.356,4.356,0,0,1-1.485,3.566,6.642,6.642,0,0,1-4.193,1.277h-5.906v-9.651Zm37.556,23.766h2.69l-11.285-13.016,10.511-12.578h-2.724l-9.9,11.742h-3.41V325.934h-2.162v25.594h2.162V339.5h3.516Zm9.333-25.594H550.8l9.686,18.826-1.107,2.285-0.44.791a3.954,3.954,0,0,1-3.5,2.233,5.648,5.648,0,0,1-1.477-.123l-0.193,1.758a5.509,5.509,0,0,0,1.652.193,5.947,5.947,0,0,0,5.485-3.322l0.633-1.213,9.9-21.428h-2.549l-7.277,16.4Zm38.684,17.613a7.8,7.8,0,0,1-2.127,4.878,7.2,7.2,0,0,1-5.115,1.626,6.484,6.484,0,0,1-5.441-2.638,11.375,11.375,0,0,1-2.012-7.072v-3.132a11.293,11.293,0,0,1,2.065-7.195,6.715,6.715,0,0,1,5.546-2.6q6.274,0,7.084,6.521h2.18a9.282,9.282,0,0,0-2.769-6.135,9.166,9.166,0,0,0-6.5-2.215,9.368,9.368,0,0,0-5.159,1.433,9.2,9.2,0,0,0-3.437,4.069,14.5,14.5,0,0,0-1.2,6.047v3.323a14.354,14.354,0,0,0,1.213,5.967,9.288,9.288,0,0,0,3.384,4.035,9.027,9.027,0,0,0,5.036,1.423,9.565,9.565,0,0,0,6.53-2.144,9.177,9.177,0,0,0,2.892-6.188h-2.18Zm27.669-17.613h-2.179v11.5H602.832v-11.5H600.67v25.594h2.162v-12.27h14.625v12.27h2.179V325.934Zm26.808,11.127a14.488,14.488,0,0,0-1.283-6.029,9.367,9.367,0,0,0-3.49-4.026,10.182,10.182,0,0,0-10.432.027,9.456,9.456,0,0,0-3.507,4.148,14.7,14.7,0,0,0-1.239,6.2v2.637q0,5.449,2.76,8.657a9.088,9.088,0,0,0,7.242,3.208,9.553,9.553,0,0,0,5.238-1.441,9.318,9.318,0,0,0,3.489-4.113,14.779,14.779,0,0,0,1.222-6.2v-3.059Zm-2.162,2.988q0,4.694-2.057,7.322a7.528,7.528,0,0,1-11.461-.036,11.31,11.31,0,0,1-2.109-7.215v-2.672q0-4.711,2.118-7.339a7.522,7.522,0,0,1,11.417-.009,11.314,11.314,0,0,1,2.092,7.242v2.707Zm10.871-14.115h-2.18l0.106,18.457h1.951Zm-2.039,25.336a1.4,1.4,0,0,0,1.054.4,1.43,1.43,0,0,0,1.064-.4,1.335,1.335,0,0,0,.395-0.981,1.418,1.418,0,0,0-.395-1.017,1.4,1.4,0,0,0-1.064-.416,1.369,1.369,0,0,0-1.054.416,1.437,1.437,0,0,0-.387,1.017A1.352,1.352,0,0,0,653.114,351.27Z" transform="translate(-504.219 -325.594)"></path></svg> 